<svg width="48" height="48" viewBox="0 0 48 48" fill="none" xmlns="http://www.w3.org/2000/svg">
<g clip-path="url(#clip0_140_1148)">
<path fill-rule="evenodd" clip-rule="evenodd" d="M-1.01995 47.0375C-1.01854 46.4741 -0.560727 46.0186 0.0026018 46.02L48.0026 46.14C48.5659 46.1414 49.0215 46.5992 49.02 47.1626C49.0186 47.7259 48.5608 48.1814 47.9975 48.18L-0.00249819 48.06C-0.565827 48.0586 -1.02135 47.6008 -1.01995 47.0375Z" fill="#343D6D"/>
<path fill-rule="evenodd" clip-rule="evenodd" d="M4.08004 33.6V45.96H7.08004V33.6H4.08004ZM3.48004 31.56C2.68475 31.56 2.04004 32.2047 2.04004 33V46.56C2.04004 47.3553 2.68475 48 3.48004 48H7.68004C8.47533 48 9.12004 47.3553 9.12004 46.56V33C9.12004 32.2047 8.47533 31.56 7.68004 31.56H3.48004Z" fill="#343D6D"/>
<path fill-rule="evenodd" clip-rule="evenodd" d="M28.56 35.28V45.96H31.56V35.28H28.56ZM27.96 33.24C27.1647 33.24 26.52 33.8847 26.52 34.68V46.56C26.52 47.3553 27.1647 48 27.96 48H32.16C32.9553 48 33.6 47.3553 33.6 46.56V34.68C33.6 33.8847 32.9553 33.24 32.16 33.24H27.96Z" fill="#343D6D"/>
<path fill-rule="evenodd" clip-rule="evenodd" d="M40.8 18.48V45.96H43.8V18.48H40.8ZM40.2 16.44C39.4047 16.44 38.76 17.0847 38.76 17.88V46.56C38.76 47.3553 39.4047 48 40.2 48H44.4C45.1953 48 45.84 47.3553 45.84 46.56V17.88C45.84 17.0847 45.1953 16.44 44.4 16.44H40.2Z" fill="#343D6D"/>
<path fill-rule="evenodd" clip-rule="evenodd" d="M16.32 26.04V45.96H19.32V26.04H16.32ZM15.72 24C14.9247 24 14.28 24.6447 14.28 25.44V46.56C14.28 47.3553 14.9247 48 15.72 48H19.92C20.7153 48 21.36 47.3553 21.36 46.56V25.44C21.36 24.6447 20.7153 24 19.92 24H15.72Z" fill="#343D6D"/>
<path fill-rule="evenodd" clip-rule="evenodd" d="M41.5848 6.48636C42.012 6.85347 42.0608 7.49746 41.6937 7.92473L33.0329 18.0047C32.6658 18.432 32.0218 18.4808 31.5945 18.1137C31.1673 17.7465 31.1185 17.1026 31.4856 16.6753L40.1464 6.59528C40.5135 6.16801 41.1575 6.11924 41.5848 6.48636ZM18.3442 7.99369C18.7343 7.58728 19.3799 7.57404 19.7864 7.96413L29.163 16.9641C29.5694 17.3542 29.5827 17.9999 29.1926 18.4063C28.8025 18.8127 28.1568 18.826 27.7504 18.4359L18.3737 9.43589C17.9673 9.0458 17.9541 8.40011 18.3442 7.99369ZM15.6613 7.97876C16.0596 8.37709 16.0596 9.02292 15.6613 9.42126L8.22129 16.8613C7.82296 17.2596 7.17713 17.2596 6.77879 16.8613C6.38046 16.4629 6.38046 15.8171 6.77879 15.4188L14.2188 7.97876C14.6171 7.58042 15.263 7.58042 15.6613 7.97876Z" fill="#343D6D"/>
<path fill-rule="evenodd" clip-rule="evenodd" d="M5.58001 19.68C6.47471 19.68 7.20001 18.9547 7.20001 18.06C7.20001 17.1653 6.47471 16.44 5.58001 16.44C4.68531 16.44 3.96001 17.1653 3.96001 18.06C3.96001 18.9547 4.68531 19.68 5.58001 19.68ZM5.58001 20.88C7.13745 20.88 8.40001 19.6174 8.40001 18.06C8.40001 16.5025 7.13745 15.24 5.58001 15.24C4.02257 15.24 2.76001 16.5025 2.76001 18.06C2.76001 19.6174 4.02257 20.88 5.58001 20.88Z" fill="#343D6D"/>
<path fill-rule="evenodd" clip-rule="evenodd" d="M16.98 8.51999C17.8747 8.51999 18.6 7.79469 18.6 6.89999C18.6 6.00529 17.8747 5.27999 16.98 5.27999C16.0853 5.27999 15.36 6.00529 15.36 6.89999C15.36 7.79469 16.0853 8.51999 16.98 8.51999ZM16.98 9.71999C18.5375 9.71999 19.8 8.45743 19.8 6.89999C19.8 5.34254 18.5375 4.07999 16.98 4.07999C15.4226 4.07999 14.16 5.34254 14.16 6.89999C14.16 8.45743 15.4226 9.71999 16.98 9.71999Z" fill="#343D6D"/>
<path fill-rule="evenodd" clip-rule="evenodd" d="M30.42 21.12C31.3147 21.12 32.04 20.3947 32.04 19.5C32.04 18.6053 31.3147 17.88 30.42 17.88C29.5253 17.88 28.8 18.6053 28.8 19.5C28.8 20.3947 29.5253 21.12 30.42 21.12ZM30.42 22.32C31.9775 22.32 33.24 21.0574 33.24 19.5C33.24 17.9425 31.9775 16.68 30.42 16.68C28.8626 16.68 27.6 17.9425 27.6 19.5C27.6 21.0574 28.8626 22.32 30.42 22.32Z" fill="#343D6D"/>
<path fill-rule="evenodd" clip-rule="evenodd" d="M42.66 6.83999C43.5547 6.83999 44.28 6.1147 44.28 5.21999C44.28 4.32529 43.5547 3.59999 42.66 3.59999C41.7653 3.59999 41.04 4.32529 41.04 5.21999C41.04 6.1147 41.7653 6.83999 42.66 6.83999ZM42.66 8.03999C44.2175 8.03999 45.48 6.77744 45.48 5.21999C45.48 3.66255 44.2175 2.39999 42.66 2.39999C41.1026 2.39999 39.84 3.66255 39.84 5.21999C39.84 6.77744 41.1026 8.03999 42.66 8.03999Z" fill="#343D6D"/>
</g>
<defs>
<clipPath id="clip0_140_1148">
<rect width="48" height="48" fill="white"/>
</clipPath>
</defs>
</svg>
