<svg width="1920" height="325" viewBox="0 0 1920 325" fill="none" xmlns="http://www.w3.org/2000/svg">
<g clip-path="url(#clip0_726_6448)">
<path fill-rule="evenodd" clip-rule="evenodd" d="M729.56 -442.402C731.314 -441.868 732.729 -440.639 731.589 -440.639C731.298 -440.639 730.605 -438.377 730.05 -435.614C729.494 -432.85 728.544 -428.967 727.939 -426.986C727.333 -425.004 726.836 -422.811 726.834 -422.113C726.832 -421.414 726.441 -420.057 725.965 -419.098C725.489 -418.138 725.1 -416.905 725.101 -416.357C725.103 -414.899 723.498 -407.438 722.199 -402.874C720.013 -395.188 718.778 -390.287 716.672 -380.945C715.502 -375.753 714.202 -370.927 713.783 -370.222C713.363 -369.518 712.837 -367.873 712.612 -366.568C712.388 -365.262 711.954 -363.688 711.65 -363.068C711.345 -362.448 710.456 -359.296 709.674 -356.063C707.892 -348.689 707.753 -348.167 705.116 -338.916C702.964 -331.367 702.332 -329.021 701.339 -324.906C701.056 -323.734 700.012 -319.622 699.019 -315.77C696.059 -304.282 695.559 -302.25 694.672 -298.113C694.205 -295.94 693.319 -292.513 692.701 -290.499C692.084 -288.485 691.272 -285.208 690.898 -283.218C690.524 -281.228 689.997 -279.172 689.726 -278.65C689.456 -278.127 688.816 -275.644 688.304 -273.131C687.792 -270.619 686.503 -265.411 685.441 -261.558C684.379 -257.705 683.329 -253.594 683.109 -252.421C682.888 -251.249 682.354 -249.056 681.92 -247.548C681.487 -246.041 680.699 -243.025 680.17 -240.848C679.641 -238.67 678.85 -235.655 678.413 -234.148C677.976 -232.64 676.955 -228.155 676.143 -224.181C675.332 -220.207 674.285 -215.994 673.818 -214.818C673.351 -213.642 672.968 -212.25 672.968 -211.724C672.968 -211.198 672.332 -208.56 671.553 -205.859C670.775 -203.16 669.452 -198.347 668.613 -195.164C667.774 -191.981 666.606 -187.596 666.017 -185.418C664.433 -179.567 662.603 -172.313 661.406 -167.144C660.825 -164.632 659.65 -159.972 658.797 -156.789C657.943 -153.607 656.347 -147.302 655.249 -142.78C654.152 -138.257 652.345 -130.993 651.234 -126.638C646.15 -106.698 645.082 -102.048 644.86 -98.8719C644.634 -95.6484 644.727 -95.3633 646.631 -93.4226C648.939 -91.0696 649.082 -90.0415 647.51 -87.097L646.379 -84.9797L647.799 -81.3043C649.28 -77.4723 649.63 -74.0155 648.643 -72.977C648.259 -72.5737 648.454 -71.5693 649.222 -69.985C650.804 -66.7219 650.677 -64.7411 648.64 -60.9469C647.324 -58.4945 646.903 -56.937 646.903 -54.5267C646.903 -52.6823 646.433 -50.2617 645.786 -48.7681C645.172 -47.3513 644.481 -45.3985 644.25 -44.4281C643.764 -42.3931 639.971 -38.1993 636.583 -35.9498C635.3 -35.0983 633.793 -33.5882 633.236 -32.5948C632.677 -31.6013 631.756 -30.6609 631.188 -30.5043C628.786 -29.844 625.456 -18.6831 624.612 -8.46881C624.556 -7.79877 624.351 -6.8394 624.155 -6.33687C623.96 -5.83435 623.354 -3.64153 622.81 -1.46393C621.653 3.1672 619.544 8.08708 617.066 11.9367C614.589 15.7839 613.504 18.7613 612.403 24.7282C611.878 27.5759 611.217 30.2048 610.934 30.5709C610.652 30.937 610.586 31.4097 610.788 31.6222C610.99 31.8342 610.876 32.3611 610.536 32.793C610.195 33.2242 609.654 35.3555 609.333 37.5282C609.012 39.701 608.105 44.083 607.316 47.2656C604.655 58.0172 601.677 69.2408 601.046 70.897C600.7 71.8028 599.693 75.5592 598.807 79.2444C597.922 82.9296 596.76 87.5894 596.226 89.5995C595.692 91.6096 594.725 95.447 594.078 98.1271C593.43 100.807 592.659 103.316 592.363 103.702C591.739 104.519 593.872 106.277 598.446 108.717C601.173 110.171 601.434 110.495 601.455 112.441C601.468 113.614 601.692 115.6 601.953 116.853C602.583 119.873 602.078 121.718 599.913 124.312C598.396 126.128 598.089 127.044 597.917 130.262C597.601 136.15 597.577 137.235 597.706 139.865C597.786 141.518 597.482 142.712 596.768 143.542C596.187 144.217 594.783 147.088 593.648 149.921C591.061 156.383 588.158 160.547 583.258 164.826C575.757 171.376 575.564 171.676 573.419 180.077C572.353 184.252 570.963 189.586 570.331 191.932C569.698 194.277 568.966 197.018 568.705 198.023C567.735 201.755 565.813 209.126 564.656 213.555C563.999 216.068 563.037 219.905 562.518 222.083C561.999 224.261 561.224 226.475 560.796 227.004C560.367 227.533 560.017 228.324 560.017 228.763C560.017 229.2 561.255 228.345 562.768 226.862C565.819 223.871 571.77 219.037 572.402 219.037C572.625 219.037 573.513 218.492 574.376 217.826C576.132 216.471 585.628 212.946 587.524 212.946C588.196 212.946 589 212.68 589.31 212.355C590.559 211.041 609.705 209.62 611.423 210.714C611.663 210.866 614.335 211.174 617.362 211.398C620.388 211.622 623.112 212.062 623.415 212.376C623.717 212.69 624.708 212.946 625.617 212.946C626.525 212.946 628.233 213.462 629.411 214.093C630.589 214.724 633.899 216.016 636.766 216.965C641.967 218.686 647.315 220.892 649.509 222.221C653.206 224.462 659.202 227.967 661.963 229.503C668.163 232.953 670.05 234.364 674.265 238.707C679.18 243.772 682.695 248.603 685.875 254.662C688.498 259.662 691.791 268.255 692.688 272.441C693.483 276.15 693.516 288.25 692.738 290.402C692.415 291.294 691.612 294.412 690.952 297.332C688.149 309.744 679.782 322.357 669.185 330.147C662.632 334.964 643.818 345.125 641.452 345.125C640.722 345.125 639.369 345.392 638.445 345.719C635.574 346.734 623.068 348.36 618.81 348.272C609.568 348.081 597.912 345.092 587.531 340.252C583.343 338.299 579.527 337.657 576.763 338.439C572.255 339.716 566.389 346.028 566.389 349.603C566.389 352.459 571.32 356.053 576.566 357.023C583.021 358.215 590.305 362.38 592.826 366.316C594.26 368.559 594.272 371.186 592.85 372.022C592.172 372.421 592.007 373.077 592.255 374.381C592.685 376.644 591.6 378.121 589.604 377.988C588.783 377.933 586.649 377.918 584.864 377.953C581.022 378.029 579.333 379.336 577.526 383.632C576.888 385.147 576.016 386.616 575.586 386.896C574.521 387.588 571.086 387.218 569.618 386.253C568.957 385.818 567.373 385.126 566.099 384.714C561.316 383.169 555.26 379.564 552.119 376.389C549.533 373.776 548.643 373.219 547.531 373.512C546.65 373.745 545.458 373.427 544.236 372.632C540.772 370.38 532.161 360.134 529.95 355.632C528.605 352.895 528.267 353.519 526.233 362.485C525.777 364.495 524.558 369.429 523.524 373.449C522.491 377.469 521.295 382.266 520.868 384.109C518.981 392.243 513.609 413.301 510.378 425.224C508.771 431.157 506.075 441.692 505.78 443.193C505.616 444.031 505.274 445.264 505.021 445.934C504.768 446.604 503.965 449.619 503.239 452.635C502.512 455.65 501.028 461.543 499.941 465.731C498.855 469.918 497.463 475.538 496.849 478.218C496.234 480.898 495.491 483.53 495.196 484.067C494.901 484.604 494.473 486.386 494.246 488.026C494.019 489.667 493.478 491.969 493.044 493.141C492.185 495.466 487.431 514.189 486.085 520.551C485.624 522.729 484.76 526.155 484.165 528.165C483.57 530.176 481.711 537.302 480.032 544.003C478.354 550.703 476.351 558.652 475.582 561.667C474.285 566.746 473.899 568.364 472.6 574.154C472.337 575.327 470.915 580.616 469.441 585.908C467.966 591.199 466.76 595.939 466.76 596.44C466.76 596.941 466.258 599.052 465.645 601.132C465.032 603.213 463.844 607.656 463.005 611.006C460.516 620.943 458.566 628.49 457.733 631.411C457.304 632.919 456.518 635.797 455.988 637.807C455.457 639.817 454.666 642.636 454.23 644.072C453.794 645.507 453.437 647.204 453.437 647.843C453.437 649.254 452.538 649.933 451.555 649.264C451.156 648.993 448.356 648.213 445.331 647.53C441.308 646.621 439.784 646.02 439.649 645.288C439.548 644.738 441.208 637.758 443.338 629.778C452.264 596.329 460.529 565.021 462.927 555.576C464.032 551.221 466.665 541.079 468.777 533.038C470.89 524.998 473.647 514.445 474.904 509.587C476.161 504.73 478.765 494.725 480.69 487.354C482.615 479.984 485.114 470.253 486.244 465.731C489.146 454.12 489.578 452.423 491.977 443.193C493.153 438.671 494.576 433.189 495.14 431.011C495.704 428.833 496.552 425.818 497.026 424.311C497.499 422.803 498.293 420.062 498.789 418.219C499.286 416.377 500.221 412.951 500.868 410.605C501.997 406.519 502.629 404.004 506.994 386.241C508.065 381.885 509.246 377.5 509.619 376.495C509.992 375.49 511.322 370.556 512.574 365.531C516.217 350.91 519.025 340.083 523.789 322.283C524.506 319.603 525.3 316.902 525.553 316.28C525.954 315.293 525.726 315.337 523.756 316.624C520.518 318.739 515.903 320.003 509.889 320.42C504.184 320.818 497.946 319.77 487.902 316.727C475.423 312.947 462.476 302.079 456.804 290.619C455.41 287.803 454.285 286.136 454.131 286.659C453.558 288.608 452.068 289.695 449.969 289.695C447.314 289.695 446.993 290.025 447.714 292.018C448.138 293.19 448.05 294.264 447.378 296.114C446.546 298.404 446.548 298.855 447.406 301.315C447.923 302.797 448.557 304.832 448.816 305.837C449.843 309.821 451.733 315.953 454.263 323.501C458.233 335.352 458.752 339.448 458.854 359.744C458.953 379.833 458.861 380.348 454.841 381.962C453.432 382.528 452.246 383.174 452.205 383.398C452.164 383.621 452.071 384.352 451.998 385.022C451.925 385.692 451.567 387.693 451.203 389.468C450.839 391.244 450.541 393.637 450.541 394.786C450.541 398.4 448.907 401.693 446.462 403.004C442.897 404.917 441.891 406.925 437.31 421.265C435.758 426.123 433.4 433.249 432.069 437.102C430.738 440.955 428.528 447.533 427.158 451.721C425.788 455.909 424.23 460.217 423.697 461.296C422.961 462.783 422.747 464.695 422.811 469.214C422.884 474.377 422.685 475.742 421.319 479.436C420.452 481.781 419.449 484.072 419.09 484.527C417.529 486.505 419.873 512.13 422.198 518.518C422.544 519.468 422.854 523.947 422.886 528.47C422.932 535.086 422.637 538.36 421.375 545.221C420.512 549.911 419.402 556.078 418.907 558.926C418.413 561.774 417.762 564.591 417.461 565.186C417.033 566.036 417.335 566.692 418.858 568.232C421.599 571.001 422.738 573.17 422.738 575.621C422.738 577.051 422.36 578.018 421.576 578.596C420.624 579.297 420.45 579.991 420.616 582.437C420.847 585.837 419.974 588.126 417.818 589.778C417.006 590.4 416.207 591.686 416.043 592.637C415.378 596.496 412.135 599.128 408.047 599.128C406.147 599.128 405.942 599.308 405.441 601.412C405.142 602.669 404.911 604.107 404.928 604.61C404.945 605.112 404.627 607.949 404.223 610.914C403.612 615.387 403.198 616.65 401.788 618.338C400.854 619.457 399.211 620.677 398.139 621.05C396.07 621.768 394.423 623.822 394.407 625.706C394.358 631.094 392.381 639.424 390.902 640.47C390.051 641.072 389.721 641.97 389.721 643.687C389.721 646.918 388.516 649.715 386.264 651.706C384.743 653.053 384.519 653.533 385.08 654.244C385.461 654.726 385.914 656.766 386.088 658.778C386.427 662.714 385.872 664.809 383.453 668.716C381.763 671.447 381.979 674.274 384.233 678.952C385.021 680.589 385.669 682.279 385.672 682.709C385.684 684.294 388.491 689.775 391.238 693.572C393.717 697 394.065 697.844 394.065 700.42C394.065 702.835 393.808 703.565 392.617 704.527C391.821 705.17 390.778 705.713 390.3 705.733C389.823 705.754 388.907 706.651 388.265 707.727C387.561 708.908 386.528 709.76 385.658 709.879C384.797 709.996 383.749 710.853 383.051 712.011C382.349 713.175 381.309 714.022 380.444 714.135C379.653 714.239 377.9 714.856 376.55 715.506C375.199 716.156 373.692 716.688 373.201 716.688C371.67 716.688 368.32 714.976 366.122 713.071C363.875 711.123 362.497 711.381 362.497 713.751C362.497 714.586 361.57 715.374 359.307 716.464L356.117 718L354.159 716.728C353.083 716.028 352.05 714.979 351.864 714.397C351.677 713.814 351.292 712.927 351.006 712.424C347.744 706.678 348.002 697.752 351.624 691.105C353.215 688.185 353.121 684.307 351.345 679.532C347.908 670.293 347.414 667.586 347.692 659.531L347.951 652.016L350.489 649.163C353.271 646.035 353.668 644.465 354.976 631.411C356.585 615.343 356.516 613.767 354.257 615.039C353.538 615.443 350.719 615.788 347.992 615.806C343.813 615.833 342.677 615.616 340.756 614.425L338.479 613.012L332.243 616.425C328.294 618.586 325.295 619.838 324.066 619.838C321.873 619.838 317.963 617.178 316.35 614.589C314.815 612.126 312.026 611.123 309.041 611.96C306.633 612.635 300.483 615.489 295.203 618.382C292.738 619.732 283.454 622.453 273.005 624.889C269.002 625.822 259.452 626.814 256.347 626.619C254.592 626.508 249.348 624.174 247.518 622.689C246.577 621.924 246.36 621.028 246.36 617.9V614.051L244.339 613.747C242.8 613.515 242.125 613.006 241.51 611.615C240.011 608.22 239.07 607.508 236.624 607.919C235.007 608.192 225.419 612.703 223.635 614.032C223.561 614.087 223.742 615.021 224.038 616.107C224.335 617.194 224.42 620.432 224.227 623.304L223.876 628.525L218.755 634.046C215.938 637.083 213.633 639.762 213.633 639.999C213.633 640.237 212.739 642.095 211.646 644.127C209.123 648.821 206.99 655.41 206.102 661.258C205.719 663.771 205.141 666.582 204.815 667.505C204.15 669.387 200.696 672.831 199.473 672.831C198.4 672.831 195.93 676.002 194.189 679.615C192.952 682.18 192.215 682.861 188.612 684.769C182.272 688.127 178.965 687.564 177.816 682.931C177.369 681.126 177.246 681.062 174.617 681.263C172.045 681.46 171.73 681.312 169.299 678.755C167.641 677.012 166.715 675.501 166.715 674.541C166.715 673.714 166.041 672.382 165.21 671.567C159.696 666.154 160.694 655.83 167.004 653.001C170.064 651.63 173.113 648.347 173.761 645.725C174.779 641.608 175.003 638.721 174.306 638.721C173.953 638.721 173.666 638.995 173.666 639.33C173.666 639.665 172.765 639.939 171.665 639.939C170.565 639.939 169.016 640.25 168.222 640.63C167.09 641.173 165.928 641.097 162.837 640.281C158.248 639.07 157.511 638.472 154.771 633.727C153.338 631.247 152.267 630.081 151.178 629.814C150.325 629.604 148.585 628.402 147.31 627.143C144.2 624.069 143.656 623.829 136.355 622.308C129.901 620.964 127.767 619.97 121.568 615.426C117.074 612.132 113.675 611.167 110.313 612.231C108.873 612.687 107.126 613.379 106.432 613.77C105.737 614.161 103.132 614.855 100.643 615.312C96.4821 616.076 95.8612 616.05 92.9279 614.989C87.8139 613.139 85.9887 611.533 77.3945 601.326C75.4384 599.002 75.3122 598.952 71.0079 598.802C61.2408 598.463 48.969 590.888 45.4108 583.003C44.0519 579.991 42.5829 579.217 37.2858 578.722C31.578 578.188 27.9705 576.521 21.6898 571.514C14.6527 565.905 10.9612 563.431 7.42439 561.955C-3.98427 557.194 -10.3907 553.327 -13.1316 549.549C-14.0074 548.341 -15.0721 547.353 -15.4972 547.353C-15.9224 547.353 -16.7767 546.187 -17.396 544.764C-18.0152 543.34 -19.9788 539.845 -21.76 536.998C-24.1366 533.197 -25.0002 531.249 -25.0054 529.672C-25.0158 526.723 -24.1979 525.555 -17.9758 519.632L-15.8616 517.62L-15.7897 511.075C-15.6582 499.14 -14.6921 496.901 -5.05296 486.195C-1.52598 482.278 -1.08576 481.286 -1.52135 478.233C-1.73509 476.733 -2.15618 475.346 -2.45622 475.15C-2.75627 474.955 -3.0019 474.247 -3.0019 473.577C-3.0019 472.907 -2.74124 472.528 -2.42266 472.736C-2.10408 472.943 -1.84341 472.838 -1.84341 472.503C-1.84341 471.539 -2.87505 471.125 -3.16988 471.971C-3.37725 472.566 -3.60023 472.574 -4.17367 472.006C-4.76855 471.417 -4.77027 470.581 -4.18292 467.67C-3.33376 463.462 -3.65355 462.04 -6.19408 458.726C-10.0547 453.69 -10.1277 452.82 -7.40821 444.226C-5.85933 439.333 -5.50363 437.366 -5.73127 434.954L-6.02033 431.894L-2.62885 430.268C-0.763128 429.375 2.19678 428.055 3.94898 427.337C5.70117 426.618 8.3077 425.536 9.74131 424.932C11.1749 424.328 16.1274 422.318 20.7469 420.463C25.3663 418.609 30.9704 416.232 33.2004 415.18C35.4305 414.129 38.1674 412.856 39.2825 412.352C40.3975 411.849 41.8311 411.191 42.4683 410.89C43.1054 410.589 45.8011 409.603 48.4581 408.7C51.1156 407.796 53.6567 406.671 54.1057 406.199C54.5546 405.727 54.9555 404.196 54.9966 402.796C55.2827 393.048 57.0228 388.64 63.0816 382.314C67.6431 377.551 67.7815 377.156 67.3245 370.177L66.9231 364.047L68.7512 362.251C69.9589 361.065 72.2978 359.904 75.6388 358.832C78.4215 357.939 84.3472 356.03 88.8073 354.588C96.8291 351.997 103.498 350.089 110.239 348.456C112.151 347.993 115.409 347.071 117.48 346.407C119.55 345.743 124.112 344.487 127.616 343.618C131.121 342.748 134.509 341.8 135.146 341.51C135.783 341.22 137.774 340.529 139.57 339.973C144.328 338.502 144.781 338.015 144.123 335.075C143.563 332.575 143.996 330.243 145.632 326.945C146.074 326.056 146.436 325.047 146.438 324.703C146.44 324.358 148.005 322.058 149.917 319.592L153.392 315.108V310.605C153.392 308.128 153.748 305.208 154.182 304.114C154.986 302.09 157.866 299.155 160.021 298.164C160.676 297.863 161.603 297.352 162.081 297.028C162.559 296.705 164.514 295.715 166.425 294.828C169.511 293.396 171.726 292.647 178.01 290.912C181.429 289.968 192.382 285.944 194.487 284.858C194.961 284.613 195.981 281.676 196.841 278.076C197.675 274.584 198.775 270.904 199.286 269.899C200.579 267.356 204.22 263.83 206.935 262.494C209.657 261.154 209.957 260.21 209.901 253.148C209.863 248.353 209.775 247.98 208.705 248.096C208.071 248.165 205.987 248.362 204.076 248.533C202.164 248.704 198.385 249.14 195.677 249.501C192.969 249.862 188.798 250.397 186.409 250.691C180.634 251.402 163.265 251.118 161.791 250.289C161.154 249.932 158.808 249.473 156.578 249.271C148.252 248.515 141.255 246.676 124.72 240.896C121.853 239.894 118.334 238.702 116.9 238.246C115.467 237.791 111.566 236.31 108.233 234.957C104.9 233.603 102.083 232.588 101.976 232.702C101.867 232.815 102.396 233.419 103.15 234.044C103.903 234.668 105.416 236.603 106.51 238.344C113.112 248.84 113.25 249.443 109.963 253.437C108.637 255.047 107.139 257.08 106.634 257.955C105.243 260.362 100.163 265.273 97.6945 266.597C94.7074 268.2 89.4085 269.734 85.9111 270.009C83.2083 270.222 79.4832 269.421 54.053 263.165C47.8951 261.65 46.9851 261.862 39.8148 266.473C33.5237 270.518 26.2647 276.585 15.3727 286.902C12.5125 289.61 9.87974 291.844 9.52235 291.864C8.14492 291.943 7.64565 290.847 7.83795 288.162C8.01114 285.74 7.81184 285.136 6.32725 283.575C4.80734 281.977 2.77656 281.314 0.763131 281.761C0.44455 281.831 -0.728382 281.969 -1.84341 282.065C-2.95845 282.162 -5.56962 283.069 -7.64561 284.082C-14.0665 287.215 -17.6943 288.069 -22.6531 287.614C-25.5673 287.348 -27.554 286.822 -28.5706 286.048C-30.0905 284.891 -30.1276 284.894 -34.0734 286.457C-45.0099 290.788 -46.9788 291.154 -59.4926 291.188L-71.093 291.218L-75.2838 288.555C-79.5922 285.818 -80.5369 284.38 -79.7469 281.764C-79.3924 280.588 -79.0569 280.483 -76.6537 280.794C-69.0327 281.778 -64.7191 281.888 -61.3427 281.183C-55.296 279.922 -49.1116 277.206 -40.4583 272.013C-37.9624 270.515 -34.9381 268.741 -33.7385 268.071C-31.578 266.865 -27.1908 263.004 -19.8374 255.837C-16.1117 252.206 -9.60988 247.057 -8.75087 247.057C-8.51223 247.057 -6.53468 245.981 -4.35616 244.665C-2.17765 243.35 1.67256 241.415 4.19977 240.364C6.72756 239.313 9.46443 237.959 10.2817 237.356C11.983 236.101 20.7903 233.157 25.0911 232.407C26.684 232.129 29.9422 231.454 32.3316 230.907C34.7209 230.36 37.8489 229.822 39.2825 229.712C40.7161 229.601 44.3745 229.32 47.4126 229.086C53.1274 228.646 58.9006 229.238 66.0843 231.003C69.2927 231.791 70.3197 231.829 71.7319 231.214C72.6807 230.801 73.4575 230.139 73.4575 229.744C73.4575 228.538 64.682 223.365 60.4009 222.047C55.5828 220.563 43.3822 219.066 35.9744 219.05C25.986 219.027 15.5337 220.616 15.5337 222.157C15.5337 223.193 11.0492 222.71 9.6608 221.524L8.29326 220.357L9.50727 218.631C10.9015 216.648 20.4213 208.873 22.1677 208.29C22.8101 208.076 24.7529 206.8 26.4842 205.455C28.2161 204.109 32.7289 201.338 36.5131 199.298C45.054 194.691 47.3489 193.404 49.155 192.208C51.0346 190.964 57.7306 188.04 59.8802 187.526C62.2446 186.959 65.8057 186.971 68.4274 187.552C70.4669 188.005 70.5931 187.955 70.0619 186.911C69.0257 184.875 71.2326 182.276 75.632 180.353C77.7809 179.414 79.7873 178.414 80.0897 178.131C80.3926 177.849 80.9957 177.617 81.4301 177.617C81.8645 177.617 83.5721 176.966 85.2241 176.171C88.9405 174.381 93.6387 172.18 95.1789 171.508C100.636 169.124 113.869 166.51 121.915 166.225C128.294 165.999 129.385 166.124 133.499 167.548C135.998 168.412 138.564 169.355 139.201 169.643C139.838 169.93 142.109 170.909 144.247 171.818C147.534 173.216 148.363 173.88 149.615 176.128C150.43 177.59 151.352 180.236 151.664 182.008C152.42 186.305 154.208 191.279 157.1 197.13C159.025 201.025 160.424 202.841 164.401 206.605C170.461 212.341 177.935 217.599 181.615 218.714C191.101 221.59 203.769 221.471 209.868 218.448C210.505 218.132 212.721 217.148 214.791 216.261C223.35 212.596 229.466 208.358 231.88 204.418C234.37 200.352 234.779 197.871 233.636 193.739C232.034 187.944 227.342 185.927 221.541 188.541C218.607 189.864 218.009 190.746 217.392 194.658C216.818 198.299 214.308 200.903 210.152 202.171C202.83 204.405 199.827 205.039 194.847 205.405C187.726 205.927 183.393 204.802 173.376 199.828C168.933 197.622 161.457 191.642 160.797 189.765C160.568 189.114 160.14 188.581 159.846 188.581C159.551 188.581 159.139 187.827 158.93 186.906C158.721 185.985 157.942 183.861 157.197 182.186C153.015 172.768 152.259 168.558 153.258 160.246C153.894 154.956 157.888 148.504 163.024 144.471C164.34 143.438 167.428 140.856 169.886 138.733C174.208 135.002 181.846 130.132 183.404 130.114C183.822 130.11 185.826 129.263 187.856 128.233C189.887 127.204 193.177 125.961 195.168 125.473C197.159 124.985 199.143 124.275 199.578 123.895C200.013 123.516 201.854 123.131 203.67 123.039C205.486 122.948 209.065 122.316 211.624 121.635C215.115 120.705 218.92 120.316 226.876 120.078C232.707 119.904 237.717 119.605 238.01 119.415C238.955 118.801 237.495 116.882 235.81 116.521C234.922 116.331 233.098 115.061 231.757 113.699C229.497 111.405 229.079 111.223 226.08 111.223C222.328 111.223 220.098 110.186 218.113 107.52C216.925 105.923 216.523 105.726 215.6 106.288C214.01 107.255 185.343 111.567 179.046 111.785C177.386 111.843 173.606 112.404 170.647 113.03C167.688 113.658 161.748 114.909 157.447 115.811C152.285 116.894 149.246 117.835 148.505 118.58C147.419 119.672 147.417 119.747 148.437 120.932C149.017 121.606 150.586 122.714 151.924 123.396C156.364 125.656 158.218 128.91 156.572 131.553C155.745 132.88 149.325 137.415 148.274 137.415C148.053 137.415 146.834 138.007 145.564 138.73C144.294 139.453 141.822 140.385 140.07 140.8C138.318 141.216 134.277 142.247 131.092 143.092C127.906 143.937 121.853 145.339 117.642 146.207C107.931 148.21 106.815 148.641 107.278 150.218C107.473 150.882 107.787 151.95 107.977 152.591C108.387 153.982 106.688 155.138 104.121 155.214C103.185 155.242 102.419 155.54 102.419 155.876C102.419 156.212 101.944 156.035 101.363 155.482C99.9547 154.142 91.9305 153.299 80.2635 153.266C77.4756 153.259 75.1952 153.009 75.1952 152.713C75.1952 151.932 78.9886 151.469 88.3786 151.103C92.9216 150.926 97.285 150.522 98.0756 150.207C99.3673 149.69 99.4456 149.475 98.8461 148.092C97.9703 146.072 98.8941 143.88 101.135 142.661C102.575 141.878 109.335 140.345 114.873 139.544C118.918 138.959 120.483 138.66 122.401 138.103C123.517 137.779 124.43 137.602 124.43 137.71C124.43 137.819 126.189 137.242 128.34 136.43C130.491 135.617 133.814 134.376 135.725 133.671C138.932 132.489 141.808 130.498 141.808 129.461C141.808 129.224 141.351 128.873 140.794 128.681C138.894 128.027 134.572 125.124 132.629 123.197C130.766 121.349 130.702 121.134 130.987 117.707C131.582 110.534 136.035 108.073 158.895 102.289C162.081 101.482 166.251 100.544 168.163 100.204C172.591 99.4154 180.639 96.851 184.381 95.0371C185.974 94.2647 188.972 92.9039 191.043 92.0128C195.333 90.1678 198.573 87.8117 198.573 86.5386C198.573 85.2942 195.91 84.0205 191.598 83.2031C189.54 82.8126 187.401 82.0628 186.843 81.5359C184.377 79.2066 186.584 74.3245 191.535 71.1528C194.563 69.2128 200.86 66.6235 202.798 66.5205C203.501 66.4834 204.064 66.1788 204.05 65.8438C204.006 64.7967 202.465 61.8845 201.955 61.8845C201.688 61.8845 201.469 61.3363 201.469 60.6663C201.469 59.1447 200.918 59.144 197.521 60.6583C196.029 61.3235 192.462 62.5667 189.595 63.4201C183.778 65.1518 173.086 70.2538 173.086 71.2978C173.086 71.6688 174.17 72.3754 175.494 72.8675C178.627 74.0316 179.3 75.1816 178.315 77.6838C176.391 82.5653 167.191 84.2045 143.545 83.8786C130.311 83.6965 129.889 83.7276 128.34 85.0146C126.453 86.5819 126.348 87.6557 127.881 89.7048C129.162 91.4164 128.821 92.4477 126.329 94.4066C125.017 95.4384 123.87 95.5493 115.4 95.4598L105.938 95.3605L104.948 96.9473C104.121 98.2764 104.07 98.855 104.638 100.506C105.555 103.173 105.61 103.048 103.014 104.141C101.124 104.936 99.1808 105.048 92.1529 104.765C87.4455 104.576 82.8121 104.405 81.8564 104.385C80.9007 104.365 78.8948 104.86 77.3992 105.485C73.9487 106.926 73.2582 106.241 75.7506 103.847C78.2205 101.474 80.2015 100.691 82.5585 101.157C83.7401 101.39 85.0666 101.18 86.1555 100.588C87.1043 100.072 89.3118 99.6499 91.0611 99.6499C92.8104 99.6499 94.4056 99.3716 94.6054 99.0311C94.8059 98.6906 95.1939 98.5577 95.4685 98.7362C96.6443 99.5006 96.6368 97.6076 95.4587 96.2888C93.4771 94.071 94.2417 90.9809 97.2983 88.8539C99.4334 87.3682 100.345 87.177 107.161 86.7859C113.083 86.446 114.907 86.1305 115.786 85.2942C116.399 84.7106 116.9 84.051 116.9 83.828C116.9 83.6051 115.96 82.2681 114.811 80.8561C112.909 78.5196 112.781 78.137 113.389 76.5953C114.61 73.4949 117.521 72.9473 132.54 72.9936C136.203 73.0046 139.983 73.0089 140.939 73.0034C144.601 72.9809 149.729 72.2828 152.142 71.4781L154.657 70.6387L153.015 68.5854C151.393 66.5595 151.169 64.7845 152.344 63.2769C153.599 61.6664 159.2 58.2195 163.846 56.199C166.656 54.9765 169.197 53.4336 169.811 52.5765C170.834 51.1481 170.836 50.9946 169.87 49.0223C169.315 47.8887 167.352 45.3901 165.507 43.4702C162.677 40.5245 162.198 39.7187 162.442 38.3067C162.811 36.1699 163.028 35.9683 164.026 36.8393C164.665 37.3961 164.919 37.3382 165.199 36.5719C165.731 35.1137 165.615 34.6544 164.977 35.6924C164.532 36.416 164.413 36.2881 164.406 35.0772C164.4 33.8955 165.286 32.8472 168.308 30.4625C176.083 24.3268 187.125 18.0724 191.767 17.1745C194.57 16.6324 194.57 15.614 191.767 15.5135C190.572 15.4708 189.073 15.3593 188.436 15.2662C187.224 15.0883 184.011 14.7794 173.346 13.817C166.696 13.2164 164.431 12.5404 162.226 10.4962C160.407 8.81073 160.555 4.62727 162.432 4.62727C164.258 4.62727 163.049 3.58811 160.392 2.87179C158.825 2.44967 156.341 1.30149 154.869 0.320201C153.397 -0.661091 151.965 -1.46393 151.685 -1.46393C151.406 -1.46393 151.005 -2.53901 150.793 -3.85288C150.582 -5.16675 150.076 -6.37648 149.667 -6.54094C149.258 -6.70601 146.476 -7.0276 143.483 -7.25541C135.754 -7.84443 129.495 -9.57252 125.834 -12.1284C121.876 -14.8907 118.753 -18.7501 118.511 -21.1787C118.306 -23.2424 119.687 -26.8081 121.89 -29.8994C123.476 -32.1245 123.845 -34.3965 122.419 -33.1515C121.736 -32.5564 120.431 -32.7191 115.902 -33.9641C112.788 -34.8205 109.528 -35.6514 108.658 -35.8104C105.712 -36.3476 96.9369 -40.6108 92.8619 -43.4846C89.5406 -45.8267 88.1788 -46.4133 85.3318 -46.7276C80.7193 -47.2368 74.3072 -49.0349 71.3902 -50.6381C70.0938 -51.3502 67.6819 -53.0563 66.0305 -54.4287C63.2003 -56.7817 62.7717 -56.9383 58.541 -57.1612C56.0723 -57.2916 53.662 -57.5236 53.1842 -57.6777C52.7063 -57.8312 51.4655 -58.1638 50.427 -58.4166C49.3878 -58.6694 47.4984 -59.9369 46.2275 -61.2344C44.3247 -63.1756 43.9164 -64.0053 43.9164 -65.9258C43.9164 -68.1375 43.7617 -68.3349 40.9379 -69.7255C36.8543 -71.7368 31.2009 -76.0079 29.9219 -78.0485C29.1475 -79.2838 28.8625 -80.9004 28.8602 -84.0818C28.8567 -88.0746 28.9767 -88.5108 30.3391 -89.4494C31.1546 -90.0116 32.9143 -90.6798 34.2489 -90.9338C36.6411 -91.39 36.8097 -91.6166 36.1273 -93.4574C35.9373 -93.969 36.5044 -95.8774 37.3877 -97.6987C38.6175 -100.235 39.5837 -101.332 41.5178 -102.387C45.3511 -104.479 48.4118 -104.781 60.7142 -104.281C66.9266 -104.029 79.829 -103.539 89.3865 -103.192C98.9439 -102.845 110.413 -102.291 114.873 -101.961C119.333 -101.632 125.068 -101.233 127.616 -101.074C130.165 -100.915 133.684 -100.657 135.436 -100.5C137.188 -100.343 140.707 -100.049 143.256 -99.8446C148.169 -99.4505 154.331 -98.666 160.053 -97.7054C161.965 -97.3844 164.832 -96.983 166.425 -96.813C169.514 -96.4835 173.655 -95.6849 177.431 -94.6896C178.705 -94.354 180.79 -94.0659 182.065 -94.0495C183.339 -94.0336 185.945 -93.469 187.857 -92.7947C189.768 -92.121 194.851 -90.8851 199.15 -90.0488C203.45 -89.2119 208.402 -88.0965 210.156 -87.5697C211.909 -87.0428 215.038 -86.1132 217.108 -85.5035C221.366 -84.2506 229.554 -81.4907 231.3 -80.7201C231.937 -80.4393 233.445 -79.7601 234.65 -79.2113C235.855 -78.6619 237.159 -78.2038 237.546 -78.1922C237.934 -78.1807 239.293 -77.6422 240.567 -76.9947C241.842 -76.3472 243.231 -75.8088 243.654 -75.7972C244.678 -75.7698 254.752 -70.49 255.942 -69.357C256.457 -68.8673 257.144 -68.4671 257.469 -68.4671C257.794 -68.4671 259.077 -67.7081 260.32 -66.7798C261.562 -65.8521 263.23 -64.7575 264.027 -64.3476C272.945 -59.7554 289.679 -45.6641 296.027 -37.402C298.495 -34.1901 302.256 -28.4613 302.256 -27.9149C302.256 -27.7066 302.674 -26.5347 303.184 -25.3116C303.695 -24.0884 304.333 -22.5395 304.603 -21.8694C305.34 -20.0396 306.952 -13.2376 307.69 -8.84218C308.198 -5.81851 308.612 -4.84697 309.549 -4.48272C310.212 -4.22506 312.085 -2.4178 313.712 -0.467395L316.67 3.07828L318.207 1.56888C319.595 0.206283 319.719 -0.2676 319.477 -3.29127C319.112 -7.86149 319.665 -9.06207 322.695 -10.2785C324.848 -11.1434 325.655 -11.1915 327.795 -10.5855C329.194 -10.1895 331.081 -9.30937 331.99 -8.62899C333.815 -7.26273 338.748 -6.3844 338.748 -7.42599C338.748 -7.77745 337.872 -8.63447 336.801 -9.33008C335.73 -10.0263 334.177 -11.6246 333.35 -12.8825C331.981 -14.9614 331.901 -15.4012 332.462 -17.7225C333.225 -20.8753 333.999 -21.6142 338.748 -23.7284C342.6 -25.4425 346.624 -25.9189 350.188 -25.0825C351.224 -24.8395 352.065 -24.8395 352.059 -25.0825C352.052 -25.3256 350.358 -26.8374 348.294 -28.443C345.235 -30.8223 344.541 -31.6768 344.541 -33.0626C344.541 -33.9976 344.693 -34.9222 344.878 -35.1178C345.064 -35.3133 346.471 -34.8108 348.004 -34.0012C349.537 -33.1917 351.307 -32.529 351.938 -32.529C352.568 -32.529 354.094 -32.1599 355.328 -31.7085C360.133 -29.9531 364.801 -30.9861 367.887 -34.4879C369.37 -36.1709 369.762 -36.3068 372.382 -36.0424C374 -35.8786 375.756 -35.2725 376.408 -34.6518C377.044 -34.0469 377.755 -33.7527 377.989 -33.9982C378.426 -34.4581 374.663 -38.3711 369.854 -42.4577C368.357 -43.7307 367.131 -45.0324 367.131 -45.351C367.131 -46.3907 371.05 -45.9601 375.653 -44.4148C381.121 -42.5783 382.489 -42.5338 385.748 -44.0889C390.302 -46.2622 393.35 -45.7177 400.147 -41.5178C403.709 -39.317 407.859 -38.3881 410.318 -39.2409C411.367 -39.6051 413.483 -41.2796 415.019 -42.9626C423.465 -52.2103 434.623 -51.8905 444.009 -42.1311C445.991 -40.0705 447.745 -38.5221 447.906 -38.6915C448.408 -39.2196 444.915 -46.1623 443.389 -47.6699C441.62 -49.4175 441.981 -50.8026 444.204 -50.8026C446.412 -50.8026 448.401 -49.8389 452.643 -46.7154C456.95 -43.5431 460.625 -38.9595 464.295 -32.1836C465.81 -29.3847 467.391 -26.9501 467.808 -26.7722C468.942 -26.288 473.838 -27.5884 474.983 -28.6781C475.534 -29.202 476.409 -29.4597 476.929 -29.2501C477.706 -28.9364 477.803 -28.3303 477.475 -25.8262C476.996 -22.16 477.64 -21.9194 479.913 -24.915C483.463 -29.5943 485.559 -26.4208 485.575 -16.3417C485.585 -9.60785 485.049 -7.33888 482.637 -3.9004C482.284 -3.39788 481.827 -2.48906 481.622 -1.88116C481.311 -0.961393 481.467 -0.84442 482.547 -1.18857C483.262 -1.41577 485.19 -2.52684 486.833 -3.65797C489.473 -5.47741 489.934 -6.12004 490.825 -9.2235C492.405 -14.7251 492.923 -15.3128 496.925 -16.1406C500.803 -16.9428 501.464 -17.6988 500.156 -19.8404C499.009 -21.7171 493.099 -36.4304 492.244 -39.5339C490.315 -46.5436 489.889 -51.6523 490.697 -58.112C491.136 -61.6181 492.475 -66.4381 493.405 -67.8579C493.953 -68.6955 494.724 -70.8146 495.117 -72.5664C496.571 -79.0456 503.487 -93.9106 508.829 -102.034C509.843 -103.577 511.225 -105.976 511.898 -107.364C512.572 -108.752 513.321 -109.887 513.565 -109.887C513.808 -109.887 514.501 -110.778 515.104 -111.867C516.049 -113.574 519.026 -118.024 520.503 -119.938C520.761 -120.273 522.643 -122.877 524.686 -125.724C526.728 -128.572 529.467 -132.272 530.773 -133.947C549.022 -157.356 557.379 -166.55 568.569 -175.537C578.233 -183.298 581.293 -185.842 586.717 -190.625C594.411 -197.411 605.663 -206.315 610.524 -209.466C614.937 -212.326 615.026 -212.353 619.213 -212.124C626.286 -211.737 629.18 -208.457 629.001 -201.026C628.913 -197.346 628.685 -196.466 627.474 -195.137C625.873 -193.381 625.722 -192.57 626.774 -191.4C628.534 -189.444 629.664 -185.548 629.872 -180.717C630.084 -175.798 630.044 -175.621 627.523 -170.512C624.621 -164.629 620.103 -157.439 616.274 -152.609C614.032 -149.78 613.813 -149.267 614.641 -148.779C615.167 -148.47 616.416 -146.966 617.416 -145.438C619.128 -142.822 619.232 -142.343 619.199 -137.271C619.169 -132.803 618.91 -131.32 617.68 -128.585C616.028 -124.914 611.716 -118.687 608.447 -115.252L606.306 -113.002L607.634 -111.405C609.378 -109.309 609.706 -107.995 609.765 -102.882C609.809 -99.0479 609.596 -98.2055 607.65 -94.5148C604.453 -88.448 599.334 -82.0108 589.884 -72.1699C585.245 -67.3383 581.449 -63.1811 581.449 -62.9308C581.449 -62.6804 582.486 -61.3409 583.752 -59.954C585.1 -58.4787 586.328 -56.3736 586.713 -54.8788C587.651 -51.232 587.055 -46.1282 585.312 -42.884C584.501 -41.3765 583.324 -39.1739 582.695 -37.9892C580.934 -34.6719 565.512 -18.6448 560.146 -14.5545C548.839 -5.93609 546.956 -4.55764 546.459 -4.53449C546.171 -4.52048 544.998 -3.75727 543.853 -2.83689C540.303 0.0137928 536.32 2.79991 535.793 2.79991C535.516 2.79991 534.839 3.32375 534.288 3.96333C533.738 4.60351 532.685 5.28574 531.948 5.48005C530.87 5.76451 530.529 6.39372 530.198 8.71386C529.573 13.102 527.495 16.6361 522.394 21.9872L517.749 26.8601L521.361 27.2171C523.348 27.4132 525.796 27.9103 526.801 28.322C528.425 28.9878 528.955 28.897 531.56 27.5088C533.173 26.6494 534.787 25.9465 535.146 25.9465C535.505 25.9465 536.492 25.4476 537.338 24.8373C538.183 24.2269 540.178 23.2322 541.771 22.6261C548.775 19.9619 550.17 19.1456 550.17 17.7124C550.17 15.8826 552.264 8.76806 553.955 4.85142C554.697 3.13188 555.483 0.727078 555.701 -0.492379C556.153 -3.02814 558.223 -5.06688 563.566 -8.24161C565.468 -9.37153 567.895 -10.996 568.959 -11.8512C570.024 -12.7064 572.683 -14.1896 574.869 -15.1472C577.054 -16.1047 579.233 -17.1969 579.711 -17.5751C580.189 -17.9534 581.492 -18.6959 582.607 -19.2246C586.919 -21.2701 590.441 -24.9394 594.002 -31.0951C602.327 -45.4874 604.384 -50.3202 604.596 -55.9844C604.822 -62.0195 604.73 -62.4946 602.339 -67.5534C601.072 -70.2335 599.867 -73.1731 599.662 -74.0856C599.144 -76.3783 601.063 -80.3242 604.34 -83.7072C606.766 -86.2107 607.276 -86.4611 610.524 -86.7407C614.042 -87.0434 614.07 -87.0604 614.851 -89.4415C615.283 -90.759 616.056 -92.3238 616.567 -92.9189C617.591 -94.1086 630.967 -101.36 632.137 -101.36C632.539 -101.36 633.238 -101.977 633.691 -102.73C634.615 -104.267 638.214 -117.761 638.214 -119.689C638.214 -120.372 638.471 -121.435 638.783 -122.051C639.097 -122.667 640.269 -126.829 641.388 -131.3C643.565 -140 646.834 -152.581 648.723 -159.53C649.36 -161.876 650.217 -165.302 650.627 -167.144C651.037 -168.987 651.717 -171.728 652.138 -173.236C653.032 -176.435 652.927 -176.016 653.509 -178.718C653.761 -179.89 654.314 -182.083 654.737 -183.591C655.16 -185.098 656.195 -188.936 657.038 -192.118C657.881 -195.301 659.209 -200.098 659.99 -202.778C660.771 -205.458 661.942 -209.707 662.592 -212.219C663.242 -214.732 664.414 -219.255 665.196 -222.27C665.977 -225.285 667.108 -229.945 667.708 -232.625C668.308 -235.305 669.063 -238.457 669.384 -239.63C670.337 -243.107 672.482 -251.435 672.678 -252.421C673.208 -255.084 673.751 -257.056 674.104 -257.599C674.323 -257.934 674.827 -260.126 675.224 -262.472C675.622 -264.817 676.187 -267.284 676.479 -267.954C676.77 -268.624 677.938 -272.872 679.073 -277.395C680.209 -281.918 681.368 -286.44 681.65 -287.445C682.59 -290.799 684.587 -298.349 686.001 -303.892C686.769 -306.907 688.339 -312.937 689.489 -317.292C692.058 -327.027 692.047 -326.937 690.666 -327.235C690.047 -327.368 688.613 -328.081 687.481 -328.818C686.348 -329.556 684.51 -330.516 683.395 -330.954C682.28 -331.392 680.546 -332.129 679.542 -332.592C678.538 -333.055 677.316 -333.434 676.825 -333.434C676.334 -333.434 675.772 -333.708 675.575 -334.043C675.378 -334.378 673.497 -334.652 671.396 -334.652C668.193 -334.652 667.262 -334.401 665.637 -333.098C664.572 -332.244 663.701 -331.139 663.701 -330.645C663.701 -330.15 664.482 -328.116 665.438 -326.125C667.32 -322.204 667.561 -320.682 666.481 -319.546C664.454 -317.414 657.068 -320.527 649.137 -326.856C646.702 -328.799 644.555 -330.388 644.366 -330.388C644.177 -330.388 641.869 -332.038 639.236 -334.056C634.052 -338.028 626.157 -343.633 618.81 -348.56C616.261 -350.268 613.108 -352.498 611.802 -353.514C610.496 -354.531 609.231 -355.362 608.989 -355.362C608.748 -355.362 607.563 -356.185 606.356 -357.19C605.149 -358.195 603.986 -359.017 603.772 -359.017C603.558 -359.017 602.553 -359.635 601.538 -360.389C596.605 -364.061 585.736 -369.967 577.105 -373.668C576.467 -373.941 575.034 -374.449 573.919 -374.797C572.804 -375.144 570.197 -375.959 568.126 -376.607C561.737 -378.607 559.073 -379.117 554.982 -379.126C550.67 -379.136 548.432 -379.573 548.432 -380.407C548.432 -380.703 548.99 -380.945 549.671 -380.945C550.353 -380.945 552.182 -381.768 553.735 -382.773C555.288 -383.778 556.7 -384.6 556.872 -384.6C557.044 -384.6 558.278 -385.123 559.614 -385.763C564.647 -388.172 574.579 -390.082 582.07 -390.082C584.277 -390.082 586.075 -390.288 586.065 -390.539C586.02 -391.755 565.806 -401.934 560.826 -403.248C560.056 -403.452 559.284 -403.862 559.109 -404.159C558.933 -404.457 558.163 -404.701 557.397 -404.701C556.603 -404.701 555.74 -405.218 555.392 -405.901C554.862 -406.943 555.073 -407.257 556.984 -408.282C559.314 -409.533 562.05 -410.029 569.574 -410.568C577.089 -411.106 587.54 -409.088 596.928 -405.286C606.062 -401.586 608.536 -400.388 612.289 -397.848C614.144 -396.592 615.785 -395.564 615.933 -395.564C616.082 -395.564 618.614 -393.817 621.561 -391.68C624.508 -389.544 628.086 -387.177 629.513 -386.419C630.939 -385.662 634.126 -383.588 636.595 -381.81C640.376 -379.087 649.01 -374.245 650.084 -374.245C650.259 -374.245 651.407 -373.546 652.635 -372.691C654.627 -371.306 664.587 -368.154 666.975 -368.154C668.178 -368.154 667.714 -370.8 665.742 -375.182C663.675 -379.778 663.06 -384.74 664.087 -388.538C665.651 -394.318 666.019 -394.955 667.791 -394.955C668.689 -394.955 669.586 -395.23 669.784 -395.566C670.228 -396.322 680.742 -395.796 682.258 -394.942C682.841 -394.615 684.004 -394.346 684.842 -394.346C686.244 -394.346 690.851 -392.661 693.467 -391.19C694.068 -390.852 695.893 -390.173 697.522 -389.681C699.15 -389.189 701.525 -388.292 702.799 -387.686C707.162 -385.615 707.556 -385.598 707.867 -387.475C708.022 -388.406 709.058 -392.869 710.169 -397.392C711.28 -401.914 712.596 -407.396 713.094 -409.574C713.591 -411.752 714.538 -415.093 715.198 -416.999C716.372 -420.392 718.3 -427.553 720.662 -437.289C721.312 -439.969 722.121 -442.363 722.458 -442.61C723.287 -443.213 727.276 -443.096 729.56 -442.402ZM592.18 45.3975C588.649 49.0534 579.502 54.5751 576.977 54.5751C574.767 54.5751 567.735 58.8292 563.158 62.934C558.332 67.263 555.493 70.1478 550.054 76.2512C547.003 79.6738 540.994 83.8128 539.075 83.8128C538.637 83.8128 537.318 84.3543 536.144 85.0158C534.387 86.0062 519.959 91.0601 515.705 92.1754C507.82 94.2427 495.937 100.215 494.268 102.95C493.842 103.648 493.219 105.811 492.883 107.756C492.548 109.702 492.138 111.524 491.972 111.805C491.807 112.087 491.391 114.469 491.048 117.1C490.415 121.956 488.025 131.783 487.022 133.65C485.716 136.082 484.001 142.307 483.552 146.248C483.284 148.593 482.682 152.293 482.214 154.471C481.745 156.648 481.229 159.408 481.065 160.605L480.768 162.779L484.758 164.412C486.953 165.309 489.177 166.044 489.7 166.044C490.224 166.044 492.509 164.867 494.779 163.429C501.202 159.359 504.821 158.565 523.071 157.217C535.953 156.266 538.83 155.392 542.795 151.222C543.939 150.018 545.611 148.869 546.509 148.669C549.509 148.001 551.929 146.572 552.415 145.185C552.679 144.429 552.781 141.174 552.642 137.95C552.425 132.935 552.556 131.746 553.552 129.726C554.744 127.309 557.068 124.619 560.513 121.67C562.263 120.174 562.5 119.59 562.865 115.877C563.229 112.17 563.493 111.519 565.442 109.506C566.636 108.273 568.327 106.342 569.2 105.214C570.207 103.914 571.414 103.086 572.498 102.95C575.071 102.628 578.131 102.557 579.342 102.791C580.736 103.062 581.124 102.242 582.565 95.9952C583.221 93.1476 584.508 87.9396 585.425 84.4219C591.891 59.607 593.692 52.7964 594.284 50.9204C594.654 49.7478 595.021 48.2402 595.099 47.5702C595.177 46.9002 595.527 45.5802 595.875 44.6373C597.326 40.7121 596.552 40.8711 592.18 45.3975ZM272.281 129.271C269.334 130.194 266.923 131.157 266.923 131.412C266.923 131.666 269.852 134.286 273.432 137.234C280.922 143.401 282.276 144.769 289.024 153.001C294.042 159.122 303.382 168.524 306.295 170.387C307.172 170.948 309.099 172.377 310.577 173.563C313.992 176.305 328.756 183.877 332.956 185.042C334.071 185.351 335.896 185.857 337.011 186.165C340.898 187.239 348.985 186.588 350.415 185.084C350.941 184.531 349.314 179.926 345.729 171.831C344.691 169.485 343.444 166.607 342.959 165.435C342.473 164.262 341.487 162.069 340.766 160.562C338.475 155.771 332.199 139.586 332.245 138.587C332.348 136.343 310.188 131.08 307.631 132.742C306.613 133.403 301.153 134.462 297.42 134.721C292.956 135.031 289.317 134.119 286.202 131.908C284.805 130.917 283.477 130.106 283.25 130.106C283.023 130.106 282.341 129.411 281.735 128.562C280.457 126.773 280.194 126.793 272.281 129.271ZM193.36 147.655C189.306 148.351 185.83 149.959 185.83 151.137C185.83 151.639 185.537 152.543 185.18 153.145C184.698 153.956 184.705 155.017 185.206 157.248C185.578 158.903 186.234 162.176 186.663 164.521C187.53 169.258 189.168 173.928 191.574 178.527C193.535 182.275 196.919 187.363 197.451 187.363C197.666 187.363 198.174 186.061 198.58 184.47C199.793 179.701 202.59 175.141 207.283 170.275C212.108 165.275 216.816 161.719 220.005 160.67C221.12 160.304 223.876 159.351 226.131 158.554C229.906 157.219 230.58 157.157 234.661 157.767C237.098 158.131 239.573 158.841 240.16 159.344C240.746 159.846 242.772 161.069 244.662 162.061C248.163 163.899 254.657 168.991 256.831 171.603C258.998 174.205 263.005 180.837 264.365 184.071C265.502 186.773 266.53 193.852 266.523 198.936C266.521 200.661 265.824 205.333 265.296 207.165C264.53 209.82 261.834 215.252 260.676 216.472C260.13 217.049 258.417 219.163 256.87 221.172C254.308 224.499 246.728 231.848 243.19 234.436C241.868 235.403 241.849 235.484 242.937 235.484C246.038 235.484 257.218 233.592 259.467 232.686C260.86 232.126 263.079 230.47 264.399 229.007L266.797 226.347L271.06 226.319C276.391 226.284 305.713 225.756 306.89 225.674C307.368 225.64 310.105 225.218 312.972 224.736C315.839 224.253 319.098 223.753 320.213 223.625C322.891 223.316 327.524 222.374 333.39 220.943C338.636 219.665 338.956 219.389 346.698 209.457C350.754 204.253 350.719 203.574 346.423 204.088C344.591 204.307 340.095 204.158 336.431 203.756C332.768 203.354 328.988 202.941 328.032 202.839C321.15 202.101 308.791 198.988 307.209 197.594C306.906 197.327 306.203 197.109 305.647 197.109C304.466 197.109 298.465 193.512 295.984 191.316C295.041 190.482 294.109 189.8 293.914 189.8C293.718 189.8 291.409 188.33 288.784 186.534C286.158 184.738 282.866 182.656 281.466 181.909C278.605 180.38 270.725 174.788 267.212 171.794C265.14 170.027 261.095 167.061 252.152 160.751C244.315 155.222 230.635 149.882 217.977 147.412C213.573 146.553 198.935 146.697 193.36 147.655ZM556.301 187.972C551.432 194.534 543.891 201.208 537.791 204.357C534.906 205.846 528.897 207.984 522.274 209.879L511.466 212.972L499.395 213.092C489.714 213.188 486.29 212.994 482.11 212.111L476.896 211.01L475.604 212.739C467.527 223.543 458.03 238.279 457.14 241.386C455.171 248.267 456.396 254.855 461.169 263.046C465.761 270.926 476.43 281.981 483.045 285.712C488.66 288.88 494.584 289.98 498.881 288.654C507.295 286.057 513.749 280.011 533.668 256.069L544.667 242.849L546.26 236.882C547.137 233.6 548.27 229.271 548.779 227.26C549.289 225.25 552.156 214.596 555.151 203.585C558.146 192.573 560.596 183.276 560.596 182.925C560.596 182.134 560.882 181.798 556.301 187.972ZM615.589 240.196C610.907 242.567 604.228 248.438 600.677 253.303C599.181 255.353 596.914 258.3 595.64 259.852C594.366 261.403 592.672 263.828 591.875 265.24C588.792 270.707 581.867 279.736 571.543 291.752C566.953 297.094 563.514 300.358 557.931 304.673C547.877 312.442 547.678 313.216 556.831 308.96C566.318 304.55 579.352 304.573 588.979 309.019C593.978 311.328 600.001 314.43 603.508 316.503C605.606 317.743 611.051 320.341 615.608 322.276C623.815 325.763 623.936 325.793 628.467 325.466C631.412 325.254 633.602 324.752 634.614 324.059C637.411 322.144 646.636 311.993 647.646 309.72C648.703 307.338 651.749 293.751 652.34 288.782C655 266.396 653.565 258.929 644.269 246.775C640.967 242.459 639.377 240.902 637.226 239.884C633.521 238.127 632.576 237.989 625.436 238.16C619.938 238.292 618.942 238.497 615.589 240.196Z" fill="white" fill-opacity="0.05"/>
<path fill-rule="evenodd" clip-rule="evenodd" d="M1190.44 -442.402C1188.69 -441.868 1187.27 -440.639 1188.41 -440.639C1188.7 -440.639 1189.39 -438.377 1189.95 -435.614C1190.51 -432.85 1191.46 -428.967 1192.06 -426.986C1192.67 -425.004 1193.16 -422.811 1193.17 -422.113C1193.17 -421.414 1193.56 -420.057 1194.03 -419.098C1194.51 -418.138 1194.9 -416.905 1194.9 -416.357C1194.9 -414.899 1196.5 -407.438 1197.8 -402.874C1199.99 -395.188 1201.22 -390.287 1203.33 -380.945C1204.5 -375.753 1205.8 -370.927 1206.22 -370.222C1206.64 -369.518 1207.16 -367.873 1207.39 -366.568C1207.61 -365.262 1208.05 -363.688 1208.35 -363.068C1208.65 -362.448 1209.54 -359.296 1210.33 -356.063C1212.11 -348.689 1212.25 -348.167 1214.88 -338.916C1217.04 -331.367 1217.67 -329.021 1218.66 -324.906C1218.94 -323.734 1219.99 -319.622 1220.98 -315.77C1223.94 -304.282 1224.44 -302.25 1225.33 -298.113C1225.79 -295.94 1226.68 -292.513 1227.3 -290.499C1227.92 -288.485 1228.73 -285.208 1229.1 -283.218C1229.48 -281.228 1230 -279.172 1230.27 -278.65C1230.54 -278.127 1231.18 -275.644 1231.7 -273.131C1232.21 -270.619 1233.5 -265.411 1234.56 -261.558C1235.62 -257.705 1236.67 -253.594 1236.89 -252.421C1237.11 -251.249 1237.65 -249.056 1238.08 -247.548C1238.51 -246.041 1239.3 -243.025 1239.83 -240.848C1240.36 -238.67 1241.15 -235.655 1241.59 -234.148C1242.02 -232.64 1243.05 -228.155 1243.86 -224.181C1244.67 -220.207 1245.72 -215.994 1246.18 -214.818C1246.65 -213.642 1247.03 -212.25 1247.03 -211.724C1247.03 -211.198 1247.67 -208.56 1248.45 -205.859C1249.23 -203.16 1250.55 -198.347 1251.39 -195.164C1252.23 -191.981 1253.39 -187.596 1253.98 -185.418C1255.57 -179.567 1257.4 -172.313 1258.59 -167.144C1259.18 -164.632 1260.35 -159.972 1261.2 -156.789C1262.06 -153.607 1263.65 -147.302 1264.75 -142.78C1265.85 -138.257 1267.65 -130.993 1268.77 -126.638C1273.85 -106.698 1274.92 -102.048 1275.14 -98.8719C1275.37 -95.6484 1275.27 -95.3633 1273.37 -93.4226C1271.06 -91.0696 1270.92 -90.0415 1272.49 -87.097L1273.62 -84.9797L1272.2 -81.3043C1270.72 -77.4723 1270.37 -74.0155 1271.36 -72.977C1271.74 -72.5737 1271.55 -71.5693 1270.78 -69.985C1269.2 -66.7219 1269.32 -64.7411 1271.36 -60.9469C1272.68 -58.4945 1273.1 -56.937 1273.1 -54.5267C1273.1 -52.6823 1273.57 -50.2617 1274.21 -48.7681C1274.83 -47.3513 1275.52 -45.3985 1275.75 -44.4281C1276.24 -42.3931 1280.03 -38.1993 1283.42 -35.9498C1284.7 -35.0983 1286.21 -33.5882 1286.76 -32.5948C1287.32 -31.6013 1288.24 -30.6609 1288.81 -30.5043C1291.21 -29.844 1294.54 -18.6831 1295.39 -8.46881C1295.44 -7.79877 1295.65 -6.8394 1295.84 -6.33687C1296.04 -5.83435 1296.65 -3.64153 1297.19 -1.46393C1298.35 3.1672 1300.46 8.08708 1302.93 11.9367C1305.41 15.7839 1306.5 18.7613 1307.6 24.7282C1308.12 27.5759 1308.78 30.2048 1309.07 30.5709C1309.35 30.937 1309.41 31.4097 1309.21 31.6222C1309.01 31.8342 1309.12 32.3611 1309.46 32.793C1309.8 33.2242 1310.35 35.3555 1310.67 37.5282C1310.99 39.701 1311.9 44.083 1312.68 47.2656C1315.34 58.0172 1318.32 69.2408 1318.95 70.897C1319.3 71.8028 1320.31 75.5592 1321.19 79.2444C1322.08 82.9296 1323.24 87.5894 1323.77 89.5995C1324.31 91.6096 1325.27 95.447 1325.92 98.1271C1326.57 100.807 1327.34 103.316 1327.64 103.702C1328.26 104.519 1326.13 106.277 1321.55 108.717C1318.83 110.171 1318.57 110.495 1318.54 112.441C1318.53 113.614 1318.31 115.6 1318.05 116.853C1317.42 119.873 1317.92 121.718 1320.09 124.312C1321.6 126.128 1321.91 127.044 1322.08 130.262C1322.4 136.15 1322.42 137.235 1322.29 139.865C1322.21 141.518 1322.52 142.712 1323.23 143.542C1323.81 144.217 1325.22 147.088 1326.35 149.921C1328.94 156.383 1331.84 160.547 1336.74 164.826C1344.24 171.376 1344.44 171.676 1346.58 180.077C1347.65 184.252 1349.04 189.586 1349.67 191.932C1350.3 194.277 1351.03 197.018 1351.3 198.023C1352.27 201.755 1354.19 209.126 1355.34 213.555C1356 216.068 1356.96 219.905 1357.48 222.083C1358 224.261 1358.78 226.475 1359.2 227.004C1359.63 227.533 1359.98 228.324 1359.98 228.763C1359.98 229.2 1358.75 228.345 1357.23 226.862C1354.18 223.871 1348.23 219.037 1347.6 219.037C1347.38 219.037 1346.49 218.492 1345.62 217.826C1343.87 216.471 1334.37 212.946 1332.48 212.946C1331.8 212.946 1331 212.68 1330.69 212.355C1329.44 211.041 1310.3 209.62 1308.58 210.714C1308.34 210.866 1305.66 211.174 1302.64 211.398C1299.61 211.622 1296.89 212.062 1296.59 212.376C1296.28 212.69 1295.29 212.946 1294.38 212.946C1293.47 212.946 1291.77 213.462 1290.59 214.093C1289.41 214.724 1286.1 216.016 1283.23 216.965C1278.03 218.686 1272.68 220.892 1270.49 222.221C1266.79 224.462 1260.8 227.967 1258.04 229.503C1251.84 232.953 1249.95 234.364 1245.74 238.707C1240.82 243.772 1237.3 248.603 1234.13 254.662C1231.5 259.662 1228.21 268.255 1227.31 272.441C1226.52 276.15 1226.48 288.25 1227.26 290.402C1227.58 291.294 1228.39 294.412 1229.05 297.332C1231.85 309.744 1240.22 322.357 1250.82 330.147C1257.37 334.964 1276.18 345.125 1278.55 345.125C1279.28 345.125 1280.63 345.392 1281.55 345.719C1284.43 346.734 1296.93 348.36 1301.19 348.272C1310.43 348.081 1322.09 345.092 1332.47 340.252C1336.66 338.299 1340.47 337.657 1343.24 338.439C1347.74 339.716 1353.61 346.028 1353.61 349.603C1353.61 352.459 1348.68 356.053 1343.43 357.023C1336.98 358.215 1329.69 362.38 1327.17 366.316C1325.74 368.559 1325.73 371.186 1327.15 372.022C1327.83 372.421 1327.99 373.077 1327.74 374.381C1327.31 376.644 1328.4 378.121 1330.4 377.988C1331.22 377.933 1333.35 377.918 1335.14 377.953C1338.98 378.029 1340.67 379.336 1342.47 383.632C1343.11 385.147 1343.98 386.616 1344.41 386.896C1345.48 387.588 1348.91 387.218 1350.38 386.253C1351.04 385.818 1352.63 385.126 1353.9 384.714C1358.68 383.169 1364.74 379.564 1367.88 376.389C1370.47 373.776 1371.36 373.219 1372.47 373.512C1373.35 373.745 1374.54 373.427 1375.76 372.632C1379.23 370.38 1387.84 360.134 1390.05 355.632C1391.4 352.895 1391.73 353.519 1393.77 362.485C1394.22 364.495 1395.44 369.429 1396.48 373.449C1397.51 377.469 1398.71 382.266 1399.13 384.109C1401.02 392.243 1406.39 413.301 1409.62 425.224C1411.23 431.157 1413.93 441.692 1414.22 443.193C1414.38 444.031 1414.73 445.264 1414.98 445.934C1415.23 446.604 1416.03 449.619 1416.76 452.635C1417.49 455.65 1418.97 461.543 1420.06 465.731C1421.15 469.918 1422.54 475.538 1423.15 478.218C1423.77 480.898 1424.51 483.53 1424.8 484.067C1425.1 484.604 1425.53 486.386 1425.75 488.026C1425.98 489.667 1426.52 491.969 1426.96 493.141C1427.82 495.466 1432.57 514.189 1433.92 520.551C1434.38 522.729 1435.24 526.155 1435.83 528.165C1436.43 530.176 1438.29 537.302 1439.97 544.003C1441.65 550.703 1443.65 558.652 1444.42 561.667C1445.71 566.746 1446.1 568.364 1447.4 574.154C1447.66 575.327 1449.08 580.616 1450.56 585.908C1452.03 591.199 1453.24 595.939 1453.24 596.44C1453.24 596.941 1453.74 599.052 1454.35 601.132C1454.97 603.213 1456.16 607.656 1456.99 611.006C1459.48 620.943 1461.43 628.49 1462.27 631.411C1462.7 632.919 1463.48 635.797 1464.01 637.807C1464.54 639.817 1465.33 642.636 1465.77 644.072C1466.21 645.507 1466.56 647.204 1466.56 647.843C1466.56 649.254 1467.46 649.933 1468.45 649.264C1468.84 648.993 1471.64 648.213 1474.67 647.53C1478.69 646.621 1480.22 646.02 1480.35 645.288C1480.45 644.738 1478.79 637.758 1476.66 629.778C1467.74 596.329 1459.47 565.021 1457.07 555.576C1455.97 551.221 1453.34 541.079 1451.22 533.038C1449.11 524.998 1446.35 514.445 1445.1 509.587C1443.84 504.73 1441.23 494.725 1439.31 487.354C1437.39 479.984 1434.89 470.253 1433.76 465.731C1430.85 454.12 1430.42 452.423 1428.02 443.193C1426.85 438.671 1425.42 433.189 1424.86 431.011C1424.3 428.833 1423.45 425.818 1422.97 424.311C1422.5 422.803 1421.71 420.062 1421.21 418.219C1420.71 416.377 1419.78 412.951 1419.13 410.605C1418 406.519 1417.37 404.004 1413.01 386.241C1411.94 381.885 1410.75 377.5 1410.38 376.495C1410.01 375.49 1408.68 370.556 1407.43 365.531C1403.78 350.91 1400.98 340.083 1396.21 322.283C1395.49 319.603 1394.7 316.902 1394.45 316.28C1394.05 315.293 1394.27 315.337 1396.24 316.624C1399.48 318.739 1404.1 320.003 1410.11 320.42C1415.82 320.818 1422.05 319.77 1432.1 316.727C1444.58 312.947 1457.52 302.079 1463.2 290.619C1464.59 287.803 1465.72 286.136 1465.87 286.659C1466.44 288.608 1467.93 289.695 1470.03 289.695C1472.69 289.695 1473.01 290.025 1472.29 292.018C1471.86 293.19 1471.95 294.264 1472.62 296.114C1473.45 298.404 1473.45 298.855 1472.59 301.315C1472.08 302.797 1471.44 304.832 1471.18 305.837C1470.16 309.821 1468.27 315.953 1465.74 323.501C1461.77 335.352 1461.25 339.448 1461.15 359.744C1461.05 379.833 1461.14 380.348 1465.16 381.962C1466.57 382.528 1467.75 383.174 1467.8 383.398C1467.84 383.621 1467.93 384.352 1468 385.022C1468.08 385.692 1468.43 387.693 1468.8 389.468C1469.16 391.244 1469.46 393.637 1469.46 394.786C1469.46 398.4 1471.09 401.693 1473.54 403.004C1477.1 404.917 1478.11 406.925 1482.69 421.265C1484.24 426.123 1486.6 433.249 1487.93 437.102C1489.26 440.955 1491.47 447.533 1492.84 451.721C1494.21 455.909 1495.77 460.217 1496.3 461.296C1497.04 462.783 1497.25 464.695 1497.19 469.214C1497.12 474.377 1497.31 475.742 1498.68 479.436C1499.55 481.781 1500.55 484.072 1500.91 484.527C1502.47 486.505 1500.13 512.13 1497.8 518.518C1497.46 519.468 1497.15 523.947 1497.11 528.47C1497.07 535.086 1497.36 538.36 1498.62 545.221C1499.49 549.911 1500.6 556.078 1501.09 558.926C1501.59 561.774 1502.24 564.591 1502.54 565.186C1502.97 566.036 1502.67 566.692 1501.14 568.232C1498.4 571.001 1497.26 573.17 1497.26 575.621C1497.26 577.051 1497.64 578.018 1498.42 578.596C1499.38 579.297 1499.55 579.991 1499.38 582.437C1499.15 585.837 1500.03 588.126 1502.18 589.778C1502.99 590.4 1503.79 591.686 1503.96 592.637C1504.62 596.496 1507.86 599.128 1511.95 599.128C1513.85 599.128 1514.06 599.308 1514.56 601.412C1514.86 602.669 1515.09 604.107 1515.07 604.61C1515.06 605.112 1515.37 607.949 1515.78 610.914C1516.39 615.387 1516.8 616.65 1518.21 618.338C1519.15 619.457 1520.79 620.677 1521.86 621.05C1523.93 621.768 1525.58 623.822 1525.59 625.706C1525.64 631.094 1527.62 639.424 1529.1 640.47C1529.95 641.072 1530.28 641.97 1530.28 643.687C1530.28 646.918 1531.48 649.715 1533.74 651.706C1535.26 653.053 1535.48 653.533 1534.92 654.244C1534.54 654.726 1534.09 656.766 1533.91 658.778C1533.57 662.714 1534.13 664.809 1536.55 668.716C1538.24 671.447 1538.02 674.274 1535.77 678.952C1534.98 680.589 1534.33 682.279 1534.33 682.709C1534.32 684.294 1531.51 689.775 1528.76 693.572C1526.28 697 1525.93 697.844 1525.93 700.42C1525.93 702.835 1526.19 703.565 1527.38 704.527C1528.18 705.17 1529.22 705.713 1529.7 705.733C1530.18 705.754 1531.09 706.651 1531.74 707.727C1532.44 708.908 1533.47 709.76 1534.34 709.879C1535.2 709.996 1536.25 710.853 1536.95 712.011C1537.65 713.175 1538.69 714.022 1539.56 714.135C1540.35 714.239 1542.1 714.856 1543.45 715.506C1544.8 716.156 1546.31 716.688 1546.8 716.688C1548.33 716.688 1551.68 714.976 1553.88 713.071C1556.13 711.123 1557.5 711.381 1557.5 713.751C1557.5 714.586 1558.43 715.374 1560.69 716.464L1563.88 718L1565.84 716.728C1566.92 716.028 1567.95 714.979 1568.14 714.397C1568.32 713.814 1568.71 712.927 1568.99 712.424C1572.26 706.678 1572 697.752 1568.38 691.105C1566.79 688.185 1566.88 684.307 1568.66 679.532C1572.09 670.293 1572.59 667.586 1572.31 659.531L1572.05 652.016L1569.51 649.163C1566.73 646.035 1566.33 644.465 1565.02 631.411C1563.41 615.343 1563.48 613.767 1565.74 615.039C1566.46 615.443 1569.28 615.788 1572.01 615.806C1576.19 615.833 1577.32 615.616 1579.24 614.425L1581.52 613.012L1587.76 616.425C1591.71 618.586 1594.71 619.838 1595.93 619.838C1598.13 619.838 1602.04 617.178 1603.65 614.589C1605.18 612.126 1607.97 611.123 1610.96 611.96C1613.37 612.635 1619.52 615.489 1624.8 618.382C1627.26 619.732 1636.55 622.453 1647 624.889C1651 625.822 1660.55 626.814 1663.65 626.619C1665.41 626.508 1670.65 624.174 1672.48 622.689C1673.42 621.924 1673.64 621.028 1673.64 617.9V614.051L1675.66 613.747C1677.2 613.515 1677.87 613.006 1678.49 611.615C1679.99 608.22 1680.93 607.508 1683.38 607.919C1684.99 608.192 1694.58 612.703 1696.37 614.032C1696.44 614.087 1696.26 615.021 1695.96 616.107C1695.67 617.194 1695.58 620.432 1695.77 623.304L1696.12 628.525L1701.25 634.046C1704.06 637.083 1706.37 639.762 1706.37 639.999C1706.37 640.237 1707.26 642.095 1708.35 644.127C1710.88 648.821 1713.01 655.41 1713.9 661.258C1714.28 663.771 1714.86 666.582 1715.19 667.505C1715.85 669.387 1719.3 672.831 1720.53 672.831C1721.6 672.831 1724.07 676.002 1725.81 679.615C1727.05 682.18 1727.78 682.861 1731.39 684.769C1737.73 688.127 1741.03 687.564 1742.18 682.931C1742.63 681.126 1742.75 681.062 1745.38 681.263C1747.95 681.46 1748.27 681.312 1750.7 678.755C1752.36 677.012 1753.29 675.501 1753.29 674.541C1753.29 673.714 1753.96 672.382 1754.79 671.567C1760.3 666.154 1759.31 655.83 1753 653.001C1749.94 651.63 1746.89 648.347 1746.24 645.725C1745.22 641.608 1745 638.721 1745.69 638.721C1746.05 638.721 1746.33 638.995 1746.33 639.33C1746.33 639.665 1747.23 639.939 1748.33 639.939C1749.43 639.939 1750.98 640.25 1751.78 640.63C1752.91 641.173 1754.07 641.097 1757.16 640.281C1761.75 639.07 1762.49 638.472 1765.23 633.727C1766.66 631.247 1767.73 630.081 1768.82 629.814C1769.67 629.604 1771.42 628.402 1772.69 627.143C1775.8 624.069 1776.34 623.829 1783.64 622.308C1790.1 620.964 1792.23 619.97 1798.43 615.426C1802.93 612.132 1806.32 611.167 1809.69 612.231C1811.13 612.687 1812.87 613.379 1813.57 613.77C1814.26 614.161 1816.87 614.855 1819.36 615.312C1823.52 616.076 1824.14 616.05 1827.07 614.989C1832.19 613.139 1834.01 611.533 1842.61 601.326C1844.56 599.002 1844.69 598.952 1848.99 598.802C1858.76 598.463 1871.03 590.888 1874.59 583.003C1875.95 579.991 1877.42 579.217 1882.71 578.722C1888.42 578.188 1892.03 576.521 1898.31 571.514C1905.35 565.905 1909.04 563.431 1912.58 561.955C1923.98 557.194 1930.39 553.327 1933.13 549.549C1934.01 548.341 1935.07 547.353 1935.5 547.353C1935.92 547.353 1936.78 546.187 1937.4 544.764C1938.02 543.34 1939.98 539.845 1941.76 536.998C1944.14 533.197 1945 531.249 1945.01 529.672C1945.02 526.723 1944.2 525.555 1937.98 519.632L1935.86 517.62L1935.79 511.075C1935.66 499.14 1934.69 496.901 1925.05 486.195C1921.53 482.278 1921.09 481.286 1921.52 478.233C1921.74 476.733 1922.16 475.346 1922.46 475.15C1922.76 474.955 1923 474.247 1923 473.577C1923 472.907 1922.74 472.528 1922.42 472.736C1922.1 472.943 1921.84 472.838 1921.84 472.503C1921.84 471.539 1922.88 471.125 1923.17 471.971C1923.38 472.566 1923.6 472.574 1924.17 472.006C1924.77 471.417 1924.77 470.581 1924.18 467.67C1923.33 463.462 1923.65 462.04 1926.19 458.726C1930.05 453.69 1930.13 452.82 1927.41 444.226C1925.86 439.333 1925.5 437.366 1925.73 434.954L1926.02 431.894L1922.63 430.268C1920.76 429.375 1917.8 428.055 1916.05 427.337C1914.3 426.618 1911.69 425.536 1910.26 424.932C1908.83 424.328 1903.87 422.318 1899.25 420.463C1894.63 418.609 1889.03 416.232 1886.8 415.18C1884.57 414.129 1881.83 412.856 1880.72 412.352C1879.6 411.849 1878.17 411.191 1877.53 410.89C1876.89 410.589 1874.2 409.603 1871.54 408.7C1868.88 407.796 1866.34 406.671 1865.89 406.199C1865.45 405.727 1865.04 404.196 1865 402.796C1864.72 393.048 1862.98 388.64 1856.92 382.314C1852.36 377.551 1852.22 377.156 1852.68 370.177L1853.08 364.047L1851.25 362.251C1850.04 361.065 1847.7 359.904 1844.36 358.832C1841.58 357.939 1835.65 356.03 1831.19 354.588C1823.17 351.997 1816.5 350.089 1809.76 348.456C1807.85 347.993 1804.59 347.071 1802.52 346.407C1800.45 345.743 1795.89 344.487 1792.38 343.618C1788.88 342.748 1785.49 341.8 1784.85 341.51C1784.22 341.22 1782.23 340.529 1780.43 339.973C1775.67 338.502 1775.22 338.015 1775.88 335.075C1776.44 332.575 1776 330.243 1774.37 326.945C1773.93 326.056 1773.56 325.047 1773.56 324.703C1773.56 324.358 1771.99 322.058 1770.08 319.592L1766.61 315.108V310.605C1766.61 308.128 1766.25 305.208 1765.82 304.114C1765.01 302.09 1762.13 299.155 1759.98 298.164C1759.32 297.863 1758.4 297.352 1757.92 297.028C1757.44 296.705 1755.49 295.715 1753.57 294.828C1750.49 293.396 1748.27 292.647 1741.99 290.912C1738.57 289.968 1727.62 285.944 1725.51 284.858C1725.04 284.613 1724.02 281.676 1723.16 278.076C1722.33 274.584 1721.23 270.904 1720.71 269.899C1719.42 267.356 1715.78 263.83 1713.06 262.494C1710.34 261.154 1710.04 260.21 1710.1 253.148C1710.14 248.353 1710.23 247.98 1711.29 248.096C1711.93 248.165 1714.01 248.362 1715.92 248.533C1717.84 248.704 1721.62 249.14 1724.32 249.501C1727.03 249.862 1731.2 250.397 1733.59 250.691C1739.37 251.402 1756.73 251.118 1758.21 250.289C1758.85 249.932 1761.19 249.473 1763.42 249.271C1771.75 248.515 1778.74 246.676 1795.28 240.896C1798.15 239.894 1801.67 238.702 1803.1 238.246C1804.53 237.791 1808.43 236.31 1811.77 234.957C1815.1 233.603 1817.92 232.588 1818.02 232.702C1818.13 232.815 1817.6 233.419 1816.85 234.044C1816.1 234.668 1814.58 236.603 1813.49 238.344C1806.89 248.84 1806.75 249.443 1810.04 253.437C1811.36 255.047 1812.86 257.08 1813.37 257.955C1814.76 260.362 1819.84 265.273 1822.31 266.597C1825.29 268.2 1830.59 269.734 1834.09 270.009C1836.79 270.222 1840.52 269.421 1865.95 263.165C1872.1 261.65 1873.01 261.862 1880.19 266.473C1886.48 270.518 1893.74 276.585 1904.63 286.902C1907.49 289.61 1910.12 291.844 1910.48 291.864C1911.86 291.943 1912.35 290.847 1912.16 288.162C1911.99 285.74 1912.19 285.136 1913.67 283.575C1915.19 281.977 1917.22 281.314 1919.24 281.761C1919.56 281.831 1920.73 281.969 1921.84 282.065C1922.96 282.162 1925.57 283.069 1927.65 284.082C1934.07 287.215 1937.69 288.069 1942.65 287.614C1945.57 287.348 1947.55 286.822 1948.57 286.048C1950.09 284.891 1950.13 284.894 1954.07 286.457C1965.01 290.788 1966.98 291.154 1979.49 291.188L1991.09 291.218L1995.28 288.555C1999.59 285.818 2000.54 284.38 1999.75 281.764C1999.39 280.588 1999.06 280.483 1996.65 280.794C1989.03 281.778 1984.72 281.888 1981.34 281.183C1975.3 279.922 1969.11 277.206 1960.46 272.013C1957.96 270.515 1954.94 268.741 1953.74 268.071C1951.58 266.865 1947.19 263.004 1939.84 255.837C1936.11 252.206 1929.61 247.057 1928.75 247.057C1928.51 247.057 1926.53 245.981 1924.36 244.665C1922.18 243.35 1918.33 241.415 1915.8 240.364C1913.27 239.313 1910.54 237.959 1909.72 237.356C1908.02 236.101 1899.21 233.157 1894.91 232.407C1893.32 232.129 1890.06 231.454 1887.67 230.907C1885.28 230.36 1882.15 229.822 1880.72 229.712C1879.28 229.601 1875.63 229.32 1872.59 229.086C1866.87 228.646 1861.1 229.238 1853.92 231.003C1850.71 231.791 1849.68 231.829 1848.27 231.214C1847.32 230.801 1846.54 230.139 1846.54 229.744C1846.54 228.538 1855.32 223.365 1859.6 222.047C1864.42 220.563 1876.62 219.066 1884.03 219.05C1894.01 219.027 1904.47 220.616 1904.47 222.157C1904.47 223.193 1908.95 222.71 1910.34 221.524L1911.71 220.357L1910.49 218.631C1909.1 216.648 1899.58 208.873 1897.83 208.29C1897.19 208.076 1895.25 206.8 1893.52 205.455C1891.78 204.109 1887.27 201.338 1883.49 199.298C1874.95 194.691 1872.65 193.404 1870.85 192.208C1868.97 190.964 1862.27 188.04 1860.12 187.526C1857.76 186.959 1854.19 186.971 1851.57 187.552C1849.53 188.005 1849.41 187.955 1849.94 186.911C1850.97 184.875 1848.77 182.276 1844.37 180.353C1842.22 179.414 1840.21 178.414 1839.91 178.131C1839.61 177.849 1839 177.617 1838.57 177.617C1838.14 177.617 1836.43 176.966 1834.78 176.171C1831.06 174.381 1826.36 172.18 1824.82 171.508C1819.36 169.124 1806.13 166.51 1798.09 166.225C1791.71 165.999 1790.62 166.124 1786.5 167.548C1784 168.412 1781.44 169.355 1780.8 169.643C1780.16 169.93 1777.89 170.909 1775.75 171.818C1772.47 173.216 1771.64 173.88 1770.38 176.128C1769.57 177.59 1768.65 180.236 1768.34 182.008C1767.58 186.305 1765.79 191.279 1762.9 197.13C1760.98 201.025 1759.58 202.841 1755.6 206.605C1749.54 212.341 1742.07 217.599 1738.39 218.714C1728.9 221.59 1716.23 221.471 1710.13 218.448C1709.49 218.132 1707.28 217.148 1705.21 216.261C1696.65 212.596 1690.53 208.358 1688.12 204.418C1685.63 200.352 1685.22 197.871 1686.36 193.739C1687.97 187.944 1692.66 185.927 1698.46 188.541C1701.39 189.864 1701.99 190.746 1702.61 194.658C1703.18 198.299 1705.69 200.903 1709.85 202.171C1717.17 204.405 1720.17 205.039 1725.15 205.405C1732.27 205.927 1736.61 204.802 1746.62 199.828C1751.07 197.622 1758.54 191.642 1759.2 189.765C1759.43 189.114 1759.86 188.581 1760.15 188.581C1760.45 188.581 1760.86 187.827 1761.07 186.906C1761.28 185.985 1762.06 183.861 1762.8 182.186C1766.99 172.768 1767.74 168.558 1766.74 160.246C1766.11 154.956 1762.11 148.504 1756.98 144.471C1755.66 143.438 1752.57 140.856 1750.11 138.733C1745.79 135.002 1738.15 130.132 1736.6 130.114C1736.18 130.11 1734.17 129.263 1732.14 128.233C1730.11 127.204 1726.82 125.961 1724.83 125.473C1722.84 124.985 1720.86 124.275 1720.42 123.895C1719.99 123.516 1718.15 123.131 1716.33 123.039C1714.51 122.948 1710.93 122.316 1708.38 121.635C1704.88 120.705 1701.08 120.316 1693.12 120.078C1687.29 119.904 1682.28 119.605 1681.99 119.415C1681.05 118.801 1682.5 116.882 1684.19 116.521C1685.08 116.331 1686.9 115.061 1688.24 113.699C1690.5 111.405 1690.92 111.223 1693.92 111.223C1697.67 111.223 1699.9 110.186 1701.89 107.52C1703.08 105.923 1703.48 105.726 1704.4 106.288C1705.99 107.255 1734.66 111.567 1740.95 111.785C1742.61 111.843 1746.39 112.404 1749.35 113.03C1752.31 113.658 1758.25 114.909 1762.55 115.811C1767.71 116.894 1770.75 117.835 1771.49 118.58C1772.58 119.672 1772.58 119.747 1771.56 120.932C1770.98 121.606 1769.41 122.714 1768.08 123.396C1763.64 125.656 1761.78 128.91 1763.43 131.553C1764.25 132.88 1770.67 137.415 1771.73 137.415C1771.95 137.415 1773.17 138.007 1774.44 138.73C1775.71 139.453 1778.18 140.385 1779.93 140.8C1781.68 141.216 1785.72 142.247 1788.91 143.092C1792.09 143.937 1798.15 145.339 1802.36 146.207C1812.07 148.21 1813.18 148.641 1812.72 150.218C1812.53 150.882 1812.21 151.95 1812.02 152.591C1811.61 153.982 1813.31 155.138 1815.88 155.214C1816.81 155.242 1817.58 155.54 1817.58 155.876C1817.58 156.212 1818.06 156.035 1818.64 155.482C1820.05 154.142 1828.07 153.299 1839.74 153.266C1842.52 153.259 1844.8 153.009 1844.8 152.713C1844.8 151.932 1841.01 151.469 1831.62 151.103C1827.08 150.926 1822.72 150.522 1821.92 150.207C1820.63 149.69 1820.55 149.475 1821.15 148.092C1822.03 146.072 1821.11 143.88 1818.86 142.661C1817.43 141.878 1810.67 140.345 1805.13 139.544C1801.08 138.959 1799.52 138.66 1797.6 138.103C1796.48 137.779 1795.57 137.602 1795.57 137.71C1795.57 137.819 1793.81 137.242 1791.66 136.43C1789.51 135.617 1786.19 134.376 1784.27 133.671C1781.07 132.489 1778.19 130.498 1778.19 129.461C1778.19 129.224 1778.65 128.873 1779.21 128.681C1781.11 128.027 1785.43 125.124 1787.37 123.197C1789.23 121.349 1789.3 121.134 1789.01 117.707C1788.42 110.534 1783.97 108.073 1761.1 102.289C1757.92 101.482 1753.75 100.544 1751.84 100.204C1747.41 99.4154 1739.36 96.851 1735.62 95.0371C1734.03 94.2647 1731.03 92.9039 1728.96 92.0128C1724.67 90.1678 1721.43 87.8117 1721.43 86.5386C1721.43 85.2942 1724.09 84.0205 1728.4 83.2031C1730.46 82.8126 1732.6 82.0628 1733.16 81.5359C1735.62 79.2066 1733.42 74.3245 1728.46 71.1528C1725.44 69.2128 1719.14 66.6235 1717.2 66.5205C1716.5 66.4834 1715.94 66.1788 1715.95 65.8438C1715.99 64.7967 1717.53 61.8845 1718.05 61.8845C1718.31 61.8845 1718.53 61.3363 1718.53 60.6663C1718.53 59.1447 1719.08 59.144 1722.48 60.6583C1723.97 61.3235 1727.54 62.5667 1730.41 63.4201C1736.22 65.1518 1746.91 70.2538 1746.91 71.2978C1746.91 71.6688 1745.83 72.3754 1744.51 72.8675C1741.37 74.0316 1740.7 75.1816 1741.69 77.6838C1743.61 82.5653 1752.81 84.2045 1776.45 83.8786C1789.69 83.6965 1790.11 83.7276 1791.66 85.0146C1793.55 86.5819 1793.65 87.6557 1792.12 89.7048C1790.84 91.4164 1791.18 92.4477 1793.67 94.4066C1794.98 95.4384 1796.13 95.5493 1804.6 95.4598L1814.06 95.3605L1815.05 96.9473C1815.88 98.2764 1815.93 98.855 1815.36 100.506C1814.45 103.173 1814.39 103.048 1816.99 104.141C1818.88 104.936 1820.82 105.048 1827.85 104.765C1832.55 104.576 1837.19 104.405 1838.14 104.385C1839.1 104.365 1841.11 104.86 1842.6 105.485C1846.05 106.926 1846.74 106.241 1844.25 103.847C1841.78 101.474 1839.8 100.691 1837.44 101.157C1836.26 101.39 1834.93 101.18 1833.84 100.588C1832.9 100.072 1830.69 99.6499 1828.94 99.6499C1827.19 99.6499 1825.59 99.3716 1825.39 99.0311C1825.19 98.6906 1824.81 98.5577 1824.53 98.7362C1823.36 99.5006 1823.36 97.6076 1824.54 96.2888C1826.52 94.071 1825.76 90.9809 1822.7 88.8539C1820.57 87.3682 1819.65 87.177 1812.84 86.7859C1806.92 86.446 1805.09 86.1305 1804.21 85.2942C1803.6 84.7106 1803.1 84.051 1803.1 83.828C1803.1 83.6051 1804.04 82.2681 1805.19 80.8561C1807.09 78.5196 1807.22 78.137 1806.61 76.5953C1805.39 73.4949 1802.48 72.9473 1787.46 72.9936C1783.8 73.0046 1780.02 73.0089 1779.06 73.0034C1775.4 72.9809 1770.27 72.2828 1767.86 71.4781L1765.34 70.6387L1766.99 68.5854C1768.61 66.5595 1768.83 64.7845 1767.66 63.2769C1766.4 61.6664 1760.8 58.2195 1756.15 56.199C1753.34 54.9765 1750.8 53.4336 1750.19 52.5765C1749.17 51.1481 1749.16 50.9946 1750.13 49.0223C1750.69 47.8887 1752.65 45.3901 1754.49 43.4702C1757.32 40.5245 1757.8 39.7187 1757.56 38.3067C1757.19 36.1699 1756.97 35.9683 1755.97 36.8393C1755.34 37.3961 1755.08 37.3382 1754.8 36.5719C1754.27 35.1137 1754.39 34.6544 1755.02 35.6924C1755.47 36.416 1755.59 36.2881 1755.59 35.0772C1755.6 33.8955 1754.71 32.8472 1751.69 30.4625C1743.92 24.3268 1732.87 18.0724 1728.23 17.1745C1725.43 16.6324 1725.43 15.614 1728.23 15.5135C1729.43 15.4708 1730.93 15.3593 1731.56 15.2662C1732.78 15.0883 1735.99 14.7794 1746.65 13.817C1753.3 13.2164 1755.57 12.5404 1757.77 10.4962C1759.59 8.81073 1759.44 4.62727 1757.57 4.62727C1755.74 4.62727 1756.95 3.58811 1759.61 2.87179C1761.17 2.44967 1763.66 1.30149 1765.13 0.320201C1766.6 -0.661091 1768.04 -1.46393 1768.31 -1.46393C1768.59 -1.46393 1769 -2.53901 1769.21 -3.85288C1769.42 -5.16675 1769.92 -6.37648 1770.33 -6.54094C1770.74 -6.70601 1773.52 -7.0276 1776.52 -7.25541C1784.25 -7.84443 1790.5 -9.57252 1794.17 -12.1284C1798.12 -14.8907 1801.25 -18.7501 1801.49 -21.1787C1801.69 -23.2424 1800.31 -26.8081 1798.11 -29.8994C1796.52 -32.1245 1796.15 -34.3965 1797.58 -33.1515C1798.26 -32.5564 1799.57 -32.7191 1804.1 -33.9641C1807.21 -34.8205 1810.47 -35.6514 1811.34 -35.8104C1814.29 -36.3476 1823.06 -40.6108 1827.14 -43.4846C1830.46 -45.8267 1831.82 -46.4133 1834.67 -46.7276C1839.28 -47.2368 1845.69 -49.0349 1848.61 -50.6381C1849.91 -51.3502 1852.32 -53.0563 1853.97 -54.4287C1856.8 -56.7817 1857.23 -56.9383 1861.46 -57.1612C1863.93 -57.2916 1866.34 -57.5236 1866.82 -57.6777C1867.29 -57.8312 1868.53 -58.1638 1869.57 -58.4166C1870.61 -58.6694 1872.5 -59.9369 1873.77 -61.2344C1875.68 -63.1756 1876.08 -64.0053 1876.08 -65.9258C1876.08 -68.1375 1876.24 -68.3349 1879.06 -69.7255C1883.15 -71.7368 1888.8 -76.0079 1890.08 -78.0485C1890.85 -79.2838 1891.14 -80.9004 1891.14 -84.0818C1891.14 -88.0746 1891.02 -88.5108 1889.66 -89.4494C1888.85 -90.0116 1887.09 -90.6798 1885.75 -90.9338C1883.36 -91.39 1883.19 -91.6166 1883.87 -93.4574C1884.06 -93.969 1883.5 -95.8774 1882.61 -97.6987C1881.38 -100.235 1880.42 -101.332 1878.48 -102.387C1874.65 -104.479 1871.59 -104.781 1859.29 -104.281C1853.07 -104.029 1840.17 -103.539 1830.61 -103.192C1821.06 -102.845 1809.59 -102.291 1805.13 -101.961C1800.67 -101.632 1794.93 -101.233 1792.38 -101.074C1789.84 -100.915 1786.32 -100.657 1784.56 -100.5C1782.81 -100.343 1779.29 -100.049 1776.74 -99.8446C1771.83 -99.4505 1765.67 -98.666 1759.95 -97.7054C1758.04 -97.3844 1755.17 -96.983 1753.57 -96.813C1750.49 -96.4835 1746.35 -95.6849 1742.57 -94.6896C1741.3 -94.354 1739.21 -94.0659 1737.94 -94.0495C1736.66 -94.0336 1734.05 -93.469 1732.14 -92.7947C1730.23 -92.121 1725.15 -90.8851 1720.85 -90.0488C1716.55 -89.2119 1711.6 -88.0965 1709.84 -87.5697C1708.09 -87.0428 1704.96 -86.1132 1702.89 -85.5035C1698.63 -84.2506 1690.45 -81.4907 1688.7 -80.7201C1688.06 -80.4393 1686.56 -79.7601 1685.35 -79.2113C1684.14 -78.6619 1682.84 -78.2038 1682.45 -78.1922C1682.07 -78.1807 1680.71 -77.6422 1679.43 -76.9947C1678.16 -76.3472 1676.77 -75.8088 1676.35 -75.7972C1675.32 -75.7698 1665.25 -70.49 1664.06 -69.357C1663.54 -68.8673 1662.86 -68.4671 1662.53 -68.4671C1662.21 -68.4671 1660.92 -67.7081 1659.68 -66.7798C1658.44 -65.8521 1656.77 -64.7575 1655.97 -64.3476C1647.05 -59.7554 1630.32 -45.6641 1623.97 -37.402C1621.51 -34.1901 1617.74 -28.4613 1617.74 -27.9149C1617.74 -27.7066 1617.33 -26.5347 1616.82 -25.3116C1616.31 -24.0884 1615.67 -22.5395 1615.4 -21.8694C1614.66 -20.0396 1613.05 -13.2376 1612.31 -8.84218C1611.8 -5.81851 1611.39 -4.84697 1610.45 -4.48272C1609.79 -4.22506 1607.91 -2.4178 1606.29 -0.467395L1603.33 3.07828L1601.79 1.56888C1600.41 0.206283 1600.28 -0.2676 1600.52 -3.29127C1600.89 -7.86149 1600.33 -9.06207 1597.31 -10.2785C1595.15 -11.1434 1594.34 -11.1915 1592.2 -10.5855C1590.81 -10.1895 1588.92 -9.30937 1588.01 -8.62899C1586.19 -7.26273 1581.25 -6.3844 1581.25 -7.42599C1581.25 -7.77745 1582.13 -8.63447 1583.2 -9.33008C1584.27 -10.0263 1585.82 -11.6246 1586.65 -12.8825C1588.02 -14.9614 1588.1 -15.4012 1587.54 -17.7225C1586.78 -20.8753 1586 -21.6142 1581.25 -23.7284C1577.4 -25.4425 1573.38 -25.9189 1569.81 -25.0825C1568.78 -24.8395 1567.93 -24.8395 1567.94 -25.0825C1567.95 -25.3256 1569.64 -26.8374 1571.71 -28.443C1574.76 -30.8223 1575.46 -31.6768 1575.46 -33.0626C1575.46 -33.9976 1575.31 -34.9222 1575.12 -35.1178C1574.94 -35.3133 1573.53 -34.8108 1572 -34.0012C1570.46 -33.1917 1568.69 -32.529 1568.06 -32.529C1567.43 -32.529 1565.91 -32.1599 1564.67 -31.7085C1559.87 -29.9531 1555.2 -30.9861 1552.11 -34.4879C1550.63 -36.1709 1550.24 -36.3068 1547.62 -36.0424C1546 -35.8786 1544.24 -35.2725 1543.59 -34.6518C1542.96 -34.0469 1542.24 -33.7527 1542.01 -33.9982C1541.57 -34.4581 1545.34 -38.3711 1550.15 -42.4577C1551.64 -43.7307 1552.87 -45.0324 1552.87 -45.351C1552.87 -46.3907 1548.95 -45.9601 1544.35 -44.4148C1538.88 -42.5783 1537.51 -42.5338 1534.25 -44.0889C1529.7 -46.2622 1526.65 -45.7177 1519.85 -41.5178C1516.29 -39.317 1512.14 -38.3881 1509.68 -39.2409C1508.63 -39.6051 1506.52 -41.2796 1504.98 -42.9626C1496.54 -52.2103 1485.38 -51.8905 1475.99 -42.1311C1474.01 -40.0705 1472.25 -38.5221 1472.09 -38.6915C1471.59 -39.2196 1475.09 -46.1623 1476.61 -47.6699C1478.38 -49.4175 1478.02 -50.8026 1475.8 -50.8026C1473.59 -50.8026 1471.6 -49.8389 1467.36 -46.7154C1463.05 -43.5431 1459.37 -38.9595 1455.71 -32.1836C1454.19 -29.3847 1452.61 -26.9501 1452.19 -26.7722C1451.06 -26.288 1446.16 -27.5884 1445.02 -28.6781C1444.47 -29.202 1443.59 -29.4597 1443.07 -29.2501C1442.29 -28.9364 1442.2 -28.3303 1442.52 -25.8262C1443 -22.16 1442.36 -21.9194 1440.09 -24.915C1436.54 -29.5943 1434.44 -26.4208 1434.43 -16.3417C1434.42 -9.60785 1434.95 -7.33888 1437.36 -3.9004C1437.72 -3.39788 1438.17 -2.48906 1438.38 -1.88116C1438.69 -0.961393 1438.53 -0.84442 1437.45 -1.18857C1436.74 -1.41577 1434.81 -2.52684 1433.17 -3.65797C1430.53 -5.47741 1430.07 -6.12004 1429.17 -9.2235C1427.6 -14.7251 1427.08 -15.3128 1423.08 -16.1406C1419.2 -16.9428 1418.54 -17.6988 1419.84 -19.8404C1420.99 -21.7171 1426.9 -36.4304 1427.76 -39.5339C1429.68 -46.5436 1430.11 -51.6523 1429.3 -58.112C1428.86 -61.6181 1427.52 -66.4381 1426.6 -67.8579C1426.05 -68.6955 1425.28 -70.8146 1424.88 -72.5664C1423.43 -79.0456 1416.51 -93.9106 1411.17 -102.034C1410.16 -103.577 1408.78 -105.976 1408.1 -107.364C1407.43 -108.752 1406.68 -109.887 1406.43 -109.887C1406.19 -109.887 1405.5 -110.778 1404.9 -111.867C1403.95 -113.574 1400.97 -118.024 1399.5 -119.938C1399.24 -120.273 1397.36 -122.877 1395.31 -125.724C1393.27 -128.572 1390.53 -132.272 1389.23 -133.947C1370.98 -157.356 1362.62 -166.55 1351.43 -175.537C1341.77 -183.298 1338.71 -185.842 1333.28 -190.625C1325.59 -197.411 1314.34 -206.315 1309.48 -209.466C1305.06 -212.326 1304.97 -212.353 1300.79 -212.124C1293.71 -211.737 1290.82 -208.457 1291 -201.026C1291.09 -197.346 1291.31 -196.466 1292.53 -195.137C1294.13 -193.381 1294.28 -192.57 1293.23 -191.4C1291.47 -189.444 1290.34 -185.548 1290.13 -180.717C1289.92 -175.798 1289.96 -175.621 1292.48 -170.512C1295.38 -164.629 1299.9 -157.439 1303.73 -152.609C1305.97 -149.78 1306.19 -149.267 1305.36 -148.779C1304.83 -148.47 1303.58 -146.966 1302.58 -145.438C1300.87 -142.822 1300.77 -142.343 1300.8 -137.271C1300.83 -132.803 1301.09 -131.32 1302.32 -128.585C1303.97 -124.914 1308.28 -118.687 1311.55 -115.252L1313.69 -113.002L1312.37 -111.405C1310.62 -109.309 1310.29 -107.995 1310.24 -102.882C1310.19 -99.0479 1310.4 -98.2055 1312.35 -94.5148C1315.55 -88.448 1320.67 -82.0108 1330.12 -72.1699C1334.76 -67.3383 1338.55 -63.1811 1338.55 -62.9308C1338.55 -62.6804 1337.51 -61.3409 1336.25 -59.954C1334.9 -58.4787 1333.67 -56.3736 1333.29 -54.8788C1332.35 -51.232 1332.94 -46.1282 1334.69 -42.884C1335.5 -41.3765 1336.68 -39.1739 1337.3 -37.9892C1339.07 -34.6719 1354.49 -18.6448 1359.85 -14.5545C1371.16 -5.93609 1373.04 -4.55764 1373.54 -4.53449C1373.83 -4.52048 1375 -3.75727 1376.15 -2.83689C1379.7 0.0137928 1383.68 2.79991 1384.21 2.79991C1384.48 2.79991 1385.16 3.32375 1385.71 3.96333C1386.26 4.60351 1387.32 5.28574 1388.05 5.48005C1389.13 5.76451 1389.47 6.39372 1389.8 8.71386C1390.43 13.102 1392.51 16.6361 1397.61 21.9872L1402.25 26.8601L1398.64 27.2171C1396.65 27.4132 1394.2 27.9103 1393.2 28.322C1391.58 28.9878 1391.04 28.897 1388.44 27.5088C1386.83 26.6494 1385.21 25.9465 1384.85 25.9465C1384.49 25.9465 1383.51 25.4476 1382.66 24.8373C1381.82 24.2269 1379.82 23.2322 1378.23 22.6261C1371.23 19.9619 1369.83 19.1456 1369.83 17.7124C1369.83 15.8826 1367.74 8.76806 1366.04 4.85142C1365.3 3.13188 1364.52 0.727078 1364.3 -0.492379C1363.85 -3.02814 1361.78 -5.06688 1356.43 -8.24161C1354.53 -9.37153 1352.1 -10.996 1351.04 -11.8512C1349.98 -12.7064 1347.32 -14.1896 1345.13 -15.1472C1342.95 -16.1047 1340.77 -17.1969 1340.29 -17.5751C1339.81 -17.9534 1338.51 -18.6959 1337.39 -19.2246C1333.08 -21.2701 1329.56 -24.9394 1326 -31.0951C1317.67 -45.4874 1315.62 -50.3202 1315.4 -55.9844C1315.18 -62.0195 1315.27 -62.4946 1317.66 -67.5534C1318.93 -70.2335 1320.13 -73.1731 1320.34 -74.0856C1320.86 -76.3783 1318.94 -80.3242 1315.66 -83.7072C1313.23 -86.2107 1312.72 -86.4611 1309.48 -86.7407C1305.96 -87.0434 1305.93 -87.0604 1305.15 -89.4415C1304.72 -90.759 1303.94 -92.3238 1303.43 -92.9189C1302.41 -94.1086 1289.03 -101.36 1287.86 -101.36C1287.46 -101.36 1286.76 -101.977 1286.31 -102.73C1285.38 -104.267 1281.79 -117.761 1281.79 -119.689C1281.79 -120.372 1281.53 -121.435 1281.22 -122.051C1280.9 -122.667 1279.73 -126.829 1278.61 -131.3C1276.43 -140 1273.17 -152.581 1271.28 -159.53C1270.64 -161.876 1269.78 -165.302 1269.37 -167.144C1268.96 -168.987 1268.28 -171.728 1267.86 -173.236C1266.97 -176.435 1267.07 -176.016 1266.49 -178.718C1266.24 -179.89 1265.69 -182.083 1265.26 -183.591C1264.84 -185.098 1263.8 -188.936 1262.96 -192.118C1262.12 -195.301 1260.79 -200.098 1260.01 -202.778C1259.23 -205.458 1258.06 -209.707 1257.41 -212.219C1256.76 -214.732 1255.59 -219.255 1254.8 -222.27C1254.02 -225.285 1252.89 -229.945 1252.29 -232.625C1251.69 -235.305 1250.94 -238.457 1250.62 -239.63C1249.66 -243.107 1247.52 -251.435 1247.32 -252.421C1246.79 -255.084 1246.25 -257.056 1245.9 -257.599C1245.68 -257.934 1245.17 -260.126 1244.78 -262.472C1244.38 -264.817 1243.81 -267.284 1243.52 -267.954C1243.23 -268.624 1242.06 -272.872 1240.93 -277.395C1239.79 -281.918 1238.63 -286.44 1238.35 -287.445C1237.41 -290.799 1235.41 -298.349 1234 -303.892C1233.23 -306.907 1231.66 -312.937 1230.51 -317.292C1227.94 -327.027 1227.95 -326.937 1229.33 -327.235C1229.95 -327.368 1231.39 -328.081 1232.52 -328.818C1233.65 -329.556 1235.49 -330.516 1236.61 -330.954C1237.72 -331.392 1239.45 -332.129 1240.46 -332.592C1241.46 -333.055 1242.68 -333.434 1243.18 -333.434C1243.67 -333.434 1244.23 -333.708 1244.43 -334.043C1244.62 -334.378 1246.5 -334.652 1248.6 -334.652C1251.81 -334.652 1252.74 -334.401 1254.36 -333.098C1255.43 -332.244 1256.3 -331.139 1256.3 -330.645C1256.3 -330.15 1255.52 -328.116 1254.56 -326.125C1252.68 -322.204 1252.44 -320.682 1253.52 -319.546C1255.55 -317.414 1262.93 -320.527 1270.86 -326.856C1273.3 -328.799 1275.45 -330.388 1275.63 -330.388C1275.82 -330.388 1278.13 -332.038 1280.76 -334.056C1285.95 -338.028 1293.84 -343.633 1301.19 -348.56C1303.74 -350.268 1306.89 -352.498 1308.2 -353.514C1309.5 -354.531 1310.77 -355.362 1311.01 -355.362C1311.25 -355.362 1312.44 -356.185 1313.64 -357.19C1314.85 -358.195 1316.01 -359.017 1316.23 -359.017C1316.44 -359.017 1317.45 -359.635 1318.46 -360.389C1323.4 -364.061 1334.26 -369.967 1342.9 -373.668C1343.53 -373.941 1344.97 -374.449 1346.08 -374.797C1347.2 -375.144 1349.8 -375.959 1351.87 -376.607C1358.26 -378.607 1360.93 -379.117 1365.02 -379.126C1369.33 -379.136 1371.57 -379.573 1371.57 -380.407C1371.57 -380.703 1371.01 -380.945 1370.33 -380.945C1369.65 -380.945 1367.82 -381.768 1366.27 -382.773C1364.71 -383.778 1363.3 -384.6 1363.13 -384.6C1362.96 -384.6 1361.72 -385.123 1360.39 -385.763C1355.35 -388.172 1345.42 -390.082 1337.93 -390.082C1335.72 -390.082 1333.92 -390.288 1333.93 -390.539C1333.98 -391.755 1354.19 -401.934 1359.17 -403.248C1359.94 -403.452 1360.72 -403.862 1360.89 -404.159C1361.07 -404.457 1361.84 -404.701 1362.6 -404.701C1363.4 -404.701 1364.26 -405.218 1364.61 -405.901C1365.14 -406.943 1364.93 -407.257 1363.02 -408.282C1360.69 -409.533 1357.95 -410.029 1350.43 -410.568C1342.91 -411.106 1332.46 -409.088 1323.07 -405.286C1313.94 -401.586 1311.46 -400.388 1307.71 -397.848C1305.86 -396.592 1304.22 -395.564 1304.07 -395.564C1303.92 -395.564 1301.39 -393.817 1298.44 -391.68C1295.49 -389.544 1291.91 -387.177 1290.49 -386.419C1289.06 -385.662 1285.87 -383.588 1283.4 -381.81C1279.62 -379.087 1270.99 -374.245 1269.92 -374.245C1269.74 -374.245 1268.59 -373.546 1267.36 -372.691C1265.37 -371.306 1255.41 -368.154 1253.03 -368.154C1251.82 -368.154 1252.29 -370.8 1254.26 -375.182C1256.32 -379.778 1256.94 -384.74 1255.91 -388.538C1254.35 -394.318 1253.98 -394.955 1252.21 -394.955C1251.31 -394.955 1250.41 -395.23 1250.22 -395.566C1249.77 -396.322 1239.26 -395.796 1237.74 -394.942C1237.16 -394.615 1236 -394.346 1235.16 -394.346C1233.76 -394.346 1229.15 -392.661 1226.53 -391.19C1225.93 -390.852 1224.11 -390.173 1222.48 -389.681C1220.85 -389.189 1218.48 -388.292 1217.2 -387.686C1212.84 -385.615 1212.44 -385.598 1212.13 -387.475C1211.98 -388.406 1210.94 -392.869 1209.83 -397.392C1208.72 -401.914 1207.4 -407.396 1206.91 -409.574C1206.41 -411.752 1205.46 -415.093 1204.8 -416.999C1203.63 -420.392 1201.7 -427.553 1199.34 -437.289C1198.69 -439.969 1197.88 -442.363 1197.54 -442.61C1196.71 -443.213 1192.72 -443.096 1190.44 -442.402ZM1327.82 45.3975C1331.35 49.0534 1340.5 54.5751 1343.02 54.5751C1345.23 54.5751 1352.27 58.8292 1356.84 62.934C1361.67 67.263 1364.51 70.1478 1369.95 76.2512C1373 79.6738 1379.01 83.8128 1380.93 83.8128C1381.36 83.8128 1382.68 84.3543 1383.86 85.0158C1385.61 86.0062 1400.04 91.0601 1404.29 92.1754C1412.18 94.2427 1424.06 100.215 1425.73 102.95C1426.16 103.648 1426.78 105.811 1427.12 107.756C1427.45 109.702 1427.86 111.524 1428.03 111.805C1428.19 112.087 1428.61 114.469 1428.95 117.1C1429.58 121.956 1431.98 131.783 1432.98 133.65C1434.28 136.082 1436 142.307 1436.45 146.248C1436.72 148.593 1437.32 152.293 1437.79 154.471C1438.25 156.648 1438.77 159.408 1438.93 160.605L1439.23 162.779L1435.24 164.412C1433.05 165.309 1430.82 166.044 1430.3 166.044C1429.78 166.044 1427.49 164.867 1425.22 163.429C1418.8 159.359 1415.18 158.565 1396.93 157.217C1384.05 156.266 1381.17 155.392 1377.21 151.222C1376.06 150.018 1374.39 148.869 1373.49 148.669C1370.49 148.001 1368.07 146.572 1367.59 145.185C1367.32 144.429 1367.22 141.174 1367.36 137.95C1367.58 132.935 1367.44 131.746 1366.45 129.726C1365.26 127.309 1362.93 124.619 1359.49 121.67C1357.74 120.174 1357.5 119.59 1357.13 115.877C1356.77 112.17 1356.51 111.519 1354.56 109.506C1353.36 108.273 1351.67 106.342 1350.8 105.214C1349.79 103.914 1348.59 103.086 1347.5 102.95C1344.93 102.628 1341.87 102.557 1340.66 102.791C1339.26 103.062 1338.88 102.242 1337.44 95.9952C1336.78 93.1476 1335.49 87.9396 1334.57 84.4219C1328.11 59.607 1326.31 52.7964 1325.72 50.9204C1325.35 49.7478 1324.98 48.2402 1324.9 47.5702C1324.82 46.9002 1324.47 45.5802 1324.12 44.6373C1322.67 40.7121 1323.45 40.8711 1327.82 45.3975ZM1647.72 129.271C1650.67 130.194 1653.08 131.157 1653.08 131.412C1653.08 131.666 1650.15 134.286 1646.57 137.234C1639.08 143.401 1637.72 144.769 1630.98 153.001C1625.96 159.122 1616.62 168.524 1613.7 170.387C1612.83 170.948 1610.9 172.377 1609.42 173.563C1606.01 176.305 1591.24 183.877 1587.04 185.042C1585.93 185.351 1584.1 185.857 1582.99 186.165C1579.1 187.239 1571.01 186.588 1569.59 185.084C1569.06 184.531 1570.69 179.926 1574.27 171.831C1575.31 169.485 1576.56 166.607 1577.04 165.435C1577.53 164.262 1578.51 162.069 1579.23 160.562C1581.52 155.771 1587.8 139.586 1587.75 138.587C1587.65 136.343 1609.81 131.08 1612.37 132.742C1613.39 133.403 1618.85 134.462 1622.58 134.721C1627.04 135.031 1630.68 134.119 1633.8 131.908C1635.19 130.917 1636.52 130.106 1636.75 130.106C1636.98 130.106 1637.66 129.411 1638.26 128.562C1639.54 126.773 1639.81 126.793 1647.72 129.271ZM1726.64 147.655C1730.69 148.351 1734.17 149.959 1734.17 151.137C1734.17 151.639 1734.46 152.543 1734.82 153.145C1735.3 153.956 1735.29 155.017 1734.79 157.248C1734.42 158.903 1733.77 162.176 1733.34 164.521C1732.47 169.258 1730.83 173.928 1728.43 178.527C1726.46 182.275 1723.08 187.363 1722.55 187.363C1722.33 187.363 1721.83 186.061 1721.42 184.47C1720.21 179.701 1717.41 175.141 1712.72 170.275C1707.89 165.275 1703.18 161.719 1700 160.67C1698.88 160.304 1696.12 159.351 1693.87 158.554C1690.09 157.219 1689.42 157.157 1685.34 157.767C1682.9 158.131 1680.43 158.841 1679.84 159.344C1679.25 159.846 1677.23 161.069 1675.34 162.061C1671.84 163.899 1665.34 168.991 1663.17 171.603C1661 174.205 1657 180.837 1655.63 184.071C1654.5 186.773 1653.47 193.852 1653.48 198.936C1653.48 200.661 1654.18 205.333 1654.7 207.165C1655.47 209.82 1658.17 215.252 1659.32 216.472C1659.87 217.049 1661.58 219.163 1663.13 221.172C1665.69 224.499 1673.27 231.848 1676.81 234.436C1678.13 235.403 1678.15 235.484 1677.06 235.484C1673.96 235.484 1662.78 233.592 1660.53 232.686C1659.14 232.126 1656.92 230.47 1655.6 229.007L1653.2 226.347L1648.94 226.319C1643.61 226.284 1614.29 225.756 1613.11 225.674C1612.63 225.64 1609.9 225.218 1607.03 224.736C1604.16 224.253 1600.9 223.753 1599.79 223.625C1597.11 223.316 1592.48 222.374 1586.61 220.943C1581.36 219.665 1581.04 219.389 1573.3 209.457C1569.25 204.253 1569.28 203.574 1573.58 204.088C1575.41 204.307 1579.91 204.158 1583.57 203.756C1587.23 203.354 1591.01 202.941 1591.97 202.839C1598.85 202.101 1611.21 198.988 1612.79 197.594C1613.09 197.327 1613.8 197.109 1614.35 197.109C1615.53 197.109 1621.53 193.512 1624.02 191.316C1624.96 190.482 1625.89 189.8 1626.09 189.8C1626.28 189.8 1628.59 188.33 1631.22 186.534C1633.84 184.738 1637.13 182.656 1638.53 181.909C1641.4 180.38 1649.27 174.788 1652.79 171.794C1654.86 170.027 1658.91 167.061 1667.85 160.751C1675.68 155.222 1689.37 149.882 1702.02 147.412C1706.43 146.553 1721.07 146.697 1726.64 147.655ZM1363.7 187.972C1368.57 194.534 1376.11 201.208 1382.21 204.357C1385.09 205.846 1391.1 207.984 1397.73 209.879L1408.53 212.972L1420.61 213.092C1430.29 213.188 1433.71 212.994 1437.89 212.111L1443.1 211.01L1444.4 212.739C1452.47 223.543 1461.97 238.279 1462.86 241.386C1464.83 248.267 1463.6 254.855 1458.83 263.046C1454.24 270.926 1443.57 281.981 1436.95 285.712C1431.34 288.88 1425.42 289.98 1421.12 288.654C1412.71 286.057 1406.25 280.011 1386.33 256.069L1375.33 242.849L1373.74 236.882C1372.86 233.6 1371.73 229.271 1371.22 227.26C1370.71 225.25 1367.84 214.596 1364.85 203.585C1361.85 192.573 1359.4 183.276 1359.4 182.925C1359.4 182.134 1359.12 181.798 1363.7 187.972ZM1304.41 240.196C1309.09 242.567 1315.77 248.438 1319.32 253.303C1320.82 255.353 1323.09 258.3 1324.36 259.852C1325.63 261.403 1327.33 263.828 1328.12 265.24C1331.21 270.707 1338.13 279.736 1348.46 291.752C1353.05 297.094 1356.49 300.358 1362.07 304.673C1372.12 312.442 1372.32 313.216 1363.17 308.96C1353.68 304.55 1340.65 304.573 1331.02 309.019C1326.02 311.328 1320 314.43 1316.49 316.503C1314.39 317.743 1308.95 320.341 1304.39 322.276C1296.18 325.763 1296.06 325.793 1291.53 325.466C1288.59 325.254 1286.4 324.752 1285.39 324.059C1282.59 322.144 1273.36 311.993 1272.35 309.72C1271.3 307.338 1268.25 293.751 1267.66 288.782C1265 266.396 1266.43 258.929 1275.73 246.775C1279.03 242.459 1280.62 240.902 1282.77 239.884C1286.48 238.127 1287.42 237.989 1294.56 238.16C1300.06 238.292 1301.06 238.497 1304.41 240.196Z" fill="white" fill-opacity="0.05"/>
</g>
<defs>
<clipPath id="clip0_726_6448">
<rect width="1920" height="325" fill="white"/>
</clipPath>
</defs>
</svg>
