<svg width="2080" height="1161" viewBox="0 0 2080 1161" fill="none" xmlns="http://www.w3.org/2000/svg">
<path fill-rule="evenodd" clip-rule="evenodd" d="M809.56 0.598196C811.314 1.13178 812.729 2.36099 811.589 2.36099C811.298 2.36099 810.605 4.62265 810.05 7.38622C809.494 10.1504 808.544 14.0329 807.939 16.0144C807.333 17.9959 806.836 20.1887 806.834 20.8874C806.832 21.586 806.441 22.9425 805.965 23.9019C805.489 24.8619 805.1 26.0953 805.101 26.6429C805.103 28.1012 803.498 35.5617 802.199 40.1264C800.013 47.8117 798.778 52.7126 796.672 62.0547C795.502 67.2474 794.202 72.0729 793.783 72.7776C793.363 73.4824 792.837 75.127 792.612 76.4323C792.388 77.7377 791.954 79.3123 791.65 79.9323C791.345 80.5518 790.456 83.704 789.674 86.9372C787.892 94.3106 787.753 94.8326 785.116 104.084C782.964 111.633 782.332 113.979 781.339 118.094C781.056 119.266 780.012 123.378 779.019 127.23C776.059 138.718 775.559 140.75 774.672 144.887C774.205 147.06 773.319 150.487 772.701 152.501C772.084 154.515 771.272 157.792 770.898 159.782C770.524 161.772 769.997 163.828 769.726 164.35C769.456 164.873 768.816 167.356 768.304 169.869C767.792 172.381 766.503 177.589 765.441 181.442C764.379 185.295 763.329 189.406 763.109 190.579C762.888 191.751 762.354 193.944 761.92 195.452C761.487 196.959 760.699 199.975 760.17 202.152C759.641 204.33 758.85 207.345 758.413 208.852C757.976 210.36 756.955 214.845 756.143 218.819C755.332 222.793 754.285 227.006 753.818 228.182C753.351 229.358 752.968 230.75 752.968 231.276C752.968 231.802 752.332 234.44 751.553 237.141C750.775 239.84 749.452 244.653 748.613 247.836C747.774 251.019 746.606 255.404 746.017 257.582C744.433 263.433 742.603 270.687 741.406 275.856C740.825 278.368 739.65 283.028 738.797 286.211C737.943 289.393 736.347 295.698 735.249 300.22C734.152 304.743 732.345 312.007 731.234 316.362C726.15 336.302 725.082 340.952 724.86 344.128C724.634 347.352 724.727 347.637 726.631 349.577C728.939 351.93 729.082 352.959 727.51 355.903L726.379 358.02L727.799 361.696C729.28 365.528 729.63 368.984 728.643 370.023C728.259 370.426 728.454 371.431 729.222 373.015C730.804 376.278 730.677 378.259 728.64 382.053C727.324 384.505 726.903 386.063 726.903 388.473C726.903 390.318 726.433 392.738 725.786 394.232C725.172 395.649 724.481 397.602 724.25 398.572C723.764 400.607 719.971 404.801 716.583 407.05C715.3 407.902 713.793 409.412 713.236 410.405C712.677 411.399 711.756 412.339 711.188 412.496C708.786 413.156 705.456 424.317 704.612 434.531C704.556 435.201 704.351 436.161 704.155 436.663C703.96 437.166 703.354 439.358 702.81 441.536C701.653 446.167 699.544 451.087 697.066 454.937C694.589 458.784 693.504 461.761 692.403 467.728C691.878 470.576 691.217 473.205 690.934 473.571C690.652 473.937 690.586 474.41 690.788 474.622C690.99 474.834 690.876 475.361 690.536 475.793C690.195 476.224 689.654 478.356 689.333 480.528C689.012 482.701 688.105 487.083 687.316 490.266C684.655 501.017 681.677 512.241 681.046 513.897C680.7 514.803 679.693 518.559 678.807 522.244C677.922 525.93 676.76 530.589 676.226 532.599C675.692 534.61 674.725 538.447 674.078 541.127C673.43 543.807 672.659 546.316 672.363 546.702C671.739 547.519 673.872 549.277 678.446 551.717C681.173 553.171 681.434 553.495 681.455 555.441C681.468 556.614 681.692 558.6 681.953 559.853C682.583 562.873 682.078 564.718 679.913 567.312C678.396 569.128 678.089 570.044 677.917 573.262C677.601 579.15 677.577 580.235 677.706 582.865C677.786 584.518 677.482 585.712 676.768 586.542C676.187 587.217 674.783 590.088 673.648 592.921C671.061 599.383 668.158 603.547 663.258 607.826C655.757 614.376 655.564 614.676 653.419 623.077C652.353 627.252 650.963 632.586 650.331 634.932C649.698 637.277 648.966 640.018 648.705 641.023C647.735 644.755 645.813 652.126 644.656 656.555C643.999 659.068 643.037 662.905 642.518 665.083C641.999 667.261 641.224 669.475 640.796 670.004C640.367 670.533 640.017 671.324 640.017 671.763C640.017 672.2 641.255 671.345 642.768 669.862C645.819 666.871 651.77 662.037 652.402 662.037C652.625 662.037 653.513 661.492 654.376 660.826C656.132 659.471 665.628 655.946 667.524 655.946C668.196 655.946 669 655.68 669.31 655.355C670.559 654.041 689.705 652.62 691.423 653.714C691.663 653.866 694.335 654.174 697.362 654.398C700.388 654.622 703.112 655.062 703.415 655.376C703.717 655.69 704.708 655.946 705.617 655.946C706.525 655.946 708.233 656.462 709.411 657.093C710.589 657.724 713.899 659.016 716.766 659.965C721.967 661.686 727.315 663.892 729.509 665.221C733.206 667.462 739.202 670.967 741.963 672.503C748.163 675.953 750.05 677.364 754.265 681.707C759.18 686.772 762.695 691.603 765.875 697.662C768.498 702.662 771.791 711.255 772.688 715.441C773.483 719.15 773.516 731.25 772.738 733.402C772.415 734.294 771.612 737.412 770.952 740.332C768.149 752.744 759.782 765.357 749.185 773.147C742.632 777.964 723.818 788.125 721.452 788.125C720.722 788.125 719.369 788.392 718.445 788.719C715.574 789.734 703.068 791.36 698.81 791.272C689.568 791.081 677.912 788.092 667.531 783.252C663.343 781.299 659.527 780.657 656.763 781.439C652.255 782.716 646.389 789.028 646.389 792.603C646.389 795.459 651.32 799.053 656.566 800.023C663.021 801.215 670.305 805.38 672.826 809.316C674.26 811.559 674.272 814.186 672.85 815.022C672.172 815.421 672.007 816.077 672.255 817.381C672.685 819.644 671.6 821.121 669.604 820.988C668.783 820.933 666.649 820.918 664.864 820.953C661.022 821.029 659.333 822.336 657.526 826.632C656.888 828.147 656.016 829.616 655.586 829.896C654.521 830.588 651.086 830.218 649.618 829.253C648.957 828.818 647.373 828.126 646.099 827.714C641.316 826.169 635.26 822.564 632.119 819.389C629.533 816.776 628.643 816.219 627.531 816.512C626.65 816.745 625.458 816.427 624.236 815.632C620.772 813.38 612.161 803.134 609.95 798.632C608.605 795.895 608.267 796.519 606.233 805.485C605.777 807.495 604.558 812.429 603.524 816.449C602.491 820.469 601.295 825.266 600.868 827.109C598.981 835.243 593.609 856.301 590.378 868.224C588.771 874.157 586.075 884.692 585.78 886.193C585.616 887.031 585.274 888.264 585.021 888.934C584.768 889.604 583.965 892.619 583.239 895.635C582.512 898.65 581.028 904.543 579.941 908.731C578.855 912.918 577.463 918.538 576.849 921.218C576.234 923.898 575.491 926.53 575.196 927.067C574.901 927.604 574.473 929.386 574.246 931.026C574.019 932.667 573.478 934.969 573.044 936.141C572.185 938.466 567.431 957.189 566.085 963.551C565.624 965.729 564.76 969.155 564.165 971.165C563.57 973.176 561.711 980.302 560.032 987.003C558.354 993.703 556.351 1001.65 555.582 1004.67C554.285 1009.75 553.899 1011.36 552.6 1017.15C552.337 1018.33 550.915 1023.62 549.441 1028.91C547.966 1034.2 546.76 1038.94 546.76 1039.44C546.76 1039.94 546.258 1042.05 545.645 1044.13C545.032 1046.21 543.844 1050.66 543.005 1054.01C540.516 1063.94 538.566 1071.49 537.733 1074.41C537.304 1075.92 536.518 1078.8 535.988 1080.81C535.457 1082.82 534.666 1085.64 534.23 1087.07C533.794 1088.51 533.437 1090.2 533.437 1090.84C533.437 1092.25 532.538 1092.93 531.555 1092.26C531.156 1091.99 528.356 1091.21 525.331 1090.53C521.308 1089.62 519.784 1089.02 519.649 1088.29C519.548 1087.74 521.208 1080.76 523.338 1072.78C532.264 1039.33 540.529 1008.02 542.927 998.576C544.032 994.221 546.665 984.079 548.777 976.038C550.89 967.998 553.647 957.445 554.904 952.587C556.161 947.73 558.765 937.725 560.69 930.354C562.615 922.984 565.114 913.253 566.244 908.731C569.146 897.12 569.578 895.423 571.977 886.193C573.153 881.671 574.576 876.189 575.14 874.011C575.704 871.833 576.552 868.818 577.026 867.311C577.499 865.803 578.293 863.062 578.789 861.219C579.286 859.377 580.221 855.951 580.868 853.605C581.997 849.519 582.629 847.004 586.994 829.241C588.065 824.885 589.246 820.5 589.619 819.495C589.992 818.49 591.322 813.556 592.574 808.531C596.217 793.91 599.025 783.083 603.789 765.283C604.506 762.603 605.3 759.902 605.553 759.28C605.954 758.293 605.726 758.337 603.756 759.624C600.518 761.739 595.903 763.003 589.889 763.42C584.184 763.818 577.946 762.77 567.902 759.727C555.423 755.947 542.476 745.079 536.804 733.619C535.41 730.803 534.285 729.136 534.131 729.659C533.558 731.608 532.068 732.695 529.969 732.695C527.314 732.695 526.993 733.025 527.714 735.018C528.138 736.19 528.05 737.264 527.378 739.114C526.546 741.404 526.548 741.855 527.406 744.315C527.923 745.797 528.557 747.832 528.816 748.837C529.843 752.821 531.733 758.953 534.263 766.501C538.233 778.352 538.752 782.448 538.854 802.744C538.953 822.833 538.861 823.348 534.841 824.962C533.432 825.528 532.246 826.174 532.205 826.398C532.164 826.621 532.071 827.352 531.998 828.022C531.925 828.692 531.567 830.693 531.203 832.468C530.839 834.244 530.541 836.637 530.541 837.786C530.541 841.4 528.907 844.693 526.462 846.004C522.897 847.917 521.891 849.925 517.31 864.265C515.758 869.123 513.4 876.249 512.069 880.102C510.738 883.955 508.528 890.533 507.158 894.721C505.788 898.909 504.23 903.217 503.697 904.296C502.961 905.783 502.747 907.695 502.811 912.214C502.884 917.377 502.685 918.742 501.319 922.436C500.452 924.781 499.449 927.072 499.09 927.527C497.529 929.505 499.873 955.13 502.198 961.518C502.544 962.468 502.854 966.947 502.886 971.47C502.932 978.086 502.637 981.36 501.375 988.221C500.512 992.911 499.402 999.078 498.907 1001.93C498.413 1004.77 497.762 1007.59 497.461 1008.19C497.033 1009.04 497.335 1009.69 498.858 1011.23C501.599 1014 502.738 1016.17 502.738 1018.62C502.738 1020.05 502.36 1021.02 501.576 1021.6C500.624 1022.3 500.45 1022.99 500.616 1025.44C500.847 1028.84 499.974 1031.13 497.818 1032.78C497.006 1033.4 496.207 1034.69 496.043 1035.64C495.378 1039.5 492.135 1042.13 488.047 1042.13C486.147 1042.13 485.942 1042.31 485.441 1044.41C485.142 1045.67 484.911 1047.11 484.928 1047.61C484.945 1048.11 484.627 1050.95 484.223 1053.91C483.612 1058.39 483.198 1059.65 481.788 1061.34C480.854 1062.46 479.211 1063.68 478.139 1064.05C476.07 1064.77 474.423 1066.82 474.407 1068.71C474.358 1074.09 472.381 1082.42 470.902 1083.47C470.051 1084.07 469.721 1084.97 469.721 1086.69C469.721 1089.92 468.516 1092.71 466.264 1094.71C464.743 1096.05 464.519 1096.53 465.08 1097.24C465.461 1097.73 465.914 1099.77 466.088 1101.78C466.427 1105.71 465.872 1107.81 463.453 1111.72C461.763 1114.45 461.979 1117.27 464.233 1121.95C465.021 1123.59 465.669 1125.28 465.672 1125.71C465.684 1127.29 468.491 1132.77 471.238 1136.57C473.717 1140 474.065 1140.84 474.065 1143.42C474.065 1145.83 473.808 1146.57 472.617 1147.53C471.821 1148.17 470.778 1148.71 470.3 1148.73C469.823 1148.75 468.907 1149.65 468.265 1150.73C467.561 1151.91 466.528 1152.76 465.658 1152.88C464.797 1153 463.749 1153.85 463.051 1155.01C462.349 1156.17 461.309 1157.02 460.444 1157.14C459.653 1157.24 457.9 1157.86 456.55 1158.51C455.199 1159.16 453.692 1159.69 453.201 1159.69C451.67 1159.69 448.32 1157.98 446.122 1156.07C443.875 1154.12 442.497 1154.38 442.497 1156.75C442.497 1157.59 441.57 1158.37 439.307 1159.46L436.117 1161L434.159 1159.73C433.083 1159.03 432.05 1157.98 431.864 1157.4C431.677 1156.81 431.292 1155.93 431.006 1155.42C427.744 1149.68 428.002 1140.75 431.624 1134.1C433.215 1131.18 433.121 1127.31 431.345 1122.53C427.908 1113.29 427.414 1110.59 427.692 1102.53L427.951 1095.02L430.489 1092.16C433.271 1089.03 433.668 1087.47 434.976 1074.41C436.585 1058.34 436.516 1056.77 434.257 1058.04C433.538 1058.44 430.719 1058.79 427.992 1058.81C423.813 1058.83 422.677 1058.62 420.756 1057.42L418.479 1056.01L412.243 1059.43C408.294 1061.59 405.295 1062.84 404.066 1062.84C401.873 1062.84 397.963 1060.18 396.35 1057.59C394.815 1055.13 392.026 1054.12 389.041 1054.96C386.633 1055.64 380.483 1058.49 375.203 1061.38C372.738 1062.73 363.454 1065.45 353.005 1067.89C349.002 1068.82 339.452 1069.81 336.347 1069.62C334.592 1069.51 329.348 1067.17 327.518 1065.69C326.577 1064.92 326.36 1064.03 326.36 1060.9V1057.05L324.339 1056.75C322.8 1056.51 322.125 1056.01 321.51 1054.61C320.011 1051.22 319.07 1050.51 316.624 1050.92C315.007 1051.19 305.419 1055.7 303.635 1057.03C303.561 1057.09 303.742 1058.02 304.038 1059.11C304.335 1060.19 304.42 1063.43 304.227 1066.3L303.876 1071.53L298.755 1077.05C295.938 1080.08 293.633 1082.76 293.633 1083C293.633 1083.24 292.739 1085.09 291.646 1087.13C289.123 1091.82 286.99 1098.41 286.102 1104.26C285.719 1106.77 285.141 1109.58 284.815 1110.5C284.15 1112.39 280.696 1115.83 279.473 1115.83C278.4 1115.83 275.93 1119 274.189 1122.62C272.952 1125.18 272.215 1125.86 268.612 1127.77C262.272 1131.13 258.965 1130.56 257.816 1125.93C257.369 1124.13 257.246 1124.06 254.617 1124.26C252.045 1124.46 251.73 1124.31 249.299 1121.75C247.641 1120.01 246.715 1118.5 246.715 1117.54C246.715 1116.71 246.041 1115.38 245.21 1114.57C239.696 1109.15 240.694 1098.83 247.004 1096C250.064 1094.63 253.113 1091.35 253.761 1088.73C254.779 1084.61 255.003 1081.72 254.306 1081.72C253.953 1081.72 253.666 1081.99 253.666 1082.33C253.666 1082.66 252.765 1082.94 251.665 1082.94C250.565 1082.94 249.016 1083.25 248.222 1083.63C247.09 1084.17 245.928 1084.1 242.837 1083.28C238.248 1082.07 237.511 1081.47 234.771 1076.73C233.338 1074.25 232.267 1073.08 231.178 1072.81C230.325 1072.6 228.585 1071.4 227.31 1070.14C224.2 1067.07 223.656 1066.83 216.355 1065.31C209.901 1063.96 207.767 1062.97 201.568 1058.43C197.074 1055.13 193.675 1054.17 190.313 1055.23C188.873 1055.69 187.126 1056.38 186.432 1056.77C185.737 1057.16 183.132 1057.86 180.643 1058.31C176.482 1059.08 175.861 1059.05 172.928 1057.99C167.814 1056.14 165.989 1054.53 157.395 1044.33C155.438 1042 155.312 1041.95 151.008 1041.8C141.241 1041.46 128.969 1033.89 125.411 1026C124.052 1022.99 122.583 1022.22 117.286 1021.72C111.578 1021.19 107.971 1019.52 101.69 1014.51C94.6527 1008.9 90.9612 1006.43 87.4244 1004.96C76.0157 1000.19 69.6093 996.327 66.8684 992.549C65.9926 991.341 64.9279 990.353 64.5028 990.353C64.0776 990.353 63.2233 989.187 62.604 987.764C61.9848 986.34 60.0212 982.845 58.24 979.998C55.8634 976.197 54.9998 974.249 54.9946 972.672C54.9842 969.723 55.8021 968.555 62.0242 962.632L64.1384 960.62L64.2103 954.075C64.3418 942.14 65.3079 939.901 74.947 929.195C78.474 925.278 78.9142 924.286 78.4786 921.233C78.2649 919.733 77.8438 918.346 77.5438 918.15C77.2437 917.955 76.9981 917.247 76.9981 916.577C76.9981 915.907 77.2588 915.528 77.5773 915.736C77.8959 915.943 78.1566 915.838 78.1566 915.503C78.1566 914.539 77.1249 914.125 76.8301 914.971C76.6227 915.566 76.3998 915.574 75.8263 915.006C75.2314 914.417 75.2297 913.581 75.8171 910.67C76.6662 906.462 76.3465 905.04 73.8059 901.726C69.9453 896.69 69.8723 895.82 72.5918 887.226C74.1407 882.333 74.4964 880.366 74.2687 877.954L73.9797 874.894L77.3711 873.268C79.2369 872.375 82.1968 871.055 83.949 870.337C85.7012 869.618 88.3077 868.536 89.7413 867.932C91.1749 867.328 96.1274 865.318 100.747 863.463C105.366 861.609 110.97 859.232 113.2 858.18C115.431 857.129 118.167 855.856 119.282 855.352C120.397 854.849 121.831 854.191 122.468 853.89C123.105 853.589 125.801 852.603 128.458 851.7C131.116 850.796 133.657 849.671 134.106 849.199C134.555 848.727 134.955 847.196 134.997 845.796C135.283 836.048 137.023 831.64 143.082 825.314C147.643 820.551 147.781 820.156 147.324 813.177L146.923 807.047L148.751 805.251C149.959 804.065 152.298 802.904 155.639 801.832C158.422 800.939 164.347 799.03 168.807 797.588C176.829 794.997 183.498 793.089 190.239 791.456C192.151 790.993 195.409 790.071 197.48 789.407C199.55 788.743 204.112 787.487 207.616 786.618C211.121 785.748 214.509 784.8 215.146 784.51C215.783 784.22 217.774 783.529 219.57 782.973C224.328 781.502 224.781 781.015 224.123 778.075C223.563 775.575 223.996 773.243 225.632 769.945C226.074 769.056 226.436 768.047 226.438 767.703C226.44 767.358 228.005 765.058 229.917 762.592L233.392 758.108V753.605C233.392 751.128 233.748 748.208 234.182 747.114C234.986 745.09 237.866 742.155 240.021 741.164C240.676 740.863 241.603 740.352 242.081 740.028C242.559 739.705 244.514 738.715 246.425 737.828C249.511 736.396 251.726 735.647 258.01 733.912C261.429 732.968 272.382 728.944 274.487 727.858C274.961 727.613 275.981 724.676 276.841 721.076C277.675 717.584 278.775 713.904 279.286 712.899C280.579 710.356 284.22 706.83 286.935 705.494C289.657 704.154 289.957 703.21 289.901 696.148C289.863 691.353 289.775 690.98 288.705 691.096C288.071 691.165 285.987 691.362 284.076 691.533C282.164 691.704 278.385 692.14 275.677 692.501C272.969 692.862 268.798 693.397 266.409 693.691C260.634 694.402 243.265 694.118 241.791 693.289C241.154 692.932 238.808 692.473 236.578 692.271C228.252 691.515 221.255 689.676 204.72 683.896C201.853 682.894 198.334 681.702 196.9 681.246C195.467 680.791 191.566 679.31 188.233 677.957C184.9 676.603 182.083 675.588 181.976 675.702C181.867 675.815 182.396 676.419 183.15 677.044C183.903 677.668 185.416 679.603 186.51 681.344C193.112 691.84 193.25 692.443 189.963 696.437C188.637 698.047 187.139 700.08 186.634 700.955C185.243 703.362 180.163 708.273 177.695 709.597C174.707 711.2 169.408 712.734 165.911 713.009C163.208 713.222 159.483 712.421 134.053 706.165C127.895 704.65 126.985 704.862 119.815 709.473C113.524 713.518 106.265 719.585 95.3727 729.902C92.5125 732.61 89.8797 734.844 89.5223 734.864C88.1449 734.943 87.6456 733.847 87.838 731.162C88.0111 728.74 87.8118 728.136 86.3273 726.575C84.8073 724.977 82.7766 724.314 80.7631 724.761C80.4446 724.831 79.2716 724.969 78.1566 725.065C77.0416 725.162 74.4304 726.069 72.3544 727.082C65.9335 730.215 62.3057 731.069 57.3469 730.614C54.4327 730.348 52.446 729.822 51.4294 729.048C49.9095 727.891 49.8724 727.894 45.9266 729.457C34.9901 733.788 33.0212 734.154 20.5074 734.188L8.90702 734.218L4.71621 731.555C0.407839 728.818 -0.536937 727.38 0.253143 724.764C0.607636 723.588 0.943058 723.483 3.34631 723.794C10.9673 724.778 15.2809 724.888 18.6573 724.183C24.704 722.922 30.8884 720.206 39.5417 715.013C42.0376 713.515 45.0619 711.741 46.2615 711.071C48.422 709.865 52.8092 706.004 60.1626 698.837C63.8883 695.206 70.3901 690.057 71.2491 690.057C71.4878 690.057 73.4653 688.981 75.6438 687.665C77.8223 686.35 81.6726 684.415 84.1998 683.364C86.7276 682.313 89.4644 680.959 90.2817 680.356C91.983 679.101 100.79 676.157 105.091 675.407C106.684 675.129 109.942 674.454 112.332 673.907C114.721 673.36 117.849 672.822 119.282 672.712C120.716 672.601 124.375 672.32 127.413 672.086C133.127 671.646 138.901 672.238 146.084 674.003C149.293 674.791 150.32 674.829 151.732 674.214C152.681 673.801 153.457 673.139 153.457 672.744C153.457 671.538 144.682 666.365 140.401 665.047C135.583 663.563 123.382 662.066 115.974 662.05C105.986 662.027 95.5337 663.616 95.5337 665.157C95.5337 666.193 91.0492 665.71 89.6608 664.524L88.2933 663.357L89.5073 661.631C90.9015 659.648 100.421 651.873 102.168 651.29C102.81 651.076 104.753 649.8 106.484 648.455C108.216 647.109 112.729 644.338 116.513 642.298C125.054 637.691 127.349 636.404 129.155 635.208C131.035 633.964 137.731 631.04 139.88 630.526C142.245 629.959 145.806 629.971 148.427 630.552C150.467 631.005 150.593 630.955 150.062 629.911C149.026 627.875 151.233 625.276 155.632 623.353C157.781 622.414 159.787 621.414 160.09 621.131C160.393 620.849 160.996 620.617 161.43 620.617C161.865 620.617 163.572 619.966 165.224 619.171C168.94 617.381 173.639 615.18 175.179 614.508C180.636 612.124 193.869 609.51 201.915 609.225C208.294 608.999 209.385 609.124 213.499 610.548C215.998 611.412 218.564 612.355 219.201 612.643C219.838 612.93 222.109 613.909 224.247 614.818C227.534 616.216 228.363 616.88 229.615 619.128C230.43 620.59 231.352 623.236 231.664 625.008C232.42 629.305 234.208 634.279 237.1 640.13C239.025 644.025 240.424 645.841 244.401 649.605C250.461 655.341 257.935 660.599 261.615 661.714C271.101 664.59 283.769 664.471 289.868 661.448C290.505 661.132 292.721 660.148 294.791 659.261C303.35 655.596 309.466 651.358 311.88 647.418C314.37 643.352 314.779 640.871 313.636 636.739C312.034 630.944 307.342 628.927 301.541 631.541C298.607 632.864 298.009 633.746 297.392 637.658C296.818 641.299 294.308 643.903 290.152 645.171C282.83 647.405 279.827 648.039 274.847 648.405C267.726 648.927 263.393 647.802 253.376 642.828C248.933 640.622 241.457 634.642 240.797 632.765C240.568 632.114 240.14 631.581 239.846 631.581C239.551 631.581 239.139 630.827 238.93 629.906C238.721 628.985 237.942 626.861 237.197 625.186C233.015 615.768 232.259 611.558 233.258 603.246C233.894 597.956 237.888 591.504 243.024 587.471C244.34 586.438 247.428 583.856 249.886 581.733C254.208 578.002 261.846 573.132 263.404 573.114C263.822 573.11 265.826 572.263 267.856 571.233C269.887 570.204 273.177 568.961 275.168 568.473C277.159 567.985 279.143 567.275 279.578 566.895C280.013 566.516 281.854 566.131 283.67 566.039C285.486 565.948 289.065 565.316 291.624 564.635C295.115 563.705 298.92 563.316 306.876 563.078C312.707 562.904 317.717 562.605 318.01 562.415C318.955 561.801 317.495 559.882 315.81 559.521C314.922 559.331 313.098 558.061 311.757 556.699C309.497 554.405 309.079 554.223 306.08 554.223C302.328 554.223 300.098 553.186 298.113 550.52C296.925 548.923 296.523 548.726 295.6 549.288C294.01 550.255 265.343 554.567 259.046 554.785C257.386 554.843 253.606 555.404 250.647 556.03C247.688 556.658 241.748 557.909 237.447 558.811C232.285 559.894 229.246 560.835 228.505 561.58C227.419 562.672 227.417 562.747 228.437 563.932C229.017 564.606 230.586 565.714 231.924 566.396C236.364 568.656 238.218 571.91 236.572 574.553C235.745 575.88 229.325 580.415 228.274 580.415C228.053 580.415 226.834 581.007 225.564 581.73C224.294 582.453 221.822 583.385 220.07 583.8C218.318 584.216 214.277 585.247 211.092 586.092C207.906 586.937 201.853 588.339 197.642 589.207C187.931 591.21 186.815 591.641 187.278 593.218C187.473 593.882 187.787 594.95 187.977 595.591C188.387 596.982 186.688 598.138 184.121 598.214C183.185 598.242 182.419 598.54 182.419 598.876C182.419 599.212 181.944 599.035 181.363 598.482C179.955 597.142 171.931 596.299 160.264 596.266C157.476 596.259 155.195 596.009 155.195 595.713C155.195 594.932 158.989 594.469 168.379 594.103C172.922 593.926 177.285 593.522 178.076 593.207C179.367 592.69 179.446 592.475 178.846 591.092C177.97 589.072 178.894 586.88 181.135 585.661C182.575 584.878 189.335 583.345 194.873 582.544C198.918 581.959 200.483 581.66 202.401 581.103C203.517 580.779 204.43 580.602 204.43 580.71C204.43 580.819 206.189 580.242 208.34 579.43C210.491 578.617 213.814 577.376 215.725 576.671C218.932 575.489 221.808 573.498 221.808 572.461C221.808 572.224 221.351 571.873 220.794 571.681C218.894 571.027 214.572 568.124 212.629 566.197C210.766 564.349 210.702 564.134 210.987 560.707C211.582 553.534 216.035 551.073 238.895 545.289C242.081 544.482 246.251 543.544 248.163 543.204C252.591 542.415 260.639 539.851 264.381 538.037C265.974 537.265 268.972 535.904 271.043 535.013C275.333 533.168 278.573 530.812 278.573 529.539C278.573 528.294 275.91 527.021 271.598 526.203C269.54 525.813 267.401 525.063 266.843 524.536C264.377 522.207 266.584 517.325 271.535 514.153C274.563 512.213 280.86 509.623 282.798 509.521C283.501 509.483 284.064 509.179 284.05 508.844C284.006 507.797 282.465 504.884 281.955 504.884C281.688 504.884 281.469 504.336 281.469 503.666C281.469 502.145 280.918 502.144 277.521 503.658C276.029 504.323 272.462 505.567 269.595 506.42C263.778 508.152 253.086 513.254 253.086 514.298C253.086 514.669 254.17 515.375 255.494 515.868C258.627 517.032 259.3 518.182 258.315 520.684C256.391 525.565 247.191 527.204 223.545 526.879C210.311 526.696 209.889 526.728 208.34 528.015C206.453 529.582 206.348 530.656 207.881 532.705C209.162 534.416 208.821 535.448 206.329 537.407C205.017 538.438 203.87 538.549 195.4 538.46L185.938 538.36L184.948 539.947C184.121 541.276 184.07 541.855 184.638 543.506C185.555 546.173 185.61 546.048 183.014 547.141C181.124 547.936 179.181 548.048 172.153 547.765C167.445 547.576 162.812 547.405 161.856 547.385C160.901 547.365 158.895 547.86 157.399 548.485C153.949 549.926 153.258 549.241 155.751 546.847C158.22 544.474 160.202 543.691 162.558 544.157C163.74 544.39 165.067 544.18 166.156 543.588C167.104 543.072 169.312 542.65 171.061 542.65C172.81 542.65 174.406 542.372 174.605 542.031C174.806 541.691 175.194 541.558 175.468 541.736C176.644 542.501 176.637 540.608 175.459 539.289C173.477 537.071 174.242 533.981 177.298 531.854C179.433 530.368 180.345 530.177 187.161 529.786C193.083 529.446 194.907 529.131 195.786 528.294C196.399 527.711 196.9 527.051 196.9 526.828C196.9 526.605 195.96 525.268 194.811 523.856C192.909 521.52 192.781 521.137 193.389 519.595C194.61 516.495 197.521 515.947 212.54 515.994C216.203 516.005 219.983 516.009 220.939 516.003C224.601 515.981 229.729 515.283 232.142 514.478L234.657 513.639L233.015 511.585C231.393 509.559 231.169 507.785 232.344 506.277C233.599 504.666 239.2 501.219 243.846 499.199C246.656 497.977 249.197 496.434 249.811 495.577C250.834 494.148 250.836 493.995 249.87 492.022C249.315 490.889 247.352 488.39 245.507 486.47C242.677 483.524 242.198 482.719 242.442 481.307C242.811 479.17 243.028 478.968 244.026 479.839C244.665 480.396 244.919 480.338 245.199 479.572C245.731 478.114 245.615 477.654 244.977 478.692C244.532 479.416 244.413 479.288 244.406 478.077C244.4 476.895 245.286 475.847 248.308 473.462C256.083 467.327 267.125 461.072 271.767 460.175C274.57 459.632 274.57 458.614 271.767 458.513C270.572 458.471 269.073 458.359 268.436 458.266C267.224 458.088 264.011 457.779 253.346 456.817C246.696 456.216 244.431 455.54 242.226 453.496C240.407 451.811 240.555 447.627 242.432 447.627C244.258 447.627 243.049 446.588 240.392 445.872C238.825 445.45 236.341 444.301 234.869 443.32C233.397 442.339 231.965 441.536 231.685 441.536C231.406 441.536 231.005 440.461 230.793 439.147C230.582 437.833 230.076 436.624 229.667 436.459C229.258 436.294 226.476 435.972 223.483 435.745C215.754 435.156 209.495 433.427 205.834 430.872C201.876 428.109 198.753 424.25 198.511 421.821C198.306 419.758 199.687 416.192 201.89 413.101C203.476 410.875 203.845 408.603 202.419 409.848C201.736 410.444 200.431 410.281 195.902 409.036C192.788 408.179 189.528 407.349 188.658 407.19C185.712 406.652 176.937 402.389 172.862 399.515C169.541 397.173 168.179 396.587 165.332 396.272C160.719 395.763 154.307 393.965 151.39 392.362C150.094 391.65 147.682 389.944 146.03 388.571C143.2 386.218 142.772 386.062 138.541 385.839C136.072 385.708 133.662 385.476 133.184 385.322C132.706 385.169 131.466 384.836 130.427 384.583C129.388 384.331 127.498 383.063 126.228 381.766C124.325 379.824 123.916 378.995 123.916 377.074C123.916 374.862 123.762 374.665 120.938 373.275C116.854 371.263 111.201 366.992 109.922 364.952C109.147 363.716 108.863 362.1 108.86 358.918C108.857 354.925 108.977 354.489 110.339 353.551C111.155 352.988 112.914 352.32 114.249 352.066C116.641 351.61 116.81 351.383 116.127 349.543C115.937 349.031 116.504 347.123 117.388 345.301C118.617 342.765 119.584 341.668 121.518 340.613C125.351 338.521 128.412 338.219 140.714 338.719C146.927 338.971 159.829 339.461 169.386 339.808C178.944 340.155 190.413 340.709 194.873 341.039C199.333 341.368 205.068 341.767 207.616 341.926C210.165 342.085 213.684 342.343 215.436 342.5C217.188 342.657 220.707 342.951 223.256 343.155C228.169 343.549 234.331 344.334 240.053 345.295C241.965 345.616 244.832 346.017 246.425 346.187C249.514 346.516 253.655 347.315 257.431 348.31C258.705 348.646 260.79 348.934 262.065 348.951C263.339 348.966 265.945 349.531 267.857 350.205C269.768 350.879 274.851 352.115 279.15 352.951C283.45 353.788 288.402 354.903 290.156 355.43C291.909 355.957 295.038 356.887 297.108 357.496C301.366 358.749 309.554 361.509 311.3 362.28C311.937 362.561 313.445 363.24 314.65 363.789C315.855 364.338 317.159 364.796 317.546 364.808C317.934 364.819 319.293 365.358 320.567 366.005C321.842 366.653 323.231 367.191 323.654 367.203C324.678 367.23 334.752 372.51 335.942 373.643C336.457 374.133 337.144 374.533 337.469 374.533C337.794 374.533 339.077 375.292 340.32 376.22C341.562 377.148 343.23 378.242 344.027 378.652C352.945 383.245 369.679 397.336 376.027 405.598C378.495 408.81 382.256 414.539 382.256 415.085C382.256 415.293 382.674 416.465 383.184 417.688C383.695 418.912 384.333 420.461 384.603 421.131C385.34 422.96 386.952 429.762 387.69 434.158C388.198 437.181 388.612 438.153 389.549 438.517C390.212 438.775 392.085 440.582 393.712 442.533L396.67 446.078L398.207 444.569C399.595 443.206 399.719 442.732 399.477 439.709C399.112 435.139 399.665 433.938 402.695 432.722C404.848 431.857 405.655 431.808 407.795 432.415C409.194 432.81 411.081 433.691 411.99 434.371C413.815 435.737 418.748 436.616 418.748 435.574C418.748 435.223 417.872 434.366 416.801 433.67C415.73 432.974 414.177 431.375 413.35 430.118C411.981 428.039 411.901 427.599 412.462 425.277C413.225 422.125 413.999 421.386 418.748 419.272C422.6 417.557 426.624 417.081 430.188 417.917C431.224 418.161 432.065 418.161 432.059 417.917C432.052 417.674 430.358 416.163 428.294 414.557C425.235 412.178 424.541 411.323 424.541 409.937C424.541 409.002 424.693 408.078 424.878 407.882C425.064 407.687 426.471 408.189 428.004 408.999C429.537 409.808 431.307 410.471 431.938 410.471C432.568 410.471 434.094 410.84 435.328 411.291C440.133 413.047 444.801 412.014 447.887 408.512C449.37 406.829 449.762 406.693 452.382 406.958C454 407.121 455.756 407.728 456.408 408.348C457.044 408.953 457.755 409.247 457.989 409.002C458.426 408.542 454.663 404.629 449.854 400.542C448.357 399.269 447.131 397.968 447.131 397.649C447.131 396.609 451.05 397.04 455.653 398.585C461.121 400.422 462.489 400.466 465.748 398.911C470.302 396.738 473.35 397.282 480.147 401.482C483.709 403.683 487.859 404.612 490.318 403.759C491.367 403.395 493.483 401.72 495.019 400.037C503.465 390.79 514.623 391.11 524.009 400.869C525.991 402.93 527.745 404.478 527.906 404.309C528.408 403.78 524.915 396.838 523.389 395.33C521.62 393.583 521.981 392.197 524.204 392.197C526.412 392.197 528.401 393.161 532.643 396.285C536.95 399.457 540.625 404.041 544.295 410.816C545.81 413.615 547.391 416.05 547.808 416.228C548.942 416.712 553.838 415.412 554.983 414.322C555.534 413.798 556.409 413.54 556.929 413.75C557.706 414.064 557.803 414.67 557.475 417.174C556.996 420.84 557.64 421.081 559.913 418.085C563.463 413.406 565.559 416.579 565.575 426.658C565.585 433.392 565.049 435.661 562.637 439.1C562.284 439.602 561.827 440.511 561.622 441.119C561.311 442.039 561.467 442.156 562.547 441.811C563.262 441.584 565.19 440.473 566.833 439.342C569.473 437.523 569.934 436.88 570.825 433.776C572.405 428.275 572.923 427.687 576.925 426.859C580.803 426.057 581.464 425.301 580.156 423.16C579.009 421.283 573.099 406.57 572.244 403.466C570.315 396.456 569.889 391.348 570.697 384.888C571.136 381.382 572.475 376.562 573.405 375.142C573.953 374.305 574.724 372.185 575.117 370.434C576.571 363.954 583.487 349.089 588.829 340.966C589.843 339.423 591.225 337.024 591.898 335.636C592.572 334.248 593.321 333.113 593.565 333.113C593.808 333.113 594.501 332.222 595.104 331.133C596.049 329.426 599.026 324.976 600.503 323.062C600.761 322.727 602.643 320.123 604.686 317.276C606.728 314.428 609.467 310.728 610.773 309.053C629.022 285.644 637.379 276.45 648.569 267.463C658.233 259.702 661.293 257.158 666.717 252.375C674.411 245.589 685.663 236.685 690.524 233.534C694.937 230.674 695.026 230.647 699.213 230.876C706.286 231.263 709.18 234.543 709.001 241.974C708.913 245.654 708.685 246.534 707.474 247.863C705.873 249.619 705.722 250.43 706.774 251.6C708.534 253.556 709.664 257.452 709.872 262.283C710.084 267.202 710.044 267.379 707.523 272.488C704.621 278.371 700.103 285.561 696.274 290.391C694.032 293.22 693.813 293.733 694.641 294.221C695.167 294.53 696.416 296.034 697.416 297.562C699.128 300.178 699.232 300.657 699.199 305.729C699.169 310.197 698.91 311.68 697.68 314.415C696.028 318.086 691.716 324.313 688.447 327.748L686.306 329.998L687.634 331.595C689.378 333.691 689.706 335.005 689.765 340.118C689.809 343.952 689.596 344.795 687.65 348.485C684.453 354.552 679.334 360.989 669.884 370.83C665.245 375.662 661.449 379.819 661.449 380.069C661.449 380.32 662.486 381.659 663.752 383.046C665.1 384.521 666.328 386.626 666.713 388.121C667.651 391.768 667.055 396.872 665.312 400.116C664.501 401.624 663.324 403.826 662.695 405.011C660.934 408.328 645.512 424.355 640.146 428.445C628.839 437.064 626.956 438.442 626.459 438.466C626.171 438.48 624.998 439.243 623.853 440.163C620.303 443.014 616.32 445.8 615.793 445.8C615.516 445.8 614.839 446.324 614.288 446.963C613.738 447.604 612.685 448.286 611.948 448.48C610.87 448.765 610.529 449.394 610.198 451.714C609.573 456.102 607.495 459.636 602.394 464.987L597.749 469.86L601.361 470.217C603.348 470.413 605.796 470.91 606.801 471.322C608.425 471.988 608.955 471.897 611.56 470.509C613.173 469.649 614.787 468.946 615.146 468.946C615.505 468.946 616.492 468.448 617.338 467.837C618.183 467.227 620.178 466.232 621.771 465.626C628.775 462.962 630.17 462.146 630.17 460.712C630.17 458.883 632.264 451.768 633.955 447.851C634.697 446.132 635.483 443.727 635.701 442.508C636.153 439.972 638.223 437.933 643.566 434.758C645.468 433.628 647.895 432.004 648.959 431.149C650.024 430.294 652.683 428.81 654.869 427.853C657.054 426.895 659.233 425.803 659.711 425.425C660.189 425.047 661.492 424.304 662.607 423.775C666.919 421.73 670.441 418.061 674.002 411.905C682.327 397.513 684.384 392.68 684.596 387.016C684.822 380.98 684.73 380.505 682.339 375.447C681.072 372.767 679.867 369.827 679.662 368.914C679.144 366.622 681.063 362.676 684.34 359.293C686.766 356.789 687.276 356.539 690.524 356.259C694.042 355.957 694.07 355.94 694.851 353.559C695.283 352.241 696.056 350.676 696.567 350.081C697.591 348.891 710.967 341.64 712.137 341.64C712.539 341.64 713.238 341.023 713.691 340.27C714.615 338.733 718.214 325.239 718.214 323.311C718.214 322.628 718.471 321.565 718.783 320.949C719.097 320.333 720.269 316.171 721.388 311.7C723.565 303 726.834 290.419 728.723 283.47C729.36 281.124 730.217 277.698 730.627 275.856C731.037 274.013 731.717 271.272 732.138 269.764C733.032 266.565 732.927 266.984 733.509 264.282C733.761 263.11 734.314 260.917 734.737 259.409C735.16 257.902 736.195 254.064 737.038 250.882C737.881 247.699 739.209 242.902 739.99 240.222C740.771 237.542 741.942 233.293 742.592 230.781C743.242 228.268 744.414 223.745 745.196 220.73C745.977 217.715 747.108 213.055 747.708 210.375C748.308 207.695 749.063 204.543 749.384 203.37C750.337 199.893 752.482 191.565 752.678 190.579C753.208 187.916 753.751 185.944 754.104 185.401C754.323 185.066 754.827 182.874 755.224 180.528C755.622 178.183 756.187 175.716 756.479 175.046C756.77 174.376 757.938 170.128 759.073 165.605C760.209 161.082 761.368 156.56 761.65 155.555C762.59 152.201 764.587 144.651 766.001 139.108C766.769 136.093 768.339 130.063 769.489 125.708C772.058 115.973 772.047 116.063 770.666 115.765C770.047 115.632 768.613 114.919 767.481 114.182C766.348 113.444 764.51 112.484 763.395 112.046C762.28 111.608 760.546 110.871 759.542 110.408C758.538 109.945 757.316 109.566 756.825 109.566C756.334 109.566 755.772 109.292 755.575 108.957C755.378 108.622 753.497 108.348 751.396 108.348C748.193 108.348 747.262 108.599 745.637 109.902C744.572 110.756 743.701 111.861 743.701 112.355C743.701 112.85 744.482 114.884 745.438 116.875C747.32 120.796 747.561 122.318 746.481 123.454C744.454 125.586 737.068 122.473 729.137 116.144C726.702 114.201 724.555 112.612 724.366 112.612C724.177 112.612 721.869 110.962 719.236 108.944C714.052 104.972 706.157 99.3669 698.81 94.4404C696.261 92.7318 693.108 90.5024 691.802 89.4858C690.496 88.4692 689.231 87.6377 688.989 87.6377C688.748 87.6377 687.563 86.8154 686.356 85.8104C685.149 84.8053 683.986 83.983 683.772 83.983C683.558 83.983 682.553 83.3653 681.538 82.6106C676.605 78.9395 665.736 73.0335 657.105 69.3324C656.467 69.059 655.034 68.551 653.919 68.2031C652.804 67.856 650.197 67.0409 648.126 66.3928C641.737 64.3931 639.073 63.8827 634.982 63.8735C630.67 63.8644 628.432 63.427 628.432 62.5925C628.432 62.2971 628.99 62.0547 629.671 62.0547C630.353 62.0547 632.182 61.2324 633.735 60.2273C635.288 59.2223 636.7 58.4 636.872 58.4C637.044 58.4 638.278 57.8767 639.614 57.2372C644.647 54.8281 654.579 52.9179 662.07 52.9179C664.277 52.9179 666.075 52.712 666.065 52.4611C666.02 51.2446 645.806 41.0663 640.826 39.7518C640.056 39.5483 639.284 39.1384 639.109 38.8405C638.933 38.5427 638.163 38.299 637.397 38.299C636.603 38.299 635.74 37.7825 635.392 37.0991C634.862 36.0575 635.073 35.7432 636.984 34.718C639.314 33.4675 642.05 32.9711 649.574 32.432C657.089 31.8941 667.54 33.9122 676.928 37.7143C686.062 41.4141 688.536 42.6116 692.289 45.1516C694.144 46.4076 695.785 47.4358 695.933 47.4358C696.082 47.4358 698.614 49.1834 701.561 51.3196C704.508 53.4558 708.086 55.8228 709.513 56.5805C710.939 57.3377 714.126 59.4117 716.595 61.1897C720.376 63.9125 729.01 68.755 730.084 68.755C730.259 68.755 731.407 69.4543 732.635 70.3089C734.627 71.694 744.587 74.8462 746.975 74.8462C748.178 74.8462 747.714 72.2002 745.742 67.8182C743.675 63.2224 743.06 58.2599 744.087 54.462C745.651 48.6821 746.019 48.0449 747.791 48.0449C748.689 48.0449 749.586 47.7696 749.784 47.434C750.228 46.6781 760.742 47.2038 762.258 48.0577C762.841 48.3854 764.004 48.6541 764.842 48.6541C766.244 48.6541 770.851 50.3395 773.467 51.8099C774.068 52.148 775.893 52.8271 777.522 53.3187C779.15 53.8109 781.525 54.7081 782.799 55.3136C787.162 57.3852 787.556 57.4016 787.867 55.5249C788.022 54.5936 789.058 50.1312 790.169 45.6085C791.28 41.0858 792.596 35.6037 793.094 33.4261C793.591 31.2485 794.538 27.9075 795.198 26.0009C796.372 22.6081 798.3 15.4467 800.662 5.71114C801.312 3.03102 802.121 0.63657 802.458 0.390486C803.287 -0.213151 807.276 -0.0962006 809.56 0.598196ZM672.18 488.397C668.649 492.053 659.502 497.575 656.977 497.575C654.767 497.575 647.735 501.829 643.158 505.934C638.332 510.263 635.493 513.148 630.054 519.251C627.003 522.674 620.994 526.813 619.075 526.813C618.637 526.813 617.318 527.354 616.144 528.016C614.387 529.006 599.959 534.06 595.705 535.175C587.82 537.243 575.937 543.215 574.268 545.95C573.842 546.648 573.219 548.811 572.883 550.756C572.548 552.702 572.138 554.524 571.972 554.805C571.807 555.087 571.391 557.469 571.048 560.1C570.415 564.956 568.025 574.783 567.022 576.65C565.716 579.082 564.001 585.307 563.552 589.248C563.284 591.593 562.682 595.293 562.214 597.471C561.745 599.648 561.229 602.408 561.065 603.605L560.768 605.779L564.758 607.412C566.953 608.309 569.177 609.044 569.7 609.044C570.224 609.044 572.509 607.867 574.779 606.429C581.202 602.359 584.821 601.565 603.071 600.217C615.953 599.266 618.83 598.392 622.795 594.222C623.939 593.018 625.611 591.869 626.509 591.669C629.509 591.001 631.929 589.572 632.415 588.185C632.679 587.429 632.781 584.174 632.642 580.95C632.425 575.935 632.556 574.746 633.552 572.726C634.744 570.309 637.068 567.619 640.513 564.67C642.263 563.174 642.5 562.59 642.865 558.877C643.229 555.17 643.493 554.519 645.442 552.506C646.636 551.273 648.327 549.342 649.2 548.214C650.207 546.914 651.414 546.086 652.498 545.95C655.071 545.628 658.131 545.557 659.342 545.791C660.736 546.062 661.124 545.242 662.565 538.995C663.221 536.148 664.508 530.94 665.425 527.422C671.891 502.607 673.692 495.796 674.284 493.92C674.654 492.748 675.021 491.24 675.099 490.57C675.177 489.9 675.527 488.58 675.875 487.637C677.326 483.712 676.552 483.871 672.18 488.397ZM352.281 572.271C349.334 573.194 346.923 574.157 346.923 574.412C346.923 574.666 349.852 577.286 353.432 580.234C360.922 586.401 362.276 587.769 369.024 596.001C374.042 602.122 383.382 611.524 386.295 613.387C387.172 613.948 389.099 615.377 390.577 616.563C393.992 619.305 408.756 626.877 412.956 628.042C414.071 628.351 415.896 628.857 417.011 629.165C420.898 630.239 428.985 629.588 430.415 628.084C430.941 627.531 429.314 622.926 425.729 614.831C424.691 612.485 423.444 609.607 422.959 608.435C422.473 607.262 421.487 605.069 420.766 603.562C418.475 598.771 412.199 582.586 412.245 581.587C412.348 579.343 390.188 574.08 387.631 575.742C386.613 576.403 381.153 577.462 377.42 577.721C372.956 578.031 369.317 577.119 366.202 574.908C364.805 573.917 363.477 573.106 363.25 573.106C363.023 573.106 362.341 572.411 361.735 571.562C360.457 569.773 360.194 569.793 352.281 572.271ZM273.36 590.655C269.306 591.351 265.83 592.959 265.83 594.137C265.83 594.639 265.537 595.543 265.18 596.145C264.698 596.956 264.705 598.017 265.206 600.248C265.578 601.903 266.234 605.176 266.663 607.521C267.53 612.258 269.168 616.928 271.574 621.527C273.535 625.275 276.919 630.363 277.451 630.363C277.666 630.363 278.174 629.061 278.58 627.47C279.793 622.701 282.59 618.141 287.283 613.275C292.108 608.275 296.816 604.719 300.005 603.67C301.12 603.304 303.876 602.351 306.131 601.554C309.906 600.219 310.58 600.157 314.661 600.767C317.098 601.131 319.573 601.841 320.16 602.344C320.746 602.846 322.772 604.069 324.662 605.061C328.163 606.899 334.657 611.991 336.831 614.603C338.998 617.205 343.005 623.837 344.365 627.071C345.502 629.773 346.53 636.852 346.523 641.936C346.521 643.661 345.824 648.333 345.296 650.165C344.53 652.82 341.834 658.252 340.676 659.472C340.13 660.049 338.417 662.163 336.87 664.172C334.308 667.499 326.728 674.848 323.19 677.436C321.868 678.403 321.849 678.484 322.937 678.484C326.038 678.484 337.218 676.592 339.467 675.686C340.86 675.126 343.079 673.47 344.399 672.007L346.797 669.347L351.06 669.319C356.391 669.284 385.713 668.756 386.89 668.674C387.368 668.64 390.105 668.218 392.972 667.736C395.839 667.253 399.098 666.753 400.213 666.625C402.891 666.316 407.524 665.374 413.39 663.943C418.636 662.665 418.956 662.389 426.698 652.457C430.754 647.253 430.719 646.574 426.423 647.088C424.591 647.307 420.095 647.158 416.431 646.756C412.768 646.354 408.988 645.941 408.032 645.839C401.15 645.101 388.791 641.988 387.209 640.594C386.906 640.327 386.203 640.109 385.647 640.109C384.466 640.109 378.465 636.512 375.984 634.316C375.041 633.482 374.109 632.8 373.914 632.8C373.718 632.8 371.409 631.33 368.784 629.534C366.158 627.738 362.866 625.656 361.466 624.909C358.605 623.38 350.725 617.788 347.212 614.794C345.14 613.027 341.095 610.061 332.152 603.751C324.315 598.222 310.635 592.882 297.977 590.412C293.573 589.553 278.935 589.697 273.36 590.655ZM636.301 630.972C631.432 637.534 623.891 644.208 617.791 647.357C614.906 648.846 608.897 650.984 602.274 652.879L591.466 655.972L579.395 656.092C569.714 656.188 566.29 655.994 562.11 655.111L556.896 654.01L555.604 655.739C547.527 666.543 538.03 681.279 537.14 684.386C535.171 691.267 536.396 697.855 541.169 706.046C545.761 713.926 556.43 724.981 563.045 728.712C568.66 731.88 574.584 732.98 578.881 731.654C587.295 729.057 593.749 723.011 613.668 699.069L624.667 685.849L626.26 679.882C627.137 676.6 628.27 672.271 628.779 670.26C629.289 668.25 632.156 657.596 635.151 646.585C638.146 635.573 640.596 626.276 640.596 625.925C640.596 625.134 640.882 624.798 636.301 630.972ZM695.589 683.196C690.907 685.567 684.228 691.438 680.677 696.303C679.181 698.353 676.914 701.3 675.64 702.852C674.366 704.403 672.672 706.828 671.875 708.24C668.792 713.707 661.867 722.736 651.543 734.752C646.953 740.094 643.514 743.358 637.931 747.673C627.877 755.442 627.678 756.216 636.831 751.96C646.318 747.55 659.352 747.573 668.979 752.019C673.978 754.328 680.001 757.43 683.508 759.503C685.606 760.743 691.051 763.341 695.608 765.276C703.815 768.763 703.936 768.793 708.467 768.466C711.412 768.254 713.602 767.752 714.614 767.059C717.411 765.144 726.636 754.993 727.646 752.72C728.703 750.338 731.749 736.751 732.34 731.782C735 709.396 733.565 701.929 724.269 689.775C720.967 685.459 719.377 683.902 717.226 682.884C713.521 681.127 712.576 680.989 705.436 681.16C699.938 681.292 698.942 681.497 695.589 683.196Z" fill="white" fill-opacity="0.05"/>
<path fill-rule="evenodd" clip-rule="evenodd" d="M1270.44 0.598196C1268.69 1.13178 1267.27 2.36099 1268.41 2.36099C1268.7 2.36099 1269.39 4.62265 1269.95 7.38622C1270.51 10.1504 1271.46 14.0329 1272.06 16.0144C1272.67 17.9959 1273.16 20.1887 1273.17 20.8874C1273.17 21.586 1273.56 22.9425 1274.03 23.9019C1274.51 24.8619 1274.9 26.0953 1274.9 26.6429C1274.9 28.1012 1276.5 35.5617 1277.8 40.1264C1279.99 47.8117 1281.22 52.7126 1283.33 62.0547C1284.5 67.2474 1285.8 72.0729 1286.22 72.7776C1286.64 73.4824 1287.16 75.127 1287.39 76.4323C1287.61 77.7377 1288.05 79.3123 1288.35 79.9323C1288.65 80.5518 1289.54 83.704 1290.33 86.9372C1292.11 94.3106 1292.25 94.8326 1294.88 104.084C1297.04 111.633 1297.67 113.979 1298.66 118.094C1298.94 119.266 1299.99 123.378 1300.98 127.23C1303.94 138.718 1304.44 140.75 1305.33 144.887C1305.79 147.06 1306.68 150.487 1307.3 152.501C1307.92 154.515 1308.73 157.792 1309.1 159.782C1309.48 161.772 1310 163.828 1310.27 164.35C1310.54 164.873 1311.18 167.356 1311.7 169.869C1312.21 172.381 1313.5 177.589 1314.56 181.442C1315.62 185.295 1316.67 189.406 1316.89 190.579C1317.11 191.751 1317.65 193.944 1318.08 195.452C1318.51 196.959 1319.3 199.975 1319.83 202.152C1320.36 204.33 1321.15 207.345 1321.59 208.852C1322.02 210.36 1323.05 214.845 1323.86 218.819C1324.67 222.793 1325.72 227.006 1326.18 228.182C1326.65 229.358 1327.03 230.75 1327.03 231.276C1327.03 231.802 1327.67 234.44 1328.45 237.141C1329.23 239.84 1330.55 244.653 1331.39 247.836C1332.23 251.019 1333.39 255.404 1333.98 257.582C1335.57 263.433 1337.4 270.687 1338.59 275.856C1339.18 278.368 1340.35 283.028 1341.2 286.211C1342.06 289.393 1343.65 295.698 1344.75 300.22C1345.85 304.743 1347.65 312.007 1348.77 316.362C1353.85 336.302 1354.92 340.952 1355.14 344.128C1355.37 347.352 1355.27 347.637 1353.37 349.577C1351.06 351.93 1350.92 352.959 1352.49 355.903L1353.62 358.02L1352.2 361.696C1350.72 365.528 1350.37 368.984 1351.36 370.023C1351.74 370.426 1351.55 371.431 1350.78 373.015C1349.2 376.278 1349.32 378.259 1351.36 382.053C1352.68 384.505 1353.1 386.063 1353.1 388.473C1353.1 390.318 1353.57 392.738 1354.21 394.232C1354.83 395.649 1355.52 397.602 1355.75 398.572C1356.24 400.607 1360.03 404.801 1363.42 407.05C1364.7 407.902 1366.21 409.412 1366.76 410.405C1367.32 411.399 1368.24 412.339 1368.81 412.496C1371.21 413.156 1374.54 424.317 1375.39 434.531C1375.44 435.201 1375.65 436.161 1375.84 436.663C1376.04 437.166 1376.65 439.358 1377.19 441.536C1378.35 446.167 1380.46 451.087 1382.93 454.937C1385.41 458.784 1386.5 461.761 1387.6 467.728C1388.12 470.576 1388.78 473.205 1389.07 473.571C1389.35 473.937 1389.41 474.41 1389.21 474.622C1389.01 474.834 1389.12 475.361 1389.46 475.793C1389.8 476.224 1390.35 478.356 1390.67 480.528C1390.99 482.701 1391.9 487.083 1392.68 490.266C1395.34 501.017 1398.32 512.241 1398.95 513.897C1399.3 514.803 1400.31 518.559 1401.19 522.244C1402.08 525.93 1403.24 530.589 1403.77 532.599C1404.31 534.61 1405.27 538.447 1405.92 541.127C1406.57 543.807 1407.34 546.316 1407.64 546.702C1408.26 547.519 1406.13 549.277 1401.55 551.717C1398.83 553.171 1398.57 553.495 1398.54 555.441C1398.53 556.614 1398.31 558.6 1398.05 559.853C1397.42 562.873 1397.92 564.718 1400.09 567.312C1401.6 569.128 1401.91 570.044 1402.08 573.262C1402.4 579.15 1402.42 580.235 1402.29 582.865C1402.21 584.518 1402.52 585.712 1403.23 586.542C1403.81 587.217 1405.22 590.088 1406.35 592.921C1408.94 599.383 1411.84 603.547 1416.74 607.826C1424.24 614.376 1424.44 614.676 1426.58 623.077C1427.65 627.252 1429.04 632.586 1429.67 634.932C1430.3 637.277 1431.03 640.018 1431.3 641.023C1432.27 644.755 1434.19 652.126 1435.34 656.555C1436 659.068 1436.96 662.905 1437.48 665.083C1438 667.261 1438.78 669.475 1439.2 670.004C1439.63 670.533 1439.98 671.324 1439.98 671.763C1439.98 672.2 1438.75 671.345 1437.23 669.862C1434.18 666.871 1428.23 662.037 1427.6 662.037C1427.38 662.037 1426.49 661.492 1425.62 660.826C1423.87 659.471 1414.37 655.946 1412.48 655.946C1411.8 655.946 1411 655.68 1410.69 655.355C1409.44 654.041 1390.3 652.62 1388.58 653.714C1388.34 653.866 1385.66 654.174 1382.64 654.398C1379.61 654.622 1376.89 655.062 1376.59 655.376C1376.28 655.69 1375.29 655.946 1374.38 655.946C1373.47 655.946 1371.77 656.462 1370.59 657.093C1369.41 657.724 1366.1 659.016 1363.23 659.965C1358.03 661.686 1352.68 663.892 1350.49 665.221C1346.79 667.462 1340.8 670.967 1338.04 672.503C1331.84 675.953 1329.95 677.364 1325.74 681.707C1320.82 686.772 1317.3 691.603 1314.13 697.662C1311.5 702.662 1308.21 711.255 1307.31 715.441C1306.52 719.15 1306.48 731.25 1307.26 733.402C1307.58 734.294 1308.39 737.412 1309.05 740.332C1311.85 752.744 1320.22 765.357 1330.82 773.147C1337.37 777.964 1356.18 788.125 1358.55 788.125C1359.28 788.125 1360.63 788.392 1361.55 788.719C1364.43 789.734 1376.93 791.36 1381.19 791.272C1390.43 791.081 1402.09 788.092 1412.47 783.252C1416.66 781.299 1420.47 780.657 1423.24 781.439C1427.74 782.716 1433.61 789.028 1433.61 792.603C1433.61 795.459 1428.68 799.053 1423.43 800.023C1416.98 801.215 1409.69 805.38 1407.17 809.316C1405.74 811.559 1405.73 814.186 1407.15 815.022C1407.83 815.421 1407.99 816.077 1407.74 817.381C1407.31 819.644 1408.4 821.121 1410.4 820.988C1411.22 820.933 1413.35 820.918 1415.14 820.953C1418.98 821.029 1420.67 822.336 1422.47 826.632C1423.11 828.147 1423.98 829.616 1424.41 829.896C1425.48 830.588 1428.91 830.218 1430.38 829.253C1431.04 828.818 1432.63 828.126 1433.9 827.714C1438.68 826.169 1444.74 822.564 1447.88 819.389C1450.47 816.776 1451.36 816.219 1452.47 816.512C1453.35 816.745 1454.54 816.427 1455.76 815.632C1459.23 813.38 1467.84 803.134 1470.05 798.632C1471.4 795.895 1471.73 796.519 1473.77 805.485C1474.22 807.495 1475.44 812.429 1476.48 816.449C1477.51 820.469 1478.71 825.266 1479.13 827.109C1481.02 835.243 1486.39 856.301 1489.62 868.224C1491.23 874.157 1493.93 884.692 1494.22 886.193C1494.38 887.031 1494.73 888.264 1494.98 888.934C1495.23 889.604 1496.03 892.619 1496.76 895.635C1497.49 898.65 1498.97 904.543 1500.06 908.731C1501.15 912.918 1502.54 918.538 1503.15 921.218C1503.77 923.898 1504.51 926.53 1504.8 927.067C1505.1 927.604 1505.53 929.386 1505.75 931.026C1505.98 932.667 1506.52 934.969 1506.96 936.141C1507.82 938.466 1512.57 957.189 1513.92 963.551C1514.38 965.729 1515.24 969.155 1515.83 971.165C1516.43 973.176 1518.29 980.302 1519.97 987.003C1521.65 993.703 1523.65 1001.65 1524.42 1004.67C1525.71 1009.75 1526.1 1011.36 1527.4 1017.15C1527.66 1018.33 1529.08 1023.62 1530.56 1028.91C1532.03 1034.2 1533.24 1038.94 1533.24 1039.44C1533.24 1039.94 1533.74 1042.05 1534.35 1044.13C1534.97 1046.21 1536.16 1050.66 1536.99 1054.01C1539.48 1063.94 1541.43 1071.49 1542.27 1074.41C1542.7 1075.92 1543.48 1078.8 1544.01 1080.81C1544.54 1082.82 1545.33 1085.64 1545.77 1087.07C1546.21 1088.51 1546.56 1090.2 1546.56 1090.84C1546.56 1092.25 1547.46 1092.93 1548.45 1092.26C1548.84 1091.99 1551.64 1091.21 1554.67 1090.53C1558.69 1089.62 1560.22 1089.02 1560.35 1088.29C1560.45 1087.74 1558.79 1080.76 1556.66 1072.78C1547.74 1039.33 1539.47 1008.02 1537.07 998.576C1535.97 994.221 1533.34 984.079 1531.22 976.038C1529.11 967.998 1526.35 957.445 1525.1 952.587C1523.84 947.73 1521.23 937.725 1519.31 930.354C1517.39 922.984 1514.89 913.253 1513.76 908.731C1510.85 897.12 1510.42 895.423 1508.02 886.193C1506.85 881.671 1505.42 876.189 1504.86 874.011C1504.3 871.833 1503.45 868.818 1502.97 867.311C1502.5 865.803 1501.71 863.062 1501.21 861.219C1500.71 859.377 1499.78 855.951 1499.13 853.605C1498 849.519 1497.37 847.004 1493.01 829.241C1491.94 824.885 1490.75 820.5 1490.38 819.495C1490.01 818.49 1488.68 813.556 1487.43 808.531C1483.78 793.91 1480.98 783.083 1476.21 765.283C1475.49 762.603 1474.7 759.902 1474.45 759.28C1474.05 758.293 1474.27 758.337 1476.24 759.624C1479.48 761.739 1484.1 763.003 1490.11 763.42C1495.82 763.818 1502.05 762.77 1512.1 759.727C1524.58 755.947 1537.52 745.079 1543.2 733.619C1544.59 730.803 1545.72 729.136 1545.87 729.659C1546.44 731.608 1547.93 732.695 1550.03 732.695C1552.69 732.695 1553.01 733.025 1552.29 735.018C1551.86 736.19 1551.95 737.264 1552.62 739.114C1553.45 741.404 1553.45 741.855 1552.59 744.315C1552.08 745.797 1551.44 747.832 1551.18 748.837C1550.16 752.821 1548.27 758.953 1545.74 766.501C1541.77 778.352 1541.25 782.448 1541.15 802.744C1541.05 822.833 1541.14 823.348 1545.16 824.962C1546.57 825.528 1547.75 826.174 1547.8 826.398C1547.84 826.621 1547.93 827.352 1548 828.022C1548.08 828.692 1548.43 830.693 1548.8 832.468C1549.16 834.244 1549.46 836.637 1549.46 837.786C1549.46 841.4 1551.09 844.693 1553.54 846.004C1557.1 847.917 1558.11 849.925 1562.69 864.265C1564.24 869.123 1566.6 876.249 1567.93 880.102C1569.26 883.955 1571.47 890.533 1572.84 894.721C1574.21 898.909 1575.77 903.217 1576.3 904.296C1577.04 905.783 1577.25 907.695 1577.19 912.214C1577.12 917.377 1577.31 918.742 1578.68 922.436C1579.55 924.781 1580.55 927.072 1580.91 927.527C1582.47 929.505 1580.13 955.13 1577.8 961.518C1577.46 962.468 1577.15 966.947 1577.11 971.47C1577.07 978.086 1577.36 981.36 1578.62 988.221C1579.49 992.911 1580.6 999.078 1581.09 1001.93C1581.59 1004.77 1582.24 1007.59 1582.54 1008.19C1582.97 1009.04 1582.67 1009.69 1581.14 1011.23C1578.4 1014 1577.26 1016.17 1577.26 1018.62C1577.26 1020.05 1577.64 1021.02 1578.42 1021.6C1579.38 1022.3 1579.55 1022.99 1579.38 1025.44C1579.15 1028.84 1580.03 1031.13 1582.18 1032.78C1582.99 1033.4 1583.79 1034.69 1583.96 1035.64C1584.62 1039.5 1587.86 1042.13 1591.95 1042.13C1593.85 1042.13 1594.06 1042.31 1594.56 1044.41C1594.86 1045.67 1595.09 1047.11 1595.07 1047.61C1595.06 1048.11 1595.37 1050.95 1595.78 1053.91C1596.39 1058.39 1596.8 1059.65 1598.21 1061.34C1599.15 1062.46 1600.79 1063.68 1601.86 1064.05C1603.93 1064.77 1605.58 1066.82 1605.59 1068.71C1605.64 1074.09 1607.62 1082.42 1609.1 1083.47C1609.95 1084.07 1610.28 1084.97 1610.28 1086.69C1610.28 1089.92 1611.48 1092.71 1613.74 1094.71C1615.26 1096.05 1615.48 1096.53 1614.92 1097.24C1614.54 1097.73 1614.09 1099.77 1613.91 1101.78C1613.57 1105.71 1614.13 1107.81 1616.55 1111.72C1618.24 1114.45 1618.02 1117.27 1615.77 1121.95C1614.98 1123.59 1614.33 1125.28 1614.33 1125.71C1614.32 1127.29 1611.51 1132.77 1608.76 1136.57C1606.28 1140 1605.93 1140.84 1605.93 1143.42C1605.93 1145.83 1606.19 1146.57 1607.38 1147.53C1608.18 1148.17 1609.22 1148.71 1609.7 1148.73C1610.18 1148.75 1611.09 1149.65 1611.74 1150.73C1612.44 1151.91 1613.47 1152.76 1614.34 1152.88C1615.2 1153 1616.25 1153.85 1616.95 1155.01C1617.65 1156.17 1618.69 1157.02 1619.56 1157.14C1620.35 1157.24 1622.1 1157.86 1623.45 1158.51C1624.8 1159.16 1626.31 1159.69 1626.8 1159.69C1628.33 1159.69 1631.68 1157.98 1633.88 1156.07C1636.13 1154.12 1637.5 1154.38 1637.5 1156.75C1637.5 1157.59 1638.43 1158.37 1640.69 1159.46L1643.88 1161L1645.84 1159.73C1646.92 1159.03 1647.95 1157.98 1648.14 1157.4C1648.32 1156.81 1648.71 1155.93 1648.99 1155.42C1652.26 1149.68 1652 1140.75 1648.38 1134.1C1646.79 1131.18 1646.88 1127.31 1648.66 1122.53C1652.09 1113.29 1652.59 1110.59 1652.31 1102.53L1652.05 1095.02L1649.51 1092.16C1646.73 1089.03 1646.33 1087.47 1645.02 1074.41C1643.41 1058.34 1643.48 1056.77 1645.74 1058.04C1646.46 1058.44 1649.28 1058.79 1652.01 1058.81C1656.19 1058.83 1657.32 1058.62 1659.24 1057.42L1661.52 1056.01L1667.76 1059.43C1671.71 1061.59 1674.71 1062.84 1675.93 1062.84C1678.13 1062.84 1682.04 1060.18 1683.65 1057.59C1685.18 1055.13 1687.97 1054.12 1690.96 1054.96C1693.37 1055.64 1699.52 1058.49 1704.8 1061.38C1707.26 1062.73 1716.55 1065.45 1727 1067.89C1731 1068.82 1740.55 1069.81 1743.65 1069.62C1745.41 1069.51 1750.65 1067.17 1752.48 1065.69C1753.42 1064.92 1753.64 1064.03 1753.64 1060.9V1057.05L1755.66 1056.75C1757.2 1056.51 1757.87 1056.01 1758.49 1054.61C1759.99 1051.22 1760.93 1050.51 1763.38 1050.92C1764.99 1051.19 1774.58 1055.7 1776.37 1057.03C1776.44 1057.09 1776.26 1058.02 1775.96 1059.11C1775.67 1060.19 1775.58 1063.43 1775.77 1066.3L1776.12 1071.53L1781.25 1077.05C1784.06 1080.08 1786.37 1082.76 1786.37 1083C1786.37 1083.24 1787.26 1085.09 1788.35 1087.13C1790.88 1091.82 1793.01 1098.41 1793.9 1104.26C1794.28 1106.77 1794.86 1109.58 1795.19 1110.5C1795.85 1112.39 1799.3 1115.83 1800.53 1115.83C1801.6 1115.83 1804.07 1119 1805.81 1122.62C1807.05 1125.18 1807.78 1125.86 1811.39 1127.77C1817.73 1131.13 1821.03 1130.56 1822.18 1125.93C1822.63 1124.13 1822.75 1124.06 1825.38 1124.26C1827.95 1124.46 1828.27 1124.31 1830.7 1121.75C1832.36 1120.01 1833.29 1118.5 1833.29 1117.54C1833.29 1116.71 1833.96 1115.38 1834.79 1114.57C1840.3 1109.15 1839.31 1098.83 1833 1096C1829.94 1094.63 1826.89 1091.35 1826.24 1088.73C1825.22 1084.61 1825 1081.72 1825.69 1081.72C1826.05 1081.72 1826.33 1081.99 1826.33 1082.33C1826.33 1082.66 1827.23 1082.94 1828.33 1082.94C1829.43 1082.94 1830.98 1083.25 1831.78 1083.63C1832.91 1084.17 1834.07 1084.1 1837.16 1083.28C1841.75 1082.07 1842.49 1081.47 1845.23 1076.73C1846.66 1074.25 1847.73 1073.08 1848.82 1072.81C1849.67 1072.6 1851.42 1071.4 1852.69 1070.14C1855.8 1067.07 1856.34 1066.83 1863.64 1065.31C1870.1 1063.96 1872.23 1062.97 1878.43 1058.43C1882.93 1055.13 1886.32 1054.17 1889.69 1055.23C1891.13 1055.69 1892.87 1056.38 1893.57 1056.77C1894.26 1057.16 1896.87 1057.86 1899.36 1058.31C1903.52 1059.08 1904.14 1059.05 1907.07 1057.99C1912.19 1056.14 1914.01 1054.53 1922.61 1044.33C1924.56 1042 1924.69 1041.95 1928.99 1041.8C1938.76 1041.46 1951.03 1033.89 1954.59 1026C1955.95 1022.99 1957.42 1022.22 1962.71 1021.72C1968.42 1021.19 1972.03 1019.52 1978.31 1014.51C1985.35 1008.9 1989.04 1006.43 1992.58 1004.96C2003.98 1000.19 2010.39 996.327 2013.13 992.549C2014.01 991.341 2015.07 990.353 2015.5 990.353C2015.92 990.353 2016.78 989.187 2017.4 987.764C2018.02 986.34 2019.98 982.845 2021.76 979.998C2024.14 976.197 2025 974.249 2025.01 972.672C2025.02 969.723 2024.2 968.555 2017.98 962.632L2015.86 960.62L2015.79 954.075C2015.66 942.14 2014.69 939.901 2005.05 929.195C2001.53 925.278 2001.09 924.286 2001.52 921.233C2001.74 919.733 2002.16 918.346 2002.46 918.15C2002.76 917.955 2003 917.247 2003 916.577C2003 915.907 2002.74 915.528 2002.42 915.736C2002.1 915.943 2001.84 915.838 2001.84 915.503C2001.84 914.539 2002.88 914.125 2003.17 914.971C2003.38 915.566 2003.6 915.574 2004.17 915.006C2004.77 914.417 2004.77 913.581 2004.18 910.67C2003.33 906.462 2003.65 905.04 2006.19 901.726C2010.05 896.69 2010.13 895.82 2007.41 887.226C2005.86 882.333 2005.5 880.366 2005.73 877.954L2006.02 874.894L2002.63 873.268C2000.76 872.375 1997.8 871.055 1996.05 870.337C1994.3 869.618 1991.69 868.536 1990.26 867.932C1988.83 867.328 1983.87 865.318 1979.25 863.463C1974.63 861.609 1969.03 859.232 1966.8 858.18C1964.57 857.129 1961.83 855.856 1960.72 855.352C1959.6 854.849 1958.17 854.191 1957.53 853.89C1956.89 853.589 1954.2 852.603 1951.54 851.7C1948.88 850.796 1946.34 849.671 1945.89 849.199C1945.45 848.727 1945.04 847.196 1945 845.796C1944.72 836.048 1942.98 831.64 1936.92 825.314C1932.36 820.551 1932.22 820.156 1932.68 813.177L1933.08 807.047L1931.25 805.251C1930.04 804.065 1927.7 802.904 1924.36 801.832C1921.58 800.939 1915.65 799.03 1911.19 797.588C1903.17 794.997 1896.5 793.089 1889.76 791.456C1887.85 790.993 1884.59 790.071 1882.52 789.407C1880.45 788.743 1875.89 787.487 1872.38 786.618C1868.88 785.748 1865.49 784.8 1864.85 784.51C1864.22 784.22 1862.23 783.529 1860.43 782.973C1855.67 781.502 1855.22 781.015 1855.88 778.075C1856.44 775.575 1856 773.243 1854.37 769.945C1853.93 769.056 1853.56 768.047 1853.56 767.703C1853.56 767.358 1851.99 765.058 1850.08 762.592L1846.61 758.108V753.605C1846.61 751.128 1846.25 748.208 1845.82 747.114C1845.01 745.09 1842.13 742.155 1839.98 741.164C1839.32 740.863 1838.4 740.352 1837.92 740.028C1837.44 739.705 1835.49 738.715 1833.57 737.828C1830.49 736.396 1828.27 735.647 1821.99 733.912C1818.57 732.968 1807.62 728.944 1805.51 727.858C1805.04 727.613 1804.02 724.676 1803.16 721.076C1802.33 717.584 1801.23 713.904 1800.71 712.899C1799.42 710.356 1795.78 706.83 1793.06 705.494C1790.34 704.154 1790.04 703.21 1790.1 696.148C1790.14 691.353 1790.23 690.98 1791.29 691.096C1791.93 691.165 1794.01 691.362 1795.92 691.533C1797.84 691.704 1801.62 692.14 1804.32 692.501C1807.03 692.862 1811.2 693.397 1813.59 693.691C1819.37 694.402 1836.73 694.118 1838.21 693.289C1838.85 692.932 1841.19 692.473 1843.42 692.271C1851.75 691.515 1858.74 689.676 1875.28 683.896C1878.15 682.894 1881.67 681.702 1883.1 681.246C1884.53 680.791 1888.43 679.31 1891.77 677.957C1895.1 676.603 1897.92 675.588 1898.02 675.702C1898.13 675.815 1897.6 676.419 1896.85 677.044C1896.1 677.668 1894.58 679.603 1893.49 681.344C1886.89 691.84 1886.75 692.443 1890.04 696.437C1891.36 698.047 1892.86 700.08 1893.37 700.955C1894.76 703.362 1899.84 708.273 1902.31 709.597C1905.29 711.2 1910.59 712.734 1914.09 713.009C1916.79 713.222 1920.52 712.421 1945.95 706.165C1952.1 704.65 1953.01 704.862 1960.19 709.473C1966.48 713.518 1973.74 719.585 1984.63 729.902C1987.49 732.61 1990.12 734.844 1990.48 734.864C1991.86 734.943 1992.35 733.847 1992.16 731.162C1991.99 728.74 1992.19 728.136 1993.67 726.575C1995.19 724.977 1997.22 724.314 1999.24 724.761C1999.56 724.831 2000.73 724.969 2001.84 725.065C2002.96 725.162 2005.57 726.069 2007.65 727.082C2014.07 730.215 2017.69 731.069 2022.65 730.614C2025.57 730.348 2027.55 729.822 2028.57 729.048C2030.09 727.891 2030.13 727.894 2034.07 729.457C2045.01 733.788 2046.98 734.154 2059.49 734.188L2071.09 734.218L2075.28 731.555C2079.59 728.818 2080.54 727.38 2079.75 724.764C2079.39 723.588 2079.06 723.483 2076.65 723.794C2069.03 724.778 2064.72 724.888 2061.34 724.183C2055.3 722.922 2049.11 720.206 2040.46 715.013C2037.96 713.515 2034.94 711.741 2033.74 711.071C2031.58 709.865 2027.19 706.004 2019.84 698.837C2016.11 695.206 2009.61 690.057 2008.75 690.057C2008.51 690.057 2006.53 688.981 2004.36 687.665C2002.18 686.35 1998.33 684.415 1995.8 683.364C1993.27 682.313 1990.54 680.959 1989.72 680.356C1988.02 679.101 1979.21 676.157 1974.91 675.407C1973.32 675.129 1970.06 674.454 1967.67 673.907C1965.28 673.36 1962.15 672.822 1960.72 672.712C1959.28 672.601 1955.63 672.32 1952.59 672.086C1946.87 671.646 1941.1 672.238 1933.92 674.003C1930.71 674.791 1929.68 674.829 1928.27 674.214C1927.32 673.801 1926.54 673.139 1926.54 672.744C1926.54 671.538 1935.32 666.365 1939.6 665.047C1944.42 663.563 1956.62 662.066 1964.03 662.05C1974.01 662.027 1984.47 663.616 1984.47 665.157C1984.47 666.193 1988.95 665.71 1990.34 664.524L1991.71 663.357L1990.49 661.631C1989.1 659.648 1979.58 651.873 1977.83 651.29C1977.19 651.076 1975.25 649.8 1973.52 648.455C1971.78 647.109 1967.27 644.338 1963.49 642.298C1954.95 637.691 1952.65 636.404 1950.85 635.208C1948.97 633.964 1942.27 631.04 1940.12 630.526C1937.76 629.959 1934.19 629.971 1931.57 630.552C1929.53 631.005 1929.41 630.955 1929.94 629.911C1930.97 627.875 1928.77 625.276 1924.37 623.353C1922.22 622.414 1920.21 621.414 1919.91 621.131C1919.61 620.849 1919 620.617 1918.57 620.617C1918.14 620.617 1916.43 619.966 1914.78 619.171C1911.06 617.381 1906.36 615.18 1904.82 614.508C1899.36 612.124 1886.13 609.51 1878.09 609.225C1871.71 608.999 1870.62 609.124 1866.5 610.548C1864 611.412 1861.44 612.355 1860.8 612.643C1860.16 612.93 1857.89 613.909 1855.75 614.818C1852.47 616.216 1851.64 616.88 1850.38 619.128C1849.57 620.59 1848.65 623.236 1848.34 625.008C1847.58 629.305 1845.79 634.279 1842.9 640.13C1840.98 644.025 1839.58 645.841 1835.6 649.605C1829.54 655.341 1822.07 660.599 1818.39 661.714C1808.9 664.59 1796.23 664.471 1790.13 661.448C1789.49 661.132 1787.28 660.148 1785.21 659.261C1776.65 655.596 1770.53 651.358 1768.12 647.418C1765.63 643.352 1765.22 640.871 1766.36 636.739C1767.97 630.944 1772.66 628.927 1778.46 631.541C1781.39 632.864 1781.99 633.746 1782.61 637.658C1783.18 641.299 1785.69 643.903 1789.85 645.171C1797.17 647.405 1800.17 648.039 1805.15 648.405C1812.27 648.927 1816.61 647.802 1826.62 642.828C1831.07 640.622 1838.54 634.642 1839.2 632.765C1839.43 632.114 1839.86 631.581 1840.15 631.581C1840.45 631.581 1840.86 630.827 1841.07 629.906C1841.28 628.985 1842.06 626.861 1842.8 625.186C1846.99 615.768 1847.74 611.558 1846.74 603.246C1846.11 597.956 1842.11 591.504 1836.98 587.471C1835.66 586.438 1832.57 583.856 1830.11 581.733C1825.79 578.002 1818.15 573.132 1816.6 573.114C1816.18 573.11 1814.17 572.263 1812.14 571.233C1810.11 570.204 1806.82 568.961 1804.83 568.473C1802.84 567.985 1800.86 567.275 1800.42 566.895C1799.99 566.516 1798.15 566.131 1796.33 566.039C1794.51 565.948 1790.93 565.316 1788.38 564.635C1784.88 563.705 1781.08 563.316 1773.12 563.078C1767.29 562.904 1762.28 562.605 1761.99 562.415C1761.05 561.801 1762.5 559.882 1764.19 559.521C1765.08 559.331 1766.9 558.061 1768.24 556.699C1770.5 554.405 1770.92 554.223 1773.92 554.223C1777.67 554.223 1779.9 553.186 1781.89 550.52C1783.08 548.923 1783.48 548.726 1784.4 549.288C1785.99 550.255 1814.66 554.567 1820.95 554.785C1822.61 554.843 1826.39 555.404 1829.35 556.03C1832.31 556.658 1838.25 557.909 1842.55 558.811C1847.71 559.894 1850.75 560.835 1851.49 561.58C1852.58 562.672 1852.58 562.747 1851.56 563.932C1850.98 564.606 1849.41 565.714 1848.08 566.396C1843.64 568.656 1841.78 571.91 1843.43 574.553C1844.25 575.88 1850.67 580.415 1851.73 580.415C1851.95 580.415 1853.17 581.007 1854.44 581.73C1855.71 582.453 1858.18 583.385 1859.93 583.8C1861.68 584.216 1865.72 585.247 1868.91 586.092C1872.09 586.937 1878.15 588.339 1882.36 589.207C1892.07 591.21 1893.18 591.641 1892.72 593.218C1892.53 593.882 1892.21 594.95 1892.02 595.591C1891.61 596.982 1893.31 598.138 1895.88 598.214C1896.81 598.242 1897.58 598.54 1897.58 598.876C1897.58 599.212 1898.06 599.035 1898.64 598.482C1900.05 597.142 1908.07 596.299 1919.74 596.266C1922.52 596.259 1924.8 596.009 1924.8 595.713C1924.8 594.932 1921.01 594.469 1911.62 594.103C1907.08 593.926 1902.72 593.522 1901.92 593.207C1900.63 592.69 1900.55 592.475 1901.15 591.092C1902.03 589.072 1901.11 586.88 1898.86 585.661C1897.43 584.878 1890.67 583.345 1885.13 582.544C1881.08 581.959 1879.52 581.66 1877.6 581.103C1876.48 580.779 1875.57 580.602 1875.57 580.71C1875.57 580.819 1873.81 580.242 1871.66 579.43C1869.51 578.617 1866.19 577.376 1864.27 576.671C1861.07 575.489 1858.19 573.498 1858.19 572.461C1858.19 572.224 1858.65 571.873 1859.21 571.681C1861.11 571.027 1865.43 568.124 1867.37 566.197C1869.23 564.349 1869.3 564.134 1869.01 560.707C1868.42 553.534 1863.97 551.073 1841.1 545.289C1837.92 544.482 1833.75 543.544 1831.84 543.204C1827.41 542.415 1819.36 539.851 1815.62 538.037C1814.03 537.265 1811.03 535.904 1808.96 535.013C1804.67 533.168 1801.43 530.812 1801.43 529.539C1801.43 528.294 1804.09 527.021 1808.4 526.203C1810.46 525.813 1812.6 525.063 1813.16 524.536C1815.62 522.207 1813.42 517.325 1808.46 514.153C1805.44 512.213 1799.14 509.623 1797.2 509.521C1796.5 509.483 1795.94 509.179 1795.95 508.844C1795.99 507.797 1797.53 504.884 1798.05 504.884C1798.31 504.884 1798.53 504.336 1798.53 503.666C1798.53 502.145 1799.08 502.144 1802.48 503.658C1803.97 504.323 1807.54 505.567 1810.41 506.42C1816.22 508.152 1826.91 513.254 1826.91 514.298C1826.91 514.669 1825.83 515.375 1824.51 515.868C1821.37 517.032 1820.7 518.182 1821.69 520.684C1823.61 525.565 1832.81 527.204 1856.45 526.879C1869.69 526.696 1870.11 526.728 1871.66 528.015C1873.55 529.582 1873.65 530.656 1872.12 532.705C1870.84 534.416 1871.18 535.448 1873.67 537.407C1874.98 538.438 1876.13 538.549 1884.6 538.46L1894.06 538.36L1895.05 539.947C1895.88 541.276 1895.93 541.855 1895.36 543.506C1894.45 546.173 1894.39 546.048 1896.99 547.141C1898.88 547.936 1900.82 548.048 1907.85 547.765C1912.55 547.576 1917.19 547.405 1918.14 547.385C1919.1 547.365 1921.11 547.86 1922.6 548.485C1926.05 549.926 1926.74 549.241 1924.25 546.847C1921.78 544.474 1919.8 543.691 1917.44 544.157C1916.26 544.39 1914.93 544.18 1913.84 543.588C1912.9 543.072 1910.69 542.65 1908.94 542.65C1907.19 542.65 1905.59 542.372 1905.39 542.031C1905.19 541.691 1904.81 541.558 1904.53 541.736C1903.36 542.501 1903.36 540.608 1904.54 539.289C1906.52 537.071 1905.76 533.981 1902.7 531.854C1900.57 530.368 1899.65 530.177 1892.84 529.786C1886.92 529.446 1885.09 529.131 1884.21 528.294C1883.6 527.711 1883.1 527.051 1883.1 526.828C1883.1 526.605 1884.04 525.268 1885.19 523.856C1887.09 521.52 1887.22 521.137 1886.61 519.595C1885.39 516.495 1882.48 515.947 1867.46 515.994C1863.8 516.005 1860.02 516.009 1859.06 516.003C1855.4 515.981 1850.27 515.283 1847.86 514.478L1845.34 513.639L1846.99 511.585C1848.61 509.559 1848.83 507.785 1847.66 506.277C1846.4 504.666 1840.8 501.219 1836.15 499.199C1833.34 497.977 1830.8 496.434 1830.19 495.577C1829.17 494.148 1829.16 493.995 1830.13 492.022C1830.69 490.889 1832.65 488.39 1834.49 486.47C1837.32 483.524 1837.8 482.719 1837.56 481.307C1837.19 479.17 1836.97 478.968 1835.97 479.839C1835.34 480.396 1835.08 480.338 1834.8 479.572C1834.27 478.114 1834.39 477.654 1835.02 478.692C1835.47 479.416 1835.59 479.288 1835.59 478.077C1835.6 476.895 1834.71 475.847 1831.69 473.462C1823.92 467.327 1812.87 461.072 1808.23 460.175C1805.43 459.632 1805.43 458.614 1808.23 458.513C1809.43 458.471 1810.93 458.359 1811.56 458.266C1812.78 458.088 1815.99 457.779 1826.65 456.817C1833.3 456.216 1835.57 455.54 1837.77 453.496C1839.59 451.811 1839.44 447.627 1837.57 447.627C1835.74 447.627 1836.95 446.588 1839.61 445.872C1841.17 445.45 1843.66 444.301 1845.13 443.32C1846.6 442.339 1848.04 441.536 1848.31 441.536C1848.59 441.536 1849 440.461 1849.21 439.147C1849.42 437.833 1849.92 436.624 1850.33 436.459C1850.74 436.294 1853.52 435.972 1856.52 435.745C1864.25 435.156 1870.5 433.427 1874.17 430.872C1878.12 428.109 1881.25 424.25 1881.49 421.821C1881.69 419.758 1880.31 416.192 1878.11 413.101C1876.52 410.875 1876.15 408.603 1877.58 409.848C1878.26 410.444 1879.57 410.281 1884.1 409.036C1887.21 408.179 1890.47 407.349 1891.34 407.19C1894.29 406.652 1903.06 402.389 1907.14 399.515C1910.46 397.173 1911.82 396.587 1914.67 396.272C1919.28 395.763 1925.69 393.965 1928.61 392.362C1929.91 391.65 1932.32 389.944 1933.97 388.571C1936.8 386.218 1937.23 386.062 1941.46 385.839C1943.93 385.708 1946.34 385.476 1946.82 385.322C1947.29 385.169 1948.53 384.836 1949.57 384.583C1950.61 384.331 1952.5 383.063 1953.77 381.766C1955.68 379.824 1956.08 378.995 1956.08 377.074C1956.08 374.862 1956.24 374.665 1959.06 373.275C1963.15 371.263 1968.8 366.992 1970.08 364.952C1970.85 363.716 1971.14 362.1 1971.14 358.918C1971.14 354.925 1971.02 354.489 1969.66 353.551C1968.85 352.988 1967.09 352.32 1965.75 352.066C1963.36 351.61 1963.19 351.383 1963.87 349.543C1964.06 349.031 1963.5 347.123 1962.61 345.301C1961.38 342.765 1960.42 341.668 1958.48 340.613C1954.65 338.521 1951.59 338.219 1939.29 338.719C1933.07 338.971 1920.17 339.461 1910.61 339.808C1901.06 340.155 1889.59 340.709 1885.13 341.039C1880.67 341.368 1874.93 341.767 1872.38 341.926C1869.84 342.085 1866.32 342.343 1864.56 342.5C1862.81 342.657 1859.29 342.951 1856.74 343.155C1851.83 343.549 1845.67 344.334 1839.95 345.295C1838.04 345.616 1835.17 346.017 1833.57 346.187C1830.49 346.516 1826.35 347.315 1822.57 348.31C1821.3 348.646 1819.21 348.934 1817.94 348.951C1816.66 348.966 1814.05 349.531 1812.14 350.205C1810.23 350.879 1805.15 352.115 1800.85 352.951C1796.55 353.788 1791.6 354.903 1789.84 355.43C1788.09 355.957 1784.96 356.887 1782.89 357.496C1778.63 358.749 1770.45 361.509 1768.7 362.28C1768.06 362.561 1766.56 363.24 1765.35 363.789C1764.14 364.338 1762.84 364.796 1762.45 364.808C1762.07 364.819 1760.71 365.358 1759.43 366.005C1758.16 366.653 1756.77 367.191 1756.35 367.203C1755.32 367.23 1745.25 372.51 1744.06 373.643C1743.54 374.133 1742.86 374.533 1742.53 374.533C1742.21 374.533 1740.92 375.292 1739.68 376.22C1738.44 377.148 1736.77 378.242 1735.97 378.652C1727.05 383.245 1710.32 397.336 1703.97 405.598C1701.51 408.81 1697.74 414.539 1697.74 415.085C1697.74 415.293 1697.33 416.465 1696.82 417.688C1696.31 418.912 1695.67 420.461 1695.4 421.131C1694.66 422.96 1693.05 429.762 1692.31 434.158C1691.8 437.181 1691.39 438.153 1690.45 438.517C1689.79 438.775 1687.91 440.582 1686.29 442.533L1683.33 446.078L1681.79 444.569C1680.41 443.206 1680.28 442.732 1680.52 439.709C1680.89 435.139 1680.33 433.938 1677.31 432.722C1675.15 431.857 1674.34 431.808 1672.2 432.415C1670.81 432.81 1668.92 433.691 1668.01 434.371C1666.19 435.737 1661.25 436.616 1661.25 435.574C1661.25 435.223 1662.13 434.366 1663.2 433.67C1664.27 432.974 1665.82 431.375 1666.65 430.118C1668.02 428.039 1668.1 427.599 1667.54 425.277C1666.78 422.125 1666 421.386 1661.25 419.272C1657.4 417.557 1653.38 417.081 1649.81 417.917C1648.78 418.161 1647.93 418.161 1647.94 417.917C1647.95 417.674 1649.64 416.163 1651.71 414.557C1654.76 412.178 1655.46 411.323 1655.46 409.937C1655.46 409.002 1655.31 408.078 1655.12 407.882C1654.94 407.687 1653.53 408.189 1652 408.999C1650.46 409.808 1648.69 410.471 1648.06 410.471C1647.43 410.471 1645.91 410.84 1644.67 411.291C1639.87 413.047 1635.2 412.014 1632.11 408.512C1630.63 406.829 1630.24 406.693 1627.62 406.958C1626 407.121 1624.24 407.728 1623.59 408.348C1622.96 408.953 1622.24 409.247 1622.01 409.002C1621.57 408.542 1625.34 404.629 1630.15 400.542C1631.64 399.269 1632.87 397.968 1632.87 397.649C1632.87 396.609 1628.95 397.04 1624.35 398.585C1618.88 400.422 1617.51 400.466 1614.25 398.911C1609.7 396.738 1606.65 397.282 1599.85 401.482C1596.29 403.683 1592.14 404.612 1589.68 403.759C1588.63 403.395 1586.52 401.72 1584.98 400.037C1576.54 390.79 1565.38 391.11 1555.99 400.869C1554.01 402.93 1552.25 404.478 1552.09 404.309C1551.59 403.78 1555.09 396.838 1556.61 395.33C1558.38 393.583 1558.02 392.197 1555.8 392.197C1553.59 392.197 1551.6 393.161 1547.36 396.285C1543.05 399.457 1539.37 404.041 1535.71 410.816C1534.19 413.615 1532.61 416.05 1532.19 416.228C1531.06 416.712 1526.16 415.412 1525.02 414.322C1524.47 413.798 1523.59 413.54 1523.07 413.75C1522.29 414.064 1522.2 414.67 1522.52 417.174C1523 420.84 1522.36 421.081 1520.09 418.085C1516.54 413.406 1514.44 416.579 1514.43 426.658C1514.42 433.392 1514.95 435.661 1517.36 439.1C1517.72 439.602 1518.17 440.511 1518.38 441.119C1518.69 442.039 1518.53 442.156 1517.45 441.811C1516.74 441.584 1514.81 440.473 1513.17 439.342C1510.53 437.523 1510.07 436.88 1509.17 433.776C1507.6 428.275 1507.08 427.687 1503.08 426.859C1499.2 426.057 1498.54 425.301 1499.84 423.16C1500.99 421.283 1506.9 406.57 1507.76 403.466C1509.68 396.456 1510.11 391.348 1509.3 384.888C1508.86 381.382 1507.52 376.562 1506.6 375.142C1506.05 374.305 1505.28 372.185 1504.88 370.434C1503.43 363.954 1496.51 349.089 1491.17 340.966C1490.16 339.423 1488.78 337.024 1488.1 335.636C1487.43 334.248 1486.68 333.113 1486.43 333.113C1486.19 333.113 1485.5 332.222 1484.9 331.133C1483.95 329.426 1480.97 324.976 1479.5 323.062C1479.24 322.727 1477.36 320.123 1475.31 317.276C1473.27 314.428 1470.53 310.728 1469.23 309.053C1450.98 285.644 1442.62 276.45 1431.43 267.463C1421.77 259.702 1418.71 257.158 1413.28 252.375C1405.59 245.589 1394.34 236.685 1389.48 233.534C1385.06 230.674 1384.97 230.647 1380.79 230.876C1373.71 231.263 1370.82 234.543 1371 241.974C1371.09 245.654 1371.31 246.534 1372.53 247.863C1374.13 249.619 1374.28 250.43 1373.23 251.6C1371.47 253.556 1370.34 257.452 1370.13 262.283C1369.92 267.202 1369.96 267.379 1372.48 272.488C1375.38 278.371 1379.9 285.561 1383.73 290.391C1385.97 293.22 1386.19 293.733 1385.36 294.221C1384.83 294.53 1383.58 296.034 1382.58 297.562C1380.87 300.178 1380.77 300.657 1380.8 305.729C1380.83 310.197 1381.09 311.68 1382.32 314.415C1383.97 318.086 1388.28 324.313 1391.55 327.748L1393.69 329.998L1392.37 331.595C1390.62 333.691 1390.29 335.005 1390.24 340.118C1390.19 343.952 1390.4 344.795 1392.35 348.485C1395.55 354.552 1400.67 360.989 1410.12 370.83C1414.76 375.662 1418.55 379.819 1418.55 380.069C1418.55 380.32 1417.51 381.659 1416.25 383.046C1414.9 384.521 1413.67 386.626 1413.29 388.121C1412.35 391.768 1412.94 396.872 1414.69 400.116C1415.5 401.624 1416.68 403.826 1417.3 405.011C1419.07 408.328 1434.49 424.355 1439.85 428.445C1451.16 437.064 1453.04 438.442 1453.54 438.466C1453.83 438.48 1455 439.243 1456.15 440.163C1459.7 443.014 1463.68 445.8 1464.21 445.8C1464.48 445.8 1465.16 446.324 1465.71 446.963C1466.26 447.604 1467.32 448.286 1468.05 448.48C1469.13 448.765 1469.47 449.394 1469.8 451.714C1470.43 456.102 1472.51 459.636 1477.61 464.987L1482.25 469.86L1478.64 470.217C1476.65 470.413 1474.2 470.91 1473.2 471.322C1471.58 471.988 1471.04 471.897 1468.44 470.509C1466.83 469.649 1465.21 468.946 1464.85 468.946C1464.49 468.946 1463.51 468.448 1462.66 467.837C1461.82 467.227 1459.82 466.232 1458.23 465.626C1451.23 462.962 1449.83 462.146 1449.83 460.712C1449.83 458.883 1447.74 451.768 1446.04 447.851C1445.3 446.132 1444.52 443.727 1444.3 442.508C1443.85 439.972 1441.78 437.933 1436.43 434.758C1434.53 433.628 1432.1 432.004 1431.04 431.149C1429.98 430.294 1427.32 428.81 1425.13 427.853C1422.95 426.895 1420.77 425.803 1420.29 425.425C1419.81 425.047 1418.51 424.304 1417.39 423.775C1413.08 421.73 1409.56 418.061 1406 411.905C1397.67 397.513 1395.62 392.68 1395.4 387.016C1395.18 380.98 1395.27 380.505 1397.66 375.447C1398.93 372.767 1400.13 369.827 1400.34 368.914C1400.86 366.622 1398.94 362.676 1395.66 359.293C1393.23 356.789 1392.72 356.539 1389.48 356.259C1385.96 355.957 1385.93 355.94 1385.15 353.559C1384.72 352.241 1383.94 350.676 1383.43 350.081C1382.41 348.891 1369.03 341.64 1367.86 341.64C1367.46 341.64 1366.76 341.023 1366.31 340.27C1365.38 338.733 1361.79 325.239 1361.79 323.311C1361.79 322.628 1361.53 321.565 1361.22 320.949C1360.9 320.333 1359.73 316.171 1358.61 311.7C1356.43 303 1353.17 290.419 1351.28 283.47C1350.64 281.124 1349.78 277.698 1349.37 275.856C1348.96 274.013 1348.28 271.272 1347.86 269.764C1346.97 266.565 1347.07 266.984 1346.49 264.282C1346.24 263.11 1345.69 260.917 1345.26 259.409C1344.84 257.902 1343.8 254.064 1342.96 250.882C1342.12 247.699 1340.79 242.902 1340.01 240.222C1339.23 237.542 1338.06 233.293 1337.41 230.781C1336.76 228.268 1335.59 223.745 1334.8 220.73C1334.02 217.715 1332.89 213.055 1332.29 210.375C1331.69 207.695 1330.94 204.543 1330.62 203.37C1329.66 199.893 1327.52 191.565 1327.32 190.579C1326.79 187.916 1326.25 185.944 1325.9 185.401C1325.68 185.066 1325.17 182.874 1324.78 180.528C1324.38 178.183 1323.81 175.716 1323.52 175.046C1323.23 174.376 1322.06 170.128 1320.93 165.605C1319.79 161.082 1318.63 156.56 1318.35 155.555C1317.41 152.201 1315.41 144.651 1314 139.108C1313.23 136.093 1311.66 130.063 1310.51 125.708C1307.94 115.973 1307.95 116.063 1309.33 115.765C1309.95 115.632 1311.39 114.919 1312.52 114.182C1313.65 113.444 1315.49 112.484 1316.61 112.046C1317.72 111.608 1319.45 110.871 1320.46 110.408C1321.46 109.945 1322.68 109.566 1323.18 109.566C1323.67 109.566 1324.23 109.292 1324.43 108.957C1324.62 108.622 1326.5 108.348 1328.6 108.348C1331.81 108.348 1332.74 108.599 1334.36 109.902C1335.43 110.756 1336.3 111.861 1336.3 112.355C1336.3 112.85 1335.52 114.884 1334.56 116.875C1332.68 120.796 1332.44 122.318 1333.52 123.454C1335.55 125.586 1342.93 122.473 1350.86 116.144C1353.3 114.201 1355.45 112.612 1355.63 112.612C1355.82 112.612 1358.13 110.962 1360.76 108.944C1365.95 104.972 1373.84 99.3669 1381.19 94.4404C1383.74 92.7318 1386.89 90.5024 1388.2 89.4858C1389.5 88.4692 1390.77 87.6377 1391.01 87.6377C1391.25 87.6377 1392.44 86.8154 1393.64 85.8104C1394.85 84.8053 1396.01 83.983 1396.23 83.983C1396.44 83.983 1397.45 83.3653 1398.46 82.6106C1403.4 78.9395 1414.26 73.0335 1422.9 69.3324C1423.53 69.059 1424.97 68.551 1426.08 68.2031C1427.2 67.856 1429.8 67.0409 1431.87 66.3928C1438.26 64.3931 1440.93 63.8827 1445.02 63.8735C1449.33 63.8644 1451.57 63.427 1451.57 62.5925C1451.57 62.2971 1451.01 62.0547 1450.33 62.0547C1449.65 62.0547 1447.82 61.2324 1446.27 60.2273C1444.71 59.2223 1443.3 58.4 1443.13 58.4C1442.96 58.4 1441.72 57.8767 1440.39 57.2372C1435.35 54.8281 1425.42 52.9179 1417.93 52.9179C1415.72 52.9179 1413.92 52.712 1413.93 52.4611C1413.98 51.2446 1434.19 41.0663 1439.17 39.7518C1439.94 39.5483 1440.72 39.1384 1440.89 38.8405C1441.07 38.5427 1441.84 38.299 1442.6 38.299C1443.4 38.299 1444.26 37.7825 1444.61 37.0991C1445.14 36.0575 1444.93 35.7432 1443.02 34.718C1440.69 33.4675 1437.95 32.9711 1430.43 32.432C1422.91 31.8941 1412.46 33.9122 1403.07 37.7143C1393.94 41.4141 1391.46 42.6116 1387.71 45.1516C1385.86 46.4076 1384.22 47.4358 1384.07 47.4358C1383.92 47.4358 1381.39 49.1834 1378.44 51.3196C1375.49 53.4558 1371.91 55.8228 1370.49 56.5805C1369.06 57.3377 1365.87 59.4117 1363.4 61.1897C1359.62 63.9125 1350.99 68.755 1349.92 68.755C1349.74 68.755 1348.59 69.4543 1347.36 70.3089C1345.37 71.694 1335.41 74.8462 1333.03 74.8462C1331.82 74.8462 1332.29 72.2002 1334.26 67.8182C1336.32 63.2224 1336.94 58.2599 1335.91 54.462C1334.35 48.6821 1333.98 48.0449 1332.21 48.0449C1331.31 48.0449 1330.41 47.7696 1330.22 47.434C1329.77 46.6781 1319.26 47.2038 1317.74 48.0577C1317.16 48.3854 1316 48.6541 1315.16 48.6541C1313.76 48.6541 1309.15 50.3395 1306.53 51.8099C1305.93 52.148 1304.11 52.8271 1302.48 53.3187C1300.85 53.8109 1298.48 54.7081 1297.2 55.3136C1292.84 57.3852 1292.44 57.4016 1292.13 55.5249C1291.98 54.5936 1290.94 50.1312 1289.83 45.6085C1288.72 41.0858 1287.4 35.6037 1286.91 33.4261C1286.41 31.2485 1285.46 27.9075 1284.8 26.0009C1283.63 22.6081 1281.7 15.4467 1279.34 5.71114C1278.69 3.03102 1277.88 0.63657 1277.54 0.390486C1276.71 -0.213151 1272.72 -0.0962006 1270.44 0.598196ZM1407.82 488.397C1411.35 492.053 1420.5 497.575 1423.02 497.575C1425.23 497.575 1432.27 501.829 1436.84 505.934C1441.67 510.263 1444.51 513.148 1449.95 519.251C1453 522.674 1459.01 526.813 1460.93 526.813C1461.36 526.813 1462.68 527.354 1463.86 528.016C1465.61 529.006 1480.04 534.06 1484.29 535.175C1492.18 537.243 1504.06 543.215 1505.73 545.95C1506.16 546.648 1506.78 548.811 1507.12 550.756C1507.45 552.702 1507.86 554.524 1508.03 554.805C1508.19 555.087 1508.61 557.469 1508.95 560.1C1509.58 564.956 1511.98 574.783 1512.98 576.65C1514.28 579.082 1516 585.307 1516.45 589.248C1516.72 591.593 1517.32 595.293 1517.79 597.471C1518.25 599.648 1518.77 602.408 1518.93 603.605L1519.23 605.779L1515.24 607.412C1513.05 608.309 1510.82 609.044 1510.3 609.044C1509.78 609.044 1507.49 607.867 1505.22 606.429C1498.8 602.359 1495.18 601.565 1476.93 600.217C1464.05 599.266 1461.17 598.392 1457.21 594.222C1456.06 593.018 1454.39 591.869 1453.49 591.669C1450.49 591.001 1448.07 589.572 1447.59 588.185C1447.32 587.429 1447.22 584.174 1447.36 580.95C1447.58 575.935 1447.44 574.746 1446.45 572.726C1445.26 570.309 1442.93 567.619 1439.49 564.67C1437.74 563.174 1437.5 562.59 1437.13 558.877C1436.77 555.17 1436.51 554.519 1434.56 552.506C1433.36 551.273 1431.67 549.342 1430.8 548.214C1429.79 546.914 1428.59 546.086 1427.5 545.95C1424.93 545.628 1421.87 545.557 1420.66 545.791C1419.26 546.062 1418.88 545.242 1417.44 538.995C1416.78 536.148 1415.49 530.94 1414.57 527.422C1408.11 502.607 1406.31 495.796 1405.72 493.92C1405.35 492.748 1404.98 491.24 1404.9 490.57C1404.82 489.9 1404.47 488.58 1404.12 487.637C1402.67 483.712 1403.45 483.871 1407.82 488.397ZM1727.72 572.271C1730.67 573.194 1733.08 574.157 1733.08 574.412C1733.08 574.666 1730.15 577.286 1726.57 580.234C1719.08 586.401 1717.72 587.769 1710.98 596.001C1705.96 602.122 1696.62 611.524 1693.7 613.387C1692.83 613.948 1690.9 615.377 1689.42 616.563C1686.01 619.305 1671.24 626.877 1667.04 628.042C1665.93 628.351 1664.1 628.857 1662.99 629.165C1659.1 630.239 1651.01 629.588 1649.59 628.084C1649.06 627.531 1650.69 622.926 1654.27 614.831C1655.31 612.485 1656.56 609.607 1657.04 608.435C1657.53 607.262 1658.51 605.069 1659.23 603.562C1661.52 598.771 1667.8 582.586 1667.75 581.587C1667.65 579.343 1689.81 574.08 1692.37 575.742C1693.39 576.403 1698.85 577.462 1702.58 577.721C1707.04 578.031 1710.68 577.119 1713.8 574.908C1715.19 573.917 1716.52 573.106 1716.75 573.106C1716.98 573.106 1717.66 572.411 1718.26 571.562C1719.54 569.773 1719.81 569.793 1727.72 572.271ZM1806.64 590.655C1810.69 591.351 1814.17 592.959 1814.17 594.137C1814.17 594.639 1814.46 595.543 1814.82 596.145C1815.3 596.956 1815.29 598.017 1814.79 600.248C1814.42 601.903 1813.77 605.176 1813.34 607.521C1812.47 612.258 1810.83 616.928 1808.43 621.527C1806.46 625.275 1803.08 630.363 1802.55 630.363C1802.33 630.363 1801.83 629.061 1801.42 627.47C1800.21 622.701 1797.41 618.141 1792.72 613.275C1787.89 608.275 1783.18 604.719 1780 603.67C1778.88 603.304 1776.12 602.351 1773.87 601.554C1770.09 600.219 1769.42 600.157 1765.34 600.767C1762.9 601.131 1760.43 601.841 1759.84 602.344C1759.25 602.846 1757.23 604.069 1755.34 605.061C1751.84 606.899 1745.34 611.991 1743.17 614.603C1741 617.205 1737 623.837 1735.63 627.071C1734.5 629.773 1733.47 636.852 1733.48 641.936C1733.48 643.661 1734.18 648.333 1734.7 650.165C1735.47 652.82 1738.17 658.252 1739.32 659.472C1739.87 660.049 1741.58 662.163 1743.13 664.172C1745.69 667.499 1753.27 674.848 1756.81 677.436C1758.13 678.403 1758.15 678.484 1757.06 678.484C1753.96 678.484 1742.78 676.592 1740.53 675.686C1739.14 675.126 1736.92 673.47 1735.6 672.007L1733.2 669.347L1728.94 669.319C1723.61 669.284 1694.29 668.756 1693.11 668.674C1692.63 668.64 1689.9 668.218 1687.03 667.736C1684.16 667.253 1680.9 666.753 1679.79 666.625C1677.11 666.316 1672.48 665.374 1666.61 663.943C1661.36 662.665 1661.04 662.389 1653.3 652.457C1649.25 647.253 1649.28 646.574 1653.58 647.088C1655.41 647.307 1659.91 647.158 1663.57 646.756C1667.23 646.354 1671.01 645.941 1671.97 645.839C1678.85 645.101 1691.21 641.988 1692.79 640.594C1693.09 640.327 1693.8 640.109 1694.35 640.109C1695.53 640.109 1701.53 636.512 1704.02 634.316C1704.96 633.482 1705.89 632.8 1706.09 632.8C1706.28 632.8 1708.59 631.33 1711.22 629.534C1713.84 627.738 1717.13 625.656 1718.53 624.909C1721.4 623.38 1729.27 617.788 1732.79 614.794C1734.86 613.027 1738.91 610.061 1747.85 603.751C1755.68 598.222 1769.37 592.882 1782.02 590.412C1786.43 589.553 1801.07 589.697 1806.64 590.655ZM1443.7 630.972C1448.57 637.534 1456.11 644.208 1462.21 647.357C1465.09 648.846 1471.1 650.984 1477.73 652.879L1488.53 655.972L1500.61 656.092C1510.29 656.188 1513.71 655.994 1517.89 655.111L1523.1 654.01L1524.4 655.739C1532.47 666.543 1541.97 681.279 1542.86 684.386C1544.83 691.267 1543.6 697.855 1538.83 706.046C1534.24 713.926 1523.57 724.981 1516.95 728.712C1511.34 731.88 1505.42 732.98 1501.12 731.654C1492.71 729.057 1486.25 723.011 1466.33 699.069L1455.33 685.849L1453.74 679.882C1452.86 676.6 1451.73 672.271 1451.22 670.26C1450.71 668.25 1447.84 657.596 1444.85 646.585C1441.85 635.573 1439.4 626.276 1439.4 625.925C1439.4 625.134 1439.12 624.798 1443.7 630.972ZM1384.41 683.196C1389.09 685.567 1395.77 691.438 1399.32 696.303C1400.82 698.353 1403.09 701.3 1404.36 702.852C1405.63 704.403 1407.33 706.828 1408.12 708.24C1411.21 713.707 1418.13 722.736 1428.46 734.752C1433.05 740.094 1436.49 743.358 1442.07 747.673C1452.12 755.442 1452.32 756.216 1443.17 751.96C1433.68 747.55 1420.65 747.573 1411.02 752.019C1406.02 754.328 1400 757.43 1396.49 759.503C1394.39 760.743 1388.95 763.341 1384.39 765.276C1376.18 768.763 1376.06 768.793 1371.53 768.466C1368.59 768.254 1366.4 767.752 1365.39 767.059C1362.59 765.144 1353.36 754.993 1352.35 752.72C1351.3 750.338 1348.25 736.751 1347.66 731.782C1345 709.396 1346.43 701.929 1355.73 689.775C1359.03 685.459 1360.62 683.902 1362.77 682.884C1366.48 681.127 1367.42 680.989 1374.56 681.16C1380.06 681.292 1381.06 681.497 1384.41 683.196Z" fill="white" fill-opacity="0.05"/>
</svg>
