<svg width="48" height="48" viewBox="0 0 48 48" fill="none" xmlns="http://www.w3.org/2000/svg">
<g clip-path="url(#clip0_123_565)">
<path fill-rule="evenodd" clip-rule="evenodd" d="M2.04 25.1999V32.2799C2.04 36.9191 5.80081 40.6799 10.44 40.6799H37.56C42.1992 40.6799 45.96 36.9191 45.96 32.2799V25.1999H2.04ZM0.96 23.1599C0.429807 23.1599 0 23.5897 0 24.1199V32.2799C0 38.0458 4.67415 42.7199 10.44 42.7199H37.56C43.3259 42.7199 48 38.0458 48 32.2799V24.1199C48 23.5897 47.5702 23.1599 47.04 23.1599H0.96Z" fill="#343D6D"/>
<path fill-rule="evenodd" clip-rule="evenodd" d="M11.6833 41.083C12.3312 41.3369 12.6506 42.0679 12.3967 42.7158L10.653 47.1658C10.3992 47.8137 9.6681 48.1331 9.02019 47.8792C8.37228 47.6253 8.05285 46.8943 8.30674 46.2464L10.0505 41.7964C10.3043 41.1485 11.0354 40.8291 11.6833 41.083Z" fill="#343D6D"/>
<path fill-rule="evenodd" clip-rule="evenodd" d="M38.0604 41.083C37.4124 41.3369 37.093 42.0679 37.3469 42.7158L39.0906 47.1658C39.3445 47.8137 40.0756 48.1331 40.7235 47.8792C41.3714 47.6253 41.6908 46.8943 41.4369 46.2464L39.6932 41.7964C39.4393 41.1485 38.7083 40.8291 38.0604 41.083Z" fill="#343D6D"/>
<path fill-rule="evenodd" clip-rule="evenodd" d="M1.19995 28.26C1.19995 27.6967 1.65662 27.24 2.21995 27.24H48.18C48.7433 27.24 49.2 27.6967 49.2 28.26C49.2 28.8233 48.7433 29.28 48.18 29.28H2.21995C1.65662 29.28 1.19995 28.8233 1.19995 28.26Z" fill="#343D6D"/>
<path fill-rule="evenodd" clip-rule="evenodd" d="M10.217 12.0623C8.82711 12.0037 7.25997 13.0792 7.25997 15.4882V23.16C7.25997 23.7233 6.8033 24.18 6.23997 24.18C5.67664 24.18 5.21997 23.7233 5.21997 23.16V15.4882C5.21997 12.0014 7.67283 9.91328 10.3029 10.0241C11.5969 10.0786 12.8723 10.6719 13.8103 11.8083C14.7463 12.9422 15.3 14.5556 15.3 16.5971C15.3 17.1605 14.8433 17.6171 14.28 17.6171C13.7166 17.6171 13.26 17.1605 13.26 16.5971C13.26 14.9206 12.8086 13.7994 12.2371 13.107C11.6677 12.4171 10.9331 12.0925 10.217 12.0623Z" fill="#343D6D"/>
<path fill-rule="evenodd" clip-rule="evenodd" d="M2.64002 21.6H2.52002V21.48H2.64002V21.6Z" fill="#343D6D"/>
<path d="M1.19995 21.96C1.19995 21.7612 1.36113 21.6 1.55995 21.6H3.23995C3.43877 21.6 3.59995 21.7612 3.59995 21.96V23.52C3.59995 23.7188 3.43877 23.88 3.23995 23.88H1.55995C1.36113 23.88 1.19995 23.7188 1.19995 23.52V21.96Z" fill="#343D6D"/>
<path d="M8.52002 21.96C8.52002 21.7612 8.6812 21.6 8.88002 21.6H10.56C10.7588 21.6 10.92 21.7612 10.92 21.96V23.52C10.92 23.7188 10.7588 23.88 10.56 23.88H8.88002C8.6812 23.88 8.52002 23.7188 8.52002 23.52V21.96Z" fill="#343D6D"/>
<path d="M32.6962 18.3251C32.6962 18.7136 32.3633 19.0285 31.9525 19.0285C31.5417 19.0285 31.2087 18.7136 31.2087 18.3251C31.2087 17.9365 31.5417 17.6216 31.9525 17.6216C32.3633 17.6216 32.6962 17.9365 32.6962 18.3251Z" fill="#343D6D"/>
<path d="M32.6962 21.4405C32.6962 21.8291 32.3633 22.144 31.9525 22.144C31.5417 22.144 31.2087 21.8291 31.2087 21.4405C31.2087 21.052 31.5417 20.7371 31.9525 20.7371C32.3633 20.7371 32.6962 21.052 32.6962 21.4405Z" fill="#343D6D"/>
<path d="M38.8586 18.3251C38.8586 18.7136 38.5256 19.0285 38.1148 19.0285C37.7041 19.0285 37.3711 18.7136 37.3711 18.3251C37.3711 17.9365 37.7041 17.6216 38.1148 17.6216C38.5256 17.6216 38.8586 17.9365 38.8586 18.3251Z" fill="#343D6D"/>
<path d="M38.8586 21.4405C38.8586 21.8291 38.5256 22.144 38.1148 22.144C37.7041 22.144 37.3711 21.8291 37.3711 21.4405C37.3711 21.052 37.7041 20.7371 38.1148 20.7371C38.5256 20.7371 38.8586 21.052 38.8586 21.4405Z" fill="#343D6D"/>
<path d="M35.7775 18.3251C35.7775 18.7136 35.4446 19.0285 35.0338 19.0285C34.623 19.0285 34.29 18.7136 34.29 18.3251C34.29 17.9365 34.623 17.6216 35.0338 17.6216C35.4446 17.6216 35.7775 17.9365 35.7775 18.3251Z" fill="#343D6D"/>
<path d="M35.7775 21.4405C35.7775 21.8291 35.4446 22.144 35.0338 22.144C34.623 22.144 34.29 21.8291 34.29 21.4405C34.29 21.052 34.623 20.7371 35.0338 20.7371C35.4446 20.7371 35.7775 21.052 35.7775 21.4405Z" fill="#343D6D"/>
<path d="M29.6149 18.3251C29.6149 18.7136 29.282 19.0285 28.8712 19.0285C28.4604 19.0285 28.1274 18.7136 28.1274 18.3251C28.1274 17.9365 28.4604 17.6216 28.8712 17.6216C29.282 17.6216 29.6149 17.9365 29.6149 18.3251Z" fill="#343D6D"/>
<path d="M29.6149 21.4405C29.6149 21.8291 29.282 22.144 28.8712 22.144C28.4604 22.144 28.1274 21.8291 28.1274 21.4405C28.1274 21.052 28.4604 20.7371 28.8712 20.7371C29.282 20.7371 29.6149 21.052 29.6149 21.4405Z" fill="#343D6D"/>
<path fill-rule="evenodd" clip-rule="evenodd" d="M38.4832 14.2333C38.1853 11.7993 36.1112 9.91329 33.5999 9.91329C31.0886 9.91329 29.0145 11.7993 28.7166 14.2333H38.4832ZM33.5999 7.87329C29.756 7.87329 26.6399 10.9937 26.6399 14.8376C26.6399 15.63 27.2823 16.2733 28.0747 16.2733H39.1251C39.9175 16.2733 40.5599 15.63 40.5599 14.8376C40.5599 10.9937 37.4438 7.87329 33.5999 7.87329Z" fill="#343D6D"/>
<path fill-rule="evenodd" clip-rule="evenodd" d="M27.5999 13.2001C27.5999 13.4652 27.8148 13.6801 28.0799 13.6801L39.3424 13.6801C39.6075 13.6801 39.8224 13.4652 39.8224 13.2001C39.8224 12.935 39.6075 12.7201 39.3424 12.7201L28.0799 12.7201C27.8148 12.7201 27.5999 12.935 27.5999 13.2001Z" fill="#343D6D"/>
<path fill-rule="evenodd" clip-rule="evenodd" d="M31.4587 7.87327C31.4587 8.20464 31.7274 8.47327 32.0587 8.47327H35.2462C35.5776 8.47327 35.8462 8.20464 35.8462 7.87327C35.8462 7.5419 35.5776 7.27327 35.2462 7.27327H32.0587C31.7274 7.27327 31.4587 7.5419 31.4587 7.87327Z" fill="#343D6D"/>
<path fill-rule="evenodd" clip-rule="evenodd" d="M40.1444 -0.0600586C40.145 -0.0600589 40.1455 -0.0600591 40.1455 0.959941C40.1455 -0.0600591 40.146 -0.0600589 40.1466 -0.0600584L40.148 -0.0600562L40.1512 -0.0600455L40.1595 -0.0599896C40.1659 -0.0599331 40.1739 -0.0598329 40.1836 -0.0596584C40.203 -0.0593093 40.2289 -0.0586625 40.261 -0.0574707C40.325 -0.0550885 40.4137 -0.0505212 40.5235 -0.0417716C40.7428 -0.0243004 41.0485 0.0100112 41.4126 0.0775963C42.1366 0.212009 43.115 0.482375 44.1069 1.03191C46.1546 2.16644 48.121 4.42268 48.1799 8.65921L48.18 8.67278L48.0729 17.1037V31.5599C48.0729 32.1233 47.6162 32.5799 47.0529 32.5799C46.4895 32.5799 46.0329 32.1233 46.0329 31.5599V17.0908L46.1399 8.67426C46.0879 5.20656 44.5492 3.60915 43.1182 2.81633C42.3698 2.40169 41.6147 2.18996 41.0402 2.08333C40.7551 2.03039 40.5203 2.00444 40.3615 1.99178C40.2822 1.98547 40.2223 1.9825 40.1851 1.98112C40.1665 1.98043 40.1537 1.98013 40.1469 1.98001L40.1449 1.97998L40.1432 1.98C40.1367 1.9801 40.1247 1.98034 40.1075 1.98089C40.0731 1.98198 40.018 1.98432 39.9453 1.98928C39.7995 1.99921 39.5847 2.01953 39.3239 2.06091C38.7975 2.14441 38.1089 2.30971 37.4282 2.63091C36.7502 2.95086 36.1035 3.41387 35.6178 4.08449C35.1382 4.7466 34.7747 5.66652 34.7396 6.97536C34.7245 7.53848 34.2557 7.98274 33.6926 7.96764C33.1295 7.95253 32.6852 7.48378 32.7003 6.92065C32.7455 5.23546 33.2254 3.90986 33.9656 2.88782C34.6997 1.8743 35.6494 1.21454 36.5577 0.785986C37.4632 0.358682 38.351 0.149726 39.0043 0.0460998C39.3333 -0.00608746 39.6091 -0.0325464 39.8066 -0.0460033C39.9055 -0.0527428 39.9852 -0.0562533 40.0426 -0.0580807C40.0713 -0.0589949 40.0945 -0.0594892 40.1118 -0.0597552C40.1204 -0.0598882 40.1275 -0.0599642 40.1332 -0.0600069L40.1405 -0.060049L40.1433 -0.0600569L40.1444 -0.0600586Z" fill="#343D6D"/>
</g>
<defs>
<clipPath id="clip0_123_565">
<rect width="48" height="48" fill="white"/>
</clipPath>
</defs>
</svg>
