<svg width="48" height="48" viewBox="0 0 48 48" fill="none" xmlns="http://www.w3.org/2000/svg">
<g clip-path="url(#clip0_123_564)">
<path fill-rule="evenodd" clip-rule="evenodd" d="M2.04 26.52V33.6C2.04 38.2392 5.80081 42 10.44 42H37.56C42.1992 42 45.96 38.2392 45.96 33.6V26.52H2.04ZM0.96 24.48C0.429807 24.48 0 24.9098 0 25.44V33.6C0 39.3658 4.67415 44.04 10.44 44.04H37.56C43.3259 44.04 48 39.3658 48 33.6V25.44C48 24.9098 47.5702 24.48 47.04 24.48H0.96Z" fill="#343D6D"/>
<path fill-rule="evenodd" clip-rule="evenodd" d="M11.6833 42.403C12.3312 42.6569 12.6506 43.388 12.3967 44.0359L10.653 48.4858C10.3992 49.1337 9.6681 49.4532 9.02019 49.1993C8.37228 48.9454 8.05285 48.2143 8.30674 47.5664L10.0505 43.1165C10.3043 42.4686 11.0354 42.1492 11.6833 42.403Z" fill="#343D6D"/>
<path fill-rule="evenodd" clip-rule="evenodd" d="M38.0604 42.403C37.4124 42.6569 37.093 43.388 37.3469 44.0359L39.0906 48.4858C39.3445 49.1337 40.0756 49.4532 40.7235 49.1993C41.3714 48.9454 41.6908 48.2143 41.4369 47.5664L39.6932 43.1165C39.4393 42.4686 38.7083 42.1492 38.0604 42.403Z" fill="#343D6D"/>
<path fill-rule="evenodd" clip-rule="evenodd" d="M1.19995 29.5801C1.19995 29.0167 1.65662 28.5601 2.21995 28.5601H46.98C47.5433 28.5601 48 29.0167 48 29.5801C48 30.1434 47.5433 30.6001 46.98 30.6001H2.21995C1.65662 30.6001 1.19995 30.1434 1.19995 29.5801Z" fill="#343D6D"/>
<path fill-rule="evenodd" clip-rule="evenodd" d="M9.85717 13.3824C8.46725 13.3238 6.90011 14.3993 6.90011 16.8083V24.48C6.90011 25.0434 6.44344 25.5 5.88011 25.5C5.31678 25.5 4.86011 25.0434 4.86011 24.48V16.8083C4.86011 13.3215 7.31297 11.2333 9.94305 11.3442C11.237 11.3987 12.5124 11.992 13.4505 13.1284C14.3865 14.2623 14.9401 15.8756 14.9401 17.9172C14.9401 18.4805 14.4834 18.9372 13.9201 18.9372C13.3568 18.9372 12.9001 18.4805 12.9001 17.9172C12.9001 16.2407 12.4488 15.1194 11.8772 14.427C11.3078 13.7372 10.5732 13.4125 9.85717 13.3824Z" fill="#343D6D"/>
<path fill-rule="evenodd" clip-rule="evenodd" d="M2.64002 22.92H2.52002V22.8H2.64002V22.92Z" fill="#343D6D"/>
</g>
<defs>
<clipPath id="clip0_123_564">
<rect width="48" height="48" fill="white"/>
</clipPath>
</defs>
</svg>
