<svg width="48" height="48" viewBox="0 0 48 48" fill="none" xmlns="http://www.w3.org/2000/svg">
<g clip-path="url(#clip0_123_559)">
<path d="M43.881 26.1733V15.3599C43.8785 13.5783 43.0126 11.8702 41.4733 10.6104C39.934 9.35058 37.8469 8.64193 35.67 8.63989H12.21C10.0331 8.64193 7.94599 9.35058 6.40667 10.6104C4.86735 11.8702 4.00146 13.5783 3.99898 15.3599V26.1733C2.91348 26.791 2.02657 27.6144 1.41383 28.5732C0.801097 29.532 0.480711 30.5979 0.47998 31.6799V46.0799C0.47998 46.5891 0.727147 47.0775 1.16711 47.4375C1.60707 47.7976 2.20378 47.9999 2.82598 47.9999H7.51798C8.14018 47.9999 8.73689 47.7976 9.17685 47.4375C9.61681 47.0775 9.86398 46.5891 9.86398 46.0799V43.1999H38.016V46.0799C38.016 46.5891 38.2631 47.0775 38.7031 47.4375C39.1431 47.7976 39.7398 47.9999 40.362 47.9999H45.054C45.6762 47.9999 46.2729 47.7976 46.7129 47.4375C47.1528 47.0775 47.4 46.5891 47.4 46.0799V31.6799C47.3992 30.5979 47.0789 29.532 46.4661 28.5732C45.8534 27.6144 44.9665 26.791 43.881 26.1733V26.1733ZM6.34498 15.3599C6.34684 14.0873 6.96536 12.8673 8.06486 11.9675C9.16435 11.0676 10.6551 10.5614 12.21 10.5599H35.67C37.2249 10.5614 38.7156 11.0676 39.8151 11.9675C40.9146 12.8673 41.5331 14.0873 41.535 15.3599V25.2479C40.7743 25.0589 39.9839 24.9618 39.189 24.9599H35.67V23.0399C35.6681 21.7673 35.0496 20.5473 33.9501 19.6475C32.8506 18.7476 31.3599 18.2414 29.805 18.2399H18.075C16.5201 18.2414 15.0294 18.7476 13.9299 19.6475C12.8304 20.5473 12.2118 21.7673 12.21 23.0399V24.9599H8.69098C7.89601 24.9618 7.10566 25.0589 6.34498 25.2479V15.3599ZM33.324 24.9599H14.556V23.0399C14.556 22.2761 14.9267 21.5435 15.5867 21.0034C16.2466 20.4633 17.1417 20.1599 18.075 20.1599H29.805C30.7383 20.1599 31.6333 20.4633 32.2933 21.0034C32.9532 21.5435 33.324 22.2761 33.324 23.0399V24.9599ZM2.82598 31.6799C2.82784 30.4073 3.44636 29.1873 4.54586 28.2875C5.64535 27.3876 7.13606 26.8814 8.69098 26.8799H39.189C40.7439 26.8814 42.2346 27.3876 43.3341 28.2875C44.4336 29.1873 45.0521 30.4073 45.054 31.6799V35.5199H2.82598V31.6799ZM7.51798 46.0799H2.82598V43.1999H7.51798V46.0799ZM2.82598 41.2799V37.4399H45.054V41.2799H2.82598ZM45.054 46.0799H40.362V43.1999H45.054V46.0799Z" fill="#343D6D"/>
</g>
<defs>
<clipPath id="clip0_123_559">
<rect width="48" height="48" fill="white"/>
</clipPath>
</defs>
</svg>
