<svg width="48" height="48" viewBox="0 0 48 48" fill="none" xmlns="http://www.w3.org/2000/svg">
<g clip-path="url(#clip0_123_558)">
<path d="M44.7273 26.4219V16.2932C44.725 14.2641 43.9197 12.3188 42.4881 10.8841C41.0565 9.44928 39.1155 8.64221 37.0909 8.63989H10.9091C8.88451 8.64221 6.94351 9.44928 5.51192 10.8841C4.08032 12.3188 3.27504 14.2641 3.27273 16.2932V26.4219C2.2632 27.1254 1.43835 28.0631 0.868497 29.155C0.298644 30.247 0.00067914 31.4609 0 32.6932V45.8132C0 46.3932 0.229869 46.9494 0.63904 47.3594C1.04821 47.7695 1.60316 47.9999 2.18182 47.9999H6.54545C7.12411 47.9999 7.67906 47.7695 8.08823 47.3594C8.4974 46.9494 8.72727 46.3932 8.72727 45.8132V42.5332H39.2727V45.8132C39.2727 46.3932 39.5026 46.9494 39.9118 47.3594C40.3209 47.7695 40.8759 47.9999 41.4545 47.9999H45.8182C46.3968 47.9999 46.9518 47.7695 47.361 47.3594C47.7701 46.9494 48 46.3932 48 45.8132V32.6932C47.9993 31.4609 47.7014 30.247 47.1315 29.155C46.5616 28.0631 45.7368 27.1254 44.7273 26.4219V26.4219ZM5.45455 16.2932C5.45628 14.8439 6.03151 13.4544 7.05406 12.4296C8.07661 11.4048 9.46299 10.8283 10.9091 10.8266H37.0909C38.537 10.8283 39.9234 11.4048 40.9459 12.4296C41.9685 13.4544 42.5437 14.8439 42.5455 16.2932V25.3679C41.838 25.1526 41.103 25.0421 40.3636 25.0399V22.8532C40.3636 21.6933 39.9039 20.581 39.0856 19.7608C38.2672 18.9407 37.1573 18.4799 36 18.4799H29.4545C28.2972 18.4799 27.1873 18.9407 26.369 19.7608C25.5506 20.581 25.0909 21.6933 25.0909 22.8532V25.0399H22.9091V22.8532C22.9091 21.6933 22.4494 20.581 21.631 19.7608C20.8127 18.9407 19.7028 18.4799 18.5455 18.4799H12C10.8427 18.4799 9.73278 18.9407 8.91444 19.7608C8.0961 20.581 7.63636 21.6933 7.63636 22.8532V25.0399C6.89703 25.0421 6.16199 25.1526 5.45455 25.3679V16.2932ZM38.1818 25.0399H27.2727V22.8532C27.2727 22.2733 27.5026 21.7171 27.9118 21.307C28.3209 20.8969 28.8759 20.6666 29.4545 20.6666H36C36.5787 20.6666 37.1336 20.8969 37.5428 21.307C37.952 21.7171 38.1818 22.2733 38.1818 22.8532V25.0399ZM20.7273 25.0399H9.81818V22.8532C9.81818 22.2733 10.0481 21.7171 10.4572 21.307C10.8664 20.8969 11.4213 20.6666 12 20.6666H18.5455C19.1241 20.6666 19.6791 20.8969 20.0882 21.307C20.4974 21.7171 20.7273 22.2733 20.7273 22.8532V25.0399ZM2.18182 32.6932C2.18355 31.2439 2.75878 29.8544 3.78133 28.8296C4.80388 27.8048 6.19026 27.2283 7.63636 27.2266H40.3636C41.8097 27.2283 43.1961 27.8048 44.2187 28.8296C45.2412 29.8544 45.8164 31.2439 45.8182 32.6932V33.7866H2.18182V32.6932ZM6.54545 45.8132H2.18182V42.5332H6.54545V45.8132ZM2.18182 40.3466V35.9732H45.8182V40.3466H2.18182ZM45.8182 45.8132H41.4545V42.5332H45.8182V45.8132Z" fill="#343D6D"/>
</g>
<defs>
<clipPath id="clip0_123_558">
<rect width="48" height="48" fill="white"/>
</clipPath>
</defs>
</svg>
