<svg width="48" height="48" viewBox="0 0 48 48" fill="none" xmlns="http://www.w3.org/2000/svg">
<g clip-path="url(#clip0_123_569)">
<path d="M38.0401 44.34C38.0401 46.3614 36.4015 48 34.3801 48C32.3587 48 30.7201 46.3614 30.7201 44.34C30.7201 42.3186 32.3587 40.68 34.3801 40.68C36.4015 40.68 38.0401 42.3186 38.0401 44.34ZM32.6275 44.34C32.6275 45.3079 33.4122 46.0926 34.3801 46.0926C35.348 46.0926 36.1327 45.3079 36.1327 44.34C36.1327 43.3721 35.348 42.5874 34.3801 42.5874C33.4122 42.5874 32.6275 43.3721 32.6275 44.34Z" fill="#343D6D"/>
<path fill-rule="evenodd" clip-rule="evenodd" d="M13.1277 15.72C13.6392 21.1396 18.2022 25.38 23.7557 25.38H24.2444C29.7978 25.38 34.3609 21.1396 34.8724 15.72H13.1277ZM12.0644 13.68C11.4987 13.68 11.04 14.1386 11.04 14.7044C11.04 21.727 16.733 27.42 23.7557 27.42H24.2444C31.2671 27.42 36.96 21.727 36.96 14.7044C36.96 14.1386 36.5014 13.68 35.9357 13.68H12.0644Z" fill="#343D6D"/>
<path fill-rule="evenodd" clip-rule="evenodd" d="M23.298 0.822063C23.2034 2.20961 22.8093 2.97995 21.017 5.28113C20.2142 6.31195 19.8972 6.97488 19.7323 7.96783C19.4381 9.7391 20.4085 11.6372 22.0704 12.5413C22.7966 12.9364 22.8498 12.9326 22.4348 12.5153C21.5144 11.5893 21.4078 10.2412 22.1398 8.78641C22.2964 8.47522 22.4348 8.28789 22.4474 8.37009C22.5595 9.10168 22.6404 9.31512 22.9205 9.61774C23.0969 9.80845 23.2813 9.9644 23.3304 9.9644C23.3795 9.9644 23.3941 9.75146 23.363 9.49109C23.2328 8.40198 23.7079 6.95804 24.4565 6.16806L24.9472 5.65021L25.077 6.25854C25.2347 6.9982 25.568 7.63542 26.1948 8.3964C26.9583 9.32349 27.1582 9.7947 27.1554 10.6619C27.1526 11.4998 26.9077 12.0786 26.3448 12.5776C25.9238 12.9508 26.0976 12.9255 26.8489 12.5042C29.3201 11.1187 29.8533 8.30971 28.237 5.19215L27.8033 4.35574L27.6679 4.79656C27.5934 5.039 27.389 5.36772 27.2139 5.52705L26.8952 5.81662V5.31571C26.8952 4.00041 26.1031 2.24358 25.0573 1.23957C24.5232 0.726704 23.551 0 23.3991 0C23.3744 0 23.3289 0.369978 23.298 0.822063Z" fill="#343D6D"/>
<path fill-rule="evenodd" clip-rule="evenodd" d="M17.8978 27.2131C18.4429 27.3554 18.7693 27.9127 18.627 28.4577L13.707 47.2977C13.5646 47.8428 13.0074 48.1692 12.4624 48.0269C11.9173 47.8846 11.5908 47.3273 11.7332 46.7823L16.6532 27.9423C16.7955 27.3972 17.3528 27.0708 17.8978 27.2131Z" fill="#343D6D"/>
<path fill-rule="evenodd" clip-rule="evenodd" d="M32.1644 34.7467C32.1595 35.31 31.6988 35.7627 31.1355 35.7577L16.3071 35.6273C15.7438 35.6224 15.2911 35.1617 15.2961 34.5984C15.3011 34.0351 15.7617 33.5824 16.325 33.5874L31.1534 33.7178C31.7167 33.7227 32.1694 34.1834 32.1644 34.7467Z" fill="#343D6D"/>
<path fill-rule="evenodd" clip-rule="evenodd" d="M29.6929 28.1873C30.23 28.0177 30.803 28.3156 30.9727 28.8528L34.2127 39.1128C34.3823 39.65 34.0843 40.223 33.5472 40.3926C33.01 40.5623 32.437 40.2643 32.2674 39.7271L29.0274 29.4671C28.8577 28.93 29.1557 28.357 29.6929 28.1873Z" fill="#343D6D"/>
<path fill-rule="evenodd" clip-rule="evenodd" d="M14.8334 16.7244C15.1402 16.5993 15.4904 16.7465 15.6156 17.0534C15.6398 17.1129 15.6648 17.1747 15.6907 17.2388C16.3256 18.8088 17.4897 21.688 21.2256 23.204C21.5327 23.3286 21.6806 23.6785 21.556 23.9856C21.4314 24.2926 21.0814 24.4405 20.7744 24.3159C16.5626 22.6068 15.2334 19.3126 14.5841 17.7034C14.5564 17.6346 14.5299 17.5689 14.5044 17.5066C14.3793 17.1998 14.5266 16.8496 14.8334 16.7244Z" fill="#343D6D"/>
</g>
<defs>
<clipPath id="clip0_123_569">
<rect width="48" height="48" fill="white"/>
</clipPath>
</defs>
</svg>
