<svg width="48" height="48" viewBox="0 0 48 48" fill="none" xmlns="http://www.w3.org/2000/svg">
<g clip-path="url(#clip0_125_581)">
<path fill-rule="evenodd" clip-rule="evenodd" d="M12.3581 34.5455C12.3581 40.9821 17.576 46.2 24.0127 46.2C30.4493 46.2 35.6672 40.9821 35.6672 34.5455V13.4545C35.6672 7.01793 30.4493 1.8 24.0127 1.8C17.576 1.8 12.3581 7.01791 12.3581 13.4545V34.5455ZM10.5581 34.5454V13.4545C10.5581 6.02381 16.5819 0 24.0127 0C31.4434 0 37.4672 6.0238 37.4672 13.4545V34.5454C37.4672 41.9762 31.4434 48 24.0127 48C16.5819 48 10.5581 41.9762 10.5581 34.5454Z" fill="#343D6D"/>
<path fill-rule="evenodd" clip-rule="evenodd" d="M23.8033 6.11513C23.9001 5.7982 24.2354 5.61973 24.5524 5.7165C25.7885 6.09394 26.6476 6.66407 27.1531 7.36397C27.6668 8.075 27.7781 8.87051 27.5999 9.59139C27.2579 10.9746 25.8328 12.0988 24.2767 11.8627C23.0443 11.6757 22.2741 10.9577 22.2723 10.0157C22.2706 9.14659 22.9531 8.3946 23.8939 8.2474C24.2213 8.19617 24.5282 8.42005 24.5794 8.74744C24.6306 9.07482 24.4068 9.38175 24.0794 9.43297C23.6568 9.49909 23.4719 9.8013 23.4723 10.0133C23.4725 10.1524 23.5741 10.5423 24.4567 10.6762C25.3359 10.8096 26.2258 10.1494 26.435 9.30335C26.5323 8.90957 26.4784 8.47917 26.1804 8.06666C25.8744 7.64302 25.2755 7.19197 24.2019 6.86419C23.885 6.76742 23.7065 6.43206 23.8033 6.11513Z" fill="#343D6D"/>
<path fill-rule="evenodd" clip-rule="evenodd" d="M33.2234 17.4589L34.2053 17.398C34.7375 17.365 35.1599 16.9213 35.1599 16.38C35.1599 15.8429 34.7439 15.4017 34.2174 15.3629L33.2361 15.2905L33.0252 14.3293C32.1154 10.1827 28.4184 7.08001 23.9999 7.08001C19.6208 7.08001 15.9503 10.1276 14.9995 14.2189L14.7649 15.2287L13.7282 15.2401C13.1705 15.2462 12.7199 15.7006 12.7199 16.26C12.7199 16.8154 13.1641 17.2674 13.7161 17.2797L14.7529 17.3029L14.9757 18.3158C15.8875 22.4599 19.5832 25.56 23.9999 25.56C28.3804 25.56 32.0518 22.5105 33.0012 18.4172L33.2234 17.4589ZM34.287 18.7155C33.202 23.3936 29.0081 26.88 23.9999 26.88C18.9504 26.88 14.7286 23.3359 13.6865 18.5994C12.4188 18.571 11.3999 17.5345 11.3999 16.26C11.3999 14.9764 12.4335 13.9342 13.7138 13.9202C14.8004 9.2442 18.9933 5.76001 23.9999 5.76001C29.0515 5.76001 33.2746 9.30707 34.3145 14.0464C35.5253 14.1358 36.4799 15.1464 36.4799 16.38C36.4799 17.6229 35.5108 18.6395 34.287 18.7155Z" fill="#343D6D"/>
<path fill-rule="evenodd" clip-rule="evenodd" d="M11.1306 25.3137C11.5863 25.0071 12.2029 25.1164 12.5255 25.5608C13.377 26.734 14.2432 27.7836 15.1185 28.7228C16.0986 29.6017 17.1298 30.2305 18.1833 30.6634C20.2166 31.4988 22.4071 31.6341 24.5945 31.3297C28.9997 30.7167 33.2248 28.3439 35.6696 26.6944C36.1365 26.3794 36.7705 26.5025 37.0856 26.9695C37.4007 27.4365 37.2775 28.0704 36.8105 28.3855C34.2753 30.0961 29.7404 32.6733 24.8756 33.3502C23.582 33.5303 22.2536 33.5775 20.9272 33.4335C22.2026 34.179 23.4722 34.7566 24.7201 35.2051C28.7599 36.6571 32.6307 36.78 35.88 36.78C36.4434 36.78 36.9 37.2366 36.9 37.8C36.9 38.3633 36.4434 38.82 35.88 38.82C32.5894 38.82 28.4202 38.7028 24.03 37.1249C20.5916 35.889 17.0538 33.7712 13.6873 30.1791C12.6617 29.2468 11.7036 28.0961 10.834 26.6989C10.5439 26.2326 10.675 25.6203 11.1306 25.3137Z" fill="#343D6D"/>
<path fill-rule="evenodd" clip-rule="evenodd" d="M18.4146 13.8835C18.6999 13.7149 19.0678 13.8094 19.2365 14.0947C19.4382 14.4359 19.7789 14.7698 20.1279 14.8571C20.2829 14.8958 20.4567 14.8918 20.6624 14.796C20.8784 14.6953 21.1574 14.4795 21.4763 14.045C21.6723 13.7779 22.0478 13.7203 22.315 13.9163C22.5821 14.1124 22.6397 14.4879 22.4437 14.755C22.0448 15.2985 21.6201 15.6736 21.1693 15.8837C20.7082 16.0985 20.2521 16.1251 19.8368 16.0212C19.0451 15.8232 18.4836 15.1791 18.2035 14.7054C18.0348 14.4201 18.1294 14.0522 18.4146 13.8835Z" fill="#343D6D"/>
<path fill-rule="evenodd" clip-rule="evenodd" d="M25.7347 13.8835C26.0199 13.7149 26.3879 13.8094 26.5565 14.0947C26.7583 14.4359 27.099 14.7698 27.448 14.8571C27.603 14.8958 27.7768 14.8918 27.9825 14.796C28.1984 14.6953 28.4774 14.4795 28.7963 14.045C28.9924 13.7779 29.3679 13.7203 29.635 13.9163C29.9022 14.1124 29.9598 14.4879 29.7637 14.755C29.3649 15.2985 28.9402 15.6736 28.4893 15.8837C28.0282 16.0985 27.5721 16.1251 27.1568 16.0212C26.3651 15.8232 25.8036 15.1791 25.5236 14.7054C25.3549 14.4201 25.4494 14.0522 25.7347 13.8835Z" fill="#343D6D"/>
<path fill-rule="evenodd" clip-rule="evenodd" d="M27.4464 21.4246L27.6379 21.3445C28.1098 21.1473 28.4835 20.5293 28.3061 19.7907C28.1087 18.9689 27.3911 18.6038 26.844 18.7352C26.5587 18.8038 26.3125 18.9931 26.1521 19.2805L25.8958 19.7397L23.5259 20.309L23.089 20.0163C22.8156 19.833 22.5103 19.7762 22.225 19.8448C21.6779 19.9762 21.2044 20.6273 21.4018 21.4491C21.5792 22.1877 22.1928 22.5686 22.7028 22.53L22.9097 22.5143L23.1099 22.569C23.131 22.5748 23.785 22.7494 25.2792 22.3905C26.7737 22.0315 27.2769 21.5788 27.2929 21.5643L27.4464 21.4246ZM22.7935 23.7265C21.638 23.8141 20.5358 22.9819 20.235 21.7294C19.9038 20.3505 20.6693 18.9843 21.9448 18.6779C22.5839 18.5244 23.2299 18.6662 23.757 19.0193L25.1042 18.6957C25.4134 18.1417 25.9245 17.722 26.5637 17.5684C27.8392 17.2621 29.1417 18.1315 29.4729 19.5105C29.7737 20.7629 29.1698 22.0049 28.1007 22.4517C27.915 22.6207 27.2221 23.1579 25.5595 23.5573C23.8971 23.9566 23.0358 23.7928 22.7935 23.7265Z" fill="#343D6D"/>
<path d="M23.2387 21.672C23.1125 21.1468 23.436 20.6188 23.9612 20.4927L25.5914 20.1011C26.1166 19.9749 26.6447 20.2984 26.7708 20.8236V20.8236C26.897 21.3488 26.5735 21.8769 26.0483 22.003L24.418 22.3946C23.8928 22.5207 23.3648 22.1972 23.2387 21.672V21.672Z" fill="#343D6D"/>
<path fill-rule="evenodd" clip-rule="evenodd" d="M25.7131 24.1965C26.7568 23.9458 27.27 23.0776 27.1061 22.3955C26.9423 21.7134 26.0908 21.1729 25.047 21.4236C24.0033 21.6743 23.4901 22.5426 23.654 23.2247C23.8178 23.9068 24.6693 24.4472 25.7131 24.1965ZM25.8532 24.7799C27.1287 24.4736 27.9508 23.3433 27.6895 22.2554C27.4282 21.1674 26.1824 20.5339 24.9069 20.8402C23.6314 21.1466 22.8092 22.2769 23.0706 23.3648C23.3319 24.4527 24.5777 25.0863 25.8532 24.7799Z" fill="#343D6D"/>
</g>
<defs>
<clipPath id="clip0_125_581">
<rect width="48" height="48" fill="white"/>
</clipPath>
</defs>
</svg>
