<svg width="48" height="48" viewBox="0 0 48 48" fill="none" xmlns="http://www.w3.org/2000/svg">
<g clip-path="url(#clip0_140_1173)">
<path fill-rule="evenodd" clip-rule="evenodd" d="M27.114 2.04H8.16001C7.16589 2.04 6.36001 2.84589 6.36001 3.84V44.28C6.36001 45.2741 7.1659 46.08 8.16001 46.08H39.8509C40.845 46.08 41.6509 45.2741 41.6509 44.28V16.62H31.974C29.2899 16.62 27.114 14.4441 27.114 11.76V2.04ZM43.6909 15.6V44.28C43.6909 46.4008 41.9717 48.12 39.8509 48.12H8.16001C6.03923 48.12 4.32001 46.4008 4.32001 44.28V3.84C4.32001 1.71923 6.03923 0 8.16001 0H28.134L43.6909 15.6ZM39.7927 14.58L29.154 3.91182V11.76C29.154 13.3174 30.4166 14.58 31.974 14.58H39.7927Z" fill="#343D6D"/>
<path fill-rule="evenodd" clip-rule="evenodd" d="M12.6135 22.0138C12.6135 21.4505 13.0702 20.9938 13.6335 20.9938H34.3773C34.9407 20.9938 35.3973 21.4505 35.3973 22.0138C35.3973 22.5772 34.9407 23.0338 34.3773 23.0338H13.6335C13.0702 23.0338 12.6135 22.5772 12.6135 22.0138Z" fill="#343D6D"/>
<path fill-rule="evenodd" clip-rule="evenodd" d="M12.6135 29.4929C12.6135 28.9296 13.0702 28.4729 13.6335 28.4729H34.3773C34.9407 28.4729 35.3973 28.9296 35.3973 29.4929C35.3973 30.0562 34.9407 30.5129 34.3773 30.5129H13.6335C13.0702 30.5129 12.6135 30.0562 12.6135 29.4929Z" fill="#343D6D"/>
<path fill-rule="evenodd" clip-rule="evenodd" d="M12.6135 37.1131C12.6135 36.5497 13.0702 36.0931 13.6335 36.0931H34.3773C34.9407 36.0931 35.3973 36.5497 35.3973 37.1131C35.3973 37.6764 34.9407 38.1331 34.3773 38.1331H13.6335C13.0702 38.1331 12.6135 37.6764 12.6135 37.1131Z" fill="#343D6D"/>
</g>
<defs>
<clipPath id="clip0_140_1173">
<rect width="48" height="48" fill="white"/>
</clipPath>
</defs>
</svg>
