<svg width="48" height="48" viewBox="0 0 48 48" fill="none" xmlns="http://www.w3.org/2000/svg">
<path fill-rule="evenodd" clip-rule="evenodd" d="M46.8155 21.5455L26.8189 36.6775C25.0804 37.9931 22.6786 37.99 20.9435 36.6699L1.06238 21.5439L2.2976 19.9203L22.1787 35.0464C23.1855 35.8124 24.5792 35.8142 25.5879 35.0508L45.5845 19.9187L46.8155 21.5455Z" fill="#343D6D"/>
<path fill-rule="evenodd" clip-rule="evenodd" d="M47.2955 43.9328L31.1555 31.7191L29.9245 33.3459L46.0645 45.5596L47.2955 43.9328ZM16.9024 32.2482L1.54236 43.9344L2.77758 45.558L18.1376 33.8717L16.9024 32.2482Z" fill="#343D6D"/>
<path fill-rule="evenodd" clip-rule="evenodd" d="M43.68 19.44H4.32C3.06079 19.44 2.04 20.4608 2.04 21.72V43.6434C2.04 44.9026 3.06079 45.9234 4.32 45.9234H43.68C44.9392 45.9234 45.96 44.9026 45.96 43.6434V21.72C45.96 20.4608 44.9392 19.44 43.68 19.44ZM4.32 17.4C1.93413 17.4 0 19.3341 0 21.72V43.6434C0 46.0293 1.93413 47.9634 4.32 47.9634H43.68C46.0659 47.9634 48 46.0293 48 43.6434V21.72C48 19.3341 46.0659 17.4 43.68 17.4H4.32Z" fill="#343D6D"/>
</svg>
