<svg width="24" height="24" viewBox="0 0 24 24" fill="none" xmlns="http://www.w3.org/2000/svg">
<path fill-rule="evenodd" clip-rule="evenodd" d="M23.4078 6.07273L13.4095 13.6388C12.5403 14.2966 11.3394 14.295 10.4718 13.635L0.53125 6.07193L1.14886 5.26017L11.0894 12.8232C11.5928 13.2062 12.2896 13.2071 12.794 12.8254L22.7923 5.25937L23.4078 6.07273Z" fill="white"/>
<path fill-rule="evenodd" clip-rule="evenodd" d="M23.6478 17.2664L15.5778 11.1596L14.9623 11.9729L23.0323 18.0798L23.6478 17.2664ZM8.45124 11.4241L0.77124 17.2672L1.38885 18.079L9.06885 12.2358L8.45124 11.4241Z" fill="white"/>
<path fill-rule="evenodd" clip-rule="evenodd" d="M21.84 5.02H2.16C1.5304 5.02 1.02 5.5304 1.02 6.16V17.1217C1.02 17.7513 1.5304 18.2617 2.16 18.2617H21.84C22.4696 18.2617 22.98 17.7513 22.98 17.1217V6.16C22.98 5.5304 22.4696 5.02 21.84 5.02ZM2.16 4C0.967065 4 0 4.96707 0 6.16V17.1217C0 18.3146 0.967064 19.2817 2.16 19.2817H21.84C23.0329 19.2817 24 18.3146 24 17.1217V6.16C24 4.96706 23.0329 4 21.84 4H2.16Z" fill="white"/>
</svg>
