<svg width="48" height="48" viewBox="0 0 48 48" fill="none" xmlns="http://www.w3.org/2000/svg">
<g clip-path="url(#clip0_123_570)">
<path fill-rule="evenodd" clip-rule="evenodd" d="M0.0600586 24.0001C0.0600121 10.8307 10.8307 0.0600586 24.0001 0.0600586C37.759 0.0600586 47.9401 10.8475 47.9401 24.0001C47.9401 37.1694 37.1694 47.9401 24.0001 47.9401C23.4367 47.9401 22.9801 47.4834 22.9801 46.9201C22.9801 46.3567 23.4367 45.9001 24.0001 45.9001C36.0427 45.9001 45.9001 36.0427 45.9001 24.0001C45.9001 11.9406 36.5991 2.10006 24.0001 2.10006C11.9574 2.10006 2.10002 11.9574 2.10006 24.0001C2.10006 33.0486 7.66554 40.8681 14.9684 44.1947C16.6061 44.9408 17.9128 45.2703 18.9322 45.2277C19.8753 45.1884 20.6082 44.8326 21.2079 44.0599C23.1242 40.9505 23.1779 37.7516 22.9939 36.6477C22.9013 36.0921 23.2767 35.5666 23.8324 35.4739C24.388 35.3813 24.9136 35.7567 25.0062 36.3124C25.2614 37.8436 25.1517 41.581 22.9145 45.1787L22.8896 45.2187L22.8611 45.2563C21.8781 46.5528 20.5652 47.2014 19.0173 47.266C17.5311 47.328 15.8803 46.8518 14.1227 46.0512C6.12322 42.4072 0.0600586 33.8812 0.0600586 24.0001Z" fill="#343D6D"/>
<path fill-rule="evenodd" clip-rule="evenodd" d="M15.3195 19.1054C15.3195 18.5421 15.7761 18.0854 16.3395 18.0854H31.7744C32.3377 18.0854 32.7944 18.5421 32.7944 19.1054C32.7944 19.6687 32.3377 20.1254 31.7744 20.1254H31.6201V31.8156C31.6201 33.8038 30.0083 35.4156 28.0201 35.4156H25.5654L25.6161 36.9416C25.6447 37.8027 24.9699 38.5239 24.1088 38.5526C23.2477 38.5812 22.5264 37.9063 22.4978 37.0452L22.4436 35.4156H20.0938C18.1056 35.4156 16.4938 33.8038 16.4938 31.8156V20.1254H16.3395C15.7761 20.1254 15.3195 19.6687 15.3195 19.1054ZM29.8201 20.1254H18.2938V31.8156C18.2938 32.8097 19.0997 33.6156 20.0938 33.6156H28.0201C29.0142 33.6156 29.8201 32.8097 29.8201 31.8156V20.1254Z" fill="#343D6D"/>
<path fill-rule="evenodd" clip-rule="evenodd" d="M19.5599 9.42004C20.057 9.42004 20.4599 9.82299 20.4599 10.32V19.08C20.4599 19.5771 20.057 19.98 19.5599 19.98C19.0629 19.98 18.6599 19.5771 18.6599 19.08V10.32C18.6599 9.82299 19.0629 9.42004 19.5599 9.42004Z" fill="#343D6D"/>
<path fill-rule="evenodd" clip-rule="evenodd" d="M28.6799 9.42004C29.177 9.42004 29.5799 9.82299 29.5799 10.32V19.08C29.5799 19.5771 29.177 19.98 28.6799 19.98C28.1829 19.98 27.7799 19.5771 27.7799 19.08V10.32C27.7799 9.82299 28.1829 9.42004 28.6799 9.42004Z" fill="#343D6D"/>
<path d="M21.1554 27.338L25.2432 22.2123C25.3289 22.1049 25.4985 22.2023 25.449 22.3304L24.0343 25.9873H26.8675C26.9686 25.9873 27.0244 26.1047 26.9605 26.1831L22.7637 31.3336C22.6774 31.4395 22.5094 31.3419 22.5587 31.2145L23.9829 27.5328H21.2493C21.1487 27.5328 21.0928 27.4166 21.1554 27.338Z" fill="#343D6D"/>
</g>
<defs>
<clipPath id="clip0_123_570">
<rect width="48" height="48" fill="white"/>
</clipPath>
</defs>
</svg>
