<svg width="48" height="48" viewBox="0 0 48 48" fill="none" xmlns="http://www.w3.org/2000/svg">
<g clip-path="url(#clip0_123_567)">
<mask id="mask0_123_567" style="mask-type:alpha" maskUnits="userSpaceOnUse" x="0" y="0" width="49" height="49">
<path fill-rule="evenodd" clip-rule="evenodd" d="M24.06 48.12C37.348 48.12 48.12 37.348 48.12 24.06C48.12 10.772 37.348 0 24.06 0C10.772 0 0 10.772 0 24.06C0 37.348 10.772 48.12 24.06 48.12ZM24.06 30.96C27.8708 30.96 30.96 27.8708 30.96 24.06C30.96 20.2492 27.8708 17.16 24.06 17.16C20.2492 17.16 17.16 20.2492 17.16 24.06C17.16 27.8708 20.2492 30.96 24.06 30.96Z" fill="#C4C4C4"/>
</mask>
<g mask="url(#mask0_123_567)">
<path fill-rule="evenodd" clip-rule="evenodd" d="M20.7495 19.284C19.5885 17.7245 18.7417 15.5464 19.5175 12.6511C19.6749 12.0637 19.8849 11.4047 20.0874 10.7692L20.1028 10.7209C20.3163 10.0509 20.5275 9.38611 20.7077 8.73551C21.0551 7.48114 21.181 6.62072 21.1428 6.13537C21.096 6.13654 21.041 6.13962 20.977 6.14559C19.9838 6.23828 18.047 6.90517 14.666 8.84766C9.75081 11.6716 7.31289 16.729 8.04772 20.4468C8.39803 22.2192 9.48103 23.858 11.6691 25.0063C13.1783 25.7984 15.2543 26.3738 18.0112 26.5262C17.5924 25.2893 17.6211 23.9862 17.9759 22.8237C18.4129 21.392 19.3908 20.0793 20.7495 19.284ZM22.7882 18.5628C21.7274 17.3479 20.8183 15.6785 21.488 13.1791C21.6329 12.6383 21.8305 12.0182 22.0397 11.3616C23.5224 6.70829 25.5902 0.21859 13.6497 7.07882C3.37623 12.9813 1.44866 28.4618 19.2537 28.6051C20.3436 28.6139 21.5074 28.5652 22.7477 28.4533C21.5366 28.0445 20.7269 27.3587 20.2564 26.5568C19.0695 24.5343 20.0393 21.773 22.1631 20.8528C22.9202 20.5248 23.8238 20.4307 24.8286 20.6873C24.6323 20.3865 24.2861 20.0575 23.884 19.6755C23.5399 19.3486 23.155 18.9828 22.7882 18.5628ZM21.3718 6.15111C21.3718 6.15116 21.3703 6.15077 21.3674 6.14978C21.3704 6.15057 21.3719 6.15106 21.3718 6.15111Z" fill="#343D6D"/>
<path fill-rule="evenodd" clip-rule="evenodd" d="M30.0457 23.8914C31.9767 23.6656 34.2864 24.0214 36.4059 26.1408C36.8359 26.5709 37.3016 27.0822 37.7507 27.5753L37.7848 27.6128C38.2584 28.1327 38.7284 28.648 39.2018 29.1294C40.1144 30.0575 40.7966 30.5966 41.236 30.8063C41.2584 30.7651 41.2833 30.7159 41.3101 30.6576C41.7264 29.7511 42.1173 27.7403 42.1255 23.841C42.1375 18.1724 38.9767 13.5324 35.3895 12.3099C33.6794 11.727 31.7186 11.8455 29.6302 13.1663C28.1896 14.0773 26.6533 15.5874 25.1429 17.8989C26.4234 18.1545 27.5377 18.831 28.367 19.7195C29.3883 20.8138 30.0363 22.317 30.0457 23.8914ZM29.6508 26.0175C31.2334 25.7063 33.1337 25.7537 34.9634 27.5833C35.3593 27.9792 35.7975 28.4604 36.2616 28.9699C39.5501 32.5806 44.1364 37.6162 44.1655 23.8453C44.1905 11.997 31.7478 2.5874 22.7212 17.9353C22.1687 18.8748 21.6289 19.9071 21.1056 21.0372C22.0653 20.1927 23.064 19.8344 23.9938 19.8279C26.3387 19.8113 28.2452 22.0318 27.9802 24.3312C27.8858 25.1508 27.5154 25.9804 26.7908 26.7223C27.1494 26.7027 27.6075 26.5673 28.1394 26.4101C28.5945 26.2756 29.1037 26.1251 29.6508 26.0175ZM41.1079 30.9968C41.1079 30.9967 41.109 30.9956 41.1112 30.9936C41.109 30.9958 41.1079 30.9968 41.1079 30.9968Z" fill="#343D6D"/>
<path fill-rule="evenodd" clip-rule="evenodd" d="M21.3733 29.353C20.6033 31.1382 19.1403 32.9606 16.2451 33.7364C15.6576 33.8938 14.982 34.0414 14.3303 34.1838L14.2809 34.1946C13.5938 34.3447 12.9125 34.4942 12.259 34.6634C10.9989 34.9897 10.1909 35.311 9.7896 35.5867C9.81406 35.6267 9.84422 35.6728 9.88137 35.7252C10.4583 36.539 12.0042 37.8829 15.3769 39.8396C20.2802 42.6843 25.8789 42.267 28.7312 39.7717C30.091 38.5821 30.9688 36.8248 30.8692 34.3557C30.8005 32.6526 30.2608 30.5671 29.0144 28.1033C28.1527 29.0845 27.0097 29.7112 25.8255 29.9851C24.3672 30.3225 22.7414 30.1321 21.3733 29.353ZM19.7294 27.948C19.2076 29.4741 18.2164 31.0962 15.7171 31.7659C15.1763 31.9108 14.5405 32.0497 13.8672 32.1969C9.09601 33.2395 2.44186 34.6935 14.3532 41.6042C24.6017 47.55 38.972 41.4791 30.1936 25.9878C29.6562 25.0396 29.0321 24.056 28.3151 23.0378C28.5666 24.2911 28.3775 25.3352 27.9183 26.1437C26.7602 28.1827 23.884 28.7235 22.0251 27.3443C21.3625 26.8527 20.8292 26.1172 20.549 25.1187C20.3867 25.4391 20.2749 25.9035 20.1451 26.4427C20.034 26.9041 19.9098 27.4203 19.7294 27.948ZM9.68873 35.3805C9.6888 35.3805 9.68922 35.382 9.68981 35.385C9.68896 35.3819 9.68867 35.3805 9.68873 35.3805Z" fill="#343D6D"/>
</g>
<path fill-rule="evenodd" clip-rule="evenodd" d="M24.06 46.08C36.2213 46.08 46.08 36.2213 46.08 24.06C46.08 11.8987 36.2213 2.04 24.06 2.04C11.8987 2.04 2.04 11.8987 2.04 24.06C2.04 36.2213 11.8987 46.08 24.06 46.08ZM24.06 48.12C37.348 48.12 48.12 37.348 48.12 24.06C48.12 10.772 37.348 0 24.06 0C10.772 0 0 10.772 0 24.06C0 37.348 10.772 48.12 24.06 48.12Z" fill="#343D6D"/>
<path fill-rule="evenodd" clip-rule="evenodd" d="M24.06 28.92C26.7441 28.92 28.92 26.7441 28.92 24.06C28.92 21.3759 26.7441 19.2 24.06 19.2C21.3759 19.2 19.2 21.3759 19.2 24.06C19.2 26.7441 21.3759 28.92 24.06 28.92ZM24.06 30.96C27.8708 30.96 30.96 27.8708 30.96 24.06C30.96 20.2493 27.8708 17.16 24.06 17.16C20.2493 17.16 17.16 20.2493 17.16 24.06C17.16 27.8708 20.2493 30.96 24.06 30.96Z" fill="#343D6D"/>
<path fill-rule="evenodd" clip-rule="evenodd" d="M23.8899 21.2952C23.9497 20.9693 24.2625 20.7536 24.5884 20.8134C25.4396 20.9698 26.1727 21.4577 26.6506 22.1363C27.0219 22.6636 27.24 23.3072 27.24 24C27.24 24.3314 26.9714 24.6 26.64 24.6C26.3086 24.6 26.04 24.3314 26.04 24C26.04 23.5625 25.903 23.1588 25.6694 22.8272C25.3672 22.398 24.9048 22.0916 24.3716 21.9937C24.0457 21.9338 23.83 21.6211 23.8899 21.2952ZM22.1855 21.9912C22.4564 22.182 22.5214 22.5563 22.3306 22.8272C22.097 23.1588 21.96 23.5625 21.96 24C21.96 24.4314 22.0932 24.8298 22.3207 25.1587C22.6899 25.6924 23.3044 26.04 24 26.04C24.3314 26.04 24.6 26.3087 24.6 26.64C24.6 26.9714 24.3314 27.24 24 27.24C22.8939 27.24 21.9175 26.6852 21.3338 25.8414C20.972 25.3183 20.76 24.683 20.76 24C20.76 23.3072 20.9781 22.6636 21.3494 22.1363C21.5402 21.8654 21.9145 21.8004 22.1855 21.9912Z" fill="#343D6D"/>
</g>
<defs>
<clipPath id="clip0_123_567">
<rect width="48" height="48" fill="white"/>
</clipPath>
</defs>
</svg>
