<svg width="148" height="30" viewBox="0 0 148 30" fill="none" xmlns="http://www.w3.org/2000/svg">
<path d="M15.5806 0L18.8594 10.0911H29.4699L20.8858 16.3278L24.1647 26.419L15.5806 20.1823L6.99657 26.419L10.2754 16.3278L1.69134 10.0911H12.3018L15.5806 0Z" fill="#1B2C8C"/>
<path d="M44.7876 0L48.0665 10.0911H58.6769L50.0929 16.3278L53.3717 26.419L44.7876 20.1823L36.2036 26.419L39.4824 16.3278L30.8984 10.0911H41.5088L44.7876 0Z" fill="#1B2C8C"/>
<path d="M73.9986 0L77.2774 10.0911H87.8879L79.3038 16.3278L82.5826 26.419L73.9986 20.1823L65.4145 26.419L68.6933 16.3278L60.1093 10.0911H70.7198L73.9986 0Z" fill="#1B2C8C"/>
<path d="M103.206 0L106.484 10.0911H117.095L108.511 16.3278L111.79 26.419L103.206 20.1823L94.6216 26.419L97.9004 16.3278L89.3163 10.0911H99.9268L103.206 0Z" fill="#1B2C8C"/>
<path d="M132.417 0L135.695 10.0911H146.306L137.722 16.3278L141.001 26.419L132.417 20.1823L123.833 26.419L127.111 16.3278L118.527 10.0911H129.138L132.417 0Z" fill="#1B2C8C"/>
</svg>
