<svg width="48" height="48" viewBox="0 0 48 48" fill="none" xmlns="http://www.w3.org/2000/svg">
<path d="M43.8873 18.7838C43.2814 16.1827 41.7354 14.0854 39.5344 12.8786C37.9711 12.0204 35.6717 11.4489 33.3844 11.3491C28.9703 11.1521 16.8156 6.94436 15.1619 6.36604L12.142 0.772994C12.0044 0.518429 11.7402 0.359985 11.453 0.359985C11.453 0.359985 11.453 0.359985 11.4525 0.359985C11.1653 0.359985 10.9005 0.518957 10.7635 0.77405L3.93538 13.4606C3.79778 13.7157 3.80982 14.0262 3.96625 14.2697C4.11169 14.4963 4.3602 14.6315 4.62441 14.6315C4.64482 14.6315 4.6647 14.631 4.68458 14.6294L11.2171 14.1224C13.0676 15.6619 22.2322 23.3285 25.0443 26.4968C25.8782 27.4353 26.4276 28.1346 26.8681 28.697C26.9225 28.7668 26.9727 28.8296 27.0251 28.8956L20.3989 41.2119C20.1923 41.5964 20.3335 42.077 20.7139 42.2862L22.1427 43.0699L20.3147 46.4696C20.108 46.8546 20.2493 47.3352 20.6302 47.5439C20.7495 47.6094 20.8776 47.64 21.0037 47.64C21.2821 47.64 21.552 47.49 21.6943 47.2254L23.5223 43.8263L24.9512 44.61C25.0673 44.6739 25.196 44.7061 25.3258 44.7061C25.4006 44.7061 25.4754 44.6951 25.5486 44.6734C25.748 44.6137 25.9159 44.4764 26.0153 44.2915L32.5284 32.1886C32.9313 32.2462 33.3383 32.2784 33.749 32.2784C34.8032 32.2784 35.8768 32.0877 36.9342 31.7043C39.3931 30.8128 41.4691 28.9796 42.7808 26.5438C44.0924 24.108 44.4853 21.3516 43.8873 18.7838ZM11.4546 2.80952L13.7095 6.98503L10.7033 12.5723L6.00405 12.9367L11.4546 2.80952ZM25.0113 42.8392L23.5888 42.0591C23.5862 42.0575 23.5846 42.0559 23.5825 42.0549C23.5804 42.0538 23.5778 42.0533 23.5752 42.0517L22.1532 41.2716L28.1342 30.1547C28.5329 30.5292 28.9969 30.8704 29.6598 31.2332C30.0768 31.4619 30.5089 31.6499 30.95 31.8036L25.0113 42.8392ZM41.4022 25.7875C40.2747 27.8816 38.5001 29.4533 36.4042 30.2139C34.3392 30.9622 32.2103 30.8297 30.409 29.841C29.2889 29.2278 28.9404 28.7842 28.0997 27.712C27.6456 27.1327 27.08 26.4123 26.2141 25.4379C23.3241 22.1818 14.3253 14.651 12.2844 12.9541L14.9641 7.97266C17.5345 8.86839 28.8484 12.7318 33.3164 12.9314C35.3772 13.0212 37.4218 13.5219 38.7857 14.2702C40.5886 15.2584 41.8579 16.9897 42.3601 19.1455C42.8692 21.3352 42.5291 23.6939 41.4022 25.7875Z" fill="#343D6D"/>
<path fill-rule="evenodd" clip-rule="evenodd" d="M37.7357 16.8557C37.97 16.6214 38.3499 16.6214 38.5842 16.8557C41.6185 19.89 40.663 23.0869 39.7221 24.3571C39.5248 24.6234 39.1491 24.6794 38.8828 24.4821C38.6165 24.2849 38.5606 23.9091 38.7578 23.6429C39.4169 22.7531 40.2694 20.238 37.7357 17.7043C37.5014 17.4699 37.5014 17.09 37.7357 16.8557Z" fill="#343D6D"/>
</svg>
