<svg width="48" height="48" viewBox="0 0 48 48" fill="none" xmlns="http://www.w3.org/2000/svg">
<g clip-path="url(#clip0_123_573)">
<mask id="mask0_123_573" style="mask-type:alpha" maskUnits="userSpaceOnUse" x="0" y="0" width="48" height="48">
<path fill-rule="evenodd" clip-rule="evenodd" d="M48 0L0 0L0 48H48V0ZM36.028 11.5845L10.3187 34.5778L11.9258 36.3748L37.6351 13.3814L36.028 11.5845Z" fill="#D9D9D9"/>
</mask>
<g mask="url(#mask0_123_573)">
<path fill-rule="evenodd" clip-rule="evenodd" d="M21.24 23.56V23.56C21.24 25.5006 21.97 27.9394 22.9276 29.951C23.2925 30.7176 23.6652 31.3682 24 31.8617C24.3347 31.3682 24.7074 30.7176 25.0723 29.951C26.0299 27.9394 26.76 25.5006 26.76 23.56C26.76 21.0088 26.2637 18.8251 25.5561 17.3559C24.7812 15.747 24.101 15.6 24 15.6C23.8989 15.6 23.2186 15.747 22.4438 17.3559C21.7362 18.8251 21.2399 21.0088 21.24 23.56ZM23.3209 32.6915C23.2817 32.723 23.2829 32.7155 23.3213 32.6912C23.3212 32.6913 23.321 32.6914 23.3209 32.6915ZM24.6786 32.6912C24.717 32.7155 24.7182 32.723 24.679 32.6915C24.6789 32.6914 24.6787 32.6913 24.6786 32.6912ZM19.2 23.56C19.2 28.2743 22.6285 34.56 24 34.56C25.3714 34.56 28.8 28.2743 28.8 23.56C28.8 17.9886 26.6509 13.56 24 13.56C21.349 13.56 19.1999 17.9886 19.2 23.56Z" fill="#343D6D"/>
<path fill-rule="evenodd" clip-rule="evenodd" d="M22.9954 3.14629C22.9901 3.15647 22.9848 3.16665 22.9794 3.17682C16.0201 16.5095 16.0202 31.4905 22.9793 44.8232C22.9847 44.8334 22.99 44.8435 22.9953 44.8537C23.0734 45.003 23.1523 45.1521 23.2321 45.301C23.3494 45.5197 23.4685 45.7379 23.5895 45.9557C23.7689 46.2786 24.2309 46.2786 24.4103 45.9557C24.5313 45.7379 24.6504 45.5197 24.7676 45.301C24.8475 45.1521 24.9264 45.003 25.0045 44.8537C25.0098 44.8435 25.0151 44.8334 25.0204 44.8232C31.9798 31.4905 31.9798 16.5095 25.0205 3.17683C25.0152 3.16665 25.0099 3.15647 25.0046 3.1463C24.9265 2.99698 24.8476 2.84788 24.7678 2.69898C24.6505 2.4803 24.5314 2.26208 24.4104 2.04432C24.231 1.72143 23.769 1.72143 23.5896 2.04432C23.4686 2.26207 23.3495 2.4803 23.2322 2.69898C23.1524 2.84788 23.0735 2.99698 22.9954 3.14629ZM25.9838 1.17005C34.0587 15.7024 34.0587 32.2977 25.9837 46.83C25.1185 48.3872 22.8813 48.3871 22.016 46.8299C13.9413 32.2977 13.9412 15.7023 22.0161 1.17004C22.8814 -0.387159 25.1186 -0.387136 25.9838 1.17005Z" fill="#343D6D"/>
</g>
<path fill-rule="evenodd" clip-rule="evenodd" d="M3.089 42.5254L4.247 43.7279C4.62504 44.1204 5.24973 44.1322 5.64227 43.7541L10.6277 38.9529C11.3523 38.2551 11.374 37.102 10.6762 36.3774C9.9784 35.6528 8.82531 35.6311 8.10072 36.3289L3.11526 41.1301C2.72272 41.5082 2.71096 42.1329 3.089 42.5254ZM2.77761 45.143C3.93718 46.347 5.85329 46.3831 7.05736 45.2235L12.0428 40.4223C13.5789 38.943 13.625 36.4985 12.1456 34.9624C10.6663 33.4262 8.22175 33.3802 6.68563 34.8596L1.70018 39.6608C0.496103 40.8203 0.460029 42.7364 1.6196 43.9405L2.77761 45.143Z" fill="#343D6D"/>
<path fill-rule="evenodd" clip-rule="evenodd" d="M44.8763 5.51057L43.7136 4.31273C43.334 3.92168 42.7092 3.9124 42.3182 4.29199L37.3518 9.11294C36.63 9.81363 36.6129 10.9668 37.3136 11.6886C38.0143 12.4104 39.1674 12.4276 39.8892 11.7269L44.8556 6.90593C45.2466 6.52634 45.2559 5.90161 44.8763 5.51057ZM45.1773 2.89182C44.013 1.69236 42.0967 1.66389 40.8973 2.82823L35.9309 7.64918C34.4007 9.13461 34.3644 11.5793 35.8498 13.1095C37.3352 14.6398 39.7799 14.6761 41.3102 13.1906L46.2765 8.3697C47.476 7.20536 47.5044 5.28912 46.3401 4.08966L45.1773 2.89182Z" fill="#343D6D"/>
<path fill-rule="evenodd" clip-rule="evenodd" d="M35.9523 12.94L11.6741 34.6534L12.0013 35.0192L36.2795 13.3058L35.9523 12.94ZM10.3186 34.5779L11.9257 36.3748L37.635 13.3814L36.0279 11.5845L10.3186 34.5779Z" fill="#343D6D"/>
</g>
<defs>
<clipPath id="clip0_123_573">
<rect width="48" height="48" fill="white"/>
</clipPath>
</defs>
</svg>
