<svg width="48" height="48" viewBox="0 0 48 48" fill="none" xmlns="http://www.w3.org/2000/svg">
<g clip-path="url(#clip0_123_560)">
<path d="M24 43.1563C20.9794 43.1563 18.0265 42.2606 15.515 40.5824C13.0034 38.9042 11.0458 36.5189 9.88987 33.7282C8.73391 30.9375 8.43146 27.8666 9.02076 24.904C9.61006 21.9414 11.0647 19.2201 13.2006 17.0841C15.3365 14.9482 18.0578 13.4936 21.0205 12.9043C23.9831 12.315 27.0539 12.6175 29.8446 13.7734C32.6354 14.9294 35.0207 16.8869 36.6988 19.3985C38.377 21.9101 39.2728 24.8629 39.2728 27.8836C39.2684 31.9328 37.6579 35.815 34.7947 38.6782C31.9314 41.5415 28.0493 43.152 24 43.1563ZM24 14.7927C21.4109 14.7927 18.8799 15.5604 16.7271 16.9989C14.5743 18.4373 12.8964 20.4819 11.9056 22.8739C10.9148 25.266 10.6555 27.8981 11.1607 30.4375C11.6658 32.9769 12.9126 35.3094 14.7434 37.1402C16.5742 38.971 18.9067 40.2178 21.4461 40.7229C23.9855 41.2281 26.6177 40.9688 29.0097 39.978C31.4018 38.9872 33.4463 37.3093 34.8847 35.1565C36.3232 33.0037 37.0909 30.4727 37.0909 27.8836C37.0872 24.4128 35.7068 21.0853 33.2526 18.631C30.7983 16.1768 27.4708 14.7964 24 14.7927V14.7927Z" fill="#343D6D"/>
<path d="M24 17.4546C21.8424 17.4546 19.7333 18.0944 17.9393 19.2931C16.1453 20.4918 14.747 22.1956 13.9214 24.189C13.0957 26.1823 12.8796 28.3758 13.3006 30.4919C13.7215 32.6081 14.7605 34.5519 16.2861 36.0776C17.8118 37.6032 19.7556 38.6422 21.8718 39.0632C23.9879 39.4841 26.1814 39.2681 28.1748 38.4424C30.1681 37.6167 31.8719 36.2184 33.0706 34.4244C34.2693 32.6305 34.9091 30.5213 34.9091 28.3637C34.906 25.4714 33.7556 22.6985 31.7104 20.6533C29.6653 18.6081 26.8923 17.4578 24 17.4546ZM24 19.6364C26.2482 19.6391 28.4087 20.5093 30.0311 22.0657C31.6534 23.622 32.6127 25.7444 32.7088 27.9906C31.2146 27.4367 29.6224 27.1966 28.0313 27.2852C26.4403 27.3738 24.8846 27.7892 23.4611 28.5055C22.1873 29.1275 20.7886 29.4513 19.371 29.4524C17.9534 29.4536 16.5542 29.132 15.2793 28.512C15.2793 28.4619 15.2717 28.4139 15.2717 28.3637C15.2743 26.0497 16.1947 23.8312 17.8311 22.1951C19.4674 20.5589 21.686 19.6387 24 19.6364V19.6364ZM24 37.091C22.1565 37.0881 20.3611 36.5024 18.8705 35.4178C17.3798 34.3331 16.2703 32.8049 15.7004 31.0517C16.8823 31.4416 18.1191 31.639 19.3637 31.6364C21.1654 31.6674 22.9457 31.2422 24.5389 30.4004C25.7769 29.7987 27.1322 29.4769 28.5086 29.4581C29.885 29.4392 31.2486 29.7237 32.5026 30.2913C32.0641 32.2197 30.9843 33.9422 29.4399 35.1773C27.8954 36.4125 25.9776 37.0871 24 37.091V37.091Z" fill="#343D6D"/>
<path d="M38.1818 0H9.81819C8.37209 0.00173221 6.98571 0.576962 5.96316 1.59951C4.94061 2.62206 4.36538 4.00844 4.36365 5.45455V42.5455C4.36538 43.9916 4.94061 45.3779 5.96316 46.4005C6.98571 47.423 8.37209 47.9983 9.81819 48H38.1818C39.6279 47.9983 41.0143 47.423 42.0369 46.4005C43.0594 45.3779 43.6346 43.9916 43.6364 42.5455V5.45455C43.6346 4.00844 43.0594 2.62206 42.0369 1.59951C41.0143 0.576962 39.6279 0.00173221 38.1818 0ZM38.1818 2.18182C39.0498 2.18182 39.8822 2.52662 40.496 3.14038C41.1098 3.75413 41.4546 4.58656 41.4546 5.45455V8.72727H17.4546V2.18182H38.1818ZM6.54547 5.45455C6.54547 4.58656 6.89027 3.75413 7.50402 3.14038C8.11778 2.52662 8.95021 2.18182 9.81819 2.18182H15.2727V8.72727H6.54547V5.45455ZM41.4546 42.5455C41.4546 43.4134 41.1098 44.2459 40.496 44.8596C39.8822 45.4734 39.0498 45.8182 38.1818 45.8182H9.81819C8.95021 45.8182 8.11778 45.4734 7.50402 44.8596C6.89027 44.2459 6.54547 43.4134 6.54547 42.5455V10.9091H41.4546V42.5455Z" fill="#343D6D"/>
<path d="M10.9091 6.54534C11.5116 6.54534 12.0001 6.05693 12.0001 5.45443C12.0001 4.85194 11.5116 4.36353 10.9091 4.36353C10.3067 4.36353 9.81824 4.85194 9.81824 5.45443C9.81824 6.05693 10.3067 6.54534 10.9091 6.54534Z" fill="#343D6D"/>
<path d="M37.091 6.54534H34.9091C34.6198 6.54534 34.3423 6.43041 34.1378 6.22582C33.9332 6.02124 33.8182 5.74376 33.8182 5.45443C33.8182 5.16511 33.9332 4.88763 34.1378 4.68305C34.3423 4.47846 34.6198 4.36353 34.9091 4.36353H37.091C37.3803 4.36353 37.6578 4.47846 37.8624 4.68305C38.0669 4.88763 38.1819 5.16511 38.1819 5.45443C38.1819 5.74376 38.0669 6.02124 37.8624 6.22582C37.6578 6.43041 37.3803 6.54534 37.091 6.54534Z" fill="#343D6D"/>
<path d="M30.5454 6.54534H28.3636C28.0743 6.54534 27.7968 6.43041 27.5922 6.22582C27.3876 6.02124 27.2727 5.74376 27.2727 5.45443C27.2727 5.16511 27.3876 4.88763 27.5922 4.68305C27.7968 4.47846 28.0743 4.36353 28.3636 4.36353H30.5454C30.8348 4.36353 31.1122 4.47846 31.3168 4.68305C31.5214 4.88763 31.6363 5.16511 31.6363 5.45443C31.6363 5.74376 31.5214 6.02124 31.3168 6.22582C31.1122 6.43041 30.8348 6.54534 30.5454 6.54534Z" fill="#343D6D"/>
</g>
<defs>
<clipPath id="clip0_123_560">
<rect width="48" height="48" fill="white"/>
</clipPath>
</defs>
</svg>
