<svg width="48" height="48" viewBox="0 0 48 48" fill="none" xmlns="http://www.w3.org/2000/svg">
<g clip-path="url(#clip0_209_1775)">
<path fill-rule="evenodd" clip-rule="evenodd" d="M24 25.296C21.8986 25.296 19.9152 24.3984 18.4767 22.8539C17.0428 21.3143 16.26 19.2552 16.26 17.136C16.26 15.0168 17.0428 12.9577 18.4767 11.4181C19.9152 9.87364 21.8986 8.976 24 8.976C26.1015 8.976 28.0849 9.87364 29.5234 11.4181C30.9573 12.9577 31.74 15.0168 31.74 17.136C31.74 18.1882 31.5472 19.2332 31.1694 20.2123C30.7916 21.1915 30.2345 22.0903 29.5234 22.8539C28.8119 23.6177 27.9594 24.232 27.0103 24.6541C26.0608 25.0764 25.0374 25.296 24 25.296ZM24 2.04C20.3569 2.04 16.831 3.59254 14.2074 6.40938C11.5793 9.23112 10.08 13.0873 10.08 17.136C10.08 21.8928 12.5769 27.8698 15.7624 33.4695C18.7088 38.6488 22.0709 43.2119 24 45.6955C25.9292 43.2119 29.2912 38.6488 32.2376 33.4695C35.4232 27.8698 37.92 21.8928 37.92 17.136C37.92 13.0873 36.4207 9.23112 33.7927 6.40938C31.1691 3.59254 27.6432 2.04 24 2.04ZM19.9695 21.4635C21.0385 22.6112 22.4883 23.256 24 23.256C24.7486 23.256 25.4898 23.0977 26.1813 22.7901C26.8729 22.4826 27.5013 22.0318 28.0305 21.4635C28.5598 20.8952 28.9797 20.2205 29.2662 19.478C29.5526 18.7355 29.7 17.9397 29.7 17.136C29.7 15.5129 29.0995 13.9562 28.0305 12.8085C26.9616 11.6608 25.5118 11.016 24 11.016C22.4883 11.016 21.0385 11.6608 19.9695 12.8085C18.9006 13.9562 18.3 15.5129 18.3 17.136C18.3 18.7591 18.9006 20.3158 19.9695 21.4635ZM12.7146 5.01902C15.7077 1.80539 19.7672 0 24 0C28.2329 0 32.2924 1.80539 35.2855 5.01902C38.2785 8.23264 39.96 12.5913 39.96 17.136C39.96 27.786 29.0004 42.6386 25.245 47.4155C24.6005 48.2353 23.3996 48.2353 22.7551 47.4155C18.9996 42.6386 8.04004 27.786 8.04004 17.136C8.04004 12.5913 9.72153 8.23264 12.7146 5.01902Z" fill="#343D6D"/>
</g>
<defs>
<clipPath id="clip0_209_1775">
<rect width="48" height="48" fill="white"/>
</clipPath>
</defs>
</svg>
