<svg width="24" height="24" viewBox="0 0 24 24" fill="none" xmlns="http://www.w3.org/2000/svg">
<g clip-path="url(#clip0_209_1775)">
<path fill-rule="evenodd" clip-rule="evenodd" d="M12 12.648C10.9493 12.648 9.95761 12.1992 9.23836 11.4269C8.52139 10.6571 8.13002 9.62761 8.13002 8.568C8.13002 7.50839 8.52139 6.47887 9.23836 5.70907C9.95761 4.93682 10.9493 4.488 12 4.488C13.0508 4.488 14.0424 4.93682 14.7617 5.70907C15.4787 6.47887 15.87 7.50839 15.87 8.568C15.87 9.09412 15.7736 9.61658 15.5847 10.1061C15.3958 10.5958 15.1173 11.0451 14.7617 11.4269C14.406 11.8089 13.9797 12.116 13.5052 12.3271C13.0304 12.5382 12.5187 12.648 12 12.648ZM12 1.02C10.1785 1.02 8.41548 1.79627 7.10371 3.20469C5.78967 4.61556 5.04002 6.54367 5.04002 8.568C5.04002 10.9464 6.28844 13.9349 7.88121 16.7347C9.35442 19.3244 11.0354 21.606 12 22.8478C12.9646 21.606 14.6456 19.3244 16.1188 16.7347C17.7116 13.9349 18.96 10.9464 18.96 8.568C18.96 6.54367 18.2104 4.61556 16.8963 3.20469C15.5846 1.79627 13.8216 1.02 12 1.02ZM9.98477 10.7317C10.5192 11.3056 11.2442 11.628 12 11.628C12.3743 11.628 12.7449 11.5489 13.0907 11.3951C13.4364 11.2413 13.7506 11.0159 14.0153 10.7317C14.2799 10.4476 14.4898 10.1103 14.6331 9.73901C14.7763 9.36775 14.85 8.96985 14.85 8.568C14.85 7.75644 14.5498 6.97811 14.0153 6.40425C13.4808 5.83039 12.7559 5.508 12 5.508C11.2442 5.508 10.5192 5.83039 9.98477 6.40425C9.45029 6.97811 9.15002 7.75644 9.15002 8.568C9.15002 9.37956 9.45029 10.1579 9.98477 10.7317ZM6.35731 2.50951C7.85385 0.902697 9.88359 0 12 0C14.1164 0 16.1462 0.902697 17.6427 2.50951C19.1393 4.11632 19.98 6.29563 19.98 8.568C19.98 13.893 14.5002 21.3193 12.6225 23.7077C12.3002 24.1176 11.6998 24.1176 11.3775 23.7077C9.49982 21.3193 4.02002 13.893 4.02002 8.568C4.02002 6.29563 4.86077 4.11632 6.35731 2.50951Z" fill="white"/>
</g>
<defs>
<clipPath id="clip0_209_1775">
<rect width="24" height="24" fill="white"/>
</clipPath>
</defs>
</svg>
