<svg width="48" height="48" viewBox="0 0 48 48" fill="none" xmlns="http://www.w3.org/2000/svg">
<path fill-rule="evenodd" clip-rule="evenodd" d="M24.0601 45.96C36.1552 45.96 45.9601 36.155 45.9601 24.06C45.9601 11.965 36.1552 2.16 24.0601 2.16C11.9651 2.16 2.16012 11.965 2.16012 24.06C2.16012 36.155 11.9651 45.96 24.0601 45.96ZM24.0601 48C37.2818 48 48.0001 37.2817 48.0001 24.06C48.0001 10.8383 37.2818 0.119995 24.0601 0.119995C10.8384 0.119995 0.120117 10.8383 0.120117 24.06C0.120117 37.2817 10.8384 48 24.0601 48Z" fill="#343D6D"/>
<path fill-rule="evenodd" clip-rule="evenodd" d="M29.9795 10.2001C29.9664 10.2 29.9533 10.2 29.9402 10.2C29.8396 10.2 29.7396 10.2 29.6402 10.2001L15.4802 10.2C14.6186 10.2 13.9202 10.8984 13.9202 11.76V39.96C13.9202 40.6228 14.4574 41.16 15.1202 41.16H18.7202C19.3829 41.16 19.9202 40.6228 19.9202 39.96V29.04H29.6402C29.7398 29.0401 29.8398 29.04 29.9402 29.04C29.9533 29.04 29.9664 29.04 29.9794 29.0399C34.3686 29.0149 37.9202 24.8071 37.9202 19.62C37.9202 14.433 34.3686 10.2251 29.9795 10.2001ZM27.6002 27V26.9976L29.6425 26.9999C29.7408 27 29.8396 27 29.9402 27C32.9166 27 35.8802 24.0262 35.8802 19.62C35.8802 15.2138 32.9166 12.24 29.9402 12.24C29.8394 12.24 29.7405 12.24 29.6425 12.2401L27.6002 12.2424V12.24H15.9602V39.12H17.8802V27H27.6002Z" fill="#343D6D"/>
<path fill-rule="evenodd" clip-rule="evenodd" d="M20.1601 22.92H28.6201C30.4427 22.92 31.9201 21.4426 31.9201 19.62C31.9201 17.7975 30.4427 16.32 28.6201 16.32H20.1601L20.1601 22.92ZM33.9601 19.62C33.9601 16.6708 31.5693 14.28 28.6201 14.28H18.1201V24.96H28.6201C31.5693 24.96 33.9601 22.5692 33.9601 19.62Z" fill="#343D6D"/>
</svg>
