<svg width="48" height="48" viewBox="0 0 48 48" fill="none" xmlns="http://www.w3.org/2000/svg">
<g clip-path="url(#clip0_123_571)">
<path fill-rule="evenodd" clip-rule="evenodd" d="M31.0428 4.95722C29.1749 3.08935 26.6416 2.04 24 2.04C21.3584 2.04 18.8251 3.08935 16.9572 4.95722C15.0894 6.82508 14.04 9.35844 14.04 12C14.04 14.6416 15.0894 17.1749 16.9572 19.0428C18.8251 20.9106 21.3584 21.96 24 21.96C26.6416 21.96 29.1749 20.9106 31.0428 19.0428C32.9106 17.1749 33.96 14.6416 33.96 12C33.96 9.35844 32.9106 6.82508 31.0428 4.95722ZM40.0602 35.3384C36.0568 33.3367 30.3822 32.04 24 32.04C17.6178 32.04 11.9432 33.3367 7.93982 35.3384C3.8149 37.4008 2.04 39.8735 2.04 42V45.96H45.96V42C45.96 39.8735 44.1851 37.4008 40.0602 35.3384ZM32.4853 3.51472C30.2348 1.26428 27.1826 0 24 0C20.8174 0 17.7652 1.26428 15.5147 3.51472C13.2643 5.76515 12 8.8174 12 12C12 15.1826 13.2643 18.2348 15.5147 20.4853C17.7652 22.7357 20.8174 24 24 24C27.1826 24 30.2348 22.7357 32.4853 20.4853C34.7357 18.2348 36 15.1826 36 12C36 8.8174 34.7357 5.76515 32.4853 3.51472ZM48 42C48 35.37 37.26 30 24 30C10.74 30 0 35.37 0 42V48H48V42Z" fill="#343D6D"/>
</g>
<defs>
<clipPath id="clip0_123_571">
<rect width="48" height="48" fill="white"/>
</clipPath>
</defs>
</svg>
