<svg width="48" height="48" viewBox="0 0 48 48" fill="none" xmlns="http://www.w3.org/2000/svg">
<g clip-path="url(#clip0_123_562)">
<path fill-rule="evenodd" clip-rule="evenodd" d="M20.2137 12.2057C20.8409 11.088 21.1765 9.5164 20.9507 7.76879C20.7248 6.02118 20.0008 4.58648 19.1101 3.6649C18.2195 2.74337 17.2738 2.42392 16.4678 2.52807C15.6618 2.63222 14.8284 3.18157 14.2013 4.29921C13.5741 5.4169 13.2385 6.98853 13.4644 8.73615C13.6902 10.4838 14.4143 11.9185 15.3049 12.84C16.1955 13.7616 17.1412 14.081 17.9472 13.9769C18.7532 13.8727 19.5866 13.3234 20.2137 12.2057ZM18.2086 16C21.3933 15.5885 23.5267 11.7862 22.9738 7.50736C22.4209 3.22849 19.391 0.0933792 16.2064 0.504891C13.0217 0.916404 10.8883 4.71871 11.4412 8.99758C11.9941 13.2764 15.024 16.4116 18.2086 16Z" fill="#343D6D"/>
<path fill-rule="evenodd" clip-rule="evenodd" d="M9.98977 21.5623C10.3697 20.6916 10.5109 19.48 10.2039 18.159C9.89689 16.8381 9.23589 15.8129 8.51089 15.199C7.78594 14.5852 7.11682 14.4599 6.61948 14.5755C6.12213 14.6911 5.57683 15.0986 5.19689 15.9692C4.81693 16.8399 4.67575 18.0515 4.98276 19.3725C5.28977 20.6935 5.95078 21.7186 6.67577 22.3325C7.40072 22.9464 8.06984 23.0716 8.56719 22.956C9.06453 22.8404 9.60984 22.433 9.98977 21.5623ZM9.02899 24.9431C11.5682 24.3529 12.9838 21.1089 12.1909 17.6972C11.3981 14.2856 8.69686 11.9983 6.15767 12.5885C3.61848 13.1786 2.20283 16.4227 2.99572 19.8343C3.78861 23.2459 6.4898 25.5332 9.02899 24.9431Z" fill="#343D6D"/>
<path fill-rule="evenodd" clip-rule="evenodd" d="M37.8369 20.3624C37.4569 19.4917 37.3157 18.2801 37.6228 16.9591C37.9298 15.6381 38.5908 14.613 39.3158 13.9991C40.0407 13.3852 40.7098 13.26 41.2072 13.3755C41.7045 13.4911 42.2498 13.8986 42.6298 14.7693C43.0097 15.64 43.1509 16.8515 42.8439 18.1725C42.5369 19.4935 41.8759 20.5187 41.1509 21.1326C40.4259 21.7464 39.7568 21.8717 39.2595 21.7561C38.7621 21.6405 38.2168 21.233 37.8369 20.3624ZM38.7977 23.7431C36.2585 23.153 34.8428 19.9089 35.6357 16.4973C36.4286 13.0857 39.1298 10.7984 41.669 11.3885C44.2082 11.9786 45.6238 15.2227 44.8309 18.6343C44.038 22.046 41.3369 24.3333 38.7977 23.7431Z" fill="#343D6D"/>
<path fill-rule="evenodd" clip-rule="evenodd" d="M27.7612 11.8459C27.1341 10.7282 26.7985 9.15654 27.0243 7.40892C27.2501 5.66131 27.9742 4.22661 28.8649 3.30504C29.7555 2.38351 30.7011 2.06405 31.5072 2.16821C32.3132 2.27236 33.1466 2.8217 33.7737 3.93935C34.4008 5.05704 34.7364 6.62867 34.5106 8.37628C34.2848 10.1239 33.5607 11.5586 32.6701 12.4802C31.7795 13.4017 30.8338 13.7212 30.0278 13.617C29.2217 13.5128 28.3883 12.9635 27.7612 11.8459ZM29.7663 15.6402C26.5817 15.2287 24.4482 11.4264 25.0011 7.1475C25.554 2.86863 28.5839 -0.266484 31.7686 0.145028C34.9532 0.55654 37.0867 4.35884 36.5338 8.63771C35.9809 12.9166 32.951 16.0517 29.7663 15.6402Z" fill="#343D6D"/>
<path fill-rule="evenodd" clip-rule="evenodd" d="M16.723 20.3373C18.2655 18.3083 20.7361 16.5986 24.394 16.7492C27.7614 16.888 29.8027 18.213 31.0779 19.8401C32.0402 21.068 32.5553 22.4925 32.8832 23.3994C32.9646 23.6244 33.0344 23.8176 33.0967 23.968L33.1105 24.0013L33.1219 24.0354C33.3111 24.6024 33.4494 25.1467 33.5721 25.6299C33.6027 25.7504 33.6324 25.8671 33.6616 25.9794C33.8127 26.56 33.9596 27.0546 34.1845 27.5332C34.6132 28.4459 35.3903 29.4364 37.328 30.6551L37.3552 30.6722L37.3812 30.6909C39.9125 32.5143 41.245 34.7909 41.6014 37.1333C41.9549 39.4565 41.3346 41.7518 40.1324 43.619C37.7514 47.3168 32.8358 49.609 28.2056 46.8412C26.3084 45.7071 25.028 45.3207 23.9067 45.3411C22.7705 45.3618 21.6396 45.7997 20.0142 46.6739L19.9857 46.6893L19.9562 46.7028C17.2141 47.9604 14.6663 48.0111 12.5117 47.2168C10.3753 46.4292 8.71372 44.8439 7.654 42.9761C5.57439 39.3107 5.64722 34.1144 9.63728 31.4324L9.69616 31.3928L9.75995 31.3618C11.3083 30.6082 13.6052 29.327 14.4625 25.8376C14.5922 24.5415 15.2453 22.281 16.723 20.3373ZM18.347 21.5719C17.0951 23.2185 16.5679 25.1565 16.4875 26.093L16.4811 26.1685L16.4635 26.2423C15.418 30.6288 12.469 32.3065 10.7196 33.1634C7.97394 35.0573 7.68192 38.8913 9.42831 41.9694C10.2875 43.4837 11.5993 44.7062 13.2174 45.3027C14.8106 45.8901 16.7885 45.9036 19.0772 44.8615C20.7386 43.9698 22.2269 43.3314 23.8695 43.3015C25.5366 43.2711 27.2058 43.8669 29.2523 45.0902C32.6781 47.1381 36.453 45.5651 38.4172 42.5146C39.3875 41.0076 39.8536 39.208 39.5846 37.4401C39.3196 35.6985 38.3277 33.8954 36.2139 32.3643C34.0598 31.0046 32.9722 29.7506 32.3381 28.4006C32.0301 27.745 31.8455 27.1007 31.6874 26.4932C31.6526 26.3594 31.6192 26.2284 31.5863 26.099C31.4681 25.6343 31.3551 25.1905 31.1976 24.7137C31.0947 24.4626 30.9981 24.1983 30.8983 23.9252C30.571 23.0295 30.2088 22.0383 29.4723 21.0985C28.5749 19.9534 27.0957 18.9023 24.31 18.7875C21.4398 18.6693 19.5652 19.9694 18.347 21.5719Z" fill="#343D6D"/>
<path fill-rule="evenodd" clip-rule="evenodd" d="M19.7177 25.4817C19.393 25.4154 19.1835 25.0985 19.2497 24.7738C19.5112 23.4918 20.2645 21.7313 21.7686 20.861C23.3568 19.9421 25.5087 20.154 28.2191 22.2744C28.4801 22.4786 28.5262 22.8557 28.322 23.1167C28.1178 23.3777 27.7407 23.4238 27.4797 23.2196C24.9649 21.2522 23.3576 21.328 22.3696 21.8997C21.2974 22.5201 20.6574 23.8768 20.4255 25.0137C20.3593 25.3384 20.0424 25.5479 19.7177 25.4817Z" fill="#343D6D"/>
<path fill-rule="evenodd" clip-rule="evenodd" d="M19.4741 40.5473C19.7334 40.7536 19.7764 41.1311 19.5701 41.3904C18.7444 42.428 17.174 43.5787 15.4968 43.6994C14.6331 43.7615 13.7434 43.548 12.9507 42.9112C12.1684 42.2828 11.5265 41.2797 11.0684 39.842C10.9677 39.5263 11.1421 39.1888 11.4579 39.0881C11.7736 38.9875 12.1111 39.1619 12.2117 39.4776C12.6235 40.7699 13.1595 41.5398 13.7022 41.9757C14.2343 42.4032 14.8165 42.5452 15.4107 42.5025C16.6494 42.4134 17.9392 41.5126 18.631 40.6432C18.8374 40.3839 19.2148 40.341 19.4741 40.5473Z" fill="#343D6D"/>
</g>
<defs>
<clipPath id="clip0_123_562">
<rect width="48" height="48" fill="white"/>
</clipPath>
</defs>
</svg>
