<svg width="48" height="48" viewBox="0 0 48 48" fill="none" xmlns="http://www.w3.org/2000/svg">
<g clip-path="url(#clip0_209_1774)">
<path fill-rule="evenodd" clip-rule="evenodd" d="M25.3284 39.6534C18.1606 35.7656 12.2344 29.8394 8.34657 22.6716C7.60367 21.302 7.89312 19.6486 8.9502 18.5915L14.0775 13.4642C14.2608 13.2809 14.3147 13.0452 14.2434 12.8079C13.193 9.62144 12.6267 6.21189 12.6267 2.66667C12.6267 2.50047 12.5606 2.34107 12.4431 2.22355C12.3256 2.10602 12.1662 2.04 12 2.04H2.66667C2.50046 2.04 2.34107 2.10602 2.22355 2.22355C2.10602 2.34107 2.04 2.50046 2.04 2.66667C2.04 14.1488 5.95843 25.9953 14.0775 34.1144C22.1966 42.2335 33.8512 45.96 45.3333 45.96C45.4995 45.96 45.6589 45.894 45.7765 45.7765C45.894 45.6589 45.96 45.4995 45.96 45.3333V36C45.96 35.8338 45.894 35.6744 45.7765 35.5569C45.6589 35.4394 45.4995 35.3733 45.3333 35.3733C41.7881 35.3733 38.3786 34.807 35.1921 33.7565C34.9548 33.6853 34.7191 33.7392 34.5358 33.9225L29.4085 39.0498C28.3514 40.1069 26.698 40.3963 25.3284 39.6534ZM35.8133 31.8133C34.88 31.52 33.84 31.7333 33.0933 32.48L27.966 37.6073C27.5251 38.0482 26.8491 38.1575 26.301 37.8602C19.4805 34.1607 13.8393 28.5195 10.1398 21.699C9.84247 21.1509 9.95178 20.4749 10.3927 20.034L15.52 14.9067C16.2667 14.16 16.48 13.12 16.1867 12.1867C15.2 9.2 14.6667 6 14.6667 2.66667C14.6667 1.95942 14.3857 1.28115 13.8856 0.781048C13.3855 0.280951 12.7072 0 12 0H2.66667C1.95942 0 1.28115 0.280951 0.781048 0.781048C0.280951 1.28115 0 1.95942 0 2.66667C0 14.6898 4.13336 27.0552 12.635 35.5569C21.1367 44.0585 33.3102 48 45.3333 48C46.0406 48 46.7189 47.719 47.219 47.219C47.719 46.7189 48 46.0406 48 45.3333V36C48 35.2928 47.719 34.6145 47.219 34.1144C46.7189 33.6143 46.0406 33.3333 45.3333 33.3333C42 33.3333 38.8 32.8 35.8133 31.8133Z" fill="#343D6D"/>
</g>
<defs>
<clipPath id="clip0_209_1774">
<rect width="48" height="48" fill="white"/>
</clipPath>
</defs>
</svg>
