<svg width="24" height="24" viewBox="0 0 24 24" fill="none" xmlns="http://www.w3.org/2000/svg">
<g clip-path="url(#clip0_209_1774)">
<path fill-rule="evenodd" clip-rule="evenodd" d="M12.6642 19.8267C9.08032 17.8828 6.11719 14.9197 4.17329 11.3358C3.80184 10.651 3.94656 9.82428 4.4751 9.29574L7.03875 6.73208C7.13039 6.64044 7.15734 6.52258 7.12172 6.40393C6.59649 4.81072 6.31333 3.10594 6.31333 1.33333C6.31333 1.25023 6.28032 1.17053 6.22156 1.11177C6.1628 1.05301 6.0831 1.02 6 1.02H1.33333C1.25023 1.02 1.17053 1.05301 1.11177 1.11177C1.05301 1.17053 1.02 1.25023 1.02 1.33333C1.02 7.07439 2.97921 12.9977 7.03875 17.0572C11.0983 21.1167 16.9256 22.98 22.6667 22.98C22.7498 22.98 22.8295 22.947 22.8882 22.8882C22.947 22.8295 22.98 22.7498 22.98 22.6667V18C22.98 17.9169 22.947 17.8372 22.8882 17.7784C22.8295 17.7197 22.7498 17.6867 22.6667 17.6867C20.8941 17.6867 19.1893 17.4035 17.5961 16.8783C17.4774 16.8427 17.3596 16.8696 17.2679 16.9612L14.7043 19.5249C14.1757 20.0534 13.349 20.1982 12.6642 19.8267ZM17.9067 15.9067C17.44 15.76 16.92 15.8667 16.5467 16.24L13.983 18.8036C13.7626 19.0241 13.4246 19.0788 13.1505 18.9301C9.74023 17.0804 6.91964 14.2598 5.06989 10.8495C4.92124 10.5754 4.97589 10.2374 5.19635 10.017L7.76 7.45333C8.13333 7.08 8.24 6.56 8.09333 6.09333C7.6 4.6 7.33333 3 7.33333 1.33333C7.33333 0.979711 7.19286 0.640573 6.94281 0.390524C6.69276 0.140476 6.35362 0 6 0H1.33333C0.979711 0 0.640573 0.140476 0.390524 0.390524C0.140476 0.640573 0 0.979711 0 1.33333C0 7.34491 2.06668 13.5276 6.3175 17.7784C10.5683 22.0293 16.6551 24 22.6667 24C23.0203 24 23.3594 23.8595 23.6095 23.6095C23.8595 23.3594 24 23.0203 24 22.6667V18C24 17.6464 23.8595 17.3072 23.6095 17.0572C23.3594 16.8071 23.0203 16.6667 22.6667 16.6667C21 16.6667 19.4 16.4 17.9067 15.9067Z" fill="white"/>
</g>
<defs>
<clipPath id="clip0_209_1774">
<rect width="24" height="24" fill="white"/>
</clipPath>
</defs>
</svg>
