<svg width="48" height="48" viewBox="0 0 48 48" fill="none" xmlns="http://www.w3.org/2000/svg">
<g clip-path="url(#clip0_135_1149)">
<path fill-rule="evenodd" clip-rule="evenodd" d="M21.5507 27.1247L24.8393 44.9399C25.1538 46.6434 26.6412 47.88 28.3759 47.88H38.6715C40.4062 47.88 41.8936 46.6434 42.2081 44.9399L45.4967 27.1247H21.5507ZM23.9985 29.1596L26.8434 44.571C26.9796 45.3092 27.6242 45.8451 28.3759 45.8451H38.6715C39.4232 45.8451 40.0678 45.3092 40.204 44.571L43.0489 29.1596H23.9985Z" fill="#343D6D"/>
<path fill-rule="evenodd" clip-rule="evenodd" d="M24.7151 36.9613C23.4558 35.4047 22.3349 32.8463 21.5541 28.5866L23.5586 28.2202C24.3104 32.3217 25.3446 34.5013 26.3003 35.6825C27.2139 36.8118 28.1066 37.0934 28.8422 37.2431L28.4351 39.237C27.3987 39.0261 26.0165 38.5698 24.7151 36.9613Z" fill="#343D6D"/>
<path fill-rule="evenodd" clip-rule="evenodd" d="M42.1407 36.9613C43.4001 35.4047 44.521 32.8463 45.3018 28.5866L43.2972 28.2202C42.5455 32.3217 41.5112 34.5013 40.5555 35.6825C39.6419 36.8118 38.7493 37.0934 38.0137 37.2431L38.4207 39.237C39.4571 39.0261 40.8394 38.5698 42.1407 36.9613Z" fill="#343D6D"/>
<path fill-rule="evenodd" clip-rule="evenodd" d="M44.5037 25.1673H22.6045C22.037 25.1673 21.577 25.6266 21.577 26.1932C21.577 26.7599 22.037 27.2192 22.6045 27.2192H44.5037C45.0712 27.2192 45.5312 26.7599 45.5312 26.1932C45.5312 25.6266 45.0712 25.1673 44.5037 25.1673ZM22.6045 23.1324C20.9116 23.1324 19.5392 24.5028 19.5392 26.1932C19.5392 27.8837 20.9116 29.2541 22.6045 29.2541H44.5037C46.1966 29.2541 47.569 27.8837 47.569 26.1932C47.569 24.5028 46.1966 23.1324 44.5037 23.1324H22.6045Z" fill="#343D6D"/>
<path fill-rule="evenodd" clip-rule="evenodd" d="M35.9407 37.4108H31.0405C30.4371 37.4108 29.9479 37.8993 29.9479 38.5019C29.9479 39.1045 30.4371 39.593 31.0405 39.593H35.9407C36.5442 39.593 37.0334 39.1045 37.0334 38.5019C37.0334 37.8993 36.5442 37.4108 35.9407 37.4108ZM31.0405 35.3759C29.3116 35.3759 27.91 36.7755 27.91 38.5019C27.91 40.2284 29.3116 41.6279 31.0405 41.6279H35.9407C37.6697 41.6279 39.0712 40.2284 39.0712 38.5019C39.0712 36.7755 37.6697 35.3759 35.9407 35.3759H31.0405Z" fill="#343D6D"/>
<path fill-rule="evenodd" clip-rule="evenodd" d="M24.3882 21.1699C23.2648 21.1699 22.2947 22.1454 22.2947 23.4241H21.0959C21.0959 21.5518 22.5371 19.9729 24.3882 19.9729C25.3096 19.9729 26.1373 20.3697 26.7292 20.9971L25.8567 21.818C25.4739 21.4122 24.9547 21.1699 24.3882 21.1699Z" fill="#343D6D"/>
<path fill-rule="evenodd" clip-rule="evenodd" d="M42.5526 18.9239C43.6576 19.2315 44.3453 20.4265 44.0366 21.6236L45.1913 21.9451C45.6554 20.1455 44.6313 18.2602 42.8516 17.7648C41.9642 17.5177 41.0672 17.6697 40.3383 18.1071L40.9612 19.1436C41.4311 18.8616 41.9971 18.7693 42.5526 18.9239Z" fill="#343D6D"/>
<path fill-rule="evenodd" clip-rule="evenodd" d="M27.5725 17.4321C26.1809 17.4321 24.9766 18.6618 24.9766 20.2764H23.7778C23.7778 18.0881 25.4347 16.235 27.5725 16.235C28.9022 16.235 30.0557 16.9609 30.7277 18.03L29.7124 18.6664C29.2354 17.9076 28.4461 17.4321 27.5725 17.4321Z" fill="#343D6D"/>
<path fill-rule="evenodd" clip-rule="evenodd" d="M32.2315 17.4321C31.2558 17.4321 30.4363 18.2492 30.4363 19.2927H29.2375C29.2375 17.6199 30.5623 16.235 32.2315 16.235V17.4321Z" fill="#343D6D"/>
<path fill-rule="evenodd" clip-rule="evenodd" d="M34.6478 14.8745C33.4096 14.8745 32.352 15.9413 32.352 17.3253H31.1533C31.1533 15.3412 32.6881 13.6775 34.6478 13.6775C35.6477 13.6775 36.5444 14.116 37.1761 14.807L36.2908 15.614C35.8692 15.1528 35.2864 14.8745 34.6478 14.8745Z" fill="#343D6D"/>
<path fill-rule="evenodd" clip-rule="evenodd" d="M39.3196 14.0876C38.1029 14.0876 37.0454 15.158 37.0454 16.5693C37.0454 16.9168 37.1107 17.2457 37.2274 17.5434L36.1111 17.9797C35.9403 17.544 35.8467 17.0672 35.8467 16.5693C35.8467 14.5782 37.3622 12.8906 39.3196 12.8906C41.2769 12.8906 42.7925 14.5782 42.7925 16.5693C42.7925 17.3811 42.5436 18.1361 42.118 18.7486L41.1331 18.0662C41.4206 17.6525 41.5937 17.1353 41.5937 16.5693C41.5937 15.158 40.5363 14.0876 39.3196 14.0876Z" fill="#343D6D"/>
<path fill-rule="evenodd" clip-rule="evenodd" d="M44.7629 22.1477C44.5302 22.1058 44.2991 22.1807 44.1283 22.3443L43.2955 21.4682C43.7185 21.0628 44.3225 20.8524 44.9526 20.9657C46.0337 21.1602 46.7333 22.2133 46.5613 23.2847C46.5235 23.5203 46.4464 23.7405 46.3374 23.9384L45.2895 23.3424C45.3336 23.2622 45.3656 23.1717 45.3816 23.0725C45.4546 22.6177 45.1569 22.2185 44.7629 22.1477Z" fill="#343D6D"/>
<path fill-rule="evenodd" clip-rule="evenodd" d="M29.2143 14.161C29.4466 14.161 29.6918 13.9581 29.6918 13.6366C29.6918 13.3152 29.4466 13.1122 29.2143 13.1122C28.9821 13.1122 28.7368 13.3152 28.7368 13.6366C28.7368 13.9581 28.9821 14.161 29.2143 14.161ZM29.2143 15.358C30.1401 15.358 30.8905 14.5873 30.8905 13.6366C30.8905 12.6859 30.1401 11.9152 29.2143 11.9152C28.2886 11.9152 27.5381 12.6859 27.5381 13.6366C27.5381 14.5873 28.2886 15.358 29.2143 15.358Z" fill="#343D6D"/>
<path fill-rule="evenodd" clip-rule="evenodd" d="M45.4021 13.4725C46.1104 13.4725 46.7416 12.8732 46.7416 12.0628C46.7416 11.2524 46.1104 10.6531 45.4021 10.6531C44.6937 10.6531 44.0625 11.2524 44.0625 12.0628C44.0625 12.8732 44.6937 13.4725 45.4021 13.4725ZM45.4021 14.6695C46.8039 14.6695 47.9403 13.5024 47.9403 12.0628C47.9403 10.6231 46.8039 9.45605 45.4021 9.45605C44.0002 9.45605 42.8638 10.6231 42.8638 12.0628C42.8638 13.5024 44.0002 14.6695 45.4021 14.6695Z" fill="#343D6D"/>
<path fill-rule="evenodd" clip-rule="evenodd" d="M14.9288 29.865H14.9067C12.8543 29.865 11.5346 30.9953 10.6072 32.3766C9.95107 33.3538 9.41756 34.5781 8.92527 35.7077C8.76004 36.0869 8.59946 36.4554 8.44043 36.8003C7.75984 38.2765 7.08046 39.4109 6.14567 40.0352C5.29665 40.6023 4.04587 40.8646 1.90249 40.1011C1.49836 39.9571 0.874742 39.9969 0.486429 40.5137C-0.0176538 41.1846 -0.124454 42.023 -0.0272109 42.7852C0.0713489 43.5578 0.387631 44.3514 0.864733 45.0609C1.82014 46.4816 3.51995 47.7004 5.74552 47.7004H15.3896L15.4277 47.6975C17.6649 47.5295 19.4145 46.2903 20.5931 44.62C21.7633 42.9616 22.403 40.844 22.4702 38.757C22.5373 36.6715 22.0346 34.5237 20.8045 32.8434C19.5516 31.1319 17.5953 29.9809 14.951 29.866L14.9288 29.865ZM12.7801 45.6655H12.8654C13.9188 45.6085 14.9106 44.6449 15.6538 42.8746C16.372 41.164 16.6665 39.1105 16.5623 37.7553C16.5192 37.1951 16.9391 36.706 17.5002 36.663C18.0613 36.6199 18.5511 37.0393 18.5941 37.5995C18.7243 39.2924 18.37 41.6681 17.5332 43.6614C17.2925 44.2345 16.9937 44.8158 16.6311 45.3522C17.5385 44.9835 18.3107 44.3216 18.9273 43.4479C19.84 42.1545 20.3773 40.4335 20.4334 38.6916C20.4895 36.9482 20.0617 35.2768 19.1594 34.0443C18.2832 32.8475 16.9124 31.994 14.8853 31.9C13.7628 31.907 13.0002 32.4667 12.2998 33.5098C11.7547 34.3217 11.3325 35.2897 10.8645 36.3627C10.6836 36.7775 10.4959 37.208 10.2915 37.6513C9.60632 39.1375 8.73112 40.7565 7.27862 41.7267C5.89656 42.6497 4.16662 42.8833 1.97775 42.2615C1.97686 42.3414 1.98178 42.4301 1.99428 42.5281C2.04751 42.9453 2.23134 43.4429 2.55651 43.9265C3.20563 44.8917 4.31893 45.6655 5.74552 45.6655H7.38136C9.80474 45.6655 10.9693 44.7945 11.6021 43.8855C12.29 42.8974 12.4645 41.7104 12.5843 40.8607C12.6627 40.3043 13.1781 39.9167 13.7353 39.995C14.2925 40.0734 14.6807 40.588 14.6022 41.1444C14.5994 41.1641 14.5966 41.1843 14.5937 41.205C14.4768 42.0373 14.2511 43.6453 13.2754 45.0469C13.1261 45.2614 12.9614 45.4683 12.7801 45.6655Z" fill="#343D6D"/>
<path fill-rule="evenodd" clip-rule="evenodd" d="M14.3328 27.4166L16.2508 27.4211C16.8797 27.4225 17.3884 27.9329 17.3869 28.5609C17.3854 29.1889 16.8744 29.6969 16.2454 29.6954L14.3275 29.6909C13.6986 29.6895 13.1899 29.1791 13.1914 28.5511C13.1928 27.9231 13.7039 27.4151 14.3328 27.4166ZM16.2536 26.2241C17.5445 26.2271 18.5886 27.2746 18.5856 28.5637C18.5826 29.8528 17.5336 30.8954 16.2426 30.8924L14.3247 30.8879C13.0337 30.8849 11.9896 29.8374 11.9926 28.5483C11.9957 27.2592 13.0446 26.2166 14.3356 26.2196L16.2536 26.2241Z" fill="#343D6D"/>
<path fill-rule="evenodd" clip-rule="evenodd" d="M14.6291 26.2734L14.6862 1.73812C14.6871 1.37452 14.983 1.08045 15.3471 1.0813C15.7112 1.08216 16.0057 1.3776 16.0048 1.7412L15.9477 26.2765L14.6291 26.2734ZM15.3499 -0.115698C16.376 -0.113302 17.2059 0.719314 17.2036 1.744L17.1436 27.4763L13.4275 27.4676L13.4875 1.73532C13.4899 0.710633 14.3237 -0.118095 15.3499 -0.115698Z" fill="#343D6D"/>
</g>
<defs>
<clipPath id="clip0_135_1149">
<rect width="48" height="48" fill="white"/>
</clipPath>
</defs>
</svg>
