<svg width="48" height="48" viewBox="0 0 48 48" fill="none" xmlns="http://www.w3.org/2000/svg">
<g clip-path="url(#clip0_133_2964)">
<path fill-rule="evenodd" clip-rule="evenodd" d="M22.4397 14.04C22.7186 14.0411 22.9849 14.1855 23.1772 14.4397L28.5672 21.568L31.9784 17.7106C32.1804 17.4822 32.4462 17.3643 32.7174 17.3829C32.9885 17.4014 33.2426 17.5549 33.4237 17.8095L47.7393 37.9348C48.116 38.4643 48.0802 39.2779 47.6595 39.7519C47.2387 40.226 46.5923 40.181 46.2156 39.6514L32.5833 20.4867L29.9776 23.4332L38.8161 35.1219C39.2054 35.6367 39.1893 36.4513 38.7802 36.9412C38.3711 37.4312 37.7239 37.411 37.3346 36.8961L22.4317 17.1873L13.7893 28.4701C13.4807 28.873 13.0007 28.9787 12.6017 28.7318L10.4329 27.3892L1.50704 38.6671C1.10851 39.1707 0.461072 39.1723 0.0609484 38.6708C-0.339175 38.1692 -0.340465 37.3544 0.0580661 36.8509L9.50156 24.9189C9.81096 24.5279 10.284 24.4288 10.6774 24.6723L12.8348 26.0078L21.7002 14.4337C21.8937 14.1811 22.1609 14.0389 22.4397 14.04Z" fill="#343D6D"/>
<path fill-rule="evenodd" clip-rule="evenodd" d="M0.539941 44.6423C2.71347 42.7977 6.18441 42.8018 8.3705 44.6391L8.37425 44.6423C9.78214 45.8372 12.1394 45.8418 13.5706 44.6406C15.7442 42.7977 19.2137 42.8024 21.3991 44.6391L21.4028 44.6423C22.8107 45.8372 25.168 45.8418 26.5991 44.6406C28.7728 42.7977 32.2422 42.8024 34.4276 44.6391L34.4314 44.6423C35.8393 45.8372 38.1967 45.8418 39.6279 44.6404C41.8016 42.7977 45.2709 42.8025 47.4562 44.6391C47.8875 45.0016 47.9432 45.645 47.5808 46.0763C47.2184 46.5075 46.5749 46.5633 46.1437 46.2008C44.7127 44.9981 42.3541 45.0023 40.9457 46.1977L40.9419 46.2008C38.7566 48.0375 35.2873 48.0423 33.1136 46.1996C31.6825 44.9982 29.3251 45.0028 27.9171 46.1977L27.9134 46.2008C25.728 48.0376 22.2585 48.0423 20.0848 46.1994C18.6537 44.9982 16.2964 45.0028 14.8885 46.1977L14.8848 46.2008C12.6994 48.0376 9.22998 48.0423 7.05632 46.1994C5.62515 44.9982 3.26787 45.0028 1.85996 46.1977C1.43046 46.5622 0.786787 46.5095 0.422273 46.08C0.0577589 45.6505 0.110441 45.0068 0.539941 44.6423Z" fill="#343D6D"/>
<path fill-rule="evenodd" clip-rule="evenodd" d="M0.607944 38.2697C2.80901 36.1234 6.34537 36.1234 8.54644 38.2697C9.9552 39.6434 12.2278 39.6434 13.6365 38.2697C15.8376 36.1234 19.3739 36.1234 21.575 38.2697C22.9838 39.6434 25.2563 39.6434 26.6651 38.2697C28.8662 36.1234 32.4025 36.1234 34.6036 38.2697C36.0123 39.6434 38.2849 39.6434 39.6937 38.2697C41.8947 36.1234 45.4311 36.1234 47.6322 38.2697C48.0355 38.663 48.0436 39.3088 47.6503 39.7121C47.257 40.1154 46.6113 40.1236 46.2079 39.7303C44.7992 38.3566 42.5266 38.3566 41.1179 39.7303C38.9168 41.8766 35.3804 41.8766 33.1794 39.7303C31.7706 38.3566 29.4981 38.3566 28.0893 39.7303C25.8882 41.8766 22.3519 41.8766 20.1508 39.7303C18.742 38.3566 16.4695 38.3566 15.0607 39.7303C12.8597 41.8766 9.3233 41.8766 7.12223 39.7303C5.71347 38.3566 3.44091 38.3566 2.03215 39.7303C1.62883 40.1236 0.983057 40.1154 0.589771 39.7121C0.196486 39.3088 0.204623 38.663 0.607944 38.2697Z" fill="#343D6D"/>
<path fill-rule="evenodd" clip-rule="evenodd" d="M40.2 14.08C43.7346 14.08 46.6 11.2146 46.6 7.68C46.6 4.14538 43.7346 1.28 40.2 1.28C36.6654 1.28 33.8 4.14538 33.8 7.68C33.8 11.2146 36.6654 14.08 40.2 14.08ZM40.2 15.36C44.4416 15.36 47.88 11.9215 47.88 7.68C47.88 3.43845 44.4416 0 40.2 0C35.9585 0 32.52 3.43845 32.52 7.68C32.52 11.9215 35.9585 15.36 40.2 15.36Z" fill="#343D6D"/>
</g>
<defs>
<clipPath id="clip0_133_2964">
<rect width="48" height="48" fill="white"/>
</clipPath>
</defs>
</svg>
