<svg width="48" height="48" viewBox="0 0 48 48" fill="none" xmlns="http://www.w3.org/2000/svg">
<g clip-path="url(#clip0_123_572)">
<path fill-rule="evenodd" clip-rule="evenodd" d="M14.9999 2.1C13.5832 2.1 12.4199 3.26333 12.4199 4.68V15.48C12.4199 16.8967 13.5832 18.06 14.9999 18.06H41.9999C43.4166 18.06 44.5799 16.8967 44.5799 15.48V4.68C44.5799 3.26333 43.4166 2.1 41.9999 2.1H14.9999ZM10.3799 4.68C10.3799 2.13667 12.4566 0.0599976 14.9999 0.0599976H41.9999C44.5432 0.0599976 46.6199 2.13667 46.6199 4.68V15.48C46.6199 18.0233 44.5432 20.1 41.9999 20.1H14.9999C12.4566 20.1 10.3799 18.0233 10.3799 15.48V4.68Z" fill="#343D6D"/>
<path fill-rule="evenodd" clip-rule="evenodd" d="M4.62776 4.05549C4.19498 3.69565 3.41988 3.97833 3.41988 4.70795V15.4837C3.41988 15.7468 3.58531 16.0128 3.89022 16.1649C4.19534 16.3171 4.46369 16.2726 4.62776 16.1362L4.63233 16.1324L10.3799 11.4097V8.78192L4.63233 4.05927L4.62776 4.05549ZM5.92947 2.48477C4.20202 1.05188 1.37988 2.20607 1.37988 4.70795V15.4837C1.37988 16.6573 2.11446 17.5588 2.97954 17.9903C3.84362 18.4214 5.0139 18.4662 5.92945 17.7069L12.0474 12.6799C12.2832 12.4861 12.4199 12.197 12.4199 11.8918V8.29986C12.4199 7.99468 12.2832 7.70553 12.0474 7.51178L5.92947 2.48477Z" fill="#343D6D"/>
<path fill-rule="evenodd" clip-rule="evenodd" d="M30.1799 6.47999C30.1799 5.91666 30.6366 5.45999 31.1999 5.45999H36.5999C37.1633 5.45999 37.6199 5.91666 37.6199 6.47999C37.6199 7.04332 37.1633 7.49999 36.5999 7.49999H31.1999C30.6366 7.49999 30.1799 7.04332 30.1799 6.47999Z" fill="#343D6D"/>
<path fill-rule="evenodd" clip-rule="evenodd" d="M17.22 21.84C17.22 21.2767 17.6766 20.82 18.24 20.82L37.2 20.82C37.7633 20.82 38.22 21.2767 38.22 21.84C38.22 22.4033 37.7633 22.86 37.2 22.86L18.24 22.86C17.6766 22.86 17.22 22.4033 17.22 21.84Z" fill="#343D6D"/>
<path fill-rule="evenodd" clip-rule="evenodd" d="M47.1599 31.62C47.7232 31.62 48.1799 32.0767 48.1799 32.64V46.92C48.1799 47.4833 47.7232 47.94 47.1599 47.94C46.5966 47.94 46.1399 47.4833 46.1399 46.92V32.64C46.1399 32.0767 46.5966 31.62 47.1599 31.62Z" fill="#343D6D"/>
<path fill-rule="evenodd" clip-rule="evenodd" d="M27.72 21.54C28.2833 21.54 28.74 21.9967 28.74 22.56V26.4425C28.74 28.834 30.2195 31.0512 32.4318 31.9717C32.4387 31.9746 32.4456 31.9775 32.4525 31.9806L47.5725 38.6672C48.0877 38.895 48.3206 39.4973 48.0928 40.0125C47.865 40.5277 47.2626 40.7607 46.7474 40.5329L31.6374 33.8507C28.6716 32.6115 26.7 29.6553 26.7 26.4425V22.56C26.7 21.9967 27.1566 21.54 27.72 21.54Z" fill="#343D6D"/>
</g>
<defs>
<clipPath id="clip0_123_572">
<rect width="48" height="48" fill="white"/>
</clipPath>
</defs>
</svg>
