<svg width="48" height="48" viewBox="0 0 48 48" fill="none" xmlns="http://www.w3.org/2000/svg">
<g clip-path="url(#clip0_123_566)">
<path d="M24.48 19.28C24.48 19.6666 24.7934 19.98 25.18 19.98C25.5666 19.98 25.88 19.6666 25.88 19.28C25.88 18.8934 25.5666 18.58 25.18 18.58C24.7934 18.58 24.48 18.8934 24.48 19.28Z" fill="#343D6D"/>
<path d="M24.48 22.3799C24.48 22.7665 24.7934 23.0799 25.18 23.0799C25.5666 23.0799 25.88 22.7665 25.88 22.3799C25.88 21.9933 25.5666 21.6799 25.18 21.6799C24.7934 21.6799 24.48 21.9933 24.48 22.3799Z" fill="#343D6D"/>
<path d="M24.48 25.4799C24.48 25.8665 24.7934 26.1799 25.18 26.1799C25.5666 26.1799 25.88 25.8665 25.88 25.4799C25.88 25.0933 25.5666 24.7799 25.18 24.7799C24.7934 24.7799 24.48 25.0933 24.48 25.4799Z" fill="#343D6D"/>
<path d="M24.48 28.58C24.48 28.9666 24.7934 29.28 25.18 29.28C25.5666 29.28 25.88 28.9666 25.88 28.58C25.88 28.1934 25.5666 27.88 25.18 27.88C24.7934 27.88 24.48 28.1934 24.48 28.58Z" fill="#343D6D"/>
<path d="M18.6801 19.28C18.6801 19.6666 18.9935 19.98 19.3801 19.98C19.7667 19.98 20.0801 19.6666 20.0801 19.28C20.0801 18.8934 19.7667 18.58 19.3801 18.58C18.9935 18.58 18.6801 18.8934 18.6801 19.28Z" fill="#343D6D"/>
<path d="M18.6801 22.3799C18.6801 22.7665 18.9935 23.0799 19.3801 23.0799C19.7667 23.0799 20.0801 22.7665 20.0801 22.3799C20.0801 21.9933 19.7667 21.6799 19.3801 21.6799C18.9935 21.6799 18.6801 21.9933 18.6801 22.3799Z" fill="#343D6D"/>
<path d="M18.6801 25.4799C18.6801 25.8665 18.9935 26.1799 19.3801 26.1799C19.7667 26.1799 20.0801 25.8665 20.0801 25.4799C20.0801 25.0933 19.7667 24.7799 19.3801 24.7799C18.9935 24.7799 18.6801 25.0933 18.6801 25.4799Z" fill="#343D6D"/>
<path d="M18.6801 28.58C18.6801 28.9666 18.9935 29.28 19.3801 29.28C19.7667 29.28 20.0801 28.9666 20.0801 28.58C20.0801 28.1934 19.7667 27.88 19.3801 27.88C18.9935 27.88 18.6801 28.1934 18.6801 28.58Z" fill="#343D6D"/>
<path d="M21.58 19.28C21.58 19.6666 21.8934 19.98 22.28 19.98C22.6666 19.98 22.98 19.6666 22.98 19.28C22.98 18.8934 22.6666 18.58 22.28 18.58C21.8934 18.58 21.58 18.8934 21.58 19.28Z" fill="#343D6D"/>
<path d="M21.58 22.3799C21.58 22.7665 21.8934 23.0799 22.28 23.0799C22.6666 23.0799 22.98 22.7665 22.98 22.3799C22.98 21.9933 22.6666 21.6799 22.28 21.6799C21.8934 21.6799 21.58 21.9933 21.58 22.3799Z" fill="#343D6D"/>
<path d="M21.58 25.4799C21.58 25.8665 21.8934 26.1799 22.28 26.1799C22.6666 26.1799 22.98 25.8665 22.98 25.4799C22.98 25.0933 22.6666 24.7799 22.28 24.7799C21.8934 24.7799 21.58 25.0933 21.58 25.4799Z" fill="#343D6D"/>
<path d="M21.58 28.58C21.58 28.9666 21.8934 29.28 22.28 29.28C22.6666 29.28 22.98 28.9666 22.98 28.58C22.98 28.1934 22.6666 27.88 22.28 27.88C21.8934 27.88 21.58 28.1934 21.58 28.58Z" fill="#343D6D"/>
<path d="M27.38 19.28C27.38 19.6666 27.6934 19.98 28.08 19.98C28.4666 19.98 28.78 19.6666 28.78 19.28C28.78 18.8934 28.4666 18.58 28.08 18.58C27.6934 18.58 27.38 18.8934 27.38 19.28Z" fill="#343D6D"/>
<path d="M27.38 22.3799C27.38 22.7665 27.6934 23.0799 28.08 23.0799C28.4666 23.0799 28.78 22.7665 28.78 22.3799C28.78 21.9933 28.4666 21.6799 28.08 21.6799C27.6934 21.6799 27.38 21.9933 27.38 22.3799Z" fill="#343D6D"/>
<path d="M27.38 25.4799C27.38 25.8665 27.6934 26.1799 28.08 26.1799C28.4666 26.1799 28.78 25.8665 28.78 25.4799C28.78 25.0933 28.4666 24.7799 28.08 24.7799C27.6934 24.7799 27.38 25.0933 27.38 25.4799Z" fill="#343D6D"/>
<path d="M27.38 28.58C27.38 28.9666 27.6934 29.28 28.08 29.28C28.4666 29.28 28.78 28.9666 28.78 28.58C28.78 28.1934 28.4666 27.88 28.08 27.88C27.6934 27.88 27.38 28.1934 27.38 28.58Z" fill="#343D6D"/>
<path fill-rule="evenodd" clip-rule="evenodd" d="M18.7567 15.24C19.0546 12.806 21.1287 10.92 23.64 10.92C26.1512 10.92 28.2253 12.806 28.5233 15.24H18.7567ZM23.64 8.88C27.4839 8.88 30.6 12.0004 30.6 15.8443C30.6 16.6367 29.9576 17.28 29.1652 17.28H18.1148C17.3224 17.28 16.68 16.6367 16.68 15.8443C16.68 12.0004 19.7961 8.88 23.64 8.88Z" fill="#343D6D"/>
<path fill-rule="evenodd" clip-rule="evenodd" d="M29.6799 13.92C29.6799 14.2514 29.4113 14.52 29.0799 14.52L18.4799 14.52C18.1486 14.52 17.8799 14.2514 17.8799 13.92C17.8799 13.5886 18.1486 13.32 18.4799 13.32L29.0799 13.32C29.4113 13.32 29.6799 13.5886 29.6799 13.92Z" fill="#343D6D"/>
<path fill-rule="evenodd" clip-rule="evenodd" d="M25.6799 8.87998C25.6799 9.21135 25.4113 9.47998 25.0799 9.47998H22.0799C21.7486 9.47998 21.4799 9.21135 21.4799 8.87998C21.4799 8.54861 21.7486 8.27998 22.0799 8.27998H25.0799C25.4113 8.27998 25.6799 8.54861 25.6799 8.87998Z" fill="#343D6D"/>
<path fill-rule="evenodd" clip-rule="evenodd" d="M12.3601 31.68C12.3601 31.3486 12.0915 31.08 11.7601 31.08H8.16011C7.82874 31.08 7.56011 31.3486 7.56011 31.68C7.56011 32.0113 7.82874 32.28 8.16011 32.28H11.7601C12.0915 32.28 12.3601 32.0113 12.3601 31.68Z" fill="#343D6D"/>
<path d="M12.6001 30.24C12.6001 30.0412 12.4389 29.88 12.2401 29.88H10.5601C10.3613 29.88 10.2001 30.0412 10.2001 30.24V33.12C10.2001 33.3188 10.3613 33.48 10.5601 33.48H12.2401C12.4389 33.48 12.6001 33.3188 12.6001 33.12V30.24Z" fill="#343D6D"/>
<path fill-rule="evenodd" clip-rule="evenodd" d="M-0.419994 47.0373C-0.418538 46.474 0.0393096 46.0185 0.602638 46.02L46.9226 46.1397C47.486 46.1411 47.9415 46.599 47.94 47.1623C47.9385 47.7256 47.4807 48.1811 46.9174 48.1797L0.597367 48.06C0.0340383 48.0585 -0.42145 47.6007 -0.419994 47.0373Z" fill="#343D6D"/>
<path fill-rule="evenodd" clip-rule="evenodd" d="M8.04 2.04V45.96H39.96V2.04H8.04ZM7.68 0C6.75216 0 6 0.752163 6 1.68V46.32C6 47.2478 6.75216 48 7.68 48H40.32C41.2478 48 42 47.2478 42 46.32V1.68C42 0.752162 41.2478 0 40.32 0H7.68Z" fill="#343D6D"/>
<path fill-rule="evenodd" clip-rule="evenodd" d="M7.14001 5.21995C7.14001 4.65662 7.59668 4.19995 8.16001 4.19995H20.64C22.335 4.19995 23.52 4.72015 24.227 5.58843C24.9094 6.42656 25.005 7.41955 24.8843 8.09849C24.7857 8.65312 24.2561 9.02281 23.7015 8.9242C23.1468 8.8256 22.7772 8.29605 22.8758 7.74142C22.9151 7.52035 22.8786 7.16334 22.645 6.87648C22.436 6.61975 21.921 6.23995 20.64 6.23995H8.16001C7.59668 6.23995 7.14001 5.78328 7.14001 5.21995Z" fill="#343D6D"/>
<path fill-rule="evenodd" clip-rule="evenodd" d="M35.82 22.8C36.3834 22.8 36.84 23.2567 36.84 23.82V35.82C36.84 36.3834 36.3834 36.84 35.82 36.84C35.2567 36.84 34.8 36.3834 34.8 35.82V23.82C34.8 23.2567 35.2567 22.8 35.82 22.8Z" fill="#343D6D"/>
</g>
<defs>
<clipPath id="clip0_123_566">
<rect width="48" height="48" fill="white"/>
</clipPath>
</defs>
</svg>
