<svg width="48" height="48" viewBox="0 0 48 48" fill="none" xmlns="http://www.w3.org/2000/svg">
<path fill-rule="evenodd" clip-rule="evenodd" d="M0.96 16.92C0.429807 16.92 0 17.3498 0 17.88V42.1455C0 42.6757 0.429806 43.1055 0.959999 43.1055H21.8443C21.7583 43.9292 21.4834 45.4197 20.6047 46.5316H10.08C9.68236 46.5316 9.36 46.854 9.36 47.2516V47.28C9.36 47.6776 9.68235 48 10.08 48H37.92C38.3176 48 38.64 47.6776 38.64 47.28V47.2516C38.64 46.854 38.3176 46.5316 37.92 46.5316H27.5587C26.68 45.4197 26.4051 43.9292 26.3191 43.1055H47.04C47.5702 43.1055 48 42.6757 48 42.1455V17.88C48 17.3498 47.5702 16.92 47.04 16.92H0.96ZM43.02 41.76C42.788 41.76 42.6 41.948 42.6 42.18C42.6 42.4119 42.788 42.6 43.02 42.6H45.06C45.292 42.6 45.48 42.4119 45.48 42.18C45.48 41.948 45.292 41.76 45.06 41.76H43.02ZM2.04 18.96H45.96V41.04H2.04V18.96Z" fill="#343D6D"/>
<path fill-rule="evenodd" clip-rule="evenodd" d="M15.12 21C15.12 20.6686 14.8514 20.4 14.52 20.4H3.59999V24.12C3.59999 24.4513 3.86862 24.72 4.19999 24.72C4.53137 24.72 4.79999 24.4513 4.79999 24.12V21.6H14.52C14.8514 21.6 15.12 21.3313 15.12 21Z" fill="#343D6D"/>
</svg>
