<svg width="48" height="48" viewBox="0 0 48 48" fill="none" xmlns="http://www.w3.org/2000/svg">
<g clip-path="url(#clip0_123_574)">
<path fill-rule="evenodd" clip-rule="evenodd" d="M43.2 2.04H4.8C3.27569 2.04 2.04 3.27569 2.04 4.8V43.2C2.04 44.7243 3.27569 45.96 4.8 45.96H43.2C44.7243 45.96 45.96 44.7243 45.96 43.2V4.8C45.96 3.27569 44.7243 2.04 43.2 2.04ZM4.8 0C2.14903 0 0 2.14903 0 4.8V43.2C0 45.851 2.14903 48 4.8 48H43.2C45.851 48 48 45.851 48 43.2V4.8C48 2.14903 45.851 0 43.2 0H4.8Z" fill="#343D6D"/>
<path fill-rule="evenodd" clip-rule="evenodd" d="M30.9599 0.300003C31.5233 0.300003 31.9799 0.756673 31.9799 1.32L31.9799 11.16C31.9799 11.7233 31.5233 12.18 30.9599 12.18C30.3966 12.18 29.9399 11.7233 29.9399 11.16L29.9399 1.32C29.9399 0.756673 30.3966 0.300003 30.9599 0.300003Z" fill="#343D6D"/>
<path fill-rule="evenodd" clip-rule="evenodd" d="M30.9599 20.34C31.5233 20.34 31.9799 20.7967 31.9799 21.36L31.9799 45.6C31.9799 46.1633 31.5233 46.62 30.9599 46.62C30.3966 46.62 29.9399 46.1633 29.9399 45.6L29.9399 21.36C29.9399 20.7967 30.3966 20.34 30.9599 20.34Z" fill="#343D6D"/>
<path fill-rule="evenodd" clip-rule="evenodd" d="M19.3799 33.96C19.3799 33.3967 19.8366 32.94 20.3999 32.94L29.8799 32.94C30.4432 32.94 30.8999 33.3967 30.8999 33.96C30.8999 34.5233 30.4432 34.98 29.8799 34.98L20.3999 34.98C19.8366 34.98 19.3799 34.5233 19.3799 33.96Z" fill="#343D6D"/>
<path fill-rule="evenodd" clip-rule="evenodd" d="M-0.0600586 33.96C-0.0600586 33.3967 0.396611 32.94 0.959941 32.94H10.3199C10.8833 32.94 11.3399 33.3967 11.3399 33.96C11.3399 34.5233 10.8833 34.98 10.3199 34.98H0.959941C0.396611 34.98 -0.0600586 34.5233 -0.0600586 33.96Z" fill="#343D6D"/>
<path d="M9.58813 16.5438V23.52C9.58813 23.8514 9.31951 24.12 8.98813 24.12H8.06997C7.7386 24.12 7.46997 23.8514 7.46997 23.52V15.2102C7.46997 14.8789 7.7386 14.6102 8.06997 14.6102H8.90206C9.21863 14.6102 9.48074 14.8562 9.50084 15.1721L9.58813 16.5438ZM9.24536 19.0135L8.52466 19.0048C8.52466 18.3485 8.60669 17.7421 8.77075 17.1854C8.93481 16.6288 9.17505 16.1454 9.49146 15.7352C9.80786 15.3192 10.2004 14.9999 10.6692 14.7772C11.1438 14.5487 11.6917 14.4344 12.3127 14.4344C12.7463 14.4344 13.1418 14.4989 13.4993 14.6278C13.8625 14.7509 14.176 14.9471 14.4397 15.2167C14.7092 15.4862 14.9143 15.8319 15.0549 16.2538C15.2014 16.6757 15.2747 17.1854 15.2747 17.7831V23.52C15.2747 23.8514 15.006 24.12 14.6747 24.12H13.7565C13.4251 24.12 13.1565 23.8514 13.1565 23.52V17.9677C13.1565 17.5048 13.0862 17.1415 12.9456 16.8778C12.8108 16.6141 12.6145 16.4266 12.3567 16.3153C12.1047 16.1981 11.803 16.1395 11.4514 16.1395C11.053 16.1395 10.7131 16.2157 10.4319 16.368C10.1565 16.5204 9.93091 16.7284 9.75513 16.9921C9.57935 17.2557 9.45044 17.5604 9.36841 17.9061C9.28638 18.2518 9.24536 18.621 9.24536 19.0135ZM15.1428 18.451L14.1497 18.6708C14.1497 18.0966 14.2288 17.5546 14.387 17.0448C14.551 16.5292 14.7883 16.078 15.0989 15.6913C15.4153 15.2987 15.8049 14.9911 16.2678 14.7684C16.7307 14.5458 17.261 14.4344 17.8586 14.4344C18.345 14.4344 18.7786 14.5018 19.1594 14.6366C19.5461 14.7655 19.8743 14.9706 20.1438 15.2518C20.4133 15.5331 20.6184 15.8993 20.759 16.3505C20.8997 16.7958 20.97 17.3348 20.97 17.9677V23.52C20.97 23.8514 20.7013 24.12 20.37 24.12H19.443C19.1116 24.12 18.843 23.8514 18.843 23.52V17.9589C18.843 17.4784 18.7727 17.1063 18.6321 16.8427C18.4973 16.579 18.304 16.3973 18.052 16.2977C17.8 16.1923 17.4983 16.1395 17.1467 16.1395C16.8186 16.1395 16.5286 16.201 16.2766 16.3241C16.0305 16.4413 15.8225 16.6083 15.6526 16.8251C15.4827 17.036 15.3538 17.2792 15.2659 17.5546C15.1838 17.83 15.1428 18.1288 15.1428 18.451Z" fill="#343D6D"/>
<path d="M24.9525 12.42C25.201 12.42 25.4025 12.6215 25.4025 12.87L-nan -nanL-nan -nanL25.4025 12.87C25.4025 13.1185 25.201 13.32 24.9525 13.32H21.3843C21.0768 13.32 20.8275 13.0707 20.8275 12.7632L-nan -nanL-nan -nanL20.8275 12.7632C20.8275 12.6239 20.8797 12.4896 20.9739 12.3869L23.0493 10.1231C23.2931 9.84812 23.4853 9.61062 23.6259 9.41062C23.7665 9.21062 23.865 9.03093 23.9212 8.87156C23.9806 8.70906 24.0103 8.55125 24.0103 8.39812C24.0103 8.1825 23.9697 7.99343 23.8884 7.83093C23.8103 7.66531 23.6947 7.53562 23.5415 7.44187C23.3884 7.345 23.2025 7.29656 22.9837 7.29656C22.7306 7.29656 22.5181 7.35125 22.3462 7.46062C22.1743 7.57 22.0447 7.72156 21.9572 7.91531C21.942 7.94828 21.9282 7.9821 21.9157 8.01675C21.8097 8.31016 21.573 8.57156 21.2611 8.57156L-nan -nanL-nan -nanL21.2611 8.57156C20.9491 8.57156 20.6875 8.31488 20.7617 8.01189C20.807 7.82704 20.8758 7.65109 20.9681 7.48406C21.1493 7.15281 21.4118 6.89031 21.7556 6.69656C22.0993 6.49968 22.5134 6.40125 22.9978 6.40125C23.454 6.40125 23.8415 6.47781 24.1603 6.63093C24.479 6.78406 24.7212 7.00125 24.8868 7.2825C25.0556 7.56375 25.14 7.89656 25.14 8.28093C25.14 8.49343 25.1056 8.70437 25.0368 8.91375C24.9681 9.12312 24.8697 9.3325 24.7415 9.54187C24.6165 9.74812 24.4681 9.95593 24.2962 10.1653C24.1243 10.3716 23.9353 10.5809 23.729 10.7934L22.2525 12.42H24.9525Z" fill="#343D6D"/>
</g>
<defs>
<clipPath id="clip0_123_574">
<rect width="48" height="48" fill="white"/>
</clipPath>
</defs>
</svg>
