<svg width="48" height="48" viewBox="0 0 48 48" fill="none" xmlns="http://www.w3.org/2000/svg">
<g clip-path="url(#clip0_123_819)">
<path fill-rule="evenodd" clip-rule="evenodd" d="M43.98 47.28C43.98 46.7167 43.5234 46.26 42.96 46.26L5.04004 46.26C4.47671 46.26 4.02004 46.7167 4.02004 47.28C4.02004 47.8433 4.47671 48.3 5.04004 48.3L42.96 48.3C43.5234 48.3 43.98 47.8433 43.98 47.28Z" fill="#343D6D"/>
<path fill-rule="evenodd" clip-rule="evenodd" d="M9.24001 23.28V35.8493C9.24024 35.8646 9.24029 35.8799 9.24018 35.8952C9.24007 35.9101 9.24001 35.9251 9.24001 35.94C9.24001 38.2196 10.5624 40.495 13.1294 42.2853C15.6895 44.0707 19.3356 45.24 23.46 45.24C27.5845 45.24 31.2306 44.0707 33.7906 42.2853C36.3576 40.495 37.68 38.2196 37.68 35.94C37.68 35.925 37.68 35.9101 37.6798 35.8954C37.6797 35.88 37.6798 35.8646 37.68 35.8493V23.28H9.24001ZM39.7199 33.84C39.182 33.84 38.6931 34.0481 38.3287 34.3879C38.6917 34.0488 39.1794 33.84 39.7199 33.84ZM38.76 21.24C39.2902 21.24 39.72 21.6698 39.72 22.2V35.8799C39.72 35.8799 39.72 35.88 39.7199 35.88C39.7198 35.88 39.7198 35.88 39.7198 35.8801C39.7198 35.886 39.7199 35.892 39.7199 35.8979C39.72 35.9119 39.72 35.9259 39.72 35.94C39.72 35.954 39.72 35.9681 39.7199 35.9821C39.6873 42.2257 32.42 47.28 23.46 47.28C14.5001 47.28 7.23285 42.2258 7.20012 35.9823C7.20005 35.9682 7.20001 35.9541 7.20001 35.94C7.20001 35.9259 7.20005 35.9118 7.20012 35.8976C7.20015 35.8918 7.20019 35.8859 7.20023 35.8801C7.20023 35.88 7.20018 35.88 7.20012 35.88C7.20006 35.88 7.20001 35.8799 7.20001 35.8799V22.2C7.20001 21.6698 7.62982 21.24 8.16001 21.24H38.76Z" fill="#343D6D"/>
<path fill-rule="evenodd" clip-rule="evenodd" d="M42.1831 24.787C43.3461 24.3375 44.1673 24.5536 44.6944 25.0071C45.2621 25.4956 45.6886 26.432 45.6525 27.7675C45.5808 30.4121 43.6501 34.33 38.2444 37.4973C37.7583 37.7821 37.5952 38.407 37.88 38.893C38.1647 39.379 38.7896 39.5422 39.2757 39.2574C45.0996 35.8451 47.5957 31.3663 47.6917 27.8228C47.7394 26.0642 47.185 24.4588 46.0249 23.4607C44.8254 22.4287 43.1743 22.2136 41.4377 22.8881C41.3823 22.9096 41.3119 22.9395 41.237 22.9795C40.8339 23.1946 39.0437 24.2659 37.9958 26.8317C37.7828 27.3532 38.0329 27.9486 38.5544 28.1616C39.0759 28.3746 39.6713 28.1245 39.8843 27.603C40.6698 25.6798 41.9739 24.9019 42.1831 24.787Z" fill="#343D6D"/>
<path fill-rule="evenodd" clip-rule="evenodd" d="M36.1645 36.4637C36.4718 36.5877 36.6204 36.9373 36.4964 37.2446C35.8771 38.7794 34.4212 40.1177 32.953 41.1473C31.4661 42.19 29.8709 42.9818 28.8448 43.3964C28.5375 43.5205 28.1878 43.3721 28.0637 43.0649C27.9396 42.7576 28.088 42.4079 28.3952 42.2838C29.3491 41.8984 30.8619 41.1481 32.264 40.1648C33.6848 39.1685 34.8989 37.9968 35.3836 36.7956C35.5076 36.4883 35.8572 36.3397 36.1645 36.4637Z" fill="#343D6D"/>
<path fill-rule="evenodd" clip-rule="evenodd" d="M21.8659 0.069833C21.6668 0.478538 22.1185 0.413549 22.756 1.13019C23.3008 1.74241 23.5875 2.17005 23.7694 2.64126C24.0469 3.36042 23.9865 4.05623 23.5728 4.90617C23.0099 6.06258 21.9153 7.19135 19.6061 8.99662C18.4225 9.92191 17.7898 10.6612 17.4457 11.521C17.2737 11.951 17.2286 12.6494 17.3437 13.1016C17.7692 14.7727 19.8487 16.4034 23.0842 17.6031C23.9587 17.9273 23.934 17.866 23.9935 17.8757C24.2257 17.9136 24.3719 17.6919 24.0794 17.5442C22.9387 17.0237 21.5331 16.1277 21.1667 15.1041C21.0553 14.7929 21.0425 14.6905 21.0452 14.1376C21.0488 13.4189 21.156 12.9785 21.5112 12.2228C21.9816 11.2221 22.4236 10.6517 23.8984 9.14238C24.5119 8.51441 25.1568 7.81542 25.3313 7.58911C26.233 6.41995 26.6408 5.45136 26.64 4.4802C26.6391 3.21066 25.9804 2.16724 24.5929 1.23752C23.7235 0.654889 22.1785 -0.260175 21.8659 0.069833Z" fill="#343D6D"/>
<path fill-rule="evenodd" clip-rule="evenodd" d="M27.5373 6.64556C27.4045 6.91163 27.7057 6.86932 28.1307 7.33586C28.4939 7.73442 28.6851 8.01281 28.8063 8.31958C28.9913 8.78776 28.951 9.24073 28.6752 9.79405C28.2999 10.5469 27.5702 11.2817 26.0307 12.457C25.2417 13.0593 24.8199 13.5406 24.5905 14.1004C24.4758 14.3803 24.4458 14.835 24.5225 15.1293C24.8061 16.2172 26.1925 17.2788 28.3495 18.0598C28.9325 18.2709 28.916 18.231 28.9557 18.2373C29.1105 18.2619 29.208 18.1177 29.013 18.0215C28.2525 17.6827 27.3154 17.0993 27.0712 16.4329C26.9969 16.2304 26.9883 16.1637 26.9902 15.8037C26.9926 15.3359 27.064 15.0492 27.3008 14.5572C27.6144 13.9058 27.9091 13.5344 28.8923 12.5518C29.3013 12.143 29.7312 11.688 29.8476 11.5407C30.4487 10.7795 30.7205 10.149 30.72 9.51674C30.7194 8.69026 30.2803 8.01099 29.3553 7.40573C28.7757 7.02643 27.7457 6.43072 27.5373 6.64556Z" fill="#343D6D"/>
</g>
<defs>
<clipPath id="clip0_123_819">
<rect width="48" height="48" fill="white"/>
</clipPath>
</defs>
</svg>
