<svg width="48" height="48" viewBox="0 0 48 48" fill="none" xmlns="http://www.w3.org/2000/svg">
<g clip-path="url(#clip0_123_820)">
<path fill-rule="evenodd" clip-rule="evenodd" d="M24 2.34005C16.2111 2.34005 8.37328 5.74095 1.94609 12.6356C1.56197 13.0476 0.916542 13.0703 0.504483 12.6862C0.0924251 12.302 0.0697779 11.6566 0.453899 11.2446C7.22671 3.97917 15.5888 0.300052 24 0.300049C32.4111 0.300045 40.7733 3.97915 47.5461 11.2445C47.9302 11.6566 47.9076 12.302 47.4955 12.6861C47.0834 13.0703 46.438 13.0476 46.0539 12.6356C39.6267 5.74094 31.7888 2.34005 24 2.34005ZM24 11.73C17.8816 11.73 11.8532 14.1271 8.24775 18.8029C7.90376 19.249 7.26326 19.3318 6.81715 18.9878C6.37104 18.6438 6.28826 18.0033 6.63224 17.5572C10.7068 12.273 17.3984 9.69004 24 9.69004C30.6016 9.69004 37.2932 12.273 41.3677 17.5572C41.7117 18.0033 41.629 18.6438 41.1828 18.9878C40.7367 19.3318 40.0962 19.249 39.7522 18.8029C36.1468 14.1271 30.1184 11.73 24 11.73ZM13.0243 25.2013C12.5928 24.8392 12.5366 24.1958 12.8987 23.7643C18.9463 16.5586 29.0537 16.5586 35.1013 23.7643C35.4634 24.1958 35.4072 24.8392 34.9757 25.2013C34.5442 25.5635 33.9009 25.5073 33.5387 25.0758C28.3063 18.8415 19.6937 18.8415 14.4613 25.0758C14.0991 25.5073 13.4558 25.5635 13.0243 25.2013Z" fill="#343D6D"/>
<path fill-rule="evenodd" clip-rule="evenodd" d="M24.06 32.16C25.2198 32.16 26.16 31.2198 26.16 30.06C26.16 28.9002 25.2198 27.96 24.06 27.96C22.9002 27.96 21.96 28.9002 21.96 30.06C21.96 31.2198 22.9002 32.16 24.06 32.16ZM24.06 34.2C26.3464 34.2 28.2 32.3465 28.2 30.06C28.2 27.7736 26.3464 25.92 24.06 25.92C21.7735 25.92 19.92 27.7736 19.92 30.06C19.92 32.3465 21.7735 34.2 24.06 34.2Z" fill="#343D6D"/>
<path fill-rule="evenodd" clip-rule="evenodd" d="M44.64 38.7601H3.36C2.63098 38.7601 2.04 39.3511 2.04 40.0801V44.6401C2.04 45.3691 2.63098 45.9601 3.36 45.9601H44.64C45.369 45.9601 45.96 45.3691 45.96 44.6401V40.0801C45.96 39.3511 45.369 38.7601 44.64 38.7601ZM3.36 36.7201C1.50432 36.7201 0 38.2244 0 40.0801V44.6401C0 46.4958 1.50432 48.0001 3.36 48.0001H44.64C46.4957 48.0001 48 46.4958 48 44.6401V40.0801C48 38.2244 46.4957 36.7201 44.64 36.7201H3.36Z" fill="#343D6D"/>
<path fill-rule="evenodd" clip-rule="evenodd" d="M5.28002 41.8801V42.7201H6.12002V41.8801H5.28002ZM4.92002 40.6801C4.4561 40.6801 4.08002 41.0561 4.08002 41.5201V43.0801C4.08002 43.544 4.4561 43.9201 4.92002 43.9201H6.48002C6.94394 43.9201 7.32002 43.544 7.32002 43.0801V41.5201C7.32002 41.0561 6.94394 40.6801 6.48002 40.6801H4.92002Z" fill="#343D6D"/>
<path fill-rule="evenodd" clip-rule="evenodd" d="M42.9 42.7201C43.1319 42.7201 43.32 42.532 43.32 42.3001C43.32 42.0681 43.1319 41.8801 42.9 41.8801C42.668 41.8801 42.48 42.0681 42.48 42.3001C42.48 42.532 42.668 42.7201 42.9 42.7201ZM42.9 43.9201C43.7947 43.9201 44.52 43.1948 44.52 42.3001C44.52 41.4054 43.7947 40.6801 42.9 40.6801C42.0053 40.6801 41.28 41.4054 41.28 42.3001C41.28 43.1948 42.0053 43.9201 42.9 43.9201Z" fill="#343D6D"/>
<path fill-rule="evenodd" clip-rule="evenodd" d="M37.62 42.7201C37.852 42.7201 38.04 42.532 38.04 42.3001C38.04 42.0681 37.852 41.8801 37.62 41.8801C37.388 41.8801 37.2 42.0681 37.2 42.3001C37.2 42.532 37.388 42.7201 37.62 42.7201ZM37.62 43.9201C38.5147 43.9201 39.24 43.1948 39.24 42.3001C39.24 41.4054 38.5147 40.6801 37.62 40.6801C36.7253 40.6801 36 41.4054 36 42.3001C36 43.1948 36.7253 43.9201 37.62 43.9201Z" fill="#343D6D"/>
<path fill-rule="evenodd" clip-rule="evenodd" d="M32.34 42.7201C32.5719 42.7201 32.76 42.532 32.76 42.3001C32.76 42.0681 32.5719 41.8801 32.34 41.8801C32.108 41.8801 31.92 42.0681 31.92 42.3001C31.92 42.532 32.108 42.7201 32.34 42.7201ZM32.34 43.9201C33.2347 43.9201 33.96 43.1948 33.96 42.3001C33.96 41.4054 33.2347 40.6801 32.34 40.6801C31.4453 40.6801 30.72 41.4054 30.72 42.3001C30.72 43.1948 31.4453 43.9201 32.34 43.9201Z" fill="#343D6D"/>
</g>
<defs>
<clipPath id="clip0_123_820">
<rect width="48" height="48" fill="white"/>
</clipPath>
</defs>
</svg>
