<svg width="1429" height="700" viewBox="0 0 1429 700" fill="none" xmlns="http://www.w3.org/2000/svg">
<rect width="1183.83" height="699.051" transform="translate(124.086 0.0223389)" fill="#1B2C8C"/>
<path fill-rule="evenodd" clip-rule="evenodd" d="M488.389 0.382519C489.446 0.703799 490.298 1.44392 489.611 1.44392C489.436 1.44392 489.019 2.80569 488.684 4.46967C488.349 6.13401 487.777 8.47173 487.413 9.66479C487.048 10.8579 486.749 12.1782 486.748 12.5989C486.746 13.0195 486.511 13.8363 486.225 14.4139C485.938 14.9919 485.704 15.7346 485.705 16.0643C485.706 16.9424 484.739 21.4344 483.957 24.1829C482.641 28.8103 481.897 31.7612 480.629 37.3862C479.925 40.5128 479.142 43.4182 478.889 43.8426C478.637 44.2669 478.32 45.2572 478.185 46.0431C478.05 46.8291 477.789 47.7772 477.605 48.1505C477.422 48.5235 476.887 50.4215 476.416 52.3682C475.343 56.8078 475.259 57.1221 473.671 62.6925C472.376 67.2381 471.995 68.6504 471.397 71.1279C471.226 71.8339 470.598 74.3095 470 76.6293C468.218 83.5463 467.917 84.7698 467.383 87.2605C467.102 88.5691 466.568 90.6321 466.196 91.8449C465.824 93.0578 465.336 95.0306 465.11 96.2288C464.885 97.4274 464.568 98.6652 464.405 98.9795C464.242 99.2942 463.857 100.789 463.549 102.302C463.24 103.815 462.464 106.951 461.825 109.271C461.185 111.59 460.553 114.066 460.421 114.772C460.288 115.478 459.966 116.798 459.705 117.706C459.444 118.614 458.97 120.429 458.651 121.74C458.333 123.052 457.856 124.867 457.593 125.775C457.33 126.683 456.715 129.383 456.226 131.776C455.738 134.168 455.107 136.705 454.826 137.414C454.545 138.122 454.315 138.96 454.315 139.276C454.315 139.593 453.931 141.182 453.463 142.807C452.994 144.433 452.197 147.331 451.692 149.247C451.187 151.164 450.484 153.804 450.129 155.115C449.176 158.639 448.074 163.006 447.353 166.118C447.003 167.631 446.296 170.437 445.782 172.353C445.268 174.269 444.307 178.065 443.646 180.788C442.985 183.512 441.897 187.885 441.228 190.508C438.167 202.513 437.524 205.313 437.39 207.226C437.255 209.167 437.31 209.338 438.457 210.507C439.847 211.924 439.933 212.543 438.986 214.316L438.305 215.59L439.16 217.803C440.052 220.111 440.263 222.192 439.668 222.817C439.437 223.06 439.554 223.665 440.017 224.619C440.969 226.584 440.893 227.776 439.667 230.061C438.874 231.537 438.62 232.475 438.62 233.927C438.62 235.037 438.338 236.495 437.948 237.394C437.579 238.247 437.162 239.423 437.023 240.007C436.73 241.232 434.447 243.757 432.407 245.112C431.634 245.625 430.727 246.534 430.391 247.132C430.055 247.73 429.5 248.296 429.158 248.391C427.712 248.788 425.707 255.508 425.199 261.659C425.165 262.062 425.042 262.64 424.924 262.942C424.806 263.245 424.442 264.565 424.114 265.876C423.417 268.665 422.147 271.627 420.655 273.945C419.164 276.261 418.51 278.054 417.848 281.647C417.531 283.361 417.134 284.944 416.963 285.165C416.793 285.385 416.754 285.67 416.875 285.798C416.997 285.925 416.928 286.243 416.723 286.503C416.518 286.762 416.192 288.046 415.999 289.354C415.806 290.662 415.26 293.301 414.785 295.217C413.183 301.691 411.389 308.448 411.009 309.446C410.801 309.991 410.195 312.253 409.662 314.472C409.129 316.691 408.429 319.496 408.107 320.707C407.786 321.917 407.204 324.227 406.814 325.841C406.424 327.455 405.959 328.966 405.782 329.198C405.406 329.69 406.69 330.748 409.444 332.217C411.086 333.093 411.243 333.288 411.256 334.46C411.263 335.166 411.398 336.362 411.556 337.116C411.935 338.935 411.631 340.046 410.327 341.607C409.414 342.701 409.229 343.252 409.125 345.19C408.935 348.735 408.92 349.388 408.998 350.972C409.047 351.967 408.864 352.686 408.434 353.186C408.084 353.593 407.238 355.321 406.555 357.027C404.997 360.918 403.249 363.425 400.299 366.001C395.783 369.945 395.666 370.126 394.375 375.184C393.733 377.698 392.896 380.91 392.516 382.322C392.134 383.734 391.694 385.384 391.537 385.989C390.952 388.237 389.796 392.675 389.098 395.342C388.703 396.855 388.124 399.165 387.811 400.476C387.499 401.788 387.032 403.121 386.774 403.439C386.516 403.758 386.305 404.234 386.305 404.498C386.305 404.762 387.051 404.247 387.962 403.354C389.799 401.553 393.382 398.643 393.762 398.643C393.897 398.643 394.432 398.314 394.951 397.913C396.008 397.097 401.726 394.975 402.868 394.975C403.273 394.975 403.757 394.815 403.943 394.619C404.695 393.828 416.223 392.973 417.258 393.631C417.402 393.723 419.011 393.908 420.833 394.043C422.656 394.178 424.296 394.443 424.478 394.632C424.66 394.821 425.257 394.975 425.804 394.975C426.351 394.975 427.379 395.286 428.088 395.665C428.798 396.045 430.791 396.823 432.517 397.395C435.648 398.431 438.869 399.759 440.19 400.56C442.416 401.909 446.026 404.019 447.688 404.944C451.421 407.021 452.557 407.871 455.095 410.486C458.055 413.536 460.172 416.445 462.086 420.093C463.666 423.103 465.648 428.277 466.188 430.798C466.667 433.031 466.687 440.317 466.218 441.612C466.024 442.149 465.54 444.027 465.143 445.785C463.455 453.258 458.418 460.853 452.037 465.543C448.091 468.444 436.763 474.561 435.338 474.561C434.899 474.561 434.084 474.722 433.528 474.919C431.799 475.53 424.269 476.509 421.705 476.456C416.141 476.341 409.122 474.542 402.872 471.627C400.351 470.451 398.053 470.065 396.389 470.536C393.674 471.305 390.142 475.105 390.142 477.257C390.142 478.977 393.111 481.141 396.27 481.725C400.156 482.443 404.542 484.951 406.06 487.321C406.924 488.671 406.931 490.253 406.075 490.756C405.666 490.997 405.567 491.392 405.716 492.177C405.975 493.539 405.322 494.429 404.12 494.349C403.626 494.316 402.341 494.306 401.266 494.328C398.953 494.373 397.936 495.16 396.848 497.747C396.464 498.659 395.938 499.544 395.68 499.712C395.038 500.129 392.97 499.906 392.086 499.325C391.688 499.063 390.735 498.646 389.968 498.399C387.087 497.468 383.441 495.297 381.55 493.386C379.993 491.813 379.457 491.477 378.787 491.653C378.257 491.794 377.54 491.602 376.803 491.124C374.718 489.768 369.533 483.599 368.202 480.888C367.392 479.24 367.188 479.615 365.964 485.014C365.689 486.224 364.955 489.195 364.333 491.616C363.71 494.036 362.99 496.925 362.733 498.034C361.598 502.932 358.363 515.611 356.417 522.79C355.449 526.362 353.826 532.705 353.649 533.609C353.55 534.114 353.344 534.856 353.192 535.26C353.039 535.663 352.556 537.479 352.119 539.294C351.681 541.11 350.788 544.658 350.133 547.18C349.479 549.701 348.641 553.084 348.271 554.698C347.901 556.312 347.453 557.897 347.276 558.22C347.098 558.544 346.841 559.616 346.704 560.604C346.567 561.592 346.241 562.978 345.98 563.684C345.463 565.083 342.601 576.357 341.79 580.188C341.512 581.499 340.992 583.562 340.634 584.772C340.276 585.982 339.157 590.274 338.146 594.308C337.135 598.342 335.929 603.128 335.466 604.944C334.685 608.002 334.453 608.976 333.671 612.462C333.512 613.168 332.656 616.353 331.769 619.539C330.881 622.725 330.154 625.579 330.154 625.881C330.154 626.182 329.852 627.454 329.483 628.706C329.114 629.959 328.399 632.634 327.894 634.651C326.395 640.635 325.221 645.179 324.719 646.938C324.461 647.845 323.988 649.578 323.668 650.789C323.349 651.999 322.873 653.696 322.61 654.561C322.347 655.425 322.133 656.447 322.133 656.831C322.133 657.681 321.591 658.09 320.999 657.687C320.759 657.524 319.073 657.054 317.252 656.643C314.829 656.096 313.912 655.734 313.831 655.293C313.77 654.962 314.769 650.759 316.052 645.954C321.426 625.814 326.403 606.964 327.846 601.276C328.512 598.654 330.097 592.547 331.369 587.706C332.641 582.865 334.301 576.511 335.058 573.586C335.815 570.661 337.383 564.637 338.542 560.199C339.701 555.762 341.206 549.903 341.886 547.18C343.633 540.188 343.893 539.167 345.338 533.609C346.046 530.886 346.903 527.585 347.242 526.274C347.582 524.963 348.093 523.148 348.378 522.24C348.663 521.332 349.141 519.682 349.44 518.572C349.738 517.463 350.302 515.4 350.691 513.988C351.371 511.527 351.752 510.013 354.38 499.318C355.024 496.695 355.735 494.055 355.96 493.45C356.185 492.844 356.985 489.874 357.739 486.848C359.933 478.045 361.624 471.526 364.492 460.808C364.924 459.194 365.402 457.568 365.554 457.193C365.796 456.6 365.658 456.626 364.472 457.401C362.523 458.674 359.744 459.435 356.123 459.687C352.688 459.926 348.932 459.295 342.884 457.463C335.37 455.187 327.575 448.643 324.16 441.743C323.32 440.047 322.643 439.044 322.55 439.359C322.205 440.532 321.308 441.187 320.044 441.187C318.445 441.187 318.253 441.385 318.686 442.585C318.942 443.291 318.889 443.937 318.484 445.051C317.983 446.43 317.985 446.702 318.501 448.183C318.812 449.075 319.194 450.3 319.35 450.906C319.968 453.304 321.107 456.996 322.63 461.542C325.02 468.677 325.333 471.143 325.394 483.364C325.454 495.459 325.398 495.77 322.978 496.742C322.129 497.082 321.415 497.471 321.39 497.606C321.366 497.741 321.31 498.181 321.266 498.584C321.222 498.988 321.006 500.192 320.787 501.261C320.568 502.33 320.389 503.771 320.389 504.463C320.389 506.639 319.405 508.622 317.933 509.411C315.786 510.563 315.18 511.772 312.422 520.406C311.488 523.331 310.068 527.622 309.266 529.942C308.465 532.262 307.134 536.223 306.309 538.744C305.485 541.266 304.547 543.86 304.226 544.509C303.782 545.404 303.654 546.556 303.692 549.277C303.736 552.385 303.616 553.207 302.794 555.432C302.272 556.844 301.668 558.223 301.452 558.497C300.512 559.688 301.923 575.117 303.323 578.963C303.532 579.536 303.718 582.232 303.737 584.956C303.765 588.939 303.587 590.91 302.828 595.041C302.308 597.865 301.639 601.579 301.342 603.293C301.044 605.008 300.652 606.704 300.471 607.063C300.213 607.574 300.395 607.97 301.312 608.896C302.962 610.564 303.648 611.87 303.648 613.346C303.648 614.207 303.421 614.789 302.948 615.137C302.375 615.559 302.271 615.977 302.37 617.45C302.51 619.497 301.984 620.875 300.686 621.87C300.197 622.244 299.716 623.019 299.617 623.591C299.217 625.915 297.264 627.499 294.802 627.499C293.658 627.499 293.535 627.608 293.234 628.875C293.054 629.631 292.914 630.498 292.925 630.8C292.935 631.103 292.744 632.811 292.5 634.596C292.132 637.289 291.883 638.05 291.034 639.066C290.472 639.74 289.483 640.475 288.837 640.699C287.591 641.131 286.6 642.368 286.59 643.502C286.56 646.747 285.37 651.762 284.48 652.392C283.967 652.755 283.768 653.295 283.768 654.329C283.768 656.275 283.043 657.958 281.687 659.158C280.771 659.968 280.636 660.258 280.974 660.686C281.203 660.976 281.476 662.204 281.581 663.415C281.785 665.786 281.451 667.047 279.994 669.399C278.977 671.044 279.106 672.746 280.464 675.563C280.939 676.548 281.328 677.566 281.331 677.825C281.337 678.779 283.028 682.079 284.682 684.366C286.174 686.429 286.384 686.938 286.384 688.488C286.384 689.943 286.229 690.382 285.512 690.961C285.033 691.349 284.405 691.676 284.117 691.688C283.829 691.7 283.278 692.24 282.892 692.888C282.468 693.599 281.846 694.113 281.322 694.184C280.804 694.254 280.173 694.77 279.752 695.467C279.329 696.168 278.704 696.678 278.183 696.747C277.706 696.809 276.651 697.181 275.838 697.572C275.024 697.964 274.117 698.284 273.821 698.284C272.9 698.284 270.883 697.253 269.559 696.106C268.206 694.933 267.376 695.089 267.376 696.515C267.376 697.018 266.818 697.493 265.455 698.149L263.535 699.074L262.356 698.308C261.708 697.887 261.086 697.255 260.974 696.904C260.862 696.553 260.63 696.019 260.458 695.716C258.493 692.257 258.649 686.882 260.83 682.88C261.787 681.122 261.731 678.787 260.662 675.912C258.592 670.349 258.295 668.719 258.462 663.869L258.618 659.344L260.147 657.626C261.821 655.743 262.06 654.798 262.848 646.938C263.817 637.263 263.775 636.314 262.415 637.08C261.982 637.323 260.285 637.531 258.643 637.542C256.127 637.558 255.442 637.427 254.286 636.71L252.915 635.859L249.16 637.914C246.782 639.216 244.977 639.969 244.237 639.969C242.916 639.969 240.562 638.368 239.591 636.809C238.667 635.326 236.987 634.722 235.19 635.226C233.74 635.632 230.037 637.351 226.858 639.092C225.374 639.905 219.784 641.544 213.492 643.011C211.082 643.572 205.332 644.169 203.462 644.052C202.406 643.986 199.248 642.58 198.146 641.686C197.579 641.225 197.449 640.686 197.449 638.802V636.485L196.232 636.302C195.305 636.162 194.899 635.856 194.529 635.018C193.626 632.974 193.059 632.545 191.587 632.793C190.613 632.957 184.84 635.673 183.766 636.473C183.721 636.506 183.831 637.069 184.009 637.723C184.187 638.377 184.238 640.327 184.122 642.056L183.911 645.2L180.827 648.524C179.131 650.353 177.744 651.966 177.744 652.109C177.744 652.252 177.205 653.37 176.547 654.594C175.028 657.42 173.744 661.388 173.209 664.909C172.979 666.422 172.63 668.114 172.434 668.67C172.034 669.803 169.954 671.877 169.218 671.877C168.571 671.877 167.084 673.786 166.036 675.962C165.292 677.506 164.848 677.916 162.678 679.065C158.861 681.087 156.87 680.748 156.178 677.958C155.909 676.872 155.835 676.833 154.252 676.954C152.703 677.073 152.514 676.983 151.05 675.444C150.052 674.395 149.494 673.484 149.494 672.906C149.494 672.409 149.088 671.607 148.588 671.116C145.267 667.857 145.868 661.641 149.668 659.937C151.51 659.112 153.346 657.135 153.736 655.556C154.349 653.078 154.484 651.339 154.064 651.339C153.852 651.339 153.679 651.504 153.679 651.705C153.679 651.907 153.137 652.072 152.475 652.072C151.812 652.072 150.879 652.26 150.401 652.489C149.72 652.815 149.02 652.77 147.159 652.278C144.396 651.549 143.952 651.189 142.302 648.332C141.44 646.839 140.795 646.137 140.139 645.976C139.625 645.849 138.577 645.126 137.81 644.368C135.937 642.517 135.61 642.372 131.214 641.456C127.328 640.647 126.043 640.049 122.31 637.313C119.604 635.329 117.558 634.748 115.534 635.389C114.667 635.663 113.615 636.08 113.197 636.316C112.778 636.551 111.21 636.969 109.711 637.244C107.206 637.704 106.832 637.689 105.066 637.049C101.987 635.936 100.888 634.969 95.7129 628.823C94.5352 627.424 94.4591 627.393 91.8675 627.303C85.9866 627.099 78.5976 622.538 76.4552 617.791C75.6369 615.977 74.7525 615.511 71.563 615.213C68.1263 614.891 65.9542 613.888 62.1725 610.873C57.9354 607.495 55.7127 606.006 53.5831 605.117C46.7138 602.25 42.8565 599.922 41.2061 597.647C40.6788 596.92 40.0377 596.325 39.7817 596.325C39.5257 596.325 39.0113 595.623 38.6385 594.766C38.2657 593.909 37.0833 591.805 36.0109 590.09C34.5799 587.802 34.0599 586.629 34.0568 585.679C34.0505 583.904 34.543 583.2 38.2894 579.634L39.5624 578.423L39.6056 574.482C39.6848 567.295 40.2666 565.948 46.0704 559.501C48.194 557.143 48.4591 556.545 48.1968 554.707C48.0681 553.804 47.8146 552.969 47.6339 552.851C47.4532 552.734 47.3053 552.308 47.3053 551.904C47.3053 551.501 47.4623 551.273 47.6541 551.397C47.8459 551.522 48.0029 551.459 48.0029 551.257C48.0029 550.677 47.3817 550.427 47.2042 550.937C47.0793 551.295 46.9451 551.3 46.5998 550.958C46.2416 550.603 46.2406 550.1 46.5942 548.347C47.1055 545.813 46.913 544.957 45.3833 542.962C43.0588 539.929 43.0148 539.406 44.6522 534.232C45.5848 531.285 45.799 530.101 45.6619 528.649L45.4879 526.806L47.5299 525.827C48.6533 525.289 50.4355 524.495 51.4905 524.062C52.5456 523.629 54.115 522.978 54.9782 522.614C55.8414 522.251 58.8233 521.04 61.6047 519.924C64.3861 518.807 67.7604 517.376 69.1032 516.742C70.4459 516.109 72.0939 515.343 72.7652 515.04C73.4366 514.737 74.2998 514.34 74.6834 514.159C75.0671 513.978 76.6902 513.385 78.29 512.841C79.8901 512.296 81.4202 511.619 81.6904 511.335C81.9607 511.051 82.2021 510.129 82.2269 509.286C82.3992 503.416 83.4469 500.762 87.095 496.954C89.8415 494.085 89.9248 493.848 89.6496 489.646L89.4079 485.955L90.5087 484.873C91.2359 484.159 92.6441 483.46 94.6558 482.815C96.3313 482.277 99.8992 481.127 102.585 480.259C107.415 478.699 111.43 477.55 115.489 476.567C116.64 476.289 118.602 475.733 119.849 475.333C121.095 474.933 123.842 474.177 125.952 473.654C128.062 473.13 130.102 472.559 130.486 472.385C130.87 472.21 132.068 471.794 133.15 471.459C136.015 470.574 136.287 470.281 135.891 468.51C135.554 467.005 135.814 465.601 136.8 463.615C137.065 463.08 137.283 462.472 137.285 462.265C137.286 462.058 138.229 460.673 139.379 459.188L141.472 456.488V453.777C141.472 452.285 141.686 450.527 141.948 449.868C142.432 448.649 144.166 446.882 145.463 446.286C145.858 446.104 146.416 445.797 146.704 445.602C146.991 445.407 148.168 444.811 149.319 444.277C151.177 443.415 152.511 442.964 156.295 441.919C158.353 441.351 164.948 438.928 166.216 438.274C166.501 438.127 167.115 436.358 167.633 434.191C168.135 432.088 168.797 429.872 169.105 429.267C169.884 427.736 172.076 425.613 173.711 424.808C175.35 424.001 175.53 423.433 175.497 419.181C175.474 416.294 175.421 416.069 174.777 416.139C174.394 416.181 173.14 416.299 171.989 416.402C170.838 416.506 168.562 416.768 166.932 416.985C165.301 417.202 162.79 417.525 161.352 417.702C157.875 418.13 147.417 417.959 146.529 417.46C146.145 417.245 144.733 416.968 143.39 416.847C138.377 416.392 134.164 415.284 124.208 411.804C122.482 411.201 120.363 410.483 119.5 410.208C118.637 409.934 116.288 409.043 114.281 408.228C112.274 407.413 110.578 406.802 110.514 406.87C110.448 406.938 110.766 407.302 111.22 407.678C111.674 408.054 112.585 409.219 113.244 410.267C117.219 416.587 117.302 416.95 115.323 419.355C114.524 420.325 113.622 421.549 113.318 422.075C112.481 423.525 109.422 426.482 107.936 427.279C106.137 428.244 102.947 429.168 100.841 429.333C99.2135 429.461 96.9706 428.979 81.6587 425.212C77.951 424.3 77.4031 424.428 73.0857 427.204C69.2978 429.64 64.9271 433.293 58.3689 439.505C56.6467 441.136 55.0615 442.48 54.8463 442.493C54.017 442.54 53.7163 441.88 53.8321 440.263C53.9364 438.805 53.8164 438.441 52.9225 437.501C52.0074 436.539 50.7846 436.14 49.5723 436.409C49.3805 436.452 48.6742 436.534 48.0029 436.592C47.3315 436.65 45.7593 437.197 44.5093 437.807C40.6432 439.693 38.4589 440.207 35.4731 439.934C33.7185 439.773 32.5222 439.457 31.9101 438.99C30.995 438.294 30.9726 438.295 28.5968 439.236C22.0118 441.844 20.8264 442.065 13.2916 442.085L6.30691 442.103L3.78358 440.5C1.18946 438.852 0.620599 437.986 1.09631 436.411C1.30976 435.703 1.51172 435.64 2.95875 435.827C7.54746 436.42 10.1447 436.486 12.1777 436.061C15.8184 435.302 19.5422 433.666 24.7524 430.54C26.2552 429.638 28.0762 428.57 28.7985 428.167C30.0994 427.44 32.7409 425.115 37.1685 420.8C39.4118 418.614 43.3266 415.513 43.8438 415.513C43.9875 415.513 45.1782 414.865 46.4899 414.074C47.8016 413.282 50.1199 412.116 51.6415 411.484C53.1636 410.851 54.8115 410.036 55.3036 409.672C56.3279 408.917 61.6309 407.144 64.2205 406.693C65.1796 406.525 67.1414 406.119 68.58 405.789C70.0187 405.46 71.902 405.136 72.7652 405.07C73.6284 405.003 75.8312 404.834 77.6605 404.693C81.1014 404.428 84.5776 404.785 88.9029 405.847C90.8348 406.322 91.4531 406.345 92.3034 405.974C92.8747 405.726 93.3424 405.327 93.3424 405.089C93.3424 404.363 88.0586 401.248 85.4809 400.455C82.5798 399.561 75.2337 398.66 70.7734 398.65C64.7593 398.636 58.4658 399.593 58.4658 400.521C58.4658 401.145 55.7657 400.854 54.9297 400.14L54.1063 399.437L54.8372 398.398C55.6767 397.204 61.4087 392.522 62.4603 392.172C62.847 392.042 64.0168 391.274 65.0593 390.464C66.1021 389.654 68.8193 387.986 71.0978 386.757C76.2403 383.983 77.6221 383.208 78.7096 382.488C79.8413 381.739 83.8731 379.979 85.1673 379.669C86.591 379.328 88.7352 379.335 90.3137 379.685C91.5417 379.957 91.6177 379.928 91.2979 379.299C90.674 378.073 92.0028 376.508 94.6517 375.351C95.9456 374.785 97.1537 374.183 97.3357 374.013C97.5181 373.842 97.8812 373.703 98.1428 373.703C98.4044 373.703 99.4325 373.311 100.427 372.832C102.665 371.754 105.494 370.429 106.421 370.024C109.707 368.589 117.674 367.015 122.519 366.844C126.36 366.708 127.017 366.783 129.494 367.64C130.999 368.161 132.544 368.728 132.927 368.901C133.311 369.075 134.678 369.664 135.965 370.211C137.945 371.053 138.444 371.453 139.198 372.806C139.688 373.687 140.243 375.28 140.431 376.347C140.887 378.934 141.963 381.929 143.704 385.452C144.863 387.797 145.706 388.891 148.101 391.157C151.749 394.61 156.249 397.776 158.465 398.448C164.177 400.18 171.804 400.108 175.477 398.288C175.86 398.098 177.194 397.505 178.441 396.971C183.594 394.764 187.277 392.212 188.73 389.84C190.23 387.392 190.476 385.898 189.788 383.41C188.823 379.921 185.998 378.706 182.505 380.28C180.739 381.077 180.379 381.608 180.007 383.963C179.662 386.156 178.15 387.724 175.648 388.487C171.239 389.832 169.431 390.214 166.433 390.434C162.145 390.749 159.536 390.071 153.504 387.077C150.829 385.748 146.328 382.147 145.931 381.018C145.793 380.626 145.535 380.305 145.358 380.305C145.18 380.305 144.932 379.851 144.807 379.296C144.681 378.741 144.211 377.462 143.763 376.454C141.245 370.783 140.79 368.249 141.391 363.244C141.774 360.058 144.179 356.174 147.272 353.745C148.064 353.124 149.923 351.569 151.403 350.291C154.006 348.044 158.604 345.112 159.543 345.101C159.794 345.098 161.001 344.589 162.223 343.969C163.446 343.349 165.427 342.601 166.626 342.306C167.824 342.013 169.019 341.585 169.281 341.357C169.543 341.128 170.652 340.896 171.745 340.841C172.838 340.786 174.993 340.405 176.534 339.995C178.636 339.435 180.927 339.201 185.717 339.058C189.228 338.953 192.245 338.773 192.421 338.659C192.99 338.289 192.111 337.134 191.096 336.916C190.562 336.802 189.464 336.037 188.656 335.217C187.295 333.836 187.044 333.726 185.238 333.726C182.979 333.726 181.636 333.102 180.441 331.497C179.726 330.535 179.484 330.417 178.928 330.755C177.971 331.337 160.71 333.934 156.919 334.065C155.919 334.1 153.643 334.437 151.861 334.815C150.08 335.192 146.503 335.946 143.913 336.489C140.806 337.141 138.976 337.708 138.529 338.156C137.876 338.813 137.874 338.859 138.488 339.572C138.837 339.978 139.782 340.645 140.588 341.056C143.262 342.416 144.378 344.376 143.387 345.967C142.889 346.766 139.023 349.497 138.39 349.497C138.257 349.497 137.523 349.853 136.758 350.289C135.994 350.724 134.505 351.285 133.45 351.535C132.395 351.785 129.963 352.407 128.045 352.915C126.126 353.424 122.482 354.268 119.947 354.791C114.1 355.996 113.427 356.256 113.706 357.206C113.824 357.605 114.013 358.248 114.127 358.634C114.374 359.472 113.351 360.168 111.805 360.214C111.242 360.231 110.781 360.41 110.781 360.612C110.781 360.815 110.495 360.708 110.145 360.375C109.297 359.568 104.465 359.061 97.4404 359.041C95.7618 359.036 94.3887 358.886 94.3887 358.708C94.3887 358.238 96.6728 357.959 102.327 357.738C105.062 357.632 107.689 357.389 108.165 357.199C108.943 356.888 108.99 356.759 108.629 355.926C108.102 354.709 108.658 353.389 110.007 352.656C110.874 352.184 114.945 351.261 118.279 350.779C120.715 350.426 121.657 350.246 122.812 349.911C123.484 349.716 124.034 349.609 124.034 349.675C124.034 349.74 125.093 349.393 126.388 348.904C127.683 348.414 129.684 347.667 130.835 347.243C132.765 346.531 134.497 345.332 134.497 344.708C134.497 344.565 134.222 344.354 133.886 344.238C132.742 343.844 130.14 342.096 128.97 340.936C127.849 339.823 127.81 339.694 127.981 337.63C128.34 333.311 131.021 331.83 144.785 328.347C146.704 327.861 149.215 327.296 150.366 327.091C153.032 326.617 157.878 325.073 160.131 323.981C161.09 323.516 162.895 322.696 164.142 322.16C166.725 321.049 168.676 319.63 168.676 318.864C168.676 318.114 167.072 317.347 164.476 316.855C163.237 316.62 161.949 316.169 161.613 315.851C160.129 314.449 161.457 311.509 164.438 309.6C166.262 308.432 170.053 306.872 171.22 306.81C171.643 306.788 171.982 306.605 171.974 306.403C171.947 305.773 171.019 304.019 170.712 304.019C170.551 304.019 170.42 303.689 170.42 303.286C170.42 302.369 170.088 302.369 168.043 303.281C167.144 303.681 164.996 304.43 163.27 304.944C159.768 305.986 153.33 309.058 153.33 309.687C153.33 309.91 153.983 310.336 154.78 310.632C156.666 311.333 157.071 312.025 156.478 313.532C155.32 316.471 149.781 317.458 135.543 317.262C127.575 317.152 127.321 317.171 126.388 317.946C125.252 318.89 125.189 319.536 126.112 320.77C126.882 321.801 126.677 322.422 125.177 323.601C124.387 324.222 123.696 324.289 118.596 324.235L112.899 324.175L112.303 325.131C111.805 325.931 111.775 326.279 112.116 327.273C112.669 328.879 112.702 328.804 111.138 329.462C110 329.941 108.831 330.008 104.599 329.838C101.765 329.724 98.975 329.621 98.3995 329.609C97.824 329.597 96.6163 329.895 95.7158 330.271C93.6382 331.139 93.2224 330.727 94.7231 329.285C96.2103 327.857 97.4031 327.385 98.8222 327.665C99.5337 327.806 100.332 327.679 100.988 327.323C101.559 327.012 102.888 326.758 103.942 326.758C104.995 326.758 105.956 326.59 106.076 326.385C106.197 326.18 106.43 326.1 106.595 326.208C107.303 326.668 107.299 325.528 106.59 324.734C105.396 323.399 105.857 321.538 107.697 320.258C108.983 319.363 109.532 319.248 113.636 319.013C117.201 318.808 118.299 318.618 118.829 318.114C119.198 317.763 119.5 317.366 119.5 317.232C119.5 317.097 118.934 316.292 118.242 315.442C117.097 314.035 117.02 313.805 117.386 312.877C118.121 311.01 119.874 310.68 128.916 310.708C131.122 310.715 133.398 310.717 133.974 310.714C136.179 310.7 139.266 310.28 140.719 309.796L142.234 309.29L141.245 308.054C140.268 306.834 140.133 305.765 140.841 304.857C141.597 303.888 144.969 301.812 147.766 300.596C149.458 299.86 150.988 298.931 151.358 298.415C151.974 297.555 151.975 297.462 151.394 296.275C151.059 295.592 149.877 294.088 148.766 292.932C147.062 291.158 146.774 290.673 146.921 289.823C147.143 288.536 147.274 288.415 147.875 288.939C148.259 289.274 148.412 289.239 148.581 288.778C148.901 287.9 148.831 287.624 148.447 288.248C148.179 288.684 148.108 288.607 148.104 287.878C148.1 287.167 148.633 286.535 150.453 285.1C155.135 281.405 161.783 277.639 164.578 277.099C166.265 276.772 166.265 276.159 164.578 276.099C163.858 276.073 162.956 276.006 162.572 275.95C161.843 275.843 159.908 275.657 153.487 275.077C149.482 274.715 148.118 274.308 146.791 273.078C145.696 272.063 145.785 269.544 146.915 269.544C148.014 269.544 147.287 268.918 145.687 268.487C144.743 268.233 143.247 267.541 142.361 266.951C141.475 266.36 140.613 265.876 140.444 265.876C140.276 265.876 140.034 265.229 139.907 264.438C139.78 263.647 139.475 262.918 139.229 262.819C138.983 262.72 137.307 262.526 135.506 262.389C130.852 262.034 127.083 260.994 124.879 259.455C122.496 257.792 120.616 255.468 120.47 254.006C120.346 252.763 121.178 250.616 122.504 248.755C123.459 247.415 123.682 246.047 122.822 246.797C122.412 247.155 121.626 247.057 118.899 246.308C117.024 245.792 115.061 245.292 114.537 245.196C112.763 244.872 107.48 242.305 105.026 240.575C103.026 239.165 102.206 238.812 100.492 238.623C97.7149 238.316 93.854 237.233 92.0976 236.268C91.3171 235.839 89.8649 234.812 88.8705 233.986C87.1665 232.569 86.9084 232.475 84.361 232.34C82.8746 232.262 81.4233 232.122 81.1356 232.029C80.8479 231.937 80.1008 231.737 79.4755 231.584C78.8498 231.432 77.7121 230.669 76.9469 229.888C75.8012 228.719 75.5554 228.219 75.5554 227.063C75.5554 225.731 75.4622 225.613 73.762 224.775C71.3032 223.564 67.8992 220.992 67.1291 219.764C66.6628 219.02 66.4913 218.047 66.4899 216.131C66.4878 213.727 66.56 213.464 67.3803 212.899C67.8714 212.561 68.9309 212.158 69.7345 212.005C71.1749 211.731 71.2763 211.594 70.8655 210.486C70.7511 210.178 71.0925 209.029 71.6244 207.932C72.3648 206.405 72.9466 205.745 74.1111 205.109C76.4193 203.85 78.2621 203.668 85.6696 203.969C89.4101 204.12 97.1788 204.416 102.933 204.625C108.688 204.834 115.594 205.167 118.279 205.366C120.965 205.564 124.417 205.804 125.952 205.9C127.487 205.996 129.605 206.151 130.66 206.245C131.715 206.34 133.834 206.517 135.369 206.64C138.327 206.877 142.037 207.35 145.483 207.928C146.634 208.121 148.36 208.363 149.319 208.465C151.179 208.664 153.672 209.145 155.946 209.744C156.713 209.946 157.969 210.12 158.736 210.129C159.503 210.139 161.073 210.479 162.224 210.885C163.375 211.291 166.435 212.035 169.023 212.538C171.612 213.042 174.594 213.714 175.65 214.031C176.706 214.348 178.589 214.908 179.836 215.275C182.4 216.029 187.33 217.691 188.381 218.155C188.765 218.324 189.672 218.733 190.398 219.064C191.124 219.394 191.909 219.67 192.142 219.677C192.375 219.684 193.194 220.008 193.961 220.398C194.729 220.788 195.565 221.112 195.82 221.119C196.436 221.136 202.502 224.315 203.219 224.997C203.528 225.292 203.942 225.533 204.138 225.533C204.334 225.533 205.106 225.99 205.854 226.549C206.602 227.107 207.607 227.766 208.086 228.013C213.456 230.778 223.532 239.263 227.354 244.238C228.84 246.171 231.105 249.621 231.105 249.95C231.105 250.075 231.356 250.781 231.664 251.517C231.971 252.254 232.355 253.186 232.518 253.59C232.962 254.692 233.932 258.787 234.377 261.434C234.682 263.254 234.931 263.839 235.496 264.059C235.895 264.214 237.023 265.302 238.003 266.476L239.783 268.611L240.709 267.702C241.544 266.882 241.619 266.597 241.474 264.776C241.254 262.024 241.587 261.301 243.411 260.569C244.707 260.048 245.194 260.019 246.482 260.384C247.324 260.622 248.461 261.152 249.008 261.562C250.107 262.385 253.077 262.914 253.077 262.286C253.077 262.075 252.55 261.559 251.905 261.14C251.26 260.721 250.325 259.758 249.827 259.001C249.002 257.749 248.954 257.484 249.292 256.087C249.751 254.188 250.217 253.744 253.077 252.471C255.396 251.438 257.819 251.152 259.965 251.655C260.589 251.802 261.095 251.802 261.092 251.655C261.087 251.509 260.067 250.599 258.825 249.632C256.983 248.199 256.565 247.685 256.565 246.85C256.565 246.287 256.656 245.731 256.768 245.613C256.88 245.495 257.727 245.798 258.65 246.285C259.573 246.773 260.639 247.172 261.018 247.172C261.398 247.172 262.317 247.394 263.06 247.666C265.953 248.723 268.764 248.101 270.622 245.992C271.515 244.979 271.751 244.897 273.328 245.056C274.303 245.155 275.36 245.52 275.752 245.893C276.135 246.258 276.564 246.435 276.704 246.287C276.967 246.01 274.702 243.654 271.806 241.193C270.905 240.427 270.167 239.643 270.167 239.451C270.167 238.825 272.526 239.085 275.298 240.015C278.59 241.121 279.414 241.148 281.376 240.211C284.118 238.903 285.953 239.231 290.046 241.759C292.191 243.084 294.69 243.644 296.17 243.13C296.801 242.911 298.075 241.903 299.001 240.889C304.086 235.321 310.804 235.514 316.456 241.39C317.649 242.631 318.705 243.563 318.802 243.461C319.104 243.143 317.001 238.963 316.082 238.055C315.017 237.003 315.234 236.169 316.573 236.169C317.902 236.169 319.1 236.749 321.654 238.63C324.248 240.54 326.46 243.3 328.67 247.38C329.582 249.065 330.534 250.531 330.785 250.638C331.468 250.929 334.416 250.146 335.106 249.49C335.437 249.175 335.964 249.02 336.277 249.146C336.745 249.335 336.803 249.7 336.606 251.207C336.318 253.415 336.705 253.56 338.074 251.756C340.212 248.939 341.473 250.849 341.483 256.918C341.489 260.973 341.166 262.339 339.714 264.409C339.502 264.712 339.227 265.259 339.103 265.625C338.916 266.179 339.009 266.249 339.66 266.042C340.091 265.905 341.252 265.236 342.24 264.555C343.83 263.46 344.108 263.073 344.644 261.204C345.595 257.892 345.907 257.538 348.317 257.039C350.652 256.556 351.05 256.101 350.262 254.812C349.572 253.682 346.013 244.823 345.499 242.954C344.337 238.733 344.081 235.657 344.567 231.768C344.831 229.657 345.638 226.755 346.197 225.9C346.528 225.395 346.992 224.119 347.228 223.065C348.104 219.163 352.268 210.213 355.484 205.322C356.095 204.393 356.927 202.948 357.332 202.113C357.738 201.277 358.189 200.593 358.336 200.593C358.483 200.593 358.899 200.057 359.263 199.401C359.832 198.374 361.624 195.694 362.513 194.542C362.669 194.34 363.802 192.772 365.032 191.058C366.262 189.343 367.911 187.115 368.697 186.106C379.686 172.012 384.717 166.476 391.455 161.065C397.273 156.392 399.116 154.86 402.382 151.98C407.014 147.894 413.789 142.533 416.716 140.636C419.373 138.914 419.427 138.897 421.948 139.035C426.207 139.268 427.949 141.243 427.842 145.718C427.788 147.934 427.651 148.463 426.922 149.263C425.958 150.321 425.867 150.809 426.501 151.514C427.561 152.692 428.241 155.037 428.366 157.946C428.494 160.908 428.469 161.014 426.952 164.09C425.204 167.633 422.484 171.962 420.179 174.87C418.829 176.573 418.697 176.882 419.195 177.176C419.512 177.362 420.264 178.268 420.866 179.188C421.897 180.763 421.959 181.051 421.94 184.105C421.922 186.796 421.766 187.689 421.025 189.335C420.03 191.546 417.434 195.295 415.466 197.363L414.177 198.718L414.976 199.679C416.026 200.941 416.224 201.733 416.259 204.811C416.286 207.12 416.157 207.627 414.986 209.849C413.061 213.502 409.979 217.378 404.289 223.303C401.495 226.213 399.21 228.716 399.21 228.866C399.21 229.017 399.834 229.824 400.597 230.659C401.408 231.547 402.148 232.815 402.379 233.715C402.944 235.91 402.585 238.983 401.536 240.937C401.048 241.844 400.339 243.171 399.96 243.884C398.9 245.881 389.614 255.531 386.383 257.994C379.575 263.184 378.441 264.014 378.142 264.027C377.969 264.036 377.262 264.495 376.573 265.05C374.436 266.766 372.037 268.444 371.72 268.444C371.553 268.444 371.145 268.759 370.814 269.144C370.482 269.53 369.848 269.94 369.405 270.057C368.756 270.229 368.551 270.607 368.351 272.004C367.975 274.647 366.723 276.774 363.652 279.996L360.856 282.931L363.03 283.145C364.227 283.264 365.7 283.563 366.306 283.811C367.283 284.212 367.603 284.157 369.171 283.321C370.142 282.804 371.114 282.38 371.33 282.38C371.547 282.38 372.141 282.08 372.65 281.713C373.159 281.345 374.36 280.746 375.319 280.381C379.536 278.777 380.376 278.286 380.376 277.423C380.376 276.321 381.637 272.037 382.656 269.679C383.102 268.643 383.576 267.195 383.706 266.461C383.979 264.934 385.225 263.707 388.442 261.795C389.588 261.115 391.049 260.137 391.69 259.622C392.331 259.107 393.932 258.214 395.248 257.637C396.564 257.061 397.876 256.403 398.163 256.176C398.451 255.948 399.236 255.501 399.907 255.182C402.503 253.951 404.624 251.741 406.768 248.035C411.781 239.369 413.02 236.459 413.147 233.049C413.283 229.415 413.227 229.129 411.788 226.083C411.025 224.469 410.3 222.699 410.176 222.15C409.864 220.769 411.02 218.394 412.993 216.357C414.453 214.849 414.761 214.699 416.716 214.53C418.835 214.348 418.851 214.338 419.322 212.904C419.582 212.111 420.047 211.168 420.355 210.81C420.971 210.094 429.025 205.728 429.73 205.728C429.972 205.728 430.393 205.356 430.666 204.903C431.222 203.977 433.389 195.852 433.389 194.692C433.389 194.28 433.543 193.64 433.732 193.27C433.92 192.899 434.626 190.393 435.3 187.701C436.611 182.462 438.579 174.887 439.716 170.703C440.1 169.291 440.616 167.228 440.863 166.118C441.11 165.009 441.519 163.358 441.773 162.451C442.311 160.524 442.248 160.776 442.598 159.15C442.75 158.444 443.083 157.123 443.337 156.216C443.592 155.308 444.216 152.997 444.723 151.081C445.23 149.165 446.03 146.277 446.5 144.663C446.97 143.049 447.676 140.491 448.067 138.978C448.459 137.465 449.164 134.742 449.635 132.927C450.105 131.111 450.786 128.305 451.147 126.692C451.509 125.078 451.963 123.18 452.157 122.474C452.731 120.38 454.022 115.366 454.14 114.772C454.459 113.169 454.786 111.981 454.999 111.655C455.13 111.453 455.434 110.133 455.673 108.721C455.913 107.309 456.252 105.823 456.428 105.42C456.604 105.016 457.307 102.458 457.991 99.735C458.674 97.0118 459.372 94.2887 459.542 93.6835C460.108 91.6645 461.311 87.1182 462.162 83.781C462.624 81.9656 463.57 78.3347 464.262 75.7124C465.809 69.8512 465.802 69.9055 464.971 69.7258C464.598 69.6455 463.735 69.2164 463.053 68.7726C462.371 68.3284 461.264 67.7501 460.593 67.4864C459.921 67.223 458.877 66.7792 458.273 66.5005C457.668 66.2214 456.932 65.9933 456.637 65.9933C456.341 65.9933 456.003 65.8282 455.884 65.6265C455.766 65.4248 454.633 65.2598 453.368 65.2598C451.439 65.2598 450.879 65.4109 449.901 66.1954C449.259 66.7099 448.735 67.3749 448.735 67.6727C448.735 67.9708 449.205 69.1955 449.781 70.3944C450.914 72.7548 451.059 73.6714 450.409 74.3554C449.188 75.639 444.741 73.7649 439.965 69.9543C438.499 68.7843 437.207 67.8271 437.093 67.8271C436.979 67.8271 435.59 66.8335 434.004 65.6188C430.883 63.2272 426.129 59.8523 421.705 56.886C420.171 55.8572 418.272 54.5149 417.486 53.9027C416.7 53.2906 415.938 52.79 415.792 52.79C415.647 52.79 414.933 52.2949 414.207 51.6897C413.48 51.0846 412.78 50.5895 412.651 50.5895C412.522 50.5895 411.917 50.2176 411.306 49.7632C408.335 47.5527 401.791 43.9966 396.594 41.7682C396.21 41.6035 395.347 41.2977 394.676 41.0882C394.004 40.8792 392.435 40.3885 391.188 39.9982C387.341 38.7942 385.737 38.4868 383.274 38.4813C380.677 38.4758 379.33 38.2125 379.33 37.71C379.33 37.5321 379.666 37.3862 380.076 37.3862C380.487 37.3862 381.588 36.8911 382.523 36.2859C383.458 35.6808 384.308 35.1856 384.412 35.1856C384.515 35.1856 385.258 34.8706 386.063 34.4855C389.093 33.035 395.073 31.8848 399.584 31.8848C400.913 31.8848 401.995 31.7608 401.989 31.6097C401.962 30.8773 389.791 24.7488 386.792 23.9573C386.329 23.8348 385.864 23.588 385.759 23.4087C385.653 23.2293 385.189 23.0826 384.728 23.0826C384.25 23.0826 383.731 22.7716 383.521 22.3601C383.202 21.733 383.328 21.5437 384.479 20.9265C385.882 20.1735 387.53 19.8746 392.06 19.55C396.585 19.2262 402.877 20.4412 408.53 22.7305C414.03 24.9582 415.519 25.6793 417.779 27.2087C418.896 27.9649 419.884 28.584 419.973 28.584C420.063 28.584 421.588 29.6362 423.362 30.9224C425.136 32.2087 427.291 33.6339 428.15 34.0901C429.009 34.546 430.928 35.7948 432.414 36.8654C434.69 38.5048 439.889 41.4205 440.536 41.4205C440.641 41.4205 441.333 41.8416 442.072 42.3561C443.271 43.1901 449.268 45.0881 450.706 45.0881C451.43 45.0881 451.151 43.4949 449.964 40.8564C448.719 38.0893 448.349 35.1013 448.967 32.8145C449.909 29.3344 450.13 28.9508 451.197 28.9508C451.738 28.9508 452.278 28.785 452.397 28.5829C452.665 28.1277 458.995 28.4443 459.908 28.9585C460.259 29.1558 460.959 29.3175 461.464 29.3175C462.308 29.3175 465.082 30.3323 466.657 31.2177C467.019 31.4212 468.118 31.8302 469.099 32.1261C470.079 32.4225 471.509 32.9627 472.276 33.3273C474.903 34.5746 475.14 34.5845 475.328 33.4545C475.421 32.8938 476.045 30.2069 476.714 27.4837C477.383 24.7605 478.175 21.4597 478.475 20.1486C478.774 18.8374 479.344 16.8257 479.742 15.6778C480.448 13.6349 481.609 9.32297 483.032 3.46108C483.423 1.84735 483.91 0.405625 484.113 0.257455C484.612 -0.106002 487.014 -0.0355846 488.389 0.382519ZM405.671 294.092C403.545 296.293 398.038 299.618 396.517 299.618C395.187 299.618 390.952 302.179 388.197 304.651C385.291 307.258 383.582 308.995 380.306 312.669C378.47 314.73 374.852 317.222 373.696 317.222C373.432 317.222 372.638 317.548 371.931 317.947C370.873 318.543 362.186 321.586 359.625 322.258C354.877 323.502 347.722 327.098 346.717 328.745C346.461 329.165 346.085 330.467 345.884 331.639C345.682 332.81 345.435 333.908 345.335 334.077C345.236 334.247 344.985 335.681 344.779 337.265C344.397 340.189 342.958 346.106 342.354 347.23C341.568 348.694 340.536 352.442 340.265 354.815C340.104 356.227 339.741 358.455 339.459 359.766C339.177 361.077 338.866 362.739 338.768 363.46L338.589 364.769L340.991 365.752C342.313 366.292 343.652 366.735 343.967 366.735C344.282 366.735 345.658 366.026 347.025 365.16C350.893 362.71 353.071 362.232 364.06 361.42C371.816 360.847 373.548 360.321 375.936 357.81C376.625 357.085 377.631 356.394 378.172 356.273C379.979 355.871 381.436 355.011 381.728 354.175C381.887 353.72 381.949 351.76 381.865 349.819C381.734 346.799 381.813 346.084 382.413 344.867C383.13 343.412 384.53 341.792 386.604 340.017C387.658 339.116 387.8 338.764 388.02 336.528C388.24 334.296 388.398 333.905 389.572 332.693C390.291 331.95 391.309 330.787 391.835 330.108C392.441 329.326 393.168 328.827 393.821 328.745C395.37 328.551 397.212 328.508 397.941 328.649C398.78 328.812 399.014 328.319 399.882 324.558C400.277 322.843 401.052 319.707 401.604 317.589C405.497 302.648 406.581 298.547 406.938 297.417C407.161 296.711 407.382 295.804 407.429 295.4C407.476 294.997 407.686 294.202 407.896 293.634C408.77 291.271 408.304 291.367 405.671 294.092ZM213.056 344.593C211.282 345.149 209.83 345.729 209.83 345.882C209.83 346.036 211.594 347.613 213.749 349.388C218.259 353.101 219.074 353.925 223.138 358.881C226.159 362.567 231.783 368.228 233.537 369.35C234.065 369.687 235.225 370.548 236.115 371.262C238.171 372.913 247.06 377.472 249.589 378.174C250.261 378.36 251.359 378.664 252.031 378.85C254.372 379.496 259.241 379.104 260.102 378.199C260.419 377.866 259.439 375.093 257.28 370.219C256.655 368.807 255.904 367.074 255.612 366.368C255.32 365.662 254.726 364.342 254.292 363.434C252.913 360.549 249.134 350.804 249.161 350.203C249.224 348.851 235.881 345.682 234.341 346.683C233.728 347.081 230.44 347.719 228.193 347.875C225.505 348.062 223.314 347.512 221.438 346.181C220.597 345.584 219.797 345.096 219.661 345.096C219.524 345.096 219.114 344.678 218.749 344.167C217.979 343.089 217.821 343.101 213.056 344.593ZM165.537 355.662C163.096 356.082 161.003 357.05 161.003 357.759C161.003 358.062 160.827 358.605 160.612 358.968C160.322 359.456 160.326 360.095 160.628 361.439C160.852 362.435 161.246 364.406 161.505 365.818C162.027 368.67 163.013 371.482 164.462 374.251C165.643 376.508 167.68 379.571 168 379.571C168.13 379.571 168.436 378.787 168.68 377.829C169.411 374.958 171.094 372.212 173.92 369.283C176.825 366.271 179.66 364.131 181.58 363.499C182.251 363.278 183.911 362.705 185.269 362.225C187.542 361.421 187.947 361.384 190.405 361.751C191.872 361.97 193.362 362.398 193.716 362.7C194.069 363.003 195.289 363.739 196.427 364.336C198.535 365.443 202.445 368.509 203.754 370.082C205.059 371.649 207.471 375.642 208.29 377.589C208.975 379.216 209.593 383.478 209.589 386.54C209.588 387.578 209.168 390.391 208.85 391.494C208.389 393.092 206.766 396.363 206.069 397.098C205.74 397.445 204.708 398.719 203.777 399.928C202.235 401.931 197.67 406.356 195.54 407.914C194.745 408.496 194.733 408.545 195.388 408.545C197.255 408.545 203.987 407.406 205.341 406.861C206.18 406.523 207.516 405.527 208.31 404.645L209.754 403.044L212.321 403.027C215.531 403.006 233.186 402.688 233.895 402.638C234.183 402.618 235.831 402.364 237.557 402.074C239.283 401.783 241.245 401.482 241.917 401.405C243.529 401.219 246.319 400.652 249.851 399.79C253.01 399.02 253.202 398.855 257.863 392.874C260.306 389.741 260.285 389.332 257.698 389.641C256.595 389.773 253.888 389.683 251.682 389.441C249.476 389.199 247.2 388.951 246.625 388.889C242.481 388.445 235.039 386.57 234.087 385.731C233.905 385.571 233.481 385.439 233.146 385.439C232.435 385.439 228.822 383.274 227.328 381.951C226.76 381.449 226.199 381.038 226.082 381.038C225.964 381.038 224.573 380.153 222.993 379.072C221.412 377.991 219.43 376.737 218.587 376.287C216.864 375.367 212.12 372 210.004 370.197C208.757 369.133 206.321 367.347 200.937 363.548C196.218 360.218 187.981 357.003 180.359 355.516C177.707 354.999 168.894 355.086 165.537 355.662ZM384.068 379.938C381.136 383.889 376.596 387.908 372.923 389.803C371.186 390.7 367.568 391.987 363.58 393.128L357.073 394.99L349.804 395.063C343.975 395.121 341.914 395.004 339.397 394.472L336.258 393.809L335.479 394.85C330.616 401.356 324.898 410.228 324.362 412.099C323.176 416.242 323.914 420.209 326.788 425.141C329.553 429.886 335.977 436.542 339.96 438.788C343.34 440.695 346.908 441.358 349.495 440.559C354.561 438.996 358.447 435.355 370.44 420.94L377.063 412.98L378.022 409.387C378.55 407.411 379.232 404.804 379.539 403.594C379.846 402.384 381.572 395.969 383.375 389.338C385.179 382.708 386.654 377.11 386.654 376.899C386.654 376.423 386.826 376.221 384.068 379.938ZM419.766 411.382C416.947 412.81 412.926 416.345 410.787 419.275C409.887 420.509 408.522 422.283 407.755 423.218C406.987 424.152 405.967 425.612 405.488 426.462C403.631 429.753 399.462 435.19 393.246 442.425C390.482 445.641 388.411 447.607 385.05 450.205C378.996 454.882 378.876 455.349 384.387 452.786C390.099 450.131 397.947 450.145 403.744 452.822C406.754 454.212 410.38 456.079 412.492 457.328C413.755 458.074 417.033 459.638 419.777 460.804C424.719 462.903 424.792 462.921 427.52 462.725C429.293 462.597 430.612 462.295 431.221 461.878C432.905 460.724 438.46 454.612 439.068 453.244C439.705 451.809 441.538 443.629 441.894 440.636C443.496 427.158 442.632 422.662 437.034 415.344C435.047 412.745 434.089 411.808 432.794 411.195C430.563 410.137 429.994 410.054 425.695 410.157C422.385 410.236 421.785 410.36 419.766 411.382Z" fill="white" fill-opacity="0.05"/>
<path fill-rule="evenodd" clip-rule="evenodd" d="M940.953 0.382519C939.897 0.703799 939.045 1.44392 939.732 1.44392C939.907 1.44392 940.324 2.80569 940.659 4.46967C940.993 6.13401 941.565 8.47173 941.93 9.66479C942.295 10.8579 942.594 12.1782 942.595 12.5989C942.596 13.0195 942.832 13.8363 943.118 14.4139C943.405 14.9919 943.639 15.7346 943.638 16.0643C943.637 16.9424 944.604 21.4344 945.386 24.1829C946.702 28.8103 947.446 31.7612 948.713 37.3862C949.418 40.5128 950.201 43.4182 950.453 43.8426C950.706 44.2669 951.023 45.2572 951.158 46.0431C951.293 46.8291 951.554 47.7772 951.737 48.1505C951.921 48.5235 952.456 50.4215 952.927 52.3682C954 56.8078 954.084 57.1221 955.672 62.6925C956.967 67.2381 957.348 68.6504 957.946 71.1279C958.116 71.8339 958.745 74.3095 959.343 76.6293C961.125 83.5463 961.426 84.7698 961.96 87.2605C962.241 88.5691 962.775 90.6321 963.147 91.8449C963.518 93.0578 964.007 95.0306 964.232 96.2288C964.458 97.4274 964.775 98.6652 964.938 98.9795C965.1 99.2942 965.486 100.789 965.794 102.302C966.103 103.815 966.878 106.951 967.518 109.271C968.158 111.59 968.79 114.066 968.922 114.772C969.055 115.478 969.377 116.798 969.638 117.706C969.899 118.614 970.373 120.429 970.692 121.74C971.01 123.052 971.486 124.867 971.75 125.775C972.013 126.683 972.628 129.383 973.116 131.776C973.605 134.168 974.235 136.705 974.516 137.414C974.798 138.122 975.028 138.96 975.028 139.276C975.028 139.593 975.411 141.182 975.88 142.807C976.349 144.433 977.145 147.331 977.65 149.247C978.155 151.164 978.859 153.804 979.214 155.115C980.167 158.639 981.269 163.006 981.99 166.118C982.34 167.631 983.047 170.437 983.561 172.353C984.075 174.269 985.036 178.065 985.697 180.788C986.358 183.512 987.445 187.885 988.114 190.508C991.176 202.513 991.819 205.313 991.953 207.226C992.088 209.167 992.032 209.338 990.886 210.507C989.496 211.924 989.41 212.543 990.357 214.316L991.038 215.59L990.183 217.803C989.291 220.111 989.08 222.192 989.675 222.817C989.906 223.06 989.788 223.665 989.326 224.619C988.374 226.584 988.45 227.776 989.676 230.061C990.469 231.537 990.722 232.475 990.722 233.927C990.722 235.037 991.005 236.495 991.395 237.394C991.764 238.247 992.181 239.423 992.32 240.007C992.612 241.232 994.896 243.757 996.936 245.112C997.709 245.625 998.616 246.534 998.952 247.132C999.288 247.73 999.843 248.296 1000.18 248.391C1001.63 248.788 1003.64 255.508 1004.14 261.659C1004.18 262.062 1004.3 262.64 1004.42 262.942C1004.54 263.245 1004.9 264.565 1005.23 265.876C1005.93 268.665 1007.2 271.627 1008.69 273.945C1010.18 276.261 1010.83 278.054 1011.49 281.647C1011.81 283.361 1012.21 284.944 1012.38 285.165C1012.55 285.385 1012.59 285.67 1012.47 285.798C1012.35 285.925 1012.41 286.243 1012.62 286.503C1012.82 286.762 1013.15 288.046 1013.34 289.354C1013.54 290.662 1014.08 293.301 1014.56 295.217C1016.16 301.691 1017.95 308.448 1018.33 309.446C1018.54 309.991 1019.15 312.253 1019.68 314.472C1020.21 316.691 1020.91 319.496 1021.24 320.707C1021.56 321.917 1022.14 324.227 1022.53 325.841C1022.92 327.455 1023.38 328.966 1023.56 329.198C1023.94 329.69 1022.65 330.748 1019.9 332.217C1018.26 333.093 1018.1 333.288 1018.09 334.46C1018.08 335.166 1017.94 336.362 1017.79 337.116C1017.41 338.935 1017.71 340.046 1019.02 341.607C1019.93 342.701 1020.11 343.252 1020.22 345.19C1020.41 348.735 1020.42 349.388 1020.34 350.972C1020.3 351.967 1020.48 352.686 1020.91 353.186C1021.26 353.593 1022.1 355.321 1022.79 357.027C1024.35 360.918 1026.09 363.425 1029.04 366.001C1033.56 369.945 1033.68 370.126 1034.97 375.184C1035.61 377.698 1036.45 380.91 1036.83 382.322C1037.21 383.734 1037.65 385.384 1037.81 385.989C1038.39 388.237 1039.55 392.675 1040.24 395.342C1040.64 396.855 1041.22 399.165 1041.53 400.476C1041.84 401.788 1042.31 403.121 1042.57 403.439C1042.83 403.758 1043.04 404.234 1043.04 404.498C1043.04 404.762 1042.29 404.247 1041.38 403.354C1039.54 401.553 1035.96 398.643 1035.58 398.643C1035.45 398.643 1034.91 398.314 1034.39 397.913C1033.33 397.097 1027.62 394.975 1026.48 394.975C1026.07 394.975 1025.59 394.815 1025.4 394.619C1024.65 393.828 1013.12 392.973 1012.09 393.631C1011.94 393.723 1010.33 393.908 1008.51 394.043C1006.69 394.178 1005.05 394.443 1004.86 394.632C1004.68 394.821 1004.09 394.975 1003.54 394.975C1002.99 394.975 1001.96 395.286 1001.25 395.665C1000.55 396.045 998.552 396.823 996.826 397.395C993.694 398.431 990.474 399.759 989.153 400.56C986.927 401.909 983.317 404.019 981.655 404.944C977.921 407.021 976.785 407.871 974.247 410.486C971.288 413.536 969.171 416.445 967.257 420.093C965.677 423.103 963.695 428.277 963.154 430.798C962.676 433.031 962.656 440.317 963.125 441.612C963.319 442.149 963.803 444.027 964.2 445.785C965.888 453.258 970.925 460.853 977.306 465.543C981.251 468.444 992.58 474.561 994.004 474.561C994.444 474.561 995.259 474.722 995.815 474.919C997.543 475.53 1005.07 476.509 1007.64 476.456C1013.2 476.341 1020.22 474.542 1026.47 471.627C1028.99 470.451 1031.29 470.065 1032.95 470.536C1035.67 471.305 1039.2 475.105 1039.2 477.257C1039.2 478.977 1036.23 481.141 1033.07 481.725C1029.19 482.443 1024.8 484.951 1023.28 487.321C1022.42 488.671 1022.41 490.253 1023.27 490.756C1023.68 490.997 1023.78 491.392 1023.63 492.177C1023.37 493.539 1024.02 494.429 1025.22 494.349C1025.72 494.316 1027 494.306 1028.08 494.328C1030.39 494.373 1031.41 495.16 1032.49 497.747C1032.88 498.659 1033.4 499.544 1033.66 499.712C1034.3 500.129 1036.37 499.906 1037.26 499.325C1037.65 499.063 1038.61 498.646 1039.38 498.399C1042.26 497.468 1045.9 495.297 1047.79 493.386C1049.35 491.813 1049.89 491.477 1050.56 491.653C1051.09 491.794 1051.8 491.602 1052.54 491.124C1054.63 489.768 1059.81 483.599 1061.14 480.888C1061.95 479.24 1062.15 479.615 1063.38 485.014C1063.65 486.224 1064.39 489.195 1065.01 491.616C1065.63 494.036 1066.35 496.925 1066.61 498.034C1067.75 502.932 1070.98 515.611 1072.93 522.79C1073.89 526.362 1075.52 532.705 1075.69 533.609C1075.79 534.114 1076 534.856 1076.15 535.26C1076.3 535.663 1076.79 537.479 1077.22 539.294C1077.66 541.11 1078.56 544.658 1079.21 547.18C1079.86 549.701 1080.7 553.084 1081.07 554.698C1081.44 556.312 1081.89 557.897 1082.07 558.22C1082.24 558.544 1082.5 559.616 1082.64 560.604C1082.78 561.592 1083.1 562.978 1083.36 563.684C1083.88 565.083 1086.74 576.357 1087.55 580.188C1087.83 581.499 1088.35 583.562 1088.71 584.772C1089.07 585.982 1090.19 590.274 1091.2 594.308C1092.21 598.342 1093.41 603.128 1093.88 604.944C1094.66 608.002 1094.89 608.976 1095.67 612.462C1095.83 613.168 1096.69 616.353 1097.57 619.539C1098.46 622.725 1099.19 625.579 1099.19 625.881C1099.19 626.182 1099.49 627.454 1099.86 628.706C1100.23 629.959 1100.94 632.634 1101.45 634.651C1102.95 640.635 1104.12 645.179 1104.62 646.938C1104.88 647.845 1105.36 649.578 1105.67 650.789C1105.99 651.999 1106.47 653.696 1106.73 654.561C1107 655.425 1107.21 656.447 1107.21 656.831C1107.21 657.681 1107.75 658.09 1108.34 657.687C1108.58 657.524 1110.27 657.054 1112.09 656.643C1114.51 656.096 1115.43 655.734 1115.51 655.293C1115.57 654.962 1114.57 650.759 1113.29 645.954C1107.92 625.814 1102.94 606.964 1101.5 601.276C1100.83 598.654 1099.25 592.547 1097.97 587.706C1096.7 582.865 1095.04 576.511 1094.28 573.586C1093.53 570.661 1091.96 564.637 1090.8 560.199C1089.64 555.762 1088.14 549.903 1087.46 547.18C1085.71 540.188 1085.45 539.167 1084 533.609C1083.3 530.886 1082.44 527.585 1082.1 526.274C1081.76 524.963 1081.25 523.148 1080.96 522.24C1080.68 521.332 1080.2 519.682 1079.9 518.572C1079.6 517.463 1079.04 515.4 1078.65 513.988C1077.97 511.527 1077.59 510.013 1074.96 499.318C1074.32 496.695 1073.61 494.055 1073.38 493.45C1073.16 492.844 1072.36 489.874 1071.6 486.848C1069.41 478.045 1067.72 471.526 1064.85 460.808C1064.42 459.194 1063.94 457.568 1063.79 457.193C1063.55 456.6 1063.68 456.626 1064.87 457.401C1066.82 458.674 1069.6 459.435 1073.22 459.687C1076.65 459.926 1080.41 459.295 1086.46 457.463C1093.97 455.187 1101.77 448.643 1105.18 441.743C1106.02 440.047 1106.7 439.044 1106.79 439.359C1107.14 440.532 1108.03 441.187 1109.3 441.187C1110.9 441.187 1111.09 441.385 1110.66 442.585C1110.4 443.291 1110.45 443.937 1110.86 445.051C1111.36 446.43 1111.36 446.702 1110.84 448.183C1110.53 449.075 1110.15 450.3 1109.99 450.906C1109.37 453.304 1108.24 456.996 1106.71 461.542C1104.32 468.677 1104.01 471.143 1103.95 483.364C1103.89 495.459 1103.94 495.77 1106.37 496.742C1107.21 497.082 1107.93 497.471 1107.95 497.606C1107.98 497.741 1108.03 498.181 1108.08 498.584C1108.12 498.988 1108.34 500.192 1108.56 501.261C1108.77 502.33 1108.95 503.771 1108.95 504.463C1108.95 506.639 1109.94 508.622 1111.41 509.411C1113.56 510.563 1114.16 511.772 1116.92 520.406C1117.85 523.331 1119.28 527.622 1120.08 529.942C1120.88 532.262 1122.21 536.223 1123.03 538.744C1123.86 541.266 1124.8 543.86 1125.12 544.509C1125.56 545.404 1125.69 546.556 1125.65 549.277C1125.61 552.385 1125.73 553.207 1126.55 555.432C1127.07 556.844 1127.68 558.223 1127.89 558.497C1128.83 559.688 1127.42 575.117 1126.02 578.963C1125.81 579.536 1125.62 582.232 1125.61 584.956C1125.58 588.939 1125.76 590.91 1126.52 595.041C1127.03 597.865 1127.7 601.579 1128 603.293C1128.3 605.008 1128.69 606.704 1128.87 607.063C1129.13 607.574 1128.95 607.97 1128.03 608.896C1126.38 610.564 1125.69 611.87 1125.69 613.346C1125.69 614.207 1125.92 614.789 1126.39 615.137C1126.97 615.559 1127.07 615.977 1126.97 617.45C1126.83 619.497 1127.36 620.875 1128.66 621.87C1129.15 622.244 1129.63 623.019 1129.73 623.591C1130.13 625.915 1132.08 627.499 1134.54 627.499C1135.68 627.499 1135.81 627.608 1136.11 628.875C1136.29 629.631 1136.43 630.498 1136.42 630.8C1136.41 631.103 1136.6 632.811 1136.84 634.596C1137.21 637.289 1137.46 638.05 1138.31 639.066C1138.87 639.74 1139.86 640.475 1140.51 640.699C1141.75 641.131 1142.74 642.368 1142.75 643.502C1142.78 646.747 1143.97 651.762 1144.86 652.392C1145.38 652.755 1145.57 653.295 1145.57 654.329C1145.57 656.275 1146.3 657.958 1147.66 659.158C1148.57 659.968 1148.71 660.258 1148.37 660.686C1148.14 660.976 1147.87 662.204 1147.76 663.415C1147.56 665.786 1147.89 667.047 1149.35 669.399C1150.37 671.044 1150.24 672.746 1148.88 675.563C1148.4 676.548 1148.01 677.566 1148.01 677.825C1148.01 678.779 1146.31 682.079 1144.66 684.366C1143.17 686.429 1142.96 686.938 1142.96 688.488C1142.96 689.943 1143.11 690.382 1143.83 690.961C1144.31 691.349 1144.94 691.676 1145.23 691.688C1145.51 691.7 1146.06 692.24 1146.45 692.888C1146.87 693.599 1147.5 694.113 1148.02 694.184C1148.54 694.254 1149.17 694.77 1149.59 695.467C1150.01 696.168 1150.64 696.678 1151.16 696.747C1151.64 696.809 1152.69 697.181 1153.5 697.572C1154.32 697.964 1155.23 698.284 1155.52 698.284C1156.44 698.284 1158.46 697.253 1159.78 696.106C1161.14 694.933 1161.97 695.089 1161.97 696.515C1161.97 697.018 1162.52 697.493 1163.89 698.149L1165.81 699.074L1166.99 698.308C1167.63 697.887 1168.26 697.255 1168.37 696.904C1168.48 696.553 1168.71 696.019 1168.89 695.716C1170.85 692.257 1170.69 686.882 1168.51 682.88C1167.56 681.122 1167.61 678.787 1168.68 675.912C1170.75 670.349 1171.05 668.719 1170.88 663.869L1170.72 659.344L1169.2 657.626C1167.52 655.743 1167.28 654.798 1166.5 646.938C1165.53 637.263 1165.57 636.314 1166.93 637.08C1167.36 637.323 1169.06 637.531 1170.7 637.542C1173.22 637.558 1173.9 637.427 1175.06 636.71L1176.43 635.859L1180.18 637.914C1182.56 639.216 1184.37 639.969 1185.11 639.969C1186.43 639.969 1188.78 638.368 1189.75 636.809C1190.68 635.326 1192.36 634.722 1194.15 635.226C1195.6 635.632 1199.31 637.351 1202.48 639.092C1203.97 639.905 1209.56 641.544 1215.85 643.011C1218.26 643.572 1224.01 644.169 1225.88 644.052C1226.94 643.986 1230.09 642.58 1231.2 641.686C1231.76 641.225 1231.89 640.686 1231.89 638.802V636.485L1233.11 636.302C1234.04 636.162 1234.44 635.856 1234.81 635.018C1235.72 632.974 1236.28 632.545 1237.76 632.793C1238.73 632.957 1244.5 635.673 1245.58 636.473C1245.62 636.506 1245.51 637.069 1245.33 637.723C1245.16 638.377 1245.1 640.327 1245.22 642.056L1245.43 645.2L1248.52 648.524C1250.21 650.353 1251.6 651.966 1251.6 652.109C1251.6 652.252 1252.14 653.37 1252.8 654.594C1254.31 657.42 1255.6 661.388 1256.13 664.909C1256.36 666.422 1256.71 668.114 1256.91 668.67C1257.31 669.803 1259.39 671.877 1260.13 671.877C1260.77 671.877 1262.26 673.786 1263.31 675.962C1264.05 677.506 1264.5 677.916 1266.66 679.065C1270.48 681.087 1272.47 680.748 1273.16 677.958C1273.43 676.872 1273.51 676.833 1275.09 676.954C1276.64 677.073 1276.83 676.983 1278.29 675.444C1279.29 674.395 1279.85 673.484 1279.85 672.906C1279.85 672.409 1280.25 671.607 1280.75 671.116C1284.08 667.857 1283.47 661.641 1279.67 659.937C1277.83 659.112 1276 657.135 1275.61 655.556C1274.99 653.078 1274.86 651.339 1275.28 651.339C1275.49 651.339 1275.66 651.504 1275.66 651.705C1275.66 651.907 1276.21 652.072 1276.87 652.072C1277.53 652.072 1278.46 652.26 1278.94 652.489C1279.62 652.815 1280.32 652.77 1282.18 652.278C1284.95 651.549 1285.39 651.189 1287.04 648.332C1287.9 646.839 1288.55 646.137 1289.2 645.976C1289.72 645.849 1290.77 645.126 1291.53 644.368C1293.41 642.517 1293.73 642.372 1298.13 641.456C1302.01 640.647 1303.3 640.049 1307.03 637.313C1309.74 635.329 1311.78 634.748 1313.81 635.389C1314.68 635.663 1315.73 636.08 1316.15 636.316C1316.56 636.551 1318.13 636.969 1319.63 637.244C1322.14 637.704 1322.51 637.689 1324.28 637.049C1327.36 635.936 1328.46 634.969 1333.63 628.823C1334.81 627.424 1334.88 627.393 1337.48 627.303C1343.36 627.099 1350.75 622.538 1352.89 617.791C1353.71 615.977 1354.59 615.511 1357.78 615.213C1361.22 614.891 1363.39 613.888 1367.17 610.873C1371.41 607.495 1373.63 606.006 1375.76 605.117C1382.63 602.25 1386.49 599.922 1388.14 597.647C1388.66 596.92 1389.31 596.325 1389.56 596.325C1389.82 596.325 1390.33 595.623 1390.7 594.766C1391.08 593.909 1392.26 591.805 1393.33 590.09C1394.76 587.802 1395.28 586.629 1395.29 585.679C1395.29 583.904 1394.8 583.2 1391.05 579.634L1389.78 578.423L1389.74 574.482C1389.66 567.295 1389.08 565.948 1383.27 559.501C1381.15 557.143 1380.88 556.545 1381.15 554.707C1381.27 553.804 1381.53 552.969 1381.71 552.851C1381.89 552.734 1382.04 552.308 1382.04 551.904C1382.04 551.501 1381.88 551.273 1381.69 551.397C1381.5 551.522 1381.34 551.459 1381.34 551.257C1381.34 550.677 1381.96 550.427 1382.14 550.937C1382.26 551.295 1382.4 551.3 1382.74 550.958C1383.1 550.603 1383.1 550.1 1382.75 548.347C1382.24 545.813 1382.43 544.957 1383.96 542.962C1386.28 539.929 1386.33 539.406 1384.69 534.232C1383.76 531.285 1383.54 530.101 1383.68 528.649L1383.85 526.806L1381.81 525.827C1380.69 525.289 1378.91 524.495 1377.85 524.062C1376.8 523.629 1375.23 522.978 1374.36 522.614C1373.5 522.251 1370.52 521.04 1367.74 519.924C1364.96 518.807 1361.58 517.376 1360.24 516.742C1358.9 516.109 1357.25 515.343 1356.58 515.04C1355.91 514.737 1355.04 514.34 1354.66 514.159C1354.28 513.978 1352.65 513.385 1351.05 512.841C1349.45 512.296 1347.92 511.619 1347.65 511.335C1347.38 511.051 1347.14 510.129 1347.12 509.286C1346.94 503.416 1345.9 500.762 1342.25 496.954C1339.5 494.085 1339.42 493.848 1339.69 489.646L1339.93 485.955L1338.83 484.873C1338.11 484.159 1336.7 483.46 1334.69 482.815C1333.01 482.277 1329.44 481.127 1326.76 480.259C1321.93 478.699 1317.91 477.55 1313.85 476.567C1312.7 476.289 1310.74 475.733 1309.49 475.333C1308.25 474.933 1305.5 474.177 1303.39 473.654C1301.28 473.13 1299.24 472.559 1298.86 472.385C1298.47 472.21 1297.27 471.794 1296.19 471.459C1293.33 470.574 1293.06 470.281 1293.45 468.51C1293.79 467.005 1293.53 465.601 1292.54 463.615C1292.28 463.08 1292.06 462.472 1292.06 462.265C1292.06 462.058 1291.11 460.673 1289.96 459.188L1287.87 456.488V453.777C1287.87 452.285 1287.66 450.527 1287.4 449.868C1286.91 448.649 1285.18 446.882 1283.88 446.286C1283.49 446.104 1282.93 445.797 1282.64 445.602C1282.35 445.407 1281.17 444.811 1280.02 444.277C1278.17 443.415 1276.83 442.964 1273.05 441.919C1270.99 441.351 1264.39 438.928 1263.13 438.274C1262.84 438.127 1262.23 436.358 1261.71 434.191C1261.21 432.088 1260.55 429.872 1260.24 429.267C1259.46 427.736 1257.27 425.613 1255.63 424.808C1253.99 424.001 1253.81 423.433 1253.85 419.181C1253.87 416.294 1253.92 416.069 1254.57 416.139C1254.95 416.181 1256.2 416.299 1257.35 416.402C1258.5 416.506 1260.78 416.768 1262.41 416.985C1264.04 417.202 1266.55 417.525 1267.99 417.702C1271.47 418.13 1281.93 417.959 1282.81 417.46C1283.2 417.245 1284.61 416.968 1285.95 416.847C1290.97 416.392 1295.18 415.284 1305.13 411.804C1306.86 411.201 1308.98 410.483 1309.84 410.208C1310.71 409.934 1313.05 409.043 1315.06 408.228C1317.07 407.413 1318.76 406.802 1318.83 406.87C1318.89 406.938 1318.58 407.302 1318.12 407.678C1317.67 408.054 1316.76 409.219 1316.1 410.267C1312.12 416.587 1312.04 416.95 1314.02 419.355C1314.82 420.325 1315.72 421.549 1316.02 422.075C1316.86 423.525 1319.92 426.482 1321.41 427.279C1323.21 428.244 1326.4 429.168 1328.5 429.333C1330.13 429.461 1332.37 428.979 1347.68 425.212C1351.39 424.3 1351.94 424.428 1356.26 427.204C1360.04 429.64 1364.42 433.293 1370.97 439.505C1372.7 441.136 1374.28 442.48 1374.5 442.493C1375.33 442.54 1375.63 441.88 1375.51 440.263C1375.41 438.805 1375.53 438.441 1376.42 437.501C1377.34 436.539 1378.56 436.14 1379.77 436.409C1379.96 436.452 1380.67 436.534 1381.34 436.592C1382.01 436.65 1383.58 437.197 1384.83 437.807C1388.7 439.693 1390.88 440.207 1393.87 439.934C1395.62 439.773 1396.82 439.457 1397.43 438.99C1398.35 438.294 1398.37 438.295 1400.75 439.236C1407.33 441.844 1408.52 442.065 1416.05 442.085L1423.04 442.103L1425.56 440.5C1428.15 438.852 1428.72 437.986 1428.25 436.411C1428.03 435.703 1427.83 435.64 1426.38 435.827C1421.8 436.42 1419.2 436.486 1417.17 436.061C1413.52 435.302 1409.8 433.666 1404.59 430.54C1403.09 429.638 1401.27 428.57 1400.54 428.167C1399.24 427.44 1396.6 425.115 1392.17 420.8C1389.93 418.614 1386.02 415.513 1385.5 415.513C1385.36 415.513 1384.16 414.865 1382.85 414.074C1381.54 413.282 1379.22 412.116 1377.7 411.484C1376.18 410.851 1374.53 410.036 1374.04 409.672C1373.01 408.917 1367.71 407.144 1365.12 406.693C1364.16 406.525 1362.2 406.119 1360.76 405.789C1359.32 405.46 1357.44 405.136 1356.58 405.07C1355.71 405.003 1353.51 404.834 1351.68 404.693C1348.24 404.428 1344.77 404.785 1340.44 405.847C1338.51 406.322 1337.89 406.345 1337.04 405.974C1336.47 405.726 1336 405.327 1336 405.089C1336 404.363 1341.28 401.248 1343.86 400.455C1346.76 399.561 1354.11 398.66 1358.57 398.65C1364.58 398.636 1370.88 399.593 1370.88 400.521C1370.88 401.145 1373.58 400.854 1374.41 400.14L1375.24 399.437L1374.51 398.398C1373.67 397.204 1367.93 392.522 1366.88 392.172C1366.5 392.042 1365.33 391.274 1364.28 390.464C1363.24 389.654 1360.52 387.986 1358.25 386.757C1353.1 383.983 1351.72 383.208 1350.63 382.488C1349.5 381.739 1345.47 379.979 1344.18 379.669C1342.75 379.328 1340.61 379.335 1339.03 379.685C1337.8 379.957 1337.73 379.928 1338.04 379.299C1338.67 378.073 1337.34 376.508 1334.69 375.351C1333.4 374.785 1332.19 374.183 1332.01 374.013C1331.82 373.842 1331.46 373.703 1331.2 373.703C1330.94 373.703 1329.91 373.311 1328.92 372.832C1326.68 371.754 1323.85 370.429 1322.92 370.024C1319.64 368.589 1311.67 367.015 1306.82 366.844C1302.98 366.708 1302.33 366.783 1299.85 367.64C1298.34 368.161 1296.8 368.728 1296.42 368.901C1296.03 369.075 1294.66 369.664 1293.38 370.211C1291.4 371.053 1290.9 371.453 1290.15 372.806C1289.65 373.687 1289.1 375.28 1288.91 376.347C1288.46 378.934 1287.38 381.929 1285.64 385.452C1284.48 387.797 1283.64 388.891 1281.24 391.157C1277.59 394.61 1273.09 397.776 1270.88 398.448C1265.17 400.18 1257.54 400.108 1253.87 398.288C1253.48 398.098 1252.15 397.505 1250.9 396.971C1245.75 394.764 1242.07 392.212 1240.61 389.84C1239.11 387.392 1238.87 385.898 1239.55 383.41C1240.52 379.921 1243.34 378.706 1246.84 380.28C1248.6 381.077 1248.96 381.608 1249.34 383.963C1249.68 386.156 1251.19 387.724 1253.69 388.487C1258.1 389.832 1259.91 390.214 1262.91 390.434C1267.2 390.749 1269.81 390.071 1275.84 387.077C1278.51 385.748 1283.01 382.147 1283.41 381.018C1283.55 380.626 1283.81 380.305 1283.99 380.305C1284.16 380.305 1284.41 379.851 1284.54 379.296C1284.66 378.741 1285.13 377.462 1285.58 376.454C1288.1 370.783 1288.55 368.249 1287.95 363.244C1287.57 360.058 1285.16 356.174 1282.07 353.745C1281.28 353.124 1279.42 351.569 1277.94 350.291C1275.34 348.044 1270.74 345.112 1269.8 345.101C1269.55 345.098 1268.34 344.589 1267.12 343.969C1265.9 343.349 1263.92 342.601 1262.72 342.306C1261.52 342.013 1260.32 341.585 1260.06 341.357C1259.8 341.128 1258.69 340.896 1257.6 340.841C1256.5 340.786 1254.35 340.405 1252.81 339.995C1250.71 339.435 1248.42 339.201 1243.63 339.058C1240.11 338.953 1237.1 338.773 1236.92 338.659C1236.35 338.289 1237.23 337.134 1238.25 336.916C1238.78 336.802 1239.88 336.037 1240.69 335.217C1242.05 333.836 1242.3 333.726 1244.1 333.726C1246.36 333.726 1247.71 333.102 1248.9 331.497C1249.62 330.535 1249.86 330.417 1250.41 330.755C1251.37 331.337 1268.63 333.934 1272.42 334.065C1273.42 334.1 1275.7 334.437 1277.48 334.815C1279.26 335.192 1282.84 335.946 1285.43 336.489C1288.54 337.141 1290.37 337.708 1290.81 338.156C1291.47 338.813 1291.47 338.859 1290.85 339.572C1290.51 339.978 1289.56 340.645 1288.75 341.056C1286.08 342.416 1284.96 344.376 1285.96 345.967C1286.45 346.766 1290.32 349.497 1290.95 349.497C1291.09 349.497 1291.82 349.853 1292.58 350.289C1293.35 350.724 1294.84 351.285 1295.89 351.535C1296.95 351.785 1299.38 352.407 1301.3 352.915C1303.22 353.424 1306.86 354.268 1309.4 354.791C1315.24 355.996 1315.92 356.256 1315.64 357.206C1315.52 357.605 1315.33 358.248 1315.22 358.634C1314.97 359.472 1315.99 360.168 1317.54 360.214C1318.1 360.231 1318.56 360.41 1318.56 360.612C1318.56 360.815 1318.85 360.708 1319.2 360.375C1320.05 359.568 1324.88 359.061 1331.9 359.041C1333.58 359.036 1334.95 358.886 1334.95 358.708C1334.95 358.238 1332.67 357.959 1327.02 357.738C1324.28 357.632 1321.65 357.389 1321.18 357.199C1320.4 356.888 1320.35 356.759 1320.71 355.926C1321.24 354.709 1320.68 353.389 1319.34 352.656C1318.47 352.184 1314.4 351.261 1311.06 350.779C1308.63 350.426 1307.69 350.246 1306.53 349.911C1305.86 349.716 1305.31 349.609 1305.31 349.675C1305.31 349.74 1304.25 349.393 1302.95 348.904C1301.66 348.414 1299.66 347.667 1298.51 347.243C1296.58 346.531 1294.85 345.332 1294.85 344.708C1294.85 344.565 1295.12 344.354 1295.46 344.238C1296.6 343.844 1299.2 342.096 1300.37 340.936C1301.49 339.823 1301.53 339.694 1301.36 337.63C1301 333.311 1298.32 331.83 1284.56 328.347C1282.64 327.861 1280.13 327.296 1278.98 327.091C1276.31 326.617 1271.47 325.073 1269.21 323.981C1268.25 323.516 1266.45 322.696 1265.2 322.16C1262.62 321.049 1260.67 319.63 1260.67 318.864C1260.67 318.114 1262.27 317.347 1264.87 316.855C1266.11 316.62 1267.39 316.169 1267.73 315.851C1269.21 314.449 1267.89 311.509 1264.9 309.6C1263.08 308.432 1259.29 306.872 1258.12 306.81C1257.7 306.788 1257.36 306.605 1257.37 306.403C1257.4 305.773 1258.32 304.019 1258.63 304.019C1258.79 304.019 1258.92 303.689 1258.92 303.286C1258.92 302.369 1259.25 302.369 1261.3 303.281C1262.2 303.681 1264.35 304.43 1266.07 304.944C1269.58 305.986 1276.01 309.058 1276.01 309.687C1276.01 309.91 1275.36 310.336 1274.56 310.632C1272.68 311.333 1272.27 312.025 1272.86 313.532C1274.02 316.471 1279.56 317.458 1293.8 317.262C1301.77 317.152 1302.02 317.171 1302.95 317.946C1304.09 318.89 1304.15 319.536 1303.23 320.77C1302.46 321.801 1302.67 322.422 1304.17 323.601C1304.96 324.222 1305.65 324.289 1310.75 324.235L1316.44 324.175L1317.04 325.131C1317.54 325.931 1317.57 326.279 1317.23 327.273C1316.67 328.879 1316.64 328.804 1318.2 329.462C1319.34 329.941 1320.51 330.008 1324.74 329.838C1327.58 329.724 1330.37 329.621 1330.94 329.609C1331.52 329.597 1332.73 329.895 1333.63 330.271C1335.7 331.139 1336.12 330.727 1334.62 329.285C1333.13 327.857 1331.94 327.385 1330.52 327.665C1329.81 327.806 1329.01 327.679 1328.35 327.323C1327.78 327.012 1326.45 326.758 1325.4 326.758C1324.35 326.758 1323.39 326.59 1323.27 326.385C1323.15 326.18 1322.91 326.1 1322.75 326.208C1322.04 326.668 1322.04 325.528 1322.75 324.734C1323.95 323.399 1323.49 321.538 1321.65 320.258C1320.36 319.363 1319.81 319.248 1315.71 319.013C1312.14 318.808 1311.04 318.618 1310.51 318.114C1310.14 317.763 1309.84 317.366 1309.84 317.232C1309.84 317.097 1310.41 316.292 1311.1 315.442C1312.25 314.035 1312.32 313.805 1311.96 312.877C1311.22 311.01 1309.47 310.68 1300.43 310.708C1298.22 310.715 1295.94 310.717 1295.37 310.714C1293.16 310.7 1290.08 310.28 1288.62 309.796L1287.11 309.29L1288.1 308.054C1289.07 306.834 1289.21 305.765 1288.5 304.857C1287.75 303.888 1284.37 301.812 1281.58 300.596C1279.88 299.86 1278.35 298.931 1277.98 298.415C1277.37 297.555 1277.37 297.462 1277.95 296.275C1278.28 295.592 1279.47 294.088 1280.58 292.932C1282.28 291.158 1282.57 290.673 1282.42 289.823C1282.2 288.536 1282.07 288.415 1281.47 288.939C1281.08 289.274 1280.93 289.239 1280.76 288.778C1280.44 287.9 1280.51 287.624 1280.9 288.248C1281.16 288.684 1281.23 288.607 1281.24 287.878C1281.24 287.167 1280.71 286.535 1278.89 285.1C1274.21 281.405 1267.56 277.639 1264.77 277.099C1263.08 276.772 1263.08 276.159 1264.77 276.099C1265.48 276.073 1266.39 276.006 1266.77 275.95C1267.5 275.843 1269.43 275.657 1275.86 275.077C1279.86 274.715 1281.22 274.308 1282.55 273.078C1283.65 272.063 1283.56 269.544 1282.43 269.544C1281.33 269.544 1282.06 268.918 1283.66 268.487C1284.6 268.233 1286.1 267.541 1286.98 266.951C1287.87 266.36 1288.73 265.876 1288.9 265.876C1289.07 265.876 1289.31 265.229 1289.44 264.438C1289.56 263.647 1289.87 262.918 1290.11 262.819C1290.36 262.72 1292.04 262.526 1293.84 262.389C1298.49 262.034 1302.26 260.994 1304.46 259.455C1306.85 257.792 1308.73 255.468 1308.87 254.006C1309 252.763 1308.17 250.616 1306.84 248.755C1305.88 247.415 1305.66 246.047 1306.52 246.797C1306.93 247.155 1307.72 247.057 1310.44 246.308C1312.32 245.792 1314.28 245.292 1314.81 245.196C1316.58 244.872 1321.86 242.305 1324.32 240.575C1326.32 239.165 1327.14 238.812 1328.85 238.623C1331.63 238.316 1335.49 237.233 1337.25 236.268C1338.03 235.839 1339.48 234.812 1340.47 233.986C1342.18 232.569 1342.43 232.475 1344.98 232.34C1346.47 232.262 1347.92 232.122 1348.21 232.029C1348.49 231.937 1349.24 231.737 1349.87 231.584C1350.49 231.432 1351.63 230.669 1352.4 229.888C1353.54 228.719 1353.79 228.219 1353.79 227.063C1353.79 225.731 1353.88 225.613 1355.58 224.775C1358.04 223.564 1361.44 220.992 1362.21 219.764C1362.68 219.02 1362.85 218.047 1362.85 216.131C1362.85 213.727 1362.78 213.464 1361.96 212.899C1361.47 212.561 1360.41 212.158 1359.61 212.005C1358.17 211.731 1358.07 211.594 1358.48 210.486C1358.59 210.178 1358.25 209.029 1357.72 207.932C1356.98 206.405 1356.4 205.745 1355.23 205.109C1352.92 203.85 1351.08 203.668 1343.67 203.969C1339.93 204.12 1332.16 204.416 1326.41 204.625C1320.65 204.834 1313.75 205.167 1311.06 205.366C1308.38 205.564 1304.93 205.804 1303.39 205.9C1301.86 205.996 1299.74 206.151 1298.68 206.245C1297.63 206.34 1295.51 206.517 1293.97 206.64C1291.02 206.877 1287.31 207.35 1283.86 207.928C1282.71 208.121 1280.98 208.363 1280.02 208.465C1278.16 208.664 1275.67 209.145 1273.4 209.744C1272.63 209.946 1271.37 210.12 1270.61 210.129C1269.84 210.139 1268.27 210.479 1267.12 210.885C1265.97 211.291 1262.91 212.035 1260.32 212.538C1257.73 213.042 1254.75 213.714 1253.69 214.031C1252.64 214.348 1250.75 214.908 1249.51 215.275C1246.94 216.029 1242.01 217.691 1240.96 218.155C1240.58 218.324 1239.67 218.733 1238.94 219.064C1238.22 219.394 1237.43 219.67 1237.2 219.677C1236.97 219.684 1236.15 220.008 1235.38 220.398C1234.61 220.788 1233.78 221.112 1233.52 221.119C1232.91 221.136 1226.84 224.315 1226.12 224.997C1225.81 225.292 1225.4 225.533 1225.2 225.533C1225.01 225.533 1224.24 225.99 1223.49 226.549C1222.74 227.107 1221.74 227.766 1221.26 228.013C1215.89 230.778 1205.81 239.263 1201.99 244.238C1200.5 246.171 1198.24 249.621 1198.24 249.95C1198.24 250.075 1197.99 250.781 1197.68 251.517C1197.37 252.254 1196.99 253.186 1196.83 253.59C1196.38 254.692 1195.41 258.787 1194.97 261.434C1194.66 263.254 1194.41 263.839 1193.85 264.059C1193.45 264.214 1192.32 265.302 1191.34 266.476L1189.56 268.611L1188.63 267.702C1187.8 266.882 1187.72 266.597 1187.87 264.776C1188.09 262.024 1187.76 261.301 1185.93 260.569C1184.64 260.048 1184.15 260.019 1182.86 260.384C1182.02 260.622 1180.88 261.152 1180.34 261.562C1179.24 262.385 1176.27 262.914 1176.27 262.286C1176.27 262.075 1176.79 261.559 1177.44 261.14C1178.08 260.721 1179.02 259.758 1179.52 259.001C1180.34 257.749 1180.39 257.484 1180.05 256.087C1179.59 254.188 1179.13 253.744 1176.27 252.471C1173.95 251.438 1171.52 251.152 1169.38 251.655C1168.75 251.802 1168.25 251.802 1168.25 251.655C1168.26 251.509 1169.28 250.599 1170.52 249.632C1172.36 248.199 1172.78 247.685 1172.78 246.85C1172.78 246.287 1172.69 245.731 1172.57 245.613C1172.46 245.495 1171.62 245.798 1170.69 246.285C1169.77 246.773 1168.7 247.172 1168.32 247.172C1167.94 247.172 1167.03 247.394 1166.28 247.666C1163.39 248.723 1160.58 248.101 1158.72 245.992C1157.83 244.979 1157.59 244.897 1156.01 245.056C1155.04 245.155 1153.98 245.52 1153.59 245.893C1153.21 246.258 1152.78 246.435 1152.64 246.287C1152.38 246.01 1154.64 243.654 1157.54 241.193C1158.44 240.427 1159.18 239.643 1159.18 239.451C1159.18 238.825 1156.82 239.085 1154.05 240.015C1150.75 241.121 1149.93 241.148 1147.97 240.211C1145.22 238.903 1143.39 239.231 1139.3 241.759C1137.15 243.084 1134.65 243.644 1133.17 243.13C1132.54 242.911 1131.27 241.903 1130.34 240.889C1125.26 235.321 1118.54 235.514 1112.89 241.39C1111.69 242.631 1110.64 243.563 1110.54 243.461C1110.24 243.143 1112.34 238.963 1113.26 238.055C1114.33 237.003 1114.11 236.169 1112.77 236.169C1111.44 236.169 1110.24 236.749 1107.69 238.63C1105.1 240.54 1102.88 243.3 1100.67 247.38C1099.76 249.065 1098.81 250.531 1098.56 250.638C1097.87 250.929 1094.93 250.146 1094.24 249.49C1093.91 249.175 1093.38 249.02 1093.07 249.146C1092.6 249.335 1092.54 249.7 1092.74 251.207C1093.03 253.415 1092.64 253.56 1091.27 251.756C1089.13 248.939 1087.87 250.849 1087.86 256.918C1087.85 260.973 1088.18 262.339 1089.63 264.409C1089.84 264.712 1090.12 265.259 1090.24 265.625C1090.43 266.179 1090.33 266.249 1089.68 266.042C1089.25 265.905 1088.09 265.236 1087.1 264.555C1085.51 263.46 1085.24 263.073 1084.7 261.204C1083.75 257.892 1083.44 257.538 1081.03 257.039C1078.69 256.556 1078.29 256.101 1079.08 254.812C1079.77 253.682 1083.33 244.823 1083.84 242.954C1085.01 238.733 1085.26 235.657 1084.78 231.768C1084.51 229.657 1083.71 226.755 1083.15 225.9C1082.82 225.395 1082.35 224.119 1082.11 223.065C1081.24 219.163 1077.07 210.213 1073.86 205.322C1073.25 204.393 1072.42 202.948 1072.01 202.113C1071.6 201.277 1071.15 200.593 1071.01 200.593C1070.86 200.593 1070.44 200.057 1070.08 199.401C1069.51 198.374 1067.72 195.694 1066.83 194.542C1066.67 194.34 1065.54 192.772 1064.31 191.058C1063.08 189.343 1061.43 187.115 1060.65 186.106C1049.66 172.012 1044.63 166.476 1037.89 161.065C1032.07 156.392 1030.23 154.86 1026.96 151.98C1022.33 147.894 1015.55 142.533 1012.63 140.636C1009.97 138.914 1009.92 138.897 1007.39 139.035C1003.14 139.268 1001.39 141.243 1001.5 145.718C1001.55 147.934 1001.69 148.463 1002.42 149.263C1003.38 150.321 1003.48 150.809 1002.84 151.514C1001.78 152.692 1001.1 155.037 1000.98 157.946C1000.85 160.908 1000.87 161.014 1002.39 164.09C1004.14 167.633 1006.86 171.962 1009.16 174.87C1010.51 176.573 1010.65 176.882 1010.15 177.176C1009.83 177.362 1009.08 178.268 1008.48 179.188C1007.45 180.763 1007.38 181.051 1007.4 184.105C1007.42 186.796 1007.58 187.689 1008.32 189.335C1009.31 191.546 1011.91 195.295 1013.88 197.363L1015.17 198.718L1014.37 199.679C1013.32 200.941 1013.12 201.733 1013.08 204.811C1013.06 207.12 1013.19 207.627 1014.36 209.849C1016.28 213.502 1019.36 217.378 1025.05 223.303C1027.85 226.213 1030.13 228.716 1030.13 228.866C1030.13 229.017 1029.51 229.824 1028.75 230.659C1027.93 231.547 1027.19 232.815 1026.96 233.715C1026.4 235.91 1026.76 238.983 1027.81 240.937C1028.29 241.844 1029 243.171 1029.38 243.884C1030.44 245.881 1039.73 255.531 1042.96 257.994C1049.77 263.184 1050.9 264.014 1051.2 264.027C1051.37 264.036 1052.08 264.495 1052.77 265.05C1054.91 266.766 1057.31 268.444 1057.62 268.444C1057.79 268.444 1058.2 268.759 1058.53 269.144C1058.86 269.53 1059.49 269.94 1059.94 270.057C1060.59 270.229 1060.79 270.607 1060.99 272.004C1061.37 274.647 1062.62 276.774 1065.69 279.996L1068.49 282.931L1066.31 283.145C1065.12 283.264 1063.64 283.563 1063.04 283.811C1062.06 284.212 1061.74 284.157 1060.17 283.321C1059.2 282.804 1058.23 282.38 1058.01 282.38C1057.8 282.38 1057.2 282.08 1056.69 281.713C1056.18 281.345 1054.98 280.746 1054.02 280.381C1049.81 278.777 1048.97 278.286 1048.97 277.423C1048.97 276.321 1047.71 272.037 1046.69 269.679C1046.24 268.643 1045.77 267.195 1045.64 266.461C1045.36 264.934 1044.12 263.707 1040.9 261.795C1039.76 261.115 1038.29 260.137 1037.65 259.622C1037.01 259.107 1035.41 258.214 1034.09 257.637C1032.78 257.061 1031.47 256.403 1031.18 256.176C1030.89 255.948 1030.11 255.501 1029.44 255.182C1026.84 253.951 1024.72 251.741 1022.57 248.035C1017.56 239.369 1016.32 236.459 1016.2 233.049C1016.06 229.415 1016.12 229.129 1017.55 226.083C1018.32 224.469 1019.04 222.699 1019.17 222.15C1019.48 220.769 1018.32 218.394 1016.35 216.357C1014.89 214.849 1014.58 214.699 1012.63 214.53C1010.51 214.348 1010.49 214.338 1010.02 212.904C1009.76 212.111 1009.3 211.168 1008.99 210.81C1008.37 210.094 1000.32 205.728 999.613 205.728C999.371 205.728 998.95 205.356 998.677 204.903C998.121 203.977 995.954 195.852 995.954 194.692C995.954 194.28 995.799 193.64 995.611 193.27C995.422 192.899 994.717 190.393 994.043 187.701C992.732 182.462 990.764 174.887 989.627 170.703C989.243 169.291 988.727 167.228 988.48 166.118C988.233 165.009 987.824 163.358 987.57 162.451C987.032 160.524 987.095 160.776 986.745 159.15C986.593 158.444 986.26 157.123 986.005 156.216C985.751 155.308 985.127 152.997 984.62 151.081C984.112 149.165 983.313 146.277 982.842 144.663C982.372 143.049 981.667 140.491 981.276 138.978C980.884 137.465 980.179 134.742 979.708 132.927C979.238 131.111 978.557 128.305 978.196 126.692C977.834 125.078 977.38 123.18 977.186 122.474C976.612 120.38 975.321 115.366 975.203 114.772C974.884 113.169 974.557 111.981 974.344 111.655C974.213 111.453 973.909 110.133 973.67 108.721C973.43 107.309 973.09 105.823 972.915 105.42C972.739 105.016 972.036 102.458 971.352 99.735C970.668 97.0118 969.971 94.2887 969.801 93.6835C969.235 91.6645 968.032 87.1182 967.181 83.781C966.718 81.9656 965.773 78.3347 965.081 75.7124C963.534 69.8512 963.54 69.9055 964.372 69.7258C964.745 69.6455 965.608 69.2164 966.29 68.7726C966.972 68.3284 968.079 67.7501 968.75 67.4864C969.422 67.223 970.465 66.7792 971.07 66.5005C971.674 66.2214 972.411 65.9933 972.706 65.9933C973.001 65.9933 973.34 65.8282 973.459 65.6265C973.577 65.4248 974.71 65.2598 975.975 65.2598C977.904 65.2598 978.464 65.4109 979.442 66.1954C980.083 66.7099 980.608 67.3749 980.608 67.6727C980.608 67.9708 980.137 69.1955 979.562 70.3944C978.429 72.7548 978.284 73.6714 978.934 74.3554C980.155 75.639 984.602 73.7649 989.377 69.9543C990.843 68.7843 992.136 67.8271 992.25 67.8271C992.363 67.8271 993.753 66.8335 995.338 65.6188C998.46 63.2272 1003.21 59.8523 1007.64 56.886C1009.17 55.8572 1011.07 54.5149 1011.86 53.9027C1012.64 53.2906 1013.41 52.79 1013.55 52.79C1013.7 52.79 1014.41 52.2949 1015.14 51.6897C1015.86 51.0846 1016.56 50.5895 1016.69 50.5895C1016.82 50.5895 1017.43 50.2176 1018.04 49.7632C1021.01 47.5527 1027.55 43.9966 1032.75 41.7682C1033.13 41.6035 1034 41.2977 1034.67 41.0882C1035.34 40.8792 1036.91 40.3885 1038.15 39.9982C1042 38.7942 1043.61 38.4868 1046.07 38.4813C1048.67 38.4758 1050.01 38.2125 1050.01 37.71C1050.01 37.5321 1049.68 37.3862 1049.27 37.3862C1048.86 37.3862 1047.76 36.8911 1046.82 36.2859C1045.88 35.6808 1045.03 35.1856 1044.93 35.1856C1044.83 35.1856 1044.08 34.8706 1043.28 34.4855C1040.25 33.035 1034.27 31.8848 1029.76 31.8848C1028.43 31.8848 1027.35 31.7608 1027.35 31.6097C1027.38 30.8773 1039.55 24.7488 1042.55 23.9573C1043.01 23.8348 1043.48 23.588 1043.58 23.4087C1043.69 23.2293 1044.15 23.0826 1044.62 23.0826C1045.09 23.0826 1045.61 22.7716 1045.82 22.3601C1046.14 21.733 1046.01 21.5437 1044.86 20.9265C1043.46 20.1735 1041.81 19.8746 1037.28 19.55C1032.76 19.2262 1026.47 20.4412 1020.81 22.7305C1015.31 24.9582 1013.82 25.6793 1011.56 27.2087C1010.45 27.9649 1009.46 28.584 1009.37 28.584C1009.28 28.584 1007.76 29.6362 1005.98 30.9224C1004.21 32.2087 1002.05 33.6339 1001.19 34.0901C1000.33 34.546 998.415 35.7948 996.929 36.8654C994.652 38.5048 989.454 41.4205 988.807 41.4205C988.701 41.4205 988.01 41.8416 987.271 42.3561C986.072 43.1901 980.074 45.0881 978.637 45.0881C977.912 45.0881 978.192 43.4949 979.379 40.8564C980.624 38.0893 980.994 35.1013 980.375 32.8145C979.434 29.3344 979.213 28.9508 978.145 28.9508C977.604 28.9508 977.064 28.785 976.946 28.5829C976.678 28.1277 970.348 28.4443 969.435 28.9585C969.083 29.1558 968.383 29.3175 967.879 29.3175C967.034 29.3175 964.261 30.3323 962.686 31.2177C962.324 31.4212 961.225 31.8302 960.244 32.1261C959.264 32.4225 957.834 32.9627 957.067 33.3273C954.439 34.5746 954.203 34.5845 954.015 33.4545C953.922 32.8938 953.298 30.2069 952.629 27.4837C951.96 24.7605 951.168 21.4597 950.868 20.1486C950.568 18.8374 949.999 16.8257 949.601 15.6778C948.894 13.6349 947.733 9.32297 946.311 3.46108C945.92 1.84735 945.433 0.405625 945.229 0.257455C944.731 -0.106002 942.328 -0.0355846 940.953 0.382519ZM1023.67 294.092C1025.8 296.293 1031.31 299.618 1032.83 299.618C1034.16 299.618 1038.39 302.179 1041.15 304.651C1044.05 307.258 1045.76 308.995 1049.04 312.669C1050.87 314.73 1054.49 317.222 1055.65 317.222C1055.91 317.222 1056.7 317.548 1057.41 317.947C1058.47 318.543 1067.16 321.586 1069.72 322.258C1074.47 323.502 1081.62 327.098 1082.63 328.745C1082.88 329.165 1083.26 330.467 1083.46 331.639C1083.66 332.81 1083.91 333.908 1084.01 334.077C1084.11 334.247 1084.36 335.681 1084.56 337.265C1084.95 340.189 1086.38 346.106 1086.99 347.23C1087.77 348.694 1088.81 352.442 1089.08 354.815C1089.24 356.227 1089.6 358.455 1089.88 359.766C1090.17 361.077 1090.48 362.739 1090.58 363.46L1090.75 364.769L1088.35 365.752C1087.03 366.292 1085.69 366.735 1085.38 366.735C1085.06 366.735 1083.68 366.026 1082.32 365.16C1078.45 362.71 1076.27 362.232 1065.28 361.42C1057.53 360.847 1055.79 360.321 1053.41 357.81C1052.72 357.085 1051.71 356.394 1051.17 356.273C1049.36 355.871 1047.91 355.011 1047.61 354.175C1047.46 353.72 1047.39 351.76 1047.48 349.819C1047.61 346.799 1047.53 346.084 1046.93 344.867C1046.21 343.412 1044.81 341.792 1042.74 340.017C1041.69 339.116 1041.54 338.764 1041.32 336.528C1041.1 334.296 1040.94 333.905 1039.77 332.693C1039.05 331.95 1038.03 330.787 1037.51 330.108C1036.9 329.326 1036.17 328.827 1035.52 328.745C1033.97 328.551 1032.13 328.508 1031.4 328.649C1030.56 328.812 1030.33 328.319 1029.46 324.558C1029.07 322.843 1028.29 319.707 1027.74 317.589C1023.85 302.648 1022.76 298.547 1022.4 297.417C1022.18 296.711 1021.96 295.804 1021.91 295.4C1021.87 294.997 1021.66 294.202 1021.45 293.634C1020.57 291.271 1021.04 291.367 1023.67 294.092ZM1216.29 344.593C1218.06 345.149 1219.51 345.729 1219.51 345.882C1219.51 346.036 1217.75 347.613 1215.59 349.388C1211.08 353.101 1210.27 353.925 1206.21 358.881C1203.18 362.567 1197.56 368.228 1195.81 369.35C1195.28 369.687 1194.12 370.548 1193.23 371.262C1191.17 372.913 1182.28 377.472 1179.75 378.174C1179.08 378.36 1177.98 378.664 1177.31 378.85C1174.97 379.496 1170.1 379.104 1169.24 378.199C1168.92 377.866 1169.9 375.093 1172.06 370.219C1172.69 368.807 1173.44 367.074 1173.73 366.368C1174.02 365.662 1174.62 364.342 1175.05 363.434C1176.43 360.549 1180.21 350.804 1180.18 350.203C1180.12 348.851 1193.46 345.682 1195 346.683C1195.61 347.081 1198.9 347.719 1201.15 347.875C1203.84 348.062 1206.03 347.512 1207.9 346.181C1208.75 345.584 1209.55 345.096 1209.68 345.096C1209.82 345.096 1210.23 344.678 1210.59 344.167C1211.36 343.089 1211.52 343.101 1216.29 344.593ZM1263.81 355.662C1266.25 356.082 1268.34 357.05 1268.34 357.759C1268.34 358.062 1268.52 358.605 1268.73 358.968C1269.02 359.456 1269.02 360.095 1268.72 361.439C1268.49 362.435 1268.1 364.406 1267.84 365.818C1267.32 368.67 1266.33 371.482 1264.88 374.251C1263.7 376.508 1261.66 379.571 1261.34 379.571C1261.21 379.571 1260.91 378.787 1260.66 377.829C1259.93 374.958 1258.25 372.212 1255.42 369.283C1252.52 366.271 1249.68 364.131 1247.76 363.499C1247.09 363.278 1245.43 362.705 1244.07 362.225C1241.8 361.421 1241.4 361.384 1238.94 361.751C1237.47 361.97 1235.98 362.398 1235.63 362.7C1235.27 363.003 1234.05 363.739 1232.92 364.336C1230.81 365.443 1226.9 368.509 1225.59 370.082C1224.28 371.649 1221.87 375.642 1221.05 377.589C1220.37 379.216 1219.75 383.478 1219.75 386.54C1219.75 387.578 1220.17 390.391 1220.49 391.494C1220.95 393.092 1222.58 396.363 1223.27 397.098C1223.6 397.445 1224.63 398.719 1225.57 399.928C1227.11 401.931 1231.67 406.356 1233.8 407.914C1234.6 408.496 1234.61 408.545 1233.95 408.545C1232.09 408.545 1225.36 407.406 1224 406.861C1223.16 406.523 1221.83 405.527 1221.03 404.645L1219.59 403.044L1217.02 403.027C1213.81 403.006 1196.16 402.688 1195.45 402.638C1195.16 402.618 1193.51 402.364 1191.79 402.074C1190.06 401.783 1188.1 401.482 1187.43 401.405C1185.81 401.219 1183.02 400.652 1179.49 399.79C1176.33 399.02 1176.14 398.855 1171.48 392.874C1169.04 389.741 1169.06 389.332 1171.64 389.641C1172.75 389.773 1175.45 389.683 1177.66 389.441C1179.87 389.199 1182.14 388.951 1182.72 388.889C1186.86 388.445 1194.3 386.57 1195.26 385.731C1195.44 385.571 1195.86 385.439 1196.2 385.439C1196.91 385.439 1200.52 383.274 1202.01 381.951C1202.58 381.449 1203.14 381.038 1203.26 381.038C1203.38 381.038 1204.77 380.153 1206.35 379.072C1207.93 377.991 1209.91 376.737 1210.76 376.287C1212.48 375.367 1217.22 372 1219.34 370.197C1220.59 369.133 1223.02 367.347 1228.41 363.548C1233.13 360.218 1241.36 357.003 1248.98 355.516C1251.64 354.999 1260.45 355.086 1263.81 355.662ZM1045.27 379.938C1048.21 383.889 1052.75 387.908 1056.42 389.803C1058.16 390.7 1061.77 391.987 1065.76 393.128L1072.27 394.99L1079.54 395.063C1085.37 395.121 1087.43 395.004 1089.95 394.472L1093.09 393.809L1093.86 394.85C1098.73 401.356 1104.45 410.228 1104.98 412.099C1106.17 416.242 1105.43 420.209 1102.55 425.141C1099.79 429.886 1093.37 436.542 1089.38 438.788C1086 440.695 1082.44 441.358 1079.85 440.559C1074.78 438.996 1070.9 435.355 1058.9 420.94L1052.28 412.98L1051.32 409.387C1050.79 407.411 1050.11 404.804 1049.8 403.594C1049.5 402.384 1047.77 395.969 1045.97 389.338C1044.16 382.708 1042.69 377.11 1042.69 376.899C1042.69 376.423 1042.52 376.221 1045.27 379.938ZM1009.58 411.382C1012.4 412.81 1016.42 416.345 1018.56 419.275C1019.46 420.509 1020.82 422.283 1021.59 423.218C1022.36 424.152 1023.38 425.612 1023.86 426.462C1025.71 429.753 1029.88 435.19 1036.1 442.425C1038.86 445.641 1040.93 447.607 1044.29 450.205C1050.35 454.882 1050.47 455.349 1044.96 452.786C1039.24 450.131 1031.4 450.145 1025.6 452.822C1022.59 454.212 1018.96 456.079 1016.85 457.328C1015.59 458.074 1012.31 459.638 1009.57 460.804C1004.62 462.903 1004.55 462.921 1001.82 462.725C1000.05 462.597 998.731 462.295 998.122 461.878C996.437 460.724 990.883 454.612 990.275 453.244C989.638 451.809 987.804 443.629 987.449 440.636C985.847 427.158 986.711 422.662 992.308 415.344C994.296 412.745 995.254 411.808 996.549 411.195C998.78 410.137 999.349 410.054 1003.65 410.157C1006.96 410.236 1007.56 410.36 1009.58 411.382Z" fill="white" fill-opacity="0.05"/>
</svg>
