<svg width="1184" height="700" viewBox="0 0 1184 700" fill="none" xmlns="http://www.w3.org/2000/svg">
<rect width="1183.83" height="699.051" transform="translate(0.0859375 0.141846)" fill="#1B2C8C"/>
<path fill-rule="evenodd" clip-rule="evenodd" d="M487.531 0.502026C488.587 0.823306 489.439 1.56342 488.753 1.56342C488.577 1.56342 488.16 2.92519 487.826 4.58917C487.491 6.25352 486.919 8.59124 486.555 9.7843C486.19 10.9774 485.891 12.2977 485.889 12.7184C485.888 13.139 485.653 13.9558 485.366 14.5334C485.08 15.1115 484.846 15.8541 484.846 16.1839C484.847 17.0619 483.881 21.5539 483.099 24.3024C481.782 28.9298 481.039 31.8807 479.771 37.5057C479.067 40.6323 478.284 43.5378 478.031 43.9621C477.779 44.3864 477.462 45.3767 477.326 46.1626C477.191 46.9486 476.93 47.8967 476.747 48.27C476.563 48.643 476.028 50.541 475.557 52.4877C474.484 56.9273 474.4 57.2417 472.813 62.812C471.517 67.3576 471.136 68.77 470.539 71.2474C470.368 71.9534 469.74 74.429 469.142 76.7488C467.36 83.6658 467.059 84.8893 466.524 87.38C466.243 88.6886 465.71 90.7516 465.338 91.9644C464.966 93.1773 464.477 95.1501 464.252 96.3483C464.027 97.5469 463.709 98.7847 463.546 99.099C463.384 99.4137 462.999 100.909 462.69 102.422C462.382 103.935 461.606 107.07 460.966 109.39C460.327 111.71 459.695 114.186 459.562 114.892C459.429 115.598 459.107 116.918 458.846 117.826C458.585 118.733 458.111 120.549 457.793 121.86C457.474 123.171 456.998 124.987 456.735 125.894C456.472 126.802 455.857 129.502 455.368 131.895C454.879 134.288 454.249 136.825 453.968 137.533C453.687 138.241 453.456 139.079 453.456 139.396C453.456 139.712 453.073 141.301 452.604 142.927C452.136 144.552 451.339 147.451 450.834 149.367C450.329 151.283 449.626 153.924 449.271 155.235C448.317 158.758 447.216 163.125 446.495 166.238C446.144 167.751 445.437 170.556 444.923 172.473C444.41 174.389 443.449 178.185 442.788 180.908C442.127 183.631 441.039 188.005 440.37 190.627C437.309 202.633 436.666 205.433 436.532 207.345C436.396 209.286 436.452 209.458 437.598 210.626C438.988 212.043 439.074 212.662 438.127 214.435L437.447 215.71L438.302 217.923C439.193 220.23 439.404 222.312 438.81 222.937C438.579 223.18 438.696 223.785 439.158 224.738C440.111 226.703 440.034 227.896 438.808 230.18C438.016 231.657 437.762 232.595 437.762 234.046C437.762 235.157 437.479 236.614 437.09 237.513C436.72 238.366 436.304 239.542 436.165 240.127C435.872 241.352 433.589 243.877 431.548 245.231C430.776 245.744 429.869 246.653 429.533 247.252C429.197 247.85 428.642 248.416 428.3 248.51C426.854 248.908 424.849 255.628 424.34 261.778C424.307 262.181 424.183 262.759 424.066 263.062C423.948 263.364 423.583 264.685 423.256 265.996C422.559 268.784 421.289 271.747 419.797 274.064C418.306 276.381 417.652 278.174 416.989 281.766C416.673 283.481 416.275 285.064 416.105 285.284C415.935 285.505 415.895 285.789 416.017 285.917C416.138 286.045 416.07 286.362 415.865 286.622C415.66 286.882 415.334 288.165 415.141 289.473C414.947 290.782 414.401 293.42 413.927 295.336C412.324 301.81 410.531 308.568 410.151 309.565C409.943 310.111 409.336 312.372 408.803 314.591C408.27 316.81 407.571 319.616 407.249 320.826C406.928 322.036 406.345 324.347 405.956 325.961C405.565 327.574 405.101 329.085 404.923 329.317C404.547 329.809 405.831 330.868 408.586 332.337C410.228 333.213 410.385 333.407 410.397 334.579C410.405 335.285 410.54 336.481 410.697 337.236C411.076 339.054 410.773 340.165 409.469 341.727C408.556 342.821 408.371 343.372 408.267 345.309C408.077 348.854 408.062 349.508 408.14 351.091C408.188 352.087 408.005 352.806 407.576 353.305C407.225 353.712 406.38 355.441 405.697 357.146C404.139 361.037 402.391 363.545 399.441 366.121C394.924 370.064 394.808 370.245 393.516 375.304C392.875 377.817 392.038 381.029 391.657 382.441C391.276 383.853 390.835 385.504 390.678 386.109C390.094 388.356 388.937 392.794 388.24 395.461C387.844 396.974 387.266 399.285 386.953 400.596C386.64 401.907 386.174 403.24 385.916 403.559C385.658 403.877 385.447 404.354 385.447 404.618C385.447 404.881 386.192 404.367 387.104 403.473C388.94 401.673 392.524 398.762 392.904 398.762C393.038 398.762 393.573 398.434 394.093 398.033C395.15 397.217 400.868 395.095 402.009 395.095C402.414 395.095 402.898 394.934 403.084 394.738C403.837 393.947 415.365 393.092 416.399 393.75C416.544 393.842 418.153 394.027 419.975 394.162C421.797 394.297 423.437 394.562 423.619 394.751C423.802 394.94 424.398 395.095 424.945 395.095C425.492 395.095 426.52 395.405 427.23 395.785C427.939 396.165 429.932 396.943 431.659 397.514C434.79 398.551 438.01 399.879 439.331 400.679C441.558 402.028 445.167 404.139 446.83 405.064C450.563 407.141 451.699 407.99 454.237 410.605C457.197 413.655 459.313 416.564 461.228 420.212C462.807 423.223 464.79 428.397 465.33 430.917C465.808 433.15 465.828 440.436 465.36 441.732C465.165 442.268 464.682 444.146 464.284 445.904C462.597 453.378 457.559 460.972 451.178 465.663C447.233 468.563 435.905 474.681 434.48 474.681C434.04 474.681 433.226 474.842 432.67 475.039C430.941 475.65 423.411 476.629 420.847 476.576C415.283 476.461 408.264 474.661 402.013 471.747C399.492 470.571 397.195 470.184 395.53 470.655C392.816 471.424 389.283 475.225 389.283 477.377C389.283 479.097 392.253 481.261 395.412 481.845C399.298 482.563 403.684 485.07 405.202 487.441C406.065 488.791 406.072 490.372 405.216 490.876C404.808 491.116 404.709 491.511 404.858 492.296C405.117 493.659 404.464 494.548 403.262 494.468C402.767 494.435 401.483 494.426 400.408 494.447C398.094 494.493 397.078 495.28 395.99 497.866C395.606 498.779 395.08 499.663 394.821 499.832C394.18 500.248 392.112 500.025 391.228 499.444C390.83 499.183 389.876 498.766 389.109 498.518C386.229 497.588 382.583 495.417 380.691 493.505C379.134 491.932 378.599 491.597 377.929 491.773C377.399 491.913 376.681 491.722 375.945 491.243C373.859 489.887 368.675 483.718 367.343 481.008C366.534 479.359 366.33 479.735 365.105 485.134C364.83 486.344 364.097 489.315 363.474 491.735C362.852 494.156 362.132 497.044 361.875 498.153C360.739 503.051 357.504 515.731 355.559 522.91C354.591 526.482 352.968 532.825 352.79 533.729C352.692 534.233 352.486 534.976 352.333 535.379C352.181 535.783 351.698 537.598 351.26 539.414C350.823 541.229 349.929 544.778 349.275 547.299C348.621 549.82 347.782 553.204 347.413 554.818C347.043 556.431 346.595 558.016 346.417 558.34C346.24 558.663 345.983 559.736 345.845 560.723C345.709 561.711 345.383 563.097 345.122 563.803C344.605 565.203 341.742 576.476 340.932 580.307C340.654 581.618 340.134 583.681 339.776 584.892C339.418 586.102 338.298 590.393 337.287 594.427C336.277 598.462 335.071 603.248 334.608 605.063C333.827 608.121 333.594 609.096 332.812 612.582C332.654 613.288 331.798 616.472 330.91 619.659C330.022 622.845 329.296 625.699 329.296 626C329.296 626.302 328.994 627.574 328.625 628.826C328.255 630.078 327.54 632.754 327.035 634.771C325.536 640.754 324.363 645.299 323.861 647.057C323.602 647.965 323.129 649.698 322.81 650.908C322.49 652.118 322.014 653.816 321.752 654.68C321.489 655.545 321.274 656.566 321.274 656.951C321.274 657.801 320.733 658.209 320.141 657.806C319.901 657.643 318.215 657.173 316.394 656.762C313.971 656.215 313.053 655.853 312.972 655.412C312.912 655.081 313.911 650.879 315.193 646.074C320.568 625.934 325.544 607.083 326.988 601.396C327.653 598.773 329.239 592.667 330.511 587.826C331.783 582.985 333.443 576.63 334.2 573.706C334.957 570.781 336.524 564.757 337.683 560.319C338.842 555.881 340.347 550.022 341.028 547.299C342.775 540.308 343.035 539.286 344.48 533.729C345.188 531.006 346.045 527.705 346.384 526.394C346.723 525.083 347.234 523.267 347.52 522.359C347.804 521.452 348.282 519.801 348.581 518.692C348.88 517.582 349.443 515.519 349.833 514.107C350.512 511.647 350.893 510.133 353.521 499.437C354.166 496.815 354.877 494.174 355.102 493.569C355.326 492.964 356.127 489.993 356.881 486.967C359.075 478.164 360.765 471.645 363.634 460.928C364.066 459.314 364.543 457.687 364.696 457.313C364.938 456.719 364.8 456.745 363.614 457.52C361.664 458.793 358.885 459.554 355.264 459.806C351.83 460.045 348.074 459.414 342.026 457.582C334.512 455.306 326.717 448.762 323.301 441.862C322.462 440.166 321.784 439.163 321.692 439.478C321.347 440.651 320.45 441.306 319.186 441.306C317.587 441.306 317.394 441.504 317.828 442.705C318.083 443.41 318.03 444.057 317.626 445.171C317.125 446.55 317.126 446.821 317.643 448.303C317.954 449.195 318.336 450.42 318.492 451.025C319.11 453.424 320.248 457.116 321.771 461.661C324.162 468.796 324.474 471.263 324.536 483.483C324.596 495.579 324.54 495.889 322.119 496.861C321.271 497.202 320.557 497.591 320.532 497.725C320.508 497.86 320.451 498.3 320.408 498.704C320.364 499.107 320.148 500.312 319.929 501.381C319.71 502.45 319.53 503.89 319.53 504.582C319.53 506.758 318.547 508.741 317.074 509.531C314.928 510.683 314.322 511.891 311.564 520.526C310.63 523.451 309.209 527.742 308.408 530.061C307.607 532.381 306.276 536.342 305.451 538.864C304.626 541.385 303.688 543.979 303.367 544.629C302.924 545.524 302.795 546.675 302.834 549.397C302.878 552.505 302.758 553.327 301.936 555.551C301.413 556.963 300.809 558.342 300.593 558.616C299.654 559.807 301.065 575.236 302.465 579.083C302.673 579.655 302.86 582.352 302.879 585.075C302.907 589.059 302.729 591.03 301.969 595.161C301.45 597.985 300.781 601.698 300.483 603.413C300.185 605.128 299.794 606.824 299.613 607.182C299.355 607.694 299.536 608.089 300.454 609.016C302.104 610.684 302.79 611.99 302.79 613.465C302.79 614.326 302.562 614.908 302.09 615.256C301.517 615.678 301.412 616.097 301.512 617.569C301.651 619.616 301.126 620.995 299.827 621.989C299.338 622.364 298.858 623.138 298.759 623.71C298.358 626.034 296.406 627.619 293.944 627.619C292.8 627.619 292.676 627.727 292.375 628.994C292.195 629.751 292.056 630.617 292.066 630.92C292.076 631.222 291.885 632.93 291.642 634.715C291.274 637.409 291.025 638.169 290.176 639.186C289.613 639.859 288.624 640.594 287.978 640.818C286.732 641.251 285.741 642.487 285.731 643.622C285.702 646.866 284.512 651.881 283.621 652.512C283.108 652.874 282.91 653.415 282.91 654.449C282.91 656.394 282.184 658.078 280.829 659.277C279.913 660.088 279.778 660.377 280.116 660.805C280.345 661.096 280.618 662.324 280.722 663.535C280.927 665.905 280.592 667.166 279.136 669.519C278.118 671.163 278.248 672.865 279.605 675.682C280.08 676.668 280.47 677.685 280.472 677.944C280.479 678.899 282.17 682.198 283.823 684.485C285.316 686.549 285.526 687.057 285.526 688.608C285.526 690.062 285.371 690.502 284.654 691.081C284.174 691.468 283.546 691.795 283.259 691.807C282.971 691.82 282.42 692.36 282.033 693.008C281.609 693.719 280.987 694.232 280.464 694.303C279.945 694.374 279.314 694.89 278.894 695.587C278.471 696.288 277.845 696.798 277.324 696.866C276.848 696.928 275.792 697.3 274.979 697.691C274.166 698.083 273.259 698.403 272.963 698.403C272.041 698.403 270.024 697.373 268.701 696.225C267.348 695.053 266.518 695.208 266.518 696.635C266.518 697.138 265.96 697.612 264.597 698.268L262.676 699.193L261.498 698.427C260.85 698.006 260.228 697.375 260.116 697.024C260.003 696.673 259.771 696.139 259.599 695.836C257.635 692.376 257.79 687.001 259.971 682.999C260.929 681.241 260.873 678.906 259.803 676.031C257.734 670.468 257.436 668.838 257.604 663.988L257.76 659.464L259.288 657.746C260.963 655.862 261.202 654.917 261.989 647.057C262.959 637.382 262.917 636.433 261.556 637.199C261.124 637.443 259.426 637.651 257.785 637.661C255.268 637.677 254.584 637.547 253.428 636.829L252.056 635.978L248.302 638.034C245.924 639.335 244.118 640.089 243.378 640.089C242.058 640.089 239.704 638.487 238.733 636.928C237.808 635.445 236.129 634.841 234.331 635.345C232.882 635.752 229.178 637.47 225.999 639.212C224.515 640.025 218.925 641.664 212.634 643.13C210.224 643.692 204.474 644.289 202.604 644.171C201.547 644.105 198.389 642.699 197.288 641.805C196.721 641.345 196.591 640.805 196.591 638.922V636.605L195.374 636.421C194.447 636.281 194.041 635.975 193.671 635.137C192.768 633.094 192.201 632.665 190.728 632.912C189.755 633.076 183.982 635.793 182.907 636.593C182.863 636.626 182.972 637.188 183.15 637.842C183.329 638.497 183.38 640.447 183.264 642.176L183.053 645.319L179.969 648.644C178.273 650.472 176.885 652.085 176.885 652.228C176.885 652.371 176.347 653.49 175.689 654.714C174.17 657.54 172.886 661.507 172.351 665.028C172.12 666.541 171.772 668.234 171.576 668.789C171.176 669.923 169.096 671.997 168.359 671.997C167.713 671.997 166.226 673.906 165.178 676.081C164.433 677.626 163.989 678.036 161.82 679.185C158.002 681.206 156.011 680.867 155.32 678.078C155.05 676.991 154.977 676.953 153.393 677.074C151.845 677.192 151.655 677.103 150.191 675.563C149.193 674.514 148.635 673.604 148.635 673.026C148.635 672.528 148.23 671.726 147.73 671.235C144.409 667.976 145.01 661.76 148.81 660.057C150.652 659.231 152.488 657.254 152.878 655.676C153.491 653.197 153.626 651.458 153.206 651.458C152.994 651.458 152.82 651.623 152.82 651.825C152.82 652.027 152.278 652.192 151.616 652.192C150.954 652.192 150.021 652.379 149.543 652.608C148.861 652.935 148.162 652.889 146.3 652.398C143.537 651.669 143.094 651.308 141.444 648.452C140.581 646.959 139.936 646.256 139.281 646.095C138.767 645.969 137.719 645.245 136.952 644.487C135.079 642.636 134.751 642.492 130.355 641.576C126.469 640.767 125.184 640.168 121.452 637.432C118.746 635.449 116.7 634.868 114.675 635.509C113.808 635.783 112.756 636.2 112.338 636.435C111.92 636.671 110.351 637.089 108.853 637.364C106.347 637.824 105.974 637.808 104.207 637.169C101.128 636.055 100.029 635.088 94.8545 628.942C93.6768 627.543 93.6007 627.513 91.0091 627.423C85.1282 627.218 77.7392 622.658 75.5968 617.91C74.7785 616.097 73.8941 615.63 70.7046 615.332C67.2679 615.011 65.0958 614.007 61.3141 610.992C57.077 607.615 54.8543 606.125 52.7247 605.237C45.8554 602.37 41.9981 600.042 40.3477 597.767C39.8204 597.039 39.1793 596.445 38.9233 596.445C38.6674 596.445 38.1529 595.743 37.7801 594.886C37.4073 594.028 36.2249 591.924 35.1525 590.21C33.7215 587.921 33.2015 586.748 33.1984 585.799C33.1921 584.023 33.6846 583.32 37.431 579.754L38.704 578.542L38.7472 574.601C38.8264 567.415 39.4082 566.067 45.212 559.621C47.3356 557.262 47.6007 556.665 47.3384 554.827C47.2097 553.923 46.9562 553.088 46.7755 552.971C46.5948 552.853 46.4469 552.427 46.4469 552.024C46.4469 551.62 46.6039 551.392 46.7957 551.517C46.9875 551.641 47.1445 551.578 47.1445 551.377C47.1445 550.796 46.5233 550.547 46.3458 551.056C46.2209 551.414 46.0867 551.419 45.7414 551.077C45.3832 550.723 45.3822 550.22 45.7358 548.466C46.2471 545.933 46.0546 545.077 44.5249 543.081C42.2004 540.049 42.1564 539.525 43.7938 534.351C44.7264 531.404 44.9406 530.221 44.8036 528.768L44.6295 526.925L46.6716 525.947C47.7949 525.409 49.5771 524.614 50.6321 524.182C51.6872 523.749 53.2566 523.097 54.1198 522.734C54.983 522.37 57.9649 521.159 60.7463 520.043C63.5277 518.927 66.902 517.495 68.2448 516.862C69.5875 516.229 71.2355 515.463 71.9068 515.159C72.5782 514.856 73.4414 514.46 73.825 514.279C74.2087 514.098 75.8318 513.504 77.4316 512.96C79.0317 512.416 80.5618 511.739 80.832 511.454C81.1023 511.17 81.3437 510.248 81.3685 509.405C81.5408 503.536 82.5885 500.882 86.2366 497.073C88.9831 494.205 89.0664 493.967 88.7912 489.765L88.5496 486.074L89.6503 484.993C90.3775 484.279 91.7857 483.58 93.7974 482.934C95.4729 482.397 99.0408 481.247 101.726 480.379C106.556 478.818 110.572 477.67 114.631 476.687C115.782 476.408 117.743 475.853 118.99 475.453C120.237 475.053 122.984 474.297 125.094 473.774C127.204 473.25 129.244 472.679 129.628 472.504C130.011 472.33 131.21 471.913 132.291 471.579C135.156 470.693 135.429 470.4 135.032 468.629C134.695 467.124 134.956 465.72 135.941 463.734C136.207 463.199 136.425 462.592 136.426 462.384C136.427 462.177 137.37 460.792 138.521 459.307L140.614 456.607V453.896C140.614 452.405 140.828 450.646 141.089 449.988C141.573 448.769 143.307 447.002 144.605 446.405C144.999 446.224 145.557 445.916 145.845 445.721C146.133 445.527 147.31 444.93 148.461 444.396C150.319 443.534 151.652 443.083 155.436 442.038C157.495 441.47 164.09 439.047 165.357 438.394C165.643 438.246 166.257 436.477 166.775 434.31C167.277 432.207 167.939 429.992 168.247 429.386C169.025 427.855 171.218 425.732 172.852 424.928C174.491 424.121 174.672 423.553 174.638 419.301C174.616 416.413 174.562 416.189 173.918 416.259C173.536 416.301 172.282 416.419 171.131 416.522C169.98 416.625 167.704 416.887 166.074 417.104C164.443 417.322 161.932 417.644 160.493 417.821C157.016 418.249 146.558 418.079 145.671 417.579C145.287 417.364 143.875 417.088 142.532 416.966C137.519 416.511 133.306 415.404 123.35 411.924C121.623 411.32 119.505 410.602 118.641 410.328C117.778 410.054 115.43 409.162 113.423 408.347C111.416 407.532 109.72 406.921 109.655 406.99C109.59 407.058 109.908 407.422 110.362 407.798C110.816 408.173 111.726 409.339 112.386 410.387C116.36 416.707 116.443 417.07 114.464 419.474C113.666 420.444 112.764 421.668 112.46 422.195C111.622 423.644 108.564 426.601 107.077 427.399C105.279 428.363 102.088 429.287 99.9824 429.453C98.3551 429.581 96.1122 429.099 80.8003 425.332C77.0926 424.42 76.5447 424.547 72.2273 427.324C68.4394 429.759 64.0687 433.412 57.5105 439.624C55.7883 441.255 54.2031 442.6 53.9879 442.612C53.1586 442.66 52.8579 442 52.9737 440.383C53.078 438.925 52.958 438.561 52.0641 437.621C51.149 436.659 49.9262 436.26 48.7139 436.529C48.5221 436.571 47.8158 436.654 47.1445 436.712C46.4731 436.77 44.9009 437.316 43.6509 437.926C39.7848 439.813 37.6005 440.327 34.6147 440.053C32.8601 439.893 31.6638 439.576 31.0517 439.11C30.1366 438.413 30.1142 438.415 27.7385 439.356C21.1534 441.964 19.968 442.184 12.4332 442.205L5.44852 442.223L2.92518 440.619C0.331061 438.971 -0.2378 438.106 0.237916 436.53C0.451361 435.822 0.653322 435.759 2.10035 435.946C6.68906 436.539 9.28632 436.605 11.3193 436.181C14.96 435.421 18.6838 433.786 23.894 430.659C25.3968 429.758 27.2178 428.69 27.9401 428.286C29.241 427.56 31.8825 425.235 36.3101 420.92C38.5534 418.734 42.4682 415.633 42.9854 415.633C43.1291 415.633 44.3198 414.985 45.6315 414.193C46.9432 413.401 49.2615 412.236 50.7831 411.603C52.3052 410.97 53.9531 410.155 54.4452 409.792C55.4695 409.036 60.7725 407.264 63.3621 406.812C64.3212 406.645 66.283 406.238 67.7216 405.909C69.1603 405.579 71.0436 405.256 71.9068 405.189C72.77 405.123 74.9728 404.953 76.8021 404.813C80.243 404.547 83.7192 404.904 88.0445 405.967C89.9764 406.441 90.5947 406.464 91.445 406.094C92.0163 405.845 92.484 405.447 92.484 405.209C92.484 404.483 87.2002 401.368 84.6225 400.574C81.7214 399.681 74.3753 398.779 69.915 398.769C63.9009 398.756 57.6074 399.712 57.6074 400.64C57.6074 401.264 54.9073 400.974 54.0713 400.26L53.2479 399.557L53.9789 398.517C54.8183 397.324 60.5503 392.642 61.6019 392.291C61.9886 392.162 63.1584 391.394 64.2009 390.584C65.2437 389.774 67.9609 388.105 70.2394 386.877C75.3819 384.103 76.7637 383.328 77.8512 382.608C78.9829 381.859 83.0147 380.099 84.3089 379.789C85.7326 379.448 87.8768 379.455 89.4553 379.804C90.6833 380.077 90.7593 380.047 90.4395 379.419C89.8156 378.193 91.1444 376.628 93.7933 375.47C95.0872 374.904 96.2953 374.302 96.4773 374.132C96.6597 373.962 97.0228 373.823 97.2844 373.823C97.546 373.823 98.5741 373.431 99.5688 372.952C101.806 371.874 104.635 370.549 105.563 370.144C108.849 368.709 116.816 367.135 121.661 366.963C125.502 366.827 126.158 366.902 128.636 367.76C130.141 368.28 131.685 368.848 132.069 369.021C132.453 369.194 133.82 369.783 135.107 370.331C137.087 371.172 137.585 371.573 138.339 372.926C138.83 373.806 139.385 375.399 139.573 376.467C140.028 379.054 141.105 382.049 142.846 385.572C144.005 387.917 144.848 389.01 147.242 391.277C150.891 394.73 155.391 397.896 157.607 398.567C163.319 400.299 170.946 400.227 174.618 398.407C175.002 398.217 176.336 397.624 177.583 397.09C182.736 394.884 186.418 392.332 187.872 389.96C189.371 387.511 189.617 386.018 188.93 383.53C187.965 380.04 185.14 378.826 181.647 380.4C179.88 381.197 179.52 381.727 179.149 384.083C178.803 386.275 177.292 387.843 174.79 388.607C170.38 389.952 168.572 390.333 165.574 390.554C161.286 390.868 158.678 390.191 152.646 387.196C149.971 385.868 145.469 382.267 145.072 381.137C144.934 380.745 144.676 380.424 144.499 380.424C144.322 380.424 144.074 379.97 143.948 379.416C143.822 378.861 143.353 377.582 142.905 376.573C140.386 370.903 139.931 368.368 140.533 363.363C140.916 360.178 143.321 356.293 146.413 353.865C147.205 353.243 149.065 351.688 150.545 350.41C153.147 348.163 157.746 345.231 158.684 345.221C158.936 345.218 160.142 344.708 161.365 344.088C162.588 343.468 164.569 342.72 165.767 342.426C166.966 342.132 168.161 341.705 168.423 341.476C168.684 341.248 169.793 341.016 170.886 340.961C171.98 340.906 174.135 340.525 175.675 340.115C177.778 339.555 180.069 339.321 184.859 339.178C188.37 339.073 191.387 338.893 191.563 338.778C192.132 338.408 191.253 337.253 190.238 337.036C189.703 336.921 188.606 336.157 187.798 335.337C186.437 333.956 186.185 333.846 184.38 333.846C182.121 333.846 180.778 333.222 179.583 331.616C178.867 330.655 178.625 330.536 178.07 330.874C177.112 331.457 159.852 334.053 156.06 334.184C155.061 334.219 152.785 334.557 151.003 334.934C149.221 335.312 145.645 336.065 143.055 336.608C139.947 337.26 138.117 337.827 137.671 338.275C137.017 338.933 137.016 338.978 137.63 339.692C137.979 340.097 138.924 340.765 139.73 341.175C142.403 342.536 143.52 344.496 142.528 346.087C142.03 346.886 138.165 349.617 137.532 349.617C137.399 349.617 136.665 349.973 135.9 350.408C135.136 350.843 133.647 351.404 132.592 351.655C131.537 351.905 129.104 352.526 127.186 353.035C125.268 353.543 121.624 354.388 119.088 354.91C113.241 356.116 112.569 356.376 112.848 357.325C112.965 357.725 113.154 358.368 113.268 358.754C113.516 359.591 112.492 360.287 110.947 360.334C110.383 360.35 109.922 360.53 109.922 360.732C109.922 360.934 109.636 360.828 109.286 360.495C108.438 359.688 103.607 359.181 96.582 359.161C94.9034 359.156 93.5303 359.006 93.5303 358.827C93.5303 358.357 95.8144 358.078 101.468 357.858C104.204 357.752 106.831 357.508 107.307 357.318C108.085 357.007 108.132 356.878 107.771 356.045C107.243 354.829 107.8 353.509 109.149 352.775C110.016 352.304 114.086 351.38 117.421 350.898C119.857 350.546 120.799 350.366 121.954 350.031C122.625 349.836 123.175 349.729 123.175 349.794C123.175 349.859 124.235 349.512 125.53 349.023C126.824 348.534 128.825 347.786 129.976 347.362C131.907 346.65 133.638 345.452 133.638 344.827C133.638 344.684 133.363 344.473 133.028 344.358C131.884 343.964 129.282 342.216 128.112 341.055C126.99 339.943 126.951 339.813 127.123 337.75C127.481 333.431 130.163 331.949 143.927 328.466C145.845 327.981 148.356 327.416 149.507 327.211C152.173 326.736 157.019 325.192 159.273 324.1C160.232 323.635 162.037 322.816 163.283 322.279C165.866 321.168 167.817 319.75 167.817 318.983C167.817 318.234 166.214 317.467 163.618 316.975C162.379 316.74 161.091 316.288 160.755 315.971C159.27 314.568 160.599 311.629 163.58 309.719C165.403 308.551 169.194 306.992 170.362 306.93C170.785 306.908 171.124 306.724 171.115 306.523C171.089 305.892 170.161 304.139 169.854 304.139C169.693 304.139 169.561 303.809 169.561 303.405C169.561 302.489 169.23 302.489 167.184 303.4C166.286 303.801 164.138 304.549 162.411 305.063C158.909 306.106 152.472 309.178 152.472 309.806C152.472 310.03 153.124 310.455 153.921 310.752C155.808 311.452 156.213 312.145 155.62 313.652C154.462 316.591 148.922 317.578 134.685 317.381C126.716 317.272 126.462 317.291 125.53 318.066C124.393 319.009 124.33 319.656 125.253 320.889C126.024 321.92 125.819 322.541 124.318 323.721C123.528 324.342 122.838 324.409 117.738 324.355L112.041 324.295L111.445 325.25C110.947 326.051 110.916 326.399 111.258 327.393C111.81 328.999 111.844 328.924 110.28 329.582C109.142 330.06 107.972 330.128 103.741 329.958C100.906 329.844 98.1166 329.741 97.5411 329.729C96.9656 329.717 95.7579 330.014 94.8574 330.391C92.7798 331.259 92.364 330.846 93.8647 329.405C95.3519 327.976 96.5447 327.505 97.9638 327.785C98.6753 327.925 99.474 327.799 100.13 327.442C100.701 327.132 102.03 326.878 103.083 326.878C104.137 326.878 105.097 326.71 105.217 326.505C105.338 326.3 105.572 326.22 105.737 326.327C106.445 326.788 106.441 325.648 105.731 324.854C104.538 323.518 104.998 321.658 106.839 320.377C108.124 319.483 108.673 319.367 112.777 319.132C116.343 318.927 117.441 318.737 117.97 318.234C118.339 317.882 118.641 317.485 118.641 317.351C118.641 317.217 118.075 316.412 117.383 315.562C116.238 314.155 116.161 313.924 116.527 312.996C117.262 311.129 119.015 310.8 128.058 310.827C130.264 310.834 132.54 310.837 133.115 310.833C135.32 310.82 138.408 310.399 139.861 309.915L141.375 309.41L140.386 308.173C139.41 306.953 139.275 305.885 139.983 304.977C140.738 304.007 144.111 301.932 146.908 300.715C148.6 299.979 150.13 299.05 150.499 298.534C151.115 297.674 151.117 297.582 150.535 296.394C150.201 295.712 149.019 294.207 147.908 293.051C146.204 291.277 145.916 290.792 146.063 289.942C146.285 288.656 146.416 288.534 147.017 289.059C147.401 289.394 147.554 289.359 147.723 288.898C148.043 288.02 147.973 287.743 147.589 288.368C147.321 288.804 147.25 288.727 147.245 287.998C147.241 287.286 147.775 286.655 149.594 285.219C154.276 281.525 160.925 277.759 163.719 277.218C165.407 276.892 165.407 276.279 163.719 276.218C163 276.192 162.098 276.125 161.714 276.069C160.984 275.962 159.049 275.776 152.628 275.197C148.624 274.835 147.26 274.428 145.932 273.197C144.838 272.182 144.926 269.663 146.057 269.663C147.156 269.663 146.428 269.038 144.828 268.606C143.885 268.352 142.389 267.661 141.503 267.07C140.617 266.479 139.754 265.996 139.586 265.996C139.418 265.996 139.176 265.348 139.049 264.557C138.922 263.766 138.617 263.038 138.37 262.939C138.125 262.839 136.449 262.646 134.647 262.509C129.994 262.154 126.225 261.113 124.02 259.575C121.637 257.911 119.757 255.588 119.611 254.125C119.488 252.883 120.319 250.736 121.646 248.874C122.601 247.535 122.823 246.167 121.964 246.916C121.553 247.275 120.767 247.177 118.04 246.427C116.165 245.911 114.202 245.411 113.679 245.315C111.905 244.992 106.621 242.425 104.168 240.695C102.168 239.284 101.348 238.931 99.6337 238.742C96.8565 238.435 92.9956 237.353 91.2392 236.387C90.4587 235.959 89.0065 234.931 88.0121 234.105C86.3081 232.688 86.05 232.594 83.5026 232.46C82.0162 232.381 80.5649 232.242 80.2772 232.149C79.9895 232.056 79.2424 231.856 78.6171 231.704C77.9914 231.552 76.8537 230.789 76.0885 230.007C74.9428 228.838 74.697 228.339 74.697 227.183C74.697 225.851 74.6039 225.732 72.9036 224.895C70.4448 223.684 67.0408 221.112 66.2707 219.883C65.8044 219.14 65.6329 218.166 65.6315 216.251C65.6294 213.846 65.7016 213.584 66.5219 213.019C67.013 212.68 68.0725 212.278 68.8761 212.125C70.3165 211.85 70.4179 211.714 70.0071 210.605C69.8927 210.297 70.2341 209.148 70.766 208.052C71.5064 206.525 72.0882 205.864 73.2527 205.229C75.5609 203.969 77.4037 203.787 84.8112 204.088C88.5517 204.24 96.3204 204.535 102.075 204.744C107.83 204.953 114.735 205.287 117.421 205.485C120.106 205.683 123.559 205.924 125.094 206.02C126.628 206.115 128.747 206.271 129.802 206.365C130.857 206.459 132.976 206.637 134.51 206.76C137.468 206.997 141.179 207.469 144.624 208.048C145.775 208.241 147.502 208.483 148.461 208.585C150.32 208.783 152.814 209.264 155.087 209.864C155.855 210.066 157.11 210.239 157.878 210.249C158.645 210.258 160.214 210.598 161.365 211.004C162.516 211.41 165.576 212.154 168.165 212.658C170.754 213.162 173.736 213.833 174.792 214.151C175.847 214.468 177.731 215.027 178.978 215.395C181.542 216.149 186.471 217.811 187.523 218.275C187.906 218.444 188.814 218.853 189.54 219.183C190.266 219.514 191.05 219.79 191.284 219.797C191.517 219.804 192.336 220.128 193.103 220.518C193.87 220.908 194.706 221.232 194.961 221.239C195.578 221.255 201.643 224.434 202.36 225.117C202.67 225.411 203.083 225.652 203.279 225.652C203.475 225.652 204.248 226.109 204.996 226.668C205.744 227.227 206.748 227.886 207.228 228.133C212.598 230.898 222.674 239.382 226.496 244.357C227.981 246.291 230.246 249.74 230.246 250.069C230.246 250.195 230.498 250.9 230.805 251.637C231.112 252.373 231.497 253.306 231.659 253.709C232.103 254.811 233.074 258.907 233.518 261.553C233.824 263.374 234.073 263.959 234.637 264.178C235.036 264.333 236.165 265.421 237.144 266.596L238.925 268.731L239.851 267.822C240.686 267.001 240.761 266.716 240.615 264.896C240.395 262.144 240.729 261.421 242.553 260.688C243.849 260.168 244.335 260.139 245.624 260.504C246.466 260.742 247.602 261.272 248.149 261.682C249.248 262.504 252.219 263.033 252.219 262.406C252.219 262.194 251.691 261.678 251.046 261.259C250.402 260.84 249.467 259.878 248.968 259.121C248.144 257.869 248.096 257.604 248.433 256.206C248.893 254.308 249.359 253.863 252.219 252.59C254.538 251.558 256.96 251.271 259.107 251.775C259.73 251.921 260.237 251.921 260.233 251.775C260.229 251.628 259.209 250.718 257.966 249.751C256.124 248.319 255.706 247.804 255.706 246.97C255.706 246.407 255.798 245.85 255.91 245.732C256.022 245.615 256.868 245.917 257.792 246.405C258.714 246.892 259.78 247.291 260.16 247.291C260.539 247.291 261.458 247.513 262.202 247.785C265.095 248.842 267.905 248.22 269.763 246.112C270.656 245.098 270.893 245.016 272.47 245.176C273.444 245.274 274.502 245.639 274.894 246.013C275.277 246.377 275.705 246.554 275.846 246.407C276.109 246.13 273.843 243.774 270.948 241.313C270.046 240.546 269.308 239.763 269.308 239.571C269.308 238.945 271.668 239.204 274.439 240.135C277.732 241.24 278.556 241.267 280.518 240.331C283.26 239.022 285.095 239.35 289.188 241.879C291.332 243.204 293.831 243.763 295.311 243.25C295.943 243.031 297.217 242.022 298.142 241.009C303.227 235.441 309.946 235.633 315.597 241.51C316.791 242.75 317.847 243.683 317.943 243.581C318.246 243.263 316.143 239.082 315.224 238.175C314.159 237.122 314.376 236.288 315.715 236.288C317.044 236.288 318.242 236.869 320.796 238.749C323.389 240.659 325.602 243.419 327.811 247.499C328.724 249.184 329.676 250.65 329.927 250.757C330.61 251.049 333.558 250.266 334.247 249.61C334.579 249.294 335.106 249.139 335.419 249.265C335.887 249.454 335.945 249.819 335.748 251.327C335.459 253.534 335.847 253.679 337.215 251.876C339.353 249.058 340.615 250.969 340.624 257.038C340.631 261.092 340.308 262.458 338.856 264.529C338.643 264.831 338.368 265.379 338.244 265.745C338.057 266.298 338.151 266.369 338.802 266.162C339.232 266.025 340.393 265.356 341.382 264.675C342.972 263.579 343.249 263.192 343.786 261.324C344.737 258.011 345.049 257.657 347.458 257.159C349.794 256.676 350.191 256.221 349.404 254.931C348.714 253.801 345.155 244.942 344.64 243.073C343.479 238.853 343.222 235.777 343.709 231.887C343.973 229.776 344.779 226.874 345.339 226.019C345.669 225.515 346.133 224.239 346.37 223.184C347.245 219.283 351.41 210.333 354.626 205.441C355.237 204.512 356.069 203.068 356.474 202.232C356.88 201.397 357.331 200.713 357.478 200.713C357.624 200.713 358.041 200.177 358.404 199.521C358.973 198.493 360.766 195.814 361.655 194.661C361.811 194.46 362.944 192.892 364.174 191.177C365.404 189.463 367.053 187.235 367.839 186.226C378.827 172.131 383.858 166.595 390.597 161.184C396.415 156.511 398.258 154.98 401.523 152.1C406.156 148.014 412.931 142.653 415.858 140.755C418.515 139.033 418.569 139.017 421.09 139.155C425.349 139.388 427.091 141.363 426.983 145.837C426.93 148.053 426.793 148.583 426.064 149.383C425.1 150.44 425.009 150.928 425.642 151.633C426.702 152.811 427.382 155.157 427.507 158.066C427.635 161.027 427.611 161.134 426.093 164.21C424.346 167.752 421.626 172.082 419.32 174.99C417.97 176.693 417.838 177.002 418.337 177.295C418.654 177.482 419.405 178.387 420.008 179.307C421.038 180.883 421.101 181.171 421.081 184.225C421.063 186.915 420.907 187.808 420.167 189.455C419.172 191.665 416.576 195.415 414.607 197.483L413.318 198.837L414.118 199.799C415.168 201.061 415.366 201.852 415.401 204.931C415.427 207.239 415.299 207.747 414.127 209.969C412.202 213.622 409.121 217.498 403.43 223.423C400.637 226.332 398.351 228.835 398.351 228.986C398.351 229.137 398.976 229.943 399.738 230.778C400.55 231.667 401.289 232.934 401.521 233.834C402.086 236.03 401.727 239.103 400.677 241.056C400.189 241.964 399.481 243.29 399.102 244.004C398.042 246.001 388.756 255.651 385.524 258.114C378.717 263.303 377.583 264.133 377.284 264.147C377.11 264.155 376.404 264.615 375.714 265.169C373.577 266.886 371.179 268.563 370.861 268.563C370.695 268.563 370.287 268.878 369.955 269.264C369.624 269.649 368.99 270.06 368.546 270.177C367.897 270.348 367.692 270.727 367.493 272.124C367.116 274.766 365.865 276.894 362.794 280.116L359.997 283.05L362.172 283.265C363.368 283.383 364.842 283.682 365.447 283.93C366.425 284.331 366.745 284.276 368.313 283.441C369.284 282.923 370.256 282.5 370.472 282.5C370.688 282.5 371.282 282.2 371.792 281.832C372.301 281.465 373.502 280.866 374.461 280.501C378.678 278.896 379.518 278.405 379.518 277.542C379.518 276.44 380.779 272.157 381.797 269.798C382.244 268.763 382.717 267.315 382.848 266.581C383.12 265.054 384.367 263.826 387.584 261.915C388.729 261.235 390.191 260.256 390.831 259.741C391.472 259.227 393.074 258.333 394.389 257.757C395.705 257.18 397.017 256.523 397.305 256.295C397.593 256.067 398.378 255.62 399.049 255.302C401.645 254.07 403.766 251.861 405.91 248.154C410.922 239.489 412.161 236.579 412.289 233.168C412.425 229.535 412.369 229.248 410.93 226.203C410.167 224.589 409.441 222.819 409.318 222.269C409.006 220.889 410.161 218.513 412.135 216.476C413.595 214.969 413.902 214.818 415.858 214.65C417.976 214.467 417.993 214.457 418.463 213.023C418.723 212.23 419.189 211.288 419.497 210.93C420.113 210.213 428.167 205.848 428.872 205.848C429.114 205.848 429.535 205.476 429.807 205.022C430.364 204.097 432.53 195.972 432.53 194.811C432.53 194.4 432.685 193.76 432.873 193.389C433.062 193.018 433.768 190.512 434.441 187.82C435.752 182.582 437.721 175.006 438.858 170.822C439.242 169.41 439.758 167.347 440.004 166.238C440.251 165.128 440.661 163.478 440.914 162.57C441.453 160.644 441.389 160.896 441.74 159.269C441.892 158.563 442.224 157.243 442.479 156.335C442.734 155.427 443.357 153.117 443.865 151.201C444.372 149.284 445.172 146.396 445.642 144.782C446.112 143.169 446.817 140.61 447.209 139.098C447.6 137.585 448.305 134.862 448.776 133.046C449.247 131.231 449.928 128.425 450.289 126.811C450.651 125.197 451.105 123.3 451.298 122.593C451.872 120.5 453.163 115.485 453.282 114.892C453.6 113.288 453.928 112.101 454.14 111.774C454.272 111.572 454.575 110.252 454.815 108.84C455.054 107.428 455.394 105.943 455.57 105.539C455.746 105.136 456.449 102.578 457.132 99.8545C457.816 97.1313 458.514 94.4082 458.684 93.803C459.25 91.784 460.452 87.2377 461.303 83.9006C461.766 82.0851 462.711 78.4542 463.403 75.8319C464.951 69.9707 464.944 70.025 464.113 69.8453C463.739 69.765 462.876 69.3359 462.194 68.8921C461.512 68.4479 460.406 67.8696 459.734 67.6059C459.063 67.3425 458.019 66.8988 457.414 66.62C456.81 66.3409 456.074 66.1128 455.778 66.1128C455.483 66.1128 455.144 65.9478 455.026 65.746C454.907 65.5443 453.775 65.3793 452.509 65.3793C450.581 65.3793 450.02 65.5304 449.042 66.3149C448.401 66.8294 447.876 67.4944 447.876 67.7922C447.876 68.0904 448.347 69.315 448.922 70.5139C450.056 72.8743 450.201 73.7909 449.55 74.4749C448.329 75.7585 443.882 73.8844 439.107 70.0738C437.641 68.9038 436.348 67.9466 436.235 67.9466C436.121 67.9466 434.731 66.953 433.146 65.7383C430.024 63.3467 425.271 59.9718 420.847 57.0055C419.312 55.9767 417.414 54.6344 416.627 54.0223C415.841 53.4101 415.079 52.9095 414.934 52.9095C414.788 52.9095 414.075 52.4144 413.348 51.8092C412.622 51.2041 411.922 50.709 411.792 50.709C411.663 50.709 411.058 50.3371 410.448 49.8827C407.477 47.6722 400.933 44.1161 395.736 41.8877C395.352 41.723 394.489 41.4172 393.817 41.2077C393.146 40.9987 391.577 40.508 390.33 40.1177C386.483 38.9137 384.879 38.6063 382.415 38.6008C379.819 38.5953 378.472 38.332 378.472 37.8295C378.472 37.6517 378.808 37.5057 379.218 37.5057C379.628 37.5057 380.729 37.0106 381.664 36.4054C382.6 35.8003 383.45 35.3051 383.553 35.3051C383.657 35.3051 384.4 34.9901 385.205 34.605C388.235 33.1545 394.215 32.0043 398.725 32.0043C400.054 32.0043 401.137 31.8804 401.131 31.7293C401.104 30.9968 388.933 24.8683 385.934 24.0769C385.471 23.9544 385.006 23.7075 384.9 23.5282C384.795 23.3488 384.331 23.2021 383.869 23.2021C383.391 23.2021 382.872 22.8911 382.663 22.4796C382.343 21.8525 382.47 21.6632 383.621 21.046C385.024 20.293 386.671 19.9941 391.202 19.6695C395.727 19.3457 402.019 20.5607 407.671 22.85C413.171 25.0777 414.661 25.7988 416.92 27.3282C418.038 28.0844 419.026 28.7035 419.115 28.7035C419.204 28.7035 420.729 29.7557 422.503 31.0419C424.278 32.3282 426.432 33.7534 427.291 34.2096C428.15 34.6655 430.069 35.9143 431.556 36.9849C433.832 38.6243 439.031 41.54 439.678 41.54C439.783 41.54 440.474 41.9611 441.214 42.4756C442.413 43.3096 448.41 45.2076 449.848 45.2076C450.572 45.2076 450.293 43.6144 449.106 40.9759C447.861 38.2088 447.49 35.2208 448.109 32.9341C449.05 29.4539 449.272 29.0703 450.339 29.0703C450.88 29.0703 451.42 28.9045 451.539 28.7024C451.806 28.2473 458.137 28.5638 459.05 29.078C459.401 29.2753 460.101 29.437 460.606 29.437C461.45 29.437 464.224 30.4518 465.799 31.3372C466.161 31.5407 467.259 31.9497 468.24 32.2456C469.221 32.542 470.65 33.0822 471.418 33.4468C474.045 34.6941 474.282 34.704 474.469 33.574C474.563 33.0133 475.186 30.3264 475.855 27.6032C476.524 24.88 477.317 21.5792 477.616 20.2681C477.916 18.9569 478.486 16.9452 478.883 15.7973C479.59 13.7545 480.751 9.44248 482.173 3.58059C482.565 1.96686 483.052 0.525132 483.255 0.376962C483.754 0.0135048 486.156 0.0839222 487.531 0.502026ZM404.813 294.212C402.687 296.413 397.179 299.738 395.659 299.738C394.328 299.738 390.094 302.299 387.338 304.771C384.433 307.377 382.723 309.114 379.448 312.789C377.611 314.85 373.993 317.342 372.837 317.342C372.574 317.342 371.78 317.668 371.073 318.066C370.015 318.663 361.328 321.706 358.766 322.377C354.019 323.622 346.863 327.218 345.859 328.864C345.602 329.285 345.227 330.587 345.025 331.758C344.823 332.93 344.576 334.027 344.477 334.197C344.377 334.366 344.127 335.8 343.92 337.384C343.539 340.309 342.1 346.225 341.496 347.35C340.71 348.814 339.677 352.562 339.407 354.935C339.245 356.347 338.883 358.575 338.601 359.886C338.319 361.197 338.008 362.859 337.909 363.579L337.73 364.888L340.133 365.871C341.454 366.412 342.793 366.854 343.108 366.854C343.424 366.854 344.8 366.146 346.167 365.28C350.034 362.829 352.213 362.351 363.202 361.539C370.958 360.967 372.69 360.44 375.077 357.93C375.766 357.205 376.773 356.513 377.314 356.393C379.12 355.99 380.577 355.13 380.87 354.295C381.029 353.84 381.09 351.879 381.006 349.938C380.876 346.919 380.955 346.203 381.554 344.987C382.272 343.531 383.671 341.912 385.746 340.136C386.799 339.235 386.942 338.884 387.162 336.648C387.381 334.416 387.54 334.024 388.714 332.812C389.432 332.069 390.451 330.907 390.976 330.228C391.583 329.445 392.309 328.946 392.962 328.865C394.511 328.671 396.354 328.628 397.083 328.769C397.922 328.932 398.156 328.438 399.023 324.677C399.419 322.962 400.194 319.827 400.746 317.709C404.639 302.767 405.723 298.667 406.08 297.537C406.303 296.831 406.523 295.923 406.57 295.52C406.617 295.116 406.828 294.322 407.038 293.754C407.911 291.39 407.445 291.486 404.813 294.212ZM212.198 344.713C210.424 345.268 208.972 345.848 208.972 346.002C208.972 346.155 210.735 347.733 212.891 349.507C217.401 353.22 218.216 354.044 222.279 359.001C225.301 362.686 230.924 368.347 232.678 369.469C233.206 369.807 234.366 370.667 235.256 371.382C237.313 373.032 246.202 377.592 248.731 378.293C249.402 378.479 250.501 378.784 251.172 378.969C253.513 379.616 258.382 379.224 259.243 378.319C259.56 377.985 258.58 375.213 256.422 370.338C255.797 368.926 255.046 367.193 254.754 366.487C254.462 365.781 253.868 364.461 253.433 363.553C252.054 360.668 248.275 350.923 248.303 350.322C248.365 348.971 235.022 345.802 233.483 346.803C232.87 347.201 229.582 347.838 227.334 347.994C224.647 348.181 222.455 347.632 220.58 346.3C219.739 345.704 218.939 345.215 218.802 345.215C218.666 345.215 218.255 344.797 217.89 344.286C217.121 343.209 216.963 343.221 212.198 344.713ZM164.678 355.782C162.238 356.201 160.145 357.169 160.145 357.879C160.145 358.181 159.968 358.725 159.753 359.087C159.463 359.576 159.468 360.215 159.769 361.558C159.993 362.555 160.388 364.525 160.646 365.937C161.168 368.79 162.154 371.601 163.604 374.37C164.784 376.627 166.822 379.691 167.142 379.691C167.272 379.691 167.577 378.907 167.822 377.949C168.552 375.077 170.236 372.331 173.062 369.402C175.967 366.391 178.802 364.25 180.722 363.619C181.393 363.398 183.053 362.824 184.41 362.345C186.683 361.541 187.089 361.503 189.546 361.871C191.014 362.09 192.504 362.517 192.857 362.82C193.21 363.122 194.43 363.859 195.568 364.456C197.676 365.563 201.586 368.629 202.895 370.201C204.2 371.768 206.613 375.761 207.432 377.709C208.116 379.336 208.735 383.598 208.731 386.659C208.73 387.697 208.31 390.51 207.992 391.614C207.531 393.212 205.907 396.483 205.211 397.218C204.881 397.565 203.85 398.838 202.919 400.048C201.376 402.05 196.812 406.476 194.682 408.034C193.886 408.616 193.874 408.665 194.53 408.665C196.397 408.665 203.128 407.525 204.482 406.98C205.321 406.643 206.657 405.646 207.452 404.765L208.896 403.163L211.463 403.146C214.673 403.125 232.328 402.807 233.037 402.758C233.324 402.738 234.972 402.484 236.699 402.193C238.425 401.903 240.387 401.602 241.058 401.524C242.671 401.339 245.46 400.771 248.993 399.91C252.151 399.14 252.343 398.974 257.005 392.994C259.447 389.86 259.427 389.452 256.84 389.761C255.737 389.893 253.03 389.803 250.824 389.561C248.618 389.319 246.342 389.071 245.766 389.009C241.623 388.564 234.181 386.69 233.228 385.851C233.046 385.69 232.623 385.559 232.288 385.559C231.577 385.559 227.964 383.393 226.47 382.071C225.902 381.569 225.341 381.158 225.223 381.158C225.105 381.158 223.715 380.273 222.134 379.192C220.554 378.11 218.571 376.857 217.728 376.407C216.006 375.486 211.261 372.119 209.146 370.316C207.898 369.252 205.462 367.467 200.078 363.667C195.359 360.338 187.122 357.123 179.501 355.636C176.849 355.118 168.035 355.205 164.678 355.782ZM383.209 380.057C380.278 384.008 375.737 388.027 372.065 389.923C370.327 390.82 366.71 392.107 362.722 393.248L356.214 395.11L348.946 395.182C343.117 395.24 341.055 395.123 338.538 394.592L335.399 393.929L334.621 394.97C329.758 401.475 324.039 410.348 323.504 412.218C322.318 416.362 323.056 420.328 325.93 425.26C328.695 430.005 335.118 436.661 339.101 438.908C342.482 440.815 346.049 441.477 348.636 440.679C353.702 439.115 357.589 435.475 369.582 421.06L376.205 413.099L377.164 409.507C377.692 407.531 378.374 404.924 378.681 403.713C378.988 402.503 380.714 396.088 382.517 389.458C384.321 382.828 385.796 377.23 385.796 377.019C385.796 376.542 385.968 376.34 383.209 380.057ZM418.908 411.502C416.089 412.93 412.067 416.464 409.929 419.394C409.028 420.628 407.663 422.403 406.896 423.337C406.129 424.271 405.109 425.731 404.629 426.581C402.773 429.873 398.603 435.31 392.387 442.545C389.624 445.761 387.553 447.726 384.191 450.324C378.137 455.002 378.018 455.468 383.529 452.906C389.241 450.25 397.089 450.264 402.885 452.941C405.896 454.331 409.522 456.199 411.634 457.447C412.897 458.194 416.175 459.758 418.919 460.924C423.861 463.023 423.933 463.041 426.662 462.844C428.435 462.716 429.753 462.414 430.363 461.997C432.047 460.844 437.601 454.732 438.209 453.363C438.846 451.929 440.68 443.748 441.036 440.756C442.637 427.278 441.773 422.781 436.176 415.464C434.188 412.864 433.231 411.927 431.936 411.314C429.704 410.256 429.136 410.173 424.837 410.276C421.526 410.355 420.926 410.479 418.908 411.502Z" fill="white" fill-opacity="0.05"/>
<path fill-rule="evenodd" clip-rule="evenodd" d="M696.469 0.502026C695.413 0.823306 694.561 1.56342 695.247 1.56342C695.423 1.56342 695.84 2.92519 696.174 4.58917C696.509 6.25352 697.081 8.59124 697.445 9.7843C697.81 10.9774 698.109 12.2977 698.111 12.7184C698.112 13.139 698.347 13.9558 698.634 14.5334C698.92 15.1115 699.154 15.8541 699.154 16.1839C699.153 17.0619 700.119 21.5539 700.901 24.3024C702.218 28.9298 702.961 31.8807 704.229 37.5057C704.933 40.6323 705.716 43.5378 705.969 43.9621C706.221 44.3864 706.538 45.3767 706.674 46.1626C706.809 46.9486 707.07 47.8967 707.253 48.27C707.437 48.643 707.972 50.541 708.443 52.4877C709.516 56.9273 709.6 57.2417 711.187 62.812C712.483 67.3576 712.864 68.77 713.461 71.2474C713.632 71.9534 714.26 74.429 714.858 76.7488C716.64 83.6658 716.941 84.8893 717.476 87.38C717.757 88.6886 718.29 90.7516 718.662 91.9644C719.034 93.1773 719.523 95.1501 719.748 96.3483C719.973 97.5469 720.291 98.7847 720.454 99.099C720.616 99.4137 721.001 100.909 721.31 102.422C721.618 103.935 722.394 107.07 723.034 109.39C723.673 111.71 724.305 114.186 724.438 114.892C724.571 115.598 724.893 116.918 725.154 117.826C725.415 118.733 725.889 120.549 726.207 121.86C726.526 123.171 727.002 124.987 727.265 125.894C727.528 126.802 728.143 129.502 728.632 131.895C729.121 134.288 729.751 136.825 730.032 137.533C730.313 138.241 730.544 139.079 730.544 139.396C730.544 139.712 730.927 141.301 731.396 142.927C731.864 144.552 732.661 147.451 733.166 149.367C733.671 151.283 734.374 153.924 734.729 155.235C735.683 158.758 736.784 163.125 737.505 166.238C737.856 167.751 738.563 170.556 739.077 172.473C739.59 174.389 740.551 178.185 741.212 180.908C741.873 183.631 742.961 188.005 743.63 190.627C746.691 202.633 747.334 205.433 747.468 207.345C747.604 209.286 747.548 209.458 746.402 210.626C745.012 212.043 744.926 212.662 745.873 214.435L746.553 215.71L745.698 217.923C744.807 220.23 744.596 222.312 745.19 222.937C745.421 223.18 745.304 223.785 744.842 224.738C743.889 226.703 743.966 227.896 745.192 230.18C745.984 231.657 746.238 232.595 746.238 234.046C746.238 235.157 746.521 236.614 746.91 237.513C747.28 238.366 747.696 239.542 747.835 240.127C748.128 241.352 750.411 243.877 752.452 245.231C753.224 245.744 754.131 246.653 754.467 247.252C754.803 247.85 755.358 248.416 755.7 248.51C757.146 248.908 759.151 255.628 759.66 261.778C759.693 262.181 759.817 262.759 759.934 263.062C760.052 263.364 760.417 264.685 760.744 265.996C761.441 268.784 762.711 271.747 764.203 274.064C765.694 276.381 766.348 278.174 767.011 281.766C767.327 283.481 767.725 285.064 767.895 285.284C768.065 285.505 768.105 285.789 767.983 285.917C767.862 286.045 767.93 286.362 768.135 286.622C768.34 286.882 768.666 288.165 768.859 289.473C769.053 290.782 769.599 293.42 770.073 295.336C771.676 301.81 773.469 308.568 773.849 309.565C774.057 310.111 774.664 312.372 775.197 314.591C775.73 316.81 776.429 319.616 776.751 320.826C777.072 322.036 777.655 324.347 778.044 325.961C778.435 327.574 778.899 329.085 779.077 329.317C779.453 329.809 778.169 330.868 775.414 332.337C773.772 333.213 773.615 333.407 773.603 334.579C773.595 335.285 773.46 336.481 773.303 337.236C772.924 339.054 773.227 340.165 774.531 341.727C775.444 342.821 775.629 343.372 775.733 345.309C775.923 348.854 775.938 349.508 775.86 351.091C775.812 352.087 775.995 352.806 776.424 353.305C776.775 353.712 777.62 355.441 778.303 357.146C779.861 361.037 781.609 363.545 784.559 366.121C789.076 370.064 789.192 370.245 790.484 375.304C791.125 377.817 791.962 381.029 792.343 382.441C792.724 383.853 793.165 385.504 793.322 386.109C793.906 388.356 795.063 392.794 795.76 395.461C796.156 396.974 796.734 399.285 797.047 400.596C797.36 401.907 797.826 403.24 798.084 403.559C798.342 403.877 798.553 404.354 798.553 404.618C798.553 404.881 797.808 404.367 796.896 403.473C795.06 401.673 791.476 398.762 791.096 398.762C790.962 398.762 790.427 398.434 789.907 398.033C788.85 397.217 783.132 395.095 781.991 395.095C781.586 395.095 781.102 394.934 780.916 394.738C780.163 393.947 768.635 393.092 767.601 393.75C767.456 393.842 765.847 394.027 764.025 394.162C762.203 394.297 760.563 394.562 760.381 394.751C760.198 394.94 759.602 395.095 759.055 395.095C758.508 395.095 757.48 395.405 756.77 395.785C756.061 396.165 754.068 396.943 752.341 397.514C749.21 398.551 745.99 399.879 744.669 400.679C742.442 402.028 738.833 404.139 737.17 405.064C733.437 407.141 732.301 407.99 729.763 410.605C726.803 413.655 724.687 416.564 722.772 420.212C721.193 423.223 719.21 428.397 718.67 430.917C718.192 433.15 718.172 440.436 718.64 441.732C718.835 442.268 719.318 444.146 719.716 445.904C721.403 453.378 726.441 460.972 732.822 465.663C736.767 468.563 748.095 474.681 749.52 474.681C749.96 474.681 750.774 474.842 751.33 475.039C753.059 475.65 760.589 476.629 763.153 476.576C768.717 476.461 775.736 474.661 781.987 471.747C784.508 470.571 786.805 470.184 788.47 470.655C791.184 471.424 794.717 475.225 794.717 477.377C794.717 479.097 791.747 481.261 788.588 481.845C784.702 482.563 780.316 485.07 778.798 487.441C777.935 488.791 777.928 490.372 778.784 490.876C779.192 491.116 779.291 491.511 779.142 492.296C778.883 493.659 779.536 494.548 780.738 494.468C781.233 494.435 782.517 494.426 783.592 494.447C785.906 494.493 786.922 495.28 788.01 497.866C788.394 498.779 788.92 499.663 789.179 499.832C789.82 500.248 791.888 500.025 792.772 499.444C793.17 499.183 794.124 498.766 794.891 498.518C797.771 497.588 801.417 495.417 803.309 493.505C804.866 491.932 805.401 491.597 806.071 491.773C806.601 491.913 807.319 491.722 808.055 491.243C810.141 489.887 815.325 483.718 816.657 481.008C817.466 479.359 817.67 479.735 818.895 485.134C819.17 486.344 819.903 489.315 820.526 491.735C821.148 494.156 821.868 497.044 822.125 498.153C823.261 503.051 826.496 515.731 828.441 522.91C829.409 526.482 831.032 532.825 831.21 533.729C831.308 534.233 831.514 534.976 831.667 535.379C831.819 535.783 832.302 537.598 832.74 539.414C833.177 541.229 834.071 544.778 834.725 547.299C835.379 549.82 836.218 553.204 836.587 554.818C836.957 556.431 837.405 558.016 837.583 558.34C837.76 558.663 838.017 559.736 838.155 560.723C838.291 561.711 838.617 563.097 838.878 563.803C839.395 565.203 842.258 576.476 843.068 580.307C843.346 581.618 843.866 583.681 844.224 584.892C844.582 586.102 845.702 590.393 846.713 594.427C847.723 598.462 848.929 603.248 849.392 605.063C850.173 608.121 850.406 609.096 851.188 612.582C851.346 613.288 852.202 616.472 853.09 619.659C853.978 622.845 854.704 625.699 854.704 626C854.704 626.302 855.006 627.574 855.375 628.826C855.745 630.078 856.46 632.754 856.965 634.771C858.464 640.754 859.637 645.299 860.139 647.057C860.398 647.965 860.871 649.698 861.19 650.908C861.51 652.118 861.986 653.816 862.248 654.68C862.511 655.545 862.726 656.566 862.726 656.951C862.726 657.801 863.267 658.209 863.859 657.806C864.099 657.643 865.785 657.173 867.606 656.762C870.029 656.215 870.947 655.853 871.028 655.412C871.088 655.081 870.089 650.879 868.807 646.074C863.432 625.934 858.456 607.083 857.012 601.396C856.347 598.773 854.761 592.667 853.489 587.826C852.217 582.985 850.557 576.63 849.8 573.706C849.043 570.781 847.476 564.757 846.317 560.319C845.158 555.881 843.653 550.022 842.972 547.299C841.225 540.308 840.965 539.286 839.52 533.729C838.812 531.006 837.955 527.705 837.616 526.394C837.277 525.083 836.766 523.267 836.48 522.359C836.196 521.452 835.718 519.801 835.419 518.692C835.12 517.582 834.557 515.519 834.167 514.107C833.488 511.647 833.107 510.133 830.479 499.437C829.834 496.815 829.123 494.174 828.898 493.569C828.674 492.964 827.873 489.993 827.119 486.967C824.925 478.164 823.235 471.645 820.366 460.928C819.934 459.314 819.457 457.687 819.304 457.313C819.062 456.719 819.2 456.745 820.386 457.52C822.336 458.793 825.115 459.554 828.736 459.806C832.17 460.045 835.926 459.414 841.974 457.582C849.488 455.306 857.283 448.762 860.699 441.862C861.538 440.166 862.216 439.163 862.308 439.478C862.653 440.651 863.55 441.306 864.814 441.306C866.413 441.306 866.606 441.504 866.172 442.705C865.917 443.41 865.97 444.057 866.374 445.171C866.875 446.55 866.874 446.821 866.357 448.303C866.046 449.195 865.664 450.42 865.508 451.025C864.89 453.424 863.752 457.116 862.229 461.661C859.838 468.796 859.526 471.263 859.464 483.483C859.404 495.579 859.46 495.889 861.881 496.861C862.729 497.202 863.443 497.591 863.468 497.725C863.492 497.86 863.549 498.3 863.592 498.704C863.636 499.107 863.852 500.312 864.071 501.381C864.29 502.45 864.47 503.89 864.47 504.582C864.47 506.758 865.453 508.741 866.926 509.531C869.072 510.683 869.678 511.891 872.436 520.526C873.37 523.451 874.791 527.742 875.592 530.061C876.393 532.381 877.724 536.342 878.549 538.864C879.374 541.385 880.312 543.979 880.633 544.629C881.076 545.524 881.205 546.675 881.166 549.397C881.122 552.505 881.242 553.327 882.064 555.551C882.587 556.963 883.191 558.342 883.407 558.616C884.346 559.807 882.935 575.236 881.535 579.083C881.327 579.655 881.14 582.352 881.121 585.075C881.093 589.059 881.271 591.03 882.031 595.161C882.55 597.985 883.219 601.698 883.517 603.413C883.815 605.128 884.206 606.824 884.387 607.182C884.645 607.694 884.464 608.089 883.546 609.016C881.896 610.684 881.21 611.99 881.21 613.465C881.21 614.326 881.438 614.908 881.91 615.256C882.483 615.678 882.588 616.097 882.488 617.569C882.349 619.616 882.874 620.995 884.173 621.989C884.662 622.364 885.142 623.138 885.241 623.71C885.642 626.034 887.594 627.619 890.056 627.619C891.2 627.619 891.324 627.727 891.625 628.994C891.805 629.751 891.944 630.617 891.934 630.92C891.924 631.222 892.115 632.93 892.358 634.715C892.726 637.409 892.975 638.169 893.824 639.186C894.387 639.859 895.376 640.594 896.022 640.818C897.268 641.251 898.259 642.487 898.269 643.622C898.298 646.866 899.488 651.881 900.379 652.512C900.892 652.874 901.09 653.415 901.09 654.449C901.09 656.394 901.816 658.078 903.171 659.277C904.087 660.088 904.222 660.377 903.884 660.805C903.655 661.096 903.382 662.324 903.278 663.535C903.073 665.905 903.408 667.166 904.864 669.519C905.882 671.163 905.752 672.865 904.395 675.682C903.92 676.668 903.53 677.685 903.528 677.944C903.521 678.899 901.83 682.198 900.177 684.485C898.684 686.549 898.474 687.057 898.474 688.608C898.474 690.062 898.629 690.502 899.346 691.081C899.826 691.468 900.454 691.795 900.741 691.807C901.029 691.82 901.58 692.36 901.967 693.008C902.391 693.719 903.013 694.232 903.536 694.303C904.055 694.374 904.686 694.89 905.106 695.587C905.529 696.288 906.155 696.798 906.676 696.866C907.152 696.928 908.208 697.3 909.021 697.691C909.834 698.083 910.741 698.403 911.037 698.403C911.959 698.403 913.976 697.373 915.299 696.225C916.652 695.053 917.482 695.208 917.482 696.635C917.482 697.138 918.04 697.612 919.403 698.268L921.324 699.193L922.502 698.427C923.15 698.006 923.772 697.375 923.884 697.024C923.997 696.673 924.229 696.139 924.401 695.836C926.365 692.376 926.21 687.001 924.029 682.999C923.071 681.241 923.127 678.906 924.197 676.031C926.266 670.468 926.564 668.838 926.396 663.988L926.24 659.464L924.712 657.746C923.037 655.862 922.798 654.917 922.011 647.057C921.041 637.382 921.083 636.433 922.444 637.199C922.876 637.443 924.574 637.651 926.215 637.661C928.732 637.677 929.416 637.547 930.572 636.829L931.944 635.978L935.698 638.034C938.076 639.335 939.882 640.089 940.622 640.089C941.942 640.089 944.296 638.487 945.267 636.928C946.192 635.445 947.871 634.841 949.669 635.345C951.118 635.752 954.822 637.47 958.001 639.212C959.485 640.025 965.075 641.664 971.366 643.13C973.776 643.692 979.526 644.289 981.396 644.171C982.453 644.105 985.611 642.699 986.712 641.805C987.279 641.345 987.409 640.805 987.409 638.922V636.605L988.626 636.421C989.553 636.281 989.959 635.975 990.329 635.137C991.232 633.094 991.799 632.665 993.272 632.912C994.245 633.076 1000.02 635.793 1001.09 636.593C1001.14 636.626 1001.03 637.188 1000.85 637.842C1000.67 638.497 1000.62 640.447 1000.74 642.176L1000.95 645.319L1004.03 648.644C1005.73 650.472 1007.11 652.085 1007.11 652.228C1007.11 652.371 1007.65 653.49 1008.31 654.714C1009.83 657.54 1011.11 661.507 1011.65 665.028C1011.88 666.541 1012.23 668.234 1012.42 668.789C1012.82 669.923 1014.9 671.997 1015.64 671.997C1016.29 671.997 1017.77 673.906 1018.82 676.081C1019.57 677.626 1020.01 678.036 1022.18 679.185C1026 681.206 1027.99 680.867 1028.68 678.078C1028.95 676.991 1029.02 676.953 1030.61 677.074C1032.16 677.192 1032.34 677.103 1033.81 675.563C1034.81 674.514 1035.36 673.604 1035.36 673.026C1035.36 672.528 1035.77 671.726 1036.27 671.235C1039.59 667.976 1038.99 661.76 1035.19 660.057C1033.35 659.231 1031.51 657.254 1031.12 655.676C1030.51 653.197 1030.37 651.458 1030.79 651.458C1031.01 651.458 1031.18 651.623 1031.18 651.825C1031.18 652.027 1031.72 652.192 1032.38 652.192C1033.05 652.192 1033.98 652.379 1034.46 652.608C1035.14 652.935 1035.84 652.889 1037.7 652.398C1040.46 651.669 1040.91 651.308 1042.56 648.452C1043.42 646.959 1044.06 646.256 1044.72 646.095C1045.23 645.969 1046.28 645.245 1047.05 644.487C1048.92 642.636 1049.25 642.492 1053.64 641.576C1057.53 640.767 1058.82 640.168 1062.55 637.432C1065.25 635.449 1067.3 634.868 1069.32 635.509C1070.19 635.783 1071.24 636.2 1071.66 636.435C1072.08 636.671 1073.65 637.089 1075.15 637.364C1077.65 637.824 1078.03 637.808 1079.79 637.169C1082.87 636.055 1083.97 635.088 1089.15 628.942C1090.32 627.543 1090.4 627.513 1092.99 627.423C1098.87 627.218 1106.26 622.658 1108.4 617.91C1109.22 616.097 1110.11 615.63 1113.3 615.332C1116.73 615.011 1118.9 614.007 1122.69 610.992C1126.92 607.615 1129.15 606.125 1131.28 605.237C1138.14 602.37 1142 600.042 1143.65 597.767C1144.18 597.039 1144.82 596.445 1145.08 596.445C1145.33 596.445 1145.85 595.743 1146.22 594.886C1146.59 594.028 1147.78 591.924 1148.85 590.21C1150.28 587.921 1150.8 586.748 1150.8 585.799C1150.81 584.023 1150.32 583.32 1146.57 579.754L1145.3 578.542L1145.25 574.601C1145.17 567.415 1144.59 566.067 1138.79 559.621C1136.66 557.262 1136.4 556.665 1136.66 554.827C1136.79 553.923 1137.04 553.088 1137.22 552.971C1137.41 552.853 1137.55 552.427 1137.55 552.024C1137.55 551.62 1137.4 551.392 1137.2 551.517C1137.01 551.641 1136.86 551.578 1136.86 551.377C1136.86 550.796 1137.48 550.547 1137.65 551.056C1137.78 551.414 1137.91 551.419 1138.26 551.077C1138.62 550.723 1138.62 550.22 1138.26 548.466C1137.75 545.933 1137.95 545.077 1139.48 543.081C1141.8 540.049 1141.84 539.525 1140.21 534.351C1139.27 531.404 1139.06 530.221 1139.2 528.768L1139.37 526.925L1137.33 525.947C1136.21 525.409 1134.42 524.614 1133.37 524.182C1132.31 523.749 1130.74 523.097 1129.88 522.734C1129.02 522.37 1126.04 521.159 1123.25 520.043C1120.47 518.927 1117.1 517.495 1115.76 516.862C1114.41 516.229 1112.76 515.463 1112.09 515.159C1111.42 514.856 1110.56 514.46 1110.17 514.279C1109.79 514.098 1108.17 513.504 1106.57 512.96C1104.97 512.416 1103.44 511.739 1103.17 511.454C1102.9 511.17 1102.66 510.248 1102.63 509.405C1102.46 503.536 1101.41 500.882 1097.76 497.073C1095.02 494.205 1094.93 493.967 1095.21 489.765L1095.45 486.074L1094.35 484.993C1093.62 484.279 1092.21 483.58 1090.2 482.934C1088.53 482.397 1084.96 481.247 1082.27 480.379C1077.44 478.818 1073.43 477.67 1069.37 476.687C1068.22 476.408 1066.26 475.853 1065.01 475.453C1063.76 475.053 1061.02 474.297 1058.91 473.774C1056.8 473.25 1054.76 472.679 1054.37 472.504C1053.99 472.33 1052.79 471.913 1051.71 471.579C1048.84 470.693 1048.57 470.4 1048.97 468.629C1049.3 467.124 1049.04 465.72 1048.06 463.734C1047.79 463.199 1047.58 462.592 1047.57 462.384C1047.57 462.177 1046.63 460.792 1045.48 459.307L1043.39 456.607V453.896C1043.39 452.405 1043.17 450.646 1042.91 449.988C1042.43 448.769 1040.69 447.002 1039.4 446.405C1039 446.224 1038.44 445.916 1038.15 445.721C1037.87 445.527 1036.69 444.93 1035.54 444.396C1033.68 443.534 1032.35 443.083 1028.56 442.038C1026.51 441.47 1019.91 439.047 1018.64 438.394C1018.36 438.246 1017.74 436.477 1017.23 434.31C1016.72 432.207 1016.06 429.992 1015.75 429.386C1014.97 427.855 1012.78 425.732 1011.15 424.928C1009.51 424.121 1009.33 423.553 1009.36 419.301C1009.38 416.413 1009.44 416.189 1010.08 416.259C1010.46 416.301 1011.72 416.419 1012.87 416.522C1014.02 416.625 1016.3 416.887 1017.93 417.104C1019.56 417.322 1022.07 417.644 1023.51 417.821C1026.98 418.249 1037.44 418.079 1038.33 417.579C1038.71 417.364 1040.13 417.088 1041.47 416.966C1046.48 416.511 1050.69 415.404 1060.65 411.924C1062.38 411.32 1064.5 410.602 1065.36 410.328C1066.22 410.054 1068.57 409.162 1070.58 408.347C1072.58 407.532 1074.28 406.921 1074.34 406.99C1074.41 407.058 1074.09 407.422 1073.64 407.798C1073.18 408.173 1072.27 409.339 1071.61 410.387C1067.64 416.707 1067.56 417.07 1069.54 419.474C1070.33 420.444 1071.24 421.668 1071.54 422.195C1072.38 423.644 1075.44 426.601 1076.92 427.399C1078.72 428.363 1081.91 429.287 1084.02 429.453C1085.64 429.581 1087.89 429.099 1103.2 425.332C1106.91 424.42 1107.46 424.547 1111.77 427.324C1115.56 429.759 1119.93 433.412 1126.49 439.624C1128.21 441.255 1129.8 442.6 1130.01 442.612C1130.84 442.66 1131.14 442 1131.03 440.383C1130.92 438.925 1131.04 438.561 1131.94 437.621C1132.85 436.659 1134.07 436.26 1135.29 436.529C1135.48 436.571 1136.18 436.654 1136.86 436.712C1137.53 436.77 1139.1 437.316 1140.35 437.926C1144.22 439.813 1146.4 440.327 1149.39 440.053C1151.14 439.893 1152.34 439.576 1152.95 439.11C1153.86 438.413 1153.89 438.415 1156.26 439.356C1162.85 441.964 1164.03 442.184 1171.57 442.205L1178.55 442.223L1181.07 440.619C1183.67 438.971 1184.24 438.106 1183.76 436.53C1183.55 435.822 1183.35 435.759 1181.9 435.946C1177.31 436.539 1174.71 436.605 1172.68 436.181C1169.04 435.421 1165.32 433.786 1160.11 430.659C1158.6 429.758 1156.78 428.69 1156.06 428.286C1154.76 427.56 1152.12 425.235 1147.69 420.92C1145.45 418.734 1141.53 415.633 1141.01 415.633C1140.87 415.633 1139.68 414.985 1138.37 414.193C1137.06 413.401 1134.74 412.236 1133.22 411.603C1131.69 410.97 1130.05 410.155 1129.55 409.792C1128.53 409.036 1123.23 407.264 1120.64 406.812C1119.68 406.645 1117.72 406.238 1116.28 405.909C1114.84 405.579 1112.96 405.256 1112.09 405.189C1111.23 405.123 1109.03 404.953 1107.2 404.813C1103.76 404.547 1100.28 404.904 1095.96 405.967C1094.02 406.441 1093.41 406.464 1092.55 406.094C1091.98 405.845 1091.52 405.447 1091.52 405.209C1091.52 404.483 1096.8 401.368 1099.38 400.574C1102.28 399.681 1109.62 398.779 1114.09 398.769C1120.1 398.756 1126.39 399.712 1126.39 400.64C1126.39 401.264 1129.09 400.974 1129.93 400.26L1130.75 399.557L1130.02 398.517C1129.18 397.324 1123.45 392.642 1122.4 392.291C1122.01 392.162 1120.84 391.394 1119.8 390.584C1118.76 389.774 1116.04 388.105 1113.76 386.877C1108.62 384.103 1107.24 383.328 1106.15 382.608C1105.02 381.859 1100.99 380.099 1099.69 379.789C1098.27 379.448 1096.12 379.455 1094.54 379.804C1093.32 380.077 1093.24 380.047 1093.56 379.419C1094.18 378.193 1092.86 376.628 1090.21 375.47C1088.91 374.904 1087.7 374.302 1087.52 374.132C1087.34 373.962 1086.98 373.823 1086.72 373.823C1086.45 373.823 1085.43 373.431 1084.43 372.952C1082.19 371.874 1079.36 370.549 1078.44 370.144C1075.15 368.709 1067.18 367.135 1062.34 366.963C1058.5 366.827 1057.84 366.902 1055.36 367.76C1053.86 368.28 1052.31 368.848 1051.93 369.021C1051.55 369.194 1050.18 369.783 1048.89 370.331C1046.91 371.172 1046.41 371.573 1045.66 372.926C1045.17 373.806 1044.62 375.399 1044.43 376.467C1043.97 379.054 1042.89 382.049 1041.15 385.572C1039.99 387.917 1039.15 389.01 1036.76 391.277C1033.11 394.73 1028.61 397.896 1026.39 398.567C1020.68 400.299 1013.05 400.227 1009.38 398.407C1009 398.217 1007.66 397.624 1006.42 397.09C1001.26 394.884 997.582 392.332 996.128 389.96C994.629 387.511 994.383 386.018 995.07 383.53C996.035 380.04 998.86 378.826 1002.35 380.4C1004.12 381.197 1004.48 381.727 1004.85 384.083C1005.2 386.275 1006.71 387.843 1009.21 388.607C1013.62 389.952 1015.43 390.333 1018.43 390.554C1022.71 390.868 1025.32 390.191 1031.35 387.196C1034.03 385.868 1038.53 382.267 1038.93 381.137C1039.07 380.745 1039.32 380.424 1039.5 380.424C1039.68 380.424 1039.93 379.97 1040.05 379.416C1040.18 378.861 1040.65 377.582 1041.1 376.573C1043.61 370.903 1044.07 368.368 1043.47 363.363C1043.08 360.178 1040.68 356.293 1037.59 353.865C1036.79 353.243 1034.94 351.688 1033.46 350.41C1030.85 348.163 1026.25 345.231 1025.32 345.221C1025.06 345.218 1023.86 344.708 1022.64 344.088C1021.41 343.468 1019.43 342.72 1018.23 342.426C1017.03 342.132 1015.84 341.705 1015.58 341.476C1015.32 341.248 1014.21 341.016 1013.11 340.961C1012.02 340.906 1009.87 340.525 1008.32 340.115C1006.22 339.555 1003.93 339.321 999.141 339.178C995.63 339.073 992.613 338.893 992.437 338.778C991.868 338.408 992.747 337.253 993.762 337.036C994.297 336.921 995.394 336.157 996.202 335.337C997.563 333.956 997.815 333.846 999.62 333.846C1001.88 333.846 1003.22 333.222 1004.42 331.616C1005.13 330.655 1005.37 330.536 1005.93 330.874C1006.89 331.457 1024.15 334.053 1027.94 334.184C1028.94 334.219 1031.22 334.557 1033 334.934C1034.78 335.312 1038.36 336.065 1040.95 336.608C1044.05 337.26 1045.88 337.827 1046.33 338.275C1046.98 338.933 1046.98 338.978 1046.37 339.692C1046.02 340.097 1045.08 340.765 1044.27 341.175C1041.6 342.536 1040.48 344.496 1041.47 346.087C1041.97 346.886 1045.84 349.617 1046.47 349.617C1046.6 349.617 1047.34 349.973 1048.1 350.408C1048.86 350.843 1050.35 351.404 1051.41 351.655C1052.46 351.905 1054.9 352.526 1056.81 353.035C1058.73 353.543 1062.38 354.388 1064.91 354.91C1070.76 356.116 1071.43 356.376 1071.15 357.325C1071.03 357.725 1070.85 358.368 1070.73 358.754C1070.48 359.591 1071.51 360.287 1073.05 360.334C1073.62 360.35 1074.08 360.53 1074.08 360.732C1074.08 360.934 1074.36 360.828 1074.71 360.495C1075.56 359.688 1080.39 359.181 1087.42 359.161C1089.1 359.156 1090.47 359.006 1090.47 358.827C1090.47 358.357 1088.19 358.078 1082.53 357.858C1079.8 357.752 1077.17 357.508 1076.69 357.318C1075.92 357.007 1075.87 356.878 1076.23 356.045C1076.76 354.829 1076.2 353.509 1074.85 352.775C1073.98 352.304 1069.91 351.38 1066.58 350.898C1064.14 350.546 1063.2 350.366 1062.05 350.031C1061.37 349.836 1060.82 349.729 1060.82 349.794C1060.82 349.859 1059.77 349.512 1058.47 349.023C1057.18 348.534 1055.17 347.786 1054.02 347.362C1052.09 346.65 1050.36 345.452 1050.36 344.827C1050.36 344.684 1050.64 344.473 1050.97 344.358C1052.12 343.964 1054.72 342.216 1055.89 341.055C1057.01 339.943 1057.05 339.813 1056.88 337.75C1056.52 333.431 1053.84 331.949 1040.07 328.466C1038.15 327.981 1035.64 327.416 1034.49 327.211C1031.83 326.736 1026.98 325.192 1024.73 324.1C1023.77 323.635 1021.96 322.816 1020.72 322.279C1018.13 321.168 1016.18 319.75 1016.18 318.983C1016.18 318.234 1017.79 317.467 1020.38 316.975C1021.62 316.74 1022.91 316.288 1023.25 315.971C1024.73 314.568 1023.4 311.629 1020.42 309.719C1018.6 308.551 1014.81 306.992 1013.64 306.93C1013.22 306.908 1012.88 306.724 1012.88 306.523C1012.91 305.892 1013.84 304.139 1014.15 304.139C1014.31 304.139 1014.44 303.809 1014.44 303.405C1014.44 302.489 1014.77 302.489 1016.82 303.4C1017.71 303.801 1019.86 304.549 1021.59 305.063C1025.09 306.106 1031.53 309.178 1031.53 309.806C1031.53 310.03 1030.88 310.455 1030.08 310.752C1028.19 311.452 1027.79 312.145 1028.38 313.652C1029.54 316.591 1035.08 317.578 1049.32 317.381C1057.28 317.272 1057.54 317.291 1058.47 318.066C1059.61 319.009 1059.67 319.656 1058.75 320.889C1057.98 321.92 1058.18 322.541 1059.68 323.721C1060.47 324.342 1061.16 324.409 1066.26 324.355L1071.96 324.295L1072.56 325.25C1073.05 326.051 1073.08 326.399 1072.74 327.393C1072.19 328.999 1072.16 328.924 1073.72 329.582C1074.86 330.06 1076.03 330.128 1080.26 329.958C1083.09 329.844 1085.88 329.741 1086.46 329.729C1087.03 329.717 1088.24 330.014 1089.14 330.391C1091.22 331.259 1091.64 330.846 1090.14 329.405C1088.65 327.976 1087.46 327.505 1086.04 327.785C1085.32 327.925 1084.53 327.799 1083.87 327.442C1083.3 327.132 1081.97 326.878 1080.92 326.878C1079.86 326.878 1078.9 326.71 1078.78 326.505C1078.66 326.3 1078.43 326.22 1078.26 326.327C1077.55 326.788 1077.56 325.648 1078.27 324.854C1079.46 323.518 1079 321.658 1077.16 320.377C1075.88 319.483 1075.33 319.367 1071.22 319.132C1067.66 318.927 1066.56 318.737 1066.03 318.234C1065.66 317.882 1065.36 317.485 1065.36 317.351C1065.36 317.217 1065.92 316.412 1066.62 315.562C1067.76 314.155 1067.84 313.924 1067.47 312.996C1066.74 311.129 1064.98 310.8 1055.94 310.827C1053.74 310.834 1051.46 310.837 1050.88 310.833C1048.68 310.82 1045.59 310.399 1044.14 309.915L1042.62 309.41L1043.61 308.173C1044.59 306.953 1044.72 305.885 1044.02 304.977C1043.26 304.007 1039.89 301.932 1037.09 300.715C1035.4 299.979 1033.87 299.05 1033.5 298.534C1032.88 297.674 1032.88 297.582 1033.46 296.394C1033.8 295.712 1034.98 294.207 1036.09 293.051C1037.8 291.277 1038.08 290.792 1037.94 289.942C1037.72 288.656 1037.58 288.534 1036.98 289.059C1036.6 289.394 1036.45 289.359 1036.28 288.898C1035.96 288.02 1036.03 287.743 1036.41 288.368C1036.68 288.804 1036.75 288.727 1036.75 287.998C1036.76 287.286 1036.23 286.655 1034.41 285.219C1029.72 281.525 1023.08 277.759 1020.28 277.218C1018.59 276.892 1018.59 276.279 1020.28 276.218C1021 276.192 1021.9 276.125 1022.29 276.069C1023.02 275.962 1024.95 275.776 1031.37 275.197C1035.38 274.835 1036.74 274.428 1038.07 273.197C1039.16 272.182 1039.07 269.663 1037.94 269.663C1036.84 269.663 1037.57 269.038 1039.17 268.606C1040.11 268.352 1041.61 267.661 1042.5 267.07C1043.38 266.479 1044.25 265.996 1044.41 265.996C1044.58 265.996 1044.82 265.348 1044.95 264.557C1045.08 263.766 1045.38 263.038 1045.63 262.939C1045.88 262.839 1047.55 262.646 1049.35 262.509C1054.01 262.154 1057.78 261.113 1059.98 259.575C1062.36 257.911 1064.24 255.588 1064.39 254.125C1064.51 252.883 1063.68 250.736 1062.35 248.874C1061.4 247.535 1061.18 246.167 1062.04 246.916C1062.45 247.275 1063.23 247.177 1065.96 246.427C1067.83 245.911 1069.8 245.411 1070.32 245.315C1072.1 244.992 1077.38 242.425 1079.83 240.695C1081.83 239.284 1082.65 238.931 1084.37 238.742C1087.14 238.435 1091 237.353 1092.76 236.387C1093.54 235.959 1094.99 234.931 1095.99 234.105C1097.69 232.688 1097.95 232.594 1100.5 232.46C1101.98 232.381 1103.44 232.242 1103.72 232.149C1104.01 232.056 1104.76 231.856 1105.38 231.704C1106.01 231.552 1107.15 230.789 1107.91 230.007C1109.06 228.838 1109.3 228.339 1109.3 227.183C1109.3 225.851 1109.4 225.732 1111.1 224.895C1113.56 223.684 1116.96 221.112 1117.73 219.883C1118.2 219.14 1118.37 218.166 1118.37 216.251C1118.37 213.846 1118.3 213.584 1117.48 213.019C1116.99 212.68 1115.93 212.278 1115.12 212.125C1113.68 211.85 1113.58 211.714 1113.99 210.605C1114.11 210.297 1113.77 209.148 1113.23 208.052C1112.49 206.525 1111.91 205.864 1110.75 205.229C1108.44 203.969 1106.6 203.787 1099.19 204.088C1095.45 204.24 1087.68 204.535 1081.92 204.744C1076.17 204.953 1069.26 205.287 1066.58 205.485C1063.89 205.683 1060.44 205.924 1058.91 206.02C1057.37 206.115 1055.25 206.271 1054.2 206.365C1053.14 206.459 1051.02 206.637 1049.49 206.76C1046.53 206.997 1042.82 207.469 1039.38 208.048C1038.22 208.241 1036.5 208.483 1035.54 208.585C1033.68 208.783 1031.19 209.264 1028.91 209.864C1028.15 210.066 1026.89 210.239 1026.12 210.249C1025.36 210.258 1023.79 210.598 1022.63 211.004C1021.48 211.41 1018.42 212.154 1015.83 212.658C1013.25 213.162 1010.26 213.833 1009.21 214.151C1008.15 214.468 1006.27 215.027 1005.02 215.395C1002.46 216.149 997.529 217.811 996.477 218.275C996.094 218.444 995.186 218.853 994.46 219.183C993.734 219.514 992.95 219.79 992.716 219.797C992.483 219.804 991.664 220.128 990.897 220.518C990.13 220.908 989.294 221.232 989.039 221.239C988.422 221.255 982.357 224.434 981.64 225.117C981.33 225.411 980.917 225.652 980.721 225.652C980.525 225.652 979.752 226.109 979.004 226.668C978.256 227.227 977.252 227.886 976.772 228.133C971.402 230.898 961.326 239.382 957.504 244.357C956.019 246.291 953.754 249.74 953.754 250.069C953.754 250.195 953.502 250.9 953.195 251.637C952.888 252.373 952.503 253.306 952.341 253.709C951.897 254.811 950.926 258.907 950.482 261.553C950.176 263.374 949.927 263.959 949.363 264.178C948.964 264.333 947.835 265.421 946.856 266.596L945.075 268.731L944.149 267.822C943.314 267.001 943.239 266.716 943.385 264.896C943.605 262.144 943.271 261.421 941.447 260.688C940.151 260.168 939.665 260.139 938.376 260.504C937.534 260.742 936.398 261.272 935.851 261.682C934.752 262.504 931.781 263.033 931.781 262.406C931.781 262.194 932.309 261.678 932.954 261.259C933.598 260.84 934.533 259.878 935.032 259.121C935.856 257.869 935.904 257.604 935.567 256.206C935.107 254.308 934.641 253.863 931.781 252.59C929.462 251.558 927.04 251.271 924.893 251.775C924.27 251.921 923.763 251.921 923.767 251.775C923.771 251.628 924.791 250.718 926.034 249.751C927.876 248.319 928.294 247.804 928.294 246.97C928.294 246.407 928.202 245.85 928.09 245.732C927.978 245.615 927.132 245.917 926.208 246.405C925.286 246.892 924.22 247.291 923.84 247.291C923.461 247.291 922.542 247.513 921.798 247.785C918.905 248.842 916.095 248.22 914.237 246.112C913.344 245.098 913.107 245.016 911.53 245.176C910.556 245.274 909.498 245.639 909.106 246.013C908.723 246.377 908.295 246.554 908.154 246.407C907.891 246.13 910.157 243.774 913.052 241.313C913.954 240.546 914.692 239.763 914.692 239.571C914.692 238.945 912.332 239.204 909.561 240.135C906.268 241.24 905.444 241.267 903.482 240.331C900.74 239.022 898.905 239.35 894.812 241.879C892.668 243.204 890.169 243.763 888.689 243.25C888.057 243.031 886.783 242.022 885.858 241.009C880.773 235.441 874.054 235.633 868.403 241.51C867.209 242.75 866.153 243.683 866.057 243.581C865.754 243.263 867.857 239.082 868.776 238.175C869.841 237.122 869.624 236.288 868.285 236.288C866.956 236.288 865.758 236.869 863.204 238.749C860.611 240.659 858.398 243.419 856.189 247.499C855.276 249.184 854.324 250.65 854.073 250.757C853.39 251.049 850.442 250.266 849.753 249.61C849.421 249.294 848.894 249.139 848.581 249.265C848.113 249.454 848.055 249.819 848.252 251.327C848.541 253.534 848.153 253.679 846.785 251.876C844.647 249.058 843.385 250.969 843.376 257.038C843.369 261.092 843.692 262.458 845.144 264.529C845.357 264.831 845.632 265.379 845.756 265.745C845.943 266.298 845.849 266.369 845.198 266.162C844.768 266.025 843.607 265.356 842.618 264.675C841.028 263.579 840.751 263.192 840.214 261.324C839.263 258.011 838.951 257.657 836.542 257.159C834.206 256.676 833.809 256.221 834.596 254.931C835.286 253.801 838.845 244.942 839.36 243.073C840.521 238.853 840.778 235.777 840.291 231.887C840.027 229.776 839.221 226.874 838.661 226.019C838.331 225.515 837.867 224.239 837.63 223.184C836.755 219.283 832.59 210.333 829.374 205.441C828.763 204.512 827.931 203.068 827.526 202.232C827.12 201.397 826.669 200.713 826.522 200.713C826.376 200.713 825.959 200.177 825.596 199.521C825.027 198.493 823.234 195.814 822.345 194.661C822.189 194.46 821.056 192.892 819.826 191.177C818.596 189.463 816.947 187.235 816.161 186.226C805.173 172.131 800.142 166.595 793.403 161.184C787.585 156.511 785.742 154.98 782.477 152.1C777.844 148.014 771.069 142.653 768.142 140.755C765.485 139.033 765.431 139.017 762.91 139.155C758.651 139.388 756.909 141.363 757.017 145.837C757.07 148.053 757.207 148.583 757.936 149.383C758.9 150.44 758.991 150.928 758.358 151.633C757.298 152.811 756.618 155.157 756.493 158.066C756.365 161.027 756.389 161.134 757.907 164.21C759.654 167.752 762.374 172.082 764.68 174.99C766.03 176.693 766.162 177.002 765.663 177.295C765.346 177.482 764.595 178.387 763.992 179.307C762.962 180.883 762.899 181.171 762.919 184.225C762.937 186.915 763.093 187.808 763.833 189.455C764.828 191.665 767.424 195.415 769.393 197.483L770.682 198.837L769.882 199.799C768.832 201.061 768.634 201.852 768.599 204.931C768.573 207.239 768.701 207.747 769.873 209.969C771.798 213.622 774.879 217.498 780.57 223.423C783.363 226.332 785.649 228.835 785.649 228.986C785.649 229.137 785.024 229.943 784.262 230.778C783.45 231.667 782.711 232.934 782.479 233.834C781.914 236.03 782.273 239.103 783.323 241.056C783.811 241.964 784.519 243.29 784.898 244.004C785.958 246.001 795.244 255.651 798.476 258.114C805.283 263.303 806.417 264.133 806.716 264.147C806.89 264.155 807.596 264.615 808.286 265.169C810.423 266.886 812.821 268.563 813.139 268.563C813.305 268.563 813.713 268.878 814.045 269.264C814.376 269.649 815.01 270.06 815.454 270.177C816.103 270.348 816.308 270.727 816.507 272.124C816.884 274.766 818.135 276.894 821.206 280.116L824.003 283.05L821.828 283.265C820.632 283.383 819.158 283.682 818.553 283.93C817.575 284.331 817.255 284.276 815.687 283.441C814.716 282.923 813.744 282.5 813.528 282.5C813.312 282.5 812.718 282.2 812.208 281.832C811.699 281.465 810.498 280.866 809.539 280.501C805.322 278.896 804.482 278.405 804.482 277.542C804.482 276.44 803.221 272.157 802.203 269.798C801.756 268.763 801.283 267.315 801.152 266.581C800.88 265.054 799.633 263.826 796.416 261.915C795.271 261.235 793.809 260.256 793.169 259.741C792.528 259.227 790.926 258.333 789.611 257.757C788.295 257.18 786.983 256.523 786.695 256.295C786.407 256.067 785.622 255.62 784.951 255.302C782.355 254.07 780.234 251.861 778.09 248.154C773.078 239.489 771.839 236.579 771.711 233.168C771.575 229.535 771.631 229.248 773.07 226.203C773.833 224.589 774.559 222.819 774.682 222.269C774.994 220.889 773.839 218.513 771.865 216.476C770.405 214.969 770.098 214.818 768.142 214.65C766.024 214.467 766.007 214.457 765.537 213.023C765.277 212.23 764.811 211.288 764.503 210.93C763.887 210.213 755.833 205.848 755.128 205.848C754.886 205.848 754.465 205.476 754.193 205.022C753.636 204.097 751.47 195.972 751.47 194.811C751.47 194.4 751.315 193.76 751.127 193.389C750.938 193.018 750.232 190.512 749.559 187.82C748.248 182.582 746.279 175.006 745.142 170.822C744.758 169.41 744.242 167.347 743.996 166.238C743.749 165.128 743.339 163.478 743.086 162.57C742.547 160.644 742.611 160.896 742.26 159.269C742.108 158.563 741.776 157.243 741.521 156.335C741.266 155.427 740.643 153.117 740.135 151.201C739.628 149.284 738.828 146.396 738.358 144.782C737.888 143.169 737.183 140.61 736.791 139.098C736.4 137.585 735.695 134.862 735.224 133.046C734.753 131.231 734.072 128.425 733.711 126.811C733.349 125.197 732.895 123.3 732.702 122.593C732.128 120.5 730.837 115.485 730.718 114.892C730.4 113.288 730.072 112.101 729.86 111.774C729.728 111.572 729.425 110.252 729.185 108.84C728.946 107.428 728.606 105.943 728.43 105.539C728.254 105.136 727.551 102.578 726.868 99.8545C726.184 97.1313 725.486 94.4082 725.316 93.803C724.75 91.784 723.548 87.2377 722.697 83.9006C722.234 82.0851 721.289 78.4542 720.597 75.8319C719.049 69.9707 719.056 70.025 719.887 69.8453C720.261 69.765 721.124 69.3359 721.806 68.8921C722.488 68.4479 723.594 67.8696 724.266 67.6059C724.937 67.3425 725.981 66.8988 726.586 66.62C727.19 66.3409 727.926 66.1128 728.222 66.1128C728.517 66.1128 728.856 65.9478 728.974 65.746C729.093 65.5443 730.225 65.3793 731.491 65.3793C733.419 65.3793 733.98 65.5304 734.958 66.3149C735.599 66.8294 736.124 67.4944 736.124 67.7922C736.124 68.0904 735.653 69.315 735.078 70.5139C733.944 72.8743 733.799 73.7909 734.45 74.4749C735.671 75.7585 740.118 73.8844 744.893 70.0738C746.359 68.9038 747.652 67.9466 747.765 67.9466C747.879 67.9466 749.269 66.953 750.854 65.7383C753.976 63.3467 758.729 59.9718 763.153 57.0055C764.688 55.9767 766.586 54.6344 767.373 54.0223C768.159 53.4101 768.921 52.9095 769.066 52.9095C769.212 52.9095 769.925 52.4144 770.652 51.8092C771.378 51.2041 772.078 50.709 772.208 50.709C772.337 50.709 772.942 50.3371 773.552 49.8827C776.523 47.6722 783.067 44.1161 788.264 41.8877C788.648 41.723 789.511 41.4172 790.183 41.2077C790.854 40.9987 792.423 40.508 793.67 40.1177C797.517 38.9137 799.121 38.6063 801.585 38.6008C804.181 38.5953 805.528 38.332 805.528 37.8295C805.528 37.6517 805.192 37.5057 804.782 37.5057C804.372 37.5057 803.271 37.0106 802.336 36.4054C801.4 35.8003 800.55 35.3051 800.447 35.3051C800.343 35.3051 799.6 34.9901 798.795 34.605C795.765 33.1545 789.785 32.0043 785.275 32.0043C783.946 32.0043 782.863 31.8804 782.869 31.7293C782.896 30.9968 795.067 24.8683 798.066 24.0769C798.529 23.9544 798.994 23.7075 799.1 23.5282C799.205 23.3488 799.669 23.2021 800.131 23.2021C800.609 23.2021 801.128 22.8911 801.337 22.4796C801.657 21.8525 801.53 21.6632 800.379 21.046C798.976 20.293 797.329 19.9941 792.798 19.6695C788.273 19.3457 781.981 20.5607 776.329 22.85C770.829 25.0777 769.339 25.7988 767.08 27.3282C765.962 28.0844 764.974 28.7035 764.885 28.7035C764.796 28.7035 763.271 29.7557 761.497 31.0419C759.722 32.3282 757.568 33.7534 756.709 34.2096C755.85 34.6655 753.931 35.9143 752.444 36.9849C750.168 38.6243 744.969 41.54 744.322 41.54C744.217 41.54 743.526 41.9611 742.786 42.4756C741.587 43.3096 735.59 45.2076 734.152 45.2076C733.428 45.2076 733.707 43.6144 734.894 40.9759C736.139 38.2088 736.51 35.2208 735.891 32.9341C734.95 29.4539 734.728 29.0703 733.661 29.0703C733.12 29.0703 732.58 28.9045 732.461 28.7024C732.194 28.2473 725.863 28.5638 724.95 29.078C724.599 29.2753 723.899 29.437 723.394 29.437C722.55 29.437 719.776 30.4518 718.201 31.3372C717.839 31.5407 716.741 31.9497 715.76 32.2456C714.779 32.542 713.35 33.0822 712.582 33.4468C709.955 34.6941 709.718 34.704 709.531 33.574C709.437 33.0133 708.814 30.3264 708.145 27.6032C707.476 24.88 706.683 21.5792 706.384 20.2681C706.084 18.9569 705.514 16.9452 705.117 15.7973C704.41 13.7545 703.249 9.44248 701.827 3.58059C701.435 1.96686 700.948 0.525132 700.745 0.376962C700.246 0.0135048 697.844 0.0839222 696.469 0.502026ZM779.187 294.212C781.313 296.413 786.821 299.738 788.341 299.738C789.672 299.738 793.906 302.299 796.662 304.771C799.567 307.377 801.277 309.114 804.552 312.789C806.389 314.85 810.007 317.342 811.163 317.342C811.426 317.342 812.22 317.668 812.927 318.066C813.985 318.663 822.672 321.706 825.234 322.377C829.981 323.622 837.137 327.218 838.141 328.864C838.398 329.285 838.773 330.587 838.975 331.758C839.177 332.93 839.424 334.027 839.523 334.197C839.623 334.366 839.873 335.8 840.08 337.384C840.461 340.309 841.9 346.225 842.504 347.35C843.29 348.814 844.323 352.562 844.593 354.935C844.755 356.347 845.117 358.575 845.399 359.886C845.681 361.197 845.992 362.859 846.091 363.579L846.27 364.888L843.867 365.871C842.546 366.412 841.207 366.854 840.892 366.854C840.576 366.854 839.2 366.146 837.833 365.28C833.966 362.829 831.787 362.351 820.798 361.539C813.042 360.967 811.31 360.44 808.923 357.93C808.234 357.205 807.227 356.513 806.686 356.393C804.88 355.99 803.423 355.13 803.13 354.295C802.971 353.84 802.91 351.879 802.994 349.938C803.124 346.919 803.045 346.203 802.446 344.987C801.728 343.531 800.329 341.912 798.254 340.136C797.201 339.235 797.058 338.884 796.838 336.648C796.619 334.416 796.46 334.024 795.286 332.812C794.568 332.069 793.549 330.907 793.024 330.228C792.417 329.445 791.691 328.946 791.038 328.865C789.489 328.671 787.646 328.628 786.917 328.769C786.078 328.932 785.844 328.438 784.977 324.677C784.581 322.962 783.806 319.827 783.254 317.709C779.361 302.767 778.277 298.667 777.92 297.537C777.697 296.831 777.477 295.923 777.43 295.52C777.383 295.116 777.172 294.322 776.962 293.754C776.089 291.39 776.555 291.486 779.187 294.212ZM971.802 344.713C973.576 345.268 975.028 345.848 975.028 346.002C975.028 346.155 973.265 347.733 971.109 349.507C966.599 353.22 965.784 354.044 961.721 359.001C958.699 362.686 953.076 368.347 951.322 369.469C950.794 369.807 949.634 370.667 948.744 371.382C946.687 373.032 937.798 377.592 935.269 378.293C934.598 378.479 933.499 378.784 932.828 378.969C930.487 379.616 925.618 379.224 924.757 378.319C924.44 377.985 925.42 375.213 927.578 370.338C928.203 368.926 928.954 367.193 929.246 366.487C929.538 365.781 930.132 364.461 930.567 363.553C931.946 360.668 935.725 350.923 935.697 350.322C935.635 348.971 948.978 345.802 950.517 346.803C951.13 347.201 954.418 347.838 956.666 347.994C959.353 348.181 961.545 347.632 963.42 346.3C964.261 345.704 965.061 345.215 965.198 345.215C965.334 345.215 965.745 344.797 966.11 344.286C966.879 343.209 967.037 343.221 971.802 344.713ZM1019.32 355.782C1021.76 356.201 1023.86 357.169 1023.86 357.879C1023.86 358.181 1024.03 358.725 1024.25 359.087C1024.54 359.576 1024.53 360.215 1024.23 361.558C1024.01 362.555 1023.61 364.525 1023.35 365.937C1022.83 368.79 1021.85 371.601 1020.4 374.37C1019.22 376.627 1017.18 379.691 1016.86 379.691C1016.73 379.691 1016.42 378.907 1016.18 377.949C1015.45 375.077 1013.76 372.331 1010.94 369.402C1008.03 366.391 1005.2 364.25 1003.28 363.619C1002.61 363.398 1000.95 362.824 999.59 362.345C997.317 361.541 996.911 361.503 994.454 361.871C992.986 362.09 991.496 362.517 991.143 362.82C990.79 363.122 989.57 363.859 988.432 364.456C986.324 365.563 982.414 368.629 981.105 370.201C979.8 371.768 977.387 375.761 976.568 377.709C975.884 379.336 975.265 383.598 975.269 386.659C975.27 387.697 975.69 390.51 976.008 391.614C976.469 393.212 978.093 396.483 978.789 397.218C979.119 397.565 980.15 398.838 981.081 400.048C982.624 402.05 987.188 406.476 989.318 408.034C990.114 408.616 990.126 408.665 989.47 408.665C987.603 408.665 980.872 407.525 979.518 406.98C978.679 406.643 977.343 405.646 976.548 404.765L975.104 403.163L972.537 403.146C969.327 403.125 951.672 402.807 950.963 402.758C950.676 402.738 949.028 402.484 947.301 402.193C945.575 401.903 943.613 401.602 942.942 401.524C941.329 401.339 938.54 400.771 935.007 399.91C931.849 399.14 931.657 398.974 926.995 392.994C924.553 389.86 924.573 389.452 927.16 389.761C928.263 389.893 930.97 389.803 933.176 389.561C935.382 389.319 937.658 389.071 938.234 389.009C942.377 388.564 949.819 386.69 950.772 385.851C950.954 385.69 951.377 385.559 951.712 385.559C952.423 385.559 956.036 383.393 957.53 382.071C958.098 381.569 958.659 381.158 958.777 381.158C958.895 381.158 960.285 380.273 961.866 379.192C963.446 378.11 965.429 376.857 966.272 376.407C967.994 375.486 972.739 372.119 974.854 370.316C976.102 369.252 978.538 367.467 983.922 363.667C988.641 360.338 996.878 357.123 1004.5 355.636C1007.15 355.118 1015.96 355.205 1019.32 355.782ZM800.791 380.057C803.722 384.008 808.263 388.027 811.935 389.923C813.673 390.82 817.29 392.107 821.278 393.248L827.786 395.11L835.054 395.182C840.883 395.24 842.945 395.123 845.462 394.592L848.601 393.929L849.379 394.97C854.242 401.475 859.961 410.348 860.496 412.218C861.682 416.362 860.944 420.328 858.07 425.26C855.305 430.005 848.882 436.661 844.899 438.908C841.518 440.815 837.951 441.477 835.364 440.679C830.298 439.115 826.411 435.475 814.418 421.06L807.795 413.099L806.836 409.507C806.308 407.531 805.626 404.924 805.319 403.713C805.012 402.503 803.286 396.088 801.483 389.458C799.679 382.828 798.204 377.23 798.204 377.019C798.204 376.542 798.032 376.34 800.791 380.057ZM765.092 411.502C767.911 412.93 771.933 416.464 774.071 419.394C774.972 420.628 776.337 422.403 777.104 423.337C777.871 424.271 778.891 425.731 779.371 426.581C781.227 429.873 785.397 435.31 791.613 442.545C794.376 445.761 796.447 447.726 799.809 450.324C805.863 455.002 805.982 455.468 800.471 452.906C794.759 450.25 786.911 450.264 781.115 452.941C778.104 454.331 774.478 456.199 772.366 457.447C771.103 458.194 767.825 459.758 765.081 460.924C760.139 463.023 760.067 463.041 757.338 462.844C755.565 462.716 754.247 462.414 753.637 461.997C751.953 460.844 746.399 454.732 745.791 453.363C745.154 451.929 743.32 443.748 742.964 440.756C741.363 427.278 742.227 422.781 747.824 415.464C749.812 412.864 750.769 411.927 752.064 411.314C754.296 410.256 754.864 410.173 759.163 410.276C762.474 410.355 763.074 410.479 765.092 411.502Z" fill="white" fill-opacity="0.05"/>
</svg>
