<svg width="1184" height="700" viewBox="0 0 1184 700" fill="none" xmlns="http://www.w3.org/2000/svg">
<rect width="912" height="463" transform="translate(136 218)" fill="#1B2C8C"/>
<path fill-rule="evenodd" clip-rule="evenodd" d="M487.531 0.842114C488.587 1.16339 489.439 1.90351 488.753 1.90351C488.577 1.90351 488.16 3.26528 487.826 4.92926C487.491 6.59361 486.919 8.93132 486.555 10.1244C486.19 11.3175 485.891 12.6378 485.889 13.0584C485.888 13.4791 485.653 14.2959 485.366 14.8735C485.08 15.4515 484.846 16.1942 484.846 16.5239C484.847 17.402 483.881 21.894 483.099 24.6425C481.782 29.2699 481.039 32.2208 479.771 37.8458C479.067 40.9724 478.284 43.8778 478.031 44.3022C477.779 44.7265 477.462 45.7168 477.326 46.5027C477.191 47.2887 476.93 48.2368 476.747 48.6101C476.563 48.9831 476.028 50.8811 475.557 52.8278C474.484 57.2674 474.4 57.5817 472.813 63.1521C471.517 67.6977 471.136 69.11 470.539 71.5875C470.368 72.2935 469.74 74.7691 469.142 77.0889C467.36 84.0059 467.059 85.2294 466.524 87.7201C466.243 89.0287 465.71 91.0917 465.338 92.3045C464.966 93.5174 464.477 95.4902 464.252 96.6884C464.027 97.887 463.709 99.1248 463.546 99.4391C463.384 99.7538 462.999 101.249 462.69 102.762C462.382 104.275 461.606 107.411 460.966 109.73C460.327 112.05 459.695 114.526 459.562 115.232C459.429 115.938 459.107 117.258 458.846 118.166C458.585 119.073 458.111 120.889 457.793 122.2C457.474 123.511 456.998 125.327 456.735 126.234C456.472 127.142 455.857 129.843 455.368 132.235C454.879 134.628 454.249 137.165 453.968 137.873C453.687 138.581 453.456 139.419 453.456 139.736C453.456 140.052 453.073 141.641 452.604 143.267C452.136 144.892 451.339 147.791 450.834 149.707C450.329 151.623 449.626 154.264 449.271 155.575C448.317 159.098 447.216 163.465 446.495 166.578C446.144 168.091 445.437 170.896 444.923 172.813C444.41 174.729 443.449 178.525 442.788 181.248C442.127 183.971 441.039 188.345 440.37 190.967C437.309 202.973 436.666 205.773 436.532 207.685C436.396 209.626 436.452 209.798 437.598 210.966C438.988 212.383 439.074 213.002 438.127 214.775L437.447 216.05L438.302 218.263C439.193 220.57 439.404 222.652 438.81 223.277C438.579 223.52 438.696 224.125 439.158 225.079C440.111 227.043 440.034 228.236 438.808 230.521C438.016 231.997 437.762 232.935 437.762 234.386C437.762 235.497 437.479 236.954 437.09 237.853C436.72 238.707 436.304 239.882 436.165 240.467C435.872 241.692 433.589 244.217 431.548 245.571C430.776 246.084 429.869 246.993 429.533 247.592C429.197 248.19 428.642 248.756 428.3 248.85C426.854 249.248 424.849 255.968 424.34 262.118C424.307 262.522 424.183 263.099 424.066 263.402C423.948 263.704 423.583 265.025 423.256 266.336C422.559 269.124 421.289 272.087 419.797 274.405C418.306 276.721 417.652 278.514 416.989 282.106C416.673 283.821 416.275 285.404 416.105 285.624C415.935 285.845 415.895 286.129 416.017 286.257C416.138 286.385 416.07 286.702 415.865 286.962C415.66 287.222 415.334 288.505 415.141 289.813C414.947 291.122 414.401 293.76 413.927 295.676C412.324 302.15 410.531 308.908 410.151 309.905C409.943 310.451 409.336 312.712 408.803 314.931C408.27 317.15 407.571 319.956 407.249 321.166C406.928 322.376 406.345 324.687 405.956 326.301C405.565 327.915 405.101 329.425 404.923 329.657C404.547 330.15 405.831 331.208 408.586 332.677C410.228 333.553 410.385 333.747 410.397 334.92C410.405 335.626 410.54 336.821 410.697 337.576C411.076 339.394 410.773 340.505 409.469 342.067C408.556 343.161 408.371 343.712 408.267 345.649C408.077 349.195 408.062 349.848 408.14 351.431C408.188 352.427 408.005 353.146 407.576 353.645C407.225 354.052 406.38 355.781 405.697 357.487C404.139 361.377 402.391 363.885 399.441 366.461C394.924 370.404 394.808 370.585 393.516 375.644C392.875 378.157 392.038 381.369 391.657 382.781C391.276 384.194 390.835 385.844 390.678 386.449C390.094 388.696 388.937 393.134 388.24 395.801C387.844 397.314 387.266 399.625 386.953 400.936C386.64 402.247 386.174 403.58 385.916 403.899C385.658 404.217 385.447 404.694 385.447 404.958C385.447 405.222 386.192 404.707 387.104 403.814C388.94 402.013 392.524 399.102 392.904 399.102C393.038 399.102 393.573 398.774 394.093 398.373C395.15 397.557 400.868 395.435 402.009 395.435C402.414 395.435 402.898 395.274 403.084 395.079C403.837 394.287 415.365 393.432 416.399 394.09C416.544 394.182 418.153 394.367 419.975 394.502C421.797 394.637 423.437 394.902 423.619 395.091C423.802 395.28 424.398 395.435 424.945 395.435C425.492 395.435 426.52 395.745 427.23 396.125C427.939 396.505 429.932 397.283 431.659 397.854C434.79 398.891 438.01 400.219 439.331 401.019C441.558 402.368 445.167 404.479 446.83 405.404C450.563 407.481 451.699 408.331 454.237 410.946C457.197 413.995 459.313 416.904 461.228 420.552C462.807 423.563 464.79 428.737 465.33 431.257C465.808 433.49 465.828 440.776 465.36 442.072C465.165 442.609 464.682 444.486 464.284 446.245C462.597 453.718 457.559 461.312 451.178 466.003C447.233 468.903 435.905 475.021 434.48 475.021C434.04 475.021 433.226 475.182 432.67 475.379C430.941 475.99 423.411 476.969 420.847 476.916C415.283 476.801 408.264 475.001 402.013 472.087C399.492 470.911 397.195 470.524 395.53 470.996C392.816 471.764 389.283 475.565 389.283 477.717C389.283 479.437 392.253 481.601 395.412 482.185C399.298 482.903 403.684 485.41 405.202 487.781C406.065 489.131 406.072 490.712 405.216 491.216C404.808 491.456 404.709 491.851 404.858 492.636C405.117 493.999 404.464 494.888 403.262 494.808C402.767 494.775 401.483 494.766 400.408 494.787C398.094 494.833 397.078 495.62 395.99 498.206C395.606 499.119 395.08 500.004 394.821 500.172C394.18 500.588 392.112 500.366 391.228 499.785C390.83 499.523 389.876 499.106 389.109 498.858C386.229 497.928 382.583 495.757 380.691 493.845C379.134 492.272 378.599 491.937 377.929 492.113C377.399 492.253 376.681 492.062 375.945 491.583C373.859 490.228 368.675 484.058 367.343 481.348C366.534 479.699 366.33 480.075 365.105 485.474C364.83 486.684 364.097 489.655 363.474 492.075C362.852 494.496 362.132 497.384 361.875 498.494C360.739 503.391 357.504 516.071 355.559 523.25C354.591 526.822 352.968 533.165 352.79 534.069C352.692 534.573 352.486 535.316 352.333 535.719C352.181 536.123 351.698 537.938 351.26 539.754C350.823 541.569 349.929 545.118 349.275 547.639C348.621 550.161 347.782 553.544 347.413 555.158C347.043 556.771 346.595 558.356 346.417 558.68C346.24 559.003 345.983 560.076 345.845 561.064C345.709 562.051 345.383 563.437 345.122 564.143C344.605 565.543 341.742 576.816 340.932 580.647C340.654 581.958 340.134 584.021 339.776 585.232C339.418 586.442 338.298 590.733 337.287 594.767C336.277 598.802 335.071 603.588 334.608 605.403C333.827 608.461 333.594 609.436 332.812 612.922C332.654 613.628 331.798 616.813 330.91 619.999C330.022 623.185 329.296 626.039 329.296 626.341C329.296 626.642 328.994 627.914 328.625 629.166C328.255 630.419 327.54 633.094 327.035 635.111C325.536 641.095 324.363 645.639 323.861 647.397C323.602 648.305 323.129 650.038 322.81 651.248C322.49 652.458 322.014 654.156 321.752 655.02C321.489 655.885 321.274 656.907 321.274 657.291C321.274 658.141 320.733 658.549 320.141 658.147C319.901 657.983 318.215 657.514 316.394 657.102C313.971 656.555 313.053 656.193 312.972 655.752C312.912 655.421 313.911 651.219 315.193 646.414C320.568 626.274 325.544 607.423 326.988 601.736C327.653 599.114 329.239 593.007 330.511 588.166C331.783 583.325 333.443 576.971 334.2 574.046C334.957 571.121 336.524 565.097 337.683 560.659C338.842 556.221 340.347 550.362 341.028 547.639C342.775 540.648 343.035 539.627 344.48 534.069C345.188 531.346 346.045 528.045 346.384 526.734C346.723 525.423 347.234 523.607 347.52 522.7C347.804 521.792 348.282 520.141 348.581 519.032C348.88 517.923 349.443 515.86 349.833 514.448C350.512 511.987 350.893 510.473 353.521 499.777C354.166 497.155 354.877 494.514 355.102 493.909C355.326 493.304 356.127 490.333 356.881 487.307C359.075 478.504 360.765 471.985 363.634 461.268C364.066 459.654 364.543 458.027 364.696 457.653C364.938 457.059 364.8 457.086 363.614 457.86C361.664 459.133 358.885 459.895 355.264 460.146C351.83 460.385 348.074 459.754 342.026 457.922C334.512 455.646 326.717 449.102 323.301 442.202C322.462 440.507 321.784 439.503 321.692 439.818C321.347 440.991 320.45 441.646 319.186 441.646C317.587 441.646 317.394 441.845 317.828 443.045C318.083 443.751 318.03 444.397 317.626 445.511C317.125 446.89 317.126 447.161 317.643 448.643C317.954 449.535 318.336 450.76 318.492 451.365C319.11 453.764 320.248 457.456 321.771 462.001C324.162 469.136 324.474 471.603 324.536 483.823C324.596 495.919 324.54 496.229 322.119 497.201C321.271 497.542 320.557 497.931 320.532 498.066C320.508 498.2 320.451 498.64 320.408 499.044C320.364 499.447 320.148 500.652 319.929 501.721C319.71 502.79 319.53 504.23 319.53 504.922C319.53 507.098 318.547 509.081 317.074 509.871C314.928 511.023 314.322 512.232 311.564 520.866C310.63 523.791 309.209 528.082 308.408 530.402C307.607 532.721 306.276 536.682 305.451 539.204C304.626 541.725 303.688 544.319 303.367 544.969C302.924 545.864 302.795 547.015 302.834 549.737C302.878 552.845 302.758 553.667 301.936 555.891C301.413 557.303 300.809 558.683 300.593 558.957C299.654 560.147 301.065 575.577 302.465 579.423C302.673 579.995 302.86 582.692 302.879 585.415C302.907 589.399 302.729 591.37 301.969 595.501C301.45 598.325 300.781 602.038 300.483 603.753C300.185 605.468 299.794 607.164 299.613 607.522C299.355 608.034 299.536 608.429 300.454 609.356C302.104 611.024 302.79 612.33 302.79 613.805C302.79 614.666 302.562 615.248 302.09 615.596C301.517 616.019 301.412 616.437 301.512 617.909C301.651 619.956 301.126 621.335 299.827 622.329C299.338 622.704 298.858 623.478 298.759 624.051C298.358 626.374 296.406 627.959 293.944 627.959C292.8 627.959 292.676 628.067 292.375 629.334C292.195 630.091 292.056 630.957 292.066 631.26C292.076 631.562 291.885 633.27 291.642 635.055C291.274 637.749 291.025 638.509 290.176 639.526C289.613 640.2 288.624 640.934 287.978 641.158C286.732 641.591 285.741 642.827 285.731 643.962C285.702 647.206 284.512 652.222 283.621 652.852C283.108 653.214 282.91 653.755 282.91 654.789C282.91 656.734 282.184 658.418 280.829 659.617C279.913 660.428 279.778 660.717 280.116 661.145C280.345 661.436 280.618 662.664 280.722 663.875C280.927 666.245 280.592 667.507 279.136 669.859C278.118 671.503 278.248 673.205 279.605 676.022C280.08 677.008 280.47 678.026 280.472 678.284C280.479 679.239 282.17 682.539 283.823 684.825C285.316 686.889 285.526 687.397 285.526 688.948C285.526 690.402 285.371 690.842 284.654 691.421C284.174 691.808 283.546 692.135 283.259 692.148C282.971 692.16 282.42 692.7 282.033 693.348C281.609 694.059 280.987 694.572 280.464 694.643C279.945 694.714 279.314 695.23 278.894 695.927C278.471 696.628 277.845 697.138 277.324 697.206C276.848 697.269 275.792 697.64 274.979 698.031C274.166 698.423 273.259 698.743 272.963 698.743C272.041 698.743 270.024 697.713 268.701 696.566C267.348 695.393 266.518 695.548 266.518 696.975C266.518 697.478 265.96 697.952 264.597 698.608L262.676 699.533L261.498 698.768C260.85 698.346 260.228 697.715 260.116 697.364C260.003 697.013 259.771 696.479 259.599 696.176C257.635 692.716 257.79 687.342 259.971 683.339C260.929 681.581 260.873 679.246 259.803 676.371C257.734 670.808 257.436 669.178 257.604 664.328L257.76 659.804L259.288 658.086C260.963 656.202 261.202 655.257 261.989 647.397C262.959 637.723 262.917 636.773 261.556 637.539C261.124 637.783 259.426 637.991 257.785 638.001C255.268 638.017 254.584 637.887 253.428 637.169L252.056 636.319L248.302 638.374C245.924 639.675 244.118 640.429 243.378 640.429C242.058 640.429 239.704 638.827 238.733 637.268C237.808 635.785 236.129 635.181 234.331 635.685C232.882 636.092 229.178 637.811 225.999 639.552C224.515 640.365 218.925 642.004 212.634 643.47C210.224 644.032 204.474 644.629 202.604 644.512C201.547 644.445 198.389 643.039 197.288 642.145C196.721 641.685 196.591 641.145 196.591 639.262V636.945L195.374 636.761C194.447 636.622 194.041 636.315 193.671 635.478C192.768 633.434 192.201 633.005 190.728 633.252C189.755 633.416 183.982 636.133 182.907 636.933C182.863 636.966 182.972 637.529 183.15 638.182C183.329 638.837 183.38 640.787 183.264 642.516L183.053 645.66L179.969 648.984C178.273 650.812 176.885 652.425 176.885 652.568C176.885 652.711 176.347 653.83 175.689 655.054C174.17 657.88 172.886 661.847 172.351 665.368C172.12 666.881 171.772 668.574 171.576 669.129C171.176 670.263 169.096 672.337 168.359 672.337C167.713 672.337 166.226 674.246 165.178 676.421C164.433 677.966 163.989 678.376 161.82 679.525C158.002 681.546 156.011 681.208 155.32 678.418C155.05 677.331 154.977 677.293 153.393 677.414C151.845 677.532 151.655 677.443 150.191 675.903C149.193 674.854 148.635 673.944 148.635 673.366C148.635 672.868 148.23 672.066 147.73 671.575C144.409 668.316 145.01 662.1 148.81 660.397C150.652 659.571 152.488 657.594 152.878 656.016C153.491 653.537 153.626 651.798 153.206 651.798C152.994 651.798 152.82 651.963 152.82 652.165C152.82 652.367 152.278 652.532 151.616 652.532C150.954 652.532 150.021 652.719 149.543 652.948C148.861 653.275 148.162 653.229 146.3 652.738C143.537 652.009 143.094 651.648 141.444 648.792C140.581 647.299 139.936 646.596 139.281 646.435C138.767 646.309 137.719 645.585 136.952 644.827C135.079 642.976 134.751 642.832 130.355 641.916C126.469 641.107 125.184 640.508 121.452 637.772C118.746 635.789 116.7 635.208 114.675 635.849C113.808 636.123 112.756 636.54 112.338 636.776C111.92 637.011 110.351 637.429 108.853 637.704C106.347 638.164 105.974 638.148 104.207 637.509C101.128 636.395 100.029 635.428 94.8545 629.282C93.6768 627.883 93.6007 627.853 91.0091 627.763C85.1282 627.559 77.7392 622.998 75.5968 618.25C74.7785 616.437 73.8941 615.97 70.7046 615.672C67.2679 615.351 65.0958 614.347 61.3141 611.333C57.077 607.955 54.8543 606.466 52.7247 605.577C45.8554 602.71 41.9981 600.382 40.3477 598.107C39.8204 597.38 39.1793 596.785 38.9233 596.785C38.6674 596.785 38.1529 596.083 37.7801 595.226C37.4073 594.368 36.2249 592.264 35.1525 590.55C33.7215 588.262 33.2015 587.088 33.1984 586.139C33.1921 584.363 33.6846 583.66 37.431 580.094L38.704 578.882L38.7472 574.941C38.8264 567.755 39.4082 566.407 45.212 559.961C47.3356 557.602 47.6007 557.005 47.3384 555.167C47.2097 554.263 46.9562 553.428 46.7755 553.311C46.5948 553.193 46.4469 552.767 46.4469 552.364C46.4469 551.96 46.6039 551.732 46.7957 551.857C46.9875 551.982 47.1445 551.918 47.1445 551.717C47.1445 551.136 46.5233 550.887 46.3458 551.396C46.2209 551.755 46.0867 551.759 45.7414 551.417C45.3832 551.063 45.3822 550.56 45.7358 548.807C46.2471 546.273 46.0546 545.417 44.5249 543.421C42.2004 540.389 42.1564 539.865 43.7938 534.691C44.7264 531.745 44.9406 530.561 44.8036 529.108L44.6295 527.265L46.6716 526.287C47.7949 525.749 49.5771 524.954 50.6321 524.522C51.6872 524.089 53.2566 523.437 54.1198 523.074C54.983 522.71 57.9649 521.5 60.7463 520.383C63.5277 519.267 66.902 517.835 68.2448 517.202C69.5875 516.569 71.2355 515.803 71.9068 515.499C72.5782 515.196 73.4414 514.8 73.825 514.619C74.2087 514.438 75.8318 513.844 77.4316 513.3C79.0317 512.756 80.5618 512.079 80.832 511.794C81.1023 511.51 81.3437 510.588 81.3685 509.745C81.5408 503.876 82.5885 501.222 86.2366 497.413C88.9831 494.545 89.0664 494.307 88.7912 490.105L88.5496 486.414L89.6503 485.333C90.3775 484.619 91.7857 483.92 93.7974 483.274C95.4729 482.737 99.0408 481.587 101.726 480.719C106.556 479.158 110.572 478.01 114.631 477.027C115.782 476.748 117.743 476.193 118.99 475.793C120.237 475.393 122.984 474.637 125.094 474.114C127.204 473.59 129.244 473.019 129.628 472.844C130.011 472.67 131.21 472.254 132.291 471.919C135.156 471.033 135.429 470.74 135.032 468.97C134.695 467.464 134.956 466.06 135.941 464.074C136.207 463.539 136.425 462.932 136.426 462.724C136.427 462.517 137.37 461.132 138.521 459.647L140.614 456.948V454.236C140.614 452.745 140.828 450.986 141.089 450.328C141.573 449.109 143.307 447.342 144.605 446.746C144.999 446.564 145.557 446.256 145.845 446.061C146.133 445.867 147.31 445.27 148.461 444.736C150.319 443.874 151.652 443.423 155.436 442.378C157.495 441.81 164.09 439.387 165.357 438.734C165.643 438.586 166.257 436.817 166.775 434.65C167.277 432.547 167.939 430.332 168.247 429.726C169.025 428.195 171.218 426.072 172.852 425.268C174.491 424.461 174.672 423.893 174.638 419.641C174.616 416.754 174.562 416.529 173.918 416.599C173.536 416.641 172.282 416.759 171.131 416.862C169.98 416.965 167.704 417.227 166.074 417.444C164.443 417.662 161.932 417.984 160.493 418.162C157.016 418.589 146.558 418.419 145.671 417.919C145.287 417.704 143.875 417.428 142.532 417.306C137.519 416.851 133.306 415.744 123.35 412.264C121.623 411.66 119.505 410.942 118.641 410.668C117.778 410.394 115.43 409.502 113.423 408.687C111.416 407.872 109.72 407.261 109.655 407.33C109.59 407.398 109.908 407.762 110.362 408.138C110.816 408.514 111.726 409.679 112.386 410.727C116.36 417.047 116.443 417.41 114.464 419.815C113.666 420.784 112.764 422.008 112.46 422.535C111.622 423.984 108.564 426.941 107.077 427.739C105.279 428.704 102.088 429.627 99.9824 429.793C98.3551 429.921 96.1122 429.439 80.8003 425.672C77.0926 424.76 76.5447 424.887 72.2273 427.664C68.4394 430.099 64.0687 433.752 57.5105 439.964C55.7883 441.595 54.2031 442.94 53.9879 442.952C53.1586 443 52.8579 442.34 52.9737 440.723C53.078 439.265 52.958 438.901 52.0641 437.961C51.149 436.999 49.9262 436.6 48.7139 436.869C48.5221 436.911 47.8158 436.994 47.1445 437.052C46.4731 437.11 44.9009 437.657 43.6509 438.266C39.7848 440.153 37.6005 440.667 34.6147 440.393C32.8601 440.233 31.6638 439.916 31.0517 439.45C30.1366 438.753 30.1142 438.755 27.7385 439.696C21.1534 442.304 19.968 442.524 12.4332 442.545L5.44852 442.563L2.92518 440.96C0.331061 439.311 -0.2378 438.446 0.237916 436.871C0.451361 436.162 0.653322 436.099 2.10035 436.286C6.68906 436.879 9.28632 436.945 11.3193 436.521C14.96 435.761 18.6838 434.126 23.894 430.999C25.3968 430.098 27.2178 429.03 27.9401 428.626C29.241 427.9 31.8825 425.575 36.3101 421.26C38.5534 419.074 42.4682 415.973 42.9854 415.973C43.1291 415.973 44.3198 415.325 45.6315 414.533C46.9432 413.741 49.2615 412.576 50.7831 411.943C52.3052 411.31 53.9531 410.495 54.4452 410.132C55.4695 409.376 60.7725 407.604 63.3621 407.152C64.3212 406.985 66.283 406.579 67.7216 406.249C69.1603 405.919 71.0436 405.596 71.9068 405.529C72.77 405.463 74.9728 405.293 76.8021 405.153C80.243 404.887 83.7192 405.244 88.0445 406.307C89.9764 406.781 90.5947 406.804 91.445 406.434C92.0163 406.185 92.484 405.787 92.484 405.549C92.484 404.823 87.2002 401.708 84.6225 400.914C81.7214 400.021 74.3753 399.119 69.915 399.11C63.9009 399.096 57.6074 400.052 57.6074 400.98C57.6074 401.605 54.9073 401.314 54.0713 400.6L53.2479 399.897L53.9789 398.858C54.8183 397.664 60.5503 392.982 61.6019 392.631C61.9886 392.502 63.1584 391.734 64.2009 390.924C65.2437 390.114 67.9609 388.445 70.2394 387.217C75.3819 384.443 76.7637 383.668 77.8512 382.948C78.9829 382.199 83.0147 380.439 84.3089 380.129C85.7326 379.788 87.8768 379.795 89.4553 380.145C90.6833 380.417 90.7593 380.387 90.4395 379.759C89.8156 378.533 91.1444 376.968 93.7933 375.81C95.0872 375.245 96.2953 374.642 96.4773 374.472C96.6597 374.302 97.0228 374.163 97.2844 374.163C97.546 374.163 98.5741 373.771 99.5688 373.292C101.806 372.214 104.635 370.889 105.563 370.484C108.849 369.049 116.816 367.475 121.661 367.303C125.502 367.167 126.158 367.242 128.636 368.1C130.141 368.62 131.685 369.188 132.069 369.361C132.453 369.534 133.82 370.124 135.107 370.671C137.087 371.512 137.585 371.913 138.339 373.266C138.83 374.146 139.385 375.739 139.573 376.807C140.028 379.394 141.105 382.389 142.846 385.912C144.005 388.257 144.848 389.35 147.242 391.617C150.891 395.07 155.391 398.236 157.607 398.907C163.319 400.639 170.946 400.567 174.618 398.747C175.002 398.557 176.336 397.965 177.583 397.431C182.736 395.224 186.418 392.672 187.872 390.3C189.371 387.852 189.617 386.358 188.93 383.87C187.965 380.38 185.14 379.166 181.647 380.74C179.88 381.537 179.52 382.067 179.149 384.423C178.803 386.616 177.292 388.183 174.79 388.947C170.38 390.292 168.572 390.673 165.574 390.894C161.286 391.208 158.678 390.531 152.646 387.536C149.971 386.208 145.469 382.607 145.072 381.477C144.934 381.085 144.676 380.764 144.499 380.764C144.322 380.764 144.074 380.31 143.948 379.756C143.822 379.201 143.353 377.922 142.905 376.913C140.386 371.243 139.931 368.708 140.533 363.703C140.916 360.518 143.321 356.633 146.413 354.205C147.205 353.583 149.065 352.028 150.545 350.75C153.147 348.504 157.746 345.571 158.684 345.561C158.936 345.558 160.142 345.048 161.365 344.428C162.588 343.808 164.569 343.06 165.767 342.766C166.966 342.472 168.161 342.045 168.423 341.816C168.684 341.588 169.793 341.356 170.886 341.301C171.98 341.246 174.135 340.865 175.675 340.455C177.778 339.895 180.069 339.661 184.859 339.518C188.37 339.413 191.387 339.233 191.563 339.118C192.132 338.749 191.253 337.593 190.238 337.376C189.703 337.261 188.606 336.497 187.798 335.677C186.437 334.296 186.185 334.186 184.38 334.186C182.121 334.186 180.778 333.562 179.583 331.956C178.867 330.995 178.625 330.876 178.07 331.215C177.112 331.797 159.852 334.393 156.06 334.525C155.061 334.559 152.785 334.897 151.003 335.274C149.221 335.652 145.645 336.405 143.055 336.948C139.947 337.601 138.117 338.167 137.671 338.615C137.017 339.273 137.016 339.318 137.63 340.032C137.979 340.437 138.924 341.105 139.73 341.515C142.403 342.876 143.52 344.836 142.528 346.427C142.03 347.226 138.165 349.957 137.532 349.957C137.399 349.957 136.665 350.313 135.9 350.748C135.136 351.183 133.647 351.745 132.592 351.995C131.537 352.245 129.104 352.866 127.186 353.375C125.268 353.884 121.624 354.728 119.088 355.25C113.241 356.456 112.569 356.716 112.848 357.665C112.965 358.065 113.154 358.708 113.268 359.094C113.516 359.931 112.492 360.627 110.947 360.674C110.383 360.691 109.922 360.87 109.922 361.072C109.922 361.274 109.636 361.168 109.286 360.835C108.438 360.028 103.607 359.521 96.582 359.501C94.9034 359.496 93.5303 359.346 93.5303 359.167C93.5303 358.697 95.8144 358.418 101.468 358.198C104.204 358.092 106.831 357.849 107.307 357.659C108.085 357.348 108.132 357.218 107.771 356.385C107.243 355.169 107.8 353.849 109.149 353.115C110.016 352.644 114.086 351.72 117.421 351.238C119.857 350.886 120.799 350.706 121.954 350.371C122.625 350.176 123.175 350.069 123.175 350.134C123.175 350.199 124.235 349.852 125.53 349.363C126.824 348.874 128.825 348.127 129.976 347.702C131.907 346.99 133.638 345.792 133.638 345.168C133.638 345.024 133.363 344.813 133.028 344.698C131.884 344.304 129.282 342.556 128.112 341.395C126.99 340.283 126.951 340.154 127.123 338.09C127.481 333.771 130.163 332.29 143.927 328.806C145.845 328.321 148.356 327.756 149.507 327.551C152.173 327.076 157.019 325.532 159.273 324.44C160.232 323.975 162.037 323.156 163.283 322.619C165.866 321.508 167.817 320.09 167.817 319.323C167.817 318.574 166.214 317.807 163.618 317.315C162.379 317.08 161.091 316.628 160.755 316.311C159.27 314.909 160.599 311.969 163.58 310.059C165.403 308.891 169.194 307.332 170.362 307.27C170.785 307.248 171.124 307.064 171.115 306.863C171.089 306.232 170.161 304.479 169.854 304.479C169.693 304.479 169.561 304.149 169.561 303.745C169.561 302.829 169.23 302.829 167.184 303.74C166.286 304.141 164.138 304.889 162.411 305.403C158.909 306.446 152.472 309.518 152.472 310.147C152.472 310.37 153.124 310.795 153.921 311.092C155.808 311.793 156.213 312.485 155.62 313.992C154.462 316.931 148.922 317.918 134.685 317.722C126.716 317.612 126.462 317.631 125.53 318.406C124.393 319.349 124.33 319.996 125.253 321.23C126.024 322.26 125.819 322.881 124.318 324.061C123.528 324.682 122.838 324.749 117.738 324.695L112.041 324.635L111.445 325.59C110.947 326.391 110.916 326.739 111.258 327.733C111.81 329.339 111.844 329.264 110.28 329.922C109.142 330.4 107.972 330.468 103.741 330.298C100.906 330.184 98.1166 330.081 97.5411 330.069C96.9656 330.057 95.7579 330.355 94.8574 330.731C92.7798 331.599 92.364 331.186 93.8647 329.745C95.3519 328.316 96.5447 327.845 97.9638 328.125C98.6753 328.265 99.474 328.139 100.13 327.782C100.701 327.472 102.03 327.218 103.083 327.218C104.137 327.218 105.097 327.05 105.217 326.845C105.338 326.64 105.572 326.56 105.737 326.668C106.445 327.128 106.441 325.988 105.731 325.194C104.538 323.859 104.998 321.998 106.839 320.717C108.124 319.823 108.673 319.708 112.777 319.472C116.343 319.267 117.441 319.077 117.97 318.574C118.339 318.223 118.641 317.825 118.641 317.691C118.641 317.557 118.075 316.752 117.383 315.902C116.238 314.495 116.161 314.265 116.527 313.336C117.262 311.469 119.015 311.14 128.058 311.168C130.264 311.174 132.54 311.177 133.115 311.173C135.32 311.16 138.408 310.74 139.861 310.255L141.375 309.75L140.386 308.513C139.41 307.294 139.275 306.225 139.983 305.317C140.738 304.347 144.111 302.272 146.908 301.055C148.6 300.319 150.13 299.39 150.499 298.874C151.115 298.014 151.117 297.922 150.535 296.734C150.201 296.052 149.019 294.547 147.908 293.391C146.204 291.618 145.916 291.132 146.063 290.282C146.285 288.996 146.416 288.874 147.017 289.399C147.401 289.734 147.554 289.699 147.723 289.238C148.043 288.36 147.973 288.083 147.589 288.708C147.321 289.144 147.25 289.067 147.245 288.338C147.241 287.626 147.775 286.995 149.594 285.559C154.276 281.865 160.925 278.099 163.719 277.558C165.407 277.232 165.407 276.619 163.719 276.558C163 276.532 162.098 276.465 161.714 276.409C160.984 276.302 159.049 276.116 152.628 275.537C148.624 275.175 147.26 274.768 145.932 273.537C144.838 272.522 144.926 270.003 146.057 270.003C147.156 270.003 146.428 269.378 144.828 268.946C143.885 268.692 142.389 268.001 141.503 267.41C140.617 266.819 139.754 266.336 139.586 266.336C139.418 266.336 139.176 265.689 139.049 264.897C138.922 264.106 138.617 263.378 138.37 263.279C138.125 263.18 136.449 262.986 134.647 262.849C129.994 262.494 126.225 261.454 124.02 259.915C121.637 258.251 119.757 255.928 119.611 254.465C119.488 253.223 120.319 251.076 121.646 249.215C122.601 247.875 122.823 246.507 121.964 247.256C121.553 247.615 120.767 247.517 118.04 246.767C116.165 246.251 114.202 245.751 113.679 245.655C111.905 245.332 106.621 242.765 104.168 241.035C102.168 239.625 101.348 239.271 99.6337 239.082C96.8565 238.775 92.9956 237.693 91.2392 236.728C90.4587 236.299 89.0065 235.271 88.0121 234.445C86.3081 233.028 86.05 232.934 83.5026 232.8C82.0162 232.721 80.5649 232.582 80.2772 232.489C79.9895 232.396 79.2424 232.196 78.6171 232.044C77.9914 231.892 76.8537 231.129 76.0885 230.347C74.9428 229.179 74.697 228.679 74.697 227.523C74.697 226.191 74.6039 226.072 72.9036 225.235C70.4448 224.024 67.0408 221.452 66.2707 220.223C65.8044 219.48 65.6329 218.506 65.6315 216.591C65.6294 214.187 65.7016 213.924 66.5219 213.359C67.013 213.02 68.0725 212.618 68.8761 212.465C70.3165 212.19 70.4179 212.054 70.0071 210.946C69.8927 210.637 70.2341 209.488 70.766 208.392C71.5064 206.865 72.0882 206.204 73.2527 205.569C75.5609 204.309 77.4037 204.128 84.8112 204.428C88.5517 204.58 96.3204 204.875 102.075 205.084C107.83 205.293 114.735 205.627 117.421 205.825C120.106 206.023 123.559 206.264 125.094 206.36C126.628 206.455 128.747 206.611 129.802 206.705C130.857 206.799 132.976 206.977 134.51 207.1C137.468 207.337 141.179 207.809 144.624 208.388C145.775 208.581 147.502 208.823 148.461 208.925C150.32 209.123 152.814 209.604 155.087 210.204C155.855 210.406 157.11 210.579 157.878 210.589C158.645 210.599 160.214 210.939 161.365 211.345C162.516 211.75 165.576 212.494 168.165 212.998C170.754 213.502 173.736 214.173 174.792 214.491C175.847 214.808 177.731 215.368 178.978 215.735C181.542 216.489 186.471 218.151 187.523 218.615C187.906 218.784 188.814 219.193 189.54 219.523C190.266 219.854 191.05 220.13 191.284 220.137C191.517 220.144 192.336 220.468 193.103 220.858C193.87 221.248 194.706 221.572 194.961 221.579C195.578 221.595 201.643 224.774 202.36 225.457C202.67 225.752 203.083 225.993 203.279 225.993C203.475 225.993 204.248 226.45 204.996 227.008C205.744 227.567 206.748 228.226 207.228 228.473C212.598 231.238 222.674 239.722 226.496 244.697C227.981 246.631 230.246 250.08 230.246 250.409C230.246 250.535 230.498 251.24 230.805 251.977C231.112 252.713 231.497 253.646 231.659 254.049C232.103 255.151 233.074 259.247 233.518 261.893C233.824 263.714 234.073 264.299 234.637 264.518C235.036 264.673 236.165 265.762 237.144 266.936L238.925 269.071L239.851 268.162C240.686 267.342 240.761 267.056 240.615 265.236C240.395 262.484 240.729 261.761 242.553 261.029C243.849 260.508 244.335 260.479 245.624 260.844C246.466 261.082 247.602 261.612 248.149 262.022C249.248 262.844 252.219 263.373 252.219 262.746C252.219 262.534 251.691 262.018 251.046 261.6C250.402 261.18 249.467 260.218 248.968 259.461C248.144 258.209 248.096 257.944 248.433 256.546C248.893 254.648 249.359 254.203 252.219 252.93C254.538 251.898 256.96 251.611 259.107 252.115C259.73 252.261 260.237 252.261 260.233 252.115C260.229 251.968 259.209 251.058 257.966 250.091C256.124 248.659 255.706 248.144 255.706 247.31C255.706 246.747 255.798 246.19 255.91 246.072C256.022 245.955 256.868 246.257 257.792 246.745C258.714 247.232 259.78 247.631 260.16 247.631C260.539 247.631 261.458 247.853 262.202 248.125C265.095 249.182 267.905 248.56 269.763 246.452C270.656 245.438 270.893 245.357 272.47 245.516C273.444 245.614 274.502 245.979 274.894 246.353C275.277 246.717 275.705 246.894 275.846 246.747C276.109 246.47 273.843 244.114 270.948 241.653C270.046 240.887 269.308 240.103 269.308 239.911C269.308 239.285 271.668 239.544 274.439 240.475C277.732 241.58 278.556 241.607 280.518 240.671C283.26 239.362 285.095 239.69 289.188 242.219C291.332 243.544 293.831 244.103 295.311 243.59C295.943 243.371 297.217 242.362 298.142 241.349C303.227 235.781 309.946 235.973 315.597 241.85C316.791 243.09 317.847 244.023 317.943 243.921C318.246 243.603 316.143 239.422 315.224 238.515C314.159 237.462 314.376 236.628 315.715 236.628C317.044 236.628 318.242 237.209 320.796 239.089C323.389 241 325.602 243.759 327.811 247.839C328.724 249.524 329.676 250.99 329.927 251.097C330.61 251.389 333.558 250.606 334.247 249.95C334.579 249.634 335.106 249.479 335.419 249.605C335.887 249.794 335.945 250.159 335.748 251.667C335.459 253.875 335.847 254.019 337.215 252.216C339.353 249.398 340.615 251.309 340.624 257.378C340.631 261.432 340.308 262.798 338.856 264.869C338.643 265.171 338.368 265.719 338.244 266.085C338.057 266.638 338.151 266.709 338.802 266.502C339.232 266.365 340.393 265.696 341.382 265.015C342.972 263.919 343.249 263.532 343.786 261.664C344.737 258.351 345.049 257.997 347.458 257.499C349.794 257.016 350.191 256.561 349.404 255.271C348.714 254.141 345.155 245.282 344.64 243.414C343.479 239.193 343.222 236.117 343.709 232.227C343.973 230.116 344.779 227.214 345.339 226.359C345.669 225.855 346.133 224.579 346.37 223.524C347.245 219.623 351.41 210.673 354.626 205.782C355.237 204.852 356.069 203.408 356.474 202.572C356.88 201.737 357.331 201.053 357.478 201.053C357.624 201.053 358.041 200.517 358.404 199.861C358.973 198.833 360.766 196.154 361.655 195.001C361.811 194.8 362.944 193.232 364.174 191.517C365.404 189.803 367.053 187.575 367.839 186.566C378.827 172.472 383.858 166.935 390.597 161.524C396.415 156.851 398.258 155.32 401.523 152.44C406.156 148.354 412.931 142.993 415.858 141.095C418.515 139.373 418.569 139.357 421.09 139.495C425.349 139.728 427.091 141.703 426.983 146.177C426.93 148.393 426.793 148.923 426.064 149.723C425.1 150.78 425.009 151.269 425.642 151.973C426.702 153.151 427.382 155.497 427.507 158.406C427.635 161.368 427.611 161.474 426.093 164.55C424.346 168.092 421.626 172.422 419.32 175.33C417.97 177.033 417.838 177.342 418.337 177.636C418.654 177.822 419.405 178.727 420.008 179.648C421.038 181.223 421.101 181.511 421.081 184.565C421.063 187.255 420.907 188.148 420.167 189.795C419.172 192.005 416.576 195.755 414.607 197.823L413.318 199.177L414.118 200.139C415.168 201.401 415.366 202.192 415.401 205.271C415.427 207.579 415.299 208.087 414.127 210.309C412.202 213.962 409.121 217.838 403.43 223.763C400.637 226.672 398.351 229.175 398.351 229.326C398.351 229.477 398.976 230.283 399.738 231.118C400.55 232.007 401.289 233.274 401.521 234.174C402.086 236.37 401.727 239.443 400.677 241.396C400.189 242.304 399.481 243.63 399.102 244.344C398.042 246.341 388.756 255.991 385.524 258.454C378.717 263.643 377.583 264.473 377.284 264.487C377.11 264.495 376.404 264.955 375.714 265.509C373.577 267.226 371.179 268.903 370.861 268.903C370.695 268.903 370.287 269.219 369.955 269.604C369.624 269.989 368.99 270.4 368.546 270.517C367.897 270.688 367.692 271.067 367.493 272.464C367.116 275.106 365.865 277.234 362.794 280.456L359.997 283.39L362.172 283.605C363.368 283.723 364.842 284.022 365.447 284.27C366.425 284.671 366.745 284.617 368.313 283.781C369.284 283.263 370.256 282.84 370.472 282.84C370.688 282.84 371.282 282.54 371.792 282.172C372.301 281.805 373.502 281.206 374.461 280.841C378.678 279.237 379.518 278.745 379.518 277.882C379.518 276.78 380.779 272.497 381.797 270.138C382.244 269.103 382.717 267.655 382.848 266.921C383.12 265.394 384.367 264.166 387.584 262.255C388.729 261.575 390.191 260.596 390.831 260.082C391.472 259.567 393.074 258.674 394.389 258.097C395.705 257.52 397.017 256.863 397.305 256.635C397.593 256.407 398.378 255.96 399.049 255.642C401.645 254.41 403.766 252.201 405.91 248.495C410.922 239.829 412.161 236.919 412.289 233.508C412.425 229.875 412.369 229.589 410.93 226.543C410.167 224.929 409.441 223.159 409.318 222.61C409.006 221.229 410.161 218.853 412.135 216.816C413.595 215.309 413.902 215.158 415.858 214.99C417.976 214.807 417.993 214.797 418.463 213.364C418.723 212.57 419.189 211.628 419.497 211.27C420.113 210.553 428.167 206.188 428.872 206.188C429.114 206.188 429.535 205.816 429.807 205.362C430.364 204.437 432.53 196.312 432.53 195.151C432.53 194.74 432.685 194.1 432.873 193.729C433.062 193.358 433.768 190.852 434.441 188.16C435.752 182.922 437.721 175.347 438.858 171.162C439.242 169.75 439.758 167.687 440.004 166.578C440.251 165.468 440.661 163.818 440.914 162.91C441.453 160.984 441.389 161.236 441.74 159.609C441.892 158.903 442.224 157.583 442.479 156.675C442.734 155.768 443.357 153.457 443.865 151.541C444.372 149.624 445.172 146.736 445.642 145.122C446.112 143.509 446.817 140.951 447.209 139.438C447.6 137.925 448.305 135.202 448.776 133.386C449.247 131.571 449.928 128.765 450.289 127.151C450.651 125.538 451.105 123.64 451.298 122.934C451.872 120.84 453.163 115.825 453.282 115.232C453.6 113.629 453.928 112.441 454.14 112.114C454.272 111.913 454.575 110.592 454.815 109.18C455.054 107.768 455.394 106.283 455.57 105.879C455.746 105.476 456.449 102.918 457.132 100.195C457.816 97.4714 458.514 94.7482 458.684 94.1431C459.25 92.1241 460.452 87.5778 461.303 84.2406C461.766 82.4252 462.711 78.7943 463.403 76.172C464.951 70.3108 464.944 70.3651 464.113 70.1854C463.739 70.1051 462.876 69.676 462.194 69.2322C461.512 68.788 460.406 68.2097 459.734 67.946C459.063 67.6826 458.019 67.2388 457.414 66.9601C456.81 66.681 456.074 66.4529 455.778 66.4529C455.483 66.4529 455.144 66.2878 455.026 66.0861C454.907 65.8844 453.775 65.7194 452.509 65.7194C450.581 65.7194 450.02 65.8705 449.042 66.655C448.401 67.1695 447.876 67.8345 447.876 68.1323C447.876 68.4304 448.347 69.655 448.922 70.854C450.056 73.2144 450.201 74.131 449.55 74.815C448.329 76.0986 443.882 74.2245 439.107 70.4139C437.641 69.2439 436.348 68.2867 436.235 68.2867C436.121 68.2867 434.731 67.2931 433.146 66.0784C430.024 63.6868 425.271 60.3119 420.847 57.3456C419.312 56.3168 417.414 54.9745 416.627 54.3623C415.841 53.7502 415.079 53.2496 414.934 53.2496C414.788 53.2496 414.075 52.7545 413.348 52.1493C412.622 51.5442 411.922 51.0491 411.792 51.0491C411.663 51.0491 411.058 50.6772 410.448 50.2227C407.477 48.0123 400.933 44.4562 395.736 42.2278C395.352 42.0631 394.489 41.7572 393.817 41.5478C393.146 41.3388 391.577 40.8481 390.33 40.4578C386.483 39.2538 384.879 38.9464 382.415 38.9409C379.819 38.9354 378.472 38.6721 378.472 38.1696C378.472 37.9917 378.808 37.8458 379.218 37.8458C379.628 37.8458 380.729 37.3507 381.664 36.7455C382.6 36.1404 383.45 35.6452 383.553 35.6452C383.657 35.6452 384.4 35.3302 385.205 34.9451C388.235 33.4946 394.215 32.3444 398.725 32.3444C400.054 32.3444 401.137 32.2204 401.131 32.0693C401.104 31.3369 388.933 25.2084 385.934 24.4169C385.471 24.2944 385.006 24.0476 384.9 23.8683C384.795 23.6889 384.331 23.5422 383.869 23.5422C383.391 23.5422 382.872 23.2312 382.663 22.8197C382.343 22.1925 382.47 22.0033 383.621 21.3861C385.024 20.6331 386.671 20.3342 391.202 20.0096C395.727 19.6858 402.019 20.9008 407.671 23.1901C413.171 25.4178 414.661 26.1389 416.92 27.6682C418.038 28.4245 419.026 29.0436 419.115 29.0436C419.204 29.0436 420.729 30.0958 422.503 31.382C424.278 32.6683 426.432 34.0935 427.291 34.5497C428.15 35.0056 430.069 36.2544 431.556 37.325C433.832 38.9644 439.031 41.8801 439.678 41.8801C439.783 41.8801 440.474 42.3011 441.214 42.8157C442.413 43.6497 448.41 45.5477 449.848 45.5477C450.572 45.5477 450.293 43.9545 449.106 41.316C447.861 38.5488 447.49 35.5609 448.109 33.2741C449.05 29.794 449.272 29.4103 450.339 29.4103C450.88 29.4103 451.42 29.2446 451.539 29.0425C451.806 28.5873 458.137 28.9039 459.05 29.418C459.401 29.6154 460.101 29.7771 460.606 29.7771C461.45 29.7771 464.224 30.7919 465.799 31.6773C466.161 31.8808 467.259 32.2898 468.24 32.5857C469.221 32.8821 470.65 33.4223 471.418 33.7869C474.045 35.0342 474.282 35.0441 474.469 33.9141C474.563 33.3534 475.186 30.6665 475.855 27.9433C476.524 25.2201 477.317 21.9193 477.616 20.6082C477.916 19.297 478.486 17.2853 478.883 16.1374C479.59 14.0945 480.751 9.78257 482.173 3.92068C482.565 2.30694 483.052 0.86522 483.255 0.71705C483.754 0.353593 486.156 0.42401 487.531 0.842114ZM404.813 294.552C402.687 296.753 397.179 300.078 395.659 300.078C394.328 300.078 390.094 302.639 387.338 305.111C384.433 307.717 382.723 309.454 379.448 313.129C377.611 315.19 373.993 317.682 372.837 317.682C372.574 317.682 371.78 318.008 371.073 318.406C370.015 319.003 361.328 322.046 358.766 322.717C354.019 323.962 346.863 327.558 345.859 329.204C345.602 329.625 345.227 330.927 345.025 332.098C344.823 333.27 344.576 334.367 344.477 334.537C344.377 334.706 344.127 336.141 343.92 337.725C343.539 340.649 342.1 346.566 341.496 347.69C340.71 349.154 339.677 352.902 339.407 355.275C339.245 356.687 338.883 358.915 338.601 360.226C338.319 361.537 338.008 363.199 337.909 363.919L337.73 365.228L340.133 366.211C341.454 366.752 342.793 367.194 343.108 367.194C343.424 367.194 344.8 366.486 346.167 365.62C350.034 363.169 352.213 362.691 363.202 361.88C370.958 361.307 372.69 360.78 375.077 358.27C375.766 357.545 376.773 356.853 377.314 356.733C379.12 356.33 380.577 355.47 380.87 354.635C381.029 354.18 381.09 352.22 381.006 350.278C380.876 347.259 380.955 346.543 381.554 345.327C382.272 343.871 383.671 342.252 385.746 340.476C386.799 339.575 386.942 339.224 387.162 336.988C387.381 334.756 387.54 334.364 388.714 333.152C389.432 332.409 390.451 331.247 390.976 330.568C391.583 329.785 392.309 329.287 392.962 329.205C394.511 329.011 396.354 328.968 397.083 329.109C397.922 329.272 398.156 328.779 399.023 325.017C399.419 323.303 400.194 320.167 400.746 318.049C404.639 303.107 405.723 299.007 406.08 297.877C406.303 297.171 406.523 296.263 406.57 295.86C406.617 295.456 406.828 294.662 407.038 294.094C407.911 291.731 407.445 291.826 404.813 294.552ZM212.198 345.053C210.424 345.608 208.972 346.188 208.972 346.342C208.972 346.495 210.735 348.073 212.891 349.847C217.401 353.56 218.216 354.385 222.279 359.341C225.301 363.026 230.924 368.687 232.678 369.809C233.206 370.147 234.366 371.007 235.256 371.722C237.313 373.372 246.202 377.932 248.731 378.633C249.402 378.819 250.501 379.124 251.172 379.309C253.513 379.956 258.382 379.564 259.243 378.659C259.56 378.325 258.58 375.553 256.422 370.678C255.797 369.266 255.046 367.534 254.754 366.827C254.462 366.121 253.868 364.801 253.433 363.893C252.054 361.009 248.275 351.263 248.303 350.662C248.365 349.311 235.022 346.142 233.483 347.143C232.87 347.541 229.582 348.178 227.334 348.334C224.647 348.521 222.455 347.972 220.58 346.64C219.739 346.044 218.939 345.556 218.802 345.556C218.666 345.556 218.255 345.137 217.89 344.626C217.121 343.549 216.963 343.561 212.198 345.053ZM164.678 356.122C162.238 356.541 160.145 357.509 160.145 358.219C160.145 358.521 159.968 359.065 159.753 359.427C159.463 359.916 159.468 360.555 159.769 361.898C159.993 362.895 160.388 364.865 160.646 366.277C161.168 369.13 162.154 371.941 163.604 374.71C164.784 376.967 166.822 380.031 167.142 380.031C167.272 380.031 167.577 379.247 167.822 378.289C168.552 375.417 170.236 372.671 173.062 369.742C175.967 366.731 178.802 364.59 180.722 363.959C181.393 363.738 183.053 363.164 184.41 362.685C186.683 361.881 187.089 361.843 189.546 362.211C191.014 362.43 192.504 362.857 192.857 363.16C193.21 363.462 194.43 364.199 195.568 364.796C197.676 365.903 201.586 368.969 202.895 370.541C204.2 372.108 206.613 376.101 207.432 378.049C208.116 379.676 208.735 383.938 208.731 386.999C208.73 388.038 208.31 390.851 207.992 391.954C207.531 393.552 205.907 396.823 205.211 397.558C204.881 397.905 203.85 399.178 202.919 400.388C201.376 402.391 196.812 406.816 194.682 408.374C193.886 408.956 193.874 409.005 194.53 409.005C196.397 409.005 203.128 407.866 204.482 407.321C205.321 406.983 206.657 405.986 207.452 405.105L208.896 403.503L211.463 403.486C214.673 403.466 232.328 403.148 233.037 403.098C233.324 403.078 234.972 402.824 236.699 402.533C238.425 402.243 240.387 401.942 241.058 401.864C242.671 401.679 245.46 401.111 248.993 400.25C252.151 399.48 252.343 399.314 257.005 393.334C259.447 390.2 259.427 389.792 256.84 390.101C255.737 390.233 253.03 390.143 250.824 389.901C248.618 389.659 246.342 389.411 245.766 389.349C241.623 388.905 234.181 387.03 233.228 386.191C233.046 386.03 232.623 385.899 232.288 385.899C231.577 385.899 227.964 383.733 226.47 382.411C225.902 381.909 225.341 381.498 225.223 381.498C225.105 381.498 223.715 380.613 222.134 379.532C220.554 378.45 218.571 377.197 217.728 376.747C216.006 375.826 211.261 372.459 209.146 370.656C207.898 369.593 205.462 367.807 200.078 364.007C195.359 360.678 187.122 357.463 179.501 355.976C176.849 355.458 168.035 355.545 164.678 356.122ZM383.209 380.398C380.278 384.348 375.737 388.367 372.065 390.263C370.327 391.16 366.71 392.447 362.722 393.588L356.214 395.45L348.946 395.522C343.117 395.58 341.055 395.463 338.538 394.932L335.399 394.269L334.621 395.31C329.758 401.815 324.039 410.688 323.504 412.559C322.318 416.702 323.056 420.668 325.93 425.6C328.695 430.345 335.118 437.001 339.101 439.248C342.482 441.155 346.049 441.817 348.636 441.019C353.702 439.455 357.589 435.815 369.582 421.4L376.205 413.44L377.164 409.847C377.692 407.871 378.374 405.264 378.681 404.053C378.988 402.843 380.714 396.428 382.517 389.798C384.321 383.168 385.796 377.57 385.796 377.359C385.796 376.882 385.968 376.68 383.209 380.398ZM418.908 411.842C416.089 413.27 412.067 416.805 409.929 419.734C409.028 420.968 407.663 422.743 406.896 423.677C406.129 424.611 405.109 426.071 404.629 426.922C402.773 430.213 398.603 435.65 392.387 442.885C389.624 446.101 387.553 448.066 384.191 450.664C378.137 455.342 378.018 455.808 383.529 453.246C389.241 450.59 397.089 450.604 402.885 453.281C405.896 454.672 409.522 456.539 411.634 457.787C412.897 458.534 416.175 460.098 418.919 461.264C423.861 463.363 423.933 463.381 426.662 463.184C428.435 463.056 429.753 462.754 430.363 462.337C432.047 461.184 437.601 455.072 438.209 453.703C438.846 452.269 440.68 444.088 441.036 441.096C442.637 427.618 441.773 423.122 436.176 415.804C434.188 413.204 433.231 412.267 431.936 411.654C429.704 410.596 429.136 410.513 424.837 410.616C421.526 410.695 420.926 410.819 418.908 411.842Z" fill="white" fill-opacity="0.05"/>
<path fill-rule="evenodd" clip-rule="evenodd" d="M696.469 0.842114C695.413 1.16339 694.561 1.90351 695.247 1.90351C695.423 1.90351 695.84 3.26528 696.174 4.92926C696.509 6.59361 697.081 8.93132 697.445 10.1244C697.81 11.3175 698.109 12.6378 698.111 13.0584C698.112 13.4791 698.347 14.2959 698.634 14.8735C698.92 15.4515 699.154 16.1942 699.154 16.5239C699.153 17.402 700.119 21.894 700.901 24.6425C702.218 29.2699 702.961 32.2208 704.229 37.8458C704.933 40.9724 705.716 43.8778 705.969 44.3022C706.221 44.7265 706.538 45.7168 706.674 46.5027C706.809 47.2887 707.07 48.2368 707.253 48.6101C707.437 48.9831 707.972 50.8811 708.443 52.8278C709.516 57.2674 709.6 57.5817 711.187 63.1521C712.483 67.6977 712.864 69.11 713.461 71.5875C713.632 72.2935 714.26 74.7691 714.858 77.0889C716.64 84.0059 716.941 85.2294 717.476 87.7201C717.757 89.0287 718.29 91.0917 718.662 92.3045C719.034 93.5174 719.523 95.4902 719.748 96.6884C719.973 97.887 720.291 99.1248 720.454 99.4391C720.616 99.7538 721.001 101.249 721.31 102.762C721.618 104.275 722.394 107.411 723.034 109.73C723.673 112.05 724.305 114.526 724.438 115.232C724.571 115.938 724.893 117.258 725.154 118.166C725.415 119.073 725.889 120.889 726.207 122.2C726.526 123.511 727.002 125.327 727.265 126.234C727.528 127.142 728.143 129.843 728.632 132.235C729.121 134.628 729.751 137.165 730.032 137.873C730.313 138.581 730.544 139.419 730.544 139.736C730.544 140.052 730.927 141.641 731.396 143.267C731.864 144.892 732.661 147.791 733.166 149.707C733.671 151.623 734.374 154.264 734.729 155.575C735.683 159.098 736.784 163.465 737.505 166.578C737.856 168.091 738.563 170.896 739.077 172.813C739.59 174.729 740.551 178.525 741.212 181.248C741.873 183.971 742.961 188.345 743.63 190.967C746.691 202.973 747.334 205.773 747.468 207.685C747.604 209.626 747.548 209.798 746.402 210.966C745.012 212.383 744.926 213.002 745.873 214.775L746.553 216.05L745.698 218.263C744.807 220.57 744.596 222.652 745.19 223.277C745.421 223.52 745.304 224.125 744.842 225.079C743.889 227.043 743.966 228.236 745.192 230.521C745.984 231.997 746.238 232.935 746.238 234.386C746.238 235.497 746.521 236.954 746.91 237.853C747.28 238.707 747.696 239.882 747.835 240.467C748.128 241.692 750.411 244.217 752.452 245.571C753.224 246.084 754.131 246.993 754.467 247.592C754.803 248.19 755.358 248.756 755.7 248.85C757.146 249.248 759.151 255.968 759.66 262.118C759.693 262.522 759.817 263.099 759.934 263.402C760.052 263.704 760.417 265.025 760.744 266.336C761.441 269.124 762.711 272.087 764.203 274.405C765.694 276.721 766.348 278.514 767.011 282.106C767.327 283.821 767.725 285.404 767.895 285.624C768.065 285.845 768.105 286.129 767.983 286.257C767.862 286.385 767.93 286.702 768.135 286.962C768.34 287.222 768.666 288.505 768.859 289.813C769.053 291.122 769.599 293.76 770.073 295.676C771.676 302.15 773.469 308.908 773.849 309.905C774.057 310.451 774.664 312.712 775.197 314.931C775.73 317.15 776.429 319.956 776.751 321.166C777.072 322.376 777.655 324.687 778.044 326.301C778.435 327.915 778.899 329.425 779.077 329.657C779.453 330.15 778.169 331.208 775.414 332.677C773.772 333.553 773.615 333.747 773.603 334.92C773.595 335.626 773.46 336.821 773.303 337.576C772.924 339.394 773.227 340.505 774.531 342.067C775.444 343.161 775.629 343.712 775.733 345.649C775.923 349.195 775.938 349.848 775.86 351.431C775.812 352.427 775.995 353.146 776.424 353.645C776.775 354.052 777.62 355.781 778.303 357.487C779.861 361.377 781.609 363.885 784.559 366.461C789.076 370.404 789.192 370.585 790.484 375.644C791.125 378.157 791.962 381.369 792.343 382.781C792.724 384.194 793.165 385.844 793.322 386.449C793.906 388.696 795.063 393.134 795.76 395.801C796.156 397.314 796.734 399.625 797.047 400.936C797.36 402.247 797.826 403.58 798.084 403.899C798.342 404.217 798.553 404.694 798.553 404.958C798.553 405.222 797.808 404.707 796.896 403.814C795.06 402.013 791.476 399.102 791.096 399.102C790.962 399.102 790.427 398.774 789.907 398.373C788.85 397.557 783.132 395.435 781.991 395.435C781.586 395.435 781.102 395.274 780.916 395.079C780.163 394.287 768.635 393.432 767.601 394.09C767.456 394.182 765.847 394.367 764.025 394.502C762.203 394.637 760.563 394.902 760.381 395.091C760.198 395.28 759.602 395.435 759.055 395.435C758.508 395.435 757.48 395.745 756.77 396.125C756.061 396.505 754.068 397.283 752.341 397.854C749.21 398.891 745.99 400.219 744.669 401.019C742.442 402.368 738.833 404.479 737.17 405.404C733.437 407.481 732.301 408.331 729.763 410.946C726.803 413.995 724.687 416.904 722.772 420.552C721.193 423.563 719.21 428.737 718.67 431.257C718.192 433.49 718.172 440.776 718.64 442.072C718.835 442.609 719.318 444.486 719.716 446.245C721.403 453.718 726.441 461.312 732.822 466.003C736.767 468.903 748.095 475.021 749.52 475.021C749.96 475.021 750.774 475.182 751.33 475.379C753.059 475.99 760.589 476.969 763.153 476.916C768.717 476.801 775.736 475.001 781.987 472.087C784.508 470.911 786.805 470.524 788.47 470.996C791.184 471.764 794.717 475.565 794.717 477.717C794.717 479.437 791.747 481.601 788.588 482.185C784.702 482.903 780.316 485.41 778.798 487.781C777.935 489.131 777.928 490.712 778.784 491.216C779.192 491.456 779.291 491.851 779.142 492.636C778.883 493.999 779.536 494.888 780.738 494.808C781.233 494.775 782.517 494.766 783.592 494.787C785.906 494.833 786.922 495.62 788.01 498.206C788.394 499.119 788.92 500.004 789.179 500.172C789.82 500.588 791.888 500.366 792.772 499.785C793.17 499.523 794.124 499.106 794.891 498.858C797.771 497.928 801.417 495.757 803.309 493.845C804.866 492.272 805.401 491.937 806.071 492.113C806.601 492.253 807.319 492.062 808.055 491.583C810.141 490.228 815.325 484.058 816.657 481.348C817.466 479.699 817.67 480.075 818.895 485.474C819.17 486.684 819.903 489.655 820.526 492.075C821.148 494.496 821.868 497.384 822.125 498.494C823.261 503.391 826.496 516.071 828.441 523.25C829.409 526.822 831.032 533.165 831.21 534.069C831.308 534.573 831.514 535.316 831.667 535.719C831.819 536.123 832.302 537.938 832.74 539.754C833.177 541.569 834.071 545.118 834.725 547.639C835.379 550.161 836.218 553.544 836.587 555.158C836.957 556.771 837.405 558.356 837.583 558.68C837.76 559.003 838.017 560.076 838.155 561.064C838.291 562.051 838.617 563.437 838.878 564.143C839.395 565.543 842.258 576.816 843.068 580.647C843.346 581.958 843.866 584.021 844.224 585.232C844.582 586.442 845.702 590.733 846.713 594.767C847.723 598.802 848.929 603.588 849.392 605.403C850.173 608.461 850.406 609.436 851.188 612.922C851.346 613.628 852.202 616.813 853.09 619.999C853.978 623.185 854.704 626.039 854.704 626.341C854.704 626.642 855.006 627.914 855.375 629.166C855.745 630.419 856.46 633.094 856.965 635.111C858.464 641.095 859.637 645.639 860.139 647.397C860.398 648.305 860.871 650.038 861.19 651.248C861.51 652.458 861.986 654.156 862.248 655.02C862.511 655.885 862.726 656.907 862.726 657.291C862.726 658.141 863.267 658.549 863.859 658.147C864.099 657.983 865.785 657.514 867.606 657.102C870.029 656.555 870.947 656.193 871.028 655.752C871.088 655.421 870.089 651.219 868.807 646.414C863.432 626.274 858.456 607.423 857.012 601.736C856.347 599.114 854.761 593.007 853.489 588.166C852.217 583.325 850.557 576.971 849.8 574.046C849.043 571.121 847.476 565.097 846.317 560.659C845.158 556.221 843.653 550.362 842.972 547.639C841.225 540.648 840.965 539.627 839.52 534.069C838.812 531.346 837.955 528.045 837.616 526.734C837.277 525.423 836.766 523.607 836.48 522.7C836.196 521.792 835.718 520.141 835.419 519.032C835.12 517.923 834.557 515.86 834.167 514.448C833.488 511.987 833.107 510.473 830.479 499.777C829.834 497.155 829.123 494.514 828.898 493.909C828.674 493.304 827.873 490.333 827.119 487.307C824.925 478.504 823.235 471.985 820.366 461.268C819.934 459.654 819.457 458.027 819.304 457.653C819.062 457.059 819.2 457.086 820.386 457.86C822.336 459.133 825.115 459.895 828.736 460.146C832.17 460.385 835.926 459.754 841.974 457.922C849.488 455.646 857.283 449.102 860.699 442.202C861.538 440.507 862.216 439.503 862.308 439.818C862.653 440.991 863.55 441.646 864.814 441.646C866.413 441.646 866.606 441.845 866.172 443.045C865.917 443.751 865.97 444.397 866.374 445.511C866.875 446.89 866.874 447.161 866.357 448.643C866.046 449.535 865.664 450.76 865.508 451.365C864.89 453.764 863.752 457.456 862.229 462.001C859.838 469.136 859.526 471.603 859.464 483.823C859.404 495.919 859.46 496.229 861.881 497.201C862.729 497.542 863.443 497.931 863.468 498.066C863.492 498.2 863.549 498.64 863.592 499.044C863.636 499.447 863.852 500.652 864.071 501.721C864.29 502.79 864.47 504.23 864.47 504.922C864.47 507.098 865.453 509.081 866.926 509.871C869.072 511.023 869.678 512.232 872.436 520.866C873.37 523.791 874.791 528.082 875.592 530.402C876.393 532.721 877.724 536.682 878.549 539.204C879.374 541.725 880.312 544.319 880.633 544.969C881.076 545.864 881.205 547.015 881.166 549.737C881.122 552.845 881.242 553.667 882.064 555.891C882.587 557.303 883.191 558.683 883.407 558.957C884.346 560.147 882.935 575.577 881.535 579.423C881.327 579.995 881.14 582.692 881.121 585.415C881.093 589.399 881.271 591.37 882.031 595.501C882.55 598.325 883.219 602.038 883.517 603.753C883.815 605.468 884.206 607.164 884.387 607.522C884.645 608.034 884.464 608.429 883.546 609.356C881.896 611.024 881.21 612.33 881.21 613.805C881.21 614.666 881.438 615.248 881.91 615.596C882.483 616.019 882.588 616.437 882.488 617.909C882.349 619.956 882.874 621.335 884.173 622.329C884.662 622.704 885.142 623.478 885.241 624.051C885.642 626.374 887.594 627.959 890.056 627.959C891.2 627.959 891.324 628.067 891.625 629.334C891.805 630.091 891.944 630.957 891.934 631.26C891.924 631.562 892.115 633.27 892.358 635.055C892.726 637.749 892.975 638.509 893.824 639.526C894.387 640.2 895.376 640.934 896.022 641.158C897.268 641.591 898.259 642.827 898.269 643.962C898.298 647.206 899.488 652.222 900.379 652.852C900.892 653.214 901.09 653.755 901.09 654.789C901.09 656.734 901.816 658.418 903.171 659.617C904.087 660.428 904.222 660.717 903.884 661.145C903.655 661.436 903.382 662.664 903.278 663.875C903.073 666.245 903.408 667.507 904.864 669.859C905.882 671.503 905.752 673.205 904.395 676.022C903.92 677.008 903.53 678.026 903.528 678.284C903.521 679.239 901.83 682.539 900.177 684.825C898.684 686.889 898.474 687.397 898.474 688.948C898.474 690.402 898.629 690.842 899.346 691.421C899.826 691.808 900.454 692.135 900.741 692.148C901.029 692.16 901.58 692.7 901.967 693.348C902.391 694.059 903.013 694.572 903.536 694.643C904.055 694.714 904.686 695.23 905.106 695.927C905.529 696.628 906.155 697.138 906.676 697.206C907.152 697.269 908.208 697.64 909.021 698.031C909.834 698.423 910.741 698.743 911.037 698.743C911.959 698.743 913.976 697.713 915.299 696.566C916.652 695.393 917.482 695.548 917.482 696.975C917.482 697.478 918.04 697.952 919.403 698.608L921.324 699.533L922.502 698.768C923.15 698.346 923.772 697.715 923.884 697.364C923.997 697.013 924.229 696.479 924.401 696.176C926.365 692.716 926.21 687.342 924.029 683.339C923.071 681.581 923.127 679.246 924.197 676.371C926.266 670.808 926.564 669.178 926.396 664.328L926.24 659.804L924.712 658.086C923.037 656.202 922.798 655.257 922.011 647.397C921.041 637.723 921.083 636.773 922.444 637.539C922.876 637.783 924.574 637.991 926.215 638.001C928.732 638.017 929.416 637.887 930.572 637.169L931.944 636.319L935.698 638.374C938.076 639.675 939.882 640.429 940.622 640.429C941.942 640.429 944.296 638.827 945.267 637.268C946.192 635.785 947.871 635.181 949.669 635.685C951.118 636.092 954.822 637.811 958.001 639.552C959.485 640.365 965.075 642.004 971.366 643.47C973.776 644.032 979.526 644.629 981.396 644.512C982.453 644.445 985.611 643.039 986.712 642.145C987.279 641.685 987.409 641.145 987.409 639.262V636.945L988.626 636.761C989.553 636.622 989.959 636.315 990.329 635.478C991.232 633.434 991.799 633.005 993.272 633.252C994.245 633.416 1000.02 636.133 1001.09 636.933C1001.14 636.966 1001.03 637.529 1000.85 638.182C1000.67 638.837 1000.62 640.787 1000.74 642.516L1000.95 645.66L1004.03 648.984C1005.73 650.812 1007.11 652.425 1007.11 652.568C1007.11 652.711 1007.65 653.83 1008.31 655.054C1009.83 657.88 1011.11 661.847 1011.65 665.368C1011.88 666.881 1012.23 668.574 1012.42 669.129C1012.82 670.263 1014.9 672.337 1015.64 672.337C1016.29 672.337 1017.77 674.246 1018.82 676.421C1019.57 677.966 1020.01 678.376 1022.18 679.525C1026 681.546 1027.99 681.208 1028.68 678.418C1028.95 677.331 1029.02 677.293 1030.61 677.414C1032.16 677.532 1032.34 677.443 1033.81 675.903C1034.81 674.854 1035.36 673.944 1035.36 673.366C1035.36 672.868 1035.77 672.066 1036.27 671.575C1039.59 668.316 1038.99 662.1 1035.19 660.397C1033.35 659.571 1031.51 657.594 1031.12 656.016C1030.51 653.537 1030.37 651.798 1030.79 651.798C1031.01 651.798 1031.18 651.963 1031.18 652.165C1031.18 652.367 1031.72 652.532 1032.38 652.532C1033.05 652.532 1033.98 652.719 1034.46 652.948C1035.14 653.275 1035.84 653.229 1037.7 652.738C1040.46 652.009 1040.91 651.648 1042.56 648.792C1043.42 647.299 1044.06 646.596 1044.72 646.435C1045.23 646.309 1046.28 645.585 1047.05 644.827C1048.92 642.976 1049.25 642.832 1053.64 641.916C1057.53 641.107 1058.82 640.508 1062.55 637.772C1065.25 635.789 1067.3 635.208 1069.32 635.849C1070.19 636.123 1071.24 636.54 1071.66 636.776C1072.08 637.011 1073.65 637.429 1075.15 637.704C1077.65 638.164 1078.03 638.148 1079.79 637.509C1082.87 636.395 1083.97 635.428 1089.15 629.282C1090.32 627.883 1090.4 627.853 1092.99 627.763C1098.87 627.559 1106.26 622.998 1108.4 618.25C1109.22 616.437 1110.11 615.97 1113.3 615.672C1116.73 615.351 1118.9 614.347 1122.69 611.333C1126.92 607.955 1129.15 606.466 1131.28 605.577C1138.14 602.71 1142 600.382 1143.65 598.107C1144.18 597.38 1144.82 596.785 1145.08 596.785C1145.33 596.785 1145.85 596.083 1146.22 595.226C1146.59 594.368 1147.78 592.264 1148.85 590.55C1150.28 588.262 1150.8 587.088 1150.8 586.139C1150.81 584.363 1150.32 583.66 1146.57 580.094L1145.3 578.882L1145.25 574.941C1145.17 567.755 1144.59 566.407 1138.79 559.961C1136.66 557.602 1136.4 557.005 1136.66 555.167C1136.79 554.263 1137.04 553.428 1137.22 553.311C1137.41 553.193 1137.55 552.767 1137.55 552.364C1137.55 551.96 1137.4 551.732 1137.2 551.857C1137.01 551.982 1136.86 551.918 1136.86 551.717C1136.86 551.136 1137.48 550.887 1137.65 551.396C1137.78 551.755 1137.91 551.759 1138.26 551.417C1138.62 551.063 1138.62 550.56 1138.26 548.807C1137.75 546.273 1137.95 545.417 1139.48 543.421C1141.8 540.389 1141.84 539.865 1140.21 534.691C1139.27 531.745 1139.06 530.561 1139.2 529.108L1139.37 527.265L1137.33 526.287C1136.21 525.749 1134.42 524.954 1133.37 524.522C1132.31 524.089 1130.74 523.437 1129.88 523.074C1129.02 522.71 1126.04 521.5 1123.25 520.383C1120.47 519.267 1117.1 517.835 1115.76 517.202C1114.41 516.569 1112.76 515.803 1112.09 515.499C1111.42 515.196 1110.56 514.8 1110.17 514.619C1109.79 514.438 1108.17 513.844 1106.57 513.3C1104.97 512.756 1103.44 512.079 1103.17 511.794C1102.9 511.51 1102.66 510.588 1102.63 509.745C1102.46 503.876 1101.41 501.222 1097.76 497.413C1095.02 494.545 1094.93 494.307 1095.21 490.105L1095.45 486.414L1094.35 485.333C1093.62 484.619 1092.21 483.92 1090.2 483.274C1088.53 482.737 1084.96 481.587 1082.27 480.719C1077.44 479.158 1073.43 478.01 1069.37 477.027C1068.22 476.748 1066.26 476.193 1065.01 475.793C1063.76 475.393 1061.02 474.637 1058.91 474.114C1056.8 473.59 1054.76 473.019 1054.37 472.844C1053.99 472.67 1052.79 472.254 1051.71 471.919C1048.84 471.033 1048.57 470.74 1048.97 468.97C1049.3 467.464 1049.04 466.06 1048.06 464.074C1047.79 463.539 1047.58 462.932 1047.57 462.724C1047.57 462.517 1046.63 461.132 1045.48 459.647L1043.39 456.948V454.236C1043.39 452.745 1043.17 450.986 1042.91 450.328C1042.43 449.109 1040.69 447.342 1039.4 446.746C1039 446.564 1038.44 446.256 1038.15 446.061C1037.87 445.867 1036.69 445.27 1035.54 444.736C1033.68 443.874 1032.35 443.423 1028.56 442.378C1026.51 441.81 1019.91 439.387 1018.64 438.734C1018.36 438.586 1017.74 436.817 1017.23 434.65C1016.72 432.547 1016.06 430.332 1015.75 429.726C1014.97 428.195 1012.78 426.072 1011.15 425.268C1009.51 424.461 1009.33 423.893 1009.36 419.641C1009.38 416.754 1009.44 416.529 1010.08 416.599C1010.46 416.641 1011.72 416.759 1012.87 416.862C1014.02 416.965 1016.3 417.227 1017.93 417.444C1019.56 417.662 1022.07 417.984 1023.51 418.162C1026.98 418.589 1037.44 418.419 1038.33 417.919C1038.71 417.704 1040.13 417.428 1041.47 417.306C1046.48 416.851 1050.69 415.744 1060.65 412.264C1062.38 411.66 1064.5 410.942 1065.36 410.668C1066.22 410.394 1068.57 409.502 1070.58 408.687C1072.58 407.872 1074.28 407.261 1074.34 407.33C1074.41 407.398 1074.09 407.762 1073.64 408.138C1073.18 408.514 1072.27 409.679 1071.61 410.727C1067.64 417.047 1067.56 417.41 1069.54 419.815C1070.33 420.784 1071.24 422.008 1071.54 422.535C1072.38 423.984 1075.44 426.941 1076.92 427.739C1078.72 428.704 1081.91 429.627 1084.02 429.793C1085.64 429.921 1087.89 429.439 1103.2 425.672C1106.91 424.76 1107.46 424.887 1111.77 427.664C1115.56 430.099 1119.93 433.752 1126.49 439.964C1128.21 441.595 1129.8 442.94 1130.01 442.952C1130.84 443 1131.14 442.34 1131.03 440.723C1130.92 439.265 1131.04 438.901 1131.94 437.961C1132.85 436.999 1134.07 436.6 1135.29 436.869C1135.48 436.911 1136.18 436.994 1136.86 437.052C1137.53 437.11 1139.1 437.657 1140.35 438.266C1144.22 440.153 1146.4 440.667 1149.39 440.393C1151.14 440.233 1152.34 439.916 1152.95 439.45C1153.86 438.753 1153.89 438.755 1156.26 439.696C1162.85 442.304 1164.03 442.524 1171.57 442.545L1178.55 442.563L1181.07 440.96C1183.67 439.311 1184.24 438.446 1183.76 436.871C1183.55 436.162 1183.35 436.099 1181.9 436.286C1177.31 436.879 1174.71 436.945 1172.68 436.521C1169.04 435.761 1165.32 434.126 1160.11 430.999C1158.6 430.098 1156.78 429.03 1156.06 428.626C1154.76 427.9 1152.12 425.575 1147.69 421.26C1145.45 419.074 1141.53 415.973 1141.01 415.973C1140.87 415.973 1139.68 415.325 1138.37 414.533C1137.06 413.741 1134.74 412.576 1133.22 411.943C1131.69 411.31 1130.05 410.495 1129.55 410.132C1128.53 409.376 1123.23 407.604 1120.64 407.152C1119.68 406.985 1117.72 406.579 1116.28 406.249C1114.84 405.919 1112.96 405.596 1112.09 405.529C1111.23 405.463 1109.03 405.293 1107.2 405.153C1103.76 404.887 1100.28 405.244 1095.96 406.307C1094.02 406.781 1093.41 406.804 1092.55 406.434C1091.98 406.185 1091.52 405.787 1091.52 405.549C1091.52 404.823 1096.8 401.708 1099.38 400.914C1102.28 400.021 1109.62 399.119 1114.09 399.11C1120.1 399.096 1126.39 400.052 1126.39 400.98C1126.39 401.605 1129.09 401.314 1129.93 400.6L1130.75 399.897L1130.02 398.858C1129.18 397.664 1123.45 392.982 1122.4 392.631C1122.01 392.502 1120.84 391.734 1119.8 390.924C1118.76 390.114 1116.04 388.445 1113.76 387.217C1108.62 384.443 1107.24 383.668 1106.15 382.948C1105.02 382.199 1100.99 380.439 1099.69 380.129C1098.27 379.788 1096.12 379.795 1094.54 380.145C1093.32 380.417 1093.24 380.387 1093.56 379.759C1094.18 378.533 1092.86 376.968 1090.21 375.81C1088.91 375.245 1087.7 374.642 1087.52 374.472C1087.34 374.302 1086.98 374.163 1086.72 374.163C1086.45 374.163 1085.43 373.771 1084.43 373.292C1082.19 372.214 1079.36 370.889 1078.44 370.484C1075.15 369.049 1067.18 367.475 1062.34 367.303C1058.5 367.167 1057.84 367.242 1055.36 368.1C1053.86 368.62 1052.31 369.188 1051.93 369.361C1051.55 369.534 1050.18 370.124 1048.89 370.671C1046.91 371.512 1046.41 371.913 1045.66 373.266C1045.17 374.146 1044.62 375.739 1044.43 376.807C1043.97 379.394 1042.89 382.389 1041.15 385.912C1039.99 388.257 1039.15 389.35 1036.76 391.617C1033.11 395.07 1028.61 398.236 1026.39 398.907C1020.68 400.639 1013.05 400.567 1009.38 398.747C1009 398.557 1007.66 397.965 1006.42 397.431C1001.26 395.224 997.582 392.672 996.128 390.3C994.629 387.852 994.383 386.358 995.07 383.87C996.035 380.38 998.86 379.166 1002.35 380.74C1004.12 381.537 1004.48 382.067 1004.85 384.423C1005.2 386.616 1006.71 388.183 1009.21 388.947C1013.62 390.292 1015.43 390.673 1018.43 390.894C1022.71 391.208 1025.32 390.531 1031.35 387.536C1034.03 386.208 1038.53 382.607 1038.93 381.477C1039.07 381.085 1039.32 380.764 1039.5 380.764C1039.68 380.764 1039.93 380.31 1040.05 379.756C1040.18 379.201 1040.65 377.922 1041.1 376.913C1043.61 371.243 1044.07 368.708 1043.47 363.703C1043.08 360.518 1040.68 356.633 1037.59 354.205C1036.79 353.583 1034.94 352.028 1033.46 350.75C1030.85 348.504 1026.25 345.571 1025.32 345.561C1025.06 345.558 1023.86 345.048 1022.64 344.428C1021.41 343.808 1019.43 343.06 1018.23 342.766C1017.03 342.472 1015.84 342.045 1015.58 341.816C1015.32 341.588 1014.21 341.356 1013.11 341.301C1012.02 341.246 1009.87 340.865 1008.32 340.455C1006.22 339.895 1003.93 339.661 999.141 339.518C995.63 339.413 992.613 339.233 992.437 339.118C991.868 338.749 992.747 337.593 993.762 337.376C994.297 337.261 995.394 336.497 996.202 335.677C997.563 334.296 997.815 334.186 999.62 334.186C1001.88 334.186 1003.22 333.562 1004.42 331.956C1005.13 330.995 1005.37 330.876 1005.93 331.215C1006.89 331.797 1024.15 334.393 1027.94 334.525C1028.94 334.559 1031.22 334.897 1033 335.274C1034.78 335.652 1038.36 336.405 1040.95 336.948C1044.05 337.601 1045.88 338.167 1046.33 338.615C1046.98 339.273 1046.98 339.318 1046.37 340.032C1046.02 340.437 1045.08 341.105 1044.27 341.515C1041.6 342.876 1040.48 344.836 1041.47 346.427C1041.97 347.226 1045.84 349.957 1046.47 349.957C1046.6 349.957 1047.34 350.313 1048.1 350.748C1048.86 351.183 1050.35 351.745 1051.41 351.995C1052.46 352.245 1054.9 352.866 1056.81 353.375C1058.73 353.884 1062.38 354.728 1064.91 355.25C1070.76 356.456 1071.43 356.716 1071.15 357.665C1071.03 358.065 1070.85 358.708 1070.73 359.094C1070.48 359.931 1071.51 360.627 1073.05 360.674C1073.62 360.691 1074.08 360.87 1074.08 361.072C1074.08 361.274 1074.36 361.168 1074.71 360.835C1075.56 360.028 1080.39 359.521 1087.42 359.501C1089.1 359.496 1090.47 359.346 1090.47 359.167C1090.47 358.697 1088.19 358.418 1082.53 358.198C1079.8 358.092 1077.17 357.849 1076.69 357.659C1075.92 357.348 1075.87 357.218 1076.23 356.385C1076.76 355.169 1076.2 353.849 1074.85 353.115C1073.98 352.644 1069.91 351.72 1066.58 351.238C1064.14 350.886 1063.2 350.706 1062.05 350.371C1061.37 350.176 1060.82 350.069 1060.82 350.134C1060.82 350.199 1059.77 349.852 1058.47 349.363C1057.18 348.874 1055.17 348.127 1054.02 347.702C1052.09 346.99 1050.36 345.792 1050.36 345.168C1050.36 345.024 1050.64 344.813 1050.97 344.698C1052.12 344.304 1054.72 342.556 1055.89 341.395C1057.01 340.283 1057.05 340.154 1056.88 338.09C1056.52 333.771 1053.84 332.29 1040.07 328.806C1038.15 328.321 1035.64 327.756 1034.49 327.551C1031.83 327.076 1026.98 325.532 1024.73 324.44C1023.77 323.975 1021.96 323.156 1020.72 322.619C1018.13 321.508 1016.18 320.09 1016.18 319.323C1016.18 318.574 1017.79 317.807 1020.38 317.315C1021.62 317.08 1022.91 316.628 1023.25 316.311C1024.73 314.909 1023.4 311.969 1020.42 310.059C1018.6 308.891 1014.81 307.332 1013.64 307.27C1013.22 307.248 1012.88 307.064 1012.88 306.863C1012.91 306.232 1013.84 304.479 1014.15 304.479C1014.31 304.479 1014.44 304.149 1014.44 303.745C1014.44 302.829 1014.77 302.829 1016.82 303.74C1017.71 304.141 1019.86 304.889 1021.59 305.403C1025.09 306.446 1031.53 309.518 1031.53 310.147C1031.53 310.37 1030.88 310.795 1030.08 311.092C1028.19 311.793 1027.79 312.485 1028.38 313.992C1029.54 316.931 1035.08 317.918 1049.32 317.722C1057.28 317.612 1057.54 317.631 1058.47 318.406C1059.61 319.349 1059.67 319.996 1058.75 321.23C1057.98 322.26 1058.18 322.881 1059.68 324.061C1060.47 324.682 1061.16 324.749 1066.26 324.695L1071.96 324.635L1072.56 325.59C1073.05 326.391 1073.08 326.739 1072.74 327.733C1072.19 329.339 1072.16 329.264 1073.72 329.922C1074.86 330.4 1076.03 330.468 1080.26 330.298C1083.09 330.184 1085.88 330.081 1086.46 330.069C1087.03 330.057 1088.24 330.355 1089.14 330.731C1091.22 331.599 1091.64 331.186 1090.14 329.745C1088.65 328.316 1087.46 327.845 1086.04 328.125C1085.32 328.265 1084.53 328.139 1083.87 327.782C1083.3 327.472 1081.97 327.218 1080.92 327.218C1079.86 327.218 1078.9 327.05 1078.78 326.845C1078.66 326.64 1078.43 326.56 1078.26 326.668C1077.55 327.128 1077.56 325.988 1078.27 325.194C1079.46 323.859 1079 321.998 1077.16 320.717C1075.88 319.823 1075.33 319.708 1071.22 319.472C1067.66 319.267 1066.56 319.077 1066.03 318.574C1065.66 318.223 1065.36 317.825 1065.36 317.691C1065.36 317.557 1065.92 316.752 1066.62 315.902C1067.76 314.495 1067.84 314.265 1067.47 313.336C1066.74 311.469 1064.98 311.14 1055.94 311.168C1053.74 311.174 1051.46 311.177 1050.88 311.173C1048.68 311.16 1045.59 310.74 1044.14 310.255L1042.62 309.75L1043.61 308.513C1044.59 307.294 1044.72 306.225 1044.02 305.317C1043.26 304.347 1039.89 302.272 1037.09 301.055C1035.4 300.319 1033.87 299.39 1033.5 298.874C1032.88 298.014 1032.88 297.922 1033.46 296.734C1033.8 296.052 1034.98 294.547 1036.09 293.391C1037.8 291.618 1038.08 291.132 1037.94 290.282C1037.72 288.996 1037.58 288.874 1036.98 289.399C1036.6 289.734 1036.45 289.699 1036.28 289.238C1035.96 288.36 1036.03 288.083 1036.41 288.708C1036.68 289.144 1036.75 289.067 1036.75 288.338C1036.76 287.626 1036.23 286.995 1034.41 285.559C1029.72 281.865 1023.08 278.099 1020.28 277.558C1018.59 277.232 1018.59 276.619 1020.28 276.558C1021 276.532 1021.9 276.465 1022.29 276.409C1023.02 276.302 1024.95 276.116 1031.37 275.537C1035.38 275.175 1036.74 274.768 1038.07 273.537C1039.16 272.522 1039.07 270.003 1037.94 270.003C1036.84 270.003 1037.57 269.378 1039.17 268.946C1040.11 268.692 1041.61 268.001 1042.5 267.41C1043.38 266.819 1044.25 266.336 1044.41 266.336C1044.58 266.336 1044.82 265.689 1044.95 264.897C1045.08 264.106 1045.38 263.378 1045.63 263.279C1045.88 263.18 1047.55 262.986 1049.35 262.849C1054.01 262.494 1057.78 261.454 1059.98 259.915C1062.36 258.251 1064.24 255.928 1064.39 254.465C1064.51 253.223 1063.68 251.076 1062.35 249.215C1061.4 247.875 1061.18 246.507 1062.04 247.256C1062.45 247.615 1063.23 247.517 1065.96 246.767C1067.83 246.251 1069.8 245.751 1070.32 245.655C1072.1 245.332 1077.38 242.765 1079.83 241.035C1081.83 239.625 1082.65 239.271 1084.37 239.082C1087.14 238.775 1091 237.693 1092.76 236.728C1093.54 236.299 1094.99 235.271 1095.99 234.445C1097.69 233.028 1097.95 232.934 1100.5 232.8C1101.98 232.721 1103.44 232.582 1103.72 232.489C1104.01 232.396 1104.76 232.196 1105.38 232.044C1106.01 231.892 1107.15 231.129 1107.91 230.347C1109.06 229.179 1109.3 228.679 1109.3 227.523C1109.3 226.191 1109.4 226.072 1111.1 225.235C1113.56 224.024 1116.96 221.452 1117.73 220.223C1118.2 219.48 1118.37 218.506 1118.37 216.591C1118.37 214.187 1118.3 213.924 1117.48 213.359C1116.99 213.02 1115.93 212.618 1115.12 212.465C1113.68 212.19 1113.58 212.054 1113.99 210.946C1114.11 210.637 1113.77 209.488 1113.23 208.392C1112.49 206.865 1111.91 206.204 1110.75 205.569C1108.44 204.309 1106.6 204.128 1099.19 204.428C1095.45 204.58 1087.68 204.875 1081.92 205.084C1076.17 205.293 1069.26 205.627 1066.58 205.825C1063.89 206.023 1060.44 206.264 1058.91 206.36C1057.37 206.455 1055.25 206.611 1054.2 206.705C1053.14 206.799 1051.02 206.977 1049.49 207.1C1046.53 207.337 1042.82 207.809 1039.38 208.388C1038.22 208.581 1036.5 208.823 1035.54 208.925C1033.68 209.123 1031.19 209.604 1028.91 210.204C1028.15 210.406 1026.89 210.579 1026.12 210.589C1025.36 210.599 1023.79 210.939 1022.63 211.345C1021.48 211.75 1018.42 212.494 1015.83 212.998C1013.25 213.502 1010.26 214.173 1009.21 214.491C1008.15 214.808 1006.27 215.368 1005.02 215.735C1002.46 216.489 997.529 218.151 996.477 218.615C996.094 218.784 995.186 219.193 994.46 219.523C993.734 219.854 992.95 220.13 992.716 220.137C992.483 220.144 991.664 220.468 990.897 220.858C990.13 221.248 989.294 221.572 989.039 221.579C988.422 221.595 982.357 224.774 981.64 225.457C981.33 225.752 980.917 225.993 980.721 225.993C980.525 225.993 979.752 226.45 979.004 227.008C978.256 227.567 977.252 228.226 976.772 228.473C971.402 231.238 961.326 239.722 957.504 244.697C956.019 246.631 953.754 250.08 953.754 250.409C953.754 250.535 953.502 251.24 953.195 251.977C952.888 252.713 952.503 253.646 952.341 254.049C951.897 255.151 950.926 259.247 950.482 261.893C950.176 263.714 949.927 264.299 949.363 264.518C948.964 264.673 947.835 265.762 946.856 266.936L945.075 269.071L944.149 268.162C943.314 267.342 943.239 267.056 943.385 265.236C943.605 262.484 943.271 261.761 941.447 261.029C940.151 260.508 939.665 260.479 938.376 260.844C937.534 261.082 936.398 261.612 935.851 262.022C934.752 262.844 931.781 263.373 931.781 262.746C931.781 262.534 932.309 262.018 932.954 261.6C933.598 261.18 934.533 260.218 935.032 259.461C935.856 258.209 935.904 257.944 935.567 256.546C935.107 254.648 934.641 254.203 931.781 252.93C929.462 251.898 927.04 251.611 924.893 252.115C924.27 252.261 923.763 252.261 923.767 252.115C923.771 251.968 924.791 251.058 926.034 250.091C927.876 248.659 928.294 248.144 928.294 247.31C928.294 246.747 928.202 246.19 928.09 246.072C927.978 245.955 927.132 246.257 926.208 246.745C925.286 247.232 924.22 247.631 923.84 247.631C923.461 247.631 922.542 247.853 921.798 248.125C918.905 249.182 916.095 248.56 914.237 246.452C913.344 245.438 913.107 245.357 911.53 245.516C910.556 245.614 909.498 245.979 909.106 246.353C908.723 246.717 908.295 246.894 908.154 246.747C907.891 246.47 910.157 244.114 913.052 241.653C913.954 240.887 914.692 240.103 914.692 239.911C914.692 239.285 912.332 239.544 909.561 240.475C906.268 241.58 905.444 241.607 903.482 240.671C900.74 239.362 898.905 239.69 894.812 242.219C892.668 243.544 890.169 244.103 888.689 243.59C888.057 243.371 886.783 242.362 885.858 241.349C880.773 235.781 874.054 235.973 868.403 241.85C867.209 243.09 866.153 244.023 866.057 243.921C865.754 243.603 867.857 239.422 868.776 238.515C869.841 237.462 869.624 236.628 868.285 236.628C866.956 236.628 865.758 237.209 863.204 239.089C860.611 241 858.398 243.759 856.189 247.839C855.276 249.524 854.324 250.99 854.073 251.097C853.39 251.389 850.442 250.606 849.753 249.95C849.421 249.634 848.894 249.479 848.581 249.605C848.113 249.794 848.055 250.159 848.252 251.667C848.541 253.875 848.153 254.019 846.785 252.216C844.647 249.398 843.385 251.309 843.376 257.378C843.369 261.432 843.692 262.798 845.144 264.869C845.357 265.171 845.632 265.719 845.756 266.085C845.943 266.638 845.849 266.709 845.198 266.502C844.768 266.365 843.607 265.696 842.618 265.015C841.028 263.919 840.751 263.532 840.214 261.664C839.263 258.351 838.951 257.997 836.542 257.499C834.206 257.016 833.809 256.561 834.596 255.271C835.286 254.141 838.845 245.282 839.36 243.414C840.521 239.193 840.778 236.117 840.291 232.227C840.027 230.116 839.221 227.214 838.661 226.359C838.331 225.855 837.867 224.579 837.63 223.524C836.755 219.623 832.59 210.673 829.374 205.782C828.763 204.852 827.931 203.408 827.526 202.572C827.12 201.737 826.669 201.053 826.522 201.053C826.376 201.053 825.959 200.517 825.596 199.861C825.027 198.833 823.234 196.154 822.345 195.001C822.189 194.8 821.056 193.232 819.826 191.517C818.596 189.803 816.947 187.575 816.161 186.566C805.173 172.472 800.142 166.935 793.403 161.524C787.585 156.851 785.742 155.32 782.477 152.44C777.844 148.354 771.069 142.993 768.142 141.095C765.485 139.373 765.431 139.357 762.91 139.495C758.651 139.728 756.909 141.703 757.017 146.177C757.07 148.393 757.207 148.923 757.936 149.723C758.9 150.78 758.991 151.269 758.358 151.973C757.298 153.151 756.618 155.497 756.493 158.406C756.365 161.368 756.389 161.474 757.907 164.55C759.654 168.092 762.374 172.422 764.68 175.33C766.03 177.033 766.162 177.342 765.663 177.636C765.346 177.822 764.595 178.727 763.992 179.648C762.962 181.223 762.899 181.511 762.919 184.565C762.937 187.255 763.093 188.148 763.833 189.795C764.828 192.005 767.424 195.755 769.393 197.823L770.682 199.177L769.882 200.139C768.832 201.401 768.634 202.192 768.599 205.271C768.573 207.579 768.701 208.087 769.873 210.309C771.798 213.962 774.879 217.838 780.57 223.763C783.363 226.672 785.649 229.175 785.649 229.326C785.649 229.477 785.024 230.283 784.262 231.118C783.45 232.007 782.711 233.274 782.479 234.174C781.914 236.37 782.273 239.443 783.323 241.396C783.811 242.304 784.519 243.63 784.898 244.344C785.958 246.341 795.244 255.991 798.476 258.454C805.283 263.643 806.417 264.473 806.716 264.487C806.89 264.495 807.596 264.955 808.286 265.509C810.423 267.226 812.821 268.903 813.139 268.903C813.305 268.903 813.713 269.219 814.045 269.604C814.376 269.989 815.01 270.4 815.454 270.517C816.103 270.688 816.308 271.067 816.507 272.464C816.884 275.106 818.135 277.234 821.206 280.456L824.003 283.39L821.828 283.605C820.632 283.723 819.158 284.022 818.553 284.27C817.575 284.671 817.255 284.617 815.687 283.781C814.716 283.263 813.744 282.84 813.528 282.84C813.312 282.84 812.718 282.54 812.208 282.172C811.699 281.805 810.498 281.206 809.539 280.841C805.322 279.237 804.482 278.745 804.482 277.882C804.482 276.78 803.221 272.497 802.203 270.138C801.756 269.103 801.283 267.655 801.152 266.921C800.88 265.394 799.633 264.166 796.416 262.255C795.271 261.575 793.809 260.596 793.169 260.082C792.528 259.567 790.926 258.674 789.611 258.097C788.295 257.52 786.983 256.863 786.695 256.635C786.407 256.407 785.622 255.96 784.951 255.642C782.355 254.41 780.234 252.201 778.09 248.495C773.078 239.829 771.839 236.919 771.711 233.508C771.575 229.875 771.631 229.589 773.07 226.543C773.833 224.929 774.559 223.159 774.682 222.61C774.994 221.229 773.839 218.853 771.865 216.816C770.405 215.309 770.098 215.158 768.142 214.99C766.024 214.807 766.007 214.797 765.537 213.364C765.277 212.57 764.811 211.628 764.503 211.27C763.887 210.553 755.833 206.188 755.128 206.188C754.886 206.188 754.465 205.816 754.193 205.362C753.636 204.437 751.47 196.312 751.47 195.151C751.47 194.74 751.315 194.1 751.127 193.729C750.938 193.358 750.232 190.852 749.559 188.16C748.248 182.922 746.279 175.347 745.142 171.162C744.758 169.75 744.242 167.687 743.996 166.578C743.749 165.468 743.339 163.818 743.086 162.91C742.547 160.984 742.611 161.236 742.26 159.609C742.108 158.903 741.776 157.583 741.521 156.675C741.266 155.768 740.643 153.457 740.135 151.541C739.628 149.624 738.828 146.736 738.358 145.122C737.888 143.509 737.183 140.951 736.791 139.438C736.4 137.925 735.695 135.202 735.224 133.386C734.753 131.571 734.072 128.765 733.711 127.151C733.349 125.538 732.895 123.64 732.702 122.934C732.128 120.84 730.837 115.825 730.718 115.232C730.4 113.629 730.072 112.441 729.86 112.114C729.728 111.913 729.425 110.592 729.185 109.18C728.946 107.768 728.606 106.283 728.43 105.879C728.254 105.476 727.551 102.918 726.868 100.195C726.184 97.4714 725.486 94.7482 725.316 94.1431C724.75 92.1241 723.548 87.5778 722.697 84.2406C722.234 82.4252 721.289 78.7943 720.597 76.172C719.049 70.3108 719.056 70.3651 719.887 70.1854C720.261 70.1051 721.124 69.676 721.806 69.2322C722.488 68.788 723.594 68.2097 724.266 67.946C724.937 67.6826 725.981 67.2388 726.586 66.9601C727.19 66.681 727.926 66.4529 728.222 66.4529C728.517 66.4529 728.856 66.2878 728.974 66.0861C729.093 65.8844 730.225 65.7194 731.491 65.7194C733.419 65.7194 733.98 65.8705 734.958 66.655C735.599 67.1695 736.124 67.8345 736.124 68.1323C736.124 68.4304 735.653 69.655 735.078 70.854C733.944 73.2144 733.799 74.131 734.45 74.815C735.671 76.0986 740.118 74.2245 744.893 70.4139C746.359 69.2439 747.652 68.2867 747.765 68.2867C747.879 68.2867 749.269 67.2931 750.854 66.0784C753.976 63.6868 758.729 60.3119 763.153 57.3456C764.688 56.3168 766.586 54.9745 767.373 54.3623C768.159 53.7502 768.921 53.2496 769.066 53.2496C769.212 53.2496 769.925 52.7545 770.652 52.1493C771.378 51.5442 772.078 51.0491 772.208 51.0491C772.337 51.0491 772.942 50.6772 773.552 50.2227C776.523 48.0123 783.067 44.4562 788.264 42.2278C788.648 42.0631 789.511 41.7572 790.183 41.5478C790.854 41.3388 792.423 40.8481 793.67 40.4578C797.517 39.2538 799.121 38.9464 801.585 38.9409C804.181 38.9354 805.528 38.6721 805.528 38.1696C805.528 37.9917 805.192 37.8458 804.782 37.8458C804.372 37.8458 803.271 37.3507 802.336 36.7455C801.4 36.1404 800.55 35.6452 800.447 35.6452C800.343 35.6452 799.6 35.3302 798.795 34.9451C795.765 33.4946 789.785 32.3444 785.275 32.3444C783.946 32.3444 782.863 32.2204 782.869 32.0693C782.896 31.3369 795.067 25.2084 798.066 24.4169C798.529 24.2944 798.994 24.0476 799.1 23.8683C799.205 23.6889 799.669 23.5422 800.131 23.5422C800.609 23.5422 801.128 23.2312 801.337 22.8197C801.657 22.1925 801.53 22.0033 800.379 21.3861C798.976 20.6331 797.329 20.3342 792.798 20.0096C788.273 19.6858 781.981 20.9008 776.329 23.1901C770.829 25.4178 769.339 26.1389 767.08 27.6682C765.962 28.4245 764.974 29.0436 764.885 29.0436C764.796 29.0436 763.271 30.0958 761.497 31.382C759.722 32.6683 757.568 34.0935 756.709 34.5497C755.85 35.0056 753.931 36.2544 752.444 37.325C750.168 38.9644 744.969 41.8801 744.322 41.8801C744.217 41.8801 743.526 42.3011 742.786 42.8157C741.587 43.6497 735.59 45.5477 734.152 45.5477C733.428 45.5477 733.707 43.9545 734.894 41.316C736.139 38.5488 736.51 35.5609 735.891 33.2741C734.95 29.794 734.728 29.4103 733.661 29.4103C733.12 29.4103 732.58 29.2446 732.461 29.0425C732.194 28.5873 725.863 28.9039 724.95 29.418C724.599 29.6154 723.899 29.7771 723.394 29.7771C722.55 29.7771 719.776 30.7919 718.201 31.6773C717.839 31.8808 716.741 32.2898 715.76 32.5857C714.779 32.8821 713.35 33.4223 712.582 33.7869C709.955 35.0342 709.718 35.0441 709.531 33.9141C709.437 33.3534 708.814 30.6665 708.145 27.9433C707.476 25.2201 706.683 21.9193 706.384 20.6082C706.084 19.297 705.514 17.2853 705.117 16.1374C704.41 14.0945 703.249 9.78257 701.827 3.92068C701.435 2.30694 700.948 0.86522 700.745 0.71705C700.246 0.353593 697.844 0.42401 696.469 0.842114ZM779.187 294.552C781.313 296.753 786.821 300.078 788.341 300.078C789.672 300.078 793.906 302.639 796.662 305.111C799.567 307.717 801.277 309.454 804.552 313.129C806.389 315.19 810.007 317.682 811.163 317.682C811.426 317.682 812.22 318.008 812.927 318.406C813.985 319.003 822.672 322.046 825.234 322.717C829.981 323.962 837.137 327.558 838.141 329.204C838.398 329.625 838.773 330.927 838.975 332.098C839.177 333.27 839.424 334.367 839.523 334.537C839.623 334.706 839.873 336.141 840.08 337.725C840.461 340.649 841.9 346.566 842.504 347.69C843.29 349.154 844.323 352.902 844.593 355.275C844.755 356.687 845.117 358.915 845.399 360.226C845.681 361.537 845.992 363.199 846.091 363.919L846.27 365.228L843.867 366.211C842.546 366.752 841.207 367.194 840.892 367.194C840.576 367.194 839.2 366.486 837.833 365.62C833.966 363.169 831.787 362.691 820.798 361.88C813.042 361.307 811.31 360.78 808.923 358.27C808.234 357.545 807.227 356.853 806.686 356.733C804.88 356.33 803.423 355.47 803.13 354.635C802.971 354.18 802.91 352.22 802.994 350.278C803.124 347.259 803.045 346.543 802.446 345.327C801.728 343.871 800.329 342.252 798.254 340.476C797.201 339.575 797.058 339.224 796.838 336.988C796.619 334.756 796.46 334.364 795.286 333.152C794.568 332.409 793.549 331.247 793.024 330.568C792.417 329.785 791.691 329.287 791.038 329.205C789.489 329.011 787.646 328.968 786.917 329.109C786.078 329.272 785.844 328.779 784.977 325.017C784.581 323.303 783.806 320.167 783.254 318.049C779.361 303.107 778.277 299.007 777.92 297.877C777.697 297.171 777.477 296.263 777.43 295.86C777.383 295.456 777.172 294.662 776.962 294.094C776.089 291.731 776.555 291.826 779.187 294.552ZM971.802 345.053C973.576 345.608 975.028 346.188 975.028 346.342C975.028 346.495 973.265 348.073 971.109 349.847C966.599 353.56 965.784 354.385 961.721 359.341C958.699 363.026 953.076 368.687 951.322 369.809C950.794 370.147 949.634 371.007 948.744 371.722C946.687 373.372 937.798 377.932 935.269 378.633C934.598 378.819 933.499 379.124 932.828 379.309C930.487 379.956 925.618 379.564 924.757 378.659C924.44 378.325 925.42 375.553 927.578 370.678C928.203 369.266 928.954 367.534 929.246 366.827C929.538 366.121 930.132 364.801 930.567 363.893C931.946 361.009 935.725 351.263 935.697 350.662C935.635 349.311 948.978 346.142 950.517 347.143C951.13 347.541 954.418 348.178 956.666 348.334C959.353 348.521 961.545 347.972 963.42 346.64C964.261 346.044 965.061 345.556 965.198 345.556C965.334 345.556 965.745 345.137 966.11 344.626C966.879 343.549 967.037 343.561 971.802 345.053ZM1019.32 356.122C1021.76 356.541 1023.86 357.509 1023.86 358.219C1023.86 358.521 1024.03 359.065 1024.25 359.427C1024.54 359.916 1024.53 360.555 1024.23 361.898C1024.01 362.895 1023.61 364.865 1023.35 366.277C1022.83 369.13 1021.85 371.941 1020.4 374.71C1019.22 376.967 1017.18 380.031 1016.86 380.031C1016.73 380.031 1016.42 379.247 1016.18 378.289C1015.45 375.417 1013.76 372.671 1010.94 369.742C1008.03 366.731 1005.2 364.59 1003.28 363.959C1002.61 363.738 1000.95 363.164 999.59 362.685C997.317 361.881 996.911 361.843 994.454 362.211C992.986 362.43 991.496 362.857 991.143 363.16C990.79 363.462 989.57 364.199 988.432 364.796C986.324 365.903 982.414 368.969 981.105 370.541C979.8 372.108 977.387 376.101 976.568 378.049C975.884 379.676 975.265 383.938 975.269 386.999C975.27 388.038 975.69 390.851 976.008 391.954C976.469 393.552 978.093 396.823 978.789 397.558C979.119 397.905 980.15 399.178 981.081 400.388C982.624 402.391 987.188 406.816 989.318 408.374C990.114 408.956 990.126 409.005 989.47 409.005C987.603 409.005 980.872 407.866 979.518 407.321C978.679 406.983 977.343 405.986 976.548 405.105L975.104 403.503L972.537 403.486C969.327 403.466 951.672 403.148 950.963 403.098C950.676 403.078 949.028 402.824 947.301 402.533C945.575 402.243 943.613 401.942 942.942 401.864C941.329 401.679 938.54 401.111 935.007 400.25C931.849 399.48 931.657 399.314 926.995 393.334C924.553 390.2 924.573 389.792 927.16 390.101C928.263 390.233 930.97 390.143 933.176 389.901C935.382 389.659 937.658 389.411 938.234 389.349C942.377 388.905 949.819 387.03 950.772 386.191C950.954 386.03 951.377 385.899 951.712 385.899C952.423 385.899 956.036 383.733 957.53 382.411C958.098 381.909 958.659 381.498 958.777 381.498C958.895 381.498 960.285 380.613 961.866 379.532C963.446 378.45 965.429 377.197 966.272 376.747C967.994 375.826 972.739 372.459 974.854 370.656C976.102 369.593 978.538 367.807 983.922 364.007C988.641 360.678 996.878 357.463 1004.5 355.976C1007.15 355.458 1015.96 355.545 1019.32 356.122ZM800.791 380.398C803.722 384.348 808.263 388.367 811.935 390.263C813.673 391.16 817.29 392.447 821.278 393.588L827.786 395.45L835.054 395.522C840.883 395.58 842.945 395.463 845.462 394.932L848.601 394.269L849.379 395.31C854.242 401.815 859.961 410.688 860.496 412.559C861.682 416.702 860.944 420.668 858.07 425.6C855.305 430.345 848.882 437.001 844.899 439.248C841.518 441.155 837.951 441.817 835.364 441.019C830.298 439.455 826.411 435.815 814.418 421.4L807.795 413.44L806.836 409.847C806.308 407.871 805.626 405.264 805.319 404.053C805.012 402.843 803.286 396.428 801.483 389.798C799.679 383.168 798.204 377.57 798.204 377.359C798.204 376.882 798.032 376.68 800.791 380.398ZM765.092 411.842C767.911 413.27 771.933 416.805 774.071 419.734C774.972 420.968 776.337 422.743 777.104 423.677C777.871 424.611 778.891 426.071 779.371 426.922C781.227 430.213 785.397 435.65 791.613 442.885C794.376 446.101 796.447 448.066 799.809 450.664C805.863 455.342 805.982 455.808 800.471 453.246C794.759 450.59 786.911 450.604 781.115 453.281C778.104 454.672 774.478 456.539 772.366 457.787C771.103 458.534 767.825 460.098 765.081 461.264C760.139 463.363 760.067 463.381 757.338 463.184C755.565 463.056 754.247 462.754 753.637 462.337C751.953 461.184 746.399 455.072 745.791 453.703C745.154 452.269 743.32 444.088 742.964 441.096C741.363 427.618 742.227 423.122 747.824 415.804C749.812 413.204 750.769 412.267 752.064 411.654C754.296 410.596 754.864 410.513 759.163 410.616C762.474 410.695 763.074 410.819 765.092 411.842Z" fill="white" fill-opacity="0.05"/>
</svg>
