<svg width="1368" height="699" viewBox="0 0 1368 699" fill="none" xmlns="http://www.w3.org/2000/svg">
<g clip-path="url(#clip0_1083_5988)">
<rect width="1368" height="699" fill="#1B2C8C"/>
<path fill-rule="evenodd" clip-rule="evenodd" d="M422.667 0.36018C423.723 0.68146 424.575 1.42158 423.889 1.42158C423.713 1.42158 423.296 2.78335 422.962 4.44733C422.627 6.11168 422.055 8.44939 421.69 9.64245C421.325 10.8355 421.026 12.1558 421.025 12.5765C421.024 12.9972 420.788 13.814 420.502 14.3916C420.215 14.9696 419.981 15.7123 419.982 16.042C419.983 16.92 419.016 21.4121 418.234 24.1606C416.918 28.7879 416.175 31.7389 414.907 37.3638C414.202 40.4905 413.419 43.3959 413.167 43.8202C412.914 44.2446 412.597 45.2348 412.462 46.0208C412.327 46.8068 412.066 47.7548 411.883 48.1282C411.699 48.5012 411.164 50.3991 410.693 52.3459C409.62 56.7855 409.536 57.0998 407.949 62.6701C406.653 67.2157 406.272 68.6281 405.674 71.1056C405.504 71.8116 404.875 74.2872 404.277 76.6069C402.495 83.524 402.194 84.7475 401.66 87.2381C401.379 88.5467 400.845 90.6097 400.473 91.8226C400.102 93.0355 399.613 95.0083 399.388 96.2065C399.162 97.405 398.845 98.6428 398.682 98.9571C398.52 99.2718 398.134 100.767 397.826 102.28C397.517 103.793 396.742 106.929 396.102 109.248C395.462 111.568 394.83 114.044 394.698 114.75C394.565 115.456 394.243 116.776 393.982 117.684C393.721 118.592 393.247 120.407 392.928 121.718C392.61 123.029 392.134 124.845 391.87 125.752C391.608 126.66 390.992 129.361 390.504 131.753C390.015 134.146 389.385 136.683 389.104 137.391C388.822 138.099 388.592 138.937 388.592 139.254C388.592 139.57 388.209 141.159 387.74 142.785C387.271 144.411 386.475 147.309 385.97 149.225C385.465 151.141 384.761 153.782 384.407 155.093C383.453 158.616 382.351 162.984 381.63 166.096C381.28 167.609 380.573 170.414 380.059 172.331C379.545 174.247 378.584 178.043 377.923 180.766C377.262 183.489 376.175 187.863 375.506 190.485C372.444 202.491 371.801 205.291 371.668 207.203C371.532 209.144 371.588 209.316 372.734 210.485C374.124 211.901 374.21 212.52 373.263 214.293L372.582 215.568L373.438 217.781C374.329 220.088 374.54 222.17 373.945 222.795C373.714 223.038 373.832 223.643 374.294 224.597C375.247 226.561 375.17 227.754 373.944 230.039C373.152 231.515 372.898 232.453 372.898 233.904C372.898 235.015 372.615 236.472 372.226 237.372C371.856 238.225 371.439 239.4 371.3 239.985C371.008 241.21 368.724 243.735 366.684 245.09C365.912 245.602 365.004 246.512 364.669 247.11C364.332 247.708 363.777 248.274 363.436 248.368C361.99 248.766 359.984 255.486 359.476 261.636C359.443 262.04 359.319 262.617 359.201 262.92C359.083 263.222 358.719 264.543 358.391 265.854C357.695 268.642 356.425 271.605 354.933 273.923C353.441 276.239 352.788 278.032 352.125 281.625C351.809 283.339 351.411 284.922 351.241 285.142C351.07 285.363 351.031 285.647 351.152 285.775C351.274 285.903 351.206 286.22 351.001 286.48C350.796 286.74 350.47 288.023 350.276 289.332C350.083 290.64 349.537 293.278 349.062 295.195C347.46 301.668 345.667 308.426 345.287 309.423C345.079 309.969 344.472 312.23 343.939 314.449C343.406 316.668 342.706 319.474 342.385 320.684C342.063 321.895 341.481 324.205 341.091 325.819C340.701 327.433 340.237 328.943 340.059 329.175C339.683 329.668 340.967 330.726 343.721 332.195C345.363 333.071 345.521 333.265 345.533 334.438C345.541 335.144 345.676 336.339 345.833 337.094C346.212 338.912 345.908 340.023 344.605 341.585C343.691 342.679 343.506 343.23 343.403 345.168C343.212 348.713 343.198 349.366 343.276 350.949C343.324 351.945 343.141 352.664 342.711 353.164C342.361 353.57 341.516 355.299 340.832 357.005C339.275 360.895 337.527 363.403 334.576 365.979C330.06 369.923 329.944 370.103 328.652 375.162C328.01 377.675 327.174 380.888 326.793 382.3C326.412 383.712 325.971 385.362 325.814 385.967C325.23 388.214 324.073 392.652 323.376 395.319C322.98 396.832 322.401 399.143 322.088 400.454C321.776 401.765 321.309 403.098 321.052 403.417C320.794 403.735 320.583 404.212 320.583 404.476C320.583 404.74 321.328 404.225 322.239 403.332C324.076 401.531 327.66 398.62 328.04 398.62C328.174 398.62 328.709 398.292 329.229 397.891C330.286 397.075 336.003 394.953 337.145 394.953C337.55 394.953 338.034 394.792 338.22 394.597C338.973 393.806 350.5 392.95 351.535 393.609C351.679 393.7 353.288 393.885 355.111 394.02C356.933 394.155 358.573 394.421 358.755 394.609C358.938 394.798 359.534 394.953 360.081 394.953C360.628 394.953 361.656 395.263 362.366 395.643C363.075 396.023 365.068 396.801 366.794 397.372C369.926 398.409 373.146 399.737 374.467 400.537C376.693 401.886 380.303 403.997 381.966 404.922C385.699 406.999 386.835 407.849 389.373 410.464C392.332 413.513 394.449 416.422 396.363 420.07C397.943 423.081 399.926 428.255 400.466 430.775C400.944 433.008 400.964 440.294 400.495 441.59C400.301 442.127 399.817 444.004 399.42 445.763C397.733 453.236 392.695 460.83 386.314 465.521C382.369 468.421 371.04 474.539 369.616 474.539C369.176 474.539 368.362 474.7 367.805 474.897C366.077 475.508 358.546 476.487 355.983 476.434C350.418 476.319 343.4 474.519 337.149 471.605C334.628 470.429 332.33 470.042 330.666 470.514C327.952 471.282 324.419 475.083 324.419 477.235C324.419 478.955 327.388 481.119 330.547 481.703C334.434 482.421 338.82 484.928 340.337 487.299C341.201 488.649 341.208 490.231 340.352 490.734C339.944 490.974 339.844 491.369 339.994 492.155C340.253 493.517 339.599 494.406 338.398 494.326C337.903 494.293 336.618 494.284 335.543 494.305C333.23 494.351 332.213 495.138 331.125 497.724C330.741 498.637 330.216 499.522 329.957 499.69C329.316 500.107 327.248 499.884 326.364 499.303C325.966 499.041 325.012 498.624 324.245 498.376C321.365 497.446 317.719 495.275 315.827 493.363C314.27 491.79 313.734 491.455 313.065 491.631C312.534 491.771 311.817 491.58 311.081 491.101C308.995 489.746 303.81 483.576 302.479 480.866C301.669 479.218 301.466 479.593 300.241 484.992C299.966 486.202 299.232 489.173 298.61 491.593C297.988 494.014 297.268 496.902 297.011 498.012C295.875 502.909 292.64 515.589 290.695 522.768C289.727 526.34 288.104 532.683 287.926 533.587C287.827 534.091 287.622 534.834 287.469 535.238C287.316 535.641 286.833 537.456 286.396 539.272C285.958 541.087 285.065 544.636 284.411 547.157C283.756 549.679 282.918 553.062 282.549 554.676C282.178 556.289 281.731 557.874 281.553 558.198C281.376 558.521 281.118 559.594 280.981 560.582C280.844 561.569 280.519 562.955 280.257 563.661C279.74 565.061 276.878 576.334 276.067 580.165C275.79 581.477 275.27 583.54 274.912 584.75C274.553 585.96 273.434 590.251 272.423 594.286C271.413 598.32 270.207 603.106 269.743 604.922C268.963 607.98 268.73 608.954 267.948 612.44C267.79 613.146 266.934 616.331 266.046 619.517C265.158 622.703 264.432 625.557 264.432 625.859C264.432 626.16 264.13 627.432 263.761 628.684C263.391 629.937 262.676 632.612 262.171 634.629C260.672 640.613 259.498 645.157 258.997 646.915C258.738 647.823 258.265 649.556 257.946 650.766C257.626 651.977 257.15 653.674 256.887 654.538C256.625 655.403 256.41 656.425 256.41 656.809C256.41 657.659 255.868 658.067 255.276 657.665C255.036 657.501 253.351 657.032 251.529 656.62C249.107 656.073 248.189 655.711 248.108 655.27C248.047 654.939 249.047 650.737 250.329 645.932C255.704 625.792 260.68 606.941 262.124 601.254C262.789 598.632 264.374 592.525 265.646 587.684C266.918 582.843 268.578 576.489 269.336 573.564C270.092 570.639 271.66 564.615 272.819 560.177C273.978 555.739 275.483 549.88 276.163 547.157C277.911 540.166 278.17 539.145 279.615 533.587C280.323 530.864 281.18 527.563 281.52 526.252C281.859 524.941 282.37 523.125 282.655 522.218C282.94 521.31 283.418 519.66 283.717 518.55C284.016 517.441 284.579 515.378 284.969 513.966C285.648 511.505 286.029 509.991 288.657 499.295C289.302 496.673 290.013 494.032 290.237 493.427C290.462 492.822 291.263 489.851 292.017 486.826C294.211 478.022 295.901 471.503 298.769 460.786C299.201 459.172 299.679 457.545 299.832 457.171C300.073 456.577 299.936 456.604 298.749 457.379C296.8 458.652 294.021 459.413 290.4 459.664C286.965 459.903 283.209 459.273 277.161 457.441C269.648 455.164 261.852 448.62 258.437 441.72C257.597 440.025 256.92 439.021 256.827 439.336C256.483 440.51 255.585 441.164 254.322 441.164C252.723 441.164 252.53 441.363 252.964 442.563C253.219 443.269 253.166 443.915 252.762 445.029C252.261 446.408 252.262 446.679 252.779 448.161C253.09 449.053 253.472 450.278 253.628 450.883C254.246 453.282 255.384 456.974 256.907 461.519C259.298 468.655 259.61 471.121 259.671 483.341C259.731 495.437 259.675 495.747 257.255 496.719C256.406 497.06 255.693 497.449 255.668 497.584C255.643 497.718 255.587 498.158 255.543 498.562C255.499 498.965 255.284 500.17 255.065 501.239C254.845 502.308 254.666 503.748 254.666 504.441C254.666 506.617 253.682 508.599 252.21 509.389C250.063 510.541 249.458 511.75 246.7 520.384C245.765 523.309 244.345 527.6 243.544 529.92C242.743 532.239 241.412 536.2 240.587 538.722C239.762 541.243 238.824 543.837 238.503 544.487C238.06 545.382 237.931 546.533 237.97 549.255C238.014 552.363 237.894 553.185 237.071 555.409C236.549 556.821 235.945 558.201 235.729 558.475C234.789 559.665 236.2 575.095 237.601 578.941C237.809 579.513 237.995 582.21 238.015 584.933C238.043 588.917 237.865 590.888 237.105 595.019C236.585 597.843 235.917 601.556 235.619 603.271C235.321 604.986 234.929 606.682 234.748 607.04C234.491 607.552 234.672 607.947 235.589 608.874C237.24 610.542 237.925 611.848 237.925 613.323C237.925 614.184 237.698 614.766 237.226 615.114C236.653 615.537 236.548 615.955 236.648 617.427C236.787 619.474 236.261 620.853 234.963 621.847C234.474 622.222 233.993 622.996 233.895 623.569C233.494 625.892 231.542 627.477 229.08 627.477C227.936 627.477 227.812 627.585 227.511 628.852C227.331 629.609 227.192 630.475 227.202 630.778C227.212 631.081 227.021 632.788 226.777 634.574C226.409 637.267 226.16 638.027 225.312 639.044C224.749 639.718 223.76 640.452 223.114 640.676C221.868 641.109 220.877 642.345 220.867 643.48C220.838 646.724 219.647 651.74 218.757 652.37C218.244 652.732 218.046 653.273 218.046 654.307C218.046 656.252 217.32 657.936 215.964 659.135C215.048 659.946 214.913 660.235 215.251 660.663C215.481 660.954 215.754 662.182 215.858 663.393C216.062 665.763 215.728 667.025 214.272 669.377C213.254 671.021 213.384 672.723 214.741 675.54C215.216 676.526 215.606 677.544 215.608 677.803C215.615 678.757 217.305 682.057 218.959 684.343C220.452 686.407 220.661 686.915 220.661 688.466C220.661 689.92 220.507 690.36 219.79 690.939C219.31 691.326 218.682 691.653 218.395 691.666C218.107 691.678 217.555 692.218 217.169 692.866C216.745 693.577 216.123 694.09 215.599 694.161C215.081 694.232 214.45 694.748 214.029 695.445C213.607 696.146 212.981 696.656 212.46 696.724C211.983 696.787 210.928 697.158 210.115 697.549C209.302 697.941 208.394 698.261 208.099 698.261C207.177 698.261 205.16 697.231 203.837 696.084C202.483 694.911 201.654 695.066 201.654 696.493C201.654 696.996 201.096 697.47 199.733 698.126L197.812 699.051L196.634 698.286C195.986 697.864 195.363 697.233 195.251 696.882C195.139 696.531 194.907 695.997 194.735 695.694C192.771 692.234 192.926 686.86 195.107 682.858C196.065 681.099 196.009 678.765 194.939 675.889C192.87 670.326 192.572 668.696 192.739 663.846L192.896 659.322L194.424 657.604C196.099 655.72 196.338 654.775 197.125 646.915C198.094 637.241 198.053 636.291 196.692 637.057C196.259 637.301 194.562 637.509 192.92 637.519C190.404 637.535 189.72 637.405 188.564 636.688L187.192 635.837L183.437 637.892C181.059 639.193 179.254 639.947 178.514 639.947C177.193 639.947 174.839 638.345 173.868 636.787C172.944 635.303 171.265 634.699 169.467 635.203C168.017 635.61 164.314 637.329 161.135 639.07C159.651 639.883 154.061 641.522 147.769 642.988C145.359 643.55 139.609 644.147 137.739 644.03C136.683 643.963 133.525 642.558 132.424 641.663C131.857 641.203 131.726 640.664 131.726 638.78V636.463L130.509 636.279C129.583 636.14 129.176 635.833 128.806 634.996C127.903 632.952 127.337 632.523 125.864 632.771C124.89 632.934 119.118 635.651 118.043 636.451C117.999 636.484 118.108 637.047 118.286 637.701C118.465 638.355 118.516 640.305 118.4 642.034L118.189 645.178L115.105 648.502C113.409 650.33 112.021 651.943 112.021 652.086C112.021 652.229 111.483 653.348 110.825 654.572C109.306 657.398 108.021 661.366 107.486 664.886C107.256 666.399 106.908 668.092 106.711 668.648C106.311 669.781 104.231 671.855 103.495 671.855C102.849 671.855 101.362 673.764 100.313 675.939C99.569 677.484 99.125 677.894 96.9557 679.043C93.1381 681.065 91.147 680.726 90.4554 677.936C90.1862 676.849 90.1123 676.811 88.5292 676.932C86.9807 677.05 86.7909 676.961 85.3272 675.422C84.329 674.372 83.771 673.462 83.771 672.884C83.771 672.386 83.3654 671.585 82.8653 671.093C79.5447 667.834 80.1456 661.618 83.9454 659.915C85.7876 659.089 87.6234 657.112 88.0137 655.534C88.6265 653.055 88.7615 651.316 88.3416 651.316C88.1295 651.316 87.9562 651.481 87.9562 651.683C87.9562 651.885 87.4142 652.05 86.7519 652.05C86.0896 652.05 85.1566 652.237 84.6785 652.466C83.997 652.793 83.2974 652.747 81.436 652.256C78.6731 651.527 78.2294 651.166 76.5794 648.31C75.7169 646.817 75.0721 646.114 74.4164 645.953C73.9026 645.827 72.8546 645.103 72.0873 644.345C70.2145 642.494 69.887 642.35 65.4912 641.434C61.6052 640.625 60.32 640.026 56.5875 637.29C53.8818 635.307 51.8353 634.726 49.811 635.367C48.944 635.641 47.8921 636.058 47.4739 636.294C47.0554 636.529 45.487 636.947 43.9887 637.222C41.4831 637.682 41.1093 637.666 39.3431 637.027C36.2639 635.913 35.1649 634.947 29.9903 628.8C28.8125 627.401 28.7365 627.371 26.1448 627.281C20.2639 627.077 12.875 622.516 10.7325 617.768C9.91429 615.955 9.02983 615.489 5.84037 615.19C2.40363 614.869 0.231527 613.865 -3.55014 610.851C-7.78729 607.473 -10.01 605.984 -12.1395 605.095C-19.0088 602.228 -22.8662 599.9 -24.5165 597.625C-25.0439 596.898 -25.6849 596.303 -25.9409 596.303C-26.1969 596.303 -26.7113 595.601 -27.0841 594.744C-27.457 593.887 -28.6393 591.782 -29.7118 590.068C-31.1427 587.78 -31.6628 586.606 -31.6659 585.657C-31.6722 583.881 -31.1797 583.178 -27.4333 579.612L-26.1603 578.4L-26.117 574.459C-26.0378 567.273 -25.4561 565.925 -19.6523 559.479C-17.5287 557.121 -17.2636 556.523 -17.5259 554.685C-17.6546 553.782 -17.9081 552.946 -18.0888 552.829C-18.2694 552.711 -18.4173 552.285 -18.4173 551.882C-18.4173 551.478 -18.2604 551.25 -18.0686 551.375C-17.8767 551.5 -17.7198 551.437 -17.7198 551.235C-17.7198 550.654 -18.3409 550.405 -18.5185 550.914C-18.6433 551.273 -18.7776 551.277 -19.1229 550.936C-19.481 550.581 -19.4821 550.078 -19.1284 548.325C-18.6171 545.791 -18.8097 544.935 -20.3394 542.939C-22.6639 539.907 -22.7079 539.383 -21.0704 534.209C-20.1378 531.263 -19.9236 530.079 -20.0607 528.626L-20.2348 526.783L-18.1927 525.805C-17.0693 525.267 -15.2871 524.472 -14.2321 524.04C-13.1771 523.607 -11.6077 522.956 -10.7445 522.592C-9.88129 522.228 -6.89933 521.018 -4.11793 519.901C-1.33652 518.785 2.03778 517.353 3.38053 516.72C4.72327 516.087 6.3712 515.321 7.04258 515.017C7.71395 514.714 8.57714 514.318 8.96078 514.137C9.34442 513.956 10.9675 513.362 12.5673 512.818C14.1675 512.274 15.6975 511.597 15.9678 511.312C16.2381 511.028 16.4795 510.106 16.5042 509.263C16.6765 503.394 17.7242 500.74 21.3723 496.931C24.1188 494.063 24.2022 493.825 23.927 489.623L23.6853 485.932L24.786 484.851C25.5132 484.137 26.9215 483.438 28.9332 482.792C30.6086 482.255 34.1765 481.105 36.862 480.237C41.6921 478.677 45.7074 477.528 49.7664 476.545C50.9173 476.266 52.8791 475.711 54.1259 475.311C55.3727 474.911 58.1193 474.155 60.2293 473.632C62.3394 473.108 64.3796 472.537 64.7633 472.362C65.1469 472.188 66.3456 471.772 67.4271 471.437C70.2919 470.551 70.5643 470.258 70.1681 468.488C69.8312 466.982 70.0917 465.578 71.077 463.592C71.3427 463.057 71.5607 462.45 71.5621 462.243C71.5632 462.035 72.5059 460.65 73.6568 459.165L75.7494 456.466V453.754C75.7494 452.263 75.9635 450.504 76.2251 449.846C76.7092 448.627 78.4432 446.86 79.7406 446.264C80.1351 446.082 80.6931 445.774 80.9809 445.58C81.2686 445.385 82.4457 444.788 83.5966 444.254C85.4545 443.392 86.7882 442.941 90.5719 441.897C92.6303 441.328 99.2258 438.905 100.493 438.252C100.779 438.104 101.393 436.335 101.91 434.168C102.413 432.065 103.075 429.85 103.382 429.245C104.161 427.713 106.354 425.591 107.988 424.786C109.627 423.979 109.807 423.411 109.774 419.159C109.751 416.272 109.698 416.047 109.054 416.117C108.672 416.159 107.417 416.277 106.266 416.38C105.115 416.483 102.84 416.745 101.209 416.963C99.5788 417.18 97.0677 417.502 95.629 417.68C92.1522 418.107 81.6941 417.937 80.8065 417.438C80.4228 417.222 79.0103 416.946 77.6676 416.824C72.6544 416.369 68.4417 415.262 58.4855 411.782C56.7591 411.178 54.6403 410.46 53.7771 410.186C52.9139 409.912 50.5654 409.02 48.5586 408.205C46.5514 407.39 44.8557 406.779 44.7909 406.848C44.7256 406.916 45.0437 407.28 45.4978 407.656C45.9515 408.032 46.8622 409.197 47.5213 410.245C51.4962 416.565 51.5792 416.928 49.6 419.333C48.8016 420.302 47.8998 421.526 47.5956 422.053C46.7579 423.502 43.6996 426.459 42.2131 427.257C40.4146 428.222 37.224 429.146 35.1182 429.311C33.4908 429.439 31.2479 428.957 15.9361 425.19C12.2283 424.278 11.6804 424.406 7.36308 427.182C3.57513 429.618 -0.79556 433.27 -7.35375 439.482C-9.07595 441.113 -10.6611 442.458 -10.8763 442.47C-11.7057 442.518 -12.0063 441.858 -11.8905 440.241C-11.7862 438.783 -11.9062 438.419 -12.8001 437.479C-13.7153 436.517 -14.938 436.118 -16.1504 436.387C-16.3422 436.429 -17.0484 436.512 -17.7198 436.57C-18.3912 436.628 -19.9634 437.175 -21.2134 437.785C-25.0794 439.671 -27.2638 440.185 -30.2496 439.911C-32.0042 439.751 -33.2004 439.434 -33.8125 438.968C-34.7277 438.272 -34.75 438.273 -37.1258 439.214C-43.7109 441.822 -44.8963 442.043 -52.431 442.063L-59.4157 442.081L-61.9391 440.478C-64.5332 438.829 -65.1021 437.964 -64.6263 436.389C-64.4129 435.68 -64.2109 435.617 -62.7639 435.804C-58.1752 436.397 -55.5779 436.463 -53.545 436.039C-49.9042 435.28 -46.1805 433.644 -40.9703 430.518C-39.4674 429.616 -37.6465 428.548 -36.9242 428.144C-35.6233 427.418 -32.9817 425.093 -28.5542 420.778C-26.3109 418.592 -22.3961 415.491 -21.8788 415.491C-21.7352 415.491 -20.5444 414.843 -19.2327 414.051C-17.921 413.259 -15.6028 412.094 -14.0811 411.461C-12.5591 410.829 -10.9112 410.013 -10.4191 409.65C-9.39477 408.894 -4.09177 407.122 -1.50219 406.67C-0.54308 406.503 1.41871 406.097 2.85737 405.767C4.29603 405.438 6.17938 405.114 7.04258 405.047C7.90577 404.981 10.1086 404.811 11.9378 404.671C15.3788 404.405 18.8549 404.762 23.1803 405.825C25.1121 406.299 25.7305 406.323 26.5807 405.952C27.152 405.703 27.6197 405.305 27.6197 405.067C27.6197 404.341 22.3359 401.226 19.7582 400.432C16.8572 399.539 9.51109 398.638 5.05073 398.628C-0.963385 398.614 -7.25682 399.571 -7.25682 400.498C-7.25682 401.123 -9.95698 400.832 -10.793 400.118L-11.6164 399.415L-10.8854 398.376C-10.0459 397.182 -4.31393 392.5 -3.2624 392.149C-2.87562 392.02 -1.70585 391.252 -0.66339 390.442C0.379419 389.632 3.09662 387.963 5.37511 386.735C10.5177 383.961 11.8995 383.186 12.9869 382.466C14.1187 381.717 18.1504 379.957 19.4447 379.647C20.8684 379.306 23.0125 379.313 24.5911 379.663C25.8191 379.935 25.8951 379.905 25.5753 379.277C24.9513 378.051 26.2801 376.486 28.929 375.328C30.2229 374.763 31.431 374.16 31.6131 373.99C31.7955 373.82 32.1586 373.681 32.4202 373.681C32.6817 373.681 33.7099 373.289 34.7045 372.81C36.9422 371.732 39.7711 370.407 40.6984 370.002C43.9845 368.567 51.9517 366.993 56.7964 366.821C60.6377 366.686 61.2941 366.76 63.7717 367.618C65.2763 368.138 66.821 368.706 67.2046 368.879C67.5883 369.052 68.9554 369.642 70.2427 370.189C72.2223 371.031 72.7211 371.431 73.4751 372.784C73.9658 373.664 74.5207 375.257 74.7087 376.325C75.1642 378.912 76.2408 381.907 77.9818 385.43C79.1408 387.775 79.9834 388.868 82.378 391.135C86.0264 394.588 90.5266 397.754 92.7426 398.426C98.4544 400.157 106.082 400.085 109.754 398.265C110.138 398.075 111.472 397.483 112.719 396.949C117.872 394.742 121.554 392.19 123.007 389.818C124.507 387.37 124.753 385.876 124.065 383.388C123.101 379.898 120.275 378.684 116.783 380.258C115.016 381.055 114.656 381.585 114.284 383.941C113.939 386.134 112.428 387.702 109.925 388.465C105.516 389.81 103.708 390.191 100.71 390.412C96.4221 390.727 93.8134 390.049 87.7818 387.054C85.1064 385.726 80.6052 382.125 80.208 380.995C80.0699 380.603 79.8121 380.282 79.635 380.282C79.4578 380.282 79.2098 379.828 79.0839 379.274C78.958 378.719 78.4886 377.44 78.0404 376.431C75.522 370.761 75.0669 368.226 75.6685 363.221C76.0518 360.036 78.4565 356.152 81.549 353.723C82.3411 353.101 84.2003 351.547 85.6805 350.268C88.283 348.022 92.8818 345.089 93.82 345.079C94.0718 345.076 95.2782 344.566 96.5006 343.946C97.7234 343.326 99.7043 342.578 100.903 342.284C102.102 341.99 103.297 341.563 103.559 341.334C103.82 341.106 104.929 340.874 106.022 340.819C107.116 340.764 109.271 340.383 110.811 339.973C112.914 339.413 115.205 339.179 119.995 339.036C123.505 338.931 126.522 338.751 126.699 338.636C127.268 338.267 126.389 337.111 125.374 336.894C124.839 336.779 123.741 336.015 122.934 335.195C121.573 333.814 121.321 333.704 119.516 333.704C117.256 333.704 115.914 333.08 114.718 331.474C114.003 330.513 113.761 330.394 113.205 330.733C112.248 331.315 94.9873 333.911 91.1959 334.043C90.1963 334.077 87.9206 334.415 86.1388 334.792C84.3569 335.17 80.7803 335.923 78.1907 336.467C75.0829 337.119 73.2529 337.685 72.8068 338.133C72.1529 338.791 72.1515 338.837 72.7657 339.55C73.1148 339.956 74.0596 340.623 74.8656 341.033C77.5389 342.394 78.6553 344.354 77.6641 345.945C77.1661 346.744 73.3007 349.475 72.6677 349.475C72.5345 349.475 71.8003 349.831 71.0358 350.266C70.2713 350.702 68.7828 351.263 67.7278 351.513C66.6728 351.763 64.2401 352.384 62.3219 352.893C60.4037 353.402 56.7594 354.246 54.2239 354.768C48.3769 355.974 47.7048 356.234 47.9834 357.183C48.101 357.583 48.29 358.226 48.4041 358.612C48.6513 359.449 47.6281 360.146 46.0823 360.192C45.5191 360.209 45.058 360.388 45.058 360.59C45.058 360.793 44.772 360.686 44.4222 360.353C43.574 359.546 38.7426 359.039 31.7177 359.019C30.0391 359.014 28.666 358.864 28.666 358.685C28.666 358.215 30.9501 357.937 36.604 357.716C39.3393 357.61 41.9666 357.367 42.4426 357.177C43.2204 356.866 43.2675 356.736 42.9065 355.903C42.3792 354.687 42.9354 353.367 44.2848 352.633C45.1515 352.162 49.2219 351.238 52.5565 350.757C54.9923 350.404 55.9346 350.224 57.0893 349.889C57.7611 349.694 58.3111 349.587 58.3111 349.652C58.3111 349.718 59.3703 349.371 60.6653 348.881C61.9602 348.392 63.9611 347.645 65.112 347.22C67.0424 346.508 68.7741 345.31 68.7741 344.686C68.7741 344.543 68.4992 344.331 68.1637 344.216C67.0198 343.822 64.4173 342.074 63.2475 340.913C62.1259 339.801 62.0872 339.672 62.2588 337.608C62.617 333.289 65.2983 331.808 79.0627 328.325C80.9809 327.839 83.492 327.274 84.6429 327.069C87.3089 326.595 92.155 325.05 94.4083 323.958C95.3674 323.493 97.1723 322.674 98.4192 322.137C101.002 321.026 102.953 319.608 102.953 318.841C102.953 318.092 101.35 317.325 98.7533 316.833C97.5144 316.598 96.2265 316.146 95.8906 315.829C94.4059 314.427 95.7344 311.487 98.7156 309.577C100.539 308.409 104.33 306.85 105.497 306.788C105.92 306.766 106.259 306.582 106.251 306.381C106.225 305.75 105.297 303.997 104.99 303.997C104.829 303.997 104.697 303.667 104.697 303.263C104.697 302.347 104.365 302.347 102.32 303.258C101.421 303.659 99.2736 304.408 97.5472 304.921C94.0449 305.964 87.6074 309.036 87.6074 309.665C87.6074 309.888 88.2599 310.313 89.0572 310.61C90.9433 311.311 91.3486 312.003 90.7554 313.51C89.5975 316.449 84.058 317.436 69.8204 317.24C61.8521 317.13 61.5979 317.149 60.6653 317.924C59.529 318.867 59.4659 319.514 60.3891 320.748C61.1598 321.778 60.9548 322.399 59.454 323.579C58.6641 324.2 57.9735 324.267 52.8738 324.213L47.1764 324.153L46.5807 325.108C46.0823 325.909 46.052 326.257 46.3938 327.251C46.9459 328.857 46.9794 328.782 45.4158 329.44C44.2778 329.918 43.1081 329.986 38.8765 329.816C36.0421 329.702 33.2523 329.599 32.6768 329.587C32.1014 329.575 30.8936 329.873 29.9931 330.249C27.9155 331.117 27.4997 330.704 29.0005 329.263C30.4876 327.834 31.6804 327.363 33.0996 327.643C33.811 327.784 34.6097 327.657 35.2654 327.301C35.8367 326.99 37.1658 326.736 38.2191 326.736C39.2723 326.736 40.2329 326.568 40.3532 326.363C40.4738 326.158 40.7075 326.078 40.8728 326.186C41.5808 326.646 41.5763 325.506 40.8669 324.712C39.6738 323.377 40.1342 321.516 41.9746 320.235C43.2601 319.341 43.8091 319.226 47.913 318.99C51.4788 318.786 52.5767 318.596 53.1062 318.092C53.4751 317.741 53.7771 317.343 53.7771 317.209C53.7771 317.075 53.2111 316.27 52.5191 315.42C51.3741 314.013 51.2971 313.783 51.6629 312.854C52.3981 310.988 54.151 310.658 63.1938 310.686C65.3998 310.692 67.6755 310.695 68.2509 310.692C70.4562 310.678 73.5438 310.258 74.9967 309.773L76.5111 309.268L75.522 308.031C74.5455 306.812 74.4108 305.743 75.1185 304.835C75.8739 303.865 79.2465 301.79 82.0436 300.573C83.7358 299.837 85.2658 298.908 85.6351 298.392C86.2511 297.532 86.2525 297.44 85.6711 296.252C85.3366 295.57 84.1546 294.065 83.0438 292.909C81.3397 291.136 81.0517 290.65 81.1985 289.8C81.4203 288.514 81.5514 288.392 82.1524 288.917C82.5367 289.252 82.6898 289.217 82.8583 288.756C83.1788 287.878 83.1087 287.601 82.7247 288.226C82.4568 288.662 82.3854 288.585 82.3812 287.856C82.377 287.144 82.9106 286.513 84.7301 285.077C89.4119 281.383 96.0604 277.617 98.8551 277.076C100.543 276.75 100.543 276.137 98.8551 276.076C98.1356 276.051 97.2333 275.983 96.8497 275.927C96.1201 275.82 94.1851 275.634 87.764 275.055C83.7598 274.693 82.3958 274.286 81.0681 273.055C79.9733 272.04 80.0622 269.522 81.1926 269.522C82.2915 269.522 81.564 268.896 79.9639 268.465C79.0208 268.21 77.5246 267.519 76.6384 266.928C75.7525 266.337 74.89 265.854 74.7216 265.854C74.5535 265.854 74.3118 265.207 74.1845 264.416C74.0575 263.624 73.7524 262.896 73.5061 262.797C73.2602 262.698 71.5848 262.504 69.783 262.367C65.1295 262.012 61.3607 260.972 59.1562 259.433C56.773 257.769 54.8929 255.446 54.7471 253.983C54.6233 252.741 55.4551 250.594 56.7814 248.733C57.7363 247.393 57.9588 246.025 57.0998 246.774C56.689 247.133 55.9029 247.035 53.1762 246.285C51.3009 245.77 49.3381 245.269 48.8146 245.174C47.0404 244.85 41.757 242.283 39.3034 240.553C37.3036 239.143 36.4836 238.789 34.7694 238.6C31.9922 238.294 28.1314 237.211 26.375 236.246C25.5944 235.817 24.1422 234.79 23.1479 233.963C21.4438 232.546 21.1857 232.452 18.6384 232.318C17.1519 232.239 15.7007 232.1 15.413 232.007C15.1252 231.915 14.3781 231.714 13.7528 231.562C13.1271 231.41 11.9895 230.647 11.2243 229.865C10.0786 228.697 9.8327 228.197 9.8327 227.041C9.8327 225.709 9.73959 225.59 8.03936 224.753C5.58056 223.542 2.17657 220.97 1.40649 219.741C0.940191 218.998 0.768609 218.024 0.767214 216.109C0.765122 213.705 0.837364 213.442 1.65766 212.877C2.14872 212.538 3.20825 212.136 4.01181 211.983C5.45221 211.708 5.55368 211.572 5.14283 210.464C5.02843 210.156 5.36987 209.006 5.90174 207.91C6.64217 206.383 7.22394 205.723 8.38847 205.087C10.6966 203.827 12.5395 203.646 19.9469 203.946C23.6874 204.098 31.4561 204.393 37.2108 204.602C42.9654 204.811 49.871 205.145 52.5565 205.343C55.242 205.541 58.6948 205.782 60.2293 205.878C61.7639 205.973 63.8826 206.129 64.9376 206.223C65.9927 206.317 68.1114 206.495 69.646 206.618C72.6042 206.855 76.3144 207.327 79.7602 207.906C80.9111 208.099 82.6375 208.341 83.5966 208.443C85.4562 208.642 87.9496 209.122 90.2232 209.722C90.9904 209.924 92.246 210.097 93.0133 210.107C93.7806 210.117 95.35 210.457 96.5009 210.863C97.6518 211.268 100.712 212.012 103.301 212.516C105.89 213.02 108.872 213.691 109.927 214.009C110.983 214.326 112.867 214.886 114.114 215.253C116.677 216.007 121.607 217.669 122.658 218.133C123.042 218.302 123.95 218.711 124.676 219.041C125.401 219.372 126.186 219.648 126.419 219.655C126.653 219.662 127.471 219.986 128.239 220.376C129.006 220.766 129.842 221.09 130.097 221.097C130.714 221.114 136.779 224.293 137.496 224.975C137.806 225.27 138.219 225.511 138.415 225.511C138.611 225.511 139.383 225.968 140.132 226.527C140.88 227.085 141.884 227.744 142.364 227.991C147.734 230.756 157.809 239.241 161.631 244.215C163.117 246.149 165.382 249.599 165.382 249.927C165.382 250.053 165.634 250.759 165.941 251.495C166.248 252.231 166.632 253.164 166.795 253.568C167.239 254.669 168.21 258.765 168.654 261.411C168.959 263.232 169.209 263.817 169.773 264.036C170.172 264.191 171.3 265.28 172.28 266.454L174.061 268.589L174.986 267.68C175.822 266.86 175.896 266.574 175.751 264.754C175.531 262.002 175.864 261.279 177.688 260.547C178.985 260.026 179.471 259.997 180.76 260.362C181.602 260.6 182.738 261.13 183.285 261.54C184.384 262.362 187.354 262.891 187.354 262.264C187.354 262.052 186.827 261.536 186.182 261.118C185.537 260.698 184.602 259.736 184.104 258.979C183.28 257.727 183.231 257.462 183.569 256.064C184.029 254.166 184.494 253.721 187.354 252.448C189.674 251.416 192.096 251.129 194.242 251.633C194.866 251.779 195.373 251.779 195.369 251.633C195.365 251.487 194.345 250.576 193.102 249.609C191.26 248.177 190.842 247.662 190.842 246.828C190.842 246.265 190.934 245.708 191.045 245.591C191.157 245.473 192.004 245.775 192.927 246.263C193.85 246.75 194.916 247.149 195.296 247.149C195.675 247.149 196.594 247.372 197.337 247.643C200.23 248.7 203.041 248.078 204.899 245.97C205.792 244.956 206.028 244.875 207.605 245.034C208.58 245.132 209.637 245.497 210.03 245.871C210.413 246.235 210.841 246.412 210.982 246.265C211.245 245.988 208.979 243.632 206.084 241.171C205.182 240.405 204.444 239.621 204.444 239.429C204.444 238.803 206.804 239.062 209.575 239.993C212.868 241.099 213.691 241.125 215.654 240.189C218.396 238.88 220.231 239.208 224.324 241.737C226.468 243.062 228.967 243.621 230.447 243.108C231.079 242.889 232.353 241.88 233.278 240.867C238.363 235.299 245.082 235.492 250.733 241.368C251.927 242.608 252.983 243.541 253.079 243.439C253.382 243.121 251.279 238.941 250.36 238.033C249.294 236.981 249.512 236.147 250.851 236.147C252.18 236.147 253.378 236.727 255.931 238.608C258.525 240.518 260.738 243.277 262.947 247.357C263.86 249.043 264.811 250.508 265.062 250.616C265.746 250.907 268.693 250.124 269.383 249.468C269.715 249.153 270.242 248.997 270.554 249.124C271.023 249.312 271.081 249.677 270.883 251.185C270.595 253.393 270.982 253.537 272.351 251.734C274.489 248.916 275.751 250.827 275.76 256.896C275.766 260.95 275.444 262.317 273.992 264.387C273.779 264.689 273.504 265.237 273.38 265.603C273.193 266.157 273.287 266.227 273.938 266.02C274.368 265.883 275.529 265.214 276.518 264.533C278.107 263.437 278.385 263.05 278.922 261.182C279.873 257.869 280.185 257.515 282.594 257.017C284.93 256.534 285.327 256.079 284.54 254.789C283.849 253.659 280.291 244.8 279.776 242.932C278.614 238.711 278.358 235.635 278.845 231.745C279.109 229.634 279.915 226.732 280.475 225.877C280.805 225.373 281.269 224.097 281.506 223.042C282.381 219.141 286.546 210.191 289.762 205.3C290.373 204.37 291.205 202.926 291.61 202.091C292.015 201.255 292.467 200.571 292.614 200.571C292.76 200.571 293.177 200.035 293.54 199.379C294.109 198.351 295.901 195.672 296.791 194.52C296.946 194.318 298.08 192.75 299.309 191.035C300.539 189.321 302.189 187.093 302.975 186.084C313.963 171.99 318.994 166.453 325.732 161.042C331.551 156.369 333.393 154.838 336.659 151.958C341.292 147.872 348.067 142.511 350.994 140.613C353.651 138.892 353.704 138.875 356.225 139.013C360.484 139.246 362.226 141.221 362.119 145.695C362.066 147.911 361.929 148.441 361.199 149.241C360.236 150.298 360.144 150.787 360.778 151.491C361.838 152.669 362.518 155.015 362.643 157.924C362.771 160.886 362.747 160.992 361.229 164.068C359.481 167.611 356.761 171.94 354.456 174.848C353.106 176.551 352.974 176.86 353.473 177.154C353.789 177.34 354.541 178.245 355.143 179.166C356.174 180.741 356.237 181.029 356.217 184.083C356.199 186.773 356.043 187.666 355.302 189.313C354.308 191.523 351.712 195.273 349.743 197.341L348.454 198.695L349.254 199.657C350.304 200.919 350.501 201.711 350.537 204.789C350.563 207.098 350.435 207.605 349.263 209.827C347.338 213.48 344.256 217.356 338.566 223.281C335.773 226.19 333.487 228.693 333.487 228.844C333.487 228.995 334.111 229.801 334.874 230.636C335.686 231.525 336.425 232.792 336.657 233.692C337.222 235.888 336.863 238.961 335.813 240.914C335.325 241.822 334.616 243.148 334.238 243.862C333.177 245.859 323.892 255.509 320.66 257.972C313.853 263.161 312.719 263.991 312.42 264.005C312.246 264.014 311.54 264.473 310.85 265.027C308.713 266.744 306.314 268.421 305.997 268.421C305.83 268.421 305.423 268.737 305.091 269.122C304.76 269.507 304.126 269.918 303.682 270.035C303.033 270.206 302.828 270.585 302.629 271.982C302.252 274.624 301.001 276.752 297.93 279.974L295.133 282.908L297.308 283.123C298.504 283.241 299.978 283.54 300.583 283.788C301.561 284.189 301.88 284.135 303.449 283.299C304.42 282.781 305.391 282.358 305.608 282.358C305.824 282.358 306.418 282.058 306.927 281.69C307.436 281.323 308.638 280.724 309.597 280.359C313.814 278.755 314.654 278.263 314.654 277.4C314.654 276.298 315.915 272.015 316.933 269.656C317.38 268.621 317.853 267.173 317.984 266.439C318.256 264.912 319.502 263.685 322.72 261.773C323.865 261.093 325.326 260.115 325.967 259.6C326.608 259.085 328.209 258.192 329.525 257.615C330.841 257.039 332.153 256.381 332.441 256.153C332.729 255.925 333.513 255.478 334.185 255.16C336.781 253.928 338.902 251.719 341.046 248.013C346.058 239.347 347.297 236.437 347.425 233.027C347.561 229.393 347.505 229.107 346.065 226.061C345.303 224.447 344.577 222.677 344.453 222.128C344.142 220.747 345.297 218.371 347.27 216.334C348.731 214.827 349.038 214.676 350.994 214.508C353.112 214.326 353.129 214.315 353.599 212.882C353.859 212.088 354.324 211.146 354.632 210.788C355.249 210.072 363.303 205.706 364.007 205.706C364.249 205.706 364.67 205.334 364.943 204.88C365.499 203.955 367.666 195.83 367.666 194.67C367.666 194.258 367.821 193.618 368.009 193.247C368.198 192.876 368.904 190.37 369.577 187.678C370.888 182.44 372.856 174.865 373.993 170.68C374.377 169.268 374.893 167.205 375.14 166.096C375.387 164.986 375.797 163.336 376.05 162.428C376.588 160.502 376.525 160.754 376.875 159.127C377.027 158.421 377.36 157.101 377.615 156.193C377.869 155.286 378.493 152.975 379 151.059C379.508 149.142 380.308 146.254 380.778 144.64C381.248 143.027 381.953 140.469 382.344 138.956C382.736 137.443 383.441 134.72 383.912 132.904C384.382 131.089 385.063 128.283 385.425 126.669C385.786 125.056 386.24 123.158 386.434 122.452C387.008 120.358 388.299 115.344 388.417 114.75C388.736 113.147 389.063 111.959 389.276 111.632C389.408 111.431 389.711 110.11 389.951 108.698C390.19 107.286 390.53 105.801 390.706 105.397C390.881 104.994 391.585 102.436 392.268 99.7127C392.952 96.9895 393.65 94.2663 393.819 93.6612C394.385 91.6422 395.588 87.0958 396.439 83.7587C396.902 81.9433 397.847 78.3124 398.539 75.69C400.086 69.8289 400.08 69.8832 399.248 69.7034C398.875 69.6231 398.012 69.194 397.33 68.7502C396.648 68.3061 395.541 67.7277 394.87 67.464C394.199 67.2007 393.155 66.7569 392.55 66.4782C391.946 66.1991 391.21 65.971 390.914 65.971C390.619 65.971 390.28 65.8059 390.162 65.6042C390.043 65.4025 388.911 65.2374 387.645 65.2374C385.717 65.2374 385.156 65.3885 384.178 66.173C383.537 66.6876 383.012 67.3525 383.012 67.6503C383.012 67.9485 383.483 69.1731 384.058 70.372C385.191 72.7325 385.336 73.649 384.686 74.333C383.465 75.6167 379.018 73.7425 374.243 69.9319C372.777 68.762 371.484 67.8047 371.37 67.8047C371.257 67.8047 369.867 66.8112 368.282 65.5965C365.16 63.2049 360.407 59.83 355.983 56.8636C354.448 55.8349 352.549 54.4925 351.763 53.8804C350.977 53.2683 350.215 52.7677 350.07 52.7677C349.924 52.7677 349.211 52.2725 348.484 51.6674C347.758 51.0622 347.057 50.5671 346.928 50.5671C346.799 50.5671 346.194 50.1952 345.583 49.7408C342.613 47.5304 336.069 43.9743 330.871 41.7459C330.488 41.5812 329.625 41.2753 328.953 41.0659C328.282 40.8568 326.712 40.3661 325.466 39.9759C321.618 38.7718 320.014 38.4645 317.551 38.459C314.955 38.4535 313.607 38.1901 313.607 37.6877C313.607 37.5098 313.943 37.3638 314.354 37.3638C314.764 37.3638 315.865 36.8687 316.8 36.2636C317.735 35.6584 318.585 35.1633 318.689 35.1633C318.793 35.1633 319.536 34.8483 320.34 34.4632C323.37 33.0126 329.351 31.8625 333.861 31.8625C335.19 31.8625 336.273 31.7385 336.267 31.5874C336.239 30.855 324.068 24.7265 321.07 23.935C320.607 23.8125 320.141 23.5657 320.036 23.3863C319.93 23.207 319.466 23.0603 319.005 23.0603C318.527 23.0603 318.008 22.7493 317.798 22.3378C317.479 21.7106 317.606 21.5214 318.756 20.9041C320.16 20.1512 321.807 19.8523 326.337 19.5277C330.862 19.2038 337.155 20.4189 342.807 22.7082C348.307 24.9359 349.797 25.6569 352.056 27.1863C353.174 27.9426 354.161 28.5617 354.251 28.5617C354.34 28.5617 355.865 29.6139 357.639 30.9001C359.414 32.1863 361.568 33.6115 362.427 34.0678C363.286 34.5237 365.205 35.7725 366.691 36.843C368.968 38.4825 374.166 41.3982 374.813 41.3982C374.919 41.3982 375.61 41.8192 376.349 42.3338C377.548 43.1678 383.546 45.0658 384.983 45.0658C385.708 45.0658 385.428 43.4726 384.241 40.8341C382.997 38.0669 382.626 35.0789 383.245 32.7922C384.186 29.312 384.408 28.9284 385.475 28.9284C386.016 28.9284 386.556 28.7626 386.675 28.5606C386.942 28.1054 393.273 28.4219 394.186 28.9361C394.537 29.1334 395.237 29.2952 395.741 29.2952C396.586 29.2952 399.36 30.31 400.935 31.1953C401.297 31.3989 402.395 31.8078 403.376 32.1038C404.356 32.4001 405.786 32.9404 406.554 33.3049C409.181 34.5523 409.418 34.5622 409.605 33.4322C409.698 32.8714 410.322 30.1846 410.991 27.4614C411.66 24.7382 412.453 21.4374 412.752 20.1262C413.052 18.8151 413.622 16.8034 414.019 15.6554C414.726 13.6126 415.887 9.30064 417.309 3.43875C417.7 1.82501 418.187 0.383286 418.391 0.235116C418.889 -0.128341 421.292 -0.0579235 422.667 0.36018ZM339.949 294.07C337.822 296.271 332.315 299.596 330.795 299.596C329.464 299.596 325.23 302.157 322.474 304.629C319.568 307.235 317.859 308.972 314.584 312.647C312.747 314.708 309.129 317.2 307.973 317.2C307.71 317.2 306.915 317.526 306.208 317.924C305.151 318.521 296.464 321.564 293.902 322.235C289.154 323.48 281.999 327.076 280.994 328.722C280.738 329.143 280.363 330.445 280.161 331.617C279.959 332.788 279.712 333.885 279.612 334.055C279.513 334.224 279.262 335.659 279.056 337.243C278.675 340.167 277.235 346.084 276.632 347.208C275.846 348.672 274.813 352.42 274.542 354.793C274.381 356.205 274.018 358.433 273.737 359.744C273.454 361.055 273.143 362.717 273.045 363.437L272.866 364.746L275.269 365.729C276.59 366.27 277.929 366.712 278.244 366.712C278.559 366.712 279.936 366.004 281.302 365.138C285.17 362.688 287.349 362.209 298.337 361.398C306.094 360.825 307.826 360.298 310.213 357.788C310.902 357.063 311.909 356.371 312.45 356.251C314.256 355.848 315.713 354.988 316.005 354.153C316.164 353.698 316.226 351.738 316.142 349.796C316.012 346.777 316.091 346.061 316.69 344.845C317.408 343.389 318.807 341.77 320.882 339.994C321.935 339.093 322.078 338.742 322.298 336.506C322.517 334.274 322.676 333.882 323.849 332.67C324.568 331.928 325.587 330.765 326.112 330.086C326.718 329.303 327.445 328.805 328.098 328.723C329.647 328.529 331.489 328.486 332.218 328.627C333.058 328.79 333.291 328.297 334.159 324.535C334.554 322.821 335.329 319.685 335.881 317.567C339.774 302.625 340.859 298.525 341.215 297.395C341.438 296.689 341.659 295.781 341.706 295.378C341.753 294.974 341.964 294.18 342.173 293.612C343.047 291.249 342.581 291.344 339.949 294.07ZM147.334 344.571C145.559 345.126 144.107 345.706 144.107 345.86C144.107 346.013 145.871 347.591 148.027 349.365C152.537 353.078 153.351 353.903 157.415 358.859C160.436 362.544 166.06 368.205 167.814 369.327C168.342 369.665 169.502 370.526 170.392 371.24C172.448 372.89 181.338 377.45 183.867 378.152C184.538 378.337 185.637 378.642 186.308 378.827C188.649 379.474 193.518 379.082 194.379 378.177C194.696 377.843 193.716 375.071 191.558 370.197C190.932 368.784 190.182 367.052 189.89 366.346C189.597 365.64 189.003 364.319 188.569 363.412C187.19 360.527 183.411 350.781 183.439 350.18C183.501 348.829 170.158 345.66 168.618 346.661C168.006 347.059 164.718 347.696 162.47 347.853C159.782 348.039 157.591 347.49 155.715 346.158C154.875 345.562 154.075 345.074 153.938 345.074C153.801 345.074 153.391 344.656 153.026 344.144C152.257 343.067 152.098 343.079 147.334 344.571ZM99.8142 355.64C97.3735 356.059 95.2803 357.027 95.2803 357.737C95.2803 358.039 95.1041 358.583 94.8889 358.945C94.5991 359.434 94.6033 360.073 94.905 361.416C95.1289 362.413 95.5237 364.383 95.7821 365.795C96.3042 368.648 97.2902 371.459 98.7393 374.228C99.9199 376.485 101.957 379.549 102.278 379.549C102.407 379.549 102.713 378.765 102.957 377.807C103.688 374.935 105.372 372.189 108.198 369.26C111.103 366.249 113.938 364.108 115.857 363.477C116.529 363.256 118.189 362.682 119.546 362.203C121.819 361.399 122.225 361.361 124.682 361.729C126.15 361.948 127.64 362.375 127.993 362.678C128.346 362.981 129.566 363.717 130.704 364.314C132.812 365.421 136.722 368.487 138.031 370.059C139.336 371.627 141.748 375.619 142.568 377.567C143.252 379.194 143.871 383.456 143.867 386.517C143.866 387.556 143.446 390.369 143.128 391.472C142.667 393.07 141.043 396.341 140.346 397.076C140.017 397.423 138.986 398.696 138.055 399.906C136.512 401.909 131.948 406.334 129.817 407.892C129.022 408.474 129.01 408.523 129.665 408.523C131.532 408.523 138.264 407.384 139.618 406.839C140.457 406.501 141.793 405.504 142.588 404.623L144.032 403.021L146.598 403.004C149.808 402.984 167.464 402.666 168.172 402.616C168.46 402.596 170.108 402.342 171.834 402.051C173.561 401.761 175.522 401.46 176.194 401.382C177.807 401.197 180.596 400.629 184.128 399.768C187.287 398.998 187.479 398.832 192.141 392.852C194.583 389.718 194.562 389.31 191.976 389.619C190.872 389.751 188.165 389.661 185.959 389.419C183.753 389.177 181.478 388.929 180.902 388.867C176.759 388.423 169.317 386.548 168.364 385.709C168.182 385.548 167.759 385.417 167.424 385.417C166.712 385.417 163.099 383.251 161.605 381.929C161.038 381.427 160.477 381.016 160.359 381.016C160.241 381.016 158.851 380.131 157.27 379.05C155.689 377.968 153.707 376.715 152.864 376.265C151.141 375.344 146.397 371.978 144.282 370.175C143.034 369.111 140.598 367.325 135.214 363.526C130.495 360.196 122.258 356.981 114.637 355.494C111.985 354.976 103.171 355.063 99.8142 355.64ZM318.345 379.916C315.413 383.866 310.873 387.885 307.2 389.781C305.463 390.678 301.845 391.965 297.858 393.106L291.35 394.968L284.081 395.04C278.253 395.098 276.191 394.981 273.674 394.45L270.535 393.787L269.757 394.828C264.893 401.333 259.175 410.206 258.64 412.077C257.454 416.22 258.191 420.186 261.065 425.118C263.83 429.863 270.254 436.519 274.237 438.766C277.618 440.673 281.185 441.335 283.772 440.537C288.838 438.974 292.724 435.333 304.718 420.918L311.341 412.958L312.3 409.365C312.827 407.389 313.51 404.782 313.816 403.572C314.123 402.361 315.85 395.946 317.653 389.316C319.456 382.686 320.932 377.088 320.932 376.877C320.932 376.4 321.104 376.198 318.345 379.916ZM354.043 411.36C351.224 412.788 347.203 416.323 345.065 419.252C344.164 420.486 342.799 422.261 342.032 423.195C341.265 424.129 340.244 425.589 339.765 426.44C337.908 429.731 333.739 435.168 327.523 442.403C324.759 445.619 322.689 447.584 319.327 450.182C313.273 454.86 313.153 455.327 318.665 452.764C324.377 450.108 332.225 450.122 338.021 452.799C341.031 454.19 344.658 456.057 346.77 457.305C348.033 458.052 351.311 459.616 354.055 460.782C358.997 462.881 359.069 462.899 361.797 462.702C363.57 462.574 364.889 462.273 365.499 461.855C367.183 460.702 372.737 454.59 373.345 453.221C373.982 451.787 375.816 443.606 376.172 440.614C377.773 427.136 376.909 422.64 371.312 415.322C369.324 412.722 368.366 411.785 367.072 411.172C364.84 410.114 364.271 410.031 359.972 410.134C356.662 410.213 356.062 410.337 354.043 411.36Z" fill="white" fill-opacity="0.05"/>
<path fill-rule="evenodd" clip-rule="evenodd" d="M946.415 0.36018C945.359 0.68146 944.507 1.42158 945.193 1.42158C945.369 1.42158 945.786 2.78335 946.12 4.44733C946.455 6.11168 947.027 8.44939 947.392 9.64245C947.757 10.8355 948.056 12.1558 948.057 12.5765C948.058 12.9972 948.294 13.814 948.58 14.3916C948.867 14.9696 949.101 15.7123 949.1 16.042C949.099 16.92 950.066 21.4121 950.848 24.1606C952.164 28.7879 952.907 31.7389 954.175 37.3638C954.88 40.4905 955.663 43.3959 955.915 43.8202C956.168 44.2446 956.485 45.2348 956.62 46.0208C956.755 46.8068 957.016 47.7548 957.199 48.1282C957.383 48.5012 957.918 50.3991 958.389 52.3459C959.462 56.7855 959.546 57.0998 961.133 62.6701C962.429 67.2157 962.81 68.6281 963.408 71.1056C963.578 71.8116 964.207 74.2872 964.805 76.6069C966.587 83.524 966.888 84.7475 967.422 87.2381C967.703 88.5467 968.237 90.6097 968.609 91.8226C968.98 93.0355 969.469 95.0083 969.694 96.2065C969.92 97.405 970.237 98.6428 970.4 98.9571C970.562 99.2718 970.948 100.767 971.256 102.28C971.565 103.793 972.34 106.929 972.98 109.248C973.62 111.568 974.252 114.044 974.384 114.75C974.517 115.456 974.839 116.776 975.1 117.684C975.361 118.592 975.835 120.407 976.154 121.718C976.472 123.029 976.948 124.845 977.212 125.752C977.475 126.66 978.09 129.361 978.578 131.753C979.067 134.146 979.697 136.683 979.978 137.391C980.26 138.099 980.49 138.937 980.49 139.254C980.49 139.57 980.873 141.159 981.342 142.785C981.811 144.411 982.607 147.309 983.112 149.225C983.617 151.141 984.321 153.782 984.675 155.093C985.629 158.616 986.731 162.984 987.452 166.096C987.802 167.609 988.509 170.414 989.023 172.331C989.537 174.247 990.498 178.043 991.159 180.766C991.82 183.489 992.907 187.863 993.576 190.485C996.638 202.491 997.281 205.291 997.414 207.203C997.55 209.144 997.494 209.316 996.348 210.485C994.958 211.901 994.872 212.52 995.819 214.293L996.5 215.568L995.644 217.781C994.753 220.088 994.542 222.17 995.137 222.795C995.368 223.038 995.25 223.643 994.788 224.597C993.835 226.561 993.912 227.754 995.138 230.039C995.93 231.515 996.184 232.453 996.184 233.904C996.184 235.015 996.467 236.472 996.856 237.372C997.226 238.225 997.643 239.4 997.782 239.985C998.074 241.21 1000.36 243.735 1002.4 245.09C1003.17 245.602 1004.08 246.512 1004.41 247.11C1004.75 247.708 1005.3 248.274 1005.65 248.368C1007.09 248.766 1009.1 255.486 1009.61 261.636C1009.64 262.04 1009.76 262.617 1009.88 262.92C1010 263.222 1010.36 264.543 1010.69 265.854C1011.39 268.642 1012.66 271.605 1014.15 273.923C1015.64 276.239 1016.29 278.032 1016.96 281.625C1017.27 283.339 1017.67 284.922 1017.84 285.142C1018.01 285.363 1018.05 285.647 1017.93 285.775C1017.81 285.903 1017.88 286.22 1018.08 286.48C1018.29 286.74 1018.61 288.023 1018.81 289.332C1019 290.64 1019.55 293.278 1020.02 295.195C1021.62 301.668 1023.42 308.426 1023.8 309.423C1024 309.969 1024.61 312.23 1025.14 314.449C1025.68 316.668 1026.38 319.474 1026.7 320.684C1027.02 321.895 1027.6 324.205 1027.99 325.819C1028.38 327.433 1028.85 328.943 1029.02 329.175C1029.4 329.668 1028.11 330.726 1025.36 332.195C1023.72 333.071 1023.56 333.265 1023.55 334.438C1023.54 335.144 1023.41 336.339 1023.25 337.094C1022.87 338.912 1023.17 340.023 1024.48 341.585C1025.39 342.679 1025.58 343.23 1025.68 345.168C1025.87 348.713 1025.88 349.366 1025.81 350.949C1025.76 351.945 1025.94 352.664 1026.37 353.164C1026.72 353.57 1027.57 355.299 1028.25 357.005C1029.81 360.895 1031.56 363.403 1034.51 365.979C1039.02 369.923 1039.14 370.103 1040.43 375.162C1041.07 377.675 1041.91 380.888 1042.29 382.3C1042.67 383.712 1043.11 385.362 1043.27 385.967C1043.85 388.214 1045.01 392.652 1045.71 395.319C1046.1 396.832 1046.68 399.143 1046.99 400.454C1047.31 401.765 1047.77 403.098 1048.03 403.417C1048.29 403.735 1048.5 404.212 1048.5 404.476C1048.5 404.74 1047.75 404.225 1046.84 403.332C1045.01 401.531 1041.42 398.62 1041.04 398.62C1040.91 398.62 1040.37 398.292 1039.85 397.891C1038.8 397.075 1033.08 394.953 1031.94 394.953C1031.53 394.953 1031.05 394.792 1030.86 394.597C1030.11 393.806 1018.58 392.95 1017.55 393.609C1017.4 393.7 1015.79 393.885 1013.97 394.02C1012.15 394.155 1010.51 394.421 1010.33 394.609C1010.14 394.798 1009.55 394.953 1009 394.953C1008.45 394.953 1007.43 395.263 1006.72 395.643C1006.01 396.023 1004.01 396.801 1002.29 397.372C999.156 398.409 995.936 399.737 994.615 400.537C992.389 401.886 988.779 403.997 987.116 404.922C983.383 406.999 982.247 407.849 979.709 410.464C976.75 413.513 974.633 416.422 972.719 420.07C971.139 423.081 969.156 428.255 968.616 430.775C968.138 433.008 968.118 440.294 968.587 441.59C968.781 442.127 969.265 444.004 969.662 445.763C971.349 453.236 976.387 460.83 982.768 465.521C986.713 468.421 998.042 474.539 999.466 474.539C999.906 474.539 1000.72 474.7 1001.28 474.897C1003.01 475.508 1010.54 476.487 1013.1 476.434C1018.66 476.319 1025.68 474.519 1031.93 471.605C1034.45 470.429 1036.75 470.042 1038.42 470.514C1041.13 471.282 1044.66 475.083 1044.66 477.235C1044.66 478.955 1041.69 481.119 1038.53 481.703C1034.65 482.421 1030.26 484.928 1028.74 487.299C1027.88 488.649 1027.87 490.231 1028.73 490.734C1029.14 490.974 1029.24 491.369 1029.09 492.155C1028.83 493.517 1029.48 494.406 1030.68 494.326C1031.18 494.293 1032.46 494.284 1033.54 494.305C1035.85 494.351 1036.87 495.138 1037.96 497.724C1038.34 498.637 1038.87 499.522 1039.13 499.69C1039.77 500.107 1041.83 499.884 1042.72 499.303C1043.12 499.041 1044.07 498.624 1044.84 498.376C1047.72 497.446 1051.36 495.275 1053.25 493.363C1054.81 491.79 1055.35 491.455 1056.02 491.631C1056.55 491.771 1057.27 491.58 1058 491.101C1060.09 489.746 1065.27 483.576 1066.6 480.866C1067.41 479.218 1067.62 479.593 1068.84 484.992C1069.12 486.202 1069.85 489.173 1070.47 491.593C1071.09 494.014 1071.81 496.902 1072.07 498.012C1073.21 502.909 1076.44 515.589 1078.39 522.768C1079.36 526.34 1080.98 532.683 1081.16 533.587C1081.25 534.091 1081.46 534.834 1081.61 535.238C1081.77 535.641 1082.25 537.456 1082.69 539.272C1083.12 541.087 1084.02 544.636 1084.67 547.157C1085.33 549.679 1086.16 553.062 1086.53 554.676C1086.9 556.289 1087.35 557.874 1087.53 558.198C1087.71 558.521 1087.96 559.594 1088.1 560.582C1088.24 561.569 1088.56 562.955 1088.82 563.661C1089.34 565.061 1092.2 576.334 1093.01 580.165C1093.29 581.477 1093.81 583.54 1094.17 584.75C1094.53 585.96 1095.65 590.251 1096.66 594.286C1097.67 598.32 1098.88 603.106 1099.34 604.922C1100.12 607.98 1100.35 608.954 1101.13 612.44C1101.29 613.146 1102.15 616.331 1103.04 619.517C1103.92 622.703 1104.65 625.557 1104.65 625.859C1104.65 626.16 1104.95 627.432 1105.32 628.684C1105.69 629.937 1106.41 632.612 1106.91 634.629C1108.41 640.613 1109.58 645.157 1110.09 646.915C1110.34 647.823 1110.82 649.556 1111.14 650.766C1111.46 651.977 1111.93 653.674 1112.19 654.538C1112.46 655.403 1112.67 656.425 1112.67 656.809C1112.67 657.659 1113.21 658.067 1113.81 657.665C1114.05 657.501 1115.73 657.032 1117.55 656.62C1119.98 656.073 1120.89 655.711 1120.97 655.27C1121.03 654.939 1120.04 650.737 1118.75 645.932C1113.38 625.792 1108.4 606.941 1106.96 601.254C1106.29 598.632 1104.71 592.525 1103.44 587.684C1102.16 582.843 1100.5 576.489 1099.75 573.564C1098.99 570.639 1097.42 564.615 1096.26 560.177C1095.1 555.739 1093.6 549.88 1092.92 547.157C1091.17 540.166 1090.91 539.145 1089.47 533.587C1088.76 530.864 1087.9 527.563 1087.56 526.252C1087.22 524.941 1086.71 523.125 1086.43 522.218C1086.14 521.31 1085.66 519.66 1085.37 518.55C1085.07 517.441 1084.5 515.378 1084.11 513.966C1083.43 511.505 1083.05 509.991 1080.42 499.295C1079.78 496.673 1079.07 494.032 1078.84 493.427C1078.62 492.822 1077.82 489.851 1077.07 486.826C1074.87 478.022 1073.18 471.503 1070.31 460.786C1069.88 459.172 1069.4 457.545 1069.25 457.171C1069.01 456.577 1069.15 456.604 1070.33 457.379C1072.28 458.652 1075.06 459.413 1078.68 459.664C1082.12 459.903 1085.87 459.273 1091.92 457.441C1099.43 455.164 1107.23 448.62 1110.65 441.72C1111.48 440.025 1112.16 439.021 1112.25 439.336C1112.6 440.51 1113.5 441.164 1114.76 441.164C1116.36 441.164 1116.55 441.363 1116.12 442.563C1115.86 443.269 1115.92 443.915 1116.32 445.029C1116.82 446.408 1116.82 446.679 1116.3 448.161C1115.99 449.053 1115.61 450.278 1115.45 450.883C1114.84 453.282 1113.7 456.974 1112.18 461.519C1109.78 468.655 1109.47 471.121 1109.41 483.341C1109.35 495.437 1109.41 495.747 1111.83 496.719C1112.68 497.06 1113.39 497.449 1113.41 497.584C1113.44 497.718 1113.49 498.158 1113.54 498.562C1113.58 498.965 1113.8 500.17 1114.02 501.239C1114.24 502.308 1114.42 503.748 1114.42 504.441C1114.42 506.617 1115.4 508.599 1116.87 509.389C1119.02 510.541 1119.62 511.75 1122.38 520.384C1123.32 523.309 1124.74 527.6 1125.54 529.92C1126.34 532.239 1127.67 536.2 1128.5 538.722C1129.32 541.243 1130.26 543.837 1130.58 544.487C1131.02 545.382 1131.15 546.533 1131.11 549.255C1131.07 552.363 1131.19 553.185 1132.01 555.409C1132.53 556.821 1133.14 558.201 1133.35 558.475C1134.29 559.665 1132.88 575.095 1131.48 578.941C1131.27 579.513 1131.09 582.21 1131.07 584.933C1131.04 588.917 1131.22 590.888 1131.98 595.019C1132.5 597.843 1133.17 601.556 1133.46 603.271C1133.76 604.986 1134.15 606.682 1134.33 607.04C1134.59 607.552 1134.41 607.947 1133.49 608.874C1131.84 610.542 1131.16 611.848 1131.16 613.323C1131.16 614.184 1131.38 614.766 1131.86 615.114C1132.43 615.537 1132.53 615.955 1132.43 617.427C1132.3 619.474 1132.82 620.853 1134.12 621.847C1134.61 622.222 1135.09 622.996 1135.19 623.569C1135.59 625.892 1137.54 627.477 1140 627.477C1141.15 627.477 1141.27 627.585 1141.57 628.852C1141.75 629.609 1141.89 630.475 1141.88 630.778C1141.87 631.081 1142.06 632.788 1142.3 634.574C1142.67 637.267 1142.92 638.027 1143.77 639.044C1144.33 639.718 1145.32 640.452 1145.97 640.676C1147.21 641.109 1148.21 642.345 1148.22 643.48C1148.24 646.724 1149.43 651.74 1150.33 652.37C1150.84 652.732 1151.04 653.273 1151.04 654.307C1151.04 656.252 1151.76 657.936 1153.12 659.135C1154.03 659.946 1154.17 660.235 1153.83 660.663C1153.6 660.954 1153.33 662.182 1153.22 663.393C1153.02 665.763 1153.35 667.025 1154.81 669.377C1155.83 671.021 1155.7 672.723 1154.34 675.54C1153.87 676.526 1153.48 677.544 1153.47 677.803C1153.47 678.757 1151.78 682.057 1150.12 684.343C1148.63 686.407 1148.42 686.915 1148.42 688.466C1148.42 689.92 1148.58 690.36 1149.29 690.939C1149.77 691.326 1150.4 691.653 1150.69 691.666C1150.98 691.678 1151.53 692.218 1151.91 692.866C1152.34 693.577 1152.96 694.09 1153.48 694.161C1154 694.232 1154.63 694.748 1155.05 695.445C1155.48 696.146 1156.1 696.656 1156.62 696.724C1157.1 696.787 1158.15 697.158 1158.97 697.549C1159.78 697.941 1160.69 698.261 1160.98 698.261C1161.9 698.261 1163.92 697.231 1165.25 696.084C1166.6 694.911 1167.43 695.066 1167.43 696.493C1167.43 696.996 1167.99 697.47 1169.35 698.126L1171.27 699.051L1172.45 698.286C1173.1 697.864 1173.72 697.233 1173.83 696.882C1173.94 696.531 1174.18 695.997 1174.35 695.694C1176.31 692.234 1176.16 686.86 1173.97 682.858C1173.02 681.099 1173.07 678.765 1174.14 675.889C1176.21 670.326 1176.51 668.696 1176.34 663.846L1176.19 659.322L1174.66 657.604C1172.98 655.72 1172.74 654.775 1171.96 646.915C1170.99 637.241 1171.03 636.291 1172.39 637.057C1172.82 637.301 1174.52 637.509 1176.16 637.519C1178.68 637.535 1179.36 637.405 1180.52 636.688L1181.89 635.837L1185.64 637.892C1188.02 639.193 1189.83 639.947 1190.57 639.947C1191.89 639.947 1194.24 638.345 1195.21 636.787C1196.14 635.303 1197.82 634.699 1199.61 635.203C1201.06 635.61 1204.77 637.329 1207.95 639.07C1209.43 639.883 1215.02 641.522 1221.31 642.988C1223.72 643.55 1229.47 644.147 1231.34 644.03C1232.4 643.963 1235.56 642.558 1236.66 641.663C1237.23 641.203 1237.36 640.664 1237.36 638.78V636.463L1238.57 636.279C1239.5 636.14 1239.91 635.833 1240.28 634.996C1241.18 632.952 1241.75 632.523 1243.22 632.771C1244.19 632.934 1249.96 635.651 1251.04 636.451C1251.08 636.484 1250.97 637.047 1250.8 637.701C1250.62 638.355 1250.57 640.305 1250.68 642.034L1250.89 645.178L1253.98 648.502C1255.67 650.33 1257.06 651.943 1257.06 652.086C1257.06 652.229 1257.6 653.348 1258.26 654.572C1259.78 657.398 1261.06 661.366 1261.6 664.886C1261.83 666.399 1262.17 668.092 1262.37 668.648C1262.77 669.781 1264.85 671.855 1265.59 671.855C1266.23 671.855 1267.72 673.764 1268.77 675.939C1269.51 677.484 1269.96 677.894 1272.13 679.043C1275.94 681.065 1277.93 680.726 1278.63 677.936C1278.9 676.849 1278.97 676.811 1280.55 676.932C1282.1 677.05 1282.29 676.961 1283.75 675.422C1284.75 674.372 1285.31 673.462 1285.31 672.884C1285.31 672.386 1285.72 671.585 1286.22 671.093C1289.54 667.834 1288.94 661.618 1285.14 659.915C1283.29 659.089 1281.46 657.112 1281.07 655.534C1280.46 653.055 1280.32 651.316 1280.74 651.316C1280.95 651.316 1281.13 651.481 1281.13 651.683C1281.13 651.885 1281.67 652.05 1282.33 652.05C1282.99 652.05 1283.93 652.237 1284.4 652.466C1285.09 652.793 1285.78 652.747 1287.65 652.256C1290.41 651.527 1290.85 651.166 1292.5 648.31C1293.37 646.817 1294.01 646.114 1294.67 645.953C1295.18 645.827 1296.23 645.103 1296.99 644.345C1298.87 642.494 1299.2 642.35 1303.59 641.434C1307.48 640.625 1308.76 640.026 1312.49 637.29C1315.2 635.307 1317.25 634.726 1319.27 635.367C1320.14 635.641 1321.19 636.058 1321.61 636.294C1322.03 636.529 1323.6 636.947 1325.09 637.222C1327.6 637.682 1327.97 637.666 1329.74 637.027C1332.82 635.913 1333.92 634.947 1339.09 628.8C1340.27 627.401 1340.35 627.371 1342.94 627.281C1348.82 627.077 1356.21 622.516 1358.35 617.768C1359.17 615.955 1360.05 615.489 1363.24 615.19C1366.68 614.869 1368.85 613.865 1372.63 610.851C1376.87 607.473 1379.09 605.984 1381.22 605.095C1388.09 602.228 1391.95 599.9 1393.6 597.625C1394.13 596.898 1394.77 596.303 1395.02 596.303C1395.28 596.303 1395.79 595.601 1396.17 594.744C1396.54 593.887 1397.72 591.782 1398.79 590.068C1400.22 587.78 1400.74 586.606 1400.75 585.657C1400.75 583.881 1400.26 583.178 1396.52 579.612L1395.24 578.4L1395.2 574.459C1395.12 567.273 1394.54 565.925 1388.73 559.479C1386.61 557.121 1386.35 556.523 1386.61 554.685C1386.74 553.782 1386.99 552.946 1387.17 552.829C1387.35 552.711 1387.5 552.285 1387.5 551.882C1387.5 551.478 1387.34 551.25 1387.15 551.375C1386.96 551.5 1386.8 551.437 1386.8 551.235C1386.8 550.654 1387.42 550.405 1387.6 550.914C1387.73 551.273 1387.86 551.277 1388.2 550.936C1388.56 550.581 1388.56 550.078 1388.21 548.325C1387.7 545.791 1387.89 544.935 1389.42 542.939C1391.75 539.907 1391.79 539.383 1390.15 534.209C1389.22 531.263 1389.01 530.079 1389.14 528.626L1389.32 526.783L1387.27 525.805C1386.15 525.267 1384.37 524.472 1383.31 524.04C1382.26 523.607 1380.69 522.956 1379.83 522.592C1378.96 522.228 1375.98 521.018 1373.2 519.901C1370.42 518.785 1367.04 517.353 1365.7 516.72C1364.36 516.087 1362.71 515.321 1362.04 515.017C1361.37 514.714 1360.5 514.318 1360.12 514.137C1359.74 513.956 1358.11 513.362 1356.51 512.818C1354.91 512.274 1353.38 511.597 1353.11 511.312C1352.84 511.028 1352.6 510.106 1352.58 509.263C1352.41 503.394 1351.36 500.74 1347.71 496.931C1344.96 494.063 1344.88 493.825 1345.16 489.623L1345.4 485.932L1344.3 484.851C1343.57 484.137 1342.16 483.438 1340.15 482.792C1338.47 482.255 1334.91 481.105 1332.22 480.237C1327.39 478.677 1323.37 477.528 1319.32 476.545C1318.16 476.266 1316.2 475.711 1314.96 475.311C1313.71 474.911 1310.96 474.155 1308.85 473.632C1306.74 473.108 1304.7 472.537 1304.32 472.362C1303.94 472.188 1302.74 471.772 1301.65 471.437C1298.79 470.551 1298.52 470.258 1298.91 468.488C1299.25 466.982 1298.99 465.578 1298.01 463.592C1297.74 463.057 1297.52 462.45 1297.52 462.243C1297.52 462.035 1296.58 460.65 1295.43 459.165L1293.33 456.466V453.754C1293.33 452.263 1293.12 450.504 1292.86 449.846C1292.37 448.627 1290.64 446.86 1289.34 446.264C1288.95 446.082 1288.39 445.774 1288.1 445.58C1287.81 445.385 1286.64 444.788 1285.49 444.254C1283.63 443.392 1282.29 442.941 1278.51 441.897C1276.45 441.328 1269.86 438.905 1268.59 438.252C1268.3 438.104 1267.69 436.335 1267.17 434.168C1266.67 432.065 1266.01 429.85 1265.7 429.245C1264.92 427.713 1262.73 425.591 1261.09 424.786C1259.45 423.979 1259.27 423.411 1259.31 419.159C1259.33 416.272 1259.38 416.047 1260.03 416.117C1260.41 416.159 1261.66 416.277 1262.82 416.38C1263.97 416.483 1266.24 416.745 1267.87 416.963C1269.5 417.18 1272.01 417.502 1273.45 417.68C1276.93 418.107 1287.39 417.937 1288.28 417.438C1288.66 417.222 1290.07 416.946 1291.41 416.824C1296.43 416.369 1300.64 415.262 1310.6 411.782C1312.32 411.178 1314.44 410.46 1315.3 410.186C1316.17 409.912 1318.52 409.02 1320.52 408.205C1322.53 407.39 1324.23 406.779 1324.29 406.848C1324.36 406.916 1324.04 407.28 1323.58 407.656C1323.13 408.032 1322.22 409.197 1321.56 410.245C1317.59 416.565 1317.5 416.928 1319.48 419.333C1320.28 420.302 1321.18 421.526 1321.49 422.053C1322.32 423.502 1325.38 426.459 1326.87 427.257C1328.67 428.222 1331.86 429.146 1333.96 429.311C1335.59 429.439 1337.83 428.957 1353.15 425.19C1356.85 424.278 1357.4 424.406 1361.72 427.182C1365.51 429.618 1369.88 433.27 1376.44 439.482C1378.16 441.113 1379.74 442.458 1379.96 442.47C1380.79 442.518 1381.09 441.858 1380.97 440.241C1380.87 438.783 1380.99 438.419 1381.88 437.479C1382.8 436.517 1384.02 436.118 1385.23 436.387C1385.42 436.429 1386.13 436.512 1386.8 436.57C1387.47 436.628 1389.05 437.175 1390.3 437.785C1394.16 439.671 1396.35 440.185 1399.33 439.911C1401.09 439.751 1402.28 439.434 1402.89 438.968C1403.81 438.272 1403.83 438.273 1406.21 439.214C1412.79 441.822 1413.98 442.043 1421.51 442.063L1428.5 442.081L1431.02 440.478C1433.62 438.829 1434.18 437.964 1433.71 436.389C1433.49 435.68 1433.29 435.617 1431.85 435.804C1427.26 436.397 1424.66 436.463 1422.63 436.039C1418.99 435.28 1415.26 433.644 1410.05 430.518C1408.55 429.616 1406.73 428.548 1406.01 428.144C1404.71 427.418 1402.06 425.093 1397.64 420.778C1395.39 418.592 1391.48 415.491 1390.96 415.491C1390.82 415.491 1389.63 414.843 1388.31 414.051C1387 413.259 1384.68 412.094 1383.16 411.461C1381.64 410.829 1379.99 410.013 1379.5 409.65C1378.48 408.894 1373.17 407.122 1370.58 406.67C1369.63 406.503 1367.66 406.097 1366.22 405.767C1364.79 405.438 1362.9 405.114 1362.04 405.047C1361.18 404.981 1358.97 404.811 1357.14 404.671C1353.7 404.405 1350.23 404.762 1345.9 405.825C1343.97 406.299 1343.35 406.323 1342.5 405.952C1341.93 405.703 1341.46 405.305 1341.46 405.067C1341.46 404.341 1346.75 401.226 1349.32 400.432C1352.22 399.539 1359.57 398.638 1364.03 398.628C1370.05 398.614 1376.34 399.571 1376.34 400.498C1376.34 401.123 1379.04 400.832 1379.87 400.118L1380.7 399.415L1379.97 398.376C1379.13 397.182 1373.4 392.5 1372.34 392.149C1371.96 392.02 1370.79 391.252 1369.75 390.442C1368.7 389.632 1365.99 387.963 1363.71 386.735C1358.56 383.961 1357.18 383.186 1356.1 382.466C1354.96 381.717 1350.93 379.957 1349.64 379.647C1348.21 379.306 1346.07 379.313 1344.49 379.663C1343.26 379.935 1343.19 379.905 1343.51 379.277C1344.13 378.051 1342.8 376.486 1340.15 375.328C1338.86 374.763 1337.65 374.16 1337.47 373.99C1337.29 373.82 1336.92 373.681 1336.66 373.681C1336.4 373.681 1335.37 373.289 1334.38 372.81C1332.14 371.732 1329.31 370.407 1328.38 370.002C1325.1 368.567 1317.13 366.993 1312.29 366.821C1308.44 366.686 1307.79 366.76 1305.31 367.618C1303.81 368.138 1302.26 368.706 1301.88 368.879C1301.49 369.052 1300.13 369.642 1298.84 370.189C1296.86 371.031 1296.36 371.431 1295.61 372.784C1295.12 373.664 1294.56 375.257 1294.37 376.325C1293.92 378.912 1292.84 381.907 1291.1 385.43C1289.94 387.775 1289.1 388.868 1286.7 391.135C1283.06 394.588 1278.56 397.754 1276.34 398.426C1270.63 400.157 1263 400.085 1259.33 398.265C1258.94 398.075 1257.61 397.483 1256.36 396.949C1251.21 394.742 1247.53 392.19 1246.07 389.818C1244.57 387.37 1244.33 385.876 1245.02 383.388C1245.98 379.898 1248.81 378.684 1252.3 380.258C1254.07 381.055 1254.43 381.585 1254.8 383.941C1255.14 386.134 1256.65 387.702 1259.16 388.465C1263.57 389.81 1265.37 390.191 1268.37 390.412C1272.66 390.727 1275.27 390.049 1281.3 387.054C1283.98 385.726 1288.48 382.125 1288.87 380.995C1289.01 380.603 1289.27 380.282 1289.45 380.282C1289.62 380.282 1289.87 379.828 1290 379.274C1290.12 378.719 1290.59 377.44 1291.04 376.431C1293.56 370.761 1294.02 368.226 1293.41 363.221C1293.03 360.036 1290.63 356.152 1287.53 353.723C1286.74 353.101 1284.88 351.547 1283.4 350.268C1280.8 348.022 1276.2 345.089 1275.26 345.079C1275.01 345.076 1273.8 344.566 1272.58 343.946C1271.36 343.326 1269.38 342.578 1268.18 342.284C1266.98 341.99 1265.79 341.563 1265.52 341.334C1265.26 341.106 1264.15 340.874 1263.06 340.819C1261.97 340.764 1259.81 340.383 1258.27 339.973C1256.17 339.413 1253.88 339.179 1249.09 339.036C1245.58 338.931 1242.56 338.751 1242.38 338.636C1241.81 338.267 1242.69 337.111 1243.71 336.894C1244.24 336.779 1245.34 336.015 1246.15 335.195C1247.51 333.814 1247.76 333.704 1249.57 333.704C1251.83 333.704 1253.17 333.08 1254.36 331.474C1255.08 330.513 1255.32 330.394 1255.88 330.733C1256.83 331.315 1274.09 333.911 1277.89 334.043C1278.89 334.077 1281.16 334.415 1282.94 334.792C1284.73 335.17 1288.3 335.923 1290.89 336.467C1294 337.119 1295.83 337.685 1296.28 338.133C1296.93 338.791 1296.93 338.837 1296.32 339.55C1295.97 339.956 1295.02 340.623 1294.22 341.033C1291.54 342.394 1290.43 344.354 1291.42 345.945C1291.92 346.744 1295.78 349.475 1296.41 349.475C1296.55 349.475 1297.28 349.831 1298.05 350.266C1298.81 350.702 1300.3 351.263 1301.35 351.513C1302.41 351.763 1304.84 352.384 1306.76 352.893C1308.68 353.402 1312.32 354.246 1314.86 354.768C1320.71 355.974 1321.38 356.234 1321.1 357.183C1320.98 357.583 1320.79 358.226 1320.68 358.612C1320.43 359.449 1321.45 360.146 1323 360.192C1323.56 360.209 1324.02 360.388 1324.02 360.59C1324.02 360.793 1324.31 360.686 1324.66 360.353C1325.51 359.546 1330.34 359.039 1337.36 359.019C1339.04 359.014 1340.42 358.864 1340.42 358.685C1340.42 358.215 1338.13 357.937 1332.48 357.716C1329.74 357.61 1327.12 357.367 1326.64 357.177C1325.86 356.866 1325.81 356.736 1326.18 355.903C1326.7 354.687 1326.15 353.367 1324.8 352.633C1323.93 352.162 1319.86 351.238 1316.53 350.757C1314.09 350.404 1313.15 350.224 1311.99 349.889C1311.32 349.694 1310.77 349.587 1310.77 349.652C1310.77 349.718 1309.71 349.371 1308.42 348.881C1307.12 348.392 1305.12 347.645 1303.97 347.22C1302.04 346.508 1300.31 345.31 1300.31 344.686C1300.31 344.543 1300.58 344.331 1300.92 344.216C1302.06 343.822 1304.66 342.074 1305.83 340.913C1306.96 339.801 1306.99 339.672 1306.82 337.608C1306.47 333.289 1303.78 331.808 1290.02 328.325C1288.1 327.839 1285.59 327.274 1284.44 327.069C1281.77 326.595 1276.93 325.05 1274.67 323.958C1273.71 323.493 1271.91 322.674 1270.66 322.137C1268.08 321.026 1266.13 319.608 1266.13 318.841C1266.13 318.092 1267.73 317.325 1270.33 316.833C1271.57 316.598 1272.86 316.146 1273.19 315.829C1274.68 314.427 1273.35 311.487 1270.37 309.577C1268.54 308.409 1264.75 306.85 1263.58 306.788C1263.16 306.766 1262.82 306.582 1262.83 306.381C1262.86 305.75 1263.79 303.997 1264.09 303.997C1264.25 303.997 1264.39 303.667 1264.39 303.263C1264.39 302.347 1264.72 302.347 1266.76 303.258C1267.66 303.659 1269.81 304.408 1271.53 304.921C1275.04 305.964 1281.47 309.036 1281.47 309.665C1281.47 309.888 1280.82 310.313 1280.02 310.61C1278.14 311.311 1277.73 312.003 1278.33 313.51C1279.48 316.449 1285.02 317.436 1299.26 317.24C1307.23 317.13 1307.48 317.149 1308.42 317.924C1309.55 318.867 1309.62 319.514 1308.69 320.748C1307.92 321.778 1308.13 322.399 1309.63 323.579C1310.42 324.2 1311.11 324.267 1316.21 324.213L1321.91 324.153L1322.5 325.108C1323 325.909 1323.03 326.257 1322.69 327.251C1322.14 328.857 1322.1 328.782 1323.67 329.44C1324.8 329.918 1325.97 329.986 1330.21 329.816C1333.04 329.702 1335.83 329.599 1336.41 329.587C1336.98 329.575 1338.19 329.873 1339.09 330.249C1341.17 331.117 1341.58 330.704 1340.08 329.263C1338.59 327.834 1337.4 327.363 1335.98 327.643C1335.27 327.784 1334.47 327.657 1333.82 327.301C1333.25 326.99 1331.92 326.736 1330.86 326.736C1329.81 326.736 1328.85 326.568 1328.73 326.363C1328.61 326.158 1328.37 326.078 1328.21 326.186C1327.5 326.646 1327.51 325.506 1328.22 324.712C1329.41 323.377 1328.95 321.516 1327.11 320.235C1325.82 319.341 1325.27 319.226 1321.17 318.99C1317.6 318.786 1316.51 318.596 1315.98 318.092C1315.61 317.741 1315.3 317.343 1315.3 317.209C1315.3 317.075 1315.87 316.27 1316.56 315.42C1317.71 314.013 1317.78 313.783 1317.42 312.854C1316.68 310.988 1314.93 310.658 1305.89 310.686C1303.68 310.692 1301.41 310.695 1300.83 310.692C1298.63 310.678 1295.54 310.258 1294.09 309.773L1292.57 309.268L1293.56 308.031C1294.54 306.812 1294.67 305.743 1293.96 304.835C1293.21 303.865 1289.84 301.79 1287.04 300.573C1285.35 299.837 1283.82 298.908 1283.45 298.392C1282.83 297.532 1282.83 297.44 1283.41 296.252C1283.75 295.57 1284.93 294.065 1286.04 292.909C1287.74 291.136 1288.03 290.65 1287.88 289.8C1287.66 288.514 1287.53 288.392 1286.93 288.917C1286.55 289.252 1286.39 289.217 1286.22 288.756C1285.9 287.878 1285.97 287.601 1286.36 288.226C1286.63 288.662 1286.7 288.585 1286.7 287.856C1286.71 287.144 1286.17 286.513 1284.35 285.077C1279.67 281.383 1273.02 277.617 1270.23 277.076C1268.54 276.75 1268.54 276.137 1270.23 276.076C1270.95 276.051 1271.85 275.983 1272.23 275.927C1272.96 275.82 1274.9 275.634 1281.32 275.055C1285.32 274.693 1286.69 274.286 1288.01 273.055C1289.11 272.04 1289.02 269.522 1287.89 269.522C1286.79 269.522 1287.52 268.896 1289.12 268.465C1290.06 268.21 1291.56 267.519 1292.44 266.928C1293.33 266.337 1294.19 265.854 1294.36 265.854C1294.53 265.854 1294.77 265.207 1294.9 264.416C1295.02 263.624 1295.33 262.896 1295.58 262.797C1295.82 262.698 1297.5 262.504 1299.3 262.367C1303.95 262.012 1307.72 260.972 1309.93 259.433C1312.31 257.769 1314.19 255.446 1314.33 253.983C1314.46 252.741 1313.63 250.594 1312.3 248.733C1311.35 247.393 1311.12 246.025 1311.98 246.774C1312.39 247.133 1313.18 247.035 1315.91 246.285C1317.78 245.77 1319.74 245.269 1320.27 245.174C1322.04 244.85 1327.33 242.283 1329.78 240.553C1331.78 239.143 1332.6 238.789 1334.31 238.6C1337.09 238.294 1340.95 237.211 1342.71 236.246C1343.49 235.817 1344.94 234.79 1345.93 233.963C1347.64 232.546 1347.9 232.452 1350.44 232.318C1351.93 232.239 1353.38 232.1 1353.67 232.007C1353.96 231.915 1354.7 231.714 1355.33 231.562C1355.95 231.41 1357.09 230.647 1357.86 229.865C1359 228.697 1359.25 228.197 1359.25 227.041C1359.25 225.709 1359.34 225.59 1361.04 224.753C1363.5 223.542 1366.91 220.97 1367.68 219.741C1368.14 218.998 1368.31 218.024 1368.31 216.109C1368.32 213.705 1368.24 213.442 1367.42 212.877C1366.93 212.538 1365.87 212.136 1365.07 211.983C1363.63 211.708 1363.53 211.572 1363.94 210.464C1364.05 210.156 1363.71 209.006 1363.18 207.91C1362.44 206.383 1361.86 205.723 1360.69 205.087C1358.39 203.827 1356.54 203.646 1349.14 203.946C1345.39 204.098 1337.63 204.393 1331.87 204.602C1326.12 204.811 1319.21 205.145 1316.53 205.343C1313.84 205.541 1310.39 205.782 1308.85 205.878C1307.32 205.973 1305.2 206.129 1304.14 206.223C1303.09 206.317 1300.97 206.495 1299.44 206.618C1296.48 206.855 1292.77 207.327 1289.32 207.906C1288.17 208.099 1286.44 208.341 1285.49 208.443C1283.63 208.642 1281.13 209.122 1278.86 209.722C1278.09 209.924 1276.84 210.097 1276.07 210.107C1275.3 210.117 1273.73 210.457 1272.58 210.863C1271.43 211.268 1268.37 212.012 1265.78 212.516C1263.19 213.02 1260.21 213.691 1259.15 214.009C1258.1 214.326 1256.22 214.886 1254.97 215.253C1252.4 216.007 1247.47 217.669 1246.42 218.133C1246.04 218.302 1245.13 218.711 1244.41 219.041C1243.68 219.372 1242.9 219.648 1242.66 219.655C1242.43 219.662 1241.61 219.986 1240.84 220.376C1240.08 220.766 1239.24 221.09 1238.98 221.097C1238.37 221.114 1232.3 224.293 1231.59 224.975C1231.28 225.27 1230.86 225.511 1230.67 225.511C1230.47 225.511 1229.7 225.968 1228.95 226.527C1228.2 227.085 1227.2 227.744 1226.72 227.991C1221.35 230.756 1211.27 239.241 1207.45 244.215C1205.96 246.149 1203.7 249.599 1203.7 249.927C1203.7 250.053 1203.45 250.759 1203.14 251.495C1202.83 252.231 1202.45 253.164 1202.29 253.568C1201.84 254.669 1200.87 258.765 1200.43 261.411C1200.12 263.232 1199.87 263.817 1199.31 264.036C1198.91 264.191 1197.78 265.28 1196.8 266.454L1195.02 268.589L1194.1 267.68C1193.26 266.86 1193.19 266.574 1193.33 264.754C1193.55 262.002 1193.22 261.279 1191.39 260.547C1190.1 260.026 1189.61 259.997 1188.32 260.362C1187.48 260.6 1186.34 261.13 1185.8 261.54C1184.7 262.362 1181.73 262.891 1181.73 262.264C1181.73 262.052 1182.26 261.536 1182.9 261.118C1183.54 260.698 1184.48 259.736 1184.98 258.979C1185.8 257.727 1185.85 257.462 1185.51 256.064C1185.05 254.166 1184.59 253.721 1181.73 252.448C1179.41 251.416 1176.99 251.129 1174.84 251.633C1174.22 251.779 1173.71 251.779 1173.71 251.633C1173.72 251.487 1174.74 250.576 1175.98 249.609C1177.82 248.177 1178.24 247.662 1178.24 246.828C1178.24 246.265 1178.15 245.708 1178.04 245.591C1177.92 245.473 1177.08 245.775 1176.15 246.263C1175.23 246.75 1174.17 247.149 1173.79 247.149C1173.41 247.149 1172.49 247.372 1171.74 247.643C1168.85 248.7 1166.04 248.078 1164.18 245.97C1163.29 244.956 1163.05 244.875 1161.48 245.034C1160.5 245.132 1159.44 245.497 1159.05 245.871C1158.67 246.235 1158.24 246.412 1158.1 246.265C1157.84 245.988 1160.1 243.632 1163 241.171C1163.9 240.405 1164.64 239.621 1164.64 239.429C1164.64 238.803 1162.28 239.062 1159.51 239.993C1156.21 241.099 1155.39 241.125 1153.43 240.189C1150.69 238.88 1148.85 239.208 1144.76 241.737C1142.61 243.062 1140.12 243.621 1138.63 243.108C1138 242.889 1136.73 241.88 1135.8 240.867C1130.72 235.299 1124 235.492 1118.35 241.368C1117.16 242.608 1116.1 243.541 1116 243.439C1115.7 243.121 1117.8 238.941 1118.72 238.033C1119.79 236.981 1119.57 236.147 1118.23 236.147C1116.9 236.147 1115.7 236.727 1113.15 238.608C1110.56 240.518 1108.34 243.277 1106.13 247.357C1105.22 249.043 1104.27 250.508 1104.02 250.616C1103.34 250.907 1100.39 250.124 1099.7 249.468C1099.37 249.153 1098.84 248.997 1098.53 249.124C1098.06 249.312 1098 249.677 1098.2 251.185C1098.49 253.393 1098.1 253.537 1096.73 251.734C1094.59 248.916 1093.33 250.827 1093.32 256.896C1093.32 260.95 1093.64 262.317 1095.09 264.387C1095.3 264.689 1095.58 265.237 1095.7 265.603C1095.89 266.157 1095.8 266.227 1095.14 266.02C1094.71 265.883 1093.55 265.214 1092.56 264.533C1090.97 263.437 1090.7 263.05 1090.16 261.182C1089.21 257.869 1088.9 257.515 1086.49 257.017C1084.15 256.534 1083.75 256.079 1084.54 254.789C1085.23 253.659 1088.79 244.8 1089.31 242.932C1090.47 238.711 1090.72 235.635 1090.24 231.745C1089.97 229.634 1089.17 226.732 1088.61 225.877C1088.28 225.373 1087.81 224.097 1087.58 223.042C1086.7 219.141 1082.54 210.191 1079.32 205.3C1078.71 204.37 1077.88 202.926 1077.47 202.091C1077.07 201.255 1076.62 200.571 1076.47 200.571C1076.32 200.571 1075.91 200.035 1075.54 199.379C1074.97 198.351 1073.18 195.672 1072.29 194.52C1072.14 194.318 1071 192.75 1069.77 191.035C1068.54 189.321 1066.89 187.093 1066.11 186.084C1055.12 171.99 1050.09 166.453 1043.35 161.042C1037.53 156.369 1035.69 154.838 1032.42 151.958C1027.79 147.872 1021.02 142.511 1018.09 140.613C1015.43 138.892 1015.38 138.875 1012.86 139.013C1008.6 139.246 1006.86 141.221 1006.96 145.695C1007.02 147.911 1007.15 148.441 1007.88 149.241C1008.85 150.298 1008.94 150.787 1008.3 151.491C1007.24 152.669 1006.56 155.015 1006.44 157.924C1006.31 160.886 1006.34 160.992 1007.85 164.068C1009.6 167.611 1012.32 171.94 1014.63 174.848C1015.98 176.551 1016.11 176.86 1015.61 177.154C1015.29 177.34 1014.54 178.245 1013.94 179.166C1012.91 180.741 1012.85 181.029 1012.87 184.083C1012.88 186.773 1013.04 187.666 1013.78 189.313C1014.77 191.523 1017.37 195.273 1019.34 197.341L1020.63 198.695L1019.83 199.657C1018.78 200.919 1018.58 201.711 1018.55 204.789C1018.52 207.098 1018.65 207.605 1019.82 209.827C1021.74 213.48 1024.83 217.356 1030.52 223.281C1033.31 226.19 1035.59 228.693 1035.59 228.844C1035.59 228.995 1034.97 229.801 1034.21 230.636C1033.4 231.525 1032.66 232.792 1032.43 233.692C1031.86 235.888 1032.22 238.961 1033.27 240.914C1033.76 241.822 1034.47 243.148 1034.84 243.862C1035.9 245.859 1045.19 255.509 1048.42 257.972C1055.23 263.161 1056.36 263.991 1056.66 264.005C1056.84 264.014 1057.54 264.473 1058.23 265.027C1060.37 266.744 1062.77 268.421 1063.08 268.421C1063.25 268.421 1063.66 268.737 1063.99 269.122C1064.32 269.507 1064.96 269.918 1065.4 270.035C1066.05 270.206 1066.25 270.585 1066.45 271.982C1066.83 274.624 1068.08 276.752 1071.15 279.974L1073.95 282.908L1071.77 283.123C1070.58 283.241 1069.1 283.54 1068.5 283.788C1067.52 284.189 1067.2 284.135 1065.63 283.299C1064.66 282.781 1063.69 282.358 1063.47 282.358C1063.26 282.358 1062.66 282.058 1062.15 281.69C1061.65 281.323 1060.44 280.724 1059.49 280.359C1055.27 278.755 1054.43 278.263 1054.43 277.4C1054.43 276.298 1053.17 272.015 1052.15 269.656C1051.7 268.621 1051.23 267.173 1051.1 266.439C1050.83 264.912 1049.58 263.685 1046.36 261.773C1045.22 261.093 1043.76 260.115 1043.11 259.6C1042.47 259.085 1040.87 258.192 1039.56 257.615C1038.24 257.039 1036.93 256.381 1036.64 256.153C1036.35 255.925 1035.57 255.478 1034.9 255.16C1032.3 253.928 1030.18 251.719 1028.04 248.013C1023.02 239.347 1021.79 236.437 1021.66 233.027C1021.52 229.393 1021.58 229.107 1023.02 226.061C1023.78 224.447 1024.5 222.677 1024.63 222.128C1024.94 220.747 1023.78 218.371 1021.81 216.334C1020.35 214.827 1020.04 214.676 1018.09 214.508C1015.97 214.326 1015.95 214.315 1015.48 212.882C1015.22 212.088 1014.76 211.146 1014.45 210.788C1013.83 210.072 1005.78 205.706 1005.07 205.706C1004.83 205.706 1004.41 205.334 1004.14 204.88C1003.58 203.955 1001.42 195.83 1001.42 194.67C1001.42 194.258 1001.26 193.618 1001.07 193.247C1000.88 192.876 1000.18 190.37 999.505 187.678C998.194 182.44 996.226 174.865 995.089 170.68C994.705 169.268 994.189 167.205 993.942 166.096C993.695 164.986 993.285 163.336 993.032 162.428C992.494 160.502 992.557 160.754 992.207 159.127C992.055 158.421 991.722 157.101 991.467 156.193C991.213 155.286 990.589 152.975 990.082 151.059C989.574 149.142 988.775 146.254 988.304 144.64C987.834 143.027 987.129 140.469 986.738 138.956C986.346 137.443 985.641 134.72 985.17 132.904C984.7 131.089 984.019 128.283 983.657 126.669C983.296 125.056 982.842 123.158 982.648 122.452C982.074 120.358 980.783 115.344 980.665 114.75C980.346 113.147 980.019 111.959 979.806 111.632C979.675 111.431 979.371 110.11 979.131 108.698C978.892 107.286 978.552 105.801 978.376 105.397C978.201 104.994 977.498 102.436 976.814 99.7127C976.13 96.9895 975.432 94.2663 975.263 93.6612C974.697 91.6422 973.494 87.0958 972.643 83.7587C972.18 81.9433 971.235 78.3124 970.543 75.69C968.996 69.8289 969.002 69.8832 969.834 69.7034C970.207 69.6231 971.07 69.194 971.752 68.7502C972.434 68.3061 973.541 67.7277 974.212 67.464C974.884 67.2007 975.927 66.7569 976.532 66.4782C977.136 66.1991 977.872 65.971 978.168 65.971C978.463 65.971 978.802 65.8059 978.92 65.6042C979.039 65.4025 980.172 65.2374 981.437 65.2374C983.366 65.2374 983.926 65.3885 984.904 66.173C985.545 66.6876 986.07 67.3525 986.07 67.6503C986.07 67.9485 985.599 69.1731 985.024 70.372C983.891 72.7325 983.746 73.649 984.396 74.333C985.617 75.6167 990.064 73.7425 994.839 69.9319C996.305 68.762 997.598 67.8047 997.712 67.8047C997.825 67.8047 999.215 66.8112 1000.8 65.5965C1003.92 63.2049 1008.68 59.83 1013.1 56.8636C1014.63 55.8349 1016.53 54.4925 1017.32 53.8804C1018.11 53.2683 1018.87 52.7677 1019.01 52.7677C1019.16 52.7677 1019.87 52.2725 1020.6 51.6674C1021.32 51.0622 1022.02 50.5671 1022.15 50.5671C1022.28 50.5671 1022.89 50.1952 1023.5 49.7408C1026.47 47.5304 1033.01 43.9743 1038.21 41.7459C1038.59 41.5812 1039.46 41.2753 1040.13 41.0659C1040.8 40.8568 1042.37 40.3661 1043.62 39.9759C1047.46 38.7718 1049.07 38.4645 1051.53 38.459C1054.13 38.4535 1055.47 38.1901 1055.47 37.6877C1055.47 37.5098 1055.14 37.3638 1054.73 37.3638C1054.32 37.3638 1053.22 36.8687 1052.28 36.2636C1051.35 35.6584 1050.5 35.1633 1050.39 35.1633C1050.29 35.1633 1049.55 34.8483 1048.74 34.4632C1045.71 33.0126 1039.73 31.8625 1035.22 31.8625C1033.89 31.8625 1032.81 31.7385 1032.82 31.5874C1032.84 30.855 1045.01 24.7265 1048.01 23.935C1048.48 23.8125 1048.94 23.5657 1049.05 23.3863C1049.15 23.207 1049.62 23.0603 1050.08 23.0603C1050.55 23.0603 1051.07 22.7493 1051.28 22.3378C1051.6 21.7106 1051.48 21.5214 1050.33 20.9041C1048.92 20.1512 1047.28 19.8523 1042.74 19.5277C1038.22 19.2038 1031.93 20.4189 1026.27 22.7082C1020.77 24.9359 1019.29 25.6569 1017.03 27.1863C1015.91 27.9426 1014.92 28.5617 1014.83 28.5617C1014.74 28.5617 1013.22 29.6139 1011.44 30.9001C1009.67 32.1863 1007.51 33.6115 1006.66 34.0678C1005.8 34.5237 1003.88 35.7725 1002.39 36.843C1000.11 38.4825 994.916 41.3982 994.269 41.3982C994.163 41.3982 993.472 41.8192 992.733 42.3338C991.534 43.1678 985.536 45.0658 984.099 45.0658C983.374 45.0658 983.654 43.4726 984.841 40.8341C986.086 38.0669 986.456 35.0789 985.837 32.7922C984.896 29.312 984.674 28.9284 983.607 28.9284C983.066 28.9284 982.526 28.7626 982.407 28.5606C982.14 28.1054 975.81 28.4219 974.896 28.9361C974.545 29.1334 973.845 29.2952 973.341 29.2952C972.496 29.2952 969.722 30.31 968.147 31.1953C967.785 31.3989 966.687 31.8078 965.706 32.1038C964.726 32.4001 963.296 32.9404 962.529 33.3049C959.901 34.5523 959.664 34.5622 959.477 33.4322C959.384 32.8714 958.76 30.1846 958.091 27.4614C957.422 24.7382 956.629 21.4374 956.33 20.1262C956.03 18.8151 955.46 16.8034 955.063 15.6554C954.356 13.6126 953.195 9.30064 951.773 3.43875C951.382 1.82501 950.895 0.383286 950.691 0.235116C950.193 -0.128341 947.79 -0.0579235 946.415 0.36018ZM1029.13 294.07C1031.26 296.271 1036.77 299.596 1038.29 299.596C1039.62 299.596 1043.85 302.157 1046.61 304.629C1049.51 307.235 1051.22 308.972 1054.5 312.647C1056.33 314.708 1059.95 317.2 1061.11 317.2C1061.37 317.2 1062.17 317.526 1062.87 317.924C1063.93 318.521 1072.62 321.564 1075.18 322.235C1079.93 323.48 1087.08 327.076 1088.09 328.722C1088.34 329.143 1088.72 330.445 1088.92 331.617C1089.12 332.788 1089.37 333.885 1089.47 334.055C1089.57 334.224 1089.82 335.659 1090.03 337.243C1090.41 340.167 1091.85 346.084 1092.45 347.208C1093.24 348.672 1094.27 352.42 1094.54 354.793C1094.7 356.205 1095.06 358.433 1095.35 359.744C1095.63 361.055 1095.94 362.717 1096.04 363.437L1096.22 364.746L1093.81 365.729C1092.49 366.27 1091.15 366.712 1090.84 366.712C1090.52 366.712 1089.15 366.004 1087.78 365.138C1083.91 362.688 1081.73 362.209 1070.74 361.398C1062.99 360.825 1061.26 360.298 1058.87 357.788C1058.18 357.063 1057.17 356.371 1056.63 356.251C1054.83 355.848 1053.37 354.988 1053.08 354.153C1052.92 353.698 1052.86 351.738 1052.94 349.796C1053.07 346.777 1052.99 346.061 1052.39 344.845C1051.67 343.389 1050.27 341.77 1048.2 339.994C1047.15 339.093 1047 338.742 1046.78 336.506C1046.56 334.274 1046.41 333.882 1045.23 332.67C1044.51 331.928 1043.5 330.765 1042.97 330.086C1042.36 329.303 1041.64 328.805 1040.98 328.723C1039.43 328.529 1037.59 328.486 1036.86 328.627C1036.02 328.79 1035.79 328.297 1034.92 324.535C1034.53 322.821 1033.75 319.685 1033.2 317.567C1029.31 302.625 1028.22 298.525 1027.87 297.395C1027.64 296.689 1027.42 295.781 1027.38 295.378C1027.33 294.974 1027.12 294.18 1026.91 293.612C1026.03 291.249 1026.5 291.344 1029.13 294.07ZM1221.75 344.571C1223.52 345.126 1224.97 345.706 1224.97 345.86C1224.97 346.013 1223.21 347.591 1221.06 349.365C1216.55 353.078 1215.73 353.903 1211.67 358.859C1208.65 362.544 1203.02 368.205 1201.27 369.327C1200.74 369.665 1199.58 370.526 1198.69 371.24C1196.63 372.89 1187.74 377.45 1185.22 378.152C1184.54 378.337 1183.45 378.642 1182.77 378.827C1180.43 379.474 1175.56 379.082 1174.7 378.177C1174.39 377.843 1175.37 375.071 1177.52 370.197C1178.15 368.784 1178.9 367.052 1179.19 366.346C1179.48 365.64 1180.08 364.319 1180.51 363.412C1181.89 360.527 1185.67 350.781 1185.64 350.18C1185.58 348.829 1198.92 345.66 1200.46 346.661C1201.08 347.059 1204.36 347.696 1206.61 347.853C1209.3 348.039 1211.49 347.49 1213.37 346.158C1214.21 345.562 1215.01 345.074 1215.14 345.074C1215.28 345.074 1215.69 344.656 1216.06 344.144C1216.83 343.067 1216.98 343.079 1221.75 344.571ZM1269.27 355.64C1271.71 356.059 1273.8 357.027 1273.8 357.737C1273.8 358.039 1273.98 358.583 1274.19 358.945C1274.48 359.434 1274.48 360.073 1274.18 361.416C1273.95 362.413 1273.56 364.383 1273.3 365.795C1272.78 368.648 1271.79 371.459 1270.34 374.228C1269.16 376.485 1267.12 379.549 1266.8 379.549C1266.67 379.549 1266.37 378.765 1266.12 377.807C1265.39 374.935 1263.71 372.189 1260.88 369.26C1257.98 366.249 1255.14 364.108 1253.22 363.477C1252.55 363.256 1250.89 362.682 1249.54 362.203C1247.26 361.399 1246.86 361.361 1244.4 361.729C1242.93 361.948 1241.44 362.375 1241.09 362.678C1240.74 362.981 1239.52 363.717 1238.38 364.314C1236.27 365.421 1232.36 368.487 1231.05 370.059C1229.75 371.627 1227.33 375.619 1226.51 377.567C1225.83 379.194 1225.21 383.456 1225.22 386.517C1225.22 387.556 1225.64 390.369 1225.95 391.472C1226.42 393.07 1228.04 396.341 1228.74 397.076C1229.06 397.423 1230.1 398.696 1231.03 399.906C1232.57 401.909 1237.13 406.334 1239.26 407.892C1240.06 408.474 1240.07 408.523 1239.42 408.523C1237.55 408.523 1230.82 407.384 1229.46 406.839C1228.63 406.501 1227.29 405.504 1226.49 404.623L1225.05 403.021L1222.48 403.004C1219.27 402.984 1201.62 402.666 1200.91 402.616C1200.62 402.596 1198.97 402.342 1197.25 402.051C1195.52 401.761 1193.56 401.46 1192.89 401.382C1191.28 401.197 1188.49 400.629 1184.95 399.768C1181.79 398.998 1181.6 398.832 1176.94 392.852C1174.5 389.718 1174.52 389.31 1177.11 389.619C1178.21 389.751 1180.92 389.661 1183.12 389.419C1185.33 389.177 1187.6 388.929 1188.18 388.867C1192.32 388.423 1199.77 386.548 1200.72 385.709C1200.9 385.548 1201.32 385.417 1201.66 385.417C1202.37 385.417 1205.98 383.251 1207.48 381.929C1208.04 381.427 1208.61 381.016 1208.72 381.016C1208.84 381.016 1210.23 380.131 1211.81 379.05C1213.39 377.968 1215.38 376.715 1216.22 376.265C1217.94 375.344 1222.68 371.978 1224.8 370.175C1226.05 369.111 1228.48 367.325 1233.87 363.526C1238.59 360.196 1246.82 356.981 1254.45 355.494C1257.1 354.976 1265.91 355.063 1269.27 355.64ZM1050.74 379.916C1053.67 383.866 1058.21 387.885 1061.88 389.781C1063.62 390.678 1067.24 391.965 1071.22 393.106L1077.73 394.968L1085 395.04C1090.83 395.098 1092.89 394.981 1095.41 394.45L1098.55 393.787L1099.33 394.828C1104.19 401.333 1109.91 410.206 1110.44 412.077C1111.63 416.22 1110.89 420.186 1108.02 425.118C1105.25 429.863 1098.83 436.519 1094.84 438.766C1091.46 440.673 1087.9 441.335 1085.31 440.537C1080.24 438.974 1076.36 435.333 1064.36 420.918L1057.74 412.958L1056.78 409.365C1056.25 407.389 1055.57 404.782 1055.27 403.572C1054.96 402.361 1053.23 395.946 1051.43 389.316C1049.63 382.686 1048.15 377.088 1048.15 376.877C1048.15 376.4 1047.98 376.198 1050.74 379.916ZM1015.04 411.36C1017.86 412.788 1021.88 416.323 1024.02 419.252C1024.92 420.486 1026.28 422.261 1027.05 423.195C1027.82 424.129 1028.84 425.589 1029.32 426.44C1031.17 429.731 1035.34 435.168 1041.56 442.403C1044.32 445.619 1046.39 447.584 1049.76 450.182C1055.81 454.86 1055.93 455.327 1050.42 452.764C1044.71 450.108 1036.86 450.122 1031.06 452.799C1028.05 454.19 1024.42 456.057 1022.31 457.305C1021.05 458.052 1017.77 459.616 1015.03 460.782C1010.09 462.881 1010.01 462.899 1007.28 462.702C1005.51 462.574 1004.19 462.273 1003.58 461.855C1001.9 460.702 996.345 454.59 995.737 453.221C995.1 451.787 993.266 443.606 992.911 440.614C991.309 427.136 992.173 422.64 997.77 415.322C999.758 412.722 1000.72 411.785 1002.01 411.172C1004.24 410.114 1004.81 410.031 1009.11 410.134C1012.42 410.213 1013.02 410.337 1015.04 411.36Z" fill="white" fill-opacity="0.05"/>
</g>
<defs>
<clipPath id="clip0_1083_5988">
<rect width="1368" height="699" fill="white"/>
</clipPath>
</defs>
</svg>
